  0
SECTION
  2
HEADER
  9
$ACADVER
  1
AC1024
  9
$ACADMAINTVER
 70
     6
  9
$DWGCODEPAGE
  3
ANSI_1252
  9
$INSBASE
 10
0.0
 20
0.0
 30
0.0
  9
$EXTMIN
 10
1.000000000000000E+20
 20
1.000000000000000E+20
 30
1.000000000000000E+20
  9
$EXTMAX
 10
-1.000000000000000E+20
 20
-1.000000000000000E+20
 30
-1.000000000000000E+20
  9
$LIMMIN
 10
0.0
 20
0.0
  9
$LIMMAX
 10
12.0
 20
9.0
  9
$ORTHOMODE
 70
     0
  9
$REGENMODE
 70
     1
  9
$FILLMODE
 70
     1
  9
$QTEXTMODE
 70
     0
  9
$MIRRTEXT
 70
     1
  9
$LTSCALE
 40
1.0
  9
$ATTMODE
 70
     1
  9
$TEXTSIZE
 40
0.2
  9
$TRACEWID
 40
0.05
  9
$TEXTSTYLE
  7
Standard
  9
$CLAYER
  8
0
  9
$CELTYPE
  6
ByLayer
  9
$CECOLOR
 62
   256
  9
$CELTSCALE
 40
1.0
  9
$DISPSILH
 70
     0
  9
$DIMSCALE
 40
1.0
  9
$DIMASZ
 40
0.18
  9
$DIMEXO
 40
0.0625
  9
$DIMDLI
 40
0.38
  9
$DIMRND
 40
0.0
  9
$DIMDLE
 40
0.0
  9
$DIMEXE
 40
0.18
  9
$DIMTP
 40
0.0
  9
$DIMTM
 40
0.0
  9
$DIMTXT
 40
0.18
  9
$DIMCEN
 40
0.09
  9
$DIMTSZ
 40
0.0
  9
$DIMTOL
 70
     0
  9
$DIMLIM
 70
     0
  9
$DIMTIH
 70
     1
  9
$DIMTOH
 70
     1
  9
$DIMSE1
 70
     0
  9
$DIMSE2
 70
     0
  9
$DIMTAD
 70
     0
  9
$DIMZIN
 70
     0
  9
$DIMBLK
  1

  9
$DIMASO
 70
     1
  9
$DIMSHO
 70
     1
  9
$DIMPOST
  1

  9
$DIMAPOST
  1

  9
$DIMALT
 70
     0
  9
$DIMALTD
 70
     2
  9
$DIMALTF
 40
25.4
  9
$DIMLFAC
 40
1.0
  9
$DIMTOFL
 70
     0
  9
$DIMTVP
 40
0.0
  9
$DIMTIX
 70
     0
  9
$DIMSOXD
 70
     0
  9
$DIMSAH
 70
     0
  9
$DIMBLK1
  1

  9
$DIMBLK2
  1

  9
$DIMSTYLE
  2
Standard
  9
$DIMCLRD
 70
     0
  9
$DIMCLRE
 70
     0
  9
$DIMCLRT
 70
     0
  9
$DIMTFAC
 40
1.0
  9
$DIMGAP
 40
0.09
  9
$DIMJUST
 70
     0
  9
$DIMSD1
 70
     0
  9
$DIMSD2
 70
     0
  9
$DIMTOLJ
 70
     1
  9
$DIMTZIN
 70
     0
  9
$DIMALTZ
 70
     0
  9
$DIMALTTZ
 70
     0
  9
$DIMUPT
 70
     0
  9
$DIMDEC
 70
     4
  9
$DIMTDEC
 70
     4
  9
$DIMALTU
 70
     2
  9
$DIMALTTD
 70
     2
  9
$DIMTXSTY
  7
Standard
  9
$DIMAUNIT
 70
     0
  9
$DIMADEC
 70
     0
  9
$DIMALTRND
 40
0.0
  9
$DIMAZIN
 70
     0
  9
$DIMDSEP
 70
    46
  9
$DIMATFIT
 70
     3
  9
$DIMFRAC
 70
     0
  9
$DIMLDRBLK
  1

  9
$DIMLUNIT
 70
     2
  9
$DIMLWD
 70
    -2
  9
$DIMLWE
 70
    -2
  9
$DIMTMOVE
 70
     0
  9
$DIMFXL
 40
1.0
  9
$DIMFXLON
 70
     0
  9
$DIMJOGANG
 40
0.7853981633974483
  9
$DIMTFILL
 70
     0
  9
$DIMTFILLCLR
 70
     0
  9
$DIMARCSYM
 70
     0
  9
$DIMLTYPE
  6

  9
$DIMLTEX1
  6

  9
$DIMLTEX2
  6

  9
$DIMTXTDIRECTION
 70
     0
  9
$LUNITS
 70
     2
  9
$LUPREC
 70
     4
  9
$SKETCHINC
 40
0.1
  9
$FILLETRAD
 40
0.5
  9
$AUNITS
 70
     0
  9
$AUPREC
 70
     0
  9
$MENU
  1
.
  9
$ELEVATION
 40
0.0
  9
$PELEVATION
 40
0.0
  9
$THICKNESS
 40
0.0
  9
$LIMCHECK
 70
     0
  9
$CHAMFERA
 40
0.5
  9
$CHAMFERB
 40
0.5
  9
$CHAMFERC
 40
1.0
  9
$CHAMFERD
 40
0.0
  9
$SKPOLY
 70
     0
  9
$TDCREATE
 40
2459277.884025116
  9
$TDUCREATE
 40
2459278.092358449
  9
$TDUPDATE
 40
2459277.884025255
  9
$TDUUPDATE
 40
2459278.092358588
  9
$TDINDWG
 40
0.0000000116
  9
$TDUSRTIMER
 40
0.0000000116
  9
$USRTIMER
 70
     1
  9
$ANGBASE
 50
0.0
  9
$ANGDIR
 70
     0
  9
$PDMODE
 70
     0
  9
$PDSIZE
 40
0.0
  9
$PLINEWID
 40
0.0
  9
$SPLFRAME
 70
     0
  9
$SPLINETYPE
 70
     6
  9
$SPLINESEGS
 70
     8
  9
$HANDSEED
  5
DF
  9
$SURFTAB1
 70
     6
  9
$SURFTAB2
 70
     6
  9
$SURFTYPE
 70
     6
  9
$SURFU
 70
     6
  9
$SURFV
 70
     6
  9
$UCSBASE
  2

  9
$UCSNAME
  2

  9
$UCSORG
 10
0.0
 20
0.0
 30
0.0
  9
$UCSXDIR
 10
1.0
 20
0.0
 30
0.0
  9
$UCSYDIR
 10
0.0
 20
1.0
 30
0.0
  9
$UCSORTHOREF
  2

  9
$UCSORTHOVIEW
 70
     0
  9
$UCSORGTOP
 10
0.0
 20
0.0
 30
0.0
  9
$UCSORGBOTTOM
 10
0.0
 20
0.0
 30
0.0
  9
$UCSORGLEFT
 10
0.0
 20
0.0
 30
0.0
  9
$UCSORGRIGHT
 10
0.0
 20
0.0
 30
0.0
  9
$UCSORGFRONT
 10
0.0
 20
0.0
 30
0.0
  9
$UCSORGBACK
 10
0.0
 20
0.0
 30
0.0
  9
$PUCSBASE
  2

  9
$PUCSNAME
  2

  9
$PUCSORG
 10
0.0
 20
0.0
 30
0.0
  9
$PUCSXDIR
 10
1.0
 20
0.0
 30
0.0
  9
$PUCSYDIR
 10
0.0
 20
1.0
 30
0.0
  9
$PUCSORTHOREF
  2

  9
$PUCSORTHOVIEW
 70
     0
  9
$PUCSORGTOP
 10
0.0
 20
0.0
 30
0.0
  9
$PUCSORGBOTTOM
 10
0.0
 20
0.0
 30
0.0
  9
$PUCSORGLEFT
 10
0.0
 20
0.0
 30
0.0
  9
$PUCSORGRIGHT
 10
0.0
 20
0.0
 30
0.0
  9
$PUCSORGFRONT
 10
0.0
 20
0.0
 30
0.0
  9
$PUCSORGBACK
 10
0.0
 20
0.0
 30
0.0
  9
$USERI1
 70
     0
  9
$USERI2
 70
     0
  9
$USERI3
 70
     0
  9
$USERI4
 70
     0
  9
$USERI5
 70
     0
  9
$USERR1
 40
0.0
  9
$USERR2
 40
0.0
  9
$USERR3
 40
0.0
  9
$USERR4
 40
0.0
  9
$USERR5
 40
0.0
  9
$WORLDVIEW
 70
     1
  9
$SHADEDGE
 70
     3
  9
$SHADEDIF
 70
    70
  9
$TILEMODE
 70
     1
  9
$MAXACTVP
 70
    64
  9
$PINSBASE
 10
0.0
 20
0.0
 30
0.0
  9
$PLIMCHECK
 70
     0
  9
$PEXTMIN
 10
1.000000000000000E+20
 20
1.000000000000000E+20
 30
1.000000000000000E+20
  9
$PEXTMAX
 10
-1.000000000000000E+20
 20
-1.000000000000000E+20
 30
-1.000000000000000E+20
  9
$PLIMMIN
 10
0.0
 20
0.0
  9
$PLIMMAX
 10
12.0
 20
9.0
  9
$UNITMODE
 70
     0
  9
$VISRETAIN
 70
     1
  9
$PLINEGEN
 70
     0
  9
$PSLTSCALE
 70
     1
  9
$TREEDEPTH
 70
  3020
  9
$CMLSTYLE
  2
Standard
  9
$CMLJUST
 70
     0
  9
$CMLSCALE
 40
1.0
  9
$PROXYGRAPHICS
 70
     1
  9
$MEASUREMENT
 70
     0
  9
$CELWEIGHT
370
    -1
  9
$ENDCAPS
280
     0
  9
$JOINSTYLE
280
     0
  9
$LWDISPLAY
290
     1
  9
$INSUNITS
 70
     1
  9
$HYPERLINKBASE
  1

  9
$STYLESHEET
  1

  9
$XEDIT
290
     1
  9
$CEPSNTYPE
380
     0
  9
$PSTYLEMODE
290
     1
  9
$FINGERPRINTGUID
  2
{83BDCDF6-493B-4B5B-A296-EBD3DC9AFB69}
  9
$VERSIONGUID
  2
{FAEB1C32-E019-11D5-929B-00C0DF256EC4}
  9
$EXTNAMES
290
     1
  9
$PSVPSCALE
 40
0.0
  9
$OLESTARTUP
290
     0
  9
$SORTENTS
280
   127
  9
$INDEXCTL
280
     0
  9
$HIDETEXT
280
     1
  9
$XCLIPFRAME
280
     2
  9
$HALOGAP
280
     0
  9
$OBSCOLOR
 70
   257
  9
$OBSLTYPE
280
     0
  9
$INTERSECTIONDISPLAY
280
     0
  9
$INTERSECTIONCOLOR
 70
   257
  9
$DIMASSOC
280
     2
  9
$PROJECTNAME
  1

  9
$CAMERADISPLAY
290
     0
  9
$LENSLENGTH
 40
50.0
  9
$CAMERAHEIGHT
 40
0.0
  9
$STEPSPERSEC
 40
2.0
  9
$STEPSIZE
 40
6.0
  9
$3DDWFPREC
 40
2.0
  9
$PSOLWIDTH
 40
0.25
  9
$PSOLHEIGHT
 40
4.0
  9
$LOFTANG1
 40
1.570796326794897
  9
$LOFTANG2
 40
1.570796326794897
  9
$LOFTMAG1
 40
0.0
  9
$LOFTMAG2
 40
0.0
  9
$LOFTPARAM
 70
     7
  9
$LOFTNORMALS
280
     1
  9
$LATITUDE
 40
37.795
  9
$LONGITUDE
 40
-122.394
  9
$NORTHDIRECTION
 40
0.0
  9
$TIMEZONE
 70
 -8000
  9
$LIGHTGLYPHDISPLAY
280
     1
  9
$TILEMODELIGHTSYNCH
280
     1
  9
$CMATERIAL
347
3C
  9
$SOLIDHIST
280
     1
  9
$SHOWHIST
280
     1
  9
$DWFFRAME
280
     2
  9
$DGNFRAME
280
     2
  9
$REALWORLDSCALE
290
     1
  9
$INTERFERECOLOR
 62
   256
  9
$CSHADOW
280
     0
  9
$SHADOWPLANELOCATION
 40
0.0
  0
ENDSEC
  0
SECTION
  2
CLASSES
  0
CLASS
  1
ACDBDICTIONARYWDFLT
  2
AcDbDictionaryWithDefault
  3
ObjectDBX Classes
 90
        0
 91
        4
280
     0
281
     0
  0
CLASS
  1
VISUALSTYLE
  2
AcDbVisualStyle
  3
ObjectDBX Classes
 90
     4095
 91
        4
280
     0
281
     0
  0
CLASS
  1
MATERIAL
  2
AcDbMaterial
  3
ObjectDBX Classes
 90
     1153
 91
        4
280
     0
281
     0
  0
CLASS
  1
SUN
  2
AcDbSun
  3
SCENEOE
 90
     1024
 91
        4
280
     0
281
     0
  0
ENDSEC
  0
SECTION
  2
TABLES
  0
TABLE
  2
VPORT
  5
8
330
0
100
AcDbSymbolTable
 70
     1
  0
VPORT
  5
29
330
8
100
AcDbSymbolTableRecord
100
AcDbViewportTableRecord
  2
*Active
 70
     0
 10
0.0
 20
0.0
 11
1.0
 21
1.0
 12
0.0
 22
0.0
 13
0.0
 23
0.0
 14
0.5
 24
0.5
 15
0.5
 25
0.5
 16
0.0
 26
0.0
 36
1.0
 17
0.5694444444444444
 27
-0.1458333333333333
 37
0.0
 40
0.2916666666666666
 41
3.904761904761905
 42
50.0
 43
0.0
 44
0.0
 50
0.0
 51
0.0
 71
     0
 72
   100
 73
     1
 74
     3
 75
     0
 76
     0
 77
     0
 78
     0
281
     0
 65
     1
110
0.0
120
0.0
130
0.0
111
1.0
121
0.0
131
0.0
112
0.0
122
1.0
132
0.0
 79
     0
146
0.0
 60
     3
 61
     5
292
     1
282
     1
141
0.0
142
0.0
 63
   250
361
3F
  0
ENDTAB
  0
TABLE
  2
LTYPE
  5
5
330
0
100
AcDbSymbolTable
 70
     1
  0
LTYPE
  5
14
330
5
100
AcDbSymbolTableRecord
100
AcDbLinetypeTableRecord
  2
ByBlock
 70
     0
  3

 72
    65
 73
     0
 40
0.0
  0
LTYPE
  5
15
330
5
100
AcDbSymbolTableRecord
100
AcDbLinetypeTableRecord
  2
ByLayer
 70
     0
  3

 72
    65
 73
     0
 40
0.0
  0
LTYPE
  5
16
330
5
100
AcDbSymbolTableRecord
100
AcDbLinetypeTableRecord
  2
Continuous
 70
     0
  3
Solid line
 72
    65
 73
     0
 40
0.0
  0
ENDTAB
  0
TABLE
  2
LAYER
  5
2
330
0
100
AcDbSymbolTable
 70
     2
  0
LAYER
  5
10
330
2
100
AcDbSymbolTableRecord
100
AcDbLayerTableRecord
  2
0
 70
     0
 62
     7
  6
Continuous
370
    -3
390
F
347
3E
  0
LAYER
  5
40
330
2
100
AcDbSymbolTableRecord
100
AcDbLayerTableRecord
  2
Layer 1
 70
     0
 62
     7
  6
Continuous
370
    -3
390
F
347
3E
  0
ENDTAB
  0
TABLE
  2
STYLE
  5
3
330
0
100
AcDbSymbolTable
 70
     1
  0
STYLE
  5
11
330
3
100
AcDbSymbolTableRecord
100
AcDbTextStyleTableRecord
  2
Standard
 70
     0
 40
0.0
 41
1.0
 50
0.0
 71
     0
 42
0.2
  3
txt
  4

  0
ENDTAB
  0
TABLE
  2
VIEW
  5
6
330
0
100
AcDbSymbolTable
 70
     0
  0
ENDTAB
  0
TABLE
  2
UCS
  5
7
330
0
100
AcDbSymbolTable
 70
     0
  0
ENDTAB
  0
TABLE
  2
APPID
  5
9
330
0
100
AcDbSymbolTable
 70
     1
  0
APPID
  5
12
330
9
100
AcDbSymbolTableRecord
100
AcDbRegAppTableRecord
  2
ACAD
 70
     0
  0
ENDTAB
  0
TABLE
  2
DIMSTYLE
  5
A
330
0
100
AcDbSymbolTable
 70
     1
100
AcDbDimStyleTable
  0
DIMSTYLE
105
27
330
A
100
AcDbSymbolTableRecord
100
AcDbDimStyleTableRecord
  2
Standard
 70
     0
178
     0
340
11
  0
ENDTAB
  0
TABLE
  2
BLOCK_RECORD
  5
1
330
0
100
AcDbSymbolTable
 70
     3
  0
BLOCK_RECORD
  5
1F
330
1
100
AcDbSymbolTableRecord
100
AcDbBlockTableRecord
  2
*Model_Space
340
22
 70
     0
280
     1
281
     0
  0
BLOCK_RECORD
  5
1B
330
1
100
AcDbSymbolTableRecord
100
AcDbBlockTableRecord
  2
*Paper_Space
340
1E
 70
     0
280
     1
281
     0
  0
BLOCK_RECORD
  5
23
330
1
100
AcDbSymbolTableRecord
100
AcDbBlockTableRecord
  2
*Paper_Space0
340
26
 70
     0
280
     1
281
     0
  0
BLOCK_RECORD
  5
41
330
1
100
AcDbSymbolTableRecord
100
AcDbBlockTableRecord
  2
block 2
340
0
102
{BLKREFS
331
42
102
}
 70
     0
280
     1
281
     0
  0
BLOCK_RECORD
  5
45
330
1
100
AcDbSymbolTableRecord
100
AcDbBlockTableRecord
  2
block 3
340
0
102
{BLKREFS
331
46
102
}
 70
     0
280
     1
281
     0
  0
ENDTAB
  0
ENDSEC
  0
SECTION
  2
BLOCKS
  0
BLOCK
  5
20
330
1F
100
AcDbEntity
  8
0
100
AcDbBlockBegin
  2
*Model_Space
 70
     0
 10
0.0
 20
0.0
 30
0.0
  3
*Model_Space
  1

  0
ENDBLK
  5
21
330
1F
100
AcDbEntity
  8
0
100
AcDbBlockEnd
  0
BLOCK
  5
1C
330
1B
100
AcDbEntity
 67
     1
  8
0
100
AcDbBlockBegin
  2
*Paper_Space
 70
     0
 10
0.0
 20
0.0
 30
0.0
  3
*Paper_Space
  1

  0
ENDBLK
  5
1D
330
1B
100
AcDbEntity
 67
     1
  8
0
100
AcDbBlockEnd
  0
BLOCK
  5
24
330
23
100
AcDbEntity
  8
0
100
AcDbBlockBegin
  2
*Paper_Space0
 70
     0
 10
0.0
 20
0.0
 30
0.0
  3
*Paper_Space0
  1

  0
ENDBLK
  5
25
330
23
100
AcDbEntity
  8
0
100
AcDbBlockEnd
  0
BLOCK
  5
43
330
41
100
AcDbEntity
  8
0
100
AcDbBlockBegin
  2
block 2
 70
     0
 10
0.0
 20
0.0
 30
0.0
  3
block 2
  1

  0
INSERT
  5
46
330
41
100
AcDbEntity
  8
Layer 1
100
AcDbBlockReference
  2
block 3
 10
0.0
 20
0.0
 30
0.0
  0
POLYLINE
  5
A1
330
41
100
AcDbEntity
  8
Layer 1
370
     0
100
AcDb2dPolyline
 66
     1
 10
0.0
 20
0.0
 30
0.0
  0
VERTEX
  5
A2
330
A1
100
AcDbEntity
  8
Layer 1
370
     0
100
AcDbVertex
100
AcDb2dVertex
 10
0.0558938092155914
 20
-0.003990650267623
 30
0.0
  0
VERTEX
  5
A3
330
A1
100
AcDbEntity
  8
Layer 1
370
     0
100
AcDbVertex
100
AcDb2dVertex
 10
0.0526308092235392
 20
-0.003990650267623
 30
0.0
  0
VERTEX
  5
A4
330
A1
100
AcDbEntity
  8
Layer 1
370
     0
100
AcDbVertex
100
AcDb2dVertex
 10
0.0487647674765412
 20
-0.0078568053683309
 30
0.0
  0
VERTEX
  5
A5
330
A1
100
AcDbEntity
  8
Layer 1
370
     0
100
AcDbVertex
100
AcDb2dVertex
 10
0.0006295665238617
 20
-0.0559918929673005
 30
0.0
  0
VERTEX
  5
A6
330
A1
100
AcDbEntity
  8
Layer 1
370
     0
100
AcDbVertex
100
AcDb2dVertex
 10
0.0
 20
-0.0566213461374521
 30
0.0
  0
VERTEX
  5
A7
330
A1
100
AcDbEntity
  8
Layer 1
370
     0
100
AcDbVertex
100
AcDb2dVertex
 10
0.0
 20
-0.0597062674458534
 30
0.0
  0
VERTEX
  5
A8
330
A1
100
AcDbEntity
  8
Layer 1
370
     0
100
AcDbVertex
100
AcDb2dVertex
 10
0.0
 20
-0.0743855733226913
 30
0.0
  0
VERTEX
  5
A9
330
A1
100
AcDbEntity
  8
Layer 1
370
     0
100
AcDbVertex
100
AcDb2dVertex
 10
0.0
 20
-0.22331693653934
 30
0.0
  0
VERTEX
  5
AA
330
A1
100
AcDbEntity
  8
Layer 1
370
     0
100
AcDbVertex
100
AcDb2dVertex
 10
0.0
 20
-0.2379962424161779
 30
0.0
  0
VERTEX
  5
AB
330
A1
100
AcDbEntity
  8
Layer 1
370
     0
100
AcDbVertex
100
AcDb2dVertex
 10
0.0
 20
-0.2410811637245792
 30
0.0
  0
VERTEX
  5
AC
330
A1
100
AcDbEntity
  8
Layer 1
370
     0
100
AcDbVertex
100
AcDb2dVertex
 10
0.0006295665238617
 20
-0.2417106168947182
 30
0.0
  0
VERTEX
  5
AD
330
A1
100
AcDbEntity
  8
Layer 1
370
     0
100
AcDbVertex
100
AcDb2dVertex
 10
0.0487647674765412
 20
-0.2898457044937004
 30
0.0
  0
VERTEX
  5
AE
330
A1
100
AcDbEntity
  8
Layer 1
370
     0
100
AcDbVertex
100
AcDb2dVertex
 10
0.0526308092235392
 20
-0.2937118595943957
 30
0.0
  0
VERTEX
  5
AF
330
A1
100
AcDbEntity
  8
Layer 1
370
     0
100
AcDbVertex
100
AcDb2dVertex
 10
0.0558938092155914
 20
-0.2937118595943957
 30
0.0
  0
VERTEX
  5
B0
330
A1
100
AcDbEntity
  8
Layer 1
370
     0
100
AcDbVertex
100
AcDb2dVertex
 10
0.0633225581726846
 20
-0.2937118595943957
 30
0.0
  0
VERTEX
  5
B1
330
A1
100
AcDbEntity
  8
Layer 1
370
     0
100
AcDbVertex
100
AcDb2dVertex
 10
0.0633225581726846
 20
-0.2862832239910125
 30
0.0
  0
VERTEX
  5
B2
330
A1
100
AcDbEntity
  8
Layer 1
370
     0
100
AcDbVertex
100
AcDb2dVertex
 10
0.0633225581726846
 20
-0.2765631430725711
 30
0.0
  0
VERTEX
  5
B3
330
A1
100
AcDbEntity
  8
Layer 1
370
     0
100
AcDbVertex
100
AcDb2dVertex
 10
0.0633225581726846
 20
-0.2711655793047182
 30
0.0
  0
VERTEX
  5
B4
330
A1
100
AcDbEntity
  8
Layer 1
370
     0
100
AcDbVertex
100
AcDb2dVertex
 10
0.0579251077585417
 20
-0.2711655793047182
 30
0.0
  0
VERTEX
  5
B5
330
A1
100
AcDbEntity
  8
Layer 1
370
     0
100
AcDbVertex
100
AcDb2dVertex
 10
0.0196863661022412
 20
-0.2329268376484177
 30
0.0
  0
VERTEX
  5
B6
330
A1
100
AcDbEntity
  8
Layer 1
370
     0
100
AcDbVertex
100
AcDb2dVertex
 10
0.0196863661022412
 20
-0.0647756722136011
 30
0.0
  0
VERTEX
  5
B7
330
A1
100
AcDbEntity
  8
Layer 1
370
     0
100
AcDbVertex
100
AcDb2dVertex
 10
0.0579251077585417
 20
-0.0265369305573131
 30
0.0
  0
VERTEX
  5
B8
330
A1
100
AcDbEntity
  8
Layer 1
370
     0
100
AcDbVertex
100
AcDb2dVertex
 10
0.0633225581726846
 20
-0.0265369305573131
 30
0.0
  0
VERTEX
  5
B9
330
A1
100
AcDbEntity
  8
Layer 1
370
     0
100
AcDbVertex
100
AcDb2dVertex
 10
0.0633225581726846
 20
-0.0211393667894476
 30
0.0
  0
VERTEX
  5
BA
330
A1
100
AcDbEntity
  8
Layer 1
370
     0
100
AcDbVertex
100
AcDb2dVertex
 10
0.0633225581726846
 20
-0.0114192858710061
 30
0.0
  0
VERTEX
  5
BB
330
A1
100
AcDbEntity
  8
Layer 1
370
     0
100
AcDbVertex
100
AcDb2dVertex
 10
0.0633225581726846
 20
-0.003990650267623
 30
0.0
  0
VERTEX
  5
BC
330
A1
100
AcDbEntity
  8
Layer 1
370
     0
100
AcDbVertex
100
AcDb2dVertex
 10
0.0558938092155914
 20
-0.003990650267623
 30
0.0
  0
SEQEND
  5
BE
330
A1
100
AcDbEntity
  8
Layer 1
370
     0
  0
HATCH
  5
BD
330
41
100
AcDbEntity
  8
Layer 1
 62
     7
420
 16777215
100
AcDbHatch
 10
0.0
 20
0.0
 30
0.0
210
0.0
220
0.0
230
1.0
  2
SOLID
 70
     1
 71
     0
 91
        1
 92
        1
 93
       26
 72
     1
 10
0.0558938092155914
 20
-0.003990650267623
 11
0.0526308092235392
 21
-0.003990650267623
 72
     1
 10
0.0526308092235392
 20
-0.003990650267623
 11
0.0487647674765412
 21
-0.0078568053683309
 72
     1
 10
0.0487647674765412
 20
-0.0078568053683309
 11
0.0006295665238617
 21
-0.0559918929673005
 72
     1
 10
0.0006295665238617
 20
-0.0559918929673005
 11
0.0
 21
-0.0566213461374521
 72
     1
 10
0.0
 20
-0.0566213461374521
 11
0.0
 21
-0.0597062674458534
 72
     1
 10
0.0
 20
-0.0597062674458534
 11
0.0
 21
-0.0743855733226913
 72
     1
 10
0.0
 20
-0.0743855733226913
 11
0.0
 21
-0.22331693653934
 72
     1
 10
0.0
 20
-0.22331693653934
 11
0.0
 21
-0.2379962424161779
 72
     1
 10
0.0
 20
-0.2379962424161779
 11
0.0
 21
-0.2410811637245792
 72
     1
 10
0.0
 20
-0.2410811637245792
 11
0.0006295665238617
 21
-0.2417106168947182
 72
     1
 10
0.0006295665238617
 20
-0.2417106168947182
 11
0.0487647674765412
 21
-0.2898457044937004
 72
     1
 10
0.0487647674765412
 20
-0.2898457044937004
 11
0.0526308092235392
 21
-0.2937118595943957
 72
     1
 10
0.0526308092235392
 20
-0.2937118595943957
 11
0.0558938092155914
 21
-0.2937118595943957
 72
     1
 10
0.0558938092155914
 20
-0.2937118595943957
 11
0.0633225581726846
 21
-0.2937118595943957
 72
     1
 10
0.0633225581726846
 20
-0.2937118595943957
 11
0.0633225581726846
 21
-0.2862832239910125
 72
     1
 10
0.0633225581726846
 20
-0.2862832239910125
 11
0.0633225581726846
 21
-0.2765631430725711
 72
     1
 10
0.0633225581726846
 20
-0.2765631430725711
 11
0.0633225581726846
 21
-0.2711655793047182
 72
     1
 10
0.0633225581726846
 20
-0.2711655793047182
 11
0.0579251077585417
 21
-0.2711655793047182
 72
     1
 10
0.0579251077585417
 20
-0.2711655793047182
 11
0.0196863661022412
 21
-0.2329268376484177
 72
     1
 10
0.0196863661022412
 20
-0.2329268376484177
 11
0.0196863661022412
 21
-0.0647756722136011
 72
     1
 10
0.0196863661022412
 20
-0.0647756722136011
 11
0.0579251077585417
 21
-0.0265369305573131
 72
     1
 10
0.0579251077585417
 20
-0.0265369305573131
 11
0.0633225581726846
 21
-0.0265369305573131
 72
     1
 10
0.0633225581726846
 20
-0.0265369305573131
 11
0.0633225581726846
 21
-0.0211393667894476
 72
     1
 10
0.0633225581726846
 20
-0.0211393667894476
 11
0.0633225581726846
 21
-0.0114192858710061
 72
     1
 10
0.0633225581726846
 20
-0.0114192858710061
 11
0.0633225581726846
 21
-0.003990650267623
 72
     1
 10
0.0633225581726846
 20
-0.003990650267623
 11
0.0558938092155914
 21
-0.003990650267623
 97
        0
 75
     2
 76
     1
 98
        0
  0
POLYLINE
  5
BF
330
41
100
AcDbEntity
  8
Layer 1
370
     0
100
AcDb2dPolyline
 66
     1
 10
0.0
 20
0.0
 30
0.0
  0
VERTEX
  5
C0
330
BF
100
AcDbEntity
  8
Layer 1
370
     0
100
AcDbVertex
100
AcDb2dVertex
 10
1.084106190786782
 20
-0.0000000000003284
 30
0.0
  0
VERTEX
  5
C1
330
BF
100
AcDbEntity
  8
Layer 1
370
     0
100
AcDbVertex
100
AcDb2dVertex
 10
1.087369190778822
 20
-0.00000000000048
 30
0.0
  0
VERTEX
  5
C2
330
BF
100
AcDbEntity
  8
Layer 1
370
     0
100
AcDbVertex
100
AcDb2dVertex
 10
1.091235232525643
 20
-0.0038661551013522
 30
0.0
  0
VERTEX
  5
C3
330
BF
100
AcDbEntity
  8
Layer 1
370
     0
100
AcDbVertex
100
AcDb2dVertex
 10
1.139370433476163
 20
-0.0520012427024944
 30
0.0
  0
VERTEX
  5
C4
330
BF
100
AcDbEntity
  8
Layer 1
370
     0
100
AcDbVertex
100
AcDb2dVertex
 10
1.139999999999999
 20
-0.0526306958726587
 30
0.0
  0
VERTEX
  5
C5
330
BF
100
AcDbEntity
  8
Layer 1
370
     0
100
AcDbVertex
100
AcDb2dVertex
 10
1.13999999999986
 20
-0.0557156171810599
 30
0.0
  0
VERTEX
  5
C6
330
BF
100
AcDbEntity
  8
Layer 1
370
     0
100
AcDbVertex
100
AcDb2dVertex
 10
1.139999999999203
 20
-0.0703949230578979
 30
0.0
  0
VERTEX
  5
C7
330
BF
100
AcDbEntity
  8
Layer 1
370
     0
100
AcDbVertex
100
AcDb2dVertex
 10
1.139999999992508
 20
-0.2193262862745592
 30
0.0
  0
VERTEX
  5
C8
330
BF
100
AcDbEntity
  8
Layer 1
370
     0
100
AcDbVertex
100
AcDb2dVertex
 10
1.139999999991864
 20
-0.2340055921513845
 30
0.0
  0
VERTEX
  5
C9
330
BF
100
AcDbEntity
  8
Layer 1
370
     0
100
AcDbVertex
100
AcDb2dVertex
 10
1.139999999991712
 20
-0.2370905134597857
 30
0.0
  0
VERTEX
  5
CA
330
BF
100
AcDbEntity
  8
Layer 1
370
     0
100
AcDbVertex
100
AcDb2dVertex
 10
1.139370433467825
 20
-0.2377199666299121
 30
0.0
  0
VERTEX
  5
CB
330
BF
100
AcDbEntity
  8
Layer 1
370
     0
100
AcDbVertex
100
AcDb2dVertex
 10
1.091235232512986
 20
-0.2858550542267216
 30
0.0
  0
VERTEX
  5
CC
330
BF
100
AcDbEntity
  8
Layer 1
370
     0
100
AcDbVertex
100
AcDb2dVertex
 10
1.087369190765811
 20
-0.2897212093272401
 30
0.0
  0
VERTEX
  5
CD
330
BF
100
AcDbEntity
  8
Layer 1
370
     0
100
AcDbVertex
100
AcDb2dVertex
 10
1.084106190773771
 20
-0.2897212093271012
 30
0.0
  0
VERTEX
  5
CE
330
BF
100
AcDbEntity
  8
Layer 1
370
     0
100
AcDbVertex
100
AcDb2dVertex
 10
1.076677441816678
 20
-0.2897212093267727
 30
0.0
  0
VERTEX
  5
CF
330
BF
100
AcDbEntity
  8
Layer 1
370
     0
100
AcDbVertex
100
AcDb2dVertex
 10
1.076677441817007
 20
-0.2822925737233896
 30
0.0
  0
VERTEX
  5
D0
330
BF
100
AcDbEntity
  8
Layer 1
370
     0
100
AcDbVertex
100
AcDb2dVertex
 10
1.076677441817436
 20
-0.2725724928049355
 30
0.0
  0
VERTEX
  5
D1
330
BF
100
AcDbEntity
  8
Layer 1
370
     0
100
AcDbVertex
100
AcDb2dVertex
 10
1.076677441817689
 20
-0.2671749290370826
 30
0.0
  0
VERTEX
  5
D2
330
BF
100
AcDbEntity
  8
Layer 1
370
     0
100
AcDbVertex
100
AcDb2dVertex
 10
1.082074892231819
 20
-0.2671749290373353
 30
0.0
  0
VERTEX
  5
D3
330
BF
100
AcDbEntity
  8
Layer 1
370
     0
100
AcDbVertex
100
AcDb2dVertex
 10
1.120313633889838
 20
-0.2289361873827526
 30
0.0
  0
VERTEX
  5
D4
330
BF
100
AcDbEntity
  8
Layer 1
370
     0
100
AcDbVertex
100
AcDb2dVertex
 10
1.120313633897391
 20
-0.060785021947936
 30
0.0
  0
VERTEX
  5
D5
330
BF
100
AcDbEntity
  8
Layer 1
370
     0
100
AcDbVertex
100
AcDb2dVertex
 10
1.082074892242796
 20
-0.0225462802899175
 30
0.0
  0
VERTEX
  5
D6
330
BF
100
AcDbEntity
  8
Layer 1
370
     0
100
AcDbVertex
100
AcDb2dVertex
 10
1.076677441828666
 20
-0.0225462802896775
 30
0.0
  0
VERTEX
  5
D7
330
BF
100
AcDbEntity
  8
Layer 1
370
     0
100
AcDbVertex
100
AcDb2dVertex
 10
1.076677441828906
 20
-0.0171487165218246
 30
0.0
  0
VERTEX
  5
D8
330
BF
100
AcDbEntity
  8
Layer 1
370
     0
100
AcDbVertex
100
AcDb2dVertex
 10
1.076677441829348
 20
-0.0074286356033832
 30
0.0
  0
VERTEX
  5
D9
330
BF
100
AcDbEntity
  8
Layer 1
370
     0
100
AcDbVertex
100
AcDb2dVertex
 10
1.076677441829677
 20
0.0
 30
0.0
  0
VERTEX
  5
DA
330
BF
100
AcDbEntity
  8
Layer 1
370
     0
100
AcDbVertex
100
AcDb2dVertex
 10
1.084106190786782
 20
-0.0000000000003284
 30
0.0
  0
SEQEND
  5
DC
330
BF
100
AcDbEntity
  8
Layer 1
370
     0
  0
HATCH
  5
DB
330
41
100
AcDbEntity
  8
Layer 1
 62
     7
420
 16777215
100
AcDbHatch
 10
0.0
 20
0.0
 30
0.0
210
0.0
220
0.0
230
1.0
  2
SOLID
 70
     1
 71
     0
 91
        1
 92
        1
 93
       26
 72
     1
 10
1.084106190786782
 20
-0.0000000000003284
 11
1.087369190778822
 21
-0.00000000000048
 72
     1
 10
1.087369190778822
 20
-0.00000000000048
 11
1.091235232525643
 21
-0.0038661551013522
 72
     1
 10
1.091235232525643
 20
-0.0038661551013522
 11
1.139370433476163
 21
-0.0520012427024944
 72
     1
 10
1.139370433476163
 20
-0.0520012427024944
 11
1.139999999999999
 21
-0.0526306958726587
 72
     1
 10
1.139999999999999
 20
-0.0526306958726587
 11
1.13999999999986
 21
-0.0557156171810599
 72
     1
 10
1.13999999999986
 20
-0.0557156171810599
 11
1.139999999999203
 21
-0.0703949230578979
 72
     1
 10
1.139999999999203
 20
-0.0703949230578979
 11
1.139999999992508
 21
-0.2193262862745592
 72
     1
 10
1.139999999992508
 20
-0.2193262862745592
 11
1.139999999991864
 21
-0.2340055921513845
 72
     1
 10
1.139999999991864
 20
-0.2340055921513845
 11
1.139999999991712
 21
-0.2370905134597857
 72
     1
 10
1.139999999991712
 20
-0.2370905134597857
 11
1.139370433467825
 21
-0.2377199666299121
 72
     1
 10
1.139370433467825
 20
-0.2377199666299121
 11
1.091235232512986
 21
-0.2858550542267216
 72
     1
 10
1.091235232512986
 20
-0.2858550542267216
 11
1.087369190765811
 21
-0.2897212093272401
 72
     1
 10
1.087369190765811
 20
-0.2897212093272401
 11
1.084106190773771
 21
-0.2897212093271012
 72
     1
 10
1.084106190773771
 20
-0.2897212093271012
 11
1.076677441816678
 21
-0.2897212093267727
 72
     1
 10
1.076677441816678
 20
-0.2897212093267727
 11
1.076677441817007
 21
-0.2822925737233896
 72
     1
 10
1.076677441817007
 20
-0.2822925737233896
 11
1.076677441817436
 21
-0.2725724928049355
 72
     1
 10
1.076677441817436
 20
-0.2725724928049355
 11
1.076677441817689
 21
-0.2671749290370826
 72
     1
 10
1.076677441817689
 20
-0.2671749290370826
 11
1.082074892231819
 21
-0.2671749290373353
 72
     1
 10
1.082074892231819
 20
-0.2671749290373353
 11
1.120313633889838
 21
-0.2289361873827526
 72
     1
 10
1.120313633889838
 20
-0.2289361873827526
 11
1.120313633897391
 21
-0.060785021947936
 72
     1
 10
1.120313633897391
 20
-0.060785021947936
 11
1.082074892242796
 21
-0.0225462802899175
 72
     1
 10
1.082074892242796
 20
-0.0225462802899175
 11
1.076677441828666
 21
-0.0225462802896775
 72
     1
 10
1.076677441828666
 20
-0.0225462802896775
 11
1.076677441828906
 21
-0.0171487165218246
 72
     1
 10
1.076677441828906
 20
-0.0171487165218246
 11
1.076677441829348
 21
-0.0074286356033832
 72
     1
 10
1.076677441829348
 20
-0.0074286356033832
 11
1.076677441829677
 21
0.0
 72
     1
 10
1.076677441829677
 20
0.0
 11
1.084106190786782
 21
-0.0000000000003284
 97
        0
 75
     2
 76
     1
 98
        0
  0
ENDBLK
  5
44
330
41
100
AcDbEntity
  8
0
100
AcDbBlockEnd
  0
BLOCK
  5
47
330
45
100
AcDbEntity
  8
0
100
AcDbBlockBegin
  2
block 3
 70
     0
 10
0.0
 20
0.0
 30
0.0
  3
block 3
  1

  0
SPLINE
  5
49
330
45
100
AcDbEntity
  8
Layer 1
370
     0
100
AcDbSpline
210
0.0
220
0.0
230
1.0
 70
    11
 71
     3
 72
    35
 73
    31
 74
     0
 42
0.0000000001
 43
0.0000000001
 12
1.0
 22
0.0
 32
0.0
 13
1.0
 23
0.0
 33
0.0
 40
0.0
 40
0.0
 40
0.0
 40
0.0
 40
1.0
 40
1.0
 40
1.0
 40
2.0
 40
2.0
 40
2.0
 40
3.0
 40
3.0
 40
3.0
 40
4.0
 40
4.0
 40
4.0
 40
5.0
 40
5.0
 40
5.0
 40
6.0
 40
6.0
 40
6.0
 40
7.0
 40
7.0
 40
7.0
 40
8.0
 40
8.0
 40
8.0
 40
9.0
 40
9.0
 40
9.0
 40
10.0
 40
10.0
 40
10.0
 40
10.0
 10
0.0972539953641368
 20
-0.2235907732796376
 30
0.0
 10
0.0972539953641368
 20
-0.2235907732796376
 30
0.0
 10
0.0451709264043782
 20
-0.2235907732796376
 30
0.0
 10
0.0451709264043782
 20
-0.2235907732796376
 30
0.0
 10
0.0451709264043782
 20
-0.2235907732796376
 30
0.0
 10
0.0451709264043782
 20
-0.1936954623476292
 30
0.0
 10
0.0451709264043782
 20
-0.1936954623476292
 30
0.0
 10
0.0451709264043782
 20
-0.1936954623476292
 30
0.0
 10
0.0829640797606114
 20
-0.142176643181857
 30
0.0
 10
0.0829640797606114
 20
-0.142176643181857
 30
0.0
 10
0.0829640797606114
 20
-0.142176643181857
 30
0.0
 10
0.0451709264043782
 20
-0.1041956823428841
 30
0.0
 10
0.0451709264043782
 20
-0.1041956823428841
 30
0.0
 10
0.0451709264043782
 20
-0.1041956823428841
 30
0.0
 10
0.0451709264043782
 20
-0.0741117365823938
 30
0.0
 10
0.0451709264043782
 20
-0.0741117365823938
 30
0.0
 10
0.0451709264043782
 20
-0.0741117365823938
 30
0.0
 10
0.0972539953641368
 20
-0.0741117365823938
 30
0.0
 10
0.0972539953641368
 20
-0.0741117365823938
 30
0.0
 10
0.1233244869448653
 20
-0.0742383204804532
 30
0.0
 10
0.1434430532794471
 20
-0.083263835146896
 30
0.0
 10
0.1576096943678572
 20
-0.1011874532359798
 30
0.0
 10
0.1675105408261414
 20
-0.1143488692515449
 30
0.0
 10
0.1727749417632114
 20
-0.1296440099279152
 30
0.0
 10
0.1734037245248348
 20
-0.1470646018077054
 30
0.0
 10
0.173653582937997
 20
-0.1669970153510071
 30
0.0
 10
0.1679506887592702
 20
-0.1839840780635819
 30
0.0
 10
0.1562933872971573
 20
-0.1980191711794911
 30
0.0
 10
0.1420034716936319
 20
-0.2150691121682308
 30
0.0
 10
0.122322571254977
 20
-0.2235907732796376
 30
0.0
 10
0.0972539953641368
 20
-0.2235907732796376
 30
0.0
  0
SPLINE
  5
4A
330
45
100
AcDbEntity
  8
Layer 1
370
     0
100
AcDbSpline
210
0.0
220
0.0
230
1.0
 70
    11
 71
     3
 72
    20
 73
    16
 74
     0
 42
0.0000000001
 43
0.0000000001
 12
1.0
 22
0.0
 32
0.0
 13
1.0
 23
0.0
 33
0.0
 40
0.0
 40
0.0
 40
0.0
 40
0.0
 40
1.0
 40
1.0
 40
1.0
 40
2.0
 40
2.0
 40
2.0
 40
3.0
 40
3.0
 40
3.0
 40
4.0
 40
4.0
 40
4.0
 40
5.0
 40
5.0
 40
5.0
 40
5.0
 10
0.0600250918018774
 20
-0.0981792241290754
 30
0.0
 10
0.0600250918018774
 20
-0.0981792241290754
 30
0.0
 10
0.0918009595985723
 20
-0.1301437267542522
 30
0.0
 10
0.0918009595985723
 20
-0.1301437267542522
 30
0.0
 10
0.0918009595985723
 20
-0.1301437267542522
 30
0.0
 10
0.119816541011624
 20
-0.092161938569537
 30
0.0
 10
0.119816541011624
 20
-0.092161938569537
 30
0.0
 10
0.1130480255211018
 20
-0.0900323506374308
 30
0.0
 10
0.1055266254081112
 20
-0.088965901979893
 30
0.0
 10
0.0972539953641368
 20
-0.088965901979893
 30
0.0
 10
0.0972539953641368
 20
-0.088965901979893
 30
0.0
 10
0.0600250918018774
 20
-0.088965901979893
 30
0.0
 10
0.0600250918018774
 20
-0.088965901979893
 30
0.0
 10
0.0600250918018774
 20
-0.088965901979893
 30
0.0
 10
0.0600250918018774
 20
-0.0981792241290754
 30
0.0
 10
0.0600250918018774
 20
-0.0981792241290754
 30
0.0
  0
SPLINE
  5
4B
330
45
100
AcDbEntity
  8
Layer 1
370
     0
100
AcDbSpline
210
0.0
220
0.0
230
1.0
 70
    11
 71
     3
 72
    26
 73
    22
 74
     0
 42
0.0000000001
 43
0.0000000001
 12
1.0
 22
0.0
 32
0.0
 13
1.0
 23
0.0
 33
0.0
 40
0.0
 40
0.0
 40
0.0
 40
0.0
 40
1.0
 40
1.0
 40
1.0
 40
2.0
 40
2.0
 40
2.0
 40
3.0
 40
3.0
 40
3.0
 40
4.0
 40
4.0
 40
4.0
 40
5.0
 40
5.0
 40
5.0
 40
6.0
 40
6.0
 40
6.0
 40
7.0
 40
7.0
 40
7.0
 40
7.0
 10
0.0600250918018774
 20
-0.208926897402105
 30
0.0
 10
0.0600250918018774
 20
-0.208926897402105
 30
0.0
 10
0.0972539953641368
 20
-0.208926897402105
 30
0.0
 10
0.0972539953641368
 20
-0.208926897402105
 30
0.0
 10
0.1178102275946205
 20
-0.2088011408497752
 30
0.0
 10
0.1337308416496575
 20
-0.2020334527049827
 30
0.0
 10
0.1450117008005362
 20
-0.1886188688932988
 30
0.0
 10
0.1542870738801538
 20
-0.1773371823966777
 30
0.0
 10
0.1587994175404977
 20
-0.1636115165871388
 30
0.0
 10
0.1585495591273356
 20
-0.1474418714646693
 30
0.0
 10
0.1580473602637716
 20
-0.1330295086917835
 30
0.0
 10
0.1538494079842268
 20
-0.1206184952614725
 30
0.0
 10
0.1459523929057443
 20
-0.1102129679024225
 30
0.0
 10
0.1421912791763841
 20
-0.1055765223812209
 30
0.0
 10
0.1379908448596249
 20
-0.1016896520995311
 30
0.0
 10
0.1333543993384233
 20
-0.0985548390945673
 30
0.0
 10
0.1333543993384233
 20
-0.0985548390945673
 30
0.0
 10
0.0600250918018774
 20
-0.1985850756649496
 30
0.0
 10
0.0600250918018774
 20
-0.1985850756649496
 30
0.0
 10
0.0600250918018774
 20
-0.1985850756649496
 30
0.0
 10
0.0600250918018774
 20
-0.208926897402105
 30
0.0
 10
0.0600250918018774
 20
-0.208926897402105
 30
0.0
  0
HATCH
  5
4C
330
45
100
AcDbEntity
  8
Layer 1
 62
     7
420
 16777215
100
AcDbHatch
 10
0.0
 20
0.0
 30
0.0
210
0.0
220
0.0
230
1.0
  2
SOLID
 70
     1
 71
     0
 91
        3
 92
        1
 93
        1
 72
     4
 94
        3
 73
     0
 74
     1
 95
       35
 96
       31
 40
0.0
 40
0.0
 40
0.0
 40
0.0
 40
1.0
 40
1.0
 40
1.0
 40
2.0
 40
2.0
 40
2.0
 40
3.0
 40
3.0
 40
3.0
 40
4.0
 40
4.0
 40
4.0
 40
5.0
 40
5.0
 40
5.0
 40
6.0
 40
6.0
 40
6.0
 40
7.0
 40
7.0
 40
7.0
 40
8.0
 40
8.0
 40
8.0
 40
9.0
 40
9.0
 40
9.0
 40
10.0
 40
10.0
 40
10.0
 40
10.0
 10
0.0972539953641368
 20
-0.2235907732796376
 10
0.0972539953641368
 20
-0.2235907732796376
 10
0.0451709264043782
 20
-0.2235907732796376
 10
0.0451709264043782
 20
-0.2235907732796376
 10
0.0451709264043782
 20
-0.2235907732796376
 10
0.0451709264043782
 20
-0.1936954623476292
 10
0.0451709264043782
 20
-0.1936954623476292
 10
0.0451709264043782
 20
-0.1936954623476292
 10
0.0829640797606114
 20
-0.142176643181857
 10
0.0829640797606114
 20
-0.142176643181857
 10
0.0829640797606114
 20
-0.142176643181857
 10
0.0451709264043782
 20
-0.1041956823428841
 10
0.0451709264043782
 20
-0.1041956823428841
 10
0.0451709264043782
 20
-0.1041956823428841
 10
0.0451709264043782
 20
-0.0741117365823938
 10
0.0451709264043782
 20
-0.0741117365823938
 10
0.0451709264043782
 20
-0.0741117365823938
 10
0.0972539953641368
 20
-0.0741117365823938
 10
0.0972539953641368
 20
-0.0741117365823938
 10
0.1233244869448653
 20
-0.0742383204804532
 10
0.1434430532794471
 20
-0.083263835146896
 10
0.1576096943678572
 20
-0.1011874532359798
 10
0.1675105408261414
 20
-0.1143488692515449
 10
0.1727749417632114
 20
-0.1296440099279152
 10
0.1734037245248348
 20
-0.1470646018077054
 10
0.173653582937997
 20
-0.1669970153510071
 10
0.1679506887592702
 20
-0.1839840780635819
 10
0.1562933872971573
 20
-0.1980191711794911
 10
0.1420034716936319
 20
-0.2150691121682308
 10
0.122322571254977
 20
-0.2235907732796376
 10
0.0972539953641368
 20
-0.2235907732796376
 97
        0
 97
        0
 92
        1
 93
        1
 72
     4
 94
        3
 73
     0
 74
     1
 95
       20
 96
       16
 40
0.0
 40
0.0
 40
0.0
 40
0.0
 40
1.0
 40
1.0
 40
1.0
 40
2.0
 40
2.0
 40
2.0
 40
3.0
 40
3.0
 40
3.0
 40
4.0
 40
4.0
 40
4.0
 40
5.0
 40
5.0
 40
5.0
 40
5.0
 10
0.0600250918018774
 20
-0.0981792241290754
 10
0.0600250918018774
 20
-0.0981792241290754
 10
0.0918009595985723
 20
-0.1301437267542522
 10
0.0918009595985723
 20
-0.1301437267542522
 10
0.0918009595985723
 20
-0.1301437267542522
 10
0.119816541011624
 20
-0.092161938569537
 10
0.119816541011624
 20
-0.092161938569537
 10
0.1130480255211018
 20
-0.0900323506374308
 10
0.1055266254081112
 20
-0.088965901979893
 10
0.0972539953641368
 20
-0.088965901979893
 10
0.0972539953641368
 20
-0.088965901979893
 10
0.0600250918018774
 20
-0.088965901979893
 10
0.0600250918018774
 20
-0.088965901979893
 10
0.0600250918018774
 20
-0.088965901979893
 10
0.0600250918018774
 20
-0.0981792241290754
 10
0.0600250918018774
 20
-0.0981792241290754
 97
        0
 97
        0
 92
        1
 93
        1
 72
     4
 94
        3
 73
     0
 74
     1
 95
       26
 96
       22
 40
0.0
 40
0.0
 40
0.0
 40
0.0
 40
1.0
 40
1.0
 40
1.0
 40
2.0
 40
2.0
 40
2.0
 40
3.0
 40
3.0
 40
3.0
 40
4.0
 40
4.0
 40
4.0
 40
5.0
 40
5.0
 40
5.0
 40
6.0
 40
6.0
 40
6.0
 40
7.0
 40
7.0
 40
7.0
 40
7.0
 10
0.0600250918018774
 20
-0.208926897402105
 10
0.0600250918018774
 20
-0.208926897402105
 10
0.0972539953641368
 20
-0.208926897402105
 10
0.0972539953641368
 20
-0.208926897402105
 10
0.1178102275946205
 20
-0.2088011408497752
 10
0.1337308416496575
 20
-0.2020334527049827
 10
0.1450117008005362
 20
-0.1886188688932988
 10
0.1542870738801538
 20
-0.1773371823966777
 10
0.1587994175404977
 20
-0.1636115165871388
 10
0.1585495591273356
 20
-0.1474418714646693
 10
0.1580473602637716
 20
-0.1330295086917835
 10
0.1538494079842268
 20
-0.1206184952614725
 10
0.1459523929057443
 20
-0.1102129679024225
 10
0.1421912791763841
 20
-0.1055765223812209
 10
0.1379908448596249
 20
-0.1016896520995311
 10
0.1333543993384233
 20
-0.0985548390945673
 10
0.1333543993384233
 20
-0.0985548390945673
 10
0.0600250918018774
 20
-0.1985850756649496
 10
0.0600250918018774
 20
-0.1985850756649496
 10
0.0600250918018774
 20
-0.1985850756649496
 10
0.0600250918018774
 20
-0.208926897402105
 10
0.0600250918018774
 20
-0.208926897402105
 97
        0
 97
        0
 75
     2
 76
     1
 98
        0
  0
POLYLINE
  5
4D
330
45
100
AcDbEntity
  8
Layer 1
370
     0
100
AcDb2dPolyline
 66
     1
 10
0.0
 20
0.0
 30
0.0
  0
VERTEX
  5
4E
330
4D
100
AcDbEntity
  8
Layer 1
370
     0
100
AcDbVertex
100
AcDb2dVertex
 10
0.1920165216144798
 20
-0.2235907732796376
 30
0.0
  0
VERTEX
  5
4F
330
4D
100
AcDbEntity
  8
Layer 1
370
     0
100
AcDbVertex
100
AcDb2dVertex
 10
0.2574488140725306
 20
-0.0741117365823938
 30
0.0
  0
VERTEX
  5
50
330
4D
100
AcDbEntity
  8
Layer 1
370
     0
100
AcDbVertex
100
AcDb2dVertex
 10
0.3228819338763363
 20
-0.2235907732796376
 30
0.0
  0
VERTEX
  5
51
330
4D
100
AcDbEntity
  8
Layer 1
370
     0
100
AcDbVertex
100
AcDb2dVertex
 10
0.3091562680667974
 20
-0.2235907732796376
 30
0.0
  0
VERTEX
  5
52
330
4D
100
AcDbEntity
  8
Layer 1
370
     0
100
AcDbVertex
100
AcDb2dVertex
 10
0.2335699613543309
 20
-0.1632359016216469
 30
0.0
  0
VERTEX
  5
53
330
4D
100
AcDbEntity
  8
Layer 1
370
     0
100
AcDbVertex
100
AcDb2dVertex
 10
0.2070584944947187
 20
-0.2235907732796376
 30
0.0
  0
VERTEX
  5
54
330
4D
100
AcDbEntity
  8
Layer 1
370
     0
100
AcDbVertex
100
AcDb2dVertex
 10
0.1920165216144798
 20
-0.2235907732796376
 30
0.0
  0
SEQEND
  5
55
330
4D
100
AcDbEntity
  8
Layer 1
370
     0
  0
POLYLINE
  5
56
330
45
100
AcDbEntity
  8
Layer 1
370
     0
100
AcDb2dPolyline
 66
     1
 10
0.0
 20
0.0
 30
0.0
  0
VERTEX
  5
57
330
56
100
AcDbEntity
  8
Layer 1
370
     0
100
AcDbVertex
100
AcDb2dVertex
 10
0.2393986120853873
 20
-0.1498858507775998
 30
0.0
  0
VERTEX
  5
58
330
56
100
AcDbEntity
  8
Layer 1
370
     0
100
AcDbVertex
100
AcDb2dVertex
 10
0.295618409739998
 20
-0.1950109420725994
 30
0.0
  0
VERTEX
  5
59
330
56
100
AcDbEntity
  8
Layer 1
370
     0
100
AcDbVertex
100
AcDb2dVertex
 10
0.2905418162856677
 20
-0.1833552953019585
 30
0.0
  0
VERTEX
  5
5A
330
56
100
AcDbEntity
  8
Layer 1
370
     0
100
AcDbVertex
100
AcDb2dVertex
 10
0.2574488140725306
 20
-0.1087088533489704
 30
0.0
  0
VERTEX
  5
5B
330
56
100
AcDbEntity
  8
Layer 1
370
     0
100
AcDbVertex
100
AcDb2dVertex
 10
0.2393986120853873
 20
-0.1498858507775998
 30
0.0
  0
SEQEND
  5
5C
330
56
100
AcDbEntity
  8
Layer 1
370
     0
  0
HATCH
  5
5D
330
45
100
AcDbEntity
  8
Layer 1
 62
     7
420
 16777215
100
AcDbHatch
 10
0.0
 20
0.0
 30
0.0
210
0.0
220
0.0
230
1.0
  2
SOLID
 70
     1
 71
     0
 91
        2
 92
        1
 93
        6
 72
     1
 10
0.1920165216144798
 20
-0.2235907732796376
 11
0.2574488140725306
 21
-0.0741117365823938
 72
     1
 10
0.2574488140725306
 20
-0.0741117365823938
 11
0.3228819338763363
 21
-0.2235907732796376
 72
     1
 10
0.3228819338763363
 20
-0.2235907732796376
 11
0.3091562680667974
 21
-0.2235907732796376
 72
     1
 10
0.3091562680667974
 20
-0.2235907732796376
 11
0.2335699613543309
 21
-0.1632359016216469
 72
     1
 10
0.2335699613543309
 20
-0.1632359016216469
 11
0.2070584944947187
 21
-0.2235907732796376
 72
     1
 10
0.2070584944947187
 20
-0.2235907732796376
 11
0.1920165216144798
 21
-0.2235907732796376
 97
        0
 92
        1
 93
        4
 72
     1
 10
0.2393986120853873
 20
-0.1498858507775998
 11
0.295618409739998
 21
-0.1950109420725994
 72
     1
 10
0.295618409739998
 20
-0.1950109420725994
 11
0.2905418162856677
 21
-0.1833552953019585
 72
     1
 10
0.2905418162856677
 20
-0.1833552953019585
 11
0.2574488140725306
 21
-0.1087088533489704
 72
     1
 10
0.2574488140725306
 20
-0.1087088533489704
 11
0.2393986120853873
 21
-0.1498858507775998
 97
        0
 75
     2
 76
     1
 98
        0
  0
POLYLINE
  5
5E
330
45
100
AcDbEntity
  8
Layer 1
370
     0
100
AcDb2dPolyline
 66
     1
 10
0.0
 20
0.0
 30
0.0
  0
VERTEX
  5
5F
330
5E
100
AcDbEntity
  8
Layer 1
370
     0
100
AcDbVertex
100
AcDb2dVertex
 10
0.4358832969423171
 20
-0.2235907732796376
 30
0.0
  0
VERTEX
  5
60
330
5E
100
AcDbEntity
  8
Layer 1
370
     0
100
AcDbVertex
100
AcDb2dVertex
 10
0.3416825384487336
 20
-0.2235907732796376
 30
0.0
  0
VERTEX
  5
61
330
5E
100
AcDbEntity
  8
Layer 1
370
     0
100
AcDbVertex
100
AcDb2dVertex
 10
0.3416825384487336
 20
-0.0741117365823938
 30
0.0
  0
VERTEX
  5
62
330
5E
100
AcDbEntity
  8
Layer 1
370
     0
100
AcDbVertex
100
AcDb2dVertex
 10
0.4358832969423171
 20
-0.0741117365823938
 30
0.0
  0
VERTEX
  5
63
330
5E
100
AcDbEntity
  8
Layer 1
370
     0
100
AcDbVertex
100
AcDb2dVertex
 10
0.4358832969423171
 20
-0.088965901979893
 30
0.0
  0
VERTEX
  5
64
330
5E
100
AcDbEntity
  8
Layer 1
370
     0
100
AcDbVertex
100
AcDb2dVertex
 10
0.3565367038462202
 20
-0.088965901979893
 30
0.0
  0
VERTEX
  5
65
330
5E
100
AcDbEntity
  8
Layer 1
370
     0
100
AcDbVertex
100
AcDb2dVertex
 10
0.3565367038462202
 20
-0.1893717535157546
 30
0.0
  0
VERTEX
  5
66
330
5E
100
AcDbEntity
  8
Layer 1
370
     0
100
AcDbVertex
100
AcDb2dVertex
 10
0.4358832969423171
 20
-0.1493216009836134
 30
0.0
  0
VERTEX
  5
67
330
5E
100
AcDbEntity
  8
Layer 1
370
     0
100
AcDbVertex
100
AcDb2dVertex
 10
0.4358832969423171
 20
-0.165115631140591
 30
0.0
  0
VERTEX
  5
68
330
5E
100
AcDbEntity
  8
Layer 1
370
     0
100
AcDbVertex
100
AcDb2dVertex
 10
0.3565367038462202
 20
-0.2051641289812475
 30
0.0
  0
VERTEX
  5
69
330
5E
100
AcDbEntity
  8
Layer 1
370
     0
100
AcDbVertex
100
AcDb2dVertex
 10
0.3565367038462202
 20
-0.2087382625736104
 30
0.0
  0
VERTEX
  5
6A
330
5E
100
AcDbEntity
  8
Layer 1
370
     0
100
AcDbVertex
100
AcDb2dVertex
 10
0.4358832969423171
 20
-0.2087382625736104
 30
0.0
  0
VERTEX
  5
6B
330
5E
100
AcDbEntity
  8
Layer 1
370
     0
100
AcDbVertex
100
AcDb2dVertex
 10
0.4358832969423171
 20
-0.2235907732796376
 30
0.0
  0
SEQEND
  5
6C
330
5E
100
AcDbEntity
  8
Layer 1
370
     0
  0
HATCH
  5
6D
330
45
100
AcDbEntity
  8
Layer 1
 62
     7
420
 16777215
100
AcDbHatch
 10
0.0
 20
0.0
 30
0.0
210
0.0
220
0.0
230
1.0
  2
SOLID
 70
     1
 71
     0
 91
        1
 92
        1
 93
       12
 72
     1
 10
0.4358832969423171
 20
-0.2235907732796376
 11
0.3416825384487336
 21
-0.2235907732796376
 72
     1
 10
0.3416825384487336
 20
-0.2235907732796376
 11
0.3416825384487336
 21
-0.0741117365823938
 72
     1
 10
0.3416825384487336
 20
-0.0741117365823938
 11
0.4358832969423171
 21
-0.0741117365823938
 72
     1
 10
0.4358832969423171
 20
-0.0741117365823938
 11
0.4358832969423171
 21
-0.088965901979893
 72
     1
 10
0.4358832969423171
 20
-0.088965901979893
 11
0.3565367038462202
 21
-0.088965901979893
 72
     1
 10
0.3565367038462202
 20
-0.088965901979893
 11
0.3565367038462202
 21
-0.1893717535157546
 72
     1
 10
0.3565367038462202
 20
-0.1893717535157546
 11
0.4358832969423171
 21
-0.1493216009836134
 72
     1
 10
0.4358832969423171
 20
-0.1493216009836134
 11
0.4358832969423171
 21
-0.165115631140591
 72
     1
 10
0.4358832969423171
 20
-0.165115631140591
 11
0.3565367038462202
 21
-0.2051641289812475
 72
     1
 10
0.3565367038462202
 20
-0.2051641289812475
 11
0.3565367038462202
 21
-0.2087382625736104
 72
     1
 10
0.3565367038462202
 20
-0.2087382625736104
 11
0.4358832969423171
 21
-0.2087382625736104
 72
     1
 10
0.4358832969423171
 20
-0.2087382625736104
 11
0.4358832969423171
 21
-0.2235907732796376
 97
        0
 75
     2
 76
     1
 98
        0
  0
SPLINE
  5
6E
330
45
100
AcDbEntity
  8
Layer 1
370
     0
100
AcDbSpline
210
0.0
220
0.0
230
1.0
 70
    11
 71
     3
 72
    44
 73
    40
 74
     0
 42
0.0000000001
 43
0.0000000001
 12
1.0
 22
0.0
 32
0.0
 13
1.0
 23
0.0
 33
0.0
 40
0.0
 40
0.0
 40
0.0
 40
0.0
 40
1.0
 40
1.0
 40
1.0
 40
2.0
 40
2.0
 40
2.0
 40
3.0
 40
3.0
 40
3.0
 40
4.0
 40
4.0
 40
4.0
 40
5.0
 40
5.0
 40
5.0
 40
6.0
 40
6.0
 40
6.0
 40
7.0
 40
7.0
 40
7.0
 40
8.0
 40
8.0
 40
8.0
 40
9.0
 40
9.0
 40
9.0
 40
10.0
 40
10.0
 40
10.0
 40
11.0
 40
11.0
 40
11.0
 40
12.0
 40
12.0
 40
12.0
 40
13.0
 40
13.0
 40
13.0
 40
13.0
 10
0.5065783356459658
 20
-0.2235907732796376
 30
0.0
 10
0.5065783356459658
 20
-0.2235907732796376
 30
0.0
 10
0.4544952666862198
 20
-0.2235907732796376
 30
0.0
 10
0.4544952666862198
 20
-0.2235907732796376
 30
0.0
 10
0.4544952666862198
 20
-0.2235907732796376
 30
0.0
 10
0.4544952666862198
 20
-0.1936954623476292
 30
0.0
 10
0.4544952666862198
 20
-0.1936954623476292
 30
0.0
 10
0.4544952666862198
 20
-0.1936954623476292
 30
0.0
 10
0.5291408812934656
 20
-0.0919741310867974
 30
0.0
 10
0.5291408812934656
 20
-0.0919741310867974
 30
0.0
 10
0.5223723658029434
 20
-0.0899702997069956
 30
0.0
 10
0.5148509656899528
 20
-0.088965901979893
 30
0.0
 10
0.5065783356459658
 20
-0.088965901979893
 30
0.0
 10
0.5065783356459658
 20
-0.088965901979893
 30
0.0
 10
0.469349432083719
 20
-0.088965901979893
 30
0.0
 10
0.469349432083719
 20
-0.088965901979893
 30
0.0
 10
0.469349432083719
 20
-0.088965901979893
 30
0.0
 10
0.469349432083719
 20
-0.1066404890015444
 30
0.0
 10
0.469349432083719
 20
-0.1066404890015444
 30
0.0
 10
0.469349432083719
 20
-0.1066404890015444
 30
0.0
 10
0.4544952666862198
 20
-0.1066404890015444
 30
0.0
 10
0.4544952666862198
 20
-0.1066404890015444
 30
0.0
 10
0.4544952666862198
 20
-0.1066404890015444
 30
0.0
 10
0.4544952666862198
 20
-0.0741117365823938
 30
0.0
 10
0.4544952666862198
 20
-0.0741117365823938
 30
0.0
 10
0.4544952666862198
 20
-0.0741117365823938
 30
0.0
 10
0.5065783356459658
 20
-0.0741117365823938
 30
0.0
 10
0.5065783356459658
 20
-0.0741117365823938
 30
0.0
 10
0.5326488272267069
 20
-0.0742383204804532
 30
0.0
 10
0.5527673935612888
 20
-0.083263835146896
 30
0.0
 10
0.5669348619954285
 20
-0.1011874532359798
 30
0.0
 10
0.5768348811079704
 20
-0.1143488692515449
 30
0.0
 10
0.5821001093907827
 20
-0.1296440099279152
 30
0.0
 10
0.5827288921524061
 20
-0.1470646018077054
 30
0.0
 10
0.5829770958740962
 20
-0.1669970153510071
 30
0.0
 10
0.5772750290410992
 20
-0.1839840780635819
 30
0.0
 10
0.5656177275789989
 20
-0.1980191711794911
 30
0.0
 10
0.5513278119754734
 20
-0.2150691121682308
 30
0.0
 10
0.5316469115368186
 20
-0.2235907732796376
 30
0.0
 10
0.5065783356459658
 20
-0.2235907732796376
 30
0.0
  0
SPLINE
  5
6F
330
45
100
AcDbEntity
  8
Layer 1
370
     0
100
AcDbSpline
210
0.0
220
0.0
230
1.0
 70
    11
 71
     3
 72
    26
 73
    22
 74
     0
 42
0.0000000001
 43
0.0000000001
 12
1.0
 22
0.0
 32
0.0
 13
1.0
 23
0.0
 33
0.0
 40
0.0
 40
0.0
 40
0.0
 40
0.0
 40
1.0
 40
1.0
 40
1.0
 40
2.0
 40
2.0
 40
2.0
 40
3.0
 40
3.0
 40
3.0
 40
4.0
 40
4.0
 40
4.0
 40
5.0
 40
5.0
 40
5.0
 40
6.0
 40
6.0
 40
6.0
 40
7.0
 40
7.0
 40
7.0
 40
7.0
 10
0.469349432083719
 20
-0.208926897402105
 30
0.0
 10
0.469349432083719
 20
-0.208926897402105
 30
0.0
 10
0.5065783356459658
 20
-0.208926897402105
 30
0.0
 10
0.5065783356459658
 20
-0.208926897402105
 30
0.0
 10
0.5271345678764621
 20
-0.2088011408497752
 30
0.0
 10
0.5430551819314992
 20
-0.2020334527049827
 30
0.0
 10
0.5543360410823779
 20
-0.1886188688932988
 30
0.0
 10
0.5636105868162531
 20
-0.1773371823966777
 30
0.0
 10
0.5681245851680816
 20
-0.1636115165871388
 30
0.0
 10
0.5678747267549068
 20
-0.1474418714646693
 30
0.0
 10
0.5673717005456133
 20
-0.1330295086917835
 30
0.0
 10
0.5631737482660684
 20
-0.1206184952614725
 30
0.0
 10
0.5552759058418435
 20
-0.1102129679024225
 30
0.0
 10
0.5515164468039554
 20
-0.1055765223812209
 30
0.0
 10
0.5473151851414665
 20
-0.1016896520995311
 30
0.0
 10
0.5426787396202649
 20
-0.0985548390945673
 30
0.0
 10
0.5426787396202649
 20
-0.0985548390945673
 30
0.0
 10
0.469349432083719
 20
-0.1985850756649496
 30
0.0
 10
0.469349432083719
 20
-0.1985850756649496
 30
0.0
 10
0.469349432083719
 20
-0.1985850756649496
 30
0.0
 10
0.469349432083719
 20
-0.208926897402105
 30
0.0
 10
0.469349432083719
 20
-0.208926897402105
 30
0.0
  0
HATCH
  5
70
330
45
100
AcDbEntity
  8
Layer 1
 62
     7
420
 16777215
100
AcDbHatch
 10
0.0
 20
0.0
 30
0.0
210
0.0
220
0.0
230
1.0
  2
SOLID
 70
     1
 71
     0
 91
        2
 92
        1
 93
        1
 72
     4
 94
        3
 73
     0
 74
     1
 95
       44
 96
       40
 40
0.0
 40
0.0
 40
0.0
 40
0.0
 40
1.0
 40
1.0
 40
1.0
 40
2.0
 40
2.0
 40
2.0
 40
3.0
 40
3.0
 40
3.0
 40
4.0
 40
4.0
 40
4.0
 40
5.0
 40
5.0
 40
5.0
 40
6.0
 40
6.0
 40
6.0
 40
7.0
 40
7.0
 40
7.0
 40
8.0
 40
8.0
 40
8.0
 40
9.0
 40
9.0
 40
9.0
 40
10.0
 40
10.0
 40
10.0
 40
11.0
 40
11.0
 40
11.0
 40
12.0
 40
12.0
 40
12.0
 40
13.0
 40
13.0
 40
13.0
 40
13.0
 10
0.5065783356459658
 20
-0.2235907732796376
 10
0.5065783356459658
 20
-0.2235907732796376
 10
0.4544952666862198
 20
-0.2235907732796376
 10
0.4544952666862198
 20
-0.2235907732796376
 10
0.4544952666862198
 20
-0.2235907732796376
 10
0.4544952666862198
 20
-0.1936954623476292
 10
0.4544952666862198
 20
-0.1936954623476292
 10
0.4544952666862198
 20
-0.1936954623476292
 10
0.5291408812934656
 20
-0.0919741310867974
 10
0.5291408812934656
 20
-0.0919741310867974
 10
0.5223723658029434
 20
-0.0899702997069956
 10
0.5148509656899528
 20
-0.088965901979893
 10
0.5065783356459658
 20
-0.088965901979893
 10
0.5065783356459658
 20
-0.088965901979893
 10
0.469349432083719
 20
-0.088965901979893
 10
0.469349432083719
 20
-0.088965901979893
 10
0.469349432083719
 20
-0.088965901979893
 10
0.469349432083719
 20
-0.1066404890015444
 10
0.469349432083719
 20
-0.1066404890015444
 10
0.469349432083719
 20
-0.1066404890015444
 10
0.4544952666862198
 20
-0.1066404890015444
 10
0.4544952666862198
 20
-0.1066404890015444
 10
0.4544952666862198
 20
-0.1066404890015444
 10
0.4544952666862198
 20
-0.0741117365823938
 10
0.4544952666862198
 20
-0.0741117365823938
 10
0.4544952666862198
 20
-0.0741117365823938
 10
0.5065783356459658
 20
-0.0741117365823938
 10
0.5065783356459658
 20
-0.0741117365823938
 10
0.5326488272267069
 20
-0.0742383204804532
 10
0.5527673935612888
 20
-0.083263835146896
 10
0.5669348619954285
 20
-0.1011874532359798
 10
0.5768348811079704
 20
-0.1143488692515449
 10
0.5821001093907827
 20
-0.1296440099279152
 10
0.5827288921524061
 20
-0.1470646018077054
 10
0.5829770958740962
 20
-0.1669970153510071
 10
0.5772750290410992
 20
-0.1839840780635819
 10
0.5656177275789989
 20
-0.1980191711794911
 10
0.5513278119754734
 20
-0.2150691121682308
 10
0.5316469115368186
 20
-0.2235907732796376
 10
0.5065783356459658
 20
-0.2235907732796376
 97
        0
 97
        0
 92
        1
 93
        1
 72
     4
 94
        3
 73
     0
 74
     1
 95
       26
 96
       22
 40
0.0
 40
0.0
 40
0.0
 40
0.0
 40
1.0
 40
1.0
 40
1.0
 40
2.0
 40
2.0
 40
2.0
 40
3.0
 40
3.0
 40
3.0
 40
4.0
 40
4.0
 40
4.0
 40
5.0
 40
5.0
 40
5.0
 40
6.0
 40
6.0
 40
6.0
 40
7.0
 40
7.0
 40
7.0
 40
7.0
 10
0.469349432083719
 20
-0.208926897402105
 10
0.469349432083719
 20
-0.208926897402105
 10
0.5065783356459658
 20
-0.208926897402105
 10
0.5065783356459658
 20
-0.208926897402105
 10
0.5271345678764621
 20
-0.2088011408497752
 10
0.5430551819314992
 20
-0.2020334527049827
 10
0.5543360410823779
 20
-0.1886188688932988
 10
0.5636105868162531
 20
-0.1773371823966777
 10
0.5681245851680816
 20
-0.1636115165871388
 10
0.5678747267549068
 20
-0.1474418714646693
 10
0.5673717005456133
 20
-0.1330295086917835
 10
0.5631737482660684
 20
-0.1206184952614725
 10
0.5552759058418435
 20
-0.1102129679024225
 10
0.5515164468039554
 20
-0.1055765223812209
 10
0.5473151851414665
 20
-0.1016896520995311
 10
0.5426787396202649
 20
-0.0985548390945673
 10
0.5426787396202649
 20
-0.0985548390945673
 10
0.469349432083719
 20
-0.1985850756649496
 10
0.469349432083719
 20
-0.1985850756649496
 10
0.469349432083719
 20
-0.1985850756649496
 10
0.469349432083719
 20
-0.208926897402105
 10
0.469349432083719
 20
-0.208926897402105
 97
        0
 97
        0
 75
     2
 76
     1
 98
        0
  0
POLYLINE
  5
71
330
45
100
AcDbEntity
  8
Layer 1
370
     0
100
AcDb2dPolyline
 66
     1
 10
0.0
 20
0.0
 30
0.0
  0
VERTEX
  5
72
330
71
100
AcDbEntity
  8
Layer 1
370
     0
100
AcDbVertex
100
AcDb2dVertex
 10
0.6013408618963214
 20
-0.2235907732796376
 30
0.0
  0
VERTEX
  5
73
330
71
100
AcDbEntity
  8
Layer 1
370
     0
100
AcDbVertex
100
AcDb2dVertex
 10
0.6667739817001145
 20
-0.0741117365823938
 30
0.0
  0
VERTEX
  5
74
330
71
100
AcDbEntity
  8
Layer 1
370
     0
100
AcDbVertex
100
AcDb2dVertex
 10
0.7322054468124356
 20
-0.2235907732796376
 30
0.0
  0
VERTEX
  5
75
330
71
100
AcDbEntity
  8
Layer 1
370
     0
100
AcDbVertex
100
AcDb2dVertex
 10
0.7184797810028966
 20
-0.2235907732796376
 30
0.0
  0
VERTEX
  5
76
330
71
100
AcDbEntity
  8
Layer 1
370
     0
100
AcDbVertex
100
AcDb2dVertex
 10
0.6428951289819148
 20
-0.1632359016216469
 30
0.0
  0
VERTEX
  5
77
330
71
100
AcDbEntity
  8
Layer 1
370
     0
100
AcDbVertex
100
AcDb2dVertex
 10
0.6163836621223027
 20
-0.2235907732796376
 30
0.0
  0
VERTEX
  5
78
330
71
100
AcDbEntity
  8
Layer 1
370
     0
100
AcDbVertex
100
AcDb2dVertex
 10
0.6013408618963214
 20
-0.2235907732796376
 30
0.0
  0
SEQEND
  5
79
330
71
100
AcDbEntity
  8
Layer 1
370
     0
  0
POLYLINE
  5
7A
330
45
100
AcDbEntity
  8
Layer 1
370
     0
100
AcDb2dPolyline
 66
     1
 10
0.0
 20
0.0
 30
0.0
  0
VERTEX
  5
7B
330
7A
100
AcDbEntity
  8
Layer 1
370
     0
100
AcDbVertex
100
AcDb2dVertex
 10
0.648722952367229
 20
-0.1498858507775998
 30
0.0
  0
VERTEX
  5
7C
330
7A
100
AcDbEntity
  8
Layer 1
370
     0
100
AcDbVertex
100
AcDb2dVertex
 10
0.7049427500218396
 20
-0.1950109420725994
 30
0.0
  0
VERTEX
  5
7D
330
7A
100
AcDbEntity
  8
Layer 1
370
     0
100
AcDbVertex
100
AcDb2dVertex
 10
0.6998661565674966
 20
-0.1833552953019585
 30
0.0
  0
VERTEX
  5
7E
330
7A
100
AcDbEntity
  8
Layer 1
370
     0
100
AcDbVertex
100
AcDb2dVertex
 10
0.6667739817001145
 20
-0.1087088533489704
 30
0.0
  0
VERTEX
  5
7F
330
7A
100
AcDbEntity
  8
Layer 1
370
     0
100
AcDbVertex
100
AcDb2dVertex
 10
0.648722952367229
 20
-0.1498858507775998
 30
0.0
  0
SEQEND
  5
80
330
7A
100
AcDbEntity
  8
Layer 1
370
     0
  0
HATCH
  5
81
330
45
100
AcDbEntity
  8
Layer 1
 62
     7
420
 16777215
100
AcDbHatch
 10
0.0
 20
0.0
 30
0.0
210
0.0
220
0.0
230
1.0
  2
SOLID
 70
     1
 71
     0
 91
        2
 92
        1
 93
        6
 72
     1
 10
0.6013408618963214
 20
-0.2235907732796376
 11
0.6667739817001145
 21
-0.0741117365823938
 72
     1
 10
0.6667739817001145
 20
-0.0741117365823938
 11
0.7322054468124356
 21
-0.2235907732796376
 72
     1
 10
0.7322054468124356
 20
-0.2235907732796376
 11
0.7184797810028966
 21
-0.2235907732796376
 72
     1
 10
0.7184797810028966
 20
-0.2235907732796376
 11
0.6428951289819148
 21
-0.1632359016216469
 72
     1
 10
0.6428951289819148
 20
-0.1632359016216469
 11
0.6163836621223027
 21
-0.2235907732796376
 72
     1
 10
0.6163836621223027
 20
-0.2235907732796376
 11
0.6013408618963214
 21
-0.2235907732796376
 97
        0
 92
        1
 93
        4
 72
     1
 10
0.648722952367229
 20
-0.1498858507775998
 11
0.7049427500218396
 21
-0.1950109420725994
 72
     1
 10
0.7049427500218396
 20
-0.1950109420725994
 11
0.6998661565674966
 21
-0.1833552953019585
 72
     1
 10
0.6998661565674966
 20
-0.1833552953019585
 11
0.6667739817001145
 21
-0.1087088533489704
 72
     1
 10
0.6667739817001145
 20
-0.1087088533489704
 11
0.648722952367229
 21
-0.1498858507775998
 97
        0
 75
     2
 76
     1
 98
        0
  0
POLYLINE
  5
82
330
45
100
AcDbEntity
  8
Layer 1
370
     0
100
AcDb2dPolyline
 66
     1
 10
0.0
 20
0.0
 30
0.0
  0
VERTEX
  5
83
330
82
100
AcDbEntity
  8
Layer 1
370
     0
100
AcDbVertex
100
AcDb2dVertex
 10
0.7510060513848202
 20
-0.201404669943372
 30
0.0
  0
VERTEX
  5
84
330
82
100
AcDbEntity
  8
Layer 1
370
     0
100
AcDbVertex
100
AcDb2dVertex
 10
0.7510060513848202
 20
-0.0741117365823938
 30
0.0
  0
VERTEX
  5
85
330
82
100
AcDbEntity
  8
Layer 1
370
     0
100
AcDbVertex
100
AcDb2dVertex
 10
0.766235831747824
 20
-0.0741117365823938
 30
0.0
  0
VERTEX
  5
86
330
82
100
AcDbEntity
  8
Layer 1
370
     0
100
AcDbVertex
100
AcDb2dVertex
 10
0.766235831747824
 20
-0.201404669943372
 30
0.0
  0
VERTEX
  5
87
330
82
100
AcDbEntity
  8
Layer 1
370
     0
100
AcDbVertex
100
AcDb2dVertex
 10
0.7510060513848202
 20
-0.201404669943372
 30
0.0
  0
SEQEND
  5
88
330
82
100
AcDbEntity
  8
Layer 1
370
     0
  0
POLYLINE
  5
89
330
45
100
AcDbEntity
  8
Layer 1
370
     0
100
AcDb2dPolyline
 66
     1
 10
0.0
 20
0.0
 30
0.0
  0
VERTEX
  5
8A
330
89
100
AcDbEntity
  8
Layer 1
370
     0
100
AcDbVertex
100
AcDb2dVertex
 10
0.7510060513848202
 20
-0.2235907732796376
 30
0.0
  0
VERTEX
  5
8B
330
89
100
AcDbEntity
  8
Layer 1
370
     0
100
AcDbVertex
100
AcDb2dVertex
 10
0.7510060513848202
 20
-0.2087382625736104
 30
0.0
  0
VERTEX
  5
8C
330
89
100
AcDbEntity
  8
Layer 1
370
     0
100
AcDbVertex
100
AcDb2dVertex
 10
0.8371211599714393
 20
-0.2087382625736104
 30
0.0
  0
VERTEX
  5
8D
330
89
100
AcDbEntity
  8
Layer 1
370
     0
100
AcDbVertex
100
AcDb2dVertex
 10
0.8371211599714393
 20
-0.2235907732796376
 30
0.0
  0
VERTEX
  5
8E
330
89
100
AcDbEntity
  8
Layer 1
370
     0
100
AcDbVertex
100
AcDb2dVertex
 10
0.7510060513848202
 20
-0.2235907732796376
 30
0.0
  0
SEQEND
  5
8F
330
89
100
AcDbEntity
  8
Layer 1
370
     0
  0
HATCH
  5
90
330
45
100
AcDbEntity
  8
Layer 1
 62
     7
420
 16777215
100
AcDbHatch
 10
0.0
 20
0.0
 30
0.0
210
0.0
220
0.0
230
1.0
  2
SOLID
 70
     1
 71
     0
 91
        2
 92
        1
 93
        4
 72
     1
 10
0.7510060513848202
 20
-0.201404669943372
 11
0.7510060513848202
 21
-0.0741117365823938
 72
     1
 10
0.7510060513848202
 20
-0.0741117365823938
 11
0.766235831747824
 21
-0.0741117365823938
 72
     1
 10
0.766235831747824
 20
-0.0741117365823938
 11
0.766235831747824
 21
-0.201404669943372
 72
     1
 10
0.766235831747824
 20
-0.201404669943372
 11
0.7510060513848202
 21
-0.201404669943372
 97
        0
 92
        1
 93
        4
 72
     1
 10
0.7510060513848202
 20
-0.2235907732796376
 11
0.7510060513848202
 21
-0.2087382625736104
 72
     1
 10
0.7510060513848202
 20
-0.2087382625736104
 11
0.8371211599714393
 21
-0.2087382625736104
 72
     1
 10
0.8371211599714393
 20
-0.2087382625736104
 11
0.8371211599714393
 21
-0.2235907732796376
 72
     1
 10
0.8371211599714393
 20
-0.2235907732796376
 11
0.7510060513848202
 21
-0.2235907732796376
 97
        0
 75
     2
 76
     1
 98
        0
  0
POLYLINE
  5
91
330
45
100
AcDbEntity
  8
Layer 1
370
     0
100
AcDb2dPolyline
 66
     1
 10
0.0
 20
0.0
 30
0.0
  0
VERTEX
  5
92
330
91
100
AcDbEntity
  8
Layer 1
370
     0
100
AcDbVertex
100
AcDb2dVertex
 10
0.9209792693821378
 20
-0.2235907732796376
 30
0.0
  0
VERTEX
  5
93
330
91
100
AcDbEntity
  8
Layer 1
370
     0
100
AcDbVertex
100
AcDb2dVertex
 10
0.8557347844068266
 20
-0.074488178893628
 30
0.0
  0
VERTEX
  5
94
330
91
100
AcDbEntity
  8
Layer 1
370
     0
100
AcDbVertex
100
AcDb2dVertex
 10
0.8705889498043259
 20
-0.074488178893628
 30
0.0
  0
VERTEX
  5
95
330
91
100
AcDbEntity
  8
Layer 1
370
     0
100
AcDbVertex
100
AcDb2dVertex
 10
0.8910839584501293
 20
-0.1205539622938356
 30
0.0
  0
VERTEX
  5
96
330
91
100
AcDbEntity
  8
Layer 1
370
     0
100
AcDbVertex
100
AcDb2dVertex
 10
0.9211679042106198
 20
-0.1889944838587907
 30
0.0
  0
VERTEX
  5
97
330
91
100
AcDbEntity
  8
Layer 1
370
     0
100
AcDbVertex
100
AcDb2dVertex
 10
0.965164495917659
 20
-0.0882138447031669
 30
0.0
  0
VERTEX
  5
98
330
91
100
AcDbEntity
  8
Layer 1
370
     0
100
AcDbVertex
100
AcDb2dVertex
 10
0.8922108033466176
 20
-0.0882138447031669
 30
0.0
  0
VERTEX
  5
99
330
91
100
AcDbEntity
  8
Layer 1
370
     0
100
AcDbVertex
100
AcDb2dVertex
 10
0.8873228447207692
 20
-0.074488178893628
 30
0.0
  0
VERTEX
  5
9A
330
91
100
AcDbEntity
  8
Layer 1
370
     0
100
AcDbVertex
100
AcDb2dVertex
 10
0.9738135682728676
 20
-0.074488178893628
 30
0.0
  0
VERTEX
  5
9B
330
91
100
AcDbEntity
  8
Layer 1
370
     0
100
AcDbVertex
100
AcDb2dVertex
 10
0.9864123891859309
 20
-0.074488178893628
 30
0.0
  0
VERTEX
  5
9C
330
91
100
AcDbEntity
  8
Layer 1
370
     0
100
AcDbVertex
100
AcDb2dVertex
 10
0.9209792693821378
 20
-0.2235907732796376
 30
0.0
  0
SEQEND
  5
9D
330
91
100
AcDbEntity
  8
Layer 1
370
     0
  0
HATCH
  5
9E
330
45
100
AcDbEntity
  8
Layer 1
 62
     7
420
 16777215
100
AcDbHatch
 10
0.0
 20
0.0
 30
0.0
210
0.0
220
0.0
230
1.0
  2
SOLID
 70
     1
 71
     0
 91
        1
 92
        1
 93
       10
 72
     1
 10
0.9209792693821378
 20
-0.2235907732796376
 11
0.8557347844068266
 21
-0.074488178893628
 72
     1
 10
0.8557347844068266
 20
-0.074488178893628
 11
0.8705889498043259
 21
-0.074488178893628
 72
     1
 10
0.8705889498043259
 20
-0.074488178893628
 11
0.8910839584501293
 21
-0.1205539622938356
 72
     1
 10
0.8910839584501293
 20
-0.1205539622938356
 11
0.9211679042106198
 21
-0.1889944838587907
 72
     1
 10
0.9211679042106198
 20
-0.1889944838587907
 11
0.965164495917659
 21
-0.0882138447031669
 72
     1
 10
0.965164495917659
 20
-0.0882138447031669
 11
0.8922108033466176
 21
-0.0882138447031669
 72
     1
 10
0.8922108033466176
 20
-0.0882138447031669
 11
0.8873228447207692
 21
-0.074488178893628
 72
     1
 10
0.8873228447207692
 20
-0.074488178893628
 11
0.9738135682728676
 21
-0.074488178893628
 72
     1
 10
0.9738135682728676
 20
-0.074488178893628
 11
0.9864123891859309
 21
-0.074488178893628
 72
     1
 10
0.9864123891859309
 20
-0.074488178893628
 11
0.9209792693821378
 21
-0.2235907732796376
 97
        0
 75
     2
 76
     1
 98
        0
  0
SPLINE
  5
9F
330
45
100
AcDbEntity
  8
Layer 1
370
     0
100
AcDbSpline
210
0.0
220
0.0
230
1.0
 70
    11
 71
     3
 72
   122
 73
   118
 74
     0
 42
0.0000000001
 43
0.0000000001
 12
1.0
 22
0.0
 32
0.0
 13
1.0
 23
0.0
 33
0.0
 40
0.0
 40
0.0
 40
0.0
 40
0.0
 40
1.0
 40
1.0
 40
1.0
 40
2.0
 40
2.0
 40
2.0
 40
3.0
 40
3.0
 40
3.0
 40
4.0
 40
4.0
 40
4.0
 40
5.0
 40
5.0
 40
5.0
 40
6.0
 40
6.0
 40
6.0
 40
7.0
 40
7.0
 40
7.0
 40
8.0
 40
8.0
 40
8.0
 40
9.0
 40
9.0
 40
9.0
 40
10.0
 40
10.0
 40
10.0
 40
11.0
 40
11.0
 40
11.0
 40
12.0
 40
12.0
 40
12.0
 40
13.0
 40
13.0
 40
13.0
 40
14.0
 40
14.0
 40
14.0
 40
15.0
 40
15.0
 40
15.0
 40
16.0
 40
16.0
 40
16.0
 40
17.0
 40
17.0
 40
17.0
 40
18.0
 40
18.0
 40
18.0
 40
19.0
 40
19.0
 40
19.0
 40
20.0
 40
20.0
 40
20.0
 40
21.0
 40
21.0
 40
21.0
 40
22.0
 40
22.0
 40
22.0
 40
23.0
 40
23.0
 40
23.0
 40
24.0
 40
24.0
 40
24.0
 40
25.0
 40
25.0
 40
25.0
 40
26.0
 40
26.0
 40
26.0
 40
27.0
 40
27.0
 40
27.0
 40
28.0
 40
28.0
 40
28.0
 40
29.0
 40
29.0
 40
29.0
 40
30.0
 40
30.0
 40
30.0
 40
31.0
 40
31.0
 40
31.0
 40
32.0
 40
32.0
 40
32.0
 40
33.0
 40
33.0
 40
33.0
 40
34.0
 40
34.0
 40
34.0
 40
35.0
 40
35.0
 40
35.0
 40
36.0
 40
36.0
 40
36.0
 40
37.0
 40
37.0
 40
37.0
 40
38.0
 40
38.0
 40
38.0
 40
39.0
 40
39.0
 40
39.0
 40
39.0
 10
1.048082740568892
 20
-0.2234037931426276
 30
0.0
 10
1.048082740568892
 20
-0.2234037931426276
 30
0.0
 10
1.048082740568892
 20
-0.2091138775391022
 30
0.0
 10
1.048082740568892
 20
-0.2091138775391022
 30
0.0
 10
1.048082740568892
 20
-0.2091138775391022
 30
0.0
 10
1.052030834435262
 20
-0.2091138775391022
 30
0.0
 10
1.052030834435262
 20
-0.2091138775391022
 30
0.0
 10
1.064816635485335
 20
-0.2087382625736104
 30
0.0
 10
1.073338296596742
 20
-0.2042904518809034
 30
0.0
 10
1.077602436535396
 20
-0.1957638266950552
 30
0.0
 10
1.079356409502023
 20
-0.192002712965695
 30
0.0
 10
1.080235050676808
 20
-0.18774353710147
 30
0.0
 10
1.080235050676808
 20
-0.1829780256449819
 30
0.0
 10
1.080235050676808
 20
-0.1790944647462488
 30
0.0
 10
1.079167774673528
 20
-0.174830324807595
 30
0.0
 10
1.077038186741422
 20
-0.1701922245949213
 30
0.0
 10
1.076159545566636
 20
-0.1685656628720962
 30
0.0
 10
1.075219680807171
 20
-0.1672485284556539
 30
0.0
 10
1.074216937771527
 20
-0.1662441307285513
 30
0.0
 10
1.071458567077798
 20
-0.1637372731394559
 30
0.0
 10
1.068953364180187
 20
-0.1618575436205118
 30
0.0
 10
1.066696365004279
 20
-0.1606032874802344
 30
0.0
 10
1.066696365004279
 20
-0.1606032874802344
 30
0.0
 10
1.066507730175797
 20
-0.1606032874802344
 30
0.0
 10
1.066507730175797
 20
-0.1606032874802344
 30
0.0
 10
1.063623602929738
 20
-0.1589750710659372
 30
0.0
 10
1.061116745340642
 20
-0.1576595913409796
 30
0.0
 10
1.058987157408536
 20
-0.1566551936138643
 30
0.0
 10
1.057858657820589
 20
-0.1562779239568878
 30
0.0
 10
1.056354543267124
 20
-0.155715328854386
 30
0.0
 10
1.05447481374818
 20
-0.1549624442319302
 30
0.0
 10
1.048833970499875
 20
-0.1529586128521411
 30
0.0
 10
1.044632708837374
 20
-0.1513287417463592
 30
0.0
 10
1.041877647526601
 20
-0.1500728309146098
 30
0.0
 10
1.041248864764978
 20
-0.149824627192907
 30
0.0
 10
1.040623391386324
 20
-0.1495747687797449
 30
0.0
 10
1.039996263316172
 20
-0.1493216009836134
 30
0.0
 10
1.039996263316172
 20
-0.1493216009836134
 30
0.0
 10
1.02570634771266
 20
-0.1641757663811126
 30
0.0
 10
1.02570634771266
 20
-0.1641757663811126
 30
0.0
 10
1.02570634771266
 20
-0.1641757663811126
 30
0.0
 10
1.005024358929846
 20
-0.1641757663811126
 30
0.0
 10
1.005024358929846
 20
-0.1641757663811126
 30
0.0
 10
1.005024358929846
 20
-0.1641757663811126
 30
0.0
 10
1.026459232335128
 20
-0.142176643181857
 30
0.0
 10
1.026459232335128
 20
-0.142176643181857
 30
0.0
 10
1.015930430460975
 20
-0.1349092382107276
 30
0.0
 10
1.010600669210513
 20
-0.1250663059541795
 30
0.0
 10
1.010476567349669
 20
-0.1126569472153531
 30
0.0
 10
1.010600669210513
 20
-0.1008763712381248
 30
0.0
 10
1.015177545838507
 20
-0.0913486577081307
 30
0.0
 10
1.024202233159207
 20
-0.0840771160083023
 30
0.0
 10
1.032475690548924
 20
-0.0775609409681692
 30
0.0
 10
1.042064627663611
 20
-0.0743003714108757
 30
0.0
 10
1.05297069919474
 20
-0.0743003714108757
 30
0.0
 10
1.06788608817692
 20
-0.0744261279632054
 30
0.0
 10
1.080483254398498
 20
-0.0800669712115096
 30
0.0
 10
1.090763852550961
 20
-0.0912220738100713
 30
0.0
 10
1.090763852550961
 20
-0.0912220738100713
 30
0.0
 10
1.093207831863891
 20
-0.094230302916963
 30
0.0
 10
1.093207831863891
 20
-0.094230302916963
 30
0.0
 10
1.093207831863891
 20
-0.094230302916963
 30
0.0
 10
1.090763852550961
 20
-0.0968629170583755
 30
0.0
 10
1.090763852550961
 20
-0.0968629170583755
 30
0.0
 10
1.090763852550961
 20
-0.0968629170583755
 30
0.0
 10
1.090575217722479
 20
-0.0970507245411277
 30
0.0
 10
1.090575217722479
 20
-0.0970507245411277
 30
0.0
 10
1.090575217722479
 20
-0.0970507245411277
 30
0.0
 10
1.073841322806036
 20
-0.1145375040800268
 30
0.0
 10
1.073841322806036
 20
-0.1145375040800268
 30
0.0
 10
1.073841322806036
 20
-0.1145375040800268
 30
0.0
 10
1.062559636309415
 20
-0.104759932136858
 30
0.0
 10
1.062559636309415
 20
-0.104759932136858
 30
0.0
 10
1.062559636309415
 20
-0.104759932136858
 30
0.0
 10
1.072712823218075
 20
-0.094230302916963
 30
0.0
 10
1.072712823218075
 20
-0.094230302916963
 30
0.0
 10
1.066946223417441
 20
-0.0905966004314046
 30
0.0
 10
1.060365515409659
 20
-0.0887780944971407
 30
0.0
 10
1.05297069919474
 20
-0.0887780944971407
 30
0.0
 10
1.043067370699241
 20
-0.0887780944971407
 30
0.0
 10
1.035419386688192
 20
-0.091850856571682
 30
0.0
 10
1.030031711236006
 20
-0.0979914166463358
 30
0.0
 10
1.02664786716361
 20
-0.1021273179954581
 30
0.0
 10
1.024955117781676
 20
-0.1070161039670362
 30
0.0
 10
1.024955117781676
 20
-0.1126569472153531
 30
0.0
 10
1.024955117781676
 20
-0.1205539622938356
 30
0.0
 10
1.028650043851914
 20
-0.1268235883037631
 30
0.0
 10
1.036048169449802
 20
-0.1314592064792224
 30
0.0
 10
1.036048169449802
 20
-0.1314592064792224
 30
0.0
 10
1.036423784415294
 20
-0.1316478413077043
 30
0.0
 10
1.036423784415294
 20
-0.1316478413077043
 30
0.0
 10
1.036423784415294
 20
-0.1316478413077043
 30
0.0
 10
1.046954240980931
 20
-0.1209304046050571
 30
0.0
 10
1.046954240980931
 20
-0.1209304046050571
 30
0.0
 10
1.046954240980931
 20
-0.1209304046050571
 30
0.0
 10
1.058235927477553
 20
-0.1305193417197441
 30
0.0
 10
1.058235927477553
 20
-0.1305193417197441
 30
0.0
 10
1.058235927477553
 20
-0.1305193417197441
 30
0.0
 10
1.050902334847301
 20
-0.1382285493154869
 30
0.0
 10
1.050902334847301
 20
-0.1382285493154869
 30
0.0
 10
1.053031922779408
 20
-0.1389797792464707
 30
0.0
 10
1.055227698370648
 20
-0.139797196836576
 30
0.0
 10
1.057483042855084
 20
-0.1406725286284048
 30
0.0
 10
1.079167774673528
 20
-0.1484462691917846
 30
0.0
 10
1.091328102344935
 20
-0.1600390376862606
 30
0.0
 10
1.093960716486347
 20
-0.1754574528777337
 30
0.0
 10
1.094458778621212
 20
-0.1779659651583011
 30
0.0
 10
1.094711946417343
 20
-0.180534046332064
 30
0.0
 10
1.094711946417343
 20
-0.1831666604734765
 30
0.0
 10
1.094586189865014
 20
-0.1889332602740978
 30
0.0
 10
1.093583446829383
 20
-0.194071077313121
 30
0.0
 10
1.091703717310439
 20
-0.1985850756649496
 30
0.0
 10
1.084682861369528
 20
-0.2148804773397362
 30
0.0
 10
1.071519790662478
 20
-0.2231539347294529
 30
0.0
 10
1.052217814572272
 20
-0.2234037931426276
 30
0.0
 10
1.052217814572272
 20
-0.2234037931426276
 30
0.0
 10
1.048082740568892
 20
-0.2234037931426276
 30
0.0
 10
1.048082740568892
 20
-0.2234037931426276
 30
0.0
  0
HATCH
  5
A0
330
45
100
AcDbEntity
  8
Layer 1
 62
     7
420
 16777215
100
AcDbHatch
 10
0.0
 20
0.0
 30
0.0
210
0.0
220
0.0
230
1.0
  2
SOLID
 70
     1
 71
     0
 91
        1
 92
        1
 93
        1
 72
     4
 94
        3
 73
     0
 74
     1
 95
      122
 96
      118
 40
0.0
 40
0.0
 40
0.0
 40
0.0
 40
1.0
 40
1.0
 40
1.0
 40
2.0
 40
2.0
 40
2.0
 40
3.0
 40
3.0
 40
3.0
 40
4.0
 40
4.0
 40
4.0
 40
5.0
 40
5.0
 40
5.0
 40
6.0
 40
6.0
 40
6.0
 40
7.0
 40
7.0
 40
7.0
 40
8.0
 40
8.0
 40
8.0
 40
9.0
 40
9.0
 40
9.0
 40
10.0
 40
10.0
 40
10.0
 40
11.0
 40
11.0
 40
11.0
 40
12.0
 40
12.0
 40
12.0
 40
13.0
 40
13.0
 40
13.0
 40
14.0
 40
14.0
 40
14.0
 40
15.0
 40
15.0
 40
15.0
 40
16.0
 40
16.0
 40
16.0
 40
17.0
 40
17.0
 40
17.0
 40
18.0
 40
18.0
 40
18.0
 40
19.0
 40
19.0
 40
19.0
 40
20.0
 40
20.0
 40
20.0
 40
21.0
 40
21.0
 40
21.0
 40
22.0
 40
22.0
 40
22.0
 40
23.0
 40
23.0
 40
23.0
 40
24.0
 40
24.0
 40
24.0
 40
25.0
 40
25.0
 40
25.0
 40
26.0
 40
26.0
 40
26.0
 40
27.0
 40
27.0
 40
27.0
 40
28.0
 40
28.0
 40
28.0
 40
29.0
 40
29.0
 40
29.0
 40
30.0
 40
30.0
 40
30.0
 40
31.0
 40
31.0
 40
31.0
 40
32.0
 40
32.0
 40
32.0
 40
33.0
 40
33.0
 40
33.0
 40
34.0
 40
34.0
 40
34.0
 40
35.0
 40
35.0
 40
35.0
 40
36.0
 40
36.0
 40
36.0
 40
37.0
 40
37.0
 40
37.0
 40
38.0
 40
38.0
 40
38.0
 40
39.0
 40
39.0
 40
39.0
 40
39.0
 10
1.048082740568892
 20
-0.2234037931426276
 10
1.048082740568892
 20
-0.2234037931426276
 10
1.048082740568892
 20
-0.2091138775391022
 10
1.048082740568892
 20
-0.2091138775391022
 10
1.048082740568892
 20
-0.2091138775391022
 10
1.052030834435262
 20
-0.2091138775391022
 10
1.052030834435262
 20
-0.2091138775391022
 10
1.064816635485335
 20
-0.2087382625736104
 10
1.073338296596742
 20
-0.2042904518809034
 10
1.077602436535396
 20
-0.1957638266950552
 10
1.079356409502023
 20
-0.192002712965695
 10
1.080235050676808
 20
-0.18774353710147
 10
1.080235050676808
 20
-0.1829780256449819
 10
1.080235050676808
 20
-0.1790944647462488
 10
1.079167774673528
 20
-0.174830324807595
 10
1.077038186741422
 20
-0.1701922245949213
 10
1.076159545566636
 20
-0.1685656628720962
 10
1.075219680807171
 20
-0.1672485284556539
 10
1.074216937771527
 20
-0.1662441307285513
 10
1.071458567077798
 20
-0.1637372731394559
 10
1.068953364180187
 20
-0.1618575436205118
 10
1.066696365004279
 20
-0.1606032874802344
 10
1.066696365004279
 20
-0.1606032874802344
 10
1.066507730175797
 20
-0.1606032874802344
 10
1.066507730175797
 20
-0.1606032874802344
 10
1.063623602929738
 20
-0.1589750710659372
 10
1.061116745340642
 20
-0.1576595913409796
 10
1.058987157408536
 20
-0.1566551936138643
 10
1.057858657820589
 20
-0.1562779239568878
 10
1.056354543267124
 20
-0.155715328854386
 10
1.05447481374818
 20
-0.1549624442319302
 10
1.048833970499875
 20
-0.1529586128521411
 10
1.044632708837374
 20
-0.1513287417463592
 10
1.041877647526601
 20
-0.1500728309146098
 10
1.041248864764978
 20
-0.149824627192907
 10
1.040623391386324
 20
-0.1495747687797449
 10
1.039996263316172
 20
-0.1493216009836134
 10
1.039996263316172
 20
-0.1493216009836134
 10
1.02570634771266
 20
-0.1641757663811126
 10
1.02570634771266
 20
-0.1641757663811126
 10
1.02570634771266
 20
-0.1641757663811126
 10
1.005024358929846
 20
-0.1641757663811126
 10
1.005024358929846
 20
-0.1641757663811126
 10
1.005024358929846
 20
-0.1641757663811126
 10
1.026459232335128
 20
-0.142176643181857
 10
1.026459232335128
 20
-0.142176643181857
 10
1.015930430460975
 20
-0.1349092382107276
 10
1.010600669210513
 20
-0.1250663059541795
 10
1.010476567349669
 20
-0.1126569472153531
 10
1.010600669210513
 20
-0.1008763712381248
 10
1.015177545838507
 20
-0.0913486577081307
 10
1.024202233159207
 20
-0.0840771160083023
 10
1.032475690548924
 20
-0.0775609409681692
 10
1.042064627663611
 20
-0.0743003714108757
 10
1.05297069919474
 20
-0.0743003714108757
 10
1.06788608817692
 20
-0.0744261279632054
 10
1.080483254398498
 20
-0.0800669712115096
 10
1.090763852550961
 20
-0.0912220738100713
 10
1.090763852550961
 20
-0.0912220738100713
 10
1.093207831863891
 20
-0.094230302916963
 10
1.093207831863891
 20
-0.094230302916963
 10
1.093207831863891
 20
-0.094230302916963
 10
1.090763852550961
 20
-0.0968629170583755
 10
1.090763852550961
 20
-0.0968629170583755
 10
1.090763852550961
 20
-0.0968629170583755
 10
1.090575217722479
 20
-0.0970507245411277
 10
1.090575217722479
 20
-0.0970507245411277
 10
1.090575217722479
 20
-0.0970507245411277
 10
1.073841322806036
 20
-0.1145375040800268
 10
1.073841322806036
 20
-0.1145375040800268
 10
1.073841322806036
 20
-0.1145375040800268
 10
1.062559636309415
 20
-0.104759932136858
 10
1.062559636309415
 20
-0.104759932136858
 10
1.062559636309415
 20
-0.104759932136858
 10
1.072712823218075
 20
-0.094230302916963
 10
1.072712823218075
 20
-0.094230302916963
 10
1.066946223417441
 20
-0.0905966004314046
 10
1.060365515409659
 20
-0.0887780944971407
 10
1.05297069919474
 20
-0.0887780944971407
 10
1.043067370699241
 20
-0.0887780944971407
 10
1.035419386688192
 20
-0.091850856571682
 10
1.030031711236006
 20
-0.0979914166463358
 10
1.02664786716361
 20
-0.1021273179954581
 10
1.024955117781676
 20
-0.1070161039670362
 10
1.024955117781676
 20
-0.1126569472153531
 10
1.024955117781676
 20
-0.1205539622938356
 10
1.028650043851914
 20
-0.1268235883037631
 10
1.036048169449802
 20
-0.1314592064792224
 10
1.036048169449802
 20
-0.1314592064792224
 10
1.036423784415294
 20
-0.1316478413077043
 10
1.036423784415294
 20
-0.1316478413077043
 10
1.036423784415294
 20
-0.1316478413077043
 10
1.046954240980931
 20
-0.1209304046050571
 10
1.046954240980931
 20
-0.1209304046050571
 10
1.046954240980931
 20
-0.1209304046050571
 10
1.058235927477553
 20
-0.1305193417197441
 10
1.058235927477553
 20
-0.1305193417197441
 10
1.058235927477553
 20
-0.1305193417197441
 10
1.050902334847301
 20
-0.1382285493154869
 10
1.050902334847301
 20
-0.1382285493154869
 10
1.053031922779408
 20
-0.1389797792464707
 10
1.055227698370648
 20
-0.139797196836576
 10
1.057483042855084
 20
-0.1406725286284048
 10
1.079167774673528
 20
-0.1484462691917846
 10
1.091328102344935
 20
-0.1600390376862606
 10
1.093960716486347
 20
-0.1754574528777337
 10
1.094458778621212
 20
-0.1779659651583011
 10
1.094711946417343
 20
-0.180534046332064
 10
1.094711946417343
 20
-0.1831666604734765
 10
1.094586189865014
 20
-0.1889332602740978
 10
1.093583446829383
 20
-0.194071077313121
 10
1.091703717310439
 20
-0.1985850756649496
 10
1.084682861369528
 20
-0.2148804773397362
 10
1.071519790662478
 20
-0.2231539347294529
 10
1.052217814572272
 20
-0.2234037931426276
 10
1.052217814572272
 20
-0.2234037931426276
 10
1.048082740568892
 20
-0.2234037931426276
 10
1.048082740568892
 20
-0.2234037931426276
 97
        0
 97
        0
 75
     2
 76
     1
 98
        0
  0
ENDBLK
  5
48
330
45
100
AcDbEntity
  8
0
100
AcDbBlockEnd
  0
ENDSEC
  0
SECTION
  2
ENTITIES
  0
INSERT
  5
42
330
1F
100
AcDbEntity
  8
Layer 1
100
AcDbBlockReference
  2
block 2
 10
0.0
 20
0.0
 30
0.0
  0
ENDSEC
  0
SECTION
  2
OBJECTS
  0
DICTIONARY
  5
C
330
0
100
AcDbDictionary
281
     1
  3
ACAD_GROUP
350
D
  3
ACAD_LAYOUT
350
1A
  3
ACAD_MATERIAL
350
3B
  3
ACAD_MLEADERSTYLE
350
DE
  3
ACAD_MLINESTYLE
350
17
  3
ACAD_PLOTSETTINGS
350
19
  3
ACAD_PLOTSTYLENAME
350
E
  3
ACAD_TABLESTYLE
350
DD
  3
ACAD_VISUALSTYLE
350
2A
  0
SUN
  5
3F
330
29
100
AcDbSun
 90
        1
290
     0
 63
     7
421
 16777215
 40
1.0
291
     1
 91
  2455826
 92
 54000000
292
     0
 70
     2
 71
   256
280
     1
  0
DICTIONARY
  5
D
102
{ACAD_REACTORS
330
C
102
}
330
C
100
AcDbDictionary
281
     1
  0
DICTIONARY
  5
1A
102
{ACAD_REACTORS
330
C
102
}
330
C
100
AcDbDictionary
281
     1
  3
Layout1
350
1E
  3
Layout2
350
26
  3
Model
350
22
  0
DICTIONARY
  5
3B
102
{ACAD_REACTORS
330
C
102
}
330
C
100
AcDbDictionary
281
     1
  3
ByBlock
350
3D
  3
ByLayer
350
3C
  3
Global
350
3E
  0
DICTIONARY
  5
DE
102
{ACAD_REACTORS
330
C
102
}
330
C
100
AcDbDictionary
281
     1
  0
DICTIONARY
  5
17
102
{ACAD_REACTORS
330
C
102
}
330
C
100
AcDbDictionary
281
     1
  3
Standard
350
18
  0
DICTIONARY
  5
19
102
{ACAD_REACTORS
330
C
102
}
330
C
100
AcDbDictionary
281
     1
  0
ACDBDICTIONARYWDFLT
  5
E
102
{ACAD_REACTORS
330
C
102
}
330
C
100
AcDbDictionary
281
     1
  3
Normal
350
F
100
AcDbDictionaryWithDefault
340
F
  0
DICTIONARY
  5
DD
102
{ACAD_REACTORS
330
C
102
}
330
C
100
AcDbDictionary
281
     1
  0
DICTIONARY
  5
2A
102
{ACAD_REACTORS
330
C
102
}
330
C
100
AcDbDictionary
281
     1
  3
2dWireframe
350
2F
  3
3D Hidden
350
31
  3
3dWireframe
350
30
  3
Basic
350
32
  3
Brighten
350
36
  3
ColorChange
350
3A
  3
Conceptual
350
34
  3
Dim
350
35
  3
Facepattern
350
39
  3
Flat
350
2B
  3
FlatWithEdges
350
2C
  3
Gouraud
350
2D
  3
GouraudWithEdges
350
2E
  3
Linepattern
350
38
  3
Realistic
350
33
  3
Thicken
350
37
  0
LAYOUT
  5
1E
102
{ACAD_REACTORS
330
1A
102
}
330
1A
100
AcDbPlotSettings
  1

  2
none_device
  4

  6

 40
0.0
 41
0.0
 42
0.0
 43
0.0
 44
0.0
 45
0.0
 46
0.0
 47
0.0
 48
0.0
 49
0.0
140
0.0
141
0.0
142
1.0
143
1.0
 70
   688
 72
     0
 73
     0
 74
     5
  7

 75
    16
 76
     0
 77
     2
 78
   300
147
1.0
148
0.0
149
0.0
100
AcDbLayout
  1
Layout1
 70
     1
 71
     1
 10
0.0
 20
0.0
 11
12.0
 21
9.0
 12
0.0
 22
0.0
 32
0.0
 14
1.000000000000000E+20
 24
1.000000000000000E+20
 34
1.000000000000000E+20
 15
-1.000000000000000E+20
 25
-1.000000000000000E+20
 35
-1.000000000000000E+20
146
0.0
 13
0.0
 23
0.0
 33
0.0
 16
1.0
 26
0.0
 36
0.0
 17
0.0
 27
1.0
 37
0.0
 76
     0
330
1B
  0
LAYOUT
  5
26
102
{ACAD_REACTORS
330
1A
102
}
330
1A
100
AcDbPlotSettings
  1

  2
none_device
  4

  6

 40
0.0
 41
0.0
 42
0.0
 43
0.0
 44
0.0
 45
0.0
 46
0.0
 47
0.0
 48
0.0
 49
0.0
140
0.0
141
0.0
142
1.0
143
1.0
 70
   688
 72
     0
 73
     0
 74
     5
  7

 75
    16
 76
     0
 77
     2
 78
   300
147
1.0
148
0.0
149
0.0
100
AcDbLayout
  1
Layout2
 70
     1
 71
     2
 10
0.0
 20
0.0
 11
0.0
 21
0.0
 12
0.0
 22
0.0
 32
0.0
 14
0.0
 24
0.0
 34
0.0
 15
0.0
 25
0.0
 35
0.0
146
0.0
 13
0.0
 23
0.0
 33
0.0
 16
1.0
 26
0.0
 36
0.0
 17
0.0
 27
1.0
 37
0.0
 76
     0
330
23
  0
LAYOUT
  5
22
102
{ACAD_REACTORS
330
1A
102
}
330
1A
100
AcDbPlotSettings
  1

  2
none_device
  4

  6

 40
0.0
 41
0.0
 42
0.0
 43
0.0
 44
0.0
 45
0.0
 46
0.0
 47
0.0
 48
0.0
 49
0.0
140
0.0
141
0.0
142
1.0
143
1.0
 70
  1712
 72
     0
 73
     0
 74
     0
  7

 75
     0
 76
     0
 77
     2
 78
   300
147
1.0
148
0.0
149
0.0
100
AcDbLayout
  1
Model
 70
     1
 71
     0
 10
0.0
 20
0.0
 11
12.0
 21
9.0
 12
0.0
 22
0.0
 32
0.0
 14
1.000000000000000E+20
 24
1.000000000000000E+20
 34
1.000000000000000E+20
 15
-1.000000000000000E+20
 25
-1.000000000000000E+20
 35
-1.000000000000000E+20
146
0.0
 13
0.0
 23
0.0
 33
0.0
 16
1.0
 26
0.0
 36
0.0
 17
0.0
 27
1.0
 37
0.0
 76
     0
330
1F
331
29
  0
MATERIAL
  5
3D
102
{ACAD_REACTORS
330
3B
102
}
330
3B
100
AcDbMaterial
  1
ByBlock
 72
     1
 94
      127
  0
MATERIAL
  5
3C
102
{ACAD_REACTORS
330
3B
102
}
330
3B
100
AcDbMaterial
  1
ByLayer
 72
     1
 94
      127
  0
MATERIAL
  5
3E
102
{ACAD_REACTORS
330
3B
102
}
330
3B
100
AcDbMaterial
  1
Global
 72
     1
 94
      127
  0
MLINESTYLE
  5
18
102
{ACAD_REACTORS
330
17
102
}
330
17
100
AcDbMlineStyle
  2
Standard
 70
     0
  3

 62
   256
 51
90.0
 52
90.0
 71
     2
 49
0.5
 62
   256
  6
BYLAYER
 49
-0.5
 62
   256
  6
BYLAYER
  0
ACDBPLACEHOLDER
  5
F
102
{ACAD_REACTORS
330
E
102
}
330
E
  0
VISUALSTYLE
  5
2F
102
{ACAD_REACTORS
330
2A
102
}
330
2A
100
AcDbVisualStyle
  2
2dWireframe
 70
     4
177
     2
291
     0
 71
     0
176
     1
 72
     2
176
     1
 73
     0
176
     1
 90
        0
176
     1
 40
-0.6
176
     1
 41
-30.0
176
     1
 62
     5
 63
     7
421
 16777215
176
     1
 74
     1
176
     1
 91
        4
176
     1
 64
     7
176
     1
 65
   257
176
     1
 75
     1
176
     1
175
     1
176
     1
 42
1.0
176
     1
 92
        0
176
     1
 66
   257
176
     1
 43
1.0
176
     1
 76
     1
176
     1
 77
     6
176
     1
 78
     2
176
     1
 67
     7
176
     1
 79
     5
176
     1
170
     0
176
     1
171
     0
176
     1
290
     0
176
     1
 93
        1
176
     1
 44
0.0
176
     1
173
     0
176
     1
  0
VISUALSTYLE
  5
31
102
{ACAD_REACTORS
330
2A
102
}
330
2A
100
AcDbVisualStyle
  2
3D Hidden
 70
     6
177
     2
291
     0
 71
     1
176
     1
 72
     2
176
     1
 73
     2
176
     1
 90
        0
176
     1
 40
-0.6
176
     1
 41
-30.0
176
     1
 62
     5
 63
     7
421
 16777215
176
     1
 74
     2
176
     1
 91
        2
176
     1
 64
     7
176
     1
 65
   257
176
     1
 75
     2
176
     1
175
     1
176
     1
 42
40.0
176
     1
 92
        0
176
     1
 66
   257
176
     1
 43
1.0
176
     1
 76
     1
176
     1
 77
     6
176
     1
 78
     2
176
     1
 67
     7
176
     1
 79
     3
176
     1
170
     0
176
     1
171
     0
176
     1
290
     0
176
     1
 93
        1
176
     1
 44
0.0
176
     1
173
     0
176
     1
  0
VISUALSTYLE
  5
30
102
{ACAD_REACTORS
330
2A
102
}
330
2A
100
AcDbVisualStyle
  2
3dWireframe
 70
     5
177
     2
291
     0
 71
     0
176
     1
 72
     2
176
     1
 73
     0
176
     1
 90
        0
176
     1
 40
-0.6
176
     1
 41
-30.0
176
     1
 62
     5
 63
     7
421
 16777215
176
     1
 74
     1
176
     1
 91
        4
176
     1
 64
     7
176
     1
 65
   257
176
     1
 75
     1
176
     1
175
     1
176
     1
 42
1.0
176
     1
 92
        0
176
     1
 66
   257
176
     1
 43
1.0
176
     1
 76
     1
176
     1
 77
     6
176
     1
 78
     2
176
     1
 67
     7
176
     1
 79
     5
176
     1
170
     0
176
     1
171
     0
176
     1
290
     0
176
     1
 93
        1
176
     1
 44
0.0
176
     1
173
     0
176
     1
  0
VISUALSTYLE
  5
32
102
{ACAD_REACTORS
330
2A
102
}
330
2A
100
AcDbVisualStyle
  2
Basic
 70
     7
177
     2
291
     1
 71
     1
176
     1
 72
     0
176
     1
 73
     1
176
     1
 90
        0
176
     1
 40
-0.6
176
     1
 41
-30.0
176
     1
 62
     5
 63
     7
421
 16777215
176
     1
 74
     0
176
     1
 91
        4
176
     1
 64
     7
176
     1
 65
   257
176
     1
 75
     1
176
     1
175
     1
176
     1
 42
1.0
176
     1
 92
        8
176
     1
 66
     7
176
     1
 43
1.0
176
     1
 76
     1
176
     1
 77
     6
176
     1
 78
     2
176
     1
 67
     7
176
     1
 79
     5
176
     1
170
     0
176
     1
171
     0
176
     1
290
     0
176
     1
 93
        1
176
     1
 44
0.0
176
     1
173
     0
176
     1
  0
VISUALSTYLE
  5
36
102
{ACAD_REACTORS
330
2A
102
}
330
2A
100
AcDbVisualStyle
  2
Brighten
 70
    12
177
     2
291
     1
 71
     2
176
     1
 72
     2
176
     1
 73
     0
176
     1
 90
        0
176
     1
 40
-0.6
176
     1
 41
-30.0
176
     1
 62
     5
 63
     7
421
 16777215
176
     1
 74
     1
176
     1
 91
        4
176
     1
 64
     7
176
     1
 65
   257
176
     1
 75
     1
176
     1
175
     1
176
     1
 42
1.0
176
     1
 92
        8
176
     1
 66
     7
176
     1
 43
1.0
176
     1
 76
     1
176
     1
 77
     6
176
     1
 78
     2
176
     1
 67
     7
176
     1
 79
     5
176
     1
170
     0
176
     1
171
     0
176
     1
290
     0
176
     1
 93
        1
176
     1
 44
50.0
176
     1
173
     0
176
     1
  0
VISUALSTYLE
  5
3A
102
{ACAD_REACTORS
330
2A
102
}
330
2A
100
AcDbVisualStyle
  2
ColorChange
 70
    16
177
     2
291
     1
 71
     2
176
     1
 72
     2
176
     1
 73
     3
176
     1
 90
        0
176
     1
 40
-0.6
176
     1
 41
-30.0
176
     1
 62
     5
 63
     8
421
  8421504
176
     1
 74
     1
176
     1
 91
        4
176
     1
 64
     7
176
     1
 65
   257
176
     1
 75
     1
176
     1
175
     1
176
     1
 42
1.0
176
     1
 92
        8
176
     1
 66
     8
424
  8421504
176
     1
 43
1.0
176
     1
 76
     1
176
     1
 77
     6
176
     1
 78
     2
176
     1
 67
     7
176
     1
 79
     5
176
     1
170
     0
176
     1
171
     0
176
     1
290
     0
176
     1
 93
        1
176
     1
 44
0.0
176
     1
173
     0
176
     1
  0
VISUALSTYLE
  5
34
102
{ACAD_REACTORS
330
2A
102
}
330
2A
100
AcDbVisualStyle
  2
Conceptual
 70
     9
177
     2
291
     0
 71
     3
176
     1
 72
     2
176
     1
 73
     0
176
     1
 90
        0
176
     1
 40
-0.6
176
     1
 41
-30.0
176
     1
 62
     5
 63
     7
421
 16777215
176
     1
 74
     2
176
     1
 91
        2
176
     1
 64
     7
176
     1
 65
   257
176
     1
 75
     1
176
     1
175
     1
176
     1
 42
40.0
176
     1
 92
        8
176
     1
 66
     7
176
     1
 43
1.0
176
     1
 76
     1
176
     1
 77
     6
176
     1
 78
     2
176
     1
 67
     7
176
     1
 79
     3
176
     1
170
     0
176
     1
171
     0
176
     1
290
     0
176
     1
 93
        1
176
     1
 44
0.0
176
     1
173
     0
176
     1
  0
VISUALSTYLE
  5
35
102
{ACAD_REACTORS
330
2A
102
}
330
2A
100
AcDbVisualStyle
  2
Dim
 70
    11
177
     2
291
     1
 71
     2
176
     1
 72
     2
176
     1
 73
     0
176
     1
 90
        0
176
     1
 40
-0.6
176
     1
 41
-30.0
176
     1
 62
     5
 63
     7
421
 16777215
176
     1
 74
     1
176
     1
 91
        4
176
     1
 64
     7
176
     1
 65
   257
176
     1
 75
     1
176
     1
175
     1
176
     1
 42
1.0
176
     1
 92
        8
176
     1
 66
     7
176
     1
 43
1.0
176
     1
 76
     1
176
     1
 77
     6
176
     1
 78
     2
176
     1
 67
     7
176
     1
 79
     5
176
     1
170
     0
176
     1
171
     0
176
     1
290
     0
176
     1
 93
        1
176
     1
 44
-50.0
176
     1
173
     0
176
     1
  0
VISUALSTYLE
  5
39
102
{ACAD_REACTORS
330
2A
102
}
330
2A
100
AcDbVisualStyle
  2
Facepattern
 70
    15
177
     2
291
     1
 71
     2
176
     1
 72
     2
176
     1
 73
     0
176
     1
 90
        0
176
     1
 40
-0.6
176
     1
 41
-30.0
176
     1
 62
     5
 63
     7
421
 16777215
176
     1
 74
     1
176
     1
 91
        4
176
     1
 64
     7
176
     1
 65
   257
176
     1
 75
     1
176
     1
175
     1
176
     1
 42
1.0
176
     1
 92
        8
176
     1
 66
     7
176
     1
 43
1.0
176
     1
 76
     1
176
     1
 77
     6
176
     1
 78
     2
176
     1
 67
     7
176
     1
 79
     5
176
     1
170
     0
176
     1
171
     0
176
     1
290
     0
176
     1
 93
        1
176
     1
 44
0.0
176
     1
173
     0
176
     1
  0
VISUALSTYLE
  5
2B
102
{ACAD_REACTORS
330
2A
102
}
330
2A
100
AcDbVisualStyle
  2
Flat
 70
     0
177
     2
291
     1
 71
     2
176
     1
 72
     1
176
     1
 73
     1
176
     1
 90
        2
176
     1
 40
-0.6
176
     1
 41
30.0
176
     1
 62
     5
 63
     7
421
 16777215
176
     1
 74
     0
176
     1
 91
        4
176
     1
 64
     7
176
     1
 65
   257
176
     1
 75
     1
176
     1
175
     1
176
     1
 42
1.0
176
     1
 92
        8
176
     1
 66
     7
176
     1
 43
1.0
176
     1
 76
     1
176
     1
 77
     6
176
     1
 78
     2
176
     1
 67
     7
176
     1
 79
     5
176
     1
170
     0
176
     1
171
     0
176
     1
290
     0
176
     1
 93
       13
176
     1
 44
0.0
176
     1
173
     0
176
     1
  0
VISUALSTYLE
  5
2C
102
{ACAD_REACTORS
330
2A
102
}
330
2A
100
AcDbVisualStyle
  2
FlatWithEdges
 70
     1
177
     2
291
     1
 71
     2
176
     1
 72
     1
176
     1
 73
     1
176
     1
 90
        2
176
     1
 40
-0.6
176
     1
 41
30.0
176
     1
 62
     5
 63
     7
421
 16777215
176
     1
 74
     1
176
     1
 91
        4
176
     1
 64
     7
176
     1
 65
   257
176
     1
 75
     1
176
     1
175
     1
176
     1
 42
1.0
176
     1
 92
        0
176
     1
 66
   257
176
     1
 43
1.0
176
     1
 76
     1
176
     1
 77
     6
176
     1
 78
     2
176
     1
 67
     7
176
     1
 79
     5
176
     1
170
     0
176
     1
171
     0
176
     1
290
     0
176
     1
 93
       13
176
     1
 44
0.0
176
     1
173
     0
176
     1
  0
VISUALSTYLE
  5
2D
102
{ACAD_REACTORS
330
2A
102
}
330
2A
100
AcDbVisualStyle
  2
Gouraud
 70
     2
177
     2
291
     1
 71
     2
176
     1
 72
     2
176
     1
 73
     1
176
     1
 90
        2
176
     1
 40
-0.6
176
     1
 41
30.0
176
     1
 62
     5
 63
     7
421
 16777215
176
     1
 74
     0
176
     1
 91
        4
176
     1
 64
     7
176
     1
 65
   257
176
     1
 75
     1
176
     1
175
     1
176
     1
 42
1.0
176
     1
 92
        0
176
     1
 66
     7
176
     1
 43
1.0
176
     1
 76
     1
176
     1
 77
     6
176
     1
 78
     2
176
     1
 67
     7
176
     1
 79
     5
176
     1
170
     0
176
     1
171
     0
176
     1
290
     0
176
     1
 93
       13
176
     1
 44
0.0
176
     1
173
     0
176
     1
  0
VISUALSTYLE
  5
2E
102
{ACAD_REACTORS
330
2A
102
}
330
2A
100
AcDbVisualStyle
  2
GouraudWithEdges
 70
     3
177
     2
291
     1
 71
     2
176
     1
 72
     2
176
     1
 73
     1
176
     1
 90
        2
176
     1
 40
-0.6
176
     1
 41
30.0
176
     1
 62
     5
 63
     7
421
 16777215
176
     1
 74
     1
176
     1
 91
        4
176
     1
 64
     7
176
     1
 65
   257
176
     1
 75
     1
176
     1
175
     1
176
     1
 42
1.0
176
     1
 92
        0
176
     1
 66
   257
176
     1
 43
1.0
176
     1
 76
     1
176
     1
 77
     6
176
     1
 78
     2
176
     1
 67
     7
176
     1
 79
     5
176
     1
170
     0
176
     1
171
     0
176
     1
290
     0
176
     1
 93
       13
176
     1
 44
0.0
176
     1
173
     0
176
     1
  0
VISUALSTYLE
  5
38
102
{ACAD_REACTORS
330
2A
102
}
330
2A
100
AcDbVisualStyle
  2
Linepattern
 70
    14
177
     2
291
     1
 71
     2
176
     1
 72
     2
176
     1
 73
     0
176
     1
 90
        0
176
     1
 40
-0.6
176
     1
 41
-30.0
176
     1
 62
     5
 63
     7
421
 16777215
176
     1
 74
     1
176
     1
 91
        4
176
     1
 64
     7
176
     1
 65
   257
176
     1
 75
     7
176
     1
175
     7
176
     1
 42
1.0
176
     1
 92
        8
176
     1
 66
     7
176
     1
 43
1.0
176
     1
 76
     1
176
     1
 77
     6
176
     1
 78
     2
176
     1
 67
     7
176
     1
 79
     5
176
     1
170
     0
176
     1
171
     0
176
     1
290
     0
176
     1
 93
        1
176
     1
 44
0.0
176
     1
173
     0
176
     1
  0
VISUALSTYLE
  5
33
102
{ACAD_REACTORS
330
2A
102
}
330
2A
100
AcDbVisualStyle
  2
Realistic
 70
     8
177
     2
291
     0
 71
     2
176
     1
 72
     2
176
     1
 73
     0
176
     1
 90
        0
176
     1
 40
-0.6
176
     1
 41
-30.0
176
     1
 62
     5
 63
     7
421
 16777215
176
     1
 74
     1
176
     1
 91
        0
176
     1
 64
     7
176
     1
 65
   257
176
     1
 75
     1
176
     1
175
     1
176
     1
 42
1.0
176
     1
 92
        8
176
     1
 66
     8
424
  7895160
176
     1
 43
1.0
176
     1
 76
     1
176
     1
 77
     6
176
     1
 78
     2
176
     1
 67
     7
176
     1
 79
     5
176
     1
170
     0
176
     1
171
     0
176
     1
290
     0
176
     1
 93
       13
176
     1
 44
0.0
176
     1
173
     0
176
     1
  0
VISUALSTYLE
  5
37
102
{ACAD_REACTORS
330
2A
102
}
330
2A
100
AcDbVisualStyle
  2
Thicken
 70
    13
177
     2
291
     1
 71
     2
176
     1
 72
     2
176
     1
 73
     0
176
     1
 90
        0
176
     1
 40
-0.6
176
     1
 41
-30.0
176
     1
 62
     5
 63
     7
421
 16777215
176
     1
 74
     1
176
     1
 91
        4
176
     1
 64
     7
176
     1
 65
   257
176
     1
 75
     1
176
     1
175
     1
176
     1
 42
1.0
176
     1
 92
       12
176
     1
 66
     7
176
     1
 43
1.0
176
     1
 76
     1
176
     1
 77
     6
176
     1
 78
     2
176
     1
 67
     7
176
     1
 79
     5
176
     1
170
     0
176
     1
171
     0
176
     1
290
     0
176
     1
 93
        1
176
     1
 44
0.0
176
     1
173
     0
176
     1
  0
ENDSEC
  0
EOF
