M48
; DRILL file {KiCad 5.1.6-c6e7f7d~87~ubuntu19.10.1} date Thu Mar  4 23:02:01 2021
; FORMAT={-:-/ absolute / inch / decimal}
; #@! TF.CreationDate,2021-03-04T23:02:01-05:00
; #@! TF.GenerationSoftware,Kicad,Pcbnew,5.1.6-c6e7f7d~87~ubuntu19.10.1
; #@! TF.FileFunction,Plated,1,4,PTH
FMAT,2
INCH
T1C0.0118
T2C0.0157
T3C0.0197
T4C0.0236
T5C0.0256
T6C0.0295
T7C0.0394
T8C0.0551
T9C0.0669
T10C0.1063
%
G90
G05
T1
X4.919Y-3.648
X4.9274Y-3.4027
X5.0018Y-3.3388
X5.024Y-4.062
X5.024Y-4.095
X5.024Y-4.135
X5.024Y-4.172
X5.0514Y-3.2662
X5.064Y-4.062
X5.064Y-4.095
X5.064Y-4.135
X5.064Y-4.172
X5.0992Y-3.7726
X5.1032Y-3.5452
X5.104Y-4.062
X5.104Y-4.095
X5.104Y-4.135
X5.104Y-4.172
X5.1046Y-3.476
X5.1268Y-3.7182
X5.144Y-4.062
X5.144Y-4.095
X5.144Y-4.135
X5.144Y-4.172
X5.1538Y-3.4564
X5.1576Y-3.2096
X5.1586Y-3.2356
X5.183Y-3.0924
X5.1849Y-3.6716
X5.203Y-3.444
X5.2056Y-3.722
X5.2127Y-3.3605
X5.2686Y-3.0262
X5.2742Y-3.5018
X5.2742Y-3.5418
X5.2742Y-3.5818
X5.2742Y-3.6218
X5.2742Y-3.6618
X5.3064Y-3.338
X5.324Y-3.5018
X5.324Y-3.5418
X5.324Y-3.5818
X5.324Y-3.6218
X5.324Y-3.6618
X5.3394Y-3.3452
X5.349Y-3.748
X5.3682Y-3.387
X5.374Y-3.5018
X5.374Y-3.5418
X5.374Y-3.5818
X5.374Y-3.6218
X5.374Y-3.6618
X5.3886Y-3.358
X5.412Y-3.961
X5.42Y-3.919
X5.424Y-3.5018
X5.424Y-3.5418
X5.424Y-3.5818
X5.424Y-3.6218
X5.424Y-3.6618
X5.4372Y-3.1568
X5.449Y-3.961
X5.454Y-3.915
X5.4774Y-3.4104
X5.497Y-3.435
X5.5207Y-3.4558
X5.5326Y-3.1182
X5.5374Y-3.204
X5.5744Y-3.4466
X5.6302Y-3.5016
X5.6302Y-3.5016
X5.6473Y-3.1814
X5.6496Y-3.2194
X5.6544Y-3.8622
X5.655Y-3.0446
X5.6766Y-3.1048
X5.6807Y-3.1814
X5.6932Y-3.676
X5.7008Y-3.0136
X5.718Y-4.061
X5.718Y-4.094
X5.718Y-4.134
X5.718Y-4.171
X5.736Y-3.6513
X5.7391Y-3.2638
X5.7436Y-3.5375
X5.758Y-4.061
X5.758Y-4.094
X5.758Y-4.134
X5.758Y-4.171
X5.7596Y-3.3929
X5.7637Y-3.2911
X5.7732Y-3.0208
X5.7796Y-3.5364
X5.7838Y-3.3442
X5.7883Y-3.262
X5.7936Y-3.3066
X5.7937Y-3.5667
X5.798Y-4.061
X5.798Y-4.094
X5.798Y-4.134
X5.798Y-4.171
X5.8045Y-3.3679
X5.81Y-3.6929
X5.8173Y-2.9937
X5.8208Y-3.2658
X5.8248Y-3.5771
X5.838Y-4.061
X5.838Y-4.094
X5.838Y-4.134
X5.838Y-4.171
X5.8392Y-3.2944
X5.863Y-3.7421
X5.87Y-3.5122
X5.9019Y-3.581
X5.9051Y-3.5125
X5.9351Y-3.4975
X5.944Y-4.061
X5.944Y-4.094
X5.944Y-4.134
X5.944Y-4.171
X5.9454Y-3.2726
X5.984Y-4.061
X5.984Y-4.094
X5.984Y-4.134
X5.984Y-4.171
X6.0088Y-3.4875
X6.0088Y-3.5209
X6.024Y-4.061
X6.024Y-4.094
X6.024Y-4.134
X6.024Y-4.171
X6.028Y-3.7618
X6.0397Y-3.6974
X6.0574Y-3.3349
X6.064Y-4.061
X6.064Y-4.094
X6.064Y-4.134
X6.064Y-4.171
X6.082Y-3.305
X6.0974Y-3.2432
X6.1012Y-3.6898
X6.1106Y-3.6223
X6.1278Y-3.8088
X6.129Y-3.0132
X6.1394Y-3.6788
X6.2464Y-3.5712
X6.2558Y-3.6536
X6.2716Y-3.0038
T2
X4.914Y-3.86
X4.917Y-3.995
X4.917Y-4.263
X4.918Y-4.129
X4.954Y-3.837
X4.955Y-3.751
X4.956Y-4.234
X4.956Y-4.372
X4.958Y-3.969
X4.959Y-4.103
X4.992Y-3.86
X5.029Y-3.962
X5.043Y-3.797
X5.066Y-3.859
X5.11Y-3.965
X5.5138Y-3.8682
X5.522Y-4.631
X5.592Y-3.8812
X5.693Y-3.866
X5.7Y-3.964
X5.745Y-3.8646
X5.773Y-3.971
X5.818Y-3.8646
X5.848Y-3.97
X5.93Y-3.8698
X5.96Y-3.971
X5.962Y-3.754
X6.0044Y-3.8697
X6.043Y-3.97
X6.079Y-4.629
X6.1044Y-3.1114
X6.205Y-3.813
X6.2119Y-3.2047
X6.239Y-3.356
X6.287Y-3.864
X6.3202Y-3.958
X6.354Y-3.863
X6.36Y-3.998
X6.361Y-4.132
X6.363Y-4.266
X6.3945Y-3.97
X6.3945Y-4.099
X6.3945Y-4.232
X6.3945Y-4.3614
T3
X4.9176Y-3.2846
T6
X6.3436Y-3.2889
X6.3436Y-3.3676
X6.3436Y-3.4464
X6.3436Y-3.5251
X6.3436Y-3.6039
X6.3436Y-3.6826
T7
X5.1694Y-4.8215
X5.6025Y-4.8215
X5.7344Y-4.8215
X6.1675Y-4.8215
T8
X5.1146Y-4.3582
X5.6676Y-4.3582
X6.2196Y-4.3582
T9
X5.2875Y-4.4278
X5.4844Y-4.4278
X5.8525Y-4.4278
X6.0494Y-4.4278
T10
X6.3762Y-3.0875
X4.9591Y-4.5549
X6.3765Y-4.5545
X4.959Y-3.0871
T4
G00X5.1042Y-3.04
M15
G01X5.1042Y-3.0124
M16
G05
G00X5.433Y-3.04
M15
G01X5.433Y-3.0124
M16
G05
T5
G00X5.181Y-3.1482
M15
G01X5.181Y-3.1404
M16
G05
G00X5.3562Y-3.1482
M15
G01X5.3562Y-3.1404
M16
G05
T0
M30
