%TF.GenerationSoftware,KiCad,Pcbnew,5.1.6-c6e7f7d~87~ubuntu19.10.1*%
%TF.CreationDate,2021-03-04T23:01:58-05:00*%
%TF.ProjectId,daedalus,64616564-616c-4757-932e-6b696361645f,v1.0*%
%TF.SameCoordinates,Original*%
%TF.FileFunction,Legend,Top*%
%TF.FilePolarity,Positive*%
%FSLAX46Y46*%
G04 Gerber Fmt 4.6, Leading zero omitted, Abs format (unit mm)*
G04 Created by KiCad (PCBNEW 5.1.6-c6e7f7d~87~ubuntu19.10.1) date 2021-03-04 23:01:58*
%MOMM*%
%LPD*%
G01*
G04 APERTURE LIST*
%ADD10C,0.120000*%
%ADD11C,0.152400*%
%ADD12C,0.127000*%
%ADD13C,0.200000*%
%ADD14C,0.076200*%
G04 APERTURE END LIST*
D10*
%TO.C,J9*%
X132822440Y-80665480D02*
X132222440Y-80665480D01*
X132522440Y-80365480D02*
X132222440Y-80665480D01*
X132522440Y-80365480D02*
X132822440Y-80665480D01*
X137692440Y-80135480D02*
X136822440Y-80135480D01*
X129952440Y-80135480D02*
X129952440Y-78065480D01*
X137692440Y-80135480D02*
X137692440Y-78065480D01*
X130822440Y-80135480D02*
X129952440Y-80135480D01*
X129952440Y-75665480D02*
X129952440Y-75415480D01*
X137692440Y-75665480D02*
X137692440Y-75415480D01*
%TO.C,U7*%
X145174341Y-90965652D02*
X145174341Y-91915652D01*
X145174341Y-91915652D02*
X146124341Y-91915652D01*
X145174341Y-82645652D02*
X145174341Y-81695652D01*
X145174341Y-81695652D02*
X146124341Y-81695652D01*
X155394341Y-90965652D02*
X155394341Y-91915652D01*
X155394341Y-91915652D02*
X154444341Y-91915652D01*
X155394341Y-82645652D02*
X155394341Y-81695652D01*
X155394341Y-81695652D02*
X154444341Y-81695652D01*
X154444341Y-81695652D02*
X154444341Y-80355652D01*
D11*
%TO.C,U5*%
X136125040Y-86838280D02*
X136125040Y-85822280D01*
X140062040Y-90241880D02*
X141078040Y-90241880D01*
X131654640Y-89759280D02*
X130664040Y-89759280D01*
X137623640Y-95169480D02*
X137623640Y-96185480D01*
X132645240Y-87447880D02*
X132315040Y-87447880D01*
X139427040Y-87778080D02*
X139427040Y-87447880D01*
X132315040Y-94229680D02*
X132315040Y-94559880D01*
X139427040Y-94559880D02*
X139427040Y-94229680D01*
X139427040Y-87447880D02*
X139096840Y-87447880D01*
X132315040Y-87447880D02*
X132315040Y-87778080D01*
X132315040Y-94559880D02*
X132645240Y-94559880D01*
X139096840Y-94559880D02*
X139427040Y-94559880D01*
D10*
%TO.C,D2*%
X138247560Y-81209640D02*
X138247560Y-83209640D01*
X138247560Y-83209640D02*
X142147560Y-83209640D01*
X138247560Y-81209640D02*
X142147560Y-81209640D01*
%TO.C,D6*%
X155916640Y-76319720D02*
X155916640Y-78604720D01*
X155916640Y-78604720D02*
X157386640Y-78604720D01*
X157386640Y-78604720D02*
X157386640Y-76319720D01*
%TO.C,C20*%
X158307500Y-91277221D02*
X158307500Y-91602779D01*
X157287500Y-91277221D02*
X157287500Y-91602779D01*
%TO.C,C19*%
X143298640Y-88829099D02*
X143298640Y-88503541D01*
X142278640Y-88829099D02*
X142278640Y-88503541D01*
%TO.C,D1*%
X128650240Y-90109480D02*
X128650240Y-94009480D01*
X126650240Y-90109480D02*
X126650240Y-94009480D01*
X128650240Y-90109480D02*
X126650240Y-90109480D01*
%TO.C,D3*%
X126267720Y-89611640D02*
X124267720Y-89611640D01*
X124267720Y-89611640D02*
X124267720Y-93511640D01*
X126267720Y-89611640D02*
X126267720Y-93511640D01*
%TO.C,D4*%
X131271840Y-97022160D02*
X131271840Y-95022160D01*
X131271840Y-95022160D02*
X127371840Y-95022160D01*
X131271840Y-97022160D02*
X127371840Y-97022160D01*
%TO.C,D7*%
X159086640Y-78604720D02*
X159086640Y-76319720D01*
X157616640Y-78604720D02*
X159086640Y-78604720D01*
X157616640Y-76319720D02*
X157616640Y-78604720D01*
%TO.C,F1*%
X133207979Y-82287840D02*
X132882421Y-82287840D01*
X133207979Y-81267840D02*
X132882421Y-81267840D01*
%TO.C,FB1*%
X132578342Y-84230280D02*
X133095498Y-84230280D01*
X132578342Y-82810280D02*
X133095498Y-82810280D01*
%TO.C,FB2*%
X146553338Y-79547040D02*
X146036182Y-79547040D01*
X146553338Y-78127040D02*
X146036182Y-78127040D01*
%TO.C,L1*%
X130867880Y-82707699D02*
X130867880Y-82382141D01*
X129847880Y-82707699D02*
X129847880Y-82382141D01*
%TO.C,L2*%
X129238280Y-93314739D02*
X129238280Y-92989181D01*
X130258280Y-93314739D02*
X130258280Y-92989181D01*
%TO.C,Q1*%
X137906880Y-81988120D02*
X136976880Y-81988120D01*
X134746880Y-81988120D02*
X135676880Y-81988120D01*
X134746880Y-81988120D02*
X134746880Y-84148120D01*
X137906880Y-81988120D02*
X137906880Y-83448120D01*
%TO.C,U3*%
X128103200Y-83266640D02*
X125653200Y-83266640D01*
X126303200Y-86486640D02*
X128103200Y-86486640D01*
D12*
%TO.C,U6*%
X156422800Y-94211900D02*
G75*
G03*
X156422800Y-94211900I-150000J0D01*
G01*
%TO.C,U8*%
X131648840Y-104914180D02*
X131798840Y-104914180D01*
X126648840Y-104914180D02*
X126498840Y-104914180D01*
X131648840Y-104914180D02*
X131648840Y-107414180D01*
D13*
X127343840Y-108724180D02*
G75*
G03*
X127343840Y-108724180I-100000J0D01*
G01*
D12*
X131648840Y-102414180D02*
X131648840Y-104914180D01*
X126648840Y-104914180D02*
X126648840Y-107414180D01*
X126648840Y-102414180D02*
X126648840Y-104914180D01*
%TO.C,U9*%
X149301840Y-104907080D02*
X149451840Y-104907080D01*
X144301840Y-104907080D02*
X144151840Y-104907080D01*
X149301840Y-104907080D02*
X149301840Y-107407080D01*
D13*
X144996840Y-108717080D02*
G75*
G03*
X144996840Y-108717080I-100000J0D01*
G01*
D12*
X149301840Y-102407080D02*
X149301840Y-104907080D01*
X144301840Y-104907080D02*
X144301840Y-107407080D01*
X144301840Y-102407080D02*
X144301840Y-104907080D01*
%TO.C,U10*%
X150004140Y-102350680D02*
X150004140Y-104850680D01*
X150004140Y-104850680D02*
X150004140Y-107350680D01*
X155004140Y-102350680D02*
X155004140Y-104850680D01*
D13*
X150699140Y-108660680D02*
G75*
G03*
X150699140Y-108660680I-100000J0D01*
G01*
D12*
X155004140Y-104850680D02*
X155004140Y-107350680D01*
X150004140Y-104850680D02*
X149854140Y-104850680D01*
X155004140Y-104850680D02*
X155154140Y-104850680D01*
%TO.C,U11*%
X137490840Y-107407080D02*
X137490840Y-104907080D01*
X137490840Y-104907080D02*
X137490840Y-102407080D01*
X132490840Y-107407080D02*
X132490840Y-104907080D01*
D13*
X136995840Y-101097080D02*
G75*
G03*
X136995840Y-101097080I-100000J0D01*
G01*
D12*
X132490840Y-104907080D02*
X132490840Y-102407080D01*
X137490840Y-104907080D02*
X137640840Y-104907080D01*
X132490840Y-104907080D02*
X132340840Y-104907080D01*
%TO.C,U12*%
X143586840Y-107412680D02*
X143586840Y-104912680D01*
X143586840Y-104912680D02*
X143586840Y-102412680D01*
X138586840Y-107412680D02*
X138586840Y-104912680D01*
D13*
X143091840Y-101102680D02*
G75*
G03*
X143091840Y-101102680I-100000J0D01*
G01*
D12*
X138586840Y-104912680D02*
X138586840Y-102412680D01*
X143586840Y-104912680D02*
X143736840Y-104912680D01*
X138586840Y-104912680D02*
X138436840Y-104912680D01*
%TO.C,U13*%
X155808040Y-104861880D02*
X155658040Y-104861880D01*
X160808040Y-104861880D02*
X160958040Y-104861880D01*
X155808040Y-104861880D02*
X155808040Y-102361880D01*
D13*
X160313040Y-101051880D02*
G75*
G03*
X160313040Y-101051880I-100000J0D01*
G01*
D12*
X155808040Y-107361880D02*
X155808040Y-104861880D01*
X160808040Y-104861880D02*
X160808040Y-102361880D01*
X160808040Y-107361880D02*
X160808040Y-104861880D01*
D10*
%TO.C,U14*%
X140059840Y-80807200D02*
X141859840Y-80807200D01*
X141859840Y-77587200D02*
X139409840Y-77587200D01*
%TO.C,Y1*%
X153300341Y-79415791D02*
X153300341Y-76115791D01*
X153300341Y-76115791D02*
X149300341Y-76115791D01*
%TO.C,R19*%
X134858676Y-100876780D02*
X136062804Y-100876780D01*
X134858676Y-99056780D02*
X136062804Y-99056780D01*
%TO.C,R20*%
X141219004Y-100876780D02*
X140014876Y-100876780D01*
X141219004Y-99056780D02*
X140014876Y-99056780D01*
%TO.C,R21*%
X157042440Y-99349644D02*
X157042440Y-98145516D01*
X158862440Y-99349644D02*
X158862440Y-98145516D01*
%TO.C,J1*%
X146081440Y-121418580D02*
X146081440Y-117168580D01*
X146081440Y-117168580D02*
X147101440Y-117168580D01*
X147101440Y-117168580D02*
X147101440Y-118768580D01*
X147101440Y-118768580D02*
X148381440Y-118768580D01*
X148381440Y-118768580D02*
X148381440Y-115878580D01*
X156201440Y-121418580D02*
X156201440Y-117168580D01*
X156201440Y-117168580D02*
X155181440Y-117168580D01*
X155181440Y-117168580D02*
X155181440Y-118768580D01*
X155181440Y-118768580D02*
X153901440Y-118768580D01*
X147801440Y-124988580D02*
X154481440Y-124988580D01*
%TO.C,J2*%
X133450440Y-124993780D02*
X140130440Y-124993780D01*
X140830440Y-118773780D02*
X139550440Y-118773780D01*
X140830440Y-117173780D02*
X140830440Y-118773780D01*
X141850440Y-117173780D02*
X140830440Y-117173780D01*
X141850440Y-121423780D02*
X141850440Y-117173780D01*
X134030440Y-118773780D02*
X134030440Y-115883780D01*
X132750440Y-118773780D02*
X134030440Y-118773780D01*
X132750440Y-117173780D02*
X132750440Y-118773780D01*
X131730440Y-117173780D02*
X132750440Y-117173780D01*
X131730440Y-121423780D02*
X131730440Y-117173780D01*
%TO.C,SWD1*%
X161267440Y-94398040D02*
X160052440Y-94398040D01*
X165227440Y-94338040D02*
X167487440Y-94338040D01*
X165227440Y-93838040D02*
X167487440Y-93838040D01*
X163627440Y-83238040D02*
X163627440Y-82238040D01*
X165227440Y-83238040D02*
X163627440Y-83238040D01*
X165227440Y-82238040D02*
X165227440Y-83238040D01*
X163627440Y-82238040D02*
X165227440Y-82238040D01*
X163627440Y-93838040D02*
X163627440Y-94838040D01*
X165227440Y-93838040D02*
X163627440Y-93838040D01*
X165227440Y-94838040D02*
X165227440Y-93838040D01*
X163627440Y-94838040D02*
X165227440Y-94838040D01*
X161267440Y-81478040D02*
X161267440Y-82398040D01*
X161267440Y-95598040D02*
X161267440Y-94678040D01*
X163127440Y-84038040D02*
X167487440Y-84038040D01*
X163127440Y-93038040D02*
X163127440Y-84038040D01*
X167487440Y-93038040D02*
X163127440Y-93038040D01*
X161267440Y-82398040D02*
X161267440Y-82678040D01*
X159667440Y-82398040D02*
X161267440Y-82398040D01*
X159667440Y-81478040D02*
X159667440Y-82398040D01*
X167487440Y-81478040D02*
X159667440Y-81478040D01*
X167487440Y-95598040D02*
X167487440Y-81478040D01*
X159667440Y-95598040D02*
X167487440Y-95598040D01*
X159667440Y-94678040D02*
X159667440Y-95598040D01*
X161267440Y-94678040D02*
X159667440Y-94678040D01*
X161267440Y-94398040D02*
X161267440Y-94678040D01*
%TO.C,C28*%
X151766340Y-99615758D02*
X151766340Y-99098602D01*
X150346340Y-99615758D02*
X150346340Y-99098602D01*
%TO.C,C29*%
X161369940Y-99626158D02*
X161369940Y-99109002D01*
X162789940Y-99626158D02*
X162789940Y-99109002D01*
%TO.C,C30*%
X124639000Y-95725242D02*
X124639000Y-96242398D01*
X126059000Y-95725242D02*
X126059000Y-96242398D01*
%TO.C,C31*%
X161367400Y-109930698D02*
X161367400Y-109413542D01*
X162787400Y-109930698D02*
X162787400Y-109413542D01*
%TO.C,C32*%
X160808740Y-99618058D02*
X160808740Y-99100902D01*
X159388740Y-99618058D02*
X159388740Y-99100902D01*
%TO.C,C33*%
X126086940Y-106522258D02*
X126086940Y-106005102D01*
X124666940Y-106522258D02*
X124666940Y-106005102D01*
%TO.C,C34*%
X153734840Y-99613458D02*
X153734840Y-99096302D01*
X152314840Y-99613458D02*
X152314840Y-99096302D01*
%TO.C,C35*%
X128586160Y-99679258D02*
X128586160Y-99162102D01*
X130006160Y-99679258D02*
X130006160Y-99162102D01*
%TO.C,C36*%
X126086940Y-102588802D02*
X126086940Y-103105958D01*
X124666940Y-102588802D02*
X124666940Y-103105958D01*
%TO.C,C37*%
X145596540Y-99679258D02*
X145596540Y-99162102D01*
X147016540Y-99679258D02*
X147016540Y-99162102D01*
%TO.C,C38*%
X161369940Y-106496858D02*
X161369940Y-105979702D01*
X162789940Y-106496858D02*
X162789940Y-105979702D01*
%TO.C,C39*%
X124669480Y-109433862D02*
X124669480Y-109951018D01*
X126089480Y-109433862D02*
X126089480Y-109951018D01*
%TO.C,C40*%
X126617660Y-99679258D02*
X126617660Y-99162102D01*
X128037660Y-99679258D02*
X128037660Y-99162102D01*
%TO.C,C41*%
X162789940Y-102540302D02*
X162789940Y-103057458D01*
X161369940Y-102540302D02*
X161369940Y-103057458D01*
%TO.C,C42*%
X126069160Y-99679258D02*
X126069160Y-99162102D01*
X124649160Y-99679258D02*
X124649160Y-99162102D01*
%TO.C,C43*%
X148985040Y-99679258D02*
X148985040Y-99162102D01*
X147565040Y-99679258D02*
X147565040Y-99162102D01*
%TO.C,D5*%
X139773760Y-77102640D02*
X142058760Y-77102640D01*
X142058760Y-77102640D02*
X142058760Y-75632640D01*
X142058760Y-75632640D02*
X139773760Y-75632640D01*
%TO.C,U5*%
D14*
X131508899Y-93592918D02*
X131796161Y-93592918D01*
X131681256Y-93880180D02*
X131796161Y-93592918D01*
X131681256Y-93305657D01*
X132025971Y-93765276D02*
X131796161Y-93592918D01*
X132025971Y-93420561D01*
%TD*%
M02*
