%TF.GenerationSoftware,KiCad,Pcbnew,5.1.6-c6e7f7d~87~ubuntu19.10.1*%
%TF.CreationDate,2021-03-04T23:01:58-05:00*%
%TF.ProjectId,daedalus,64616564-616c-4757-932e-6b696361645f,v1.0*%
%TF.SameCoordinates,Original*%
%TF.FileFunction,Soldermask,Top*%
%TF.FilePolarity,Negative*%
%FSLAX46Y46*%
G04 Gerber Fmt 4.6, Leading zero omitted, Abs format (unit mm)*
G04 Created by KiCad (PCBNEW 5.1.6-c6e7f7d~87~ubuntu19.10.1) date 2021-03-04 23:01:58*
%MOMM*%
%LPD*%
G01*
G04 APERTURE LIST*
%ADD10O,1.150000X1.350000*%
%ADD11R,0.500000X1.450000*%
%ADD12O,1.100000X2.000000*%
%ADD13R,3.000000X2.000000*%
%ADD14R,0.975000X2.000000*%
%ADD15R,5.308600X5.308600*%
%ADD16R,1.016000X0.508000*%
%ADD17R,0.508000X1.016000*%
%ADD18R,1.000000X1.300000*%
%ADD19C,1.703200*%
%ADD20C,2.753200*%
%ADD21R,1.300000X1.000000*%
%ADD22R,0.900000X1.000000*%
%ADD23R,1.160000X0.750000*%
%ADD24R,0.953200X0.503200*%
%ADD25R,1.563200X1.663200*%
%ADD26R,0.733200X1.333200*%
%ADD27R,4.553200X3.903200*%
%ADD28R,0.733200X1.533200*%
%ADD29R,1.500000X1.300000*%
%ADD30C,4.800000*%
%ADD31O,1.850000X1.300000*%
%ADD32C,2.303200*%
G04 APERTURE END LIST*
D10*
%TO.C,J9*%
X136047440Y-79865480D03*
D11*
X135122440Y-79540480D03*
X134472440Y-79540480D03*
X133822440Y-79540480D03*
X132522440Y-79540480D03*
D10*
X131597440Y-79865480D03*
D12*
X137997440Y-76865480D03*
X129647440Y-76865480D03*
D11*
X133172440Y-79540480D03*
D13*
X133822440Y-76865480D03*
D14*
X130084940Y-76865480D03*
X137559940Y-76865480D03*
%TD*%
%TO.C,U7*%
G36*
G01*
X153934341Y-80305652D02*
X154134341Y-80305652D01*
G75*
G02*
X154234341Y-80405652I0J-100000D01*
G01*
X154234341Y-81855652D01*
G75*
G02*
X154134341Y-81955652I-100000J0D01*
G01*
X153934341Y-81955652D01*
G75*
G02*
X153834341Y-81855652I0J100000D01*
G01*
X153834341Y-80405652D01*
G75*
G02*
X153934341Y-80305652I100000J0D01*
G01*
G37*
G36*
G01*
X153434341Y-80305652D02*
X153634341Y-80305652D01*
G75*
G02*
X153734341Y-80405652I0J-100000D01*
G01*
X153734341Y-81855652D01*
G75*
G02*
X153634341Y-81955652I-100000J0D01*
G01*
X153434341Y-81955652D01*
G75*
G02*
X153334341Y-81855652I0J100000D01*
G01*
X153334341Y-80405652D01*
G75*
G02*
X153434341Y-80305652I100000J0D01*
G01*
G37*
G36*
G01*
X152934341Y-80305652D02*
X153134341Y-80305652D01*
G75*
G02*
X153234341Y-80405652I0J-100000D01*
G01*
X153234341Y-81855652D01*
G75*
G02*
X153134341Y-81955652I-100000J0D01*
G01*
X152934341Y-81955652D01*
G75*
G02*
X152834341Y-81855652I0J100000D01*
G01*
X152834341Y-80405652D01*
G75*
G02*
X152934341Y-80305652I100000J0D01*
G01*
G37*
G36*
G01*
X152434341Y-80305652D02*
X152634341Y-80305652D01*
G75*
G02*
X152734341Y-80405652I0J-100000D01*
G01*
X152734341Y-81855652D01*
G75*
G02*
X152634341Y-81955652I-100000J0D01*
G01*
X152434341Y-81955652D01*
G75*
G02*
X152334341Y-81855652I0J100000D01*
G01*
X152334341Y-80405652D01*
G75*
G02*
X152434341Y-80305652I100000J0D01*
G01*
G37*
G36*
G01*
X151934341Y-80305652D02*
X152134341Y-80305652D01*
G75*
G02*
X152234341Y-80405652I0J-100000D01*
G01*
X152234341Y-81855652D01*
G75*
G02*
X152134341Y-81955652I-100000J0D01*
G01*
X151934341Y-81955652D01*
G75*
G02*
X151834341Y-81855652I0J100000D01*
G01*
X151834341Y-80405652D01*
G75*
G02*
X151934341Y-80305652I100000J0D01*
G01*
G37*
G36*
G01*
X151434341Y-80305652D02*
X151634341Y-80305652D01*
G75*
G02*
X151734341Y-80405652I0J-100000D01*
G01*
X151734341Y-81855652D01*
G75*
G02*
X151634341Y-81955652I-100000J0D01*
G01*
X151434341Y-81955652D01*
G75*
G02*
X151334341Y-81855652I0J100000D01*
G01*
X151334341Y-80405652D01*
G75*
G02*
X151434341Y-80305652I100000J0D01*
G01*
G37*
G36*
G01*
X150934341Y-80305652D02*
X151134341Y-80305652D01*
G75*
G02*
X151234341Y-80405652I0J-100000D01*
G01*
X151234341Y-81855652D01*
G75*
G02*
X151134341Y-81955652I-100000J0D01*
G01*
X150934341Y-81955652D01*
G75*
G02*
X150834341Y-81855652I0J100000D01*
G01*
X150834341Y-80405652D01*
G75*
G02*
X150934341Y-80305652I100000J0D01*
G01*
G37*
G36*
G01*
X150434341Y-80305652D02*
X150634341Y-80305652D01*
G75*
G02*
X150734341Y-80405652I0J-100000D01*
G01*
X150734341Y-81855652D01*
G75*
G02*
X150634341Y-81955652I-100000J0D01*
G01*
X150434341Y-81955652D01*
G75*
G02*
X150334341Y-81855652I0J100000D01*
G01*
X150334341Y-80405652D01*
G75*
G02*
X150434341Y-80305652I100000J0D01*
G01*
G37*
G36*
G01*
X149934341Y-80305652D02*
X150134341Y-80305652D01*
G75*
G02*
X150234341Y-80405652I0J-100000D01*
G01*
X150234341Y-81855652D01*
G75*
G02*
X150134341Y-81955652I-100000J0D01*
G01*
X149934341Y-81955652D01*
G75*
G02*
X149834341Y-81855652I0J100000D01*
G01*
X149834341Y-80405652D01*
G75*
G02*
X149934341Y-80305652I100000J0D01*
G01*
G37*
G36*
G01*
X149434341Y-80305652D02*
X149634341Y-80305652D01*
G75*
G02*
X149734341Y-80405652I0J-100000D01*
G01*
X149734341Y-81855652D01*
G75*
G02*
X149634341Y-81955652I-100000J0D01*
G01*
X149434341Y-81955652D01*
G75*
G02*
X149334341Y-81855652I0J100000D01*
G01*
X149334341Y-80405652D01*
G75*
G02*
X149434341Y-80305652I100000J0D01*
G01*
G37*
G36*
G01*
X148934341Y-80305652D02*
X149134341Y-80305652D01*
G75*
G02*
X149234341Y-80405652I0J-100000D01*
G01*
X149234341Y-81855652D01*
G75*
G02*
X149134341Y-81955652I-100000J0D01*
G01*
X148934341Y-81955652D01*
G75*
G02*
X148834341Y-81855652I0J100000D01*
G01*
X148834341Y-80405652D01*
G75*
G02*
X148934341Y-80305652I100000J0D01*
G01*
G37*
G36*
G01*
X148434341Y-80305652D02*
X148634341Y-80305652D01*
G75*
G02*
X148734341Y-80405652I0J-100000D01*
G01*
X148734341Y-81855652D01*
G75*
G02*
X148634341Y-81955652I-100000J0D01*
G01*
X148434341Y-81955652D01*
G75*
G02*
X148334341Y-81855652I0J100000D01*
G01*
X148334341Y-80405652D01*
G75*
G02*
X148434341Y-80305652I100000J0D01*
G01*
G37*
G36*
G01*
X147934341Y-80305652D02*
X148134341Y-80305652D01*
G75*
G02*
X148234341Y-80405652I0J-100000D01*
G01*
X148234341Y-81855652D01*
G75*
G02*
X148134341Y-81955652I-100000J0D01*
G01*
X147934341Y-81955652D01*
G75*
G02*
X147834341Y-81855652I0J100000D01*
G01*
X147834341Y-80405652D01*
G75*
G02*
X147934341Y-80305652I100000J0D01*
G01*
G37*
G36*
G01*
X147434341Y-80305652D02*
X147634341Y-80305652D01*
G75*
G02*
X147734341Y-80405652I0J-100000D01*
G01*
X147734341Y-81855652D01*
G75*
G02*
X147634341Y-81955652I-100000J0D01*
G01*
X147434341Y-81955652D01*
G75*
G02*
X147334341Y-81855652I0J100000D01*
G01*
X147334341Y-80405652D01*
G75*
G02*
X147434341Y-80305652I100000J0D01*
G01*
G37*
G36*
G01*
X146934341Y-80305652D02*
X147134341Y-80305652D01*
G75*
G02*
X147234341Y-80405652I0J-100000D01*
G01*
X147234341Y-81855652D01*
G75*
G02*
X147134341Y-81955652I-100000J0D01*
G01*
X146934341Y-81955652D01*
G75*
G02*
X146834341Y-81855652I0J100000D01*
G01*
X146834341Y-80405652D01*
G75*
G02*
X146934341Y-80305652I100000J0D01*
G01*
G37*
G36*
G01*
X146434341Y-80305652D02*
X146634341Y-80305652D01*
G75*
G02*
X146734341Y-80405652I0J-100000D01*
G01*
X146734341Y-81855652D01*
G75*
G02*
X146634341Y-81955652I-100000J0D01*
G01*
X146434341Y-81955652D01*
G75*
G02*
X146334341Y-81855652I0J100000D01*
G01*
X146334341Y-80405652D01*
G75*
G02*
X146434341Y-80305652I100000J0D01*
G01*
G37*
G36*
G01*
X143884341Y-82855652D02*
X145334341Y-82855652D01*
G75*
G02*
X145434341Y-82955652I0J-100000D01*
G01*
X145434341Y-83155652D01*
G75*
G02*
X145334341Y-83255652I-100000J0D01*
G01*
X143884341Y-83255652D01*
G75*
G02*
X143784341Y-83155652I0J100000D01*
G01*
X143784341Y-82955652D01*
G75*
G02*
X143884341Y-82855652I100000J0D01*
G01*
G37*
G36*
G01*
X143884341Y-83355652D02*
X145334341Y-83355652D01*
G75*
G02*
X145434341Y-83455652I0J-100000D01*
G01*
X145434341Y-83655652D01*
G75*
G02*
X145334341Y-83755652I-100000J0D01*
G01*
X143884341Y-83755652D01*
G75*
G02*
X143784341Y-83655652I0J100000D01*
G01*
X143784341Y-83455652D01*
G75*
G02*
X143884341Y-83355652I100000J0D01*
G01*
G37*
G36*
G01*
X143884341Y-83855652D02*
X145334341Y-83855652D01*
G75*
G02*
X145434341Y-83955652I0J-100000D01*
G01*
X145434341Y-84155652D01*
G75*
G02*
X145334341Y-84255652I-100000J0D01*
G01*
X143884341Y-84255652D01*
G75*
G02*
X143784341Y-84155652I0J100000D01*
G01*
X143784341Y-83955652D01*
G75*
G02*
X143884341Y-83855652I100000J0D01*
G01*
G37*
G36*
G01*
X143884341Y-84355652D02*
X145334341Y-84355652D01*
G75*
G02*
X145434341Y-84455652I0J-100000D01*
G01*
X145434341Y-84655652D01*
G75*
G02*
X145334341Y-84755652I-100000J0D01*
G01*
X143884341Y-84755652D01*
G75*
G02*
X143784341Y-84655652I0J100000D01*
G01*
X143784341Y-84455652D01*
G75*
G02*
X143884341Y-84355652I100000J0D01*
G01*
G37*
G36*
G01*
X143884341Y-84855652D02*
X145334341Y-84855652D01*
G75*
G02*
X145434341Y-84955652I0J-100000D01*
G01*
X145434341Y-85155652D01*
G75*
G02*
X145334341Y-85255652I-100000J0D01*
G01*
X143884341Y-85255652D01*
G75*
G02*
X143784341Y-85155652I0J100000D01*
G01*
X143784341Y-84955652D01*
G75*
G02*
X143884341Y-84855652I100000J0D01*
G01*
G37*
G36*
G01*
X143884341Y-85355652D02*
X145334341Y-85355652D01*
G75*
G02*
X145434341Y-85455652I0J-100000D01*
G01*
X145434341Y-85655652D01*
G75*
G02*
X145334341Y-85755652I-100000J0D01*
G01*
X143884341Y-85755652D01*
G75*
G02*
X143784341Y-85655652I0J100000D01*
G01*
X143784341Y-85455652D01*
G75*
G02*
X143884341Y-85355652I100000J0D01*
G01*
G37*
G36*
G01*
X143884341Y-85855652D02*
X145334341Y-85855652D01*
G75*
G02*
X145434341Y-85955652I0J-100000D01*
G01*
X145434341Y-86155652D01*
G75*
G02*
X145334341Y-86255652I-100000J0D01*
G01*
X143884341Y-86255652D01*
G75*
G02*
X143784341Y-86155652I0J100000D01*
G01*
X143784341Y-85955652D01*
G75*
G02*
X143884341Y-85855652I100000J0D01*
G01*
G37*
G36*
G01*
X143884341Y-86355652D02*
X145334341Y-86355652D01*
G75*
G02*
X145434341Y-86455652I0J-100000D01*
G01*
X145434341Y-86655652D01*
G75*
G02*
X145334341Y-86755652I-100000J0D01*
G01*
X143884341Y-86755652D01*
G75*
G02*
X143784341Y-86655652I0J100000D01*
G01*
X143784341Y-86455652D01*
G75*
G02*
X143884341Y-86355652I100000J0D01*
G01*
G37*
G36*
G01*
X143884341Y-86855652D02*
X145334341Y-86855652D01*
G75*
G02*
X145434341Y-86955652I0J-100000D01*
G01*
X145434341Y-87155652D01*
G75*
G02*
X145334341Y-87255652I-100000J0D01*
G01*
X143884341Y-87255652D01*
G75*
G02*
X143784341Y-87155652I0J100000D01*
G01*
X143784341Y-86955652D01*
G75*
G02*
X143884341Y-86855652I100000J0D01*
G01*
G37*
G36*
G01*
X143884341Y-87355652D02*
X145334341Y-87355652D01*
G75*
G02*
X145434341Y-87455652I0J-100000D01*
G01*
X145434341Y-87655652D01*
G75*
G02*
X145334341Y-87755652I-100000J0D01*
G01*
X143884341Y-87755652D01*
G75*
G02*
X143784341Y-87655652I0J100000D01*
G01*
X143784341Y-87455652D01*
G75*
G02*
X143884341Y-87355652I100000J0D01*
G01*
G37*
G36*
G01*
X143884341Y-87855652D02*
X145334341Y-87855652D01*
G75*
G02*
X145434341Y-87955652I0J-100000D01*
G01*
X145434341Y-88155652D01*
G75*
G02*
X145334341Y-88255652I-100000J0D01*
G01*
X143884341Y-88255652D01*
G75*
G02*
X143784341Y-88155652I0J100000D01*
G01*
X143784341Y-87955652D01*
G75*
G02*
X143884341Y-87855652I100000J0D01*
G01*
G37*
G36*
G01*
X143884341Y-88355652D02*
X145334341Y-88355652D01*
G75*
G02*
X145434341Y-88455652I0J-100000D01*
G01*
X145434341Y-88655652D01*
G75*
G02*
X145334341Y-88755652I-100000J0D01*
G01*
X143884341Y-88755652D01*
G75*
G02*
X143784341Y-88655652I0J100000D01*
G01*
X143784341Y-88455652D01*
G75*
G02*
X143884341Y-88355652I100000J0D01*
G01*
G37*
G36*
G01*
X143884341Y-88855652D02*
X145334341Y-88855652D01*
G75*
G02*
X145434341Y-88955652I0J-100000D01*
G01*
X145434341Y-89155652D01*
G75*
G02*
X145334341Y-89255652I-100000J0D01*
G01*
X143884341Y-89255652D01*
G75*
G02*
X143784341Y-89155652I0J100000D01*
G01*
X143784341Y-88955652D01*
G75*
G02*
X143884341Y-88855652I100000J0D01*
G01*
G37*
G36*
G01*
X143884341Y-89355652D02*
X145334341Y-89355652D01*
G75*
G02*
X145434341Y-89455652I0J-100000D01*
G01*
X145434341Y-89655652D01*
G75*
G02*
X145334341Y-89755652I-100000J0D01*
G01*
X143884341Y-89755652D01*
G75*
G02*
X143784341Y-89655652I0J100000D01*
G01*
X143784341Y-89455652D01*
G75*
G02*
X143884341Y-89355652I100000J0D01*
G01*
G37*
G36*
G01*
X143884341Y-89855652D02*
X145334341Y-89855652D01*
G75*
G02*
X145434341Y-89955652I0J-100000D01*
G01*
X145434341Y-90155652D01*
G75*
G02*
X145334341Y-90255652I-100000J0D01*
G01*
X143884341Y-90255652D01*
G75*
G02*
X143784341Y-90155652I0J100000D01*
G01*
X143784341Y-89955652D01*
G75*
G02*
X143884341Y-89855652I100000J0D01*
G01*
G37*
G36*
G01*
X143884341Y-90355652D02*
X145334341Y-90355652D01*
G75*
G02*
X145434341Y-90455652I0J-100000D01*
G01*
X145434341Y-90655652D01*
G75*
G02*
X145334341Y-90755652I-100000J0D01*
G01*
X143884341Y-90755652D01*
G75*
G02*
X143784341Y-90655652I0J100000D01*
G01*
X143784341Y-90455652D01*
G75*
G02*
X143884341Y-90355652I100000J0D01*
G01*
G37*
G36*
G01*
X146434341Y-91655652D02*
X146634341Y-91655652D01*
G75*
G02*
X146734341Y-91755652I0J-100000D01*
G01*
X146734341Y-93205652D01*
G75*
G02*
X146634341Y-93305652I-100000J0D01*
G01*
X146434341Y-93305652D01*
G75*
G02*
X146334341Y-93205652I0J100000D01*
G01*
X146334341Y-91755652D01*
G75*
G02*
X146434341Y-91655652I100000J0D01*
G01*
G37*
G36*
G01*
X146934341Y-91655652D02*
X147134341Y-91655652D01*
G75*
G02*
X147234341Y-91755652I0J-100000D01*
G01*
X147234341Y-93205652D01*
G75*
G02*
X147134341Y-93305652I-100000J0D01*
G01*
X146934341Y-93305652D01*
G75*
G02*
X146834341Y-93205652I0J100000D01*
G01*
X146834341Y-91755652D01*
G75*
G02*
X146934341Y-91655652I100000J0D01*
G01*
G37*
G36*
G01*
X147434341Y-91655652D02*
X147634341Y-91655652D01*
G75*
G02*
X147734341Y-91755652I0J-100000D01*
G01*
X147734341Y-93205652D01*
G75*
G02*
X147634341Y-93305652I-100000J0D01*
G01*
X147434341Y-93305652D01*
G75*
G02*
X147334341Y-93205652I0J100000D01*
G01*
X147334341Y-91755652D01*
G75*
G02*
X147434341Y-91655652I100000J0D01*
G01*
G37*
G36*
G01*
X147934341Y-91655652D02*
X148134341Y-91655652D01*
G75*
G02*
X148234341Y-91755652I0J-100000D01*
G01*
X148234341Y-93205652D01*
G75*
G02*
X148134341Y-93305652I-100000J0D01*
G01*
X147934341Y-93305652D01*
G75*
G02*
X147834341Y-93205652I0J100000D01*
G01*
X147834341Y-91755652D01*
G75*
G02*
X147934341Y-91655652I100000J0D01*
G01*
G37*
G36*
G01*
X148434341Y-91655652D02*
X148634341Y-91655652D01*
G75*
G02*
X148734341Y-91755652I0J-100000D01*
G01*
X148734341Y-93205652D01*
G75*
G02*
X148634341Y-93305652I-100000J0D01*
G01*
X148434341Y-93305652D01*
G75*
G02*
X148334341Y-93205652I0J100000D01*
G01*
X148334341Y-91755652D01*
G75*
G02*
X148434341Y-91655652I100000J0D01*
G01*
G37*
G36*
G01*
X148934341Y-91655652D02*
X149134341Y-91655652D01*
G75*
G02*
X149234341Y-91755652I0J-100000D01*
G01*
X149234341Y-93205652D01*
G75*
G02*
X149134341Y-93305652I-100000J0D01*
G01*
X148934341Y-93305652D01*
G75*
G02*
X148834341Y-93205652I0J100000D01*
G01*
X148834341Y-91755652D01*
G75*
G02*
X148934341Y-91655652I100000J0D01*
G01*
G37*
G36*
G01*
X149434341Y-91655652D02*
X149634341Y-91655652D01*
G75*
G02*
X149734341Y-91755652I0J-100000D01*
G01*
X149734341Y-93205652D01*
G75*
G02*
X149634341Y-93305652I-100000J0D01*
G01*
X149434341Y-93305652D01*
G75*
G02*
X149334341Y-93205652I0J100000D01*
G01*
X149334341Y-91755652D01*
G75*
G02*
X149434341Y-91655652I100000J0D01*
G01*
G37*
G36*
G01*
X149934341Y-91655652D02*
X150134341Y-91655652D01*
G75*
G02*
X150234341Y-91755652I0J-100000D01*
G01*
X150234341Y-93205652D01*
G75*
G02*
X150134341Y-93305652I-100000J0D01*
G01*
X149934341Y-93305652D01*
G75*
G02*
X149834341Y-93205652I0J100000D01*
G01*
X149834341Y-91755652D01*
G75*
G02*
X149934341Y-91655652I100000J0D01*
G01*
G37*
G36*
G01*
X150434341Y-91655652D02*
X150634341Y-91655652D01*
G75*
G02*
X150734341Y-91755652I0J-100000D01*
G01*
X150734341Y-93205652D01*
G75*
G02*
X150634341Y-93305652I-100000J0D01*
G01*
X150434341Y-93305652D01*
G75*
G02*
X150334341Y-93205652I0J100000D01*
G01*
X150334341Y-91755652D01*
G75*
G02*
X150434341Y-91655652I100000J0D01*
G01*
G37*
G36*
G01*
X150934341Y-91655652D02*
X151134341Y-91655652D01*
G75*
G02*
X151234341Y-91755652I0J-100000D01*
G01*
X151234341Y-93205652D01*
G75*
G02*
X151134341Y-93305652I-100000J0D01*
G01*
X150934341Y-93305652D01*
G75*
G02*
X150834341Y-93205652I0J100000D01*
G01*
X150834341Y-91755652D01*
G75*
G02*
X150934341Y-91655652I100000J0D01*
G01*
G37*
G36*
G01*
X151434341Y-91655652D02*
X151634341Y-91655652D01*
G75*
G02*
X151734341Y-91755652I0J-100000D01*
G01*
X151734341Y-93205652D01*
G75*
G02*
X151634341Y-93305652I-100000J0D01*
G01*
X151434341Y-93305652D01*
G75*
G02*
X151334341Y-93205652I0J100000D01*
G01*
X151334341Y-91755652D01*
G75*
G02*
X151434341Y-91655652I100000J0D01*
G01*
G37*
G36*
G01*
X151934341Y-91655652D02*
X152134341Y-91655652D01*
G75*
G02*
X152234341Y-91755652I0J-100000D01*
G01*
X152234341Y-93205652D01*
G75*
G02*
X152134341Y-93305652I-100000J0D01*
G01*
X151934341Y-93305652D01*
G75*
G02*
X151834341Y-93205652I0J100000D01*
G01*
X151834341Y-91755652D01*
G75*
G02*
X151934341Y-91655652I100000J0D01*
G01*
G37*
G36*
G01*
X152434341Y-91655652D02*
X152634341Y-91655652D01*
G75*
G02*
X152734341Y-91755652I0J-100000D01*
G01*
X152734341Y-93205652D01*
G75*
G02*
X152634341Y-93305652I-100000J0D01*
G01*
X152434341Y-93305652D01*
G75*
G02*
X152334341Y-93205652I0J100000D01*
G01*
X152334341Y-91755652D01*
G75*
G02*
X152434341Y-91655652I100000J0D01*
G01*
G37*
G36*
G01*
X152934341Y-91655652D02*
X153134341Y-91655652D01*
G75*
G02*
X153234341Y-91755652I0J-100000D01*
G01*
X153234341Y-93205652D01*
G75*
G02*
X153134341Y-93305652I-100000J0D01*
G01*
X152934341Y-93305652D01*
G75*
G02*
X152834341Y-93205652I0J100000D01*
G01*
X152834341Y-91755652D01*
G75*
G02*
X152934341Y-91655652I100000J0D01*
G01*
G37*
G36*
G01*
X153434341Y-91655652D02*
X153634341Y-91655652D01*
G75*
G02*
X153734341Y-91755652I0J-100000D01*
G01*
X153734341Y-93205652D01*
G75*
G02*
X153634341Y-93305652I-100000J0D01*
G01*
X153434341Y-93305652D01*
G75*
G02*
X153334341Y-93205652I0J100000D01*
G01*
X153334341Y-91755652D01*
G75*
G02*
X153434341Y-91655652I100000J0D01*
G01*
G37*
G36*
G01*
X153934341Y-91655652D02*
X154134341Y-91655652D01*
G75*
G02*
X154234341Y-91755652I0J-100000D01*
G01*
X154234341Y-93205652D01*
G75*
G02*
X154134341Y-93305652I-100000J0D01*
G01*
X153934341Y-93305652D01*
G75*
G02*
X153834341Y-93205652I0J100000D01*
G01*
X153834341Y-91755652D01*
G75*
G02*
X153934341Y-91655652I100000J0D01*
G01*
G37*
G36*
G01*
X155234341Y-90355652D02*
X156684341Y-90355652D01*
G75*
G02*
X156784341Y-90455652I0J-100000D01*
G01*
X156784341Y-90655652D01*
G75*
G02*
X156684341Y-90755652I-100000J0D01*
G01*
X155234341Y-90755652D01*
G75*
G02*
X155134341Y-90655652I0J100000D01*
G01*
X155134341Y-90455652D01*
G75*
G02*
X155234341Y-90355652I100000J0D01*
G01*
G37*
G36*
G01*
X155234341Y-89855652D02*
X156684341Y-89855652D01*
G75*
G02*
X156784341Y-89955652I0J-100000D01*
G01*
X156784341Y-90155652D01*
G75*
G02*
X156684341Y-90255652I-100000J0D01*
G01*
X155234341Y-90255652D01*
G75*
G02*
X155134341Y-90155652I0J100000D01*
G01*
X155134341Y-89955652D01*
G75*
G02*
X155234341Y-89855652I100000J0D01*
G01*
G37*
G36*
G01*
X155234341Y-89355652D02*
X156684341Y-89355652D01*
G75*
G02*
X156784341Y-89455652I0J-100000D01*
G01*
X156784341Y-89655652D01*
G75*
G02*
X156684341Y-89755652I-100000J0D01*
G01*
X155234341Y-89755652D01*
G75*
G02*
X155134341Y-89655652I0J100000D01*
G01*
X155134341Y-89455652D01*
G75*
G02*
X155234341Y-89355652I100000J0D01*
G01*
G37*
G36*
G01*
X155234341Y-88855652D02*
X156684341Y-88855652D01*
G75*
G02*
X156784341Y-88955652I0J-100000D01*
G01*
X156784341Y-89155652D01*
G75*
G02*
X156684341Y-89255652I-100000J0D01*
G01*
X155234341Y-89255652D01*
G75*
G02*
X155134341Y-89155652I0J100000D01*
G01*
X155134341Y-88955652D01*
G75*
G02*
X155234341Y-88855652I100000J0D01*
G01*
G37*
G36*
G01*
X155234341Y-88355652D02*
X156684341Y-88355652D01*
G75*
G02*
X156784341Y-88455652I0J-100000D01*
G01*
X156784341Y-88655652D01*
G75*
G02*
X156684341Y-88755652I-100000J0D01*
G01*
X155234341Y-88755652D01*
G75*
G02*
X155134341Y-88655652I0J100000D01*
G01*
X155134341Y-88455652D01*
G75*
G02*
X155234341Y-88355652I100000J0D01*
G01*
G37*
G36*
G01*
X155234341Y-87855652D02*
X156684341Y-87855652D01*
G75*
G02*
X156784341Y-87955652I0J-100000D01*
G01*
X156784341Y-88155652D01*
G75*
G02*
X156684341Y-88255652I-100000J0D01*
G01*
X155234341Y-88255652D01*
G75*
G02*
X155134341Y-88155652I0J100000D01*
G01*
X155134341Y-87955652D01*
G75*
G02*
X155234341Y-87855652I100000J0D01*
G01*
G37*
G36*
G01*
X155234341Y-87355652D02*
X156684341Y-87355652D01*
G75*
G02*
X156784341Y-87455652I0J-100000D01*
G01*
X156784341Y-87655652D01*
G75*
G02*
X156684341Y-87755652I-100000J0D01*
G01*
X155234341Y-87755652D01*
G75*
G02*
X155134341Y-87655652I0J100000D01*
G01*
X155134341Y-87455652D01*
G75*
G02*
X155234341Y-87355652I100000J0D01*
G01*
G37*
G36*
G01*
X155234341Y-86855652D02*
X156684341Y-86855652D01*
G75*
G02*
X156784341Y-86955652I0J-100000D01*
G01*
X156784341Y-87155652D01*
G75*
G02*
X156684341Y-87255652I-100000J0D01*
G01*
X155234341Y-87255652D01*
G75*
G02*
X155134341Y-87155652I0J100000D01*
G01*
X155134341Y-86955652D01*
G75*
G02*
X155234341Y-86855652I100000J0D01*
G01*
G37*
G36*
G01*
X155234341Y-86355652D02*
X156684341Y-86355652D01*
G75*
G02*
X156784341Y-86455652I0J-100000D01*
G01*
X156784341Y-86655652D01*
G75*
G02*
X156684341Y-86755652I-100000J0D01*
G01*
X155234341Y-86755652D01*
G75*
G02*
X155134341Y-86655652I0J100000D01*
G01*
X155134341Y-86455652D01*
G75*
G02*
X155234341Y-86355652I100000J0D01*
G01*
G37*
G36*
G01*
X155234341Y-85855652D02*
X156684341Y-85855652D01*
G75*
G02*
X156784341Y-85955652I0J-100000D01*
G01*
X156784341Y-86155652D01*
G75*
G02*
X156684341Y-86255652I-100000J0D01*
G01*
X155234341Y-86255652D01*
G75*
G02*
X155134341Y-86155652I0J100000D01*
G01*
X155134341Y-85955652D01*
G75*
G02*
X155234341Y-85855652I100000J0D01*
G01*
G37*
G36*
G01*
X155234341Y-85355652D02*
X156684341Y-85355652D01*
G75*
G02*
X156784341Y-85455652I0J-100000D01*
G01*
X156784341Y-85655652D01*
G75*
G02*
X156684341Y-85755652I-100000J0D01*
G01*
X155234341Y-85755652D01*
G75*
G02*
X155134341Y-85655652I0J100000D01*
G01*
X155134341Y-85455652D01*
G75*
G02*
X155234341Y-85355652I100000J0D01*
G01*
G37*
G36*
G01*
X155234341Y-84855652D02*
X156684341Y-84855652D01*
G75*
G02*
X156784341Y-84955652I0J-100000D01*
G01*
X156784341Y-85155652D01*
G75*
G02*
X156684341Y-85255652I-100000J0D01*
G01*
X155234341Y-85255652D01*
G75*
G02*
X155134341Y-85155652I0J100000D01*
G01*
X155134341Y-84955652D01*
G75*
G02*
X155234341Y-84855652I100000J0D01*
G01*
G37*
G36*
G01*
X155234341Y-84355652D02*
X156684341Y-84355652D01*
G75*
G02*
X156784341Y-84455652I0J-100000D01*
G01*
X156784341Y-84655652D01*
G75*
G02*
X156684341Y-84755652I-100000J0D01*
G01*
X155234341Y-84755652D01*
G75*
G02*
X155134341Y-84655652I0J100000D01*
G01*
X155134341Y-84455652D01*
G75*
G02*
X155234341Y-84355652I100000J0D01*
G01*
G37*
G36*
G01*
X155234341Y-83855652D02*
X156684341Y-83855652D01*
G75*
G02*
X156784341Y-83955652I0J-100000D01*
G01*
X156784341Y-84155652D01*
G75*
G02*
X156684341Y-84255652I-100000J0D01*
G01*
X155234341Y-84255652D01*
G75*
G02*
X155134341Y-84155652I0J100000D01*
G01*
X155134341Y-83955652D01*
G75*
G02*
X155234341Y-83855652I100000J0D01*
G01*
G37*
G36*
G01*
X155234341Y-83355652D02*
X156684341Y-83355652D01*
G75*
G02*
X156784341Y-83455652I0J-100000D01*
G01*
X156784341Y-83655652D01*
G75*
G02*
X156684341Y-83755652I-100000J0D01*
G01*
X155234341Y-83755652D01*
G75*
G02*
X155134341Y-83655652I0J100000D01*
G01*
X155134341Y-83455652D01*
G75*
G02*
X155234341Y-83355652I100000J0D01*
G01*
G37*
G36*
G01*
X155234341Y-82855652D02*
X156684341Y-82855652D01*
G75*
G02*
X156784341Y-82955652I0J-100000D01*
G01*
X156784341Y-83155652D01*
G75*
G02*
X156684341Y-83255652I-100000J0D01*
G01*
X155234341Y-83255652D01*
G75*
G02*
X155134341Y-83155652I0J100000D01*
G01*
X155134341Y-82955652D01*
G75*
G02*
X155234341Y-82855652I100000J0D01*
G01*
G37*
%TD*%
D15*
%TO.C,U5*%
X135871040Y-91003880D03*
D16*
X132416640Y-93747080D03*
X132416640Y-93264480D03*
X132416640Y-92756480D03*
X132416640Y-92248480D03*
X132416640Y-91765880D03*
X132416640Y-91257880D03*
X132416640Y-90749880D03*
X132416640Y-90241880D03*
X132416640Y-89759280D03*
X132416640Y-89251280D03*
X132416640Y-88743280D03*
X132416640Y-88260680D03*
D17*
X133127840Y-87549480D03*
X133610440Y-87549480D03*
X134118440Y-87549480D03*
X134626440Y-87549480D03*
X135109040Y-87549480D03*
X135617040Y-87549480D03*
X136125040Y-87549480D03*
X136633040Y-87549480D03*
X137115640Y-87549480D03*
X137623640Y-87549480D03*
X138131640Y-87549480D03*
X138614240Y-87549480D03*
D16*
X139325440Y-88260680D03*
X139325440Y-88743280D03*
X139325440Y-89251280D03*
X139325440Y-89759280D03*
X139325440Y-90241880D03*
X139325440Y-90749880D03*
X139325440Y-91257880D03*
X139325440Y-91765880D03*
X139325440Y-92248480D03*
X139325440Y-92756480D03*
X139325440Y-93264480D03*
X139325440Y-93747080D03*
D17*
X138614240Y-94458280D03*
X138131640Y-94458280D03*
X137623640Y-94458280D03*
X137115640Y-94458280D03*
X136633040Y-94458280D03*
X136125040Y-94458280D03*
X135617040Y-94458280D03*
X135109040Y-94458280D03*
X134626440Y-94458280D03*
X134118440Y-94458280D03*
X133610440Y-94458280D03*
X133127840Y-94458280D03*
%TD*%
D18*
%TO.C,D2*%
X138847560Y-82209640D03*
X142147560Y-82209640D03*
%TD*%
%TO.C,D6*%
G36*
G01*
X156932890Y-78394720D02*
X156370390Y-78394720D01*
G75*
G02*
X156126640Y-78150970I0J243750D01*
G01*
X156126640Y-77663470D01*
G75*
G02*
X156370390Y-77419720I243750J0D01*
G01*
X156932890Y-77419720D01*
G75*
G02*
X157176640Y-77663470I0J-243750D01*
G01*
X157176640Y-78150970D01*
G75*
G02*
X156932890Y-78394720I-243750J0D01*
G01*
G37*
G36*
G01*
X156932890Y-76819720D02*
X156370390Y-76819720D01*
G75*
G02*
X156126640Y-76575970I0J243750D01*
G01*
X156126640Y-76088470D01*
G75*
G02*
X156370390Y-75844720I243750J0D01*
G01*
X156932890Y-75844720D01*
G75*
G02*
X157176640Y-76088470I0J-243750D01*
G01*
X157176640Y-76575970D01*
G75*
G02*
X156932890Y-76819720I-243750J0D01*
G01*
G37*
%TD*%
%TO.C,C20*%
G36*
G01*
X157516250Y-90165000D02*
X158078750Y-90165000D01*
G75*
G02*
X158322500Y-90408750I0J-243750D01*
G01*
X158322500Y-90896250D01*
G75*
G02*
X158078750Y-91140000I-243750J0D01*
G01*
X157516250Y-91140000D01*
G75*
G02*
X157272500Y-90896250I0J243750D01*
G01*
X157272500Y-90408750D01*
G75*
G02*
X157516250Y-90165000I243750J0D01*
G01*
G37*
G36*
G01*
X157516250Y-91740000D02*
X158078750Y-91740000D01*
G75*
G02*
X158322500Y-91983750I0J-243750D01*
G01*
X158322500Y-92471250D01*
G75*
G02*
X158078750Y-92715000I-243750J0D01*
G01*
X157516250Y-92715000D01*
G75*
G02*
X157272500Y-92471250I0J243750D01*
G01*
X157272500Y-91983750D01*
G75*
G02*
X157516250Y-91740000I243750J0D01*
G01*
G37*
%TD*%
%TO.C,C2*%
G36*
G01*
X130434700Y-84546880D02*
X130829700Y-84546880D01*
G75*
G02*
X131002200Y-84719380I0J-172500D01*
G01*
X131002200Y-85064380D01*
G75*
G02*
X130829700Y-85236880I-172500J0D01*
G01*
X130434700Y-85236880D01*
G75*
G02*
X130262200Y-85064380I0J172500D01*
G01*
X130262200Y-84719380D01*
G75*
G02*
X130434700Y-84546880I172500J0D01*
G01*
G37*
G36*
G01*
X130434700Y-85516880D02*
X130829700Y-85516880D01*
G75*
G02*
X131002200Y-85689380I0J-172500D01*
G01*
X131002200Y-86034380D01*
G75*
G02*
X130829700Y-86206880I-172500J0D01*
G01*
X130434700Y-86206880D01*
G75*
G02*
X130262200Y-86034380I0J172500D01*
G01*
X130262200Y-85689380D01*
G75*
G02*
X130434700Y-85516880I172500J0D01*
G01*
G37*
%TD*%
%TO.C,C1*%
G36*
G01*
X126555200Y-82342340D02*
X126555200Y-82737340D01*
G75*
G02*
X126382700Y-82909840I-172500J0D01*
G01*
X126037700Y-82909840D01*
G75*
G02*
X125865200Y-82737340I0J172500D01*
G01*
X125865200Y-82342340D01*
G75*
G02*
X126037700Y-82169840I172500J0D01*
G01*
X126382700Y-82169840D01*
G75*
G02*
X126555200Y-82342340I0J-172500D01*
G01*
G37*
G36*
G01*
X127525200Y-82342340D02*
X127525200Y-82737340D01*
G75*
G02*
X127352700Y-82909840I-172500J0D01*
G01*
X127007700Y-82909840D01*
G75*
G02*
X126835200Y-82737340I0J172500D01*
G01*
X126835200Y-82342340D01*
G75*
G02*
X127007700Y-82169840I172500J0D01*
G01*
X127352700Y-82169840D01*
G75*
G02*
X127525200Y-82342340I0J-172500D01*
G01*
G37*
%TD*%
%TO.C,R6*%
G36*
G01*
X142845140Y-84011080D02*
X143240140Y-84011080D01*
G75*
G02*
X143412640Y-84183580I0J-172500D01*
G01*
X143412640Y-84528580D01*
G75*
G02*
X143240140Y-84701080I-172500J0D01*
G01*
X142845140Y-84701080D01*
G75*
G02*
X142672640Y-84528580I0J172500D01*
G01*
X142672640Y-84183580D01*
G75*
G02*
X142845140Y-84011080I172500J0D01*
G01*
G37*
G36*
G01*
X142845140Y-84981080D02*
X143240140Y-84981080D01*
G75*
G02*
X143412640Y-85153580I0J-172500D01*
G01*
X143412640Y-85498580D01*
G75*
G02*
X143240140Y-85671080I-172500J0D01*
G01*
X142845140Y-85671080D01*
G75*
G02*
X142672640Y-85498580I0J172500D01*
G01*
X142672640Y-85153580D01*
G75*
G02*
X142845140Y-84981080I172500J0D01*
G01*
G37*
%TD*%
%TO.C,C12*%
G36*
G01*
X146264760Y-77534540D02*
X146264760Y-77139540D01*
G75*
G02*
X146437260Y-76967040I172500J0D01*
G01*
X146782260Y-76967040D01*
G75*
G02*
X146954760Y-77139540I0J-172500D01*
G01*
X146954760Y-77534540D01*
G75*
G02*
X146782260Y-77707040I-172500J0D01*
G01*
X146437260Y-77707040D01*
G75*
G02*
X146264760Y-77534540I0J172500D01*
G01*
G37*
G36*
G01*
X147234760Y-77534540D02*
X147234760Y-77139540D01*
G75*
G02*
X147407260Y-76967040I172500J0D01*
G01*
X147752260Y-76967040D01*
G75*
G02*
X147924760Y-77139540I0J-172500D01*
G01*
X147924760Y-77534540D01*
G75*
G02*
X147752260Y-77707040I-172500J0D01*
G01*
X147407260Y-77707040D01*
G75*
G02*
X147234760Y-77534540I0J172500D01*
G01*
G37*
%TD*%
D19*
%TO.C,U2*%
X145654140Y-122464880D03*
X156654140Y-122464880D03*
D20*
X148654140Y-112464880D03*
X153654140Y-112464880D03*
%TD*%
%TO.C,U1*%
X139303140Y-112464880D03*
X134303140Y-112464880D03*
D19*
X142303140Y-122464880D03*
X131303140Y-122464880D03*
%TD*%
%TO.C,R14*%
G36*
G01*
X132310840Y-96439340D02*
X132310840Y-96834340D01*
G75*
G02*
X132138340Y-97006840I-172500J0D01*
G01*
X131793340Y-97006840D01*
G75*
G02*
X131620840Y-96834340I0J172500D01*
G01*
X131620840Y-96439340D01*
G75*
G02*
X131793340Y-96266840I172500J0D01*
G01*
X132138340Y-96266840D01*
G75*
G02*
X132310840Y-96439340I0J-172500D01*
G01*
G37*
G36*
G01*
X133280840Y-96439340D02*
X133280840Y-96834340D01*
G75*
G02*
X133108340Y-97006840I-172500J0D01*
G01*
X132763340Y-97006840D01*
G75*
G02*
X132590840Y-96834340I0J172500D01*
G01*
X132590840Y-96439340D01*
G75*
G02*
X132763340Y-96266840I172500J0D01*
G01*
X133108340Y-96266840D01*
G75*
G02*
X133280840Y-96439340I0J-172500D01*
G01*
G37*
%TD*%
%TO.C,C3*%
G36*
G01*
X127800680Y-82747500D02*
X127800680Y-82352500D01*
G75*
G02*
X127973180Y-82180000I172500J0D01*
G01*
X128318180Y-82180000D01*
G75*
G02*
X128490680Y-82352500I0J-172500D01*
G01*
X128490680Y-82747500D01*
G75*
G02*
X128318180Y-82920000I-172500J0D01*
G01*
X127973180Y-82920000D01*
G75*
G02*
X127800680Y-82747500I0J172500D01*
G01*
G37*
G36*
G01*
X128770680Y-82747500D02*
X128770680Y-82352500D01*
G75*
G02*
X128943180Y-82180000I172500J0D01*
G01*
X129288180Y-82180000D01*
G75*
G02*
X129460680Y-82352500I0J-172500D01*
G01*
X129460680Y-82747500D01*
G75*
G02*
X129288180Y-82920000I-172500J0D01*
G01*
X128943180Y-82920000D01*
G75*
G02*
X128770680Y-82747500I0J172500D01*
G01*
G37*
%TD*%
%TO.C,C4*%
G36*
G01*
X128770680Y-81741660D02*
X128770680Y-81346660D01*
G75*
G02*
X128943180Y-81174160I172500J0D01*
G01*
X129288180Y-81174160D01*
G75*
G02*
X129460680Y-81346660I0J-172500D01*
G01*
X129460680Y-81741660D01*
G75*
G02*
X129288180Y-81914160I-172500J0D01*
G01*
X128943180Y-81914160D01*
G75*
G02*
X128770680Y-81741660I0J172500D01*
G01*
G37*
G36*
G01*
X127800680Y-81741660D02*
X127800680Y-81346660D01*
G75*
G02*
X127973180Y-81174160I172500J0D01*
G01*
X128318180Y-81174160D01*
G75*
G02*
X128490680Y-81346660I0J-172500D01*
G01*
X128490680Y-81741660D01*
G75*
G02*
X128318180Y-81914160I-172500J0D01*
G01*
X127973180Y-81914160D01*
G75*
G02*
X127800680Y-81741660I0J172500D01*
G01*
G37*
%TD*%
%TO.C,C5*%
G36*
G01*
X155992341Y-80636151D02*
X156387341Y-80636151D01*
G75*
G02*
X156559841Y-80808651I0J-172500D01*
G01*
X156559841Y-81153651D01*
G75*
G02*
X156387341Y-81326151I-172500J0D01*
G01*
X155992341Y-81326151D01*
G75*
G02*
X155819841Y-81153651I0J172500D01*
G01*
X155819841Y-80808651D01*
G75*
G02*
X155992341Y-80636151I172500J0D01*
G01*
G37*
G36*
G01*
X155992341Y-79666151D02*
X156387341Y-79666151D01*
G75*
G02*
X156559841Y-79838651I0J-172500D01*
G01*
X156559841Y-80183651D01*
G75*
G02*
X156387341Y-80356151I-172500J0D01*
G01*
X155992341Y-80356151D01*
G75*
G02*
X155819841Y-80183651I0J172500D01*
G01*
X155819841Y-79838651D01*
G75*
G02*
X155992341Y-79666151I172500J0D01*
G01*
G37*
%TD*%
%TO.C,C6*%
G36*
G01*
X157720841Y-83658151D02*
X157325841Y-83658151D01*
G75*
G02*
X157153341Y-83485651I0J172500D01*
G01*
X157153341Y-83140651D01*
G75*
G02*
X157325841Y-82968151I172500J0D01*
G01*
X157720841Y-82968151D01*
G75*
G02*
X157893341Y-83140651I0J-172500D01*
G01*
X157893341Y-83485651D01*
G75*
G02*
X157720841Y-83658151I-172500J0D01*
G01*
G37*
G36*
G01*
X157720841Y-82688151D02*
X157325841Y-82688151D01*
G75*
G02*
X157153341Y-82515651I0J172500D01*
G01*
X157153341Y-82170651D01*
G75*
G02*
X157325841Y-81998151I172500J0D01*
G01*
X157720841Y-81998151D01*
G75*
G02*
X157893341Y-82170651I0J-172500D01*
G01*
X157893341Y-82515651D01*
G75*
G02*
X157720841Y-82688151I-172500J0D01*
G01*
G37*
%TD*%
%TO.C,C7*%
G36*
G01*
X145059760Y-93787900D02*
X145059760Y-93392900D01*
G75*
G02*
X145232260Y-93220400I172500J0D01*
G01*
X145577260Y-93220400D01*
G75*
G02*
X145749760Y-93392900I0J-172500D01*
G01*
X145749760Y-93787900D01*
G75*
G02*
X145577260Y-93960400I-172500J0D01*
G01*
X145232260Y-93960400D01*
G75*
G02*
X145059760Y-93787900I0J172500D01*
G01*
G37*
G36*
G01*
X144089760Y-93787900D02*
X144089760Y-93392900D01*
G75*
G02*
X144262260Y-93220400I172500J0D01*
G01*
X144607260Y-93220400D01*
G75*
G02*
X144779760Y-93392900I0J-172500D01*
G01*
X144779760Y-93787900D01*
G75*
G02*
X144607260Y-93960400I-172500J0D01*
G01*
X144262260Y-93960400D01*
G75*
G02*
X144089760Y-93787900I0J172500D01*
G01*
G37*
%TD*%
%TO.C,C8*%
G36*
G01*
X144703341Y-92819652D02*
X144308341Y-92819652D01*
G75*
G02*
X144135841Y-92647152I0J172500D01*
G01*
X144135841Y-92302152D01*
G75*
G02*
X144308341Y-92129652I172500J0D01*
G01*
X144703341Y-92129652D01*
G75*
G02*
X144875841Y-92302152I0J-172500D01*
G01*
X144875841Y-92647152D01*
G75*
G02*
X144703341Y-92819652I-172500J0D01*
G01*
G37*
G36*
G01*
X144703341Y-91849652D02*
X144308341Y-91849652D01*
G75*
G02*
X144135841Y-91677152I0J172500D01*
G01*
X144135841Y-91332152D01*
G75*
G02*
X144308341Y-91159652I172500J0D01*
G01*
X144703341Y-91159652D01*
G75*
G02*
X144875841Y-91332152I0J-172500D01*
G01*
X144875841Y-91677152D01*
G75*
G02*
X144703341Y-91849652I-172500J0D01*
G01*
G37*
%TD*%
%TO.C,C9*%
G36*
G01*
X154912840Y-80618652D02*
X155307840Y-80618652D01*
G75*
G02*
X155480340Y-80791152I0J-172500D01*
G01*
X155480340Y-81136152D01*
G75*
G02*
X155307840Y-81308652I-172500J0D01*
G01*
X154912840Y-81308652D01*
G75*
G02*
X154740340Y-81136152I0J172500D01*
G01*
X154740340Y-80791152D01*
G75*
G02*
X154912840Y-80618652I172500J0D01*
G01*
G37*
G36*
G01*
X154912840Y-79648652D02*
X155307840Y-79648652D01*
G75*
G02*
X155480340Y-79821152I0J-172500D01*
G01*
X155480340Y-80166152D01*
G75*
G02*
X155307840Y-80338652I-172500J0D01*
G01*
X154912840Y-80338652D01*
G75*
G02*
X154740340Y-80166152I0J172500D01*
G01*
X154740340Y-79821152D01*
G75*
G02*
X154912840Y-79648652I172500J0D01*
G01*
G37*
%TD*%
%TO.C,C10*%
G36*
G01*
X156274760Y-92417900D02*
X156274760Y-92812900D01*
G75*
G02*
X156102260Y-92985400I-172500J0D01*
G01*
X155757260Y-92985400D01*
G75*
G02*
X155584760Y-92812900I0J172500D01*
G01*
X155584760Y-92417900D01*
G75*
G02*
X155757260Y-92245400I172500J0D01*
G01*
X156102260Y-92245400D01*
G75*
G02*
X156274760Y-92417900I0J-172500D01*
G01*
G37*
G36*
G01*
X155304760Y-92417900D02*
X155304760Y-92812900D01*
G75*
G02*
X155132260Y-92985400I-172500J0D01*
G01*
X154787260Y-92985400D01*
G75*
G02*
X154614760Y-92812900I0J172500D01*
G01*
X154614760Y-92417900D01*
G75*
G02*
X154787260Y-92245400I172500J0D01*
G01*
X155132260Y-92245400D01*
G75*
G02*
X155304760Y-92417900I0J-172500D01*
G01*
G37*
%TD*%
%TO.C,C13*%
G36*
G01*
X145299760Y-77534540D02*
X145299760Y-77139540D01*
G75*
G02*
X145472260Y-76967040I172500J0D01*
G01*
X145817260Y-76967040D01*
G75*
G02*
X145989760Y-77139540I0J-172500D01*
G01*
X145989760Y-77534540D01*
G75*
G02*
X145817260Y-77707040I-172500J0D01*
G01*
X145472260Y-77707040D01*
G75*
G02*
X145299760Y-77534540I0J172500D01*
G01*
G37*
G36*
G01*
X144329760Y-77534540D02*
X144329760Y-77139540D01*
G75*
G02*
X144502260Y-76967040I172500J0D01*
G01*
X144847260Y-76967040D01*
G75*
G02*
X145019760Y-77139540I0J-172500D01*
G01*
X145019760Y-77534540D01*
G75*
G02*
X144847260Y-77707040I-172500J0D01*
G01*
X144502260Y-77707040D01*
G75*
G02*
X144329760Y-77534540I0J172500D01*
G01*
G37*
%TD*%
%TO.C,C15*%
G36*
G01*
X131479940Y-94616960D02*
X131084940Y-94616960D01*
G75*
G02*
X130912440Y-94444460I0J172500D01*
G01*
X130912440Y-94099460D01*
G75*
G02*
X131084940Y-93926960I172500J0D01*
G01*
X131479940Y-93926960D01*
G75*
G02*
X131652440Y-94099460I0J-172500D01*
G01*
X131652440Y-94444460D01*
G75*
G02*
X131479940Y-94616960I-172500J0D01*
G01*
G37*
G36*
G01*
X131479940Y-93646960D02*
X131084940Y-93646960D01*
G75*
G02*
X130912440Y-93474460I0J172500D01*
G01*
X130912440Y-93129460D01*
G75*
G02*
X131084940Y-92956960I172500J0D01*
G01*
X131479940Y-92956960D01*
G75*
G02*
X131652440Y-93129460I0J-172500D01*
G01*
X131652440Y-93474460D01*
G75*
G02*
X131479940Y-93646960I-172500J0D01*
G01*
G37*
%TD*%
%TO.C,C16*%
G36*
G01*
X134177420Y-96908040D02*
X133782420Y-96908040D01*
G75*
G02*
X133609920Y-96735540I0J172500D01*
G01*
X133609920Y-96390540D01*
G75*
G02*
X133782420Y-96218040I172500J0D01*
G01*
X134177420Y-96218040D01*
G75*
G02*
X134349920Y-96390540I0J-172500D01*
G01*
X134349920Y-96735540D01*
G75*
G02*
X134177420Y-96908040I-172500J0D01*
G01*
G37*
G36*
G01*
X134177420Y-95938040D02*
X133782420Y-95938040D01*
G75*
G02*
X133609920Y-95765540I0J172500D01*
G01*
X133609920Y-95420540D01*
G75*
G02*
X133782420Y-95248040I172500J0D01*
G01*
X134177420Y-95248040D01*
G75*
G02*
X134349920Y-95420540I0J-172500D01*
G01*
X134349920Y-95765540D01*
G75*
G02*
X134177420Y-95938040I-172500J0D01*
G01*
G37*
%TD*%
%TO.C,C17*%
G36*
G01*
X133763440Y-86213300D02*
X133763440Y-86608300D01*
G75*
G02*
X133590940Y-86780800I-172500J0D01*
G01*
X133245940Y-86780800D01*
G75*
G02*
X133073440Y-86608300I0J172500D01*
G01*
X133073440Y-86213300D01*
G75*
G02*
X133245940Y-86040800I172500J0D01*
G01*
X133590940Y-86040800D01*
G75*
G02*
X133763440Y-86213300I0J-172500D01*
G01*
G37*
G36*
G01*
X132793440Y-86213300D02*
X132793440Y-86608300D01*
G75*
G02*
X132620940Y-86780800I-172500J0D01*
G01*
X132275940Y-86780800D01*
G75*
G02*
X132103440Y-86608300I0J172500D01*
G01*
X132103440Y-86213300D01*
G75*
G02*
X132275940Y-86040800I172500J0D01*
G01*
X132620940Y-86040800D01*
G75*
G02*
X132793440Y-86213300I0J-172500D01*
G01*
G37*
%TD*%
%TO.C,C18*%
G36*
G01*
X131084940Y-91996560D02*
X131479940Y-91996560D01*
G75*
G02*
X131652440Y-92169060I0J-172500D01*
G01*
X131652440Y-92514060D01*
G75*
G02*
X131479940Y-92686560I-172500J0D01*
G01*
X131084940Y-92686560D01*
G75*
G02*
X130912440Y-92514060I0J172500D01*
G01*
X130912440Y-92169060D01*
G75*
G02*
X131084940Y-91996560I172500J0D01*
G01*
G37*
G36*
G01*
X131084940Y-91026560D02*
X131479940Y-91026560D01*
G75*
G02*
X131652440Y-91199060I0J-172500D01*
G01*
X131652440Y-91544060D01*
G75*
G02*
X131479940Y-91716560I-172500J0D01*
G01*
X131084940Y-91716560D01*
G75*
G02*
X130912440Y-91544060I0J172500D01*
G01*
X130912440Y-91199060D01*
G75*
G02*
X131084940Y-91026560I172500J0D01*
G01*
G37*
%TD*%
%TO.C,C19*%
G36*
G01*
X143069890Y-88366320D02*
X142507390Y-88366320D01*
G75*
G02*
X142263640Y-88122570I0J243750D01*
G01*
X142263640Y-87635070D01*
G75*
G02*
X142507390Y-87391320I243750J0D01*
G01*
X143069890Y-87391320D01*
G75*
G02*
X143313640Y-87635070I0J-243750D01*
G01*
X143313640Y-88122570D01*
G75*
G02*
X143069890Y-88366320I-243750J0D01*
G01*
G37*
G36*
G01*
X143069890Y-89941320D02*
X142507390Y-89941320D01*
G75*
G02*
X142263640Y-89697570I0J243750D01*
G01*
X142263640Y-89210070D01*
G75*
G02*
X142507390Y-88966320I243750J0D01*
G01*
X143069890Y-88966320D01*
G75*
G02*
X143313640Y-89210070I0J-243750D01*
G01*
X143313640Y-89697570D01*
G75*
G02*
X143069890Y-89941320I-243750J0D01*
G01*
G37*
%TD*%
%TO.C,C21*%
G36*
G01*
X135570580Y-96210280D02*
X135965580Y-96210280D01*
G75*
G02*
X136138080Y-96382780I0J-172500D01*
G01*
X136138080Y-96727780D01*
G75*
G02*
X135965580Y-96900280I-172500J0D01*
G01*
X135570580Y-96900280D01*
G75*
G02*
X135398080Y-96727780I0J172500D01*
G01*
X135398080Y-96382780D01*
G75*
G02*
X135570580Y-96210280I172500J0D01*
G01*
G37*
G36*
G01*
X135570580Y-95240280D02*
X135965580Y-95240280D01*
G75*
G02*
X136138080Y-95412780I0J-172500D01*
G01*
X136138080Y-95757780D01*
G75*
G02*
X135965580Y-95930280I-172500J0D01*
G01*
X135570580Y-95930280D01*
G75*
G02*
X135398080Y-95757780I0J172500D01*
G01*
X135398080Y-95412780D01*
G75*
G02*
X135570580Y-95240280I172500J0D01*
G01*
G37*
%TD*%
%TO.C,C22*%
G36*
G01*
X128974160Y-91256500D02*
X128974160Y-90861500D01*
G75*
G02*
X129146660Y-90689000I172500J0D01*
G01*
X129491660Y-90689000D01*
G75*
G02*
X129664160Y-90861500I0J-172500D01*
G01*
X129664160Y-91256500D01*
G75*
G02*
X129491660Y-91429000I-172500J0D01*
G01*
X129146660Y-91429000D01*
G75*
G02*
X128974160Y-91256500I0J172500D01*
G01*
G37*
G36*
G01*
X129944160Y-91256500D02*
X129944160Y-90861500D01*
G75*
G02*
X130116660Y-90689000I172500J0D01*
G01*
X130461660Y-90689000D01*
G75*
G02*
X130634160Y-90861500I0J-172500D01*
G01*
X130634160Y-91256500D01*
G75*
G02*
X130461660Y-91429000I-172500J0D01*
G01*
X130116660Y-91429000D01*
G75*
G02*
X129944160Y-91256500I0J172500D01*
G01*
G37*
%TD*%
%TO.C,C25*%
G36*
G01*
X154141820Y-78630200D02*
X153746820Y-78630200D01*
G75*
G02*
X153574320Y-78457700I0J172500D01*
G01*
X153574320Y-78112700D01*
G75*
G02*
X153746820Y-77940200I172500J0D01*
G01*
X154141820Y-77940200D01*
G75*
G02*
X154314320Y-78112700I0J-172500D01*
G01*
X154314320Y-78457700D01*
G75*
G02*
X154141820Y-78630200I-172500J0D01*
G01*
G37*
G36*
G01*
X154141820Y-77660200D02*
X153746820Y-77660200D01*
G75*
G02*
X153574320Y-77487700I0J172500D01*
G01*
X153574320Y-77142700D01*
G75*
G02*
X153746820Y-76970200I172500J0D01*
G01*
X154141820Y-76970200D01*
G75*
G02*
X154314320Y-77142700I0J-172500D01*
G01*
X154314320Y-77487700D01*
G75*
G02*
X154141820Y-77660200I-172500J0D01*
G01*
G37*
%TD*%
%TO.C,C26*%
G36*
G01*
X148453621Y-77138852D02*
X148848621Y-77138852D01*
G75*
G02*
X149021121Y-77311352I0J-172500D01*
G01*
X149021121Y-77656352D01*
G75*
G02*
X148848621Y-77828852I-172500J0D01*
G01*
X148453621Y-77828852D01*
G75*
G02*
X148281121Y-77656352I0J172500D01*
G01*
X148281121Y-77311352D01*
G75*
G02*
X148453621Y-77138852I172500J0D01*
G01*
G37*
G36*
G01*
X148453621Y-76168852D02*
X148848621Y-76168852D01*
G75*
G02*
X149021121Y-76341352I0J-172500D01*
G01*
X149021121Y-76686352D01*
G75*
G02*
X148848621Y-76858852I-172500J0D01*
G01*
X148453621Y-76858852D01*
G75*
G02*
X148281121Y-76686352I0J172500D01*
G01*
X148281121Y-76341352D01*
G75*
G02*
X148453621Y-76168852I172500J0D01*
G01*
G37*
%TD*%
%TO.C,C27*%
G36*
G01*
X138364400Y-85409420D02*
X138364400Y-85014420D01*
G75*
G02*
X138536900Y-84841920I172500J0D01*
G01*
X138881900Y-84841920D01*
G75*
G02*
X139054400Y-85014420I0J-172500D01*
G01*
X139054400Y-85409420D01*
G75*
G02*
X138881900Y-85581920I-172500J0D01*
G01*
X138536900Y-85581920D01*
G75*
G02*
X138364400Y-85409420I0J172500D01*
G01*
G37*
G36*
G01*
X139334400Y-85409420D02*
X139334400Y-85014420D01*
G75*
G02*
X139506900Y-84841920I172500J0D01*
G01*
X139851900Y-84841920D01*
G75*
G02*
X140024400Y-85014420I0J-172500D01*
G01*
X140024400Y-85409420D01*
G75*
G02*
X139851900Y-85581920I-172500J0D01*
G01*
X139506900Y-85581920D01*
G75*
G02*
X139334400Y-85409420I0J172500D01*
G01*
G37*
%TD*%
D21*
%TO.C,D1*%
X127650240Y-94009480D03*
X127650240Y-90709480D03*
%TD*%
%TO.C,D3*%
X125267720Y-90211640D03*
X125267720Y-93511640D03*
%TD*%
D18*
%TO.C,D4*%
X130671840Y-96022160D03*
X127371840Y-96022160D03*
%TD*%
%TO.C,D7*%
G36*
G01*
X158632890Y-76819720D02*
X158070390Y-76819720D01*
G75*
G02*
X157826640Y-76575970I0J243750D01*
G01*
X157826640Y-76088470D01*
G75*
G02*
X158070390Y-75844720I243750J0D01*
G01*
X158632890Y-75844720D01*
G75*
G02*
X158876640Y-76088470I0J-243750D01*
G01*
X158876640Y-76575970D01*
G75*
G02*
X158632890Y-76819720I-243750J0D01*
G01*
G37*
G36*
G01*
X158632890Y-78394720D02*
X158070390Y-78394720D01*
G75*
G02*
X157826640Y-78150970I0J243750D01*
G01*
X157826640Y-77663470D01*
G75*
G02*
X158070390Y-77419720I243750J0D01*
G01*
X158632890Y-77419720D01*
G75*
G02*
X158876640Y-77663470I0J-243750D01*
G01*
X158876640Y-78150970D01*
G75*
G02*
X158632890Y-78394720I-243750J0D01*
G01*
G37*
%TD*%
%TO.C,F1*%
G36*
G01*
X134320200Y-81496590D02*
X134320200Y-82059090D01*
G75*
G02*
X134076450Y-82302840I-243750J0D01*
G01*
X133588950Y-82302840D01*
G75*
G02*
X133345200Y-82059090I0J243750D01*
G01*
X133345200Y-81496590D01*
G75*
G02*
X133588950Y-81252840I243750J0D01*
G01*
X134076450Y-81252840D01*
G75*
G02*
X134320200Y-81496590I0J-243750D01*
G01*
G37*
G36*
G01*
X132745200Y-81496590D02*
X132745200Y-82059090D01*
G75*
G02*
X132501450Y-82302840I-243750J0D01*
G01*
X132013950Y-82302840D01*
G75*
G02*
X131770200Y-82059090I0J243750D01*
G01*
X131770200Y-81496590D01*
G75*
G02*
X132013950Y-81252840I243750J0D01*
G01*
X132501450Y-81252840D01*
G75*
G02*
X132745200Y-81496590I0J-243750D01*
G01*
G37*
%TD*%
%TO.C,FB1*%
G36*
G01*
X133236920Y-84001530D02*
X133236920Y-83039030D01*
G75*
G02*
X133505670Y-82770280I268750J0D01*
G01*
X134043170Y-82770280D01*
G75*
G02*
X134311920Y-83039030I0J-268750D01*
G01*
X134311920Y-84001530D01*
G75*
G02*
X134043170Y-84270280I-268750J0D01*
G01*
X133505670Y-84270280D01*
G75*
G02*
X133236920Y-84001530I0J268750D01*
G01*
G37*
G36*
G01*
X131361920Y-84001530D02*
X131361920Y-83039030D01*
G75*
G02*
X131630670Y-82770280I268750J0D01*
G01*
X132168170Y-82770280D01*
G75*
G02*
X132436920Y-83039030I0J-268750D01*
G01*
X132436920Y-84001530D01*
G75*
G02*
X132168170Y-84270280I-268750J0D01*
G01*
X131630670Y-84270280D01*
G75*
G02*
X131361920Y-84001530I0J268750D01*
G01*
G37*
%TD*%
%TO.C,FB2*%
G36*
G01*
X147769760Y-78355790D02*
X147769760Y-79318290D01*
G75*
G02*
X147501010Y-79587040I-268750J0D01*
G01*
X146963510Y-79587040D01*
G75*
G02*
X146694760Y-79318290I0J268750D01*
G01*
X146694760Y-78355790D01*
G75*
G02*
X146963510Y-78087040I268750J0D01*
G01*
X147501010Y-78087040D01*
G75*
G02*
X147769760Y-78355790I0J-268750D01*
G01*
G37*
G36*
G01*
X145894760Y-78355790D02*
X145894760Y-79318290D01*
G75*
G02*
X145626010Y-79587040I-268750J0D01*
G01*
X145088510Y-79587040D01*
G75*
G02*
X144819760Y-79318290I0J268750D01*
G01*
X144819760Y-78355790D01*
G75*
G02*
X145088510Y-78087040I268750J0D01*
G01*
X145626010Y-78087040D01*
G75*
G02*
X145894760Y-78355790I0J-268750D01*
G01*
G37*
%TD*%
%TO.C,L1*%
G36*
G01*
X130639130Y-82244920D02*
X130076630Y-82244920D01*
G75*
G02*
X129832880Y-82001170I0J243750D01*
G01*
X129832880Y-81513670D01*
G75*
G02*
X130076630Y-81269920I243750J0D01*
G01*
X130639130Y-81269920D01*
G75*
G02*
X130882880Y-81513670I0J-243750D01*
G01*
X130882880Y-82001170D01*
G75*
G02*
X130639130Y-82244920I-243750J0D01*
G01*
G37*
G36*
G01*
X130639130Y-83819920D02*
X130076630Y-83819920D01*
G75*
G02*
X129832880Y-83576170I0J243750D01*
G01*
X129832880Y-83088670D01*
G75*
G02*
X130076630Y-82844920I243750J0D01*
G01*
X130639130Y-82844920D01*
G75*
G02*
X130882880Y-83088670I0J-243750D01*
G01*
X130882880Y-83576170D01*
G75*
G02*
X130639130Y-83819920I-243750J0D01*
G01*
G37*
%TD*%
%TO.C,L2*%
G36*
G01*
X130029530Y-94426960D02*
X129467030Y-94426960D01*
G75*
G02*
X129223280Y-94183210I0J243750D01*
G01*
X129223280Y-93695710D01*
G75*
G02*
X129467030Y-93451960I243750J0D01*
G01*
X130029530Y-93451960D01*
G75*
G02*
X130273280Y-93695710I0J-243750D01*
G01*
X130273280Y-94183210D01*
G75*
G02*
X130029530Y-94426960I-243750J0D01*
G01*
G37*
G36*
G01*
X130029530Y-92851960D02*
X129467030Y-92851960D01*
G75*
G02*
X129223280Y-92608210I0J243750D01*
G01*
X129223280Y-92120710D01*
G75*
G02*
X129467030Y-91876960I243750J0D01*
G01*
X130029530Y-91876960D01*
G75*
G02*
X130273280Y-92120710I0J-243750D01*
G01*
X130273280Y-92608210D01*
G75*
G02*
X130029530Y-92851960I-243750J0D01*
G01*
G37*
%TD*%
D22*
%TO.C,Q1*%
X135376880Y-83748120D03*
X137276880Y-83748120D03*
X136326880Y-81748120D03*
%TD*%
%TO.C,R1*%
G36*
G01*
X124572380Y-84011080D02*
X124967380Y-84011080D01*
G75*
G02*
X125139880Y-84183580I0J-172500D01*
G01*
X125139880Y-84528580D01*
G75*
G02*
X124967380Y-84701080I-172500J0D01*
G01*
X124572380Y-84701080D01*
G75*
G02*
X124399880Y-84528580I0J172500D01*
G01*
X124399880Y-84183580D01*
G75*
G02*
X124572380Y-84011080I172500J0D01*
G01*
G37*
G36*
G01*
X124572380Y-84981080D02*
X124967380Y-84981080D01*
G75*
G02*
X125139880Y-85153580I0J-172500D01*
G01*
X125139880Y-85498580D01*
G75*
G02*
X124967380Y-85671080I-172500J0D01*
G01*
X124572380Y-85671080D01*
G75*
G02*
X124399880Y-85498580I0J172500D01*
G01*
X124399880Y-85153580D01*
G75*
G02*
X124572380Y-84981080I172500J0D01*
G01*
G37*
%TD*%
%TO.C,R2*%
G36*
G01*
X129433940Y-84549560D02*
X129828940Y-84549560D01*
G75*
G02*
X130001440Y-84722060I0J-172500D01*
G01*
X130001440Y-85067060D01*
G75*
G02*
X129828940Y-85239560I-172500J0D01*
G01*
X129433940Y-85239560D01*
G75*
G02*
X129261440Y-85067060I0J172500D01*
G01*
X129261440Y-84722060D01*
G75*
G02*
X129433940Y-84549560I172500J0D01*
G01*
G37*
G36*
G01*
X129433940Y-85519560D02*
X129828940Y-85519560D01*
G75*
G02*
X130001440Y-85692060I0J-172500D01*
G01*
X130001440Y-86037060D01*
G75*
G02*
X129828940Y-86209560I-172500J0D01*
G01*
X129433940Y-86209560D01*
G75*
G02*
X129261440Y-86037060I0J172500D01*
G01*
X129261440Y-85692060D01*
G75*
G02*
X129433940Y-85519560I172500J0D01*
G01*
G37*
%TD*%
%TO.C,R3*%
G36*
G01*
X127065600Y-87015940D02*
X127065600Y-87410940D01*
G75*
G02*
X126893100Y-87583440I-172500J0D01*
G01*
X126548100Y-87583440D01*
G75*
G02*
X126375600Y-87410940I0J172500D01*
G01*
X126375600Y-87015940D01*
G75*
G02*
X126548100Y-86843440I172500J0D01*
G01*
X126893100Y-86843440D01*
G75*
G02*
X127065600Y-87015940I0J-172500D01*
G01*
G37*
G36*
G01*
X126095600Y-87015940D02*
X126095600Y-87410940D01*
G75*
G02*
X125923100Y-87583440I-172500J0D01*
G01*
X125578100Y-87583440D01*
G75*
G02*
X125405600Y-87410940I0J172500D01*
G01*
X125405600Y-87015940D01*
G75*
G02*
X125578100Y-86843440I172500J0D01*
G01*
X125923100Y-86843440D01*
G75*
G02*
X126095600Y-87015940I0J-172500D01*
G01*
G37*
%TD*%
%TO.C,R4*%
G36*
G01*
X128036160Y-87015940D02*
X128036160Y-87410940D01*
G75*
G02*
X127863660Y-87583440I-172500J0D01*
G01*
X127518660Y-87583440D01*
G75*
G02*
X127346160Y-87410940I0J172500D01*
G01*
X127346160Y-87015940D01*
G75*
G02*
X127518660Y-86843440I172500J0D01*
G01*
X127863660Y-86843440D01*
G75*
G02*
X128036160Y-87015940I0J-172500D01*
G01*
G37*
G36*
G01*
X129006160Y-87015940D02*
X129006160Y-87410940D01*
G75*
G02*
X128833660Y-87583440I-172500J0D01*
G01*
X128488660Y-87583440D01*
G75*
G02*
X128316160Y-87410940I0J172500D01*
G01*
X128316160Y-87015940D01*
G75*
G02*
X128488660Y-86843440I172500J0D01*
G01*
X128833660Y-86843440D01*
G75*
G02*
X129006160Y-87015940I0J-172500D01*
G01*
G37*
%TD*%
%TO.C,R5*%
G36*
G01*
X124967380Y-87588640D02*
X124572380Y-87588640D01*
G75*
G02*
X124399880Y-87416140I0J172500D01*
G01*
X124399880Y-87071140D01*
G75*
G02*
X124572380Y-86898640I172500J0D01*
G01*
X124967380Y-86898640D01*
G75*
G02*
X125139880Y-87071140I0J-172500D01*
G01*
X125139880Y-87416140D01*
G75*
G02*
X124967380Y-87588640I-172500J0D01*
G01*
G37*
G36*
G01*
X124967380Y-86618640D02*
X124572380Y-86618640D01*
G75*
G02*
X124399880Y-86446140I0J172500D01*
G01*
X124399880Y-86101140D01*
G75*
G02*
X124572380Y-85928640I172500J0D01*
G01*
X124967380Y-85928640D01*
G75*
G02*
X125139880Y-86101140I0J-172500D01*
G01*
X125139880Y-86446140D01*
G75*
G02*
X124967380Y-86618640I-172500J0D01*
G01*
G37*
%TD*%
%TO.C,R7*%
G36*
G01*
X137526380Y-85809120D02*
X137921380Y-85809120D01*
G75*
G02*
X138093880Y-85981620I0J-172500D01*
G01*
X138093880Y-86326620D01*
G75*
G02*
X137921380Y-86499120I-172500J0D01*
G01*
X137526380Y-86499120D01*
G75*
G02*
X137353880Y-86326620I0J172500D01*
G01*
X137353880Y-85981620D01*
G75*
G02*
X137526380Y-85809120I172500J0D01*
G01*
G37*
G36*
G01*
X137526380Y-84839120D02*
X137921380Y-84839120D01*
G75*
G02*
X138093880Y-85011620I0J-172500D01*
G01*
X138093880Y-85356620D01*
G75*
G02*
X137921380Y-85529120I-172500J0D01*
G01*
X137526380Y-85529120D01*
G75*
G02*
X137353880Y-85356620I0J172500D01*
G01*
X137353880Y-85011620D01*
G75*
G02*
X137526380Y-84839120I172500J0D01*
G01*
G37*
%TD*%
%TO.C,R12*%
G36*
G01*
X148848621Y-79837851D02*
X148453621Y-79837851D01*
G75*
G02*
X148281121Y-79665351I0J172500D01*
G01*
X148281121Y-79320351D01*
G75*
G02*
X148453621Y-79147851I172500J0D01*
G01*
X148848621Y-79147851D01*
G75*
G02*
X149021121Y-79320351I0J-172500D01*
G01*
X149021121Y-79665351D01*
G75*
G02*
X148848621Y-79837851I-172500J0D01*
G01*
G37*
G36*
G01*
X148848621Y-78867851D02*
X148453621Y-78867851D01*
G75*
G02*
X148281121Y-78695351I0J172500D01*
G01*
X148281121Y-78350351D01*
G75*
G02*
X148453621Y-78177851I172500J0D01*
G01*
X148848621Y-78177851D01*
G75*
G02*
X149021121Y-78350351I0J-172500D01*
G01*
X149021121Y-78695351D01*
G75*
G02*
X148848621Y-78867851I-172500J0D01*
G01*
G37*
%TD*%
%TO.C,R13*%
G36*
G01*
X132590840Y-95813260D02*
X132590840Y-95418260D01*
G75*
G02*
X132763340Y-95245760I172500J0D01*
G01*
X133108340Y-95245760D01*
G75*
G02*
X133280840Y-95418260I0J-172500D01*
G01*
X133280840Y-95813260D01*
G75*
G02*
X133108340Y-95985760I-172500J0D01*
G01*
X132763340Y-95985760D01*
G75*
G02*
X132590840Y-95813260I0J172500D01*
G01*
G37*
G36*
G01*
X131620840Y-95813260D02*
X131620840Y-95418260D01*
G75*
G02*
X131793340Y-95245760I172500J0D01*
G01*
X132138340Y-95245760D01*
G75*
G02*
X132310840Y-95418260I0J-172500D01*
G01*
X132310840Y-95813260D01*
G75*
G02*
X132138340Y-95985760I-172500J0D01*
G01*
X131793340Y-95985760D01*
G75*
G02*
X131620840Y-95813260I0J172500D01*
G01*
G37*
%TD*%
%TO.C,R15*%
G36*
G01*
X158823080Y-84120340D02*
X158823080Y-84515340D01*
G75*
G02*
X158650580Y-84687840I-172500J0D01*
G01*
X158305580Y-84687840D01*
G75*
G02*
X158133080Y-84515340I0J172500D01*
G01*
X158133080Y-84120340D01*
G75*
G02*
X158305580Y-83947840I172500J0D01*
G01*
X158650580Y-83947840D01*
G75*
G02*
X158823080Y-84120340I0J-172500D01*
G01*
G37*
G36*
G01*
X157853080Y-84120340D02*
X157853080Y-84515340D01*
G75*
G02*
X157680580Y-84687840I-172500J0D01*
G01*
X157335580Y-84687840D01*
G75*
G02*
X157163080Y-84515340I0J172500D01*
G01*
X157163080Y-84120340D01*
G75*
G02*
X157335580Y-83947840I172500J0D01*
G01*
X157680580Y-83947840D01*
G75*
G02*
X157853080Y-84120340I0J-172500D01*
G01*
G37*
%TD*%
%TO.C,R17*%
G36*
G01*
X157652100Y-80433600D02*
X157257100Y-80433600D01*
G75*
G02*
X157084600Y-80261100I0J172500D01*
G01*
X157084600Y-79916100D01*
G75*
G02*
X157257100Y-79743600I172500J0D01*
G01*
X157652100Y-79743600D01*
G75*
G02*
X157824600Y-79916100I0J-172500D01*
G01*
X157824600Y-80261100D01*
G75*
G02*
X157652100Y-80433600I-172500J0D01*
G01*
G37*
G36*
G01*
X157652100Y-79463600D02*
X157257100Y-79463600D01*
G75*
G02*
X157084600Y-79291100I0J172500D01*
G01*
X157084600Y-78946100D01*
G75*
G02*
X157257100Y-78773600I172500J0D01*
G01*
X157652100Y-78773600D01*
G75*
G02*
X157824600Y-78946100I0J-172500D01*
G01*
X157824600Y-79291100D01*
G75*
G02*
X157652100Y-79463600I-172500J0D01*
G01*
G37*
%TD*%
%TO.C,R18*%
G36*
G01*
X158673180Y-79463600D02*
X158278180Y-79463600D01*
G75*
G02*
X158105680Y-79291100I0J172500D01*
G01*
X158105680Y-78946100D01*
G75*
G02*
X158278180Y-78773600I172500J0D01*
G01*
X158673180Y-78773600D01*
G75*
G02*
X158845680Y-78946100I0J-172500D01*
G01*
X158845680Y-79291100D01*
G75*
G02*
X158673180Y-79463600I-172500J0D01*
G01*
G37*
G36*
G01*
X158673180Y-80433600D02*
X158278180Y-80433600D01*
G75*
G02*
X158105680Y-80261100I0J172500D01*
G01*
X158105680Y-79916100D01*
G75*
G02*
X158278180Y-79743600I172500J0D01*
G01*
X158673180Y-79743600D01*
G75*
G02*
X158845680Y-79916100I0J-172500D01*
G01*
X158845680Y-80261100D01*
G75*
G02*
X158673180Y-80433600I-172500J0D01*
G01*
G37*
%TD*%
D23*
%TO.C,U3*%
X128303200Y-84876640D03*
X128303200Y-83926640D03*
X128303200Y-85826640D03*
X126103200Y-85826640D03*
X126103200Y-84876640D03*
X126103200Y-83926640D03*
%TD*%
D24*
%TO.C,U6*%
X158522800Y-94461900D03*
X158522800Y-94961900D03*
X158522800Y-95461900D03*
X158522800Y-95961900D03*
X155522800Y-95961900D03*
X155522800Y-95461900D03*
X155522800Y-94961900D03*
X155522800Y-94461900D03*
D25*
X157022800Y-95211900D03*
%TD*%
D26*
%TO.C,U8*%
X127243840Y-107704180D03*
X128513840Y-107704180D03*
X129783840Y-107704180D03*
X131053840Y-107704180D03*
D27*
X129148840Y-104564180D03*
D28*
X131053840Y-102224180D03*
X129783840Y-102224180D03*
X128513840Y-102224180D03*
X127243840Y-102224180D03*
%TD*%
D26*
%TO.C,U9*%
X144896840Y-107697080D03*
X146166840Y-107697080D03*
X147436840Y-107697080D03*
X148706840Y-107697080D03*
D27*
X146801840Y-104557080D03*
D28*
X148706840Y-102217080D03*
X147436840Y-102217080D03*
X146166840Y-102217080D03*
X144896840Y-102217080D03*
%TD*%
%TO.C,U10*%
X150599140Y-102160680D03*
X151869140Y-102160680D03*
X153139140Y-102160680D03*
X154409140Y-102160680D03*
D27*
X152504140Y-104500680D03*
D26*
X154409140Y-107640680D03*
X153139140Y-107640680D03*
X151869140Y-107640680D03*
X150599140Y-107640680D03*
%TD*%
D28*
%TO.C,U11*%
X136895840Y-107597080D03*
X135625840Y-107597080D03*
X134355840Y-107597080D03*
X133085840Y-107597080D03*
D27*
X134990840Y-105257080D03*
D26*
X133085840Y-102117080D03*
X134355840Y-102117080D03*
X135625840Y-102117080D03*
X136895840Y-102117080D03*
%TD*%
D28*
%TO.C,U12*%
X142991840Y-107602680D03*
X141721840Y-107602680D03*
X140451840Y-107602680D03*
X139181840Y-107602680D03*
D27*
X141086840Y-105262680D03*
D26*
X139181840Y-102122680D03*
X140451840Y-102122680D03*
X141721840Y-102122680D03*
X142991840Y-102122680D03*
%TD*%
%TO.C,U13*%
X160213040Y-102071880D03*
X158943040Y-102071880D03*
X157673040Y-102071880D03*
X156403040Y-102071880D03*
D27*
X158308040Y-105211880D03*
D28*
X156403040Y-107551880D03*
X157673040Y-107551880D03*
X158943040Y-107551880D03*
X160213040Y-107551880D03*
%TD*%
D23*
%TO.C,U14*%
X139859840Y-78247200D03*
X139859840Y-79197200D03*
X139859840Y-80147200D03*
X142059840Y-80147200D03*
X142059840Y-78247200D03*
X142059840Y-79197200D03*
%TD*%
D29*
%TO.C,Y1*%
X152400341Y-76915791D03*
X150200341Y-76915791D03*
X150200341Y-78615791D03*
X152400341Y-78615791D03*
%TD*%
%TO.C,R19*%
G36*
G01*
X136185740Y-100621780D02*
X136185740Y-99311780D01*
G75*
G02*
X136455740Y-99041780I270000J0D01*
G01*
X137265740Y-99041780D01*
G75*
G02*
X137535740Y-99311780I0J-270000D01*
G01*
X137535740Y-100621780D01*
G75*
G02*
X137265740Y-100891780I-270000J0D01*
G01*
X136455740Y-100891780D01*
G75*
G02*
X136185740Y-100621780I0J270000D01*
G01*
G37*
G36*
G01*
X133385740Y-100621780D02*
X133385740Y-99311780D01*
G75*
G02*
X133655740Y-99041780I270000J0D01*
G01*
X134465740Y-99041780D01*
G75*
G02*
X134735740Y-99311780I0J-270000D01*
G01*
X134735740Y-100621780D01*
G75*
G02*
X134465740Y-100891780I-270000J0D01*
G01*
X133655740Y-100891780D01*
G75*
G02*
X133385740Y-100621780I0J270000D01*
G01*
G37*
%TD*%
%TO.C,R20*%
G36*
G01*
X142691940Y-99311780D02*
X142691940Y-100621780D01*
G75*
G02*
X142421940Y-100891780I-270000J0D01*
G01*
X141611940Y-100891780D01*
G75*
G02*
X141341940Y-100621780I0J270000D01*
G01*
X141341940Y-99311780D01*
G75*
G02*
X141611940Y-99041780I270000J0D01*
G01*
X142421940Y-99041780D01*
G75*
G02*
X142691940Y-99311780I0J-270000D01*
G01*
G37*
G36*
G01*
X139891940Y-99311780D02*
X139891940Y-100621780D01*
G75*
G02*
X139621940Y-100891780I-270000J0D01*
G01*
X138811940Y-100891780D01*
G75*
G02*
X138541940Y-100621780I0J270000D01*
G01*
X138541940Y-99311780D01*
G75*
G02*
X138811940Y-99041780I270000J0D01*
G01*
X139621940Y-99041780D01*
G75*
G02*
X139891940Y-99311780I0J-270000D01*
G01*
G37*
%TD*%
%TO.C,R21*%
G36*
G01*
X158607440Y-100822580D02*
X157297440Y-100822580D01*
G75*
G02*
X157027440Y-100552580I0J270000D01*
G01*
X157027440Y-99742580D01*
G75*
G02*
X157297440Y-99472580I270000J0D01*
G01*
X158607440Y-99472580D01*
G75*
G02*
X158877440Y-99742580I0J-270000D01*
G01*
X158877440Y-100552580D01*
G75*
G02*
X158607440Y-100822580I-270000J0D01*
G01*
G37*
G36*
G01*
X158607440Y-98022580D02*
X157297440Y-98022580D01*
G75*
G02*
X157027440Y-97752580I0J270000D01*
G01*
X157027440Y-96942580D01*
G75*
G02*
X157297440Y-96672580I270000J0D01*
G01*
X158607440Y-96672580D01*
G75*
G02*
X158877440Y-96942580I0J-270000D01*
G01*
X158877440Y-97752580D01*
G75*
G02*
X158607440Y-98022580I-270000J0D01*
G01*
G37*
%TD*%
%TO.C,J1*%
G36*
G01*
X148591440Y-119153580D02*
X148591440Y-116103580D01*
G75*
G02*
X148866440Y-115828580I275000J0D01*
G01*
X149416440Y-115828580D01*
G75*
G02*
X149691440Y-116103580I0J-275000D01*
G01*
X149691440Y-119153580D01*
G75*
G02*
X149416440Y-119428580I-275000J0D01*
G01*
X148866440Y-119428580D01*
G75*
G02*
X148591440Y-119153580I0J275000D01*
G01*
G37*
G36*
G01*
X150591440Y-119153580D02*
X150591440Y-116103580D01*
G75*
G02*
X150866440Y-115828580I275000J0D01*
G01*
X151416440Y-115828580D01*
G75*
G02*
X151691440Y-116103580I0J-275000D01*
G01*
X151691440Y-119153580D01*
G75*
G02*
X151416440Y-119428580I-275000J0D01*
G01*
X150866440Y-119428580D01*
G75*
G02*
X150591440Y-119153580I0J275000D01*
G01*
G37*
G36*
G01*
X152591440Y-119153580D02*
X152591440Y-116103580D01*
G75*
G02*
X152866440Y-115828580I275000J0D01*
G01*
X153416440Y-115828580D01*
G75*
G02*
X153691440Y-116103580I0J-275000D01*
G01*
X153691440Y-119153580D01*
G75*
G02*
X153416440Y-119428580I-275000J0D01*
G01*
X152866440Y-119428580D01*
G75*
G02*
X152591440Y-119153580I0J275000D01*
G01*
G37*
G36*
G01*
X145991440Y-124861913D02*
X145991440Y-121895247D01*
G75*
G02*
X146258107Y-121628580I266667J0D01*
G01*
X147324773Y-121628580D01*
G75*
G02*
X147591440Y-121895247I0J-266667D01*
G01*
X147591440Y-124861913D01*
G75*
G02*
X147324773Y-125128580I-266667J0D01*
G01*
X146258107Y-125128580D01*
G75*
G02*
X145991440Y-124861913I0J266667D01*
G01*
G37*
G36*
G01*
X154691440Y-124861913D02*
X154691440Y-121895247D01*
G75*
G02*
X154958107Y-121628580I266667J0D01*
G01*
X156024773Y-121628580D01*
G75*
G02*
X156291440Y-121895247I0J-266667D01*
G01*
X156291440Y-124861913D01*
G75*
G02*
X156024773Y-125128580I-266667J0D01*
G01*
X154958107Y-125128580D01*
G75*
G02*
X154691440Y-124861913I0J266667D01*
G01*
G37*
%TD*%
%TO.C,J2*%
G36*
G01*
X140340440Y-124867113D02*
X140340440Y-121900447D01*
G75*
G02*
X140607107Y-121633780I266667J0D01*
G01*
X141673773Y-121633780D01*
G75*
G02*
X141940440Y-121900447I0J-266667D01*
G01*
X141940440Y-124867113D01*
G75*
G02*
X141673773Y-125133780I-266667J0D01*
G01*
X140607107Y-125133780D01*
G75*
G02*
X140340440Y-124867113I0J266667D01*
G01*
G37*
G36*
G01*
X131640440Y-124867113D02*
X131640440Y-121900447D01*
G75*
G02*
X131907107Y-121633780I266667J0D01*
G01*
X132973773Y-121633780D01*
G75*
G02*
X133240440Y-121900447I0J-266667D01*
G01*
X133240440Y-124867113D01*
G75*
G02*
X132973773Y-125133780I-266667J0D01*
G01*
X131907107Y-125133780D01*
G75*
G02*
X131640440Y-124867113I0J266667D01*
G01*
G37*
G36*
G01*
X138240440Y-119158780D02*
X138240440Y-116108780D01*
G75*
G02*
X138515440Y-115833780I275000J0D01*
G01*
X139065440Y-115833780D01*
G75*
G02*
X139340440Y-116108780I0J-275000D01*
G01*
X139340440Y-119158780D01*
G75*
G02*
X139065440Y-119433780I-275000J0D01*
G01*
X138515440Y-119433780D01*
G75*
G02*
X138240440Y-119158780I0J275000D01*
G01*
G37*
G36*
G01*
X136240440Y-119158780D02*
X136240440Y-116108780D01*
G75*
G02*
X136515440Y-115833780I275000J0D01*
G01*
X137065440Y-115833780D01*
G75*
G02*
X137340440Y-116108780I0J-275000D01*
G01*
X137340440Y-119158780D01*
G75*
G02*
X137065440Y-119433780I-275000J0D01*
G01*
X136515440Y-119433780D01*
G75*
G02*
X136240440Y-119158780I0J275000D01*
G01*
G37*
G36*
G01*
X134240440Y-119158780D02*
X134240440Y-116108780D01*
G75*
G02*
X134515440Y-115833780I275000J0D01*
G01*
X135065440Y-115833780D01*
G75*
G02*
X135340440Y-116108780I0J-275000D01*
G01*
X135340440Y-119158780D01*
G75*
G02*
X135065440Y-119433780I-275000J0D01*
G01*
X134515440Y-119433780D01*
G75*
G02*
X134240440Y-119158780I0J275000D01*
G01*
G37*
%TD*%
D30*
%TO.C,H1*%
X125962120Y-115693200D03*
%TD*%
%TO.C,H2*%
X161955480Y-78422680D03*
%TD*%
%TO.C,H3*%
X161962120Y-115683040D03*
%TD*%
%TO.C,H4*%
X125958600Y-78412520D03*
%TD*%
%TO.C,SWD1*%
G36*
G01*
X161781608Y-94188040D02*
X160473272Y-94188040D01*
G75*
G02*
X160202440Y-93917208I0J270832D01*
G01*
X160202440Y-93158872D01*
G75*
G02*
X160473272Y-92888040I270832J0D01*
G01*
X161781608Y-92888040D01*
G75*
G02*
X162052440Y-93158872I0J-270832D01*
G01*
X162052440Y-93917208D01*
G75*
G02*
X161781608Y-94188040I-270832J0D01*
G01*
G37*
D31*
X161127440Y-91538040D03*
X161127440Y-89538040D03*
X161127440Y-87538040D03*
X161127440Y-85538040D03*
X161127440Y-83538040D03*
%TD*%
%TO.C,C28*%
G36*
G01*
X151537590Y-100832180D02*
X150575090Y-100832180D01*
G75*
G02*
X150306340Y-100563430I0J268750D01*
G01*
X150306340Y-100025930D01*
G75*
G02*
X150575090Y-99757180I268750J0D01*
G01*
X151537590Y-99757180D01*
G75*
G02*
X151806340Y-100025930I0J-268750D01*
G01*
X151806340Y-100563430D01*
G75*
G02*
X151537590Y-100832180I-268750J0D01*
G01*
G37*
G36*
G01*
X151537590Y-98957180D02*
X150575090Y-98957180D01*
G75*
G02*
X150306340Y-98688430I0J268750D01*
G01*
X150306340Y-98150930D01*
G75*
G02*
X150575090Y-97882180I268750J0D01*
G01*
X151537590Y-97882180D01*
G75*
G02*
X151806340Y-98150930I0J-268750D01*
G01*
X151806340Y-98688430D01*
G75*
G02*
X151537590Y-98957180I-268750J0D01*
G01*
G37*
%TD*%
%TO.C,C29*%
G36*
G01*
X162561190Y-98967580D02*
X161598690Y-98967580D01*
G75*
G02*
X161329940Y-98698830I0J268750D01*
G01*
X161329940Y-98161330D01*
G75*
G02*
X161598690Y-97892580I268750J0D01*
G01*
X162561190Y-97892580D01*
G75*
G02*
X162829940Y-98161330I0J-268750D01*
G01*
X162829940Y-98698830D01*
G75*
G02*
X162561190Y-98967580I-268750J0D01*
G01*
G37*
G36*
G01*
X162561190Y-100842580D02*
X161598690Y-100842580D01*
G75*
G02*
X161329940Y-100573830I0J268750D01*
G01*
X161329940Y-100036330D01*
G75*
G02*
X161598690Y-99767580I268750J0D01*
G01*
X162561190Y-99767580D01*
G75*
G02*
X162829940Y-100036330I0J-268750D01*
G01*
X162829940Y-100573830D01*
G75*
G02*
X162561190Y-100842580I-268750J0D01*
G01*
G37*
%TD*%
%TO.C,C30*%
G36*
G01*
X124867750Y-94508820D02*
X125830250Y-94508820D01*
G75*
G02*
X126099000Y-94777570I0J-268750D01*
G01*
X126099000Y-95315070D01*
G75*
G02*
X125830250Y-95583820I-268750J0D01*
G01*
X124867750Y-95583820D01*
G75*
G02*
X124599000Y-95315070I0J268750D01*
G01*
X124599000Y-94777570D01*
G75*
G02*
X124867750Y-94508820I268750J0D01*
G01*
G37*
G36*
G01*
X124867750Y-96383820D02*
X125830250Y-96383820D01*
G75*
G02*
X126099000Y-96652570I0J-268750D01*
G01*
X126099000Y-97190070D01*
G75*
G02*
X125830250Y-97458820I-268750J0D01*
G01*
X124867750Y-97458820D01*
G75*
G02*
X124599000Y-97190070I0J268750D01*
G01*
X124599000Y-96652570D01*
G75*
G02*
X124867750Y-96383820I268750J0D01*
G01*
G37*
%TD*%
%TO.C,C31*%
G36*
G01*
X162558650Y-109272120D02*
X161596150Y-109272120D01*
G75*
G02*
X161327400Y-109003370I0J268750D01*
G01*
X161327400Y-108465870D01*
G75*
G02*
X161596150Y-108197120I268750J0D01*
G01*
X162558650Y-108197120D01*
G75*
G02*
X162827400Y-108465870I0J-268750D01*
G01*
X162827400Y-109003370D01*
G75*
G02*
X162558650Y-109272120I-268750J0D01*
G01*
G37*
G36*
G01*
X162558650Y-111147120D02*
X161596150Y-111147120D01*
G75*
G02*
X161327400Y-110878370I0J268750D01*
G01*
X161327400Y-110340870D01*
G75*
G02*
X161596150Y-110072120I268750J0D01*
G01*
X162558650Y-110072120D01*
G75*
G02*
X162827400Y-110340870I0J-268750D01*
G01*
X162827400Y-110878370D01*
G75*
G02*
X162558650Y-111147120I-268750J0D01*
G01*
G37*
%TD*%
%TO.C,C32*%
G36*
G01*
X160579990Y-100834480D02*
X159617490Y-100834480D01*
G75*
G02*
X159348740Y-100565730I0J268750D01*
G01*
X159348740Y-100028230D01*
G75*
G02*
X159617490Y-99759480I268750J0D01*
G01*
X160579990Y-99759480D01*
G75*
G02*
X160848740Y-100028230I0J-268750D01*
G01*
X160848740Y-100565730D01*
G75*
G02*
X160579990Y-100834480I-268750J0D01*
G01*
G37*
G36*
G01*
X160579990Y-98959480D02*
X159617490Y-98959480D01*
G75*
G02*
X159348740Y-98690730I0J268750D01*
G01*
X159348740Y-98153230D01*
G75*
G02*
X159617490Y-97884480I268750J0D01*
G01*
X160579990Y-97884480D01*
G75*
G02*
X160848740Y-98153230I0J-268750D01*
G01*
X160848740Y-98690730D01*
G75*
G02*
X160579990Y-98959480I-268750J0D01*
G01*
G37*
%TD*%
%TO.C,C33*%
G36*
G01*
X125858190Y-107738680D02*
X124895690Y-107738680D01*
G75*
G02*
X124626940Y-107469930I0J268750D01*
G01*
X124626940Y-106932430D01*
G75*
G02*
X124895690Y-106663680I268750J0D01*
G01*
X125858190Y-106663680D01*
G75*
G02*
X126126940Y-106932430I0J-268750D01*
G01*
X126126940Y-107469930D01*
G75*
G02*
X125858190Y-107738680I-268750J0D01*
G01*
G37*
G36*
G01*
X125858190Y-105863680D02*
X124895690Y-105863680D01*
G75*
G02*
X124626940Y-105594930I0J268750D01*
G01*
X124626940Y-105057430D01*
G75*
G02*
X124895690Y-104788680I268750J0D01*
G01*
X125858190Y-104788680D01*
G75*
G02*
X126126940Y-105057430I0J-268750D01*
G01*
X126126940Y-105594930D01*
G75*
G02*
X125858190Y-105863680I-268750J0D01*
G01*
G37*
%TD*%
%TO.C,C34*%
G36*
G01*
X153506090Y-100829880D02*
X152543590Y-100829880D01*
G75*
G02*
X152274840Y-100561130I0J268750D01*
G01*
X152274840Y-100023630D01*
G75*
G02*
X152543590Y-99754880I268750J0D01*
G01*
X153506090Y-99754880D01*
G75*
G02*
X153774840Y-100023630I0J-268750D01*
G01*
X153774840Y-100561130D01*
G75*
G02*
X153506090Y-100829880I-268750J0D01*
G01*
G37*
G36*
G01*
X153506090Y-98954880D02*
X152543590Y-98954880D01*
G75*
G02*
X152274840Y-98686130I0J268750D01*
G01*
X152274840Y-98148630D01*
G75*
G02*
X152543590Y-97879880I268750J0D01*
G01*
X153506090Y-97879880D01*
G75*
G02*
X153774840Y-98148630I0J-268750D01*
G01*
X153774840Y-98686130D01*
G75*
G02*
X153506090Y-98954880I-268750J0D01*
G01*
G37*
%TD*%
%TO.C,C35*%
G36*
G01*
X129777410Y-99020680D02*
X128814910Y-99020680D01*
G75*
G02*
X128546160Y-98751930I0J268750D01*
G01*
X128546160Y-98214430D01*
G75*
G02*
X128814910Y-97945680I268750J0D01*
G01*
X129777410Y-97945680D01*
G75*
G02*
X130046160Y-98214430I0J-268750D01*
G01*
X130046160Y-98751930D01*
G75*
G02*
X129777410Y-99020680I-268750J0D01*
G01*
G37*
G36*
G01*
X129777410Y-100895680D02*
X128814910Y-100895680D01*
G75*
G02*
X128546160Y-100626930I0J268750D01*
G01*
X128546160Y-100089430D01*
G75*
G02*
X128814910Y-99820680I268750J0D01*
G01*
X129777410Y-99820680D01*
G75*
G02*
X130046160Y-100089430I0J-268750D01*
G01*
X130046160Y-100626930D01*
G75*
G02*
X129777410Y-100895680I-268750J0D01*
G01*
G37*
%TD*%
%TO.C,C36*%
G36*
G01*
X124895690Y-103247380D02*
X125858190Y-103247380D01*
G75*
G02*
X126126940Y-103516130I0J-268750D01*
G01*
X126126940Y-104053630D01*
G75*
G02*
X125858190Y-104322380I-268750J0D01*
G01*
X124895690Y-104322380D01*
G75*
G02*
X124626940Y-104053630I0J268750D01*
G01*
X124626940Y-103516130D01*
G75*
G02*
X124895690Y-103247380I268750J0D01*
G01*
G37*
G36*
G01*
X124895690Y-101372380D02*
X125858190Y-101372380D01*
G75*
G02*
X126126940Y-101641130I0J-268750D01*
G01*
X126126940Y-102178630D01*
G75*
G02*
X125858190Y-102447380I-268750J0D01*
G01*
X124895690Y-102447380D01*
G75*
G02*
X124626940Y-102178630I0J268750D01*
G01*
X124626940Y-101641130D01*
G75*
G02*
X124895690Y-101372380I268750J0D01*
G01*
G37*
%TD*%
%TO.C,C37*%
G36*
G01*
X146787790Y-99020680D02*
X145825290Y-99020680D01*
G75*
G02*
X145556540Y-98751930I0J268750D01*
G01*
X145556540Y-98214430D01*
G75*
G02*
X145825290Y-97945680I268750J0D01*
G01*
X146787790Y-97945680D01*
G75*
G02*
X147056540Y-98214430I0J-268750D01*
G01*
X147056540Y-98751930D01*
G75*
G02*
X146787790Y-99020680I-268750J0D01*
G01*
G37*
G36*
G01*
X146787790Y-100895680D02*
X145825290Y-100895680D01*
G75*
G02*
X145556540Y-100626930I0J268750D01*
G01*
X145556540Y-100089430D01*
G75*
G02*
X145825290Y-99820680I268750J0D01*
G01*
X146787790Y-99820680D01*
G75*
G02*
X147056540Y-100089430I0J-268750D01*
G01*
X147056540Y-100626930D01*
G75*
G02*
X146787790Y-100895680I-268750J0D01*
G01*
G37*
%TD*%
%TO.C,C38*%
G36*
G01*
X162561190Y-105838280D02*
X161598690Y-105838280D01*
G75*
G02*
X161329940Y-105569530I0J268750D01*
G01*
X161329940Y-105032030D01*
G75*
G02*
X161598690Y-104763280I268750J0D01*
G01*
X162561190Y-104763280D01*
G75*
G02*
X162829940Y-105032030I0J-268750D01*
G01*
X162829940Y-105569530D01*
G75*
G02*
X162561190Y-105838280I-268750J0D01*
G01*
G37*
G36*
G01*
X162561190Y-107713280D02*
X161598690Y-107713280D01*
G75*
G02*
X161329940Y-107444530I0J268750D01*
G01*
X161329940Y-106907030D01*
G75*
G02*
X161598690Y-106638280I268750J0D01*
G01*
X162561190Y-106638280D01*
G75*
G02*
X162829940Y-106907030I0J-268750D01*
G01*
X162829940Y-107444530D01*
G75*
G02*
X162561190Y-107713280I-268750J0D01*
G01*
G37*
%TD*%
%TO.C,C39*%
G36*
G01*
X124898230Y-108217440D02*
X125860730Y-108217440D01*
G75*
G02*
X126129480Y-108486190I0J-268750D01*
G01*
X126129480Y-109023690D01*
G75*
G02*
X125860730Y-109292440I-268750J0D01*
G01*
X124898230Y-109292440D01*
G75*
G02*
X124629480Y-109023690I0J268750D01*
G01*
X124629480Y-108486190D01*
G75*
G02*
X124898230Y-108217440I268750J0D01*
G01*
G37*
G36*
G01*
X124898230Y-110092440D02*
X125860730Y-110092440D01*
G75*
G02*
X126129480Y-110361190I0J-268750D01*
G01*
X126129480Y-110898690D01*
G75*
G02*
X125860730Y-111167440I-268750J0D01*
G01*
X124898230Y-111167440D01*
G75*
G02*
X124629480Y-110898690I0J268750D01*
G01*
X124629480Y-110361190D01*
G75*
G02*
X124898230Y-110092440I268750J0D01*
G01*
G37*
%TD*%
%TO.C,C40*%
G36*
G01*
X127808910Y-99020680D02*
X126846410Y-99020680D01*
G75*
G02*
X126577660Y-98751930I0J268750D01*
G01*
X126577660Y-98214430D01*
G75*
G02*
X126846410Y-97945680I268750J0D01*
G01*
X127808910Y-97945680D01*
G75*
G02*
X128077660Y-98214430I0J-268750D01*
G01*
X128077660Y-98751930D01*
G75*
G02*
X127808910Y-99020680I-268750J0D01*
G01*
G37*
G36*
G01*
X127808910Y-100895680D02*
X126846410Y-100895680D01*
G75*
G02*
X126577660Y-100626930I0J268750D01*
G01*
X126577660Y-100089430D01*
G75*
G02*
X126846410Y-99820680I268750J0D01*
G01*
X127808910Y-99820680D01*
G75*
G02*
X128077660Y-100089430I0J-268750D01*
G01*
X128077660Y-100626930D01*
G75*
G02*
X127808910Y-100895680I-268750J0D01*
G01*
G37*
%TD*%
%TO.C,C41*%
G36*
G01*
X161598690Y-103198880D02*
X162561190Y-103198880D01*
G75*
G02*
X162829940Y-103467630I0J-268750D01*
G01*
X162829940Y-104005130D01*
G75*
G02*
X162561190Y-104273880I-268750J0D01*
G01*
X161598690Y-104273880D01*
G75*
G02*
X161329940Y-104005130I0J268750D01*
G01*
X161329940Y-103467630D01*
G75*
G02*
X161598690Y-103198880I268750J0D01*
G01*
G37*
G36*
G01*
X161598690Y-101323880D02*
X162561190Y-101323880D01*
G75*
G02*
X162829940Y-101592630I0J-268750D01*
G01*
X162829940Y-102130130D01*
G75*
G02*
X162561190Y-102398880I-268750J0D01*
G01*
X161598690Y-102398880D01*
G75*
G02*
X161329940Y-102130130I0J268750D01*
G01*
X161329940Y-101592630D01*
G75*
G02*
X161598690Y-101323880I268750J0D01*
G01*
G37*
%TD*%
%TO.C,C42*%
G36*
G01*
X125840410Y-100895680D02*
X124877910Y-100895680D01*
G75*
G02*
X124609160Y-100626930I0J268750D01*
G01*
X124609160Y-100089430D01*
G75*
G02*
X124877910Y-99820680I268750J0D01*
G01*
X125840410Y-99820680D01*
G75*
G02*
X126109160Y-100089430I0J-268750D01*
G01*
X126109160Y-100626930D01*
G75*
G02*
X125840410Y-100895680I-268750J0D01*
G01*
G37*
G36*
G01*
X125840410Y-99020680D02*
X124877910Y-99020680D01*
G75*
G02*
X124609160Y-98751930I0J268750D01*
G01*
X124609160Y-98214430D01*
G75*
G02*
X124877910Y-97945680I268750J0D01*
G01*
X125840410Y-97945680D01*
G75*
G02*
X126109160Y-98214430I0J-268750D01*
G01*
X126109160Y-98751930D01*
G75*
G02*
X125840410Y-99020680I-268750J0D01*
G01*
G37*
%TD*%
%TO.C,C43*%
G36*
G01*
X148756290Y-100895680D02*
X147793790Y-100895680D01*
G75*
G02*
X147525040Y-100626930I0J268750D01*
G01*
X147525040Y-100089430D01*
G75*
G02*
X147793790Y-99820680I268750J0D01*
G01*
X148756290Y-99820680D01*
G75*
G02*
X149025040Y-100089430I0J-268750D01*
G01*
X149025040Y-100626930D01*
G75*
G02*
X148756290Y-100895680I-268750J0D01*
G01*
G37*
G36*
G01*
X148756290Y-99020680D02*
X147793790Y-99020680D01*
G75*
G02*
X147525040Y-98751930I0J268750D01*
G01*
X147525040Y-98214430D01*
G75*
G02*
X147793790Y-97945680I268750J0D01*
G01*
X148756290Y-97945680D01*
G75*
G02*
X149025040Y-98214430I0J-268750D01*
G01*
X149025040Y-98751930D01*
G75*
G02*
X148756290Y-99020680I-268750J0D01*
G01*
G37*
%TD*%
%TO.C,D5*%
G36*
G01*
X141848760Y-76086390D02*
X141848760Y-76648890D01*
G75*
G02*
X141605010Y-76892640I-243750J0D01*
G01*
X141117510Y-76892640D01*
G75*
G02*
X140873760Y-76648890I0J243750D01*
G01*
X140873760Y-76086390D01*
G75*
G02*
X141117510Y-75842640I243750J0D01*
G01*
X141605010Y-75842640D01*
G75*
G02*
X141848760Y-76086390I0J-243750D01*
G01*
G37*
G36*
G01*
X140273760Y-76086390D02*
X140273760Y-76648890D01*
G75*
G02*
X140030010Y-76892640I-243750J0D01*
G01*
X139542510Y-76892640D01*
G75*
G02*
X139298760Y-76648890I0J243750D01*
G01*
X139298760Y-76086390D01*
G75*
G02*
X139542510Y-75842640I243750J0D01*
G01*
X140030010Y-75842640D01*
G75*
G02*
X140273760Y-76086390I0J-243750D01*
G01*
G37*
%TD*%
%TO.C,R10*%
G36*
G01*
X143994560Y-76170140D02*
X143994560Y-76565140D01*
G75*
G02*
X143822060Y-76737640I-172500J0D01*
G01*
X143477060Y-76737640D01*
G75*
G02*
X143304560Y-76565140I0J172500D01*
G01*
X143304560Y-76170140D01*
G75*
G02*
X143477060Y-75997640I172500J0D01*
G01*
X143822060Y-75997640D01*
G75*
G02*
X143994560Y-76170140I0J-172500D01*
G01*
G37*
G36*
G01*
X143024560Y-76170140D02*
X143024560Y-76565140D01*
G75*
G02*
X142852060Y-76737640I-172500J0D01*
G01*
X142507060Y-76737640D01*
G75*
G02*
X142334560Y-76565140I0J172500D01*
G01*
X142334560Y-76170140D01*
G75*
G02*
X142507060Y-75997640I172500J0D01*
G01*
X142852060Y-75997640D01*
G75*
G02*
X143024560Y-76170140I0J-172500D01*
G01*
G37*
%TD*%
%TO.C,C11*%
G36*
G01*
X144353900Y-98776000D02*
X144748900Y-98776000D01*
G75*
G02*
X144921400Y-98948500I0J-172500D01*
G01*
X144921400Y-99293500D01*
G75*
G02*
X144748900Y-99466000I-172500J0D01*
G01*
X144353900Y-99466000D01*
G75*
G02*
X144181400Y-99293500I0J172500D01*
G01*
X144181400Y-98948500D01*
G75*
G02*
X144353900Y-98776000I172500J0D01*
G01*
G37*
G36*
G01*
X144353900Y-99746000D02*
X144748900Y-99746000D01*
G75*
G02*
X144921400Y-99918500I0J-172500D01*
G01*
X144921400Y-100263500D01*
G75*
G02*
X144748900Y-100436000I-172500J0D01*
G01*
X144353900Y-100436000D01*
G75*
G02*
X144181400Y-100263500I0J172500D01*
G01*
X144181400Y-99918500D01*
G75*
G02*
X144353900Y-99746000I172500J0D01*
G01*
G37*
%TD*%
%TO.C,C23*%
G36*
G01*
X153661700Y-95141400D02*
X153661700Y-95536400D01*
G75*
G02*
X153489200Y-95708900I-172500J0D01*
G01*
X153144200Y-95708900D01*
G75*
G02*
X152971700Y-95536400I0J172500D01*
G01*
X152971700Y-95141400D01*
G75*
G02*
X153144200Y-94968900I172500J0D01*
G01*
X153489200Y-94968900D01*
G75*
G02*
X153661700Y-95141400I0J-172500D01*
G01*
G37*
G36*
G01*
X152691700Y-95141400D02*
X152691700Y-95536400D01*
G75*
G02*
X152519200Y-95708900I-172500J0D01*
G01*
X152174200Y-95708900D01*
G75*
G02*
X152001700Y-95536400I0J172500D01*
G01*
X152001700Y-95141400D01*
G75*
G02*
X152174200Y-94968900I172500J0D01*
G01*
X152519200Y-94968900D01*
G75*
G02*
X152691700Y-95141400I0J-172500D01*
G01*
G37*
%TD*%
%TO.C,C24*%
G36*
G01*
X160769700Y-97085800D02*
X160769700Y-96690800D01*
G75*
G02*
X160942200Y-96518300I172500J0D01*
G01*
X161287200Y-96518300D01*
G75*
G02*
X161459700Y-96690800I0J-172500D01*
G01*
X161459700Y-97085800D01*
G75*
G02*
X161287200Y-97258300I-172500J0D01*
G01*
X160942200Y-97258300D01*
G75*
G02*
X160769700Y-97085800I0J172500D01*
G01*
G37*
G36*
G01*
X159799700Y-97085800D02*
X159799700Y-96690800D01*
G75*
G02*
X159972200Y-96518300I172500J0D01*
G01*
X160317200Y-96518300D01*
G75*
G02*
X160489700Y-96690800I0J-172500D01*
G01*
X160489700Y-97085800D01*
G75*
G02*
X160317200Y-97258300I-172500J0D01*
G01*
X159972200Y-97258300D01*
G75*
G02*
X159799700Y-97085800I0J172500D01*
G01*
G37*
%TD*%
D32*
%TO.C,J5*%
X129910840Y-110698280D03*
%TD*%
%TO.C,J6*%
X143957040Y-110698280D03*
%TD*%
%TO.C,J7*%
X157977840Y-110698280D03*
%TD*%
M02*
