G04 #@! TF.GenerationSoftware,KiCad,Pcbnew,5.1.6-c6e7f7d~87~ubuntu19.10.1*
G04 #@! TF.CreationDate,2021-03-05T22:23:54-05:00*
G04 #@! TF.ProjectId,daedalus,64616564-616c-4757-932e-6b696361645f,v1.0*
G04 #@! TF.SameCoordinates,Original*
G04 #@! TF.FileFunction,Copper,L1,Top*
G04 #@! TF.FilePolarity,Positive*
%FSLAX46Y46*%
G04 Gerber Fmt 4.6, Leading zero omitted, Abs format (unit mm)*
G04 Created by KiCad (PCBNEW 5.1.6-c6e7f7d~87~ubuntu19.10.1) date 2021-03-05 22:23:54*
%MOMM*%
%LPD*%
G01*
G04 APERTURE LIST*
G04 #@! TA.AperFunction,ComponentPad*
%ADD10O,1.050000X1.250000*%
G04 #@! TD*
G04 #@! TA.AperFunction,SMDPad,CuDef*
%ADD11R,0.400000X1.350000*%
G04 #@! TD*
G04 #@! TA.AperFunction,ComponentPad*
%ADD12O,1.000000X1.900000*%
G04 #@! TD*
G04 #@! TA.AperFunction,SMDPad,CuDef*
%ADD13R,2.900000X1.900000*%
G04 #@! TD*
G04 #@! TA.AperFunction,SMDPad,CuDef*
%ADD14R,0.875000X1.900000*%
G04 #@! TD*
G04 #@! TA.AperFunction,SMDPad,CuDef*
%ADD15R,5.105400X5.105400*%
G04 #@! TD*
G04 #@! TA.AperFunction,SMDPad,CuDef*
%ADD16R,0.812800X0.304800*%
G04 #@! TD*
G04 #@! TA.AperFunction,SMDPad,CuDef*
%ADD17R,0.304800X0.812800*%
G04 #@! TD*
G04 #@! TA.AperFunction,SMDPad,CuDef*
%ADD18R,0.900000X1.200000*%
G04 #@! TD*
G04 #@! TA.AperFunction,ComponentPad*
%ADD19C,1.500000*%
G04 #@! TD*
G04 #@! TA.AperFunction,ComponentPad*
%ADD20C,2.550000*%
G04 #@! TD*
G04 #@! TA.AperFunction,SMDPad,CuDef*
%ADD21R,1.200000X0.900000*%
G04 #@! TD*
G04 #@! TA.AperFunction,SMDPad,CuDef*
%ADD22R,0.800000X0.900000*%
G04 #@! TD*
G04 #@! TA.AperFunction,SMDPad,CuDef*
%ADD23R,1.060000X0.650000*%
G04 #@! TD*
G04 #@! TA.AperFunction,SMDPad,CuDef*
%ADD24R,0.750000X0.300000*%
G04 #@! TD*
G04 #@! TA.AperFunction,SMDPad,CuDef*
%ADD25R,1.360000X1.460000*%
G04 #@! TD*
G04 #@! TA.AperFunction,SMDPad,CuDef*
%ADD26R,0.530000X1.130000*%
G04 #@! TD*
G04 #@! TA.AperFunction,SMDPad,CuDef*
%ADD27R,4.350000X3.700000*%
G04 #@! TD*
G04 #@! TA.AperFunction,SMDPad,CuDef*
%ADD28R,0.530000X1.330000*%
G04 #@! TD*
G04 #@! TA.AperFunction,SMDPad,CuDef*
%ADD29R,1.400000X1.200000*%
G04 #@! TD*
G04 #@! TA.AperFunction,ComponentPad*
%ADD30C,4.700000*%
G04 #@! TD*
G04 #@! TA.AperFunction,ComponentPad*
%ADD31O,1.750000X1.200000*%
G04 #@! TD*
G04 #@! TA.AperFunction,ComponentPad*
%ADD32C,2.100000*%
G04 #@! TD*
G04 #@! TA.AperFunction,ViaPad*
%ADD33C,0.600000*%
G04 #@! TD*
G04 #@! TA.AperFunction,ViaPad*
%ADD34C,0.800000*%
G04 #@! TD*
G04 #@! TA.AperFunction,ViaPad*
%ADD35C,0.700000*%
G04 #@! TD*
G04 #@! TA.AperFunction,Conductor*
%ADD36C,0.250000*%
G04 #@! TD*
G04 #@! TA.AperFunction,Conductor*
%ADD37C,0.200000*%
G04 #@! TD*
G04 #@! TA.AperFunction,Conductor*
%ADD38C,0.500000*%
G04 #@! TD*
G04 #@! TA.AperFunction,Conductor*
%ADD39C,0.750000*%
G04 #@! TD*
G04 #@! TA.AperFunction,Conductor*
%ADD40C,0.254000*%
G04 #@! TD*
G04 APERTURE END LIST*
D10*
G04 #@! TO.P,J9,6*
G04 #@! TO.N,Net-(J9-Pad6)*
X136047440Y-79865480D03*
D11*
G04 #@! TO.P,J9,5*
G04 #@! TO.N,BGND*
X135122440Y-79540480D03*
G04 #@! TO.P,J9,4*
G04 #@! TO.N,Net-(J9-Pad4)*
X134472440Y-79540480D03*
G04 #@! TO.P,J9,3*
G04 #@! TO.N,USB_CONN_D+*
X133822440Y-79540480D03*
G04 #@! TO.P,J9,1*
G04 #@! TO.N,+5V*
X132522440Y-79540480D03*
D10*
G04 #@! TO.P,J9,6*
G04 #@! TO.N,Net-(J9-Pad6)*
X131597440Y-79865480D03*
D12*
X137997440Y-76865480D03*
X129647440Y-76865480D03*
D11*
G04 #@! TO.P,J9,2*
G04 #@! TO.N,USB_CONN_D-*
X133172440Y-79540480D03*
D13*
G04 #@! TO.P,J9,6*
G04 #@! TO.N,Net-(J9-Pad6)*
X133822440Y-76865480D03*
D14*
X130084940Y-76865480D03*
X137559940Y-76865480D03*
G04 #@! TD*
G04 #@! TO.P,U7,1*
G04 #@! TO.N,VDD*
G04 #@! TA.AperFunction,SMDPad,CuDef*
G36*
G01*
X153959341Y-80355652D02*
X154109341Y-80355652D01*
G75*
G02*
X154184341Y-80430652I0J-75000D01*
G01*
X154184341Y-81830652D01*
G75*
G02*
X154109341Y-81905652I-75000J0D01*
G01*
X153959341Y-81905652D01*
G75*
G02*
X153884341Y-81830652I0J75000D01*
G01*
X153884341Y-80430652D01*
G75*
G02*
X153959341Y-80355652I75000J0D01*
G01*
G37*
G04 #@! TD.AperFunction*
G04 #@! TO.P,U7,2*
G04 #@! TO.N,Net-(U7-Pad2)*
G04 #@! TA.AperFunction,SMDPad,CuDef*
G36*
G01*
X153459341Y-80355652D02*
X153609341Y-80355652D01*
G75*
G02*
X153684341Y-80430652I0J-75000D01*
G01*
X153684341Y-81830652D01*
G75*
G02*
X153609341Y-81905652I-75000J0D01*
G01*
X153459341Y-81905652D01*
G75*
G02*
X153384341Y-81830652I0J75000D01*
G01*
X153384341Y-80430652D01*
G75*
G02*
X153459341Y-80355652I75000J0D01*
G01*
G37*
G04 #@! TD.AperFunction*
G04 #@! TO.P,U7,3*
G04 #@! TO.N,Net-(U7-Pad3)*
G04 #@! TA.AperFunction,SMDPad,CuDef*
G36*
G01*
X152959341Y-80355652D02*
X153109341Y-80355652D01*
G75*
G02*
X153184341Y-80430652I0J-75000D01*
G01*
X153184341Y-81830652D01*
G75*
G02*
X153109341Y-81905652I-75000J0D01*
G01*
X152959341Y-81905652D01*
G75*
G02*
X152884341Y-81830652I0J75000D01*
G01*
X152884341Y-80430652D01*
G75*
G02*
X152959341Y-80355652I75000J0D01*
G01*
G37*
G04 #@! TD.AperFunction*
G04 #@! TO.P,U7,4*
G04 #@! TO.N,Net-(U7-Pad4)*
G04 #@! TA.AperFunction,SMDPad,CuDef*
G36*
G01*
X152459341Y-80355652D02*
X152609341Y-80355652D01*
G75*
G02*
X152684341Y-80430652I0J-75000D01*
G01*
X152684341Y-81830652D01*
G75*
G02*
X152609341Y-81905652I-75000J0D01*
G01*
X152459341Y-81905652D01*
G75*
G02*
X152384341Y-81830652I0J75000D01*
G01*
X152384341Y-80430652D01*
G75*
G02*
X152459341Y-80355652I75000J0D01*
G01*
G37*
G04 #@! TD.AperFunction*
G04 #@! TO.P,U7,5*
G04 #@! TO.N,HSE_IN*
G04 #@! TA.AperFunction,SMDPad,CuDef*
G36*
G01*
X151959341Y-80355652D02*
X152109341Y-80355652D01*
G75*
G02*
X152184341Y-80430652I0J-75000D01*
G01*
X152184341Y-81830652D01*
G75*
G02*
X152109341Y-81905652I-75000J0D01*
G01*
X151959341Y-81905652D01*
G75*
G02*
X151884341Y-81830652I0J75000D01*
G01*
X151884341Y-80430652D01*
G75*
G02*
X151959341Y-80355652I75000J0D01*
G01*
G37*
G04 #@! TD.AperFunction*
G04 #@! TO.P,U7,6*
G04 #@! TO.N,HSE_OUT*
G04 #@! TA.AperFunction,SMDPad,CuDef*
G36*
G01*
X151459341Y-80355652D02*
X151609341Y-80355652D01*
G75*
G02*
X151684341Y-80430652I0J-75000D01*
G01*
X151684341Y-81830652D01*
G75*
G02*
X151609341Y-81905652I-75000J0D01*
G01*
X151459341Y-81905652D01*
G75*
G02*
X151384341Y-81830652I0J75000D01*
G01*
X151384341Y-80430652D01*
G75*
G02*
X151459341Y-80355652I75000J0D01*
G01*
G37*
G04 #@! TD.AperFunction*
G04 #@! TO.P,U7,7*
G04 #@! TO.N,NRST*
G04 #@! TA.AperFunction,SMDPad,CuDef*
G36*
G01*
X150959341Y-80355652D02*
X151109341Y-80355652D01*
G75*
G02*
X151184341Y-80430652I0J-75000D01*
G01*
X151184341Y-81830652D01*
G75*
G02*
X151109341Y-81905652I-75000J0D01*
G01*
X150959341Y-81905652D01*
G75*
G02*
X150884341Y-81830652I0J75000D01*
G01*
X150884341Y-80430652D01*
G75*
G02*
X150959341Y-80355652I75000J0D01*
G01*
G37*
G04 #@! TD.AperFunction*
G04 #@! TO.P,U7,8*
G04 #@! TO.N,Net-(U7-Pad8)*
G04 #@! TA.AperFunction,SMDPad,CuDef*
G36*
G01*
X150459341Y-80355652D02*
X150609341Y-80355652D01*
G75*
G02*
X150684341Y-80430652I0J-75000D01*
G01*
X150684341Y-81830652D01*
G75*
G02*
X150609341Y-81905652I-75000J0D01*
G01*
X150459341Y-81905652D01*
G75*
G02*
X150384341Y-81830652I0J75000D01*
G01*
X150384341Y-80430652D01*
G75*
G02*
X150459341Y-80355652I75000J0D01*
G01*
G37*
G04 #@! TD.AperFunction*
G04 #@! TO.P,U7,9*
G04 #@! TO.N,Net-(U7-Pad9)*
G04 #@! TA.AperFunction,SMDPad,CuDef*
G36*
G01*
X149959341Y-80355652D02*
X150109341Y-80355652D01*
G75*
G02*
X150184341Y-80430652I0J-75000D01*
G01*
X150184341Y-81830652D01*
G75*
G02*
X150109341Y-81905652I-75000J0D01*
G01*
X149959341Y-81905652D01*
G75*
G02*
X149884341Y-81830652I0J75000D01*
G01*
X149884341Y-80430652D01*
G75*
G02*
X149959341Y-80355652I75000J0D01*
G01*
G37*
G04 #@! TD.AperFunction*
G04 #@! TO.P,U7,10*
G04 #@! TO.N,SPI2_MISO*
G04 #@! TA.AperFunction,SMDPad,CuDef*
G36*
G01*
X149459341Y-80355652D02*
X149609341Y-80355652D01*
G75*
G02*
X149684341Y-80430652I0J-75000D01*
G01*
X149684341Y-81830652D01*
G75*
G02*
X149609341Y-81905652I-75000J0D01*
G01*
X149459341Y-81905652D01*
G75*
G02*
X149384341Y-81830652I0J75000D01*
G01*
X149384341Y-80430652D01*
G75*
G02*
X149459341Y-80355652I75000J0D01*
G01*
G37*
G04 #@! TD.AperFunction*
G04 #@! TO.P,U7,11*
G04 #@! TO.N,SPI2_MOSI*
G04 #@! TA.AperFunction,SMDPad,CuDef*
G36*
G01*
X148959341Y-80355652D02*
X149109341Y-80355652D01*
G75*
G02*
X149184341Y-80430652I0J-75000D01*
G01*
X149184341Y-81830652D01*
G75*
G02*
X149109341Y-81905652I-75000J0D01*
G01*
X148959341Y-81905652D01*
G75*
G02*
X148884341Y-81830652I0J75000D01*
G01*
X148884341Y-80430652D01*
G75*
G02*
X148959341Y-80355652I75000J0D01*
G01*
G37*
G04 #@! TD.AperFunction*
G04 #@! TO.P,U7,12*
G04 #@! TO.N,BGND*
G04 #@! TA.AperFunction,SMDPad,CuDef*
G36*
G01*
X148459341Y-80355652D02*
X148609341Y-80355652D01*
G75*
G02*
X148684341Y-80430652I0J-75000D01*
G01*
X148684341Y-81830652D01*
G75*
G02*
X148609341Y-81905652I-75000J0D01*
G01*
X148459341Y-81905652D01*
G75*
G02*
X148384341Y-81830652I0J75000D01*
G01*
X148384341Y-80430652D01*
G75*
G02*
X148459341Y-80355652I75000J0D01*
G01*
G37*
G04 #@! TD.AperFunction*
G04 #@! TO.P,U7,13*
G04 #@! TO.N,+3.3VA*
G04 #@! TA.AperFunction,SMDPad,CuDef*
G36*
G01*
X147959341Y-80355652D02*
X148109341Y-80355652D01*
G75*
G02*
X148184341Y-80430652I0J-75000D01*
G01*
X148184341Y-81830652D01*
G75*
G02*
X148109341Y-81905652I-75000J0D01*
G01*
X147959341Y-81905652D01*
G75*
G02*
X147884341Y-81830652I0J75000D01*
G01*
X147884341Y-80430652D01*
G75*
G02*
X147959341Y-80355652I75000J0D01*
G01*
G37*
G04 #@! TD.AperFunction*
G04 #@! TO.P,U7,14*
G04 #@! TO.N,PWM_C*
G04 #@! TA.AperFunction,SMDPad,CuDef*
G36*
G01*
X147459341Y-80355652D02*
X147609341Y-80355652D01*
G75*
G02*
X147684341Y-80430652I0J-75000D01*
G01*
X147684341Y-81830652D01*
G75*
G02*
X147609341Y-81905652I-75000J0D01*
G01*
X147459341Y-81905652D01*
G75*
G02*
X147384341Y-81830652I0J75000D01*
G01*
X147384341Y-80430652D01*
G75*
G02*
X147459341Y-80355652I75000J0D01*
G01*
G37*
G04 #@! TD.AperFunction*
G04 #@! TO.P,U7,15*
G04 #@! TO.N,PWM_B*
G04 #@! TA.AperFunction,SMDPad,CuDef*
G36*
G01*
X146959341Y-80355652D02*
X147109341Y-80355652D01*
G75*
G02*
X147184341Y-80430652I0J-75000D01*
G01*
X147184341Y-81830652D01*
G75*
G02*
X147109341Y-81905652I-75000J0D01*
G01*
X146959341Y-81905652D01*
G75*
G02*
X146884341Y-81830652I0J75000D01*
G01*
X146884341Y-80430652D01*
G75*
G02*
X146959341Y-80355652I75000J0D01*
G01*
G37*
G04 #@! TD.AperFunction*
G04 #@! TO.P,U7,16*
G04 #@! TO.N,PWM_A*
G04 #@! TA.AperFunction,SMDPad,CuDef*
G36*
G01*
X146459341Y-80355652D02*
X146609341Y-80355652D01*
G75*
G02*
X146684341Y-80430652I0J-75000D01*
G01*
X146684341Y-81830652D01*
G75*
G02*
X146609341Y-81905652I-75000J0D01*
G01*
X146459341Y-81905652D01*
G75*
G02*
X146384341Y-81830652I0J75000D01*
G01*
X146384341Y-80430652D01*
G75*
G02*
X146459341Y-80355652I75000J0D01*
G01*
G37*
G04 #@! TD.AperFunction*
G04 #@! TO.P,U7,17*
G04 #@! TO.N,ENABLE*
G04 #@! TA.AperFunction,SMDPad,CuDef*
G36*
G01*
X143909341Y-82905652D02*
X145309341Y-82905652D01*
G75*
G02*
X145384341Y-82980652I0J-75000D01*
G01*
X145384341Y-83130652D01*
G75*
G02*
X145309341Y-83205652I-75000J0D01*
G01*
X143909341Y-83205652D01*
G75*
G02*
X143834341Y-83130652I0J75000D01*
G01*
X143834341Y-82980652D01*
G75*
G02*
X143909341Y-82905652I75000J0D01*
G01*
G37*
G04 #@! TD.AperFunction*
G04 #@! TO.P,U7,18*
G04 #@! TO.N,BGND*
G04 #@! TA.AperFunction,SMDPad,CuDef*
G36*
G01*
X143909341Y-83405652D02*
X145309341Y-83405652D01*
G75*
G02*
X145384341Y-83480652I0J-75000D01*
G01*
X145384341Y-83630652D01*
G75*
G02*
X145309341Y-83705652I-75000J0D01*
G01*
X143909341Y-83705652D01*
G75*
G02*
X143834341Y-83630652I0J75000D01*
G01*
X143834341Y-83480652D01*
G75*
G02*
X143909341Y-83405652I75000J0D01*
G01*
G37*
G04 #@! TD.AperFunction*
G04 #@! TO.P,U7,19*
G04 #@! TO.N,VDD*
G04 #@! TA.AperFunction,SMDPad,CuDef*
G36*
G01*
X143909341Y-83905652D02*
X145309341Y-83905652D01*
G75*
G02*
X145384341Y-83980652I0J-75000D01*
G01*
X145384341Y-84130652D01*
G75*
G02*
X145309341Y-84205652I-75000J0D01*
G01*
X143909341Y-84205652D01*
G75*
G02*
X143834341Y-84130652I0J75000D01*
G01*
X143834341Y-83980652D01*
G75*
G02*
X143909341Y-83905652I75000J0D01*
G01*
G37*
G04 #@! TD.AperFunction*
G04 #@! TO.P,U7,20*
G04 #@! TO.N,SPI1_NSS*
G04 #@! TA.AperFunction,SMDPad,CuDef*
G36*
G01*
X143909341Y-84405652D02*
X145309341Y-84405652D01*
G75*
G02*
X145384341Y-84480652I0J-75000D01*
G01*
X145384341Y-84630652D01*
G75*
G02*
X145309341Y-84705652I-75000J0D01*
G01*
X143909341Y-84705652D01*
G75*
G02*
X143834341Y-84630652I0J75000D01*
G01*
X143834341Y-84480652D01*
G75*
G02*
X143909341Y-84405652I75000J0D01*
G01*
G37*
G04 #@! TD.AperFunction*
G04 #@! TO.P,U7,21*
G04 #@! TO.N,SPI1_SCK*
G04 #@! TA.AperFunction,SMDPad,CuDef*
G36*
G01*
X143909341Y-84905652D02*
X145309341Y-84905652D01*
G75*
G02*
X145384341Y-84980652I0J-75000D01*
G01*
X145384341Y-85130652D01*
G75*
G02*
X145309341Y-85205652I-75000J0D01*
G01*
X143909341Y-85205652D01*
G75*
G02*
X143834341Y-85130652I0J75000D01*
G01*
X143834341Y-84980652D01*
G75*
G02*
X143909341Y-84905652I75000J0D01*
G01*
G37*
G04 #@! TD.AperFunction*
G04 #@! TO.P,U7,22*
G04 #@! TO.N,SPI1_MISO*
G04 #@! TA.AperFunction,SMDPad,CuDef*
G36*
G01*
X143909341Y-85405652D02*
X145309341Y-85405652D01*
G75*
G02*
X145384341Y-85480652I0J-75000D01*
G01*
X145384341Y-85630652D01*
G75*
G02*
X145309341Y-85705652I-75000J0D01*
G01*
X143909341Y-85705652D01*
G75*
G02*
X143834341Y-85630652I0J75000D01*
G01*
X143834341Y-85480652D01*
G75*
G02*
X143909341Y-85405652I75000J0D01*
G01*
G37*
G04 #@! TD.AperFunction*
G04 #@! TO.P,U7,23*
G04 #@! TO.N,SPI1_MOSI*
G04 #@! TA.AperFunction,SMDPad,CuDef*
G36*
G01*
X143909341Y-85905652D02*
X145309341Y-85905652D01*
G75*
G02*
X145384341Y-85980652I0J-75000D01*
G01*
X145384341Y-86130652D01*
G75*
G02*
X145309341Y-86205652I-75000J0D01*
G01*
X143909341Y-86205652D01*
G75*
G02*
X143834341Y-86130652I0J75000D01*
G01*
X143834341Y-85980652D01*
G75*
G02*
X143909341Y-85905652I75000J0D01*
G01*
G37*
G04 #@! TD.AperFunction*
G04 #@! TO.P,U7,24*
G04 #@! TO.N,Net-(U7-Pad24)*
G04 #@! TA.AperFunction,SMDPad,CuDef*
G36*
G01*
X143909341Y-86405652D02*
X145309341Y-86405652D01*
G75*
G02*
X145384341Y-86480652I0J-75000D01*
G01*
X145384341Y-86630652D01*
G75*
G02*
X145309341Y-86705652I-75000J0D01*
G01*
X143909341Y-86705652D01*
G75*
G02*
X143834341Y-86630652I0J75000D01*
G01*
X143834341Y-86480652D01*
G75*
G02*
X143909341Y-86405652I75000J0D01*
G01*
G37*
G04 #@! TD.AperFunction*
G04 #@! TO.P,U7,25*
G04 #@! TO.N,Net-(U7-Pad25)*
G04 #@! TA.AperFunction,SMDPad,CuDef*
G36*
G01*
X143909341Y-86905652D02*
X145309341Y-86905652D01*
G75*
G02*
X145384341Y-86980652I0J-75000D01*
G01*
X145384341Y-87130652D01*
G75*
G02*
X145309341Y-87205652I-75000J0D01*
G01*
X143909341Y-87205652D01*
G75*
G02*
X143834341Y-87130652I0J75000D01*
G01*
X143834341Y-86980652D01*
G75*
G02*
X143909341Y-86905652I75000J0D01*
G01*
G37*
G04 #@! TD.AperFunction*
G04 #@! TO.P,U7,26*
G04 #@! TO.N,Net-(U7-Pad26)*
G04 #@! TA.AperFunction,SMDPad,CuDef*
G36*
G01*
X143909341Y-87405652D02*
X145309341Y-87405652D01*
G75*
G02*
X145384341Y-87480652I0J-75000D01*
G01*
X145384341Y-87630652D01*
G75*
G02*
X145309341Y-87705652I-75000J0D01*
G01*
X143909341Y-87705652D01*
G75*
G02*
X143834341Y-87630652I0J75000D01*
G01*
X143834341Y-87480652D01*
G75*
G02*
X143909341Y-87405652I75000J0D01*
G01*
G37*
G04 #@! TD.AperFunction*
G04 #@! TO.P,U7,27*
G04 #@! TO.N,Net-(U7-Pad27)*
G04 #@! TA.AperFunction,SMDPad,CuDef*
G36*
G01*
X143909341Y-87905652D02*
X145309341Y-87905652D01*
G75*
G02*
X145384341Y-87980652I0J-75000D01*
G01*
X145384341Y-88130652D01*
G75*
G02*
X145309341Y-88205652I-75000J0D01*
G01*
X143909341Y-88205652D01*
G75*
G02*
X143834341Y-88130652I0J75000D01*
G01*
X143834341Y-87980652D01*
G75*
G02*
X143909341Y-87905652I75000J0D01*
G01*
G37*
G04 #@! TD.AperFunction*
G04 #@! TO.P,U7,28*
G04 #@! TO.N,Net-(U7-Pad28)*
G04 #@! TA.AperFunction,SMDPad,CuDef*
G36*
G01*
X143909341Y-88405652D02*
X145309341Y-88405652D01*
G75*
G02*
X145384341Y-88480652I0J-75000D01*
G01*
X145384341Y-88630652D01*
G75*
G02*
X145309341Y-88705652I-75000J0D01*
G01*
X143909341Y-88705652D01*
G75*
G02*
X143834341Y-88630652I0J75000D01*
G01*
X143834341Y-88480652D01*
G75*
G02*
X143909341Y-88405652I75000J0D01*
G01*
G37*
G04 #@! TD.AperFunction*
G04 #@! TO.P,U7,29*
G04 #@! TO.N,USART3_TX*
G04 #@! TA.AperFunction,SMDPad,CuDef*
G36*
G01*
X143909341Y-88905652D02*
X145309341Y-88905652D01*
G75*
G02*
X145384341Y-88980652I0J-75000D01*
G01*
X145384341Y-89130652D01*
G75*
G02*
X145309341Y-89205652I-75000J0D01*
G01*
X143909341Y-89205652D01*
G75*
G02*
X143834341Y-89130652I0J75000D01*
G01*
X143834341Y-88980652D01*
G75*
G02*
X143909341Y-88905652I75000J0D01*
G01*
G37*
G04 #@! TD.AperFunction*
G04 #@! TO.P,U7,30*
G04 #@! TO.N,USART3_RX*
G04 #@! TA.AperFunction,SMDPad,CuDef*
G36*
G01*
X143909341Y-89405652D02*
X145309341Y-89405652D01*
G75*
G02*
X145384341Y-89480652I0J-75000D01*
G01*
X145384341Y-89630652D01*
G75*
G02*
X145309341Y-89705652I-75000J0D01*
G01*
X143909341Y-89705652D01*
G75*
G02*
X143834341Y-89630652I0J75000D01*
G01*
X143834341Y-89480652D01*
G75*
G02*
X143909341Y-89405652I75000J0D01*
G01*
G37*
G04 #@! TD.AperFunction*
G04 #@! TO.P,U7,31*
G04 #@! TO.N,Net-(C19-Pad2)*
G04 #@! TA.AperFunction,SMDPad,CuDef*
G36*
G01*
X143909341Y-89905652D02*
X145309341Y-89905652D01*
G75*
G02*
X145384341Y-89980652I0J-75000D01*
G01*
X145384341Y-90130652D01*
G75*
G02*
X145309341Y-90205652I-75000J0D01*
G01*
X143909341Y-90205652D01*
G75*
G02*
X143834341Y-90130652I0J75000D01*
G01*
X143834341Y-89980652D01*
G75*
G02*
X143909341Y-89905652I75000J0D01*
G01*
G37*
G04 #@! TD.AperFunction*
G04 #@! TO.P,U7,32*
G04 #@! TO.N,VDD*
G04 #@! TA.AperFunction,SMDPad,CuDef*
G36*
G01*
X143909341Y-90405652D02*
X145309341Y-90405652D01*
G75*
G02*
X145384341Y-90480652I0J-75000D01*
G01*
X145384341Y-90630652D01*
G75*
G02*
X145309341Y-90705652I-75000J0D01*
G01*
X143909341Y-90705652D01*
G75*
G02*
X143834341Y-90630652I0J75000D01*
G01*
X143834341Y-90480652D01*
G75*
G02*
X143909341Y-90405652I75000J0D01*
G01*
G37*
G04 #@! TD.AperFunction*
G04 #@! TO.P,U7,33*
G04 #@! TO.N,SPI2_NSS*
G04 #@! TA.AperFunction,SMDPad,CuDef*
G36*
G01*
X146459341Y-91705652D02*
X146609341Y-91705652D01*
G75*
G02*
X146684341Y-91780652I0J-75000D01*
G01*
X146684341Y-93180652D01*
G75*
G02*
X146609341Y-93255652I-75000J0D01*
G01*
X146459341Y-93255652D01*
G75*
G02*
X146384341Y-93180652I0J75000D01*
G01*
X146384341Y-91780652D01*
G75*
G02*
X146459341Y-91705652I75000J0D01*
G01*
G37*
G04 #@! TD.AperFunction*
G04 #@! TO.P,U7,34*
G04 #@! TO.N,SPI2_SCK*
G04 #@! TA.AperFunction,SMDPad,CuDef*
G36*
G01*
X146959341Y-91705652D02*
X147109341Y-91705652D01*
G75*
G02*
X147184341Y-91780652I0J-75000D01*
G01*
X147184341Y-93180652D01*
G75*
G02*
X147109341Y-93255652I-75000J0D01*
G01*
X146959341Y-93255652D01*
G75*
G02*
X146884341Y-93180652I0J75000D01*
G01*
X146884341Y-91780652D01*
G75*
G02*
X146959341Y-91705652I75000J0D01*
G01*
G37*
G04 #@! TD.AperFunction*
G04 #@! TO.P,U7,35*
G04 #@! TO.N,ENC_A*
G04 #@! TA.AperFunction,SMDPad,CuDef*
G36*
G01*
X147459341Y-91705652D02*
X147609341Y-91705652D01*
G75*
G02*
X147684341Y-91780652I0J-75000D01*
G01*
X147684341Y-93180652D01*
G75*
G02*
X147609341Y-93255652I-75000J0D01*
G01*
X147459341Y-93255652D01*
G75*
G02*
X147384341Y-93180652I0J75000D01*
G01*
X147384341Y-91780652D01*
G75*
G02*
X147459341Y-91705652I75000J0D01*
G01*
G37*
G04 #@! TD.AperFunction*
G04 #@! TO.P,U7,36*
G04 #@! TO.N,ENC_B*
G04 #@! TA.AperFunction,SMDPad,CuDef*
G36*
G01*
X147959341Y-91705652D02*
X148109341Y-91705652D01*
G75*
G02*
X148184341Y-91780652I0J-75000D01*
G01*
X148184341Y-93180652D01*
G75*
G02*
X148109341Y-93255652I-75000J0D01*
G01*
X147959341Y-93255652D01*
G75*
G02*
X147884341Y-93180652I0J75000D01*
G01*
X147884341Y-91780652D01*
G75*
G02*
X147959341Y-91705652I75000J0D01*
G01*
G37*
G04 #@! TD.AperFunction*
G04 #@! TO.P,U7,37*
G04 #@! TO.N,Net-(U7-Pad37)*
G04 #@! TA.AperFunction,SMDPad,CuDef*
G36*
G01*
X148459341Y-91705652D02*
X148609341Y-91705652D01*
G75*
G02*
X148684341Y-91780652I0J-75000D01*
G01*
X148684341Y-93180652D01*
G75*
G02*
X148609341Y-93255652I-75000J0D01*
G01*
X148459341Y-93255652D01*
G75*
G02*
X148384341Y-93180652I0J75000D01*
G01*
X148384341Y-91780652D01*
G75*
G02*
X148459341Y-91705652I75000J0D01*
G01*
G37*
G04 #@! TD.AperFunction*
G04 #@! TO.P,U7,38*
G04 #@! TO.N,Net-(U7-Pad38)*
G04 #@! TA.AperFunction,SMDPad,CuDef*
G36*
G01*
X148959341Y-91705652D02*
X149109341Y-91705652D01*
G75*
G02*
X149184341Y-91780652I0J-75000D01*
G01*
X149184341Y-93180652D01*
G75*
G02*
X149109341Y-93255652I-75000J0D01*
G01*
X148959341Y-93255652D01*
G75*
G02*
X148884341Y-93180652I0J75000D01*
G01*
X148884341Y-91780652D01*
G75*
G02*
X148959341Y-91705652I75000J0D01*
G01*
G37*
G04 #@! TD.AperFunction*
G04 #@! TO.P,U7,39*
G04 #@! TO.N,Net-(U7-Pad39)*
G04 #@! TA.AperFunction,SMDPad,CuDef*
G36*
G01*
X149459341Y-91705652D02*
X149609341Y-91705652D01*
G75*
G02*
X149684341Y-91780652I0J-75000D01*
G01*
X149684341Y-93180652D01*
G75*
G02*
X149609341Y-93255652I-75000J0D01*
G01*
X149459341Y-93255652D01*
G75*
G02*
X149384341Y-93180652I0J75000D01*
G01*
X149384341Y-91780652D01*
G75*
G02*
X149459341Y-91705652I75000J0D01*
G01*
G37*
G04 #@! TD.AperFunction*
G04 #@! TO.P,U7,40*
G04 #@! TO.N,Net-(U7-Pad40)*
G04 #@! TA.AperFunction,SMDPad,CuDef*
G36*
G01*
X149959341Y-91705652D02*
X150109341Y-91705652D01*
G75*
G02*
X150184341Y-91780652I0J-75000D01*
G01*
X150184341Y-93180652D01*
G75*
G02*
X150109341Y-93255652I-75000J0D01*
G01*
X149959341Y-93255652D01*
G75*
G02*
X149884341Y-93180652I0J75000D01*
G01*
X149884341Y-91780652D01*
G75*
G02*
X149959341Y-91705652I75000J0D01*
G01*
G37*
G04 #@! TD.AperFunction*
G04 #@! TO.P,U7,41*
G04 #@! TO.N,SOA*
G04 #@! TA.AperFunction,SMDPad,CuDef*
G36*
G01*
X150459341Y-91705652D02*
X150609341Y-91705652D01*
G75*
G02*
X150684341Y-91780652I0J-75000D01*
G01*
X150684341Y-93180652D01*
G75*
G02*
X150609341Y-93255652I-75000J0D01*
G01*
X150459341Y-93255652D01*
G75*
G02*
X150384341Y-93180652I0J75000D01*
G01*
X150384341Y-91780652D01*
G75*
G02*
X150459341Y-91705652I75000J0D01*
G01*
G37*
G04 #@! TD.AperFunction*
G04 #@! TO.P,U7,42*
G04 #@! TO.N,SOB*
G04 #@! TA.AperFunction,SMDPad,CuDef*
G36*
G01*
X150959341Y-91705652D02*
X151109341Y-91705652D01*
G75*
G02*
X151184341Y-91780652I0J-75000D01*
G01*
X151184341Y-93180652D01*
G75*
G02*
X151109341Y-93255652I-75000J0D01*
G01*
X150959341Y-93255652D01*
G75*
G02*
X150884341Y-93180652I0J75000D01*
G01*
X150884341Y-91780652D01*
G75*
G02*
X150959341Y-91705652I75000J0D01*
G01*
G37*
G04 #@! TD.AperFunction*
G04 #@! TO.P,U7,43*
G04 #@! TO.N,SOC*
G04 #@! TA.AperFunction,SMDPad,CuDef*
G36*
G01*
X151459341Y-91705652D02*
X151609341Y-91705652D01*
G75*
G02*
X151684341Y-91780652I0J-75000D01*
G01*
X151684341Y-93180652D01*
G75*
G02*
X151609341Y-93255652I-75000J0D01*
G01*
X151459341Y-93255652D01*
G75*
G02*
X151384341Y-93180652I0J75000D01*
G01*
X151384341Y-91780652D01*
G75*
G02*
X151459341Y-91705652I75000J0D01*
G01*
G37*
G04 #@! TD.AperFunction*
G04 #@! TO.P,U7,44*
G04 #@! TO.N,USB_D-*
G04 #@! TA.AperFunction,SMDPad,CuDef*
G36*
G01*
X151959341Y-91705652D02*
X152109341Y-91705652D01*
G75*
G02*
X152184341Y-91780652I0J-75000D01*
G01*
X152184341Y-93180652D01*
G75*
G02*
X152109341Y-93255652I-75000J0D01*
G01*
X151959341Y-93255652D01*
G75*
G02*
X151884341Y-93180652I0J75000D01*
G01*
X151884341Y-91780652D01*
G75*
G02*
X151959341Y-91705652I75000J0D01*
G01*
G37*
G04 #@! TD.AperFunction*
G04 #@! TO.P,U7,45*
G04 #@! TO.N,USB_D+*
G04 #@! TA.AperFunction,SMDPad,CuDef*
G36*
G01*
X152459341Y-91705652D02*
X152609341Y-91705652D01*
G75*
G02*
X152684341Y-91780652I0J-75000D01*
G01*
X152684341Y-93180652D01*
G75*
G02*
X152609341Y-93255652I-75000J0D01*
G01*
X152459341Y-93255652D01*
G75*
G02*
X152384341Y-93180652I0J75000D01*
G01*
X152384341Y-91780652D01*
G75*
G02*
X152459341Y-91705652I75000J0D01*
G01*
G37*
G04 #@! TD.AperFunction*
G04 #@! TO.P,U7,46*
G04 #@! TO.N,SWDIO*
G04 #@! TA.AperFunction,SMDPad,CuDef*
G36*
G01*
X152959341Y-91705652D02*
X153109341Y-91705652D01*
G75*
G02*
X153184341Y-91780652I0J-75000D01*
G01*
X153184341Y-93180652D01*
G75*
G02*
X153109341Y-93255652I-75000J0D01*
G01*
X152959341Y-93255652D01*
G75*
G02*
X152884341Y-93180652I0J75000D01*
G01*
X152884341Y-91780652D01*
G75*
G02*
X152959341Y-91705652I75000J0D01*
G01*
G37*
G04 #@! TD.AperFunction*
G04 #@! TO.P,U7,47*
G04 #@! TO.N,Net-(C20-Pad2)*
G04 #@! TA.AperFunction,SMDPad,CuDef*
G36*
G01*
X153459341Y-91705652D02*
X153609341Y-91705652D01*
G75*
G02*
X153684341Y-91780652I0J-75000D01*
G01*
X153684341Y-93180652D01*
G75*
G02*
X153609341Y-93255652I-75000J0D01*
G01*
X153459341Y-93255652D01*
G75*
G02*
X153384341Y-93180652I0J75000D01*
G01*
X153384341Y-91780652D01*
G75*
G02*
X153459341Y-91705652I75000J0D01*
G01*
G37*
G04 #@! TD.AperFunction*
G04 #@! TO.P,U7,48*
G04 #@! TO.N,VDD*
G04 #@! TA.AperFunction,SMDPad,CuDef*
G36*
G01*
X153959341Y-91705652D02*
X154109341Y-91705652D01*
G75*
G02*
X154184341Y-91780652I0J-75000D01*
G01*
X154184341Y-93180652D01*
G75*
G02*
X154109341Y-93255652I-75000J0D01*
G01*
X153959341Y-93255652D01*
G75*
G02*
X153884341Y-93180652I0J75000D01*
G01*
X153884341Y-91780652D01*
G75*
G02*
X153959341Y-91705652I75000J0D01*
G01*
G37*
G04 #@! TD.AperFunction*
G04 #@! TO.P,U7,49*
G04 #@! TO.N,SWCLK*
G04 #@! TA.AperFunction,SMDPad,CuDef*
G36*
G01*
X155259341Y-90405652D02*
X156659341Y-90405652D01*
G75*
G02*
X156734341Y-90480652I0J-75000D01*
G01*
X156734341Y-90630652D01*
G75*
G02*
X156659341Y-90705652I-75000J0D01*
G01*
X155259341Y-90705652D01*
G75*
G02*
X155184341Y-90630652I0J75000D01*
G01*
X155184341Y-90480652D01*
G75*
G02*
X155259341Y-90405652I75000J0D01*
G01*
G37*
G04 #@! TD.AperFunction*
G04 #@! TO.P,U7,50*
G04 #@! TO.N,LED_STATUS*
G04 #@! TA.AperFunction,SMDPad,CuDef*
G36*
G01*
X155259341Y-89905652D02*
X156659341Y-89905652D01*
G75*
G02*
X156734341Y-89980652I0J-75000D01*
G01*
X156734341Y-90130652D01*
G75*
G02*
X156659341Y-90205652I-75000J0D01*
G01*
X155259341Y-90205652D01*
G75*
G02*
X155184341Y-90130652I0J75000D01*
G01*
X155184341Y-89980652D01*
G75*
G02*
X155259341Y-89905652I75000J0D01*
G01*
G37*
G04 #@! TD.AperFunction*
G04 #@! TO.P,U7,51*
G04 #@! TO.N,Net-(U7-Pad51)*
G04 #@! TA.AperFunction,SMDPad,CuDef*
G36*
G01*
X155259341Y-89405652D02*
X156659341Y-89405652D01*
G75*
G02*
X156734341Y-89480652I0J-75000D01*
G01*
X156734341Y-89630652D01*
G75*
G02*
X156659341Y-89705652I-75000J0D01*
G01*
X155259341Y-89705652D01*
G75*
G02*
X155184341Y-89630652I0J75000D01*
G01*
X155184341Y-89480652D01*
G75*
G02*
X155259341Y-89405652I75000J0D01*
G01*
G37*
G04 #@! TD.AperFunction*
G04 #@! TO.P,U7,52*
G04 #@! TO.N,Net-(U7-Pad52)*
G04 #@! TA.AperFunction,SMDPad,CuDef*
G36*
G01*
X155259341Y-88905652D02*
X156659341Y-88905652D01*
G75*
G02*
X156734341Y-88980652I0J-75000D01*
G01*
X156734341Y-89130652D01*
G75*
G02*
X156659341Y-89205652I-75000J0D01*
G01*
X155259341Y-89205652D01*
G75*
G02*
X155184341Y-89130652I0J75000D01*
G01*
X155184341Y-88980652D01*
G75*
G02*
X155259341Y-88905652I75000J0D01*
G01*
G37*
G04 #@! TD.AperFunction*
G04 #@! TO.P,U7,53*
G04 #@! TO.N,Net-(U7-Pad53)*
G04 #@! TA.AperFunction,SMDPad,CuDef*
G36*
G01*
X155259341Y-88405652D02*
X156659341Y-88405652D01*
G75*
G02*
X156734341Y-88480652I0J-75000D01*
G01*
X156734341Y-88630652D01*
G75*
G02*
X156659341Y-88705652I-75000J0D01*
G01*
X155259341Y-88705652D01*
G75*
G02*
X155184341Y-88630652I0J75000D01*
G01*
X155184341Y-88480652D01*
G75*
G02*
X155259341Y-88405652I75000J0D01*
G01*
G37*
G04 #@! TD.AperFunction*
G04 #@! TO.P,U7,54*
G04 #@! TO.N,Net-(U7-Pad54)*
G04 #@! TA.AperFunction,SMDPad,CuDef*
G36*
G01*
X155259341Y-87905652D02*
X156659341Y-87905652D01*
G75*
G02*
X156734341Y-87980652I0J-75000D01*
G01*
X156734341Y-88130652D01*
G75*
G02*
X156659341Y-88205652I-75000J0D01*
G01*
X155259341Y-88205652D01*
G75*
G02*
X155184341Y-88130652I0J75000D01*
G01*
X155184341Y-87980652D01*
G75*
G02*
X155259341Y-87905652I75000J0D01*
G01*
G37*
G04 #@! TD.AperFunction*
G04 #@! TO.P,U7,55*
G04 #@! TO.N,SWO*
G04 #@! TA.AperFunction,SMDPad,CuDef*
G36*
G01*
X155259341Y-87405652D02*
X156659341Y-87405652D01*
G75*
G02*
X156734341Y-87480652I0J-75000D01*
G01*
X156734341Y-87630652D01*
G75*
G02*
X156659341Y-87705652I-75000J0D01*
G01*
X155259341Y-87705652D01*
G75*
G02*
X155184341Y-87630652I0J75000D01*
G01*
X155184341Y-87480652D01*
G75*
G02*
X155259341Y-87405652I75000J0D01*
G01*
G37*
G04 #@! TD.AperFunction*
G04 #@! TO.P,U7,56*
G04 #@! TO.N,Net-(U7-Pad56)*
G04 #@! TA.AperFunction,SMDPad,CuDef*
G36*
G01*
X155259341Y-86905652D02*
X156659341Y-86905652D01*
G75*
G02*
X156734341Y-86980652I0J-75000D01*
G01*
X156734341Y-87130652D01*
G75*
G02*
X156659341Y-87205652I-75000J0D01*
G01*
X155259341Y-87205652D01*
G75*
G02*
X155184341Y-87130652I0J75000D01*
G01*
X155184341Y-86980652D01*
G75*
G02*
X155259341Y-86905652I75000J0D01*
G01*
G37*
G04 #@! TD.AperFunction*
G04 #@! TO.P,U7,57*
G04 #@! TO.N,Net-(U7-Pad57)*
G04 #@! TA.AperFunction,SMDPad,CuDef*
G36*
G01*
X155259341Y-86405652D02*
X156659341Y-86405652D01*
G75*
G02*
X156734341Y-86480652I0J-75000D01*
G01*
X156734341Y-86630652D01*
G75*
G02*
X156659341Y-86705652I-75000J0D01*
G01*
X155259341Y-86705652D01*
G75*
G02*
X155184341Y-86630652I0J75000D01*
G01*
X155184341Y-86480652D01*
G75*
G02*
X155259341Y-86405652I75000J0D01*
G01*
G37*
G04 #@! TD.AperFunction*
G04 #@! TO.P,U7,58*
G04 #@! TO.N,Net-(U7-Pad58)*
G04 #@! TA.AperFunction,SMDPad,CuDef*
G36*
G01*
X155259341Y-85905652D02*
X156659341Y-85905652D01*
G75*
G02*
X156734341Y-85980652I0J-75000D01*
G01*
X156734341Y-86130652D01*
G75*
G02*
X156659341Y-86205652I-75000J0D01*
G01*
X155259341Y-86205652D01*
G75*
G02*
X155184341Y-86130652I0J75000D01*
G01*
X155184341Y-85980652D01*
G75*
G02*
X155259341Y-85905652I75000J0D01*
G01*
G37*
G04 #@! TD.AperFunction*
G04 #@! TO.P,U7,59*
G04 #@! TO.N,Net-(U7-Pad59)*
G04 #@! TA.AperFunction,SMDPad,CuDef*
G36*
G01*
X155259341Y-85405652D02*
X156659341Y-85405652D01*
G75*
G02*
X156734341Y-85480652I0J-75000D01*
G01*
X156734341Y-85630652D01*
G75*
G02*
X156659341Y-85705652I-75000J0D01*
G01*
X155259341Y-85705652D01*
G75*
G02*
X155184341Y-85630652I0J75000D01*
G01*
X155184341Y-85480652D01*
G75*
G02*
X155259341Y-85405652I75000J0D01*
G01*
G37*
G04 #@! TD.AperFunction*
G04 #@! TO.P,U7,60*
G04 #@! TO.N,BOOT0*
G04 #@! TA.AperFunction,SMDPad,CuDef*
G36*
G01*
X155259341Y-84905652D02*
X156659341Y-84905652D01*
G75*
G02*
X156734341Y-84980652I0J-75000D01*
G01*
X156734341Y-85130652D01*
G75*
G02*
X156659341Y-85205652I-75000J0D01*
G01*
X155259341Y-85205652D01*
G75*
G02*
X155184341Y-85130652I0J75000D01*
G01*
X155184341Y-84980652D01*
G75*
G02*
X155259341Y-84905652I75000J0D01*
G01*
G37*
G04 #@! TD.AperFunction*
G04 #@! TO.P,U7,61*
G04 #@! TO.N,CAN1_RX*
G04 #@! TA.AperFunction,SMDPad,CuDef*
G36*
G01*
X155259341Y-84405652D02*
X156659341Y-84405652D01*
G75*
G02*
X156734341Y-84480652I0J-75000D01*
G01*
X156734341Y-84630652D01*
G75*
G02*
X156659341Y-84705652I-75000J0D01*
G01*
X155259341Y-84705652D01*
G75*
G02*
X155184341Y-84630652I0J75000D01*
G01*
X155184341Y-84480652D01*
G75*
G02*
X155259341Y-84405652I75000J0D01*
G01*
G37*
G04 #@! TD.AperFunction*
G04 #@! TO.P,U7,62*
G04 #@! TO.N,CAN1_TX*
G04 #@! TA.AperFunction,SMDPad,CuDef*
G36*
G01*
X155259341Y-83905652D02*
X156659341Y-83905652D01*
G75*
G02*
X156734341Y-83980652I0J-75000D01*
G01*
X156734341Y-84130652D01*
G75*
G02*
X156659341Y-84205652I-75000J0D01*
G01*
X155259341Y-84205652D01*
G75*
G02*
X155184341Y-84130652I0J75000D01*
G01*
X155184341Y-83980652D01*
G75*
G02*
X155259341Y-83905652I75000J0D01*
G01*
G37*
G04 #@! TD.AperFunction*
G04 #@! TO.P,U7,63*
G04 #@! TO.N,BGND*
G04 #@! TA.AperFunction,SMDPad,CuDef*
G36*
G01*
X155259341Y-83405652D02*
X156659341Y-83405652D01*
G75*
G02*
X156734341Y-83480652I0J-75000D01*
G01*
X156734341Y-83630652D01*
G75*
G02*
X156659341Y-83705652I-75000J0D01*
G01*
X155259341Y-83705652D01*
G75*
G02*
X155184341Y-83630652I0J75000D01*
G01*
X155184341Y-83480652D01*
G75*
G02*
X155259341Y-83405652I75000J0D01*
G01*
G37*
G04 #@! TD.AperFunction*
G04 #@! TO.P,U7,64*
G04 #@! TO.N,VDD*
G04 #@! TA.AperFunction,SMDPad,CuDef*
G36*
G01*
X155259341Y-82905652D02*
X156659341Y-82905652D01*
G75*
G02*
X156734341Y-82980652I0J-75000D01*
G01*
X156734341Y-83130652D01*
G75*
G02*
X156659341Y-83205652I-75000J0D01*
G01*
X155259341Y-83205652D01*
G75*
G02*
X155184341Y-83130652I0J75000D01*
G01*
X155184341Y-82980652D01*
G75*
G02*
X155259341Y-82905652I75000J0D01*
G01*
G37*
G04 #@! TD.AperFunction*
G04 #@! TD*
D15*
G04 #@! TO.P,U5,49*
G04 #@! TO.N,BGND*
X135871040Y-91003880D03*
D16*
G04 #@! TO.P,U5,48*
G04 #@! TO.N,Net-(U5-Pad48)*
X132416640Y-93747080D03*
G04 #@! TO.P,U5,47*
G04 #@! TO.N,VIN*
X132416640Y-93264480D03*
G04 #@! TO.P,U5,46*
G04 #@! TO.N,Net-(U5-Pad46)*
X132416640Y-92756480D03*
G04 #@! TO.P,U5,45*
G04 #@! TO.N,SW*
X132416640Y-92248480D03*
G04 #@! TO.P,U5,44*
G04 #@! TO.N,CB*
X132416640Y-91765880D03*
G04 #@! TO.P,U5,43*
G04 #@! TO.N,BGND*
X132416640Y-91257880D03*
G04 #@! TO.P,U5,42*
G04 #@! TO.N,ENABLE*
X132416640Y-90749880D03*
G04 #@! TO.P,U5,41*
G04 #@! TO.N,PWM_C*
X132416640Y-90241880D03*
G04 #@! TO.P,U5,40*
G04 #@! TO.N,ENABLE*
X132416640Y-89759280D03*
G04 #@! TO.P,U5,39*
G04 #@! TO.N,PWM_B*
X132416640Y-89251280D03*
G04 #@! TO.P,U5,38*
G04 #@! TO.N,ENABLE*
X132416640Y-88743280D03*
G04 #@! TO.P,U5,37*
G04 #@! TO.N,PWM_A*
X132416640Y-88260680D03*
D17*
G04 #@! TO.P,U5,36*
G04 #@! TO.N,Net-(C17-Pad2)*
X133127840Y-87549480D03*
G04 #@! TO.P,U5,35*
G04 #@! TO.N,BGND*
X133610440Y-87549480D03*
G04 #@! TO.P,U5,34*
G04 #@! TO.N,CAL*
X134118440Y-87549480D03*
G04 #@! TO.P,U5,33*
G04 #@! TO.N,ENABLE*
X134626440Y-87549480D03*
G04 #@! TO.P,U5,32*
G04 #@! TO.N,SPI1_NSS*
X135109040Y-87549480D03*
G04 #@! TO.P,U5,31*
G04 #@! TO.N,SPI1_SCK*
X135617040Y-87549480D03*
G04 #@! TO.P,U5,30*
G04 #@! TO.N,SPI1_MOSI*
X136125040Y-87549480D03*
G04 #@! TO.P,U5,29*
G04 #@! TO.N,SPI1_MISO*
X136633040Y-87549480D03*
G04 #@! TO.P,U5,28*
G04 #@! TO.N,FAULT*
X137115640Y-87549480D03*
G04 #@! TO.P,U5,27*
G04 #@! TO.N,BGND*
X137623640Y-87549480D03*
G04 #@! TO.P,U5,26*
G04 #@! TO.N,VDD*
X138131640Y-87549480D03*
G04 #@! TO.P,U5,25*
G04 #@! TO.N,SOA*
X138614240Y-87549480D03*
D16*
G04 #@! TO.P,U5,24*
G04 #@! TO.N,SOB*
X139325440Y-88260680D03*
G04 #@! TO.P,U5,23*
G04 #@! TO.N,SOC*
X139325440Y-88743280D03*
G04 #@! TO.P,U5,22*
G04 #@! TO.N,BGND*
X139325440Y-89251280D03*
G04 #@! TO.P,U5,21*
G04 #@! TO.N,SPC*
X139325440Y-89759280D03*
G04 #@! TO.P,U5,20*
G04 #@! TO.N,GLC*
X139325440Y-90241880D03*
G04 #@! TO.P,U5,19*
G04 #@! TO.N,PHASE_C*
X139325440Y-90749880D03*
G04 #@! TO.P,U5,18*
G04 #@! TO.N,GHC*
X139325440Y-91257880D03*
G04 #@! TO.P,U5,17*
G04 #@! TO.N,GHB*
X139325440Y-91765880D03*
G04 #@! TO.P,U5,16*
G04 #@! TO.N,PHASE_B*
X139325440Y-92248480D03*
G04 #@! TO.P,U5,15*
G04 #@! TO.N,GLB*
X139325440Y-92756480D03*
G04 #@! TO.P,U5,14*
G04 #@! TO.N,SPB*
X139325440Y-93264480D03*
G04 #@! TO.P,U5,13*
G04 #@! TO.N,BGND*
X139325440Y-93747080D03*
D17*
G04 #@! TO.P,U5,12*
X138614240Y-94458280D03*
G04 #@! TO.P,U5,11*
G04 #@! TO.N,SPA*
X138131640Y-94458280D03*
G04 #@! TO.P,U5,10*
G04 #@! TO.N,GLA*
X137623640Y-94458280D03*
G04 #@! TO.P,U5,9*
G04 #@! TO.N,PHASE_A*
X137115640Y-94458280D03*
G04 #@! TO.P,U5,8*
G04 #@! TO.N,GHA*
X136633040Y-94458280D03*
G04 #@! TO.P,U5,7*
G04 #@! TO.N,VIN*
X136125040Y-94458280D03*
G04 #@! TO.P,U5,6*
X135617040Y-94458280D03*
G04 #@! TO.P,U5,5*
G04 #@! TO.N,Net-(C21-Pad2)*
X135109040Y-94458280D03*
G04 #@! TO.P,U5,4*
G04 #@! TO.N,Net-(C16-Pad1)*
X134626440Y-94458280D03*
G04 #@! TO.P,U5,3*
G04 #@! TO.N,Net-(C16-Pad2)*
X134118440Y-94458280D03*
G04 #@! TO.P,U5,2*
G04 #@! TO.N,BGND*
X133610440Y-94458280D03*
G04 #@! TO.P,U5,1*
G04 #@! TO.N,FB*
X133127840Y-94458280D03*
G04 #@! TD*
D18*
G04 #@! TO.P,D2,1*
G04 #@! TO.N,Net-(D2-Pad1)*
X138847560Y-82209640D03*
G04 #@! TO.P,D2,2*
G04 #@! TO.N,+5V*
X142147560Y-82209640D03*
G04 #@! TD*
G04 #@! TO.P,D6,1*
G04 #@! TO.N,Net-(D6-Pad1)*
G04 #@! TA.AperFunction,SMDPad,CuDef*
G36*
G01*
X156907890Y-78344720D02*
X156395390Y-78344720D01*
G75*
G02*
X156176640Y-78125970I0J218750D01*
G01*
X156176640Y-77688470D01*
G75*
G02*
X156395390Y-77469720I218750J0D01*
G01*
X156907890Y-77469720D01*
G75*
G02*
X157126640Y-77688470I0J-218750D01*
G01*
X157126640Y-78125970D01*
G75*
G02*
X156907890Y-78344720I-218750J0D01*
G01*
G37*
G04 #@! TD.AperFunction*
G04 #@! TO.P,D6,2*
G04 #@! TO.N,LED_STATUS*
G04 #@! TA.AperFunction,SMDPad,CuDef*
G36*
G01*
X156907890Y-76769720D02*
X156395390Y-76769720D01*
G75*
G02*
X156176640Y-76550970I0J218750D01*
G01*
X156176640Y-76113470D01*
G75*
G02*
X156395390Y-75894720I218750J0D01*
G01*
X156907890Y-75894720D01*
G75*
G02*
X157126640Y-76113470I0J-218750D01*
G01*
X157126640Y-76550970D01*
G75*
G02*
X156907890Y-76769720I-218750J0D01*
G01*
G37*
G04 #@! TD.AperFunction*
G04 #@! TD*
G04 #@! TO.P,C20,1*
G04 #@! TO.N,BGND*
G04 #@! TA.AperFunction,SMDPad,CuDef*
G36*
G01*
X157541250Y-90215000D02*
X158053750Y-90215000D01*
G75*
G02*
X158272500Y-90433750I0J-218750D01*
G01*
X158272500Y-90871250D01*
G75*
G02*
X158053750Y-91090000I-218750J0D01*
G01*
X157541250Y-91090000D01*
G75*
G02*
X157322500Y-90871250I0J218750D01*
G01*
X157322500Y-90433750D01*
G75*
G02*
X157541250Y-90215000I218750J0D01*
G01*
G37*
G04 #@! TD.AperFunction*
G04 #@! TO.P,C20,2*
G04 #@! TO.N,Net-(C20-Pad2)*
G04 #@! TA.AperFunction,SMDPad,CuDef*
G36*
G01*
X157541250Y-91790000D02*
X158053750Y-91790000D01*
G75*
G02*
X158272500Y-92008750I0J-218750D01*
G01*
X158272500Y-92446250D01*
G75*
G02*
X158053750Y-92665000I-218750J0D01*
G01*
X157541250Y-92665000D01*
G75*
G02*
X157322500Y-92446250I0J218750D01*
G01*
X157322500Y-92008750D01*
G75*
G02*
X157541250Y-91790000I218750J0D01*
G01*
G37*
G04 #@! TD.AperFunction*
G04 #@! TD*
G04 #@! TO.P,C2,1*
G04 #@! TO.N,Net-(C2-Pad1)*
G04 #@! TA.AperFunction,SMDPad,CuDef*
G36*
G01*
X130459700Y-84596880D02*
X130804700Y-84596880D01*
G75*
G02*
X130952200Y-84744380I0J-147500D01*
G01*
X130952200Y-85039380D01*
G75*
G02*
X130804700Y-85186880I-147500J0D01*
G01*
X130459700Y-85186880D01*
G75*
G02*
X130312200Y-85039380I0J147500D01*
G01*
X130312200Y-84744380D01*
G75*
G02*
X130459700Y-84596880I147500J0D01*
G01*
G37*
G04 #@! TD.AperFunction*
G04 #@! TO.P,C2,2*
G04 #@! TO.N,BGND*
G04 #@! TA.AperFunction,SMDPad,CuDef*
G36*
G01*
X130459700Y-85566880D02*
X130804700Y-85566880D01*
G75*
G02*
X130952200Y-85714380I0J-147500D01*
G01*
X130952200Y-86009380D01*
G75*
G02*
X130804700Y-86156880I-147500J0D01*
G01*
X130459700Y-86156880D01*
G75*
G02*
X130312200Y-86009380I0J147500D01*
G01*
X130312200Y-85714380D01*
G75*
G02*
X130459700Y-85566880I147500J0D01*
G01*
G37*
G04 #@! TD.AperFunction*
G04 #@! TD*
G04 #@! TO.P,C1,2*
G04 #@! TO.N,BUCK_BST*
G04 #@! TA.AperFunction,SMDPad,CuDef*
G36*
G01*
X126505200Y-82367340D02*
X126505200Y-82712340D01*
G75*
G02*
X126357700Y-82859840I-147500J0D01*
G01*
X126062700Y-82859840D01*
G75*
G02*
X125915200Y-82712340I0J147500D01*
G01*
X125915200Y-82367340D01*
G75*
G02*
X126062700Y-82219840I147500J0D01*
G01*
X126357700Y-82219840D01*
G75*
G02*
X126505200Y-82367340I0J-147500D01*
G01*
G37*
G04 #@! TD.AperFunction*
G04 #@! TO.P,C1,1*
G04 #@! TO.N,BUCK_SW*
G04 #@! TA.AperFunction,SMDPad,CuDef*
G36*
G01*
X127475200Y-82367340D02*
X127475200Y-82712340D01*
G75*
G02*
X127327700Y-82859840I-147500J0D01*
G01*
X127032700Y-82859840D01*
G75*
G02*
X126885200Y-82712340I0J147500D01*
G01*
X126885200Y-82367340D01*
G75*
G02*
X127032700Y-82219840I147500J0D01*
G01*
X127327700Y-82219840D01*
G75*
G02*
X127475200Y-82367340I0J-147500D01*
G01*
G37*
G04 #@! TD.AperFunction*
G04 #@! TD*
G04 #@! TO.P,R6,1*
G04 #@! TO.N,VDD*
G04 #@! TA.AperFunction,SMDPad,CuDef*
G36*
G01*
X142870140Y-84061080D02*
X143215140Y-84061080D01*
G75*
G02*
X143362640Y-84208580I0J-147500D01*
G01*
X143362640Y-84503580D01*
G75*
G02*
X143215140Y-84651080I-147500J0D01*
G01*
X142870140Y-84651080D01*
G75*
G02*
X142722640Y-84503580I0J147500D01*
G01*
X142722640Y-84208580D01*
G75*
G02*
X142870140Y-84061080I147500J0D01*
G01*
G37*
G04 #@! TD.AperFunction*
G04 #@! TO.P,R6,2*
G04 #@! TO.N,SPI1_MISO*
G04 #@! TA.AperFunction,SMDPad,CuDef*
G36*
G01*
X142870140Y-85031080D02*
X143215140Y-85031080D01*
G75*
G02*
X143362640Y-85178580I0J-147500D01*
G01*
X143362640Y-85473580D01*
G75*
G02*
X143215140Y-85621080I-147500J0D01*
G01*
X142870140Y-85621080D01*
G75*
G02*
X142722640Y-85473580I0J147500D01*
G01*
X142722640Y-85178580D01*
G75*
G02*
X142870140Y-85031080I147500J0D01*
G01*
G37*
G04 #@! TD.AperFunction*
G04 #@! TD*
G04 #@! TO.P,C12,1*
G04 #@! TO.N,BGND*
G04 #@! TA.AperFunction,SMDPad,CuDef*
G36*
G01*
X146314760Y-77509540D02*
X146314760Y-77164540D01*
G75*
G02*
X146462260Y-77017040I147500J0D01*
G01*
X146757260Y-77017040D01*
G75*
G02*
X146904760Y-77164540I0J-147500D01*
G01*
X146904760Y-77509540D01*
G75*
G02*
X146757260Y-77657040I-147500J0D01*
G01*
X146462260Y-77657040D01*
G75*
G02*
X146314760Y-77509540I0J147500D01*
G01*
G37*
G04 #@! TD.AperFunction*
G04 #@! TO.P,C12,2*
G04 #@! TO.N,+3.3VA*
G04 #@! TA.AperFunction,SMDPad,CuDef*
G36*
G01*
X147284760Y-77509540D02*
X147284760Y-77164540D01*
G75*
G02*
X147432260Y-77017040I147500J0D01*
G01*
X147727260Y-77017040D01*
G75*
G02*
X147874760Y-77164540I0J-147500D01*
G01*
X147874760Y-77509540D01*
G75*
G02*
X147727260Y-77657040I-147500J0D01*
G01*
X147432260Y-77657040D01*
G75*
G02*
X147284760Y-77509540I0J147500D01*
G01*
G37*
G04 #@! TD.AperFunction*
G04 #@! TD*
D19*
G04 #@! TO.P,U2,P$4*
G04 #@! TO.N,N/C*
X145654140Y-122464880D03*
G04 #@! TO.P,U2,P$3*
X156654140Y-122464880D03*
D20*
G04 #@! TO.P,U2,+*
G04 #@! TO.N,VIN*
X148654140Y-112464880D03*
G04 #@! TO.P,U2,-*
G04 #@! TO.N,BGND*
X153654140Y-112464880D03*
G04 #@! TD*
G04 #@! TO.P,U1,-*
G04 #@! TO.N,BGND*
X139303140Y-112464880D03*
G04 #@! TO.P,U1,+*
G04 #@! TO.N,VIN*
X134303140Y-112464880D03*
D19*
G04 #@! TO.P,U1,P$3*
G04 #@! TO.N,N/C*
X142303140Y-122464880D03*
G04 #@! TO.P,U1,P$4*
X131303140Y-122464880D03*
G04 #@! TD*
G04 #@! TO.P,R14,2*
G04 #@! TO.N,BGND*
G04 #@! TA.AperFunction,SMDPad,CuDef*
G36*
G01*
X132260840Y-96464340D02*
X132260840Y-96809340D01*
G75*
G02*
X132113340Y-96956840I-147500J0D01*
G01*
X131818340Y-96956840D01*
G75*
G02*
X131670840Y-96809340I0J147500D01*
G01*
X131670840Y-96464340D01*
G75*
G02*
X131818340Y-96316840I147500J0D01*
G01*
X132113340Y-96316840D01*
G75*
G02*
X132260840Y-96464340I0J-147500D01*
G01*
G37*
G04 #@! TD.AperFunction*
G04 #@! TO.P,R14,1*
G04 #@! TO.N,FB*
G04 #@! TA.AperFunction,SMDPad,CuDef*
G36*
G01*
X133230840Y-96464340D02*
X133230840Y-96809340D01*
G75*
G02*
X133083340Y-96956840I-147500J0D01*
G01*
X132788340Y-96956840D01*
G75*
G02*
X132640840Y-96809340I0J147500D01*
G01*
X132640840Y-96464340D01*
G75*
G02*
X132788340Y-96316840I147500J0D01*
G01*
X133083340Y-96316840D01*
G75*
G02*
X133230840Y-96464340I0J-147500D01*
G01*
G37*
G04 #@! TD.AperFunction*
G04 #@! TD*
G04 #@! TO.P,C3,1*
G04 #@! TO.N,BGND*
G04 #@! TA.AperFunction,SMDPad,CuDef*
G36*
G01*
X127850680Y-82722500D02*
X127850680Y-82377500D01*
G75*
G02*
X127998180Y-82230000I147500J0D01*
G01*
X128293180Y-82230000D01*
G75*
G02*
X128440680Y-82377500I0J-147500D01*
G01*
X128440680Y-82722500D01*
G75*
G02*
X128293180Y-82870000I-147500J0D01*
G01*
X127998180Y-82870000D01*
G75*
G02*
X127850680Y-82722500I0J147500D01*
G01*
G37*
G04 #@! TD.AperFunction*
G04 #@! TO.P,C3,2*
G04 #@! TO.N,VDD*
G04 #@! TA.AperFunction,SMDPad,CuDef*
G36*
G01*
X128820680Y-82722500D02*
X128820680Y-82377500D01*
G75*
G02*
X128968180Y-82230000I147500J0D01*
G01*
X129263180Y-82230000D01*
G75*
G02*
X129410680Y-82377500I0J-147500D01*
G01*
X129410680Y-82722500D01*
G75*
G02*
X129263180Y-82870000I-147500J0D01*
G01*
X128968180Y-82870000D01*
G75*
G02*
X128820680Y-82722500I0J147500D01*
G01*
G37*
G04 #@! TD.AperFunction*
G04 #@! TD*
G04 #@! TO.P,C4,2*
G04 #@! TO.N,VDD*
G04 #@! TA.AperFunction,SMDPad,CuDef*
G36*
G01*
X128820680Y-81716660D02*
X128820680Y-81371660D01*
G75*
G02*
X128968180Y-81224160I147500J0D01*
G01*
X129263180Y-81224160D01*
G75*
G02*
X129410680Y-81371660I0J-147500D01*
G01*
X129410680Y-81716660D01*
G75*
G02*
X129263180Y-81864160I-147500J0D01*
G01*
X128968180Y-81864160D01*
G75*
G02*
X128820680Y-81716660I0J147500D01*
G01*
G37*
G04 #@! TD.AperFunction*
G04 #@! TO.P,C4,1*
G04 #@! TO.N,BGND*
G04 #@! TA.AperFunction,SMDPad,CuDef*
G36*
G01*
X127850680Y-81716660D02*
X127850680Y-81371660D01*
G75*
G02*
X127998180Y-81224160I147500J0D01*
G01*
X128293180Y-81224160D01*
G75*
G02*
X128440680Y-81371660I0J-147500D01*
G01*
X128440680Y-81716660D01*
G75*
G02*
X128293180Y-81864160I-147500J0D01*
G01*
X127998180Y-81864160D01*
G75*
G02*
X127850680Y-81716660I0J147500D01*
G01*
G37*
G04 #@! TD.AperFunction*
G04 #@! TD*
G04 #@! TO.P,C5,2*
G04 #@! TO.N,VDD*
G04 #@! TA.AperFunction,SMDPad,CuDef*
G36*
G01*
X156017341Y-80686151D02*
X156362341Y-80686151D01*
G75*
G02*
X156509841Y-80833651I0J-147500D01*
G01*
X156509841Y-81128651D01*
G75*
G02*
X156362341Y-81276151I-147500J0D01*
G01*
X156017341Y-81276151D01*
G75*
G02*
X155869841Y-81128651I0J147500D01*
G01*
X155869841Y-80833651D01*
G75*
G02*
X156017341Y-80686151I147500J0D01*
G01*
G37*
G04 #@! TD.AperFunction*
G04 #@! TO.P,C5,1*
G04 #@! TO.N,BGND*
G04 #@! TA.AperFunction,SMDPad,CuDef*
G36*
G01*
X156017341Y-79716151D02*
X156362341Y-79716151D01*
G75*
G02*
X156509841Y-79863651I0J-147500D01*
G01*
X156509841Y-80158651D01*
G75*
G02*
X156362341Y-80306151I-147500J0D01*
G01*
X156017341Y-80306151D01*
G75*
G02*
X155869841Y-80158651I0J147500D01*
G01*
X155869841Y-79863651D01*
G75*
G02*
X156017341Y-79716151I147500J0D01*
G01*
G37*
G04 #@! TD.AperFunction*
G04 #@! TD*
G04 #@! TO.P,C6,1*
G04 #@! TO.N,BGND*
G04 #@! TA.AperFunction,SMDPad,CuDef*
G36*
G01*
X157695841Y-83608151D02*
X157350841Y-83608151D01*
G75*
G02*
X157203341Y-83460651I0J147500D01*
G01*
X157203341Y-83165651D01*
G75*
G02*
X157350841Y-83018151I147500J0D01*
G01*
X157695841Y-83018151D01*
G75*
G02*
X157843341Y-83165651I0J-147500D01*
G01*
X157843341Y-83460651D01*
G75*
G02*
X157695841Y-83608151I-147500J0D01*
G01*
G37*
G04 #@! TD.AperFunction*
G04 #@! TO.P,C6,2*
G04 #@! TO.N,VDD*
G04 #@! TA.AperFunction,SMDPad,CuDef*
G36*
G01*
X157695841Y-82638151D02*
X157350841Y-82638151D01*
G75*
G02*
X157203341Y-82490651I0J147500D01*
G01*
X157203341Y-82195651D01*
G75*
G02*
X157350841Y-82048151I147500J0D01*
G01*
X157695841Y-82048151D01*
G75*
G02*
X157843341Y-82195651I0J-147500D01*
G01*
X157843341Y-82490651D01*
G75*
G02*
X157695841Y-82638151I-147500J0D01*
G01*
G37*
G04 #@! TD.AperFunction*
G04 #@! TD*
G04 #@! TO.P,C7,2*
G04 #@! TO.N,VDD*
G04 #@! TA.AperFunction,SMDPad,CuDef*
G36*
G01*
X145109760Y-93762900D02*
X145109760Y-93417900D01*
G75*
G02*
X145257260Y-93270400I147500J0D01*
G01*
X145552260Y-93270400D01*
G75*
G02*
X145699760Y-93417900I0J-147500D01*
G01*
X145699760Y-93762900D01*
G75*
G02*
X145552260Y-93910400I-147500J0D01*
G01*
X145257260Y-93910400D01*
G75*
G02*
X145109760Y-93762900I0J147500D01*
G01*
G37*
G04 #@! TD.AperFunction*
G04 #@! TO.P,C7,1*
G04 #@! TO.N,BGND*
G04 #@! TA.AperFunction,SMDPad,CuDef*
G36*
G01*
X144139760Y-93762900D02*
X144139760Y-93417900D01*
G75*
G02*
X144287260Y-93270400I147500J0D01*
G01*
X144582260Y-93270400D01*
G75*
G02*
X144729760Y-93417900I0J-147500D01*
G01*
X144729760Y-93762900D01*
G75*
G02*
X144582260Y-93910400I-147500J0D01*
G01*
X144287260Y-93910400D01*
G75*
G02*
X144139760Y-93762900I0J147500D01*
G01*
G37*
G04 #@! TD.AperFunction*
G04 #@! TD*
G04 #@! TO.P,C8,1*
G04 #@! TO.N,BGND*
G04 #@! TA.AperFunction,SMDPad,CuDef*
G36*
G01*
X144678341Y-92769652D02*
X144333341Y-92769652D01*
G75*
G02*
X144185841Y-92622152I0J147500D01*
G01*
X144185841Y-92327152D01*
G75*
G02*
X144333341Y-92179652I147500J0D01*
G01*
X144678341Y-92179652D01*
G75*
G02*
X144825841Y-92327152I0J-147500D01*
G01*
X144825841Y-92622152D01*
G75*
G02*
X144678341Y-92769652I-147500J0D01*
G01*
G37*
G04 #@! TD.AperFunction*
G04 #@! TO.P,C8,2*
G04 #@! TO.N,VDD*
G04 #@! TA.AperFunction,SMDPad,CuDef*
G36*
G01*
X144678341Y-91799652D02*
X144333341Y-91799652D01*
G75*
G02*
X144185841Y-91652152I0J147500D01*
G01*
X144185841Y-91357152D01*
G75*
G02*
X144333341Y-91209652I147500J0D01*
G01*
X144678341Y-91209652D01*
G75*
G02*
X144825841Y-91357152I0J-147500D01*
G01*
X144825841Y-91652152D01*
G75*
G02*
X144678341Y-91799652I-147500J0D01*
G01*
G37*
G04 #@! TD.AperFunction*
G04 #@! TD*
G04 #@! TO.P,C9,2*
G04 #@! TO.N,VDD*
G04 #@! TA.AperFunction,SMDPad,CuDef*
G36*
G01*
X154937840Y-80668652D02*
X155282840Y-80668652D01*
G75*
G02*
X155430340Y-80816152I0J-147500D01*
G01*
X155430340Y-81111152D01*
G75*
G02*
X155282840Y-81258652I-147500J0D01*
G01*
X154937840Y-81258652D01*
G75*
G02*
X154790340Y-81111152I0J147500D01*
G01*
X154790340Y-80816152D01*
G75*
G02*
X154937840Y-80668652I147500J0D01*
G01*
G37*
G04 #@! TD.AperFunction*
G04 #@! TO.P,C9,1*
G04 #@! TO.N,BGND*
G04 #@! TA.AperFunction,SMDPad,CuDef*
G36*
G01*
X154937840Y-79698652D02*
X155282840Y-79698652D01*
G75*
G02*
X155430340Y-79846152I0J-147500D01*
G01*
X155430340Y-80141152D01*
G75*
G02*
X155282840Y-80288652I-147500J0D01*
G01*
X154937840Y-80288652D01*
G75*
G02*
X154790340Y-80141152I0J147500D01*
G01*
X154790340Y-79846152D01*
G75*
G02*
X154937840Y-79698652I147500J0D01*
G01*
G37*
G04 #@! TD.AperFunction*
G04 #@! TD*
G04 #@! TO.P,C10,1*
G04 #@! TO.N,BGND*
G04 #@! TA.AperFunction,SMDPad,CuDef*
G36*
G01*
X156224760Y-92442900D02*
X156224760Y-92787900D01*
G75*
G02*
X156077260Y-92935400I-147500J0D01*
G01*
X155782260Y-92935400D01*
G75*
G02*
X155634760Y-92787900I0J147500D01*
G01*
X155634760Y-92442900D01*
G75*
G02*
X155782260Y-92295400I147500J0D01*
G01*
X156077260Y-92295400D01*
G75*
G02*
X156224760Y-92442900I0J-147500D01*
G01*
G37*
G04 #@! TD.AperFunction*
G04 #@! TO.P,C10,2*
G04 #@! TO.N,VDD*
G04 #@! TA.AperFunction,SMDPad,CuDef*
G36*
G01*
X155254760Y-92442900D02*
X155254760Y-92787900D01*
G75*
G02*
X155107260Y-92935400I-147500J0D01*
G01*
X154812260Y-92935400D01*
G75*
G02*
X154664760Y-92787900I0J147500D01*
G01*
X154664760Y-92442900D01*
G75*
G02*
X154812260Y-92295400I147500J0D01*
G01*
X155107260Y-92295400D01*
G75*
G02*
X155254760Y-92442900I0J-147500D01*
G01*
G37*
G04 #@! TD.AperFunction*
G04 #@! TD*
G04 #@! TO.P,C13,2*
G04 #@! TO.N,+3.3VA*
G04 #@! TA.AperFunction,SMDPad,CuDef*
G36*
G01*
X145349760Y-77509540D02*
X145349760Y-77164540D01*
G75*
G02*
X145497260Y-77017040I147500J0D01*
G01*
X145792260Y-77017040D01*
G75*
G02*
X145939760Y-77164540I0J-147500D01*
G01*
X145939760Y-77509540D01*
G75*
G02*
X145792260Y-77657040I-147500J0D01*
G01*
X145497260Y-77657040D01*
G75*
G02*
X145349760Y-77509540I0J147500D01*
G01*
G37*
G04 #@! TD.AperFunction*
G04 #@! TO.P,C13,1*
G04 #@! TO.N,BGND*
G04 #@! TA.AperFunction,SMDPad,CuDef*
G36*
G01*
X144379760Y-77509540D02*
X144379760Y-77164540D01*
G75*
G02*
X144527260Y-77017040I147500J0D01*
G01*
X144822260Y-77017040D01*
G75*
G02*
X144969760Y-77164540I0J-147500D01*
G01*
X144969760Y-77509540D01*
G75*
G02*
X144822260Y-77657040I-147500J0D01*
G01*
X144527260Y-77657040D01*
G75*
G02*
X144379760Y-77509540I0J147500D01*
G01*
G37*
G04 #@! TD.AperFunction*
G04 #@! TD*
G04 #@! TO.P,C15,1*
G04 #@! TO.N,BGND*
G04 #@! TA.AperFunction,SMDPad,CuDef*
G36*
G01*
X131454940Y-94566960D02*
X131109940Y-94566960D01*
G75*
G02*
X130962440Y-94419460I0J147500D01*
G01*
X130962440Y-94124460D01*
G75*
G02*
X131109940Y-93976960I147500J0D01*
G01*
X131454940Y-93976960D01*
G75*
G02*
X131602440Y-94124460I0J-147500D01*
G01*
X131602440Y-94419460D01*
G75*
G02*
X131454940Y-94566960I-147500J0D01*
G01*
G37*
G04 #@! TD.AperFunction*
G04 #@! TO.P,C15,2*
G04 #@! TO.N,VIN*
G04 #@! TA.AperFunction,SMDPad,CuDef*
G36*
G01*
X131454940Y-93596960D02*
X131109940Y-93596960D01*
G75*
G02*
X130962440Y-93449460I0J147500D01*
G01*
X130962440Y-93154460D01*
G75*
G02*
X131109940Y-93006960I147500J0D01*
G01*
X131454940Y-93006960D01*
G75*
G02*
X131602440Y-93154460I0J-147500D01*
G01*
X131602440Y-93449460D01*
G75*
G02*
X131454940Y-93596960I-147500J0D01*
G01*
G37*
G04 #@! TD.AperFunction*
G04 #@! TD*
G04 #@! TO.P,C16,1*
G04 #@! TO.N,Net-(C16-Pad1)*
G04 #@! TA.AperFunction,SMDPad,CuDef*
G36*
G01*
X134152420Y-96858040D02*
X133807420Y-96858040D01*
G75*
G02*
X133659920Y-96710540I0J147500D01*
G01*
X133659920Y-96415540D01*
G75*
G02*
X133807420Y-96268040I147500J0D01*
G01*
X134152420Y-96268040D01*
G75*
G02*
X134299920Y-96415540I0J-147500D01*
G01*
X134299920Y-96710540D01*
G75*
G02*
X134152420Y-96858040I-147500J0D01*
G01*
G37*
G04 #@! TD.AperFunction*
G04 #@! TO.P,C16,2*
G04 #@! TO.N,Net-(C16-Pad2)*
G04 #@! TA.AperFunction,SMDPad,CuDef*
G36*
G01*
X134152420Y-95888040D02*
X133807420Y-95888040D01*
G75*
G02*
X133659920Y-95740540I0J147500D01*
G01*
X133659920Y-95445540D01*
G75*
G02*
X133807420Y-95298040I147500J0D01*
G01*
X134152420Y-95298040D01*
G75*
G02*
X134299920Y-95445540I0J-147500D01*
G01*
X134299920Y-95740540D01*
G75*
G02*
X134152420Y-95888040I-147500J0D01*
G01*
G37*
G04 #@! TD.AperFunction*
G04 #@! TD*
G04 #@! TO.P,C17,1*
G04 #@! TO.N,BGND*
G04 #@! TA.AperFunction,SMDPad,CuDef*
G36*
G01*
X133713440Y-86238300D02*
X133713440Y-86583300D01*
G75*
G02*
X133565940Y-86730800I-147500J0D01*
G01*
X133270940Y-86730800D01*
G75*
G02*
X133123440Y-86583300I0J147500D01*
G01*
X133123440Y-86238300D01*
G75*
G02*
X133270940Y-86090800I147500J0D01*
G01*
X133565940Y-86090800D01*
G75*
G02*
X133713440Y-86238300I0J-147500D01*
G01*
G37*
G04 #@! TD.AperFunction*
G04 #@! TO.P,C17,2*
G04 #@! TO.N,Net-(C17-Pad2)*
G04 #@! TA.AperFunction,SMDPad,CuDef*
G36*
G01*
X132743440Y-86238300D02*
X132743440Y-86583300D01*
G75*
G02*
X132595940Y-86730800I-147500J0D01*
G01*
X132300940Y-86730800D01*
G75*
G02*
X132153440Y-86583300I0J147500D01*
G01*
X132153440Y-86238300D01*
G75*
G02*
X132300940Y-86090800I147500J0D01*
G01*
X132595940Y-86090800D01*
G75*
G02*
X132743440Y-86238300I0J-147500D01*
G01*
G37*
G04 #@! TD.AperFunction*
G04 #@! TD*
G04 #@! TO.P,C18,2*
G04 #@! TO.N,SW*
G04 #@! TA.AperFunction,SMDPad,CuDef*
G36*
G01*
X131109940Y-92046560D02*
X131454940Y-92046560D01*
G75*
G02*
X131602440Y-92194060I0J-147500D01*
G01*
X131602440Y-92489060D01*
G75*
G02*
X131454940Y-92636560I-147500J0D01*
G01*
X131109940Y-92636560D01*
G75*
G02*
X130962440Y-92489060I0J147500D01*
G01*
X130962440Y-92194060D01*
G75*
G02*
X131109940Y-92046560I147500J0D01*
G01*
G37*
G04 #@! TD.AperFunction*
G04 #@! TO.P,C18,1*
G04 #@! TO.N,CB*
G04 #@! TA.AperFunction,SMDPad,CuDef*
G36*
G01*
X131109940Y-91076560D02*
X131454940Y-91076560D01*
G75*
G02*
X131602440Y-91224060I0J-147500D01*
G01*
X131602440Y-91519060D01*
G75*
G02*
X131454940Y-91666560I-147500J0D01*
G01*
X131109940Y-91666560D01*
G75*
G02*
X130962440Y-91519060I0J147500D01*
G01*
X130962440Y-91224060D01*
G75*
G02*
X131109940Y-91076560I147500J0D01*
G01*
G37*
G04 #@! TD.AperFunction*
G04 #@! TD*
G04 #@! TO.P,C19,2*
G04 #@! TO.N,Net-(C19-Pad2)*
G04 #@! TA.AperFunction,SMDPad,CuDef*
G36*
G01*
X143044890Y-88316320D02*
X142532390Y-88316320D01*
G75*
G02*
X142313640Y-88097570I0J218750D01*
G01*
X142313640Y-87660070D01*
G75*
G02*
X142532390Y-87441320I218750J0D01*
G01*
X143044890Y-87441320D01*
G75*
G02*
X143263640Y-87660070I0J-218750D01*
G01*
X143263640Y-88097570D01*
G75*
G02*
X143044890Y-88316320I-218750J0D01*
G01*
G37*
G04 #@! TD.AperFunction*
G04 #@! TO.P,C19,1*
G04 #@! TO.N,BGND*
G04 #@! TA.AperFunction,SMDPad,CuDef*
G36*
G01*
X143044890Y-89891320D02*
X142532390Y-89891320D01*
G75*
G02*
X142313640Y-89672570I0J218750D01*
G01*
X142313640Y-89235070D01*
G75*
G02*
X142532390Y-89016320I218750J0D01*
G01*
X143044890Y-89016320D01*
G75*
G02*
X143263640Y-89235070I0J-218750D01*
G01*
X143263640Y-89672570D01*
G75*
G02*
X143044890Y-89891320I-218750J0D01*
G01*
G37*
G04 #@! TD.AperFunction*
G04 #@! TD*
G04 #@! TO.P,C21,2*
G04 #@! TO.N,Net-(C21-Pad2)*
G04 #@! TA.AperFunction,SMDPad,CuDef*
G36*
G01*
X135595580Y-96260280D02*
X135940580Y-96260280D01*
G75*
G02*
X136088080Y-96407780I0J-147500D01*
G01*
X136088080Y-96702780D01*
G75*
G02*
X135940580Y-96850280I-147500J0D01*
G01*
X135595580Y-96850280D01*
G75*
G02*
X135448080Y-96702780I0J147500D01*
G01*
X135448080Y-96407780D01*
G75*
G02*
X135595580Y-96260280I147500J0D01*
G01*
G37*
G04 #@! TD.AperFunction*
G04 #@! TO.P,C21,1*
G04 #@! TO.N,VIN*
G04 #@! TA.AperFunction,SMDPad,CuDef*
G36*
G01*
X135595580Y-95290280D02*
X135940580Y-95290280D01*
G75*
G02*
X136088080Y-95437780I0J-147500D01*
G01*
X136088080Y-95732780D01*
G75*
G02*
X135940580Y-95880280I-147500J0D01*
G01*
X135595580Y-95880280D01*
G75*
G02*
X135448080Y-95732780I0J147500D01*
G01*
X135448080Y-95437780D01*
G75*
G02*
X135595580Y-95290280I147500J0D01*
G01*
G37*
G04 #@! TD.AperFunction*
G04 #@! TD*
G04 #@! TO.P,C22,1*
G04 #@! TO.N,+5VD*
G04 #@! TA.AperFunction,SMDPad,CuDef*
G36*
G01*
X129024160Y-91231500D02*
X129024160Y-90886500D01*
G75*
G02*
X129171660Y-90739000I147500J0D01*
G01*
X129466660Y-90739000D01*
G75*
G02*
X129614160Y-90886500I0J-147500D01*
G01*
X129614160Y-91231500D01*
G75*
G02*
X129466660Y-91379000I-147500J0D01*
G01*
X129171660Y-91379000D01*
G75*
G02*
X129024160Y-91231500I0J147500D01*
G01*
G37*
G04 #@! TD.AperFunction*
G04 #@! TO.P,C22,2*
G04 #@! TO.N,BGND*
G04 #@! TA.AperFunction,SMDPad,CuDef*
G36*
G01*
X129994160Y-91231500D02*
X129994160Y-90886500D01*
G75*
G02*
X130141660Y-90739000I147500J0D01*
G01*
X130436660Y-90739000D01*
G75*
G02*
X130584160Y-90886500I0J-147500D01*
G01*
X130584160Y-91231500D01*
G75*
G02*
X130436660Y-91379000I-147500J0D01*
G01*
X130141660Y-91379000D01*
G75*
G02*
X129994160Y-91231500I0J147500D01*
G01*
G37*
G04 #@! TD.AperFunction*
G04 #@! TD*
G04 #@! TO.P,C25,1*
G04 #@! TO.N,BGND*
G04 #@! TA.AperFunction,SMDPad,CuDef*
G36*
G01*
X154116820Y-78580200D02*
X153771820Y-78580200D01*
G75*
G02*
X153624320Y-78432700I0J147500D01*
G01*
X153624320Y-78137700D01*
G75*
G02*
X153771820Y-77990200I147500J0D01*
G01*
X154116820Y-77990200D01*
G75*
G02*
X154264320Y-78137700I0J-147500D01*
G01*
X154264320Y-78432700D01*
G75*
G02*
X154116820Y-78580200I-147500J0D01*
G01*
G37*
G04 #@! TD.AperFunction*
G04 #@! TO.P,C25,2*
G04 #@! TO.N,HSE_IN*
G04 #@! TA.AperFunction,SMDPad,CuDef*
G36*
G01*
X154116820Y-77610200D02*
X153771820Y-77610200D01*
G75*
G02*
X153624320Y-77462700I0J147500D01*
G01*
X153624320Y-77167700D01*
G75*
G02*
X153771820Y-77020200I147500J0D01*
G01*
X154116820Y-77020200D01*
G75*
G02*
X154264320Y-77167700I0J-147500D01*
G01*
X154264320Y-77462700D01*
G75*
G02*
X154116820Y-77610200I-147500J0D01*
G01*
G37*
G04 #@! TD.AperFunction*
G04 #@! TD*
G04 #@! TO.P,C26,2*
G04 #@! TO.N,Net-(C26-Pad2)*
G04 #@! TA.AperFunction,SMDPad,CuDef*
G36*
G01*
X148478621Y-77188852D02*
X148823621Y-77188852D01*
G75*
G02*
X148971121Y-77336352I0J-147500D01*
G01*
X148971121Y-77631352D01*
G75*
G02*
X148823621Y-77778852I-147500J0D01*
G01*
X148478621Y-77778852D01*
G75*
G02*
X148331121Y-77631352I0J147500D01*
G01*
X148331121Y-77336352D01*
G75*
G02*
X148478621Y-77188852I147500J0D01*
G01*
G37*
G04 #@! TD.AperFunction*
G04 #@! TO.P,C26,1*
G04 #@! TO.N,BGND*
G04 #@! TA.AperFunction,SMDPad,CuDef*
G36*
G01*
X148478621Y-76218852D02*
X148823621Y-76218852D01*
G75*
G02*
X148971121Y-76366352I0J-147500D01*
G01*
X148971121Y-76661352D01*
G75*
G02*
X148823621Y-76808852I-147500J0D01*
G01*
X148478621Y-76808852D01*
G75*
G02*
X148331121Y-76661352I0J147500D01*
G01*
X148331121Y-76366352D01*
G75*
G02*
X148478621Y-76218852I147500J0D01*
G01*
G37*
G04 #@! TD.AperFunction*
G04 #@! TD*
G04 #@! TO.P,C27,1*
G04 #@! TO.N,VDD*
G04 #@! TA.AperFunction,SMDPad,CuDef*
G36*
G01*
X138414400Y-85384420D02*
X138414400Y-85039420D01*
G75*
G02*
X138561900Y-84891920I147500J0D01*
G01*
X138856900Y-84891920D01*
G75*
G02*
X139004400Y-85039420I0J-147500D01*
G01*
X139004400Y-85384420D01*
G75*
G02*
X138856900Y-85531920I-147500J0D01*
G01*
X138561900Y-85531920D01*
G75*
G02*
X138414400Y-85384420I0J147500D01*
G01*
G37*
G04 #@! TD.AperFunction*
G04 #@! TO.P,C27,2*
G04 #@! TO.N,BGND*
G04 #@! TA.AperFunction,SMDPad,CuDef*
G36*
G01*
X139384400Y-85384420D02*
X139384400Y-85039420D01*
G75*
G02*
X139531900Y-84891920I147500J0D01*
G01*
X139826900Y-84891920D01*
G75*
G02*
X139974400Y-85039420I0J-147500D01*
G01*
X139974400Y-85384420D01*
G75*
G02*
X139826900Y-85531920I-147500J0D01*
G01*
X139531900Y-85531920D01*
G75*
G02*
X139384400Y-85384420I0J147500D01*
G01*
G37*
G04 #@! TD.AperFunction*
G04 #@! TD*
D21*
G04 #@! TO.P,D1,2*
G04 #@! TO.N,+5VD*
X127650240Y-94009480D03*
G04 #@! TO.P,D1,1*
G04 #@! TO.N,Net-(D1-Pad1)*
X127650240Y-90709480D03*
G04 #@! TD*
G04 #@! TO.P,D3,1*
G04 #@! TO.N,BUCK_SW*
X125267720Y-90211640D03*
G04 #@! TO.P,D3,2*
G04 #@! TO.N,BGND*
X125267720Y-93511640D03*
G04 #@! TD*
D18*
G04 #@! TO.P,D4,1*
G04 #@! TO.N,SW*
X130671840Y-96022160D03*
G04 #@! TO.P,D4,2*
G04 #@! TO.N,BGND*
X127371840Y-96022160D03*
G04 #@! TD*
G04 #@! TO.P,D7,2*
G04 #@! TO.N,VDD*
G04 #@! TA.AperFunction,SMDPad,CuDef*
G36*
G01*
X158607890Y-76769720D02*
X158095390Y-76769720D01*
G75*
G02*
X157876640Y-76550970I0J218750D01*
G01*
X157876640Y-76113470D01*
G75*
G02*
X158095390Y-75894720I218750J0D01*
G01*
X158607890Y-75894720D01*
G75*
G02*
X158826640Y-76113470I0J-218750D01*
G01*
X158826640Y-76550970D01*
G75*
G02*
X158607890Y-76769720I-218750J0D01*
G01*
G37*
G04 #@! TD.AperFunction*
G04 #@! TO.P,D7,1*
G04 #@! TO.N,Net-(D7-Pad1)*
G04 #@! TA.AperFunction,SMDPad,CuDef*
G36*
G01*
X158607890Y-78344720D02*
X158095390Y-78344720D01*
G75*
G02*
X157876640Y-78125970I0J218750D01*
G01*
X157876640Y-77688470D01*
G75*
G02*
X158095390Y-77469720I218750J0D01*
G01*
X158607890Y-77469720D01*
G75*
G02*
X158826640Y-77688470I0J-218750D01*
G01*
X158826640Y-78125970D01*
G75*
G02*
X158607890Y-78344720I-218750J0D01*
G01*
G37*
G04 #@! TD.AperFunction*
G04 #@! TD*
G04 #@! TO.P,F1,1*
G04 #@! TO.N,Net-(F1-Pad1)*
G04 #@! TA.AperFunction,SMDPad,CuDef*
G36*
G01*
X134270200Y-81521590D02*
X134270200Y-82034090D01*
G75*
G02*
X134051450Y-82252840I-218750J0D01*
G01*
X133613950Y-82252840D01*
G75*
G02*
X133395200Y-82034090I0J218750D01*
G01*
X133395200Y-81521590D01*
G75*
G02*
X133613950Y-81302840I218750J0D01*
G01*
X134051450Y-81302840D01*
G75*
G02*
X134270200Y-81521590I0J-218750D01*
G01*
G37*
G04 #@! TD.AperFunction*
G04 #@! TO.P,F1,2*
G04 #@! TO.N,Net-(D1-Pad1)*
G04 #@! TA.AperFunction,SMDPad,CuDef*
G36*
G01*
X132695200Y-81521590D02*
X132695200Y-82034090D01*
G75*
G02*
X132476450Y-82252840I-218750J0D01*
G01*
X132038950Y-82252840D01*
G75*
G02*
X131820200Y-82034090I0J218750D01*
G01*
X131820200Y-81521590D01*
G75*
G02*
X132038950Y-81302840I218750J0D01*
G01*
X132476450Y-81302840D01*
G75*
G02*
X132695200Y-81521590I0J-218750D01*
G01*
G37*
G04 #@! TD.AperFunction*
G04 #@! TD*
G04 #@! TO.P,FB1,2*
G04 #@! TO.N,Net-(D2-Pad1)*
G04 #@! TA.AperFunction,SMDPad,CuDef*
G36*
G01*
X133286920Y-83976530D02*
X133286920Y-83064030D01*
G75*
G02*
X133530670Y-82820280I243750J0D01*
G01*
X134018170Y-82820280D01*
G75*
G02*
X134261920Y-83064030I0J-243750D01*
G01*
X134261920Y-83976530D01*
G75*
G02*
X134018170Y-84220280I-243750J0D01*
G01*
X133530670Y-84220280D01*
G75*
G02*
X133286920Y-83976530I0J243750D01*
G01*
G37*
G04 #@! TD.AperFunction*
G04 #@! TO.P,FB1,1*
G04 #@! TO.N,Net-(C2-Pad1)*
G04 #@! TA.AperFunction,SMDPad,CuDef*
G36*
G01*
X131411920Y-83976530D02*
X131411920Y-83064030D01*
G75*
G02*
X131655670Y-82820280I243750J0D01*
G01*
X132143170Y-82820280D01*
G75*
G02*
X132386920Y-83064030I0J-243750D01*
G01*
X132386920Y-83976530D01*
G75*
G02*
X132143170Y-84220280I-243750J0D01*
G01*
X131655670Y-84220280D01*
G75*
G02*
X131411920Y-83976530I0J243750D01*
G01*
G37*
G04 #@! TD.AperFunction*
G04 #@! TD*
G04 #@! TO.P,FB2,1*
G04 #@! TO.N,+3.3VA*
G04 #@! TA.AperFunction,SMDPad,CuDef*
G36*
G01*
X147719760Y-78380790D02*
X147719760Y-79293290D01*
G75*
G02*
X147476010Y-79537040I-243750J0D01*
G01*
X146988510Y-79537040D01*
G75*
G02*
X146744760Y-79293290I0J243750D01*
G01*
X146744760Y-78380790D01*
G75*
G02*
X146988510Y-78137040I243750J0D01*
G01*
X147476010Y-78137040D01*
G75*
G02*
X147719760Y-78380790I0J-243750D01*
G01*
G37*
G04 #@! TD.AperFunction*
G04 #@! TO.P,FB2,2*
G04 #@! TO.N,VDD*
G04 #@! TA.AperFunction,SMDPad,CuDef*
G36*
G01*
X145844760Y-78380790D02*
X145844760Y-79293290D01*
G75*
G02*
X145601010Y-79537040I-243750J0D01*
G01*
X145113510Y-79537040D01*
G75*
G02*
X144869760Y-79293290I0J243750D01*
G01*
X144869760Y-78380790D01*
G75*
G02*
X145113510Y-78137040I243750J0D01*
G01*
X145601010Y-78137040D01*
G75*
G02*
X145844760Y-78380790I0J-243750D01*
G01*
G37*
G04 #@! TD.AperFunction*
G04 #@! TD*
G04 #@! TO.P,L1,2*
G04 #@! TO.N,VDD*
G04 #@! TA.AperFunction,SMDPad,CuDef*
G36*
G01*
X130614130Y-82194920D02*
X130101630Y-82194920D01*
G75*
G02*
X129882880Y-81976170I0J218750D01*
G01*
X129882880Y-81538670D01*
G75*
G02*
X130101630Y-81319920I218750J0D01*
G01*
X130614130Y-81319920D01*
G75*
G02*
X130832880Y-81538670I0J-218750D01*
G01*
X130832880Y-81976170D01*
G75*
G02*
X130614130Y-82194920I-218750J0D01*
G01*
G37*
G04 #@! TD.AperFunction*
G04 #@! TO.P,L1,1*
G04 #@! TO.N,BUCK_SW*
G04 #@! TA.AperFunction,SMDPad,CuDef*
G36*
G01*
X130614130Y-83769920D02*
X130101630Y-83769920D01*
G75*
G02*
X129882880Y-83551170I0J218750D01*
G01*
X129882880Y-83113670D01*
G75*
G02*
X130101630Y-82894920I218750J0D01*
G01*
X130614130Y-82894920D01*
G75*
G02*
X130832880Y-83113670I0J-218750D01*
G01*
X130832880Y-83551170D01*
G75*
G02*
X130614130Y-83769920I-218750J0D01*
G01*
G37*
G04 #@! TD.AperFunction*
G04 #@! TD*
G04 #@! TO.P,L2,1*
G04 #@! TO.N,SW*
G04 #@! TA.AperFunction,SMDPad,CuDef*
G36*
G01*
X130004530Y-94376960D02*
X129492030Y-94376960D01*
G75*
G02*
X129273280Y-94158210I0J218750D01*
G01*
X129273280Y-93720710D01*
G75*
G02*
X129492030Y-93501960I218750J0D01*
G01*
X130004530Y-93501960D01*
G75*
G02*
X130223280Y-93720710I0J-218750D01*
G01*
X130223280Y-94158210D01*
G75*
G02*
X130004530Y-94376960I-218750J0D01*
G01*
G37*
G04 #@! TD.AperFunction*
G04 #@! TO.P,L2,2*
G04 #@! TO.N,+5VD*
G04 #@! TA.AperFunction,SMDPad,CuDef*
G36*
G01*
X130004530Y-92801960D02*
X129492030Y-92801960D01*
G75*
G02*
X129273280Y-92583210I0J218750D01*
G01*
X129273280Y-92145710D01*
G75*
G02*
X129492030Y-91926960I218750J0D01*
G01*
X130004530Y-91926960D01*
G75*
G02*
X130223280Y-92145710I0J-218750D01*
G01*
X130223280Y-92583210D01*
G75*
G02*
X130004530Y-92801960I-218750J0D01*
G01*
G37*
G04 #@! TD.AperFunction*
G04 #@! TD*
D22*
G04 #@! TO.P,Q1,1*
G04 #@! TO.N,BGND*
X135376880Y-83748120D03*
G04 #@! TO.P,Q1,2*
G04 #@! TO.N,Net-(D2-Pad1)*
X137276880Y-83748120D03*
G04 #@! TO.P,Q1,3*
G04 #@! TO.N,Net-(F1-Pad1)*
X136326880Y-81748120D03*
G04 #@! TD*
G04 #@! TO.P,R1,1*
G04 #@! TO.N,VDD*
G04 #@! TA.AperFunction,SMDPad,CuDef*
G36*
G01*
X124597380Y-84061080D02*
X124942380Y-84061080D01*
G75*
G02*
X125089880Y-84208580I0J-147500D01*
G01*
X125089880Y-84503580D01*
G75*
G02*
X124942380Y-84651080I-147500J0D01*
G01*
X124597380Y-84651080D01*
G75*
G02*
X124449880Y-84503580I0J147500D01*
G01*
X124449880Y-84208580D01*
G75*
G02*
X124597380Y-84061080I147500J0D01*
G01*
G37*
G04 #@! TD.AperFunction*
G04 #@! TO.P,R1,2*
G04 #@! TO.N,BUCK_FB*
G04 #@! TA.AperFunction,SMDPad,CuDef*
G36*
G01*
X124597380Y-85031080D02*
X124942380Y-85031080D01*
G75*
G02*
X125089880Y-85178580I0J-147500D01*
G01*
X125089880Y-85473580D01*
G75*
G02*
X124942380Y-85621080I-147500J0D01*
G01*
X124597380Y-85621080D01*
G75*
G02*
X124449880Y-85473580I0J147500D01*
G01*
X124449880Y-85178580D01*
G75*
G02*
X124597380Y-85031080I147500J0D01*
G01*
G37*
G04 #@! TD.AperFunction*
G04 #@! TD*
G04 #@! TO.P,R2,1*
G04 #@! TO.N,Net-(C2-Pad1)*
G04 #@! TA.AperFunction,SMDPad,CuDef*
G36*
G01*
X129458940Y-84599560D02*
X129803940Y-84599560D01*
G75*
G02*
X129951440Y-84747060I0J-147500D01*
G01*
X129951440Y-85042060D01*
G75*
G02*
X129803940Y-85189560I-147500J0D01*
G01*
X129458940Y-85189560D01*
G75*
G02*
X129311440Y-85042060I0J147500D01*
G01*
X129311440Y-84747060D01*
G75*
G02*
X129458940Y-84599560I147500J0D01*
G01*
G37*
G04 #@! TD.AperFunction*
G04 #@! TO.P,R2,2*
G04 #@! TO.N,Net-(R2-Pad2)*
G04 #@! TA.AperFunction,SMDPad,CuDef*
G36*
G01*
X129458940Y-85569560D02*
X129803940Y-85569560D01*
G75*
G02*
X129951440Y-85717060I0J-147500D01*
G01*
X129951440Y-86012060D01*
G75*
G02*
X129803940Y-86159560I-147500J0D01*
G01*
X129458940Y-86159560D01*
G75*
G02*
X129311440Y-86012060I0J147500D01*
G01*
X129311440Y-85717060D01*
G75*
G02*
X129458940Y-85569560I147500J0D01*
G01*
G37*
G04 #@! TD.AperFunction*
G04 #@! TD*
G04 #@! TO.P,R3,1*
G04 #@! TO.N,BUCK_FB*
G04 #@! TA.AperFunction,SMDPad,CuDef*
G36*
G01*
X127015600Y-87040940D02*
X127015600Y-87385940D01*
G75*
G02*
X126868100Y-87533440I-147500J0D01*
G01*
X126573100Y-87533440D01*
G75*
G02*
X126425600Y-87385940I0J147500D01*
G01*
X126425600Y-87040940D01*
G75*
G02*
X126573100Y-86893440I147500J0D01*
G01*
X126868100Y-86893440D01*
G75*
G02*
X127015600Y-87040940I0J-147500D01*
G01*
G37*
G04 #@! TD.AperFunction*
G04 #@! TO.P,R3,2*
G04 #@! TO.N,Net-(R3-Pad2)*
G04 #@! TA.AperFunction,SMDPad,CuDef*
G36*
G01*
X126045600Y-87040940D02*
X126045600Y-87385940D01*
G75*
G02*
X125898100Y-87533440I-147500J0D01*
G01*
X125603100Y-87533440D01*
G75*
G02*
X125455600Y-87385940I0J147500D01*
G01*
X125455600Y-87040940D01*
G75*
G02*
X125603100Y-86893440I147500J0D01*
G01*
X125898100Y-86893440D01*
G75*
G02*
X126045600Y-87040940I0J-147500D01*
G01*
G37*
G04 #@! TD.AperFunction*
G04 #@! TD*
G04 #@! TO.P,R4,2*
G04 #@! TO.N,BGND*
G04 #@! TA.AperFunction,SMDPad,CuDef*
G36*
G01*
X127986160Y-87040940D02*
X127986160Y-87385940D01*
G75*
G02*
X127838660Y-87533440I-147500J0D01*
G01*
X127543660Y-87533440D01*
G75*
G02*
X127396160Y-87385940I0J147500D01*
G01*
X127396160Y-87040940D01*
G75*
G02*
X127543660Y-86893440I147500J0D01*
G01*
X127838660Y-86893440D01*
G75*
G02*
X127986160Y-87040940I0J-147500D01*
G01*
G37*
G04 #@! TD.AperFunction*
G04 #@! TO.P,R4,1*
G04 #@! TO.N,Net-(R2-Pad2)*
G04 #@! TA.AperFunction,SMDPad,CuDef*
G36*
G01*
X128956160Y-87040940D02*
X128956160Y-87385940D01*
G75*
G02*
X128808660Y-87533440I-147500J0D01*
G01*
X128513660Y-87533440D01*
G75*
G02*
X128366160Y-87385940I0J147500D01*
G01*
X128366160Y-87040940D01*
G75*
G02*
X128513660Y-86893440I147500J0D01*
G01*
X128808660Y-86893440D01*
G75*
G02*
X128956160Y-87040940I0J-147500D01*
G01*
G37*
G04 #@! TD.AperFunction*
G04 #@! TD*
G04 #@! TO.P,R5,1*
G04 #@! TO.N,Net-(R3-Pad2)*
G04 #@! TA.AperFunction,SMDPad,CuDef*
G36*
G01*
X124942380Y-87538640D02*
X124597380Y-87538640D01*
G75*
G02*
X124449880Y-87391140I0J147500D01*
G01*
X124449880Y-87096140D01*
G75*
G02*
X124597380Y-86948640I147500J0D01*
G01*
X124942380Y-86948640D01*
G75*
G02*
X125089880Y-87096140I0J-147500D01*
G01*
X125089880Y-87391140D01*
G75*
G02*
X124942380Y-87538640I-147500J0D01*
G01*
G37*
G04 #@! TD.AperFunction*
G04 #@! TO.P,R5,2*
G04 #@! TO.N,BGND*
G04 #@! TA.AperFunction,SMDPad,CuDef*
G36*
G01*
X124942380Y-86568640D02*
X124597380Y-86568640D01*
G75*
G02*
X124449880Y-86421140I0J147500D01*
G01*
X124449880Y-86126140D01*
G75*
G02*
X124597380Y-85978640I147500J0D01*
G01*
X124942380Y-85978640D01*
G75*
G02*
X125089880Y-86126140I0J-147500D01*
G01*
X125089880Y-86421140D01*
G75*
G02*
X124942380Y-86568640I-147500J0D01*
G01*
G37*
G04 #@! TD.AperFunction*
G04 #@! TD*
G04 #@! TO.P,R7,2*
G04 #@! TO.N,FAULT*
G04 #@! TA.AperFunction,SMDPad,CuDef*
G36*
G01*
X137551380Y-85859120D02*
X137896380Y-85859120D01*
G75*
G02*
X138043880Y-86006620I0J-147500D01*
G01*
X138043880Y-86301620D01*
G75*
G02*
X137896380Y-86449120I-147500J0D01*
G01*
X137551380Y-86449120D01*
G75*
G02*
X137403880Y-86301620I0J147500D01*
G01*
X137403880Y-86006620D01*
G75*
G02*
X137551380Y-85859120I147500J0D01*
G01*
G37*
G04 #@! TD.AperFunction*
G04 #@! TO.P,R7,1*
G04 #@! TO.N,VDD*
G04 #@! TA.AperFunction,SMDPad,CuDef*
G36*
G01*
X137551380Y-84889120D02*
X137896380Y-84889120D01*
G75*
G02*
X138043880Y-85036620I0J-147500D01*
G01*
X138043880Y-85331620D01*
G75*
G02*
X137896380Y-85479120I-147500J0D01*
G01*
X137551380Y-85479120D01*
G75*
G02*
X137403880Y-85331620I0J147500D01*
G01*
X137403880Y-85036620D01*
G75*
G02*
X137551380Y-84889120I147500J0D01*
G01*
G37*
G04 #@! TD.AperFunction*
G04 #@! TD*
G04 #@! TO.P,R12,1*
G04 #@! TO.N,HSE_OUT*
G04 #@! TA.AperFunction,SMDPad,CuDef*
G36*
G01*
X148823621Y-79787851D02*
X148478621Y-79787851D01*
G75*
G02*
X148331121Y-79640351I0J147500D01*
G01*
X148331121Y-79345351D01*
G75*
G02*
X148478621Y-79197851I147500J0D01*
G01*
X148823621Y-79197851D01*
G75*
G02*
X148971121Y-79345351I0J-147500D01*
G01*
X148971121Y-79640351D01*
G75*
G02*
X148823621Y-79787851I-147500J0D01*
G01*
G37*
G04 #@! TD.AperFunction*
G04 #@! TO.P,R12,2*
G04 #@! TO.N,Net-(C26-Pad2)*
G04 #@! TA.AperFunction,SMDPad,CuDef*
G36*
G01*
X148823621Y-78817851D02*
X148478621Y-78817851D01*
G75*
G02*
X148331121Y-78670351I0J147500D01*
G01*
X148331121Y-78375351D01*
G75*
G02*
X148478621Y-78227851I147500J0D01*
G01*
X148823621Y-78227851D01*
G75*
G02*
X148971121Y-78375351I0J-147500D01*
G01*
X148971121Y-78670351D01*
G75*
G02*
X148823621Y-78817851I-147500J0D01*
G01*
G37*
G04 #@! TD.AperFunction*
G04 #@! TD*
G04 #@! TO.P,R13,2*
G04 #@! TO.N,FB*
G04 #@! TA.AperFunction,SMDPad,CuDef*
G36*
G01*
X132640840Y-95788260D02*
X132640840Y-95443260D01*
G75*
G02*
X132788340Y-95295760I147500J0D01*
G01*
X133083340Y-95295760D01*
G75*
G02*
X133230840Y-95443260I0J-147500D01*
G01*
X133230840Y-95788260D01*
G75*
G02*
X133083340Y-95935760I-147500J0D01*
G01*
X132788340Y-95935760D01*
G75*
G02*
X132640840Y-95788260I0J147500D01*
G01*
G37*
G04 #@! TD.AperFunction*
G04 #@! TO.P,R13,1*
G04 #@! TO.N,+5VD*
G04 #@! TA.AperFunction,SMDPad,CuDef*
G36*
G01*
X131670840Y-95788260D02*
X131670840Y-95443260D01*
G75*
G02*
X131818340Y-95295760I147500J0D01*
G01*
X132113340Y-95295760D01*
G75*
G02*
X132260840Y-95443260I0J-147500D01*
G01*
X132260840Y-95788260D01*
G75*
G02*
X132113340Y-95935760I-147500J0D01*
G01*
X131818340Y-95935760D01*
G75*
G02*
X131670840Y-95788260I0J147500D01*
G01*
G37*
G04 #@! TD.AperFunction*
G04 #@! TD*
G04 #@! TO.P,R15,1*
G04 #@! TO.N,VDD*
G04 #@! TA.AperFunction,SMDPad,CuDef*
G36*
G01*
X158773080Y-84145340D02*
X158773080Y-84490340D01*
G75*
G02*
X158625580Y-84637840I-147500J0D01*
G01*
X158330580Y-84637840D01*
G75*
G02*
X158183080Y-84490340I0J147500D01*
G01*
X158183080Y-84145340D01*
G75*
G02*
X158330580Y-83997840I147500J0D01*
G01*
X158625580Y-83997840D01*
G75*
G02*
X158773080Y-84145340I0J-147500D01*
G01*
G37*
G04 #@! TD.AperFunction*
G04 #@! TO.P,R15,2*
G04 #@! TO.N,BOOT0*
G04 #@! TA.AperFunction,SMDPad,CuDef*
G36*
G01*
X157803080Y-84145340D02*
X157803080Y-84490340D01*
G75*
G02*
X157655580Y-84637840I-147500J0D01*
G01*
X157360580Y-84637840D01*
G75*
G02*
X157213080Y-84490340I0J147500D01*
G01*
X157213080Y-84145340D01*
G75*
G02*
X157360580Y-83997840I147500J0D01*
G01*
X157655580Y-83997840D01*
G75*
G02*
X157803080Y-84145340I0J-147500D01*
G01*
G37*
G04 #@! TD.AperFunction*
G04 #@! TD*
G04 #@! TO.P,R17,1*
G04 #@! TO.N,BGND*
G04 #@! TA.AperFunction,SMDPad,CuDef*
G36*
G01*
X157627100Y-80383600D02*
X157282100Y-80383600D01*
G75*
G02*
X157134600Y-80236100I0J147500D01*
G01*
X157134600Y-79941100D01*
G75*
G02*
X157282100Y-79793600I147500J0D01*
G01*
X157627100Y-79793600D01*
G75*
G02*
X157774600Y-79941100I0J-147500D01*
G01*
X157774600Y-80236100D01*
G75*
G02*
X157627100Y-80383600I-147500J0D01*
G01*
G37*
G04 #@! TD.AperFunction*
G04 #@! TO.P,R17,2*
G04 #@! TO.N,Net-(D6-Pad1)*
G04 #@! TA.AperFunction,SMDPad,CuDef*
G36*
G01*
X157627100Y-79413600D02*
X157282100Y-79413600D01*
G75*
G02*
X157134600Y-79266100I0J147500D01*
G01*
X157134600Y-78971100D01*
G75*
G02*
X157282100Y-78823600I147500J0D01*
G01*
X157627100Y-78823600D01*
G75*
G02*
X157774600Y-78971100I0J-147500D01*
G01*
X157774600Y-79266100D01*
G75*
G02*
X157627100Y-79413600I-147500J0D01*
G01*
G37*
G04 #@! TD.AperFunction*
G04 #@! TD*
G04 #@! TO.P,R18,2*
G04 #@! TO.N,Net-(D7-Pad1)*
G04 #@! TA.AperFunction,SMDPad,CuDef*
G36*
G01*
X158648180Y-79413600D02*
X158303180Y-79413600D01*
G75*
G02*
X158155680Y-79266100I0J147500D01*
G01*
X158155680Y-78971100D01*
G75*
G02*
X158303180Y-78823600I147500J0D01*
G01*
X158648180Y-78823600D01*
G75*
G02*
X158795680Y-78971100I0J-147500D01*
G01*
X158795680Y-79266100D01*
G75*
G02*
X158648180Y-79413600I-147500J0D01*
G01*
G37*
G04 #@! TD.AperFunction*
G04 #@! TO.P,R18,1*
G04 #@! TO.N,BGND*
G04 #@! TA.AperFunction,SMDPad,CuDef*
G36*
G01*
X158648180Y-80383600D02*
X158303180Y-80383600D01*
G75*
G02*
X158155680Y-80236100I0J147500D01*
G01*
X158155680Y-79941100D01*
G75*
G02*
X158303180Y-79793600I147500J0D01*
G01*
X158648180Y-79793600D01*
G75*
G02*
X158795680Y-79941100I0J-147500D01*
G01*
X158795680Y-80236100D01*
G75*
G02*
X158648180Y-80383600I-147500J0D01*
G01*
G37*
G04 #@! TD.AperFunction*
G04 #@! TD*
D23*
G04 #@! TO.P,U3,5*
G04 #@! TO.N,Net-(C2-Pad1)*
X128303200Y-84876640D03*
G04 #@! TO.P,U3,6*
G04 #@! TO.N,BUCK_SW*
X128303200Y-83926640D03*
G04 #@! TO.P,U3,4*
G04 #@! TO.N,Net-(R2-Pad2)*
X128303200Y-85826640D03*
G04 #@! TO.P,U3,3*
G04 #@! TO.N,BUCK_FB*
X126103200Y-85826640D03*
G04 #@! TO.P,U3,2*
G04 #@! TO.N,BGND*
X126103200Y-84876640D03*
G04 #@! TO.P,U3,1*
G04 #@! TO.N,BUCK_BST*
X126103200Y-83926640D03*
G04 #@! TD*
D24*
G04 #@! TO.P,U6,8*
G04 #@! TO.N,BGND*
X158522800Y-94461900D03*
G04 #@! TO.P,U6,7*
G04 #@! TO.N,CANH*
X158522800Y-94961900D03*
G04 #@! TO.P,U6,6*
G04 #@! TO.N,CANL*
X158522800Y-95461900D03*
G04 #@! TO.P,U6,5*
G04 #@! TO.N,VIO*
X158522800Y-95961900D03*
G04 #@! TO.P,U6,4*
G04 #@! TO.N,CAN1_RX*
X155522800Y-95961900D03*
G04 #@! TO.P,U6,3*
G04 #@! TO.N,VDD*
X155522800Y-95461900D03*
G04 #@! TO.P,U6,2*
G04 #@! TO.N,BGND*
X155522800Y-94961900D03*
G04 #@! TO.P,U6,1*
G04 #@! TO.N,CAN1_TX*
X155522800Y-94461900D03*
D25*
G04 #@! TO.P,U6,9*
G04 #@! TO.N,BGND*
X157022800Y-95211900D03*
G04 #@! TD*
D26*
G04 #@! TO.P,U8,1*
G04 #@! TO.N,PHASE_A*
X127243840Y-107704180D03*
G04 #@! TO.P,U8,2*
X128513840Y-107704180D03*
G04 #@! TO.P,U8,3*
X129783840Y-107704180D03*
G04 #@! TO.P,U8,4*
G04 #@! TO.N,GHA*
X131053840Y-107704180D03*
D27*
G04 #@! TO.P,U8,EP*
G04 #@! TO.N,VIN*
X129148840Y-104564180D03*
D28*
G04 #@! TO.P,U8,5*
X131053840Y-102224180D03*
G04 #@! TO.P,U8,6*
X129783840Y-102224180D03*
G04 #@! TO.P,U8,7*
X128513840Y-102224180D03*
G04 #@! TO.P,U8,8*
X127243840Y-102224180D03*
G04 #@! TD*
D26*
G04 #@! TO.P,U9,1*
G04 #@! TO.N,PHASE_B*
X144896840Y-107697080D03*
G04 #@! TO.P,U9,2*
X146166840Y-107697080D03*
G04 #@! TO.P,U9,3*
X147436840Y-107697080D03*
G04 #@! TO.P,U9,4*
G04 #@! TO.N,GHB*
X148706840Y-107697080D03*
D27*
G04 #@! TO.P,U9,EP*
G04 #@! TO.N,VIN*
X146801840Y-104557080D03*
D28*
G04 #@! TO.P,U9,5*
X148706840Y-102217080D03*
G04 #@! TO.P,U9,6*
X147436840Y-102217080D03*
G04 #@! TO.P,U9,7*
X146166840Y-102217080D03*
G04 #@! TO.P,U9,8*
X144896840Y-102217080D03*
G04 #@! TD*
G04 #@! TO.P,U10,8*
G04 #@! TO.N,VIN*
X150599140Y-102160680D03*
G04 #@! TO.P,U10,7*
X151869140Y-102160680D03*
G04 #@! TO.P,U10,6*
X153139140Y-102160680D03*
G04 #@! TO.P,U10,5*
X154409140Y-102160680D03*
D27*
G04 #@! TO.P,U10,EP*
X152504140Y-104500680D03*
D26*
G04 #@! TO.P,U10,4*
G04 #@! TO.N,GHC*
X154409140Y-107640680D03*
G04 #@! TO.P,U10,3*
G04 #@! TO.N,PHASE_C*
X153139140Y-107640680D03*
G04 #@! TO.P,U10,2*
X151869140Y-107640680D03*
G04 #@! TO.P,U10,1*
X150599140Y-107640680D03*
G04 #@! TD*
D28*
G04 #@! TO.P,U11,8*
G04 #@! TO.N,PHASE_A*
X136895840Y-107597080D03*
G04 #@! TO.P,U11,7*
X135625840Y-107597080D03*
G04 #@! TO.P,U11,6*
X134355840Y-107597080D03*
G04 #@! TO.P,U11,5*
X133085840Y-107597080D03*
D27*
G04 #@! TO.P,U11,EP*
X134990840Y-105257080D03*
D26*
G04 #@! TO.P,U11,4*
G04 #@! TO.N,GLA*
X133085840Y-102117080D03*
G04 #@! TO.P,U11,3*
G04 #@! TO.N,SPA*
X134355840Y-102117080D03*
G04 #@! TO.P,U11,2*
X135625840Y-102117080D03*
G04 #@! TO.P,U11,1*
X136895840Y-102117080D03*
G04 #@! TD*
D28*
G04 #@! TO.P,U12,8*
G04 #@! TO.N,PHASE_B*
X142991840Y-107602680D03*
G04 #@! TO.P,U12,7*
X141721840Y-107602680D03*
G04 #@! TO.P,U12,6*
X140451840Y-107602680D03*
G04 #@! TO.P,U12,5*
X139181840Y-107602680D03*
D27*
G04 #@! TO.P,U12,EP*
X141086840Y-105262680D03*
D26*
G04 #@! TO.P,U12,4*
G04 #@! TO.N,GLB*
X139181840Y-102122680D03*
G04 #@! TO.P,U12,3*
G04 #@! TO.N,SPB*
X140451840Y-102122680D03*
G04 #@! TO.P,U12,2*
X141721840Y-102122680D03*
G04 #@! TO.P,U12,1*
X142991840Y-102122680D03*
G04 #@! TD*
G04 #@! TO.P,U13,1*
G04 #@! TO.N,SPC*
X160213040Y-102071880D03*
G04 #@! TO.P,U13,2*
X158943040Y-102071880D03*
G04 #@! TO.P,U13,3*
X157673040Y-102071880D03*
G04 #@! TO.P,U13,4*
G04 #@! TO.N,GLC*
X156403040Y-102071880D03*
D27*
G04 #@! TO.P,U13,EP*
G04 #@! TO.N,PHASE_C*
X158308040Y-105211880D03*
D28*
G04 #@! TO.P,U13,5*
X156403040Y-107551880D03*
G04 #@! TO.P,U13,6*
X157673040Y-107551880D03*
G04 #@! TO.P,U13,7*
X158943040Y-107551880D03*
G04 #@! TO.P,U13,8*
X160213040Y-107551880D03*
G04 #@! TD*
D23*
G04 #@! TO.P,U14,1*
G04 #@! TO.N,USB_CONN_D-*
X139859840Y-78247200D03*
G04 #@! TO.P,U14,2*
G04 #@! TO.N,BGND*
X139859840Y-79197200D03*
G04 #@! TO.P,U14,3*
G04 #@! TO.N,USB_CONN_D+*
X139859840Y-80147200D03*
G04 #@! TO.P,U14,4*
G04 #@! TO.N,USB_D+*
X142059840Y-80147200D03*
G04 #@! TO.P,U14,6*
G04 #@! TO.N,USB_D-*
X142059840Y-78247200D03*
G04 #@! TO.P,U14,5*
G04 #@! TO.N,+5V*
X142059840Y-79197200D03*
G04 #@! TD*
D29*
G04 #@! TO.P,Y1,1*
G04 #@! TO.N,HSE_IN*
X152400341Y-76915791D03*
G04 #@! TO.P,Y1,2*
G04 #@! TO.N,BGND*
X150200341Y-76915791D03*
G04 #@! TO.P,Y1,3*
G04 #@! TO.N,Net-(C26-Pad2)*
X150200341Y-78615791D03*
G04 #@! TO.P,Y1,4*
G04 #@! TO.N,BGND*
X152400341Y-78615791D03*
G04 #@! TD*
G04 #@! TO.P,R19,2*
G04 #@! TO.N,BGND*
G04 #@! TA.AperFunction,SMDPad,CuDef*
G36*
G01*
X136235740Y-100591780D02*
X136235740Y-99341780D01*
G75*
G02*
X136485740Y-99091780I250000J0D01*
G01*
X137235740Y-99091780D01*
G75*
G02*
X137485740Y-99341780I0J-250000D01*
G01*
X137485740Y-100591780D01*
G75*
G02*
X137235740Y-100841780I-250000J0D01*
G01*
X136485740Y-100841780D01*
G75*
G02*
X136235740Y-100591780I0J250000D01*
G01*
G37*
G04 #@! TD.AperFunction*
G04 #@! TO.P,R19,1*
G04 #@! TO.N,SPA*
G04 #@! TA.AperFunction,SMDPad,CuDef*
G36*
G01*
X133435740Y-100591780D02*
X133435740Y-99341780D01*
G75*
G02*
X133685740Y-99091780I250000J0D01*
G01*
X134435740Y-99091780D01*
G75*
G02*
X134685740Y-99341780I0J-250000D01*
G01*
X134685740Y-100591780D01*
G75*
G02*
X134435740Y-100841780I-250000J0D01*
G01*
X133685740Y-100841780D01*
G75*
G02*
X133435740Y-100591780I0J250000D01*
G01*
G37*
G04 #@! TD.AperFunction*
G04 #@! TD*
G04 #@! TO.P,R20,1*
G04 #@! TO.N,SPB*
G04 #@! TA.AperFunction,SMDPad,CuDef*
G36*
G01*
X142641940Y-99341780D02*
X142641940Y-100591780D01*
G75*
G02*
X142391940Y-100841780I-250000J0D01*
G01*
X141641940Y-100841780D01*
G75*
G02*
X141391940Y-100591780I0J250000D01*
G01*
X141391940Y-99341780D01*
G75*
G02*
X141641940Y-99091780I250000J0D01*
G01*
X142391940Y-99091780D01*
G75*
G02*
X142641940Y-99341780I0J-250000D01*
G01*
G37*
G04 #@! TD.AperFunction*
G04 #@! TO.P,R20,2*
G04 #@! TO.N,BGND*
G04 #@! TA.AperFunction,SMDPad,CuDef*
G36*
G01*
X139841940Y-99341780D02*
X139841940Y-100591780D01*
G75*
G02*
X139591940Y-100841780I-250000J0D01*
G01*
X138841940Y-100841780D01*
G75*
G02*
X138591940Y-100591780I0J250000D01*
G01*
X138591940Y-99341780D01*
G75*
G02*
X138841940Y-99091780I250000J0D01*
G01*
X139591940Y-99091780D01*
G75*
G02*
X139841940Y-99341780I0J-250000D01*
G01*
G37*
G04 #@! TD.AperFunction*
G04 #@! TD*
G04 #@! TO.P,R21,1*
G04 #@! TO.N,SPC*
G04 #@! TA.AperFunction,SMDPad,CuDef*
G36*
G01*
X158577440Y-100772580D02*
X157327440Y-100772580D01*
G75*
G02*
X157077440Y-100522580I0J250000D01*
G01*
X157077440Y-99772580D01*
G75*
G02*
X157327440Y-99522580I250000J0D01*
G01*
X158577440Y-99522580D01*
G75*
G02*
X158827440Y-99772580I0J-250000D01*
G01*
X158827440Y-100522580D01*
G75*
G02*
X158577440Y-100772580I-250000J0D01*
G01*
G37*
G04 #@! TD.AperFunction*
G04 #@! TO.P,R21,2*
G04 #@! TO.N,BGND*
G04 #@! TA.AperFunction,SMDPad,CuDef*
G36*
G01*
X158577440Y-97972580D02*
X157327440Y-97972580D01*
G75*
G02*
X157077440Y-97722580I0J250000D01*
G01*
X157077440Y-96972580D01*
G75*
G02*
X157327440Y-96722580I250000J0D01*
G01*
X158577440Y-96722580D01*
G75*
G02*
X158827440Y-96972580I0J-250000D01*
G01*
X158827440Y-97722580D01*
G75*
G02*
X158577440Y-97972580I-250000J0D01*
G01*
G37*
G04 #@! TD.AperFunction*
G04 #@! TD*
G04 #@! TO.P,J1,1*
G04 #@! TO.N,CANH*
G04 #@! TA.AperFunction,SMDPad,CuDef*
G36*
G01*
X148641440Y-119128580D02*
X148641440Y-116128580D01*
G75*
G02*
X148891440Y-115878580I250000J0D01*
G01*
X149391440Y-115878580D01*
G75*
G02*
X149641440Y-116128580I0J-250000D01*
G01*
X149641440Y-119128580D01*
G75*
G02*
X149391440Y-119378580I-250000J0D01*
G01*
X148891440Y-119378580D01*
G75*
G02*
X148641440Y-119128580I0J250000D01*
G01*
G37*
G04 #@! TD.AperFunction*
G04 #@! TO.P,J1,2*
G04 #@! TO.N,CANL*
G04 #@! TA.AperFunction,SMDPad,CuDef*
G36*
G01*
X150641440Y-119128580D02*
X150641440Y-116128580D01*
G75*
G02*
X150891440Y-115878580I250000J0D01*
G01*
X151391440Y-115878580D01*
G75*
G02*
X151641440Y-116128580I0J-250000D01*
G01*
X151641440Y-119128580D01*
G75*
G02*
X151391440Y-119378580I-250000J0D01*
G01*
X150891440Y-119378580D01*
G75*
G02*
X150641440Y-119128580I0J250000D01*
G01*
G37*
G04 #@! TD.AperFunction*
G04 #@! TO.P,J1,3*
G04 #@! TO.N,BGND*
G04 #@! TA.AperFunction,SMDPad,CuDef*
G36*
G01*
X152641440Y-119128580D02*
X152641440Y-116128580D01*
G75*
G02*
X152891440Y-115878580I250000J0D01*
G01*
X153391440Y-115878580D01*
G75*
G02*
X153641440Y-116128580I0J-250000D01*
G01*
X153641440Y-119128580D01*
G75*
G02*
X153391440Y-119378580I-250000J0D01*
G01*
X152891440Y-119378580D01*
G75*
G02*
X152641440Y-119128580I0J250000D01*
G01*
G37*
G04 #@! TD.AperFunction*
G04 #@! TO.P,J1,MP*
G04 #@! TO.N,N/C*
G04 #@! TA.AperFunction,SMDPad,CuDef*
G36*
G01*
X146041440Y-124828580D02*
X146041440Y-121928580D01*
G75*
G02*
X146291440Y-121678580I250000J0D01*
G01*
X147291440Y-121678580D01*
G75*
G02*
X147541440Y-121928580I0J-250000D01*
G01*
X147541440Y-124828580D01*
G75*
G02*
X147291440Y-125078580I-250000J0D01*
G01*
X146291440Y-125078580D01*
G75*
G02*
X146041440Y-124828580I0J250000D01*
G01*
G37*
G04 #@! TD.AperFunction*
G04 #@! TA.AperFunction,SMDPad,CuDef*
G36*
G01*
X154741440Y-124828580D02*
X154741440Y-121928580D01*
G75*
G02*
X154991440Y-121678580I250000J0D01*
G01*
X155991440Y-121678580D01*
G75*
G02*
X156241440Y-121928580I0J-250000D01*
G01*
X156241440Y-124828580D01*
G75*
G02*
X155991440Y-125078580I-250000J0D01*
G01*
X154991440Y-125078580D01*
G75*
G02*
X154741440Y-124828580I0J250000D01*
G01*
G37*
G04 #@! TD.AperFunction*
G04 #@! TD*
G04 #@! TO.P,J2,MP*
G04 #@! TO.N,N/C*
G04 #@! TA.AperFunction,SMDPad,CuDef*
G36*
G01*
X140390440Y-124833780D02*
X140390440Y-121933780D01*
G75*
G02*
X140640440Y-121683780I250000J0D01*
G01*
X141640440Y-121683780D01*
G75*
G02*
X141890440Y-121933780I0J-250000D01*
G01*
X141890440Y-124833780D01*
G75*
G02*
X141640440Y-125083780I-250000J0D01*
G01*
X140640440Y-125083780D01*
G75*
G02*
X140390440Y-124833780I0J250000D01*
G01*
G37*
G04 #@! TD.AperFunction*
G04 #@! TA.AperFunction,SMDPad,CuDef*
G36*
G01*
X131690440Y-124833780D02*
X131690440Y-121933780D01*
G75*
G02*
X131940440Y-121683780I250000J0D01*
G01*
X132940440Y-121683780D01*
G75*
G02*
X133190440Y-121933780I0J-250000D01*
G01*
X133190440Y-124833780D01*
G75*
G02*
X132940440Y-125083780I-250000J0D01*
G01*
X131940440Y-125083780D01*
G75*
G02*
X131690440Y-124833780I0J250000D01*
G01*
G37*
G04 #@! TD.AperFunction*
G04 #@! TO.P,J2,3*
G04 #@! TO.N,BGND*
G04 #@! TA.AperFunction,SMDPad,CuDef*
G36*
G01*
X138290440Y-119133780D02*
X138290440Y-116133780D01*
G75*
G02*
X138540440Y-115883780I250000J0D01*
G01*
X139040440Y-115883780D01*
G75*
G02*
X139290440Y-116133780I0J-250000D01*
G01*
X139290440Y-119133780D01*
G75*
G02*
X139040440Y-119383780I-250000J0D01*
G01*
X138540440Y-119383780D01*
G75*
G02*
X138290440Y-119133780I0J250000D01*
G01*
G37*
G04 #@! TD.AperFunction*
G04 #@! TO.P,J2,2*
G04 #@! TO.N,CANL*
G04 #@! TA.AperFunction,SMDPad,CuDef*
G36*
G01*
X136290440Y-119133780D02*
X136290440Y-116133780D01*
G75*
G02*
X136540440Y-115883780I250000J0D01*
G01*
X137040440Y-115883780D01*
G75*
G02*
X137290440Y-116133780I0J-250000D01*
G01*
X137290440Y-119133780D01*
G75*
G02*
X137040440Y-119383780I-250000J0D01*
G01*
X136540440Y-119383780D01*
G75*
G02*
X136290440Y-119133780I0J250000D01*
G01*
G37*
G04 #@! TD.AperFunction*
G04 #@! TO.P,J2,1*
G04 #@! TO.N,CANH*
G04 #@! TA.AperFunction,SMDPad,CuDef*
G36*
G01*
X134290440Y-119133780D02*
X134290440Y-116133780D01*
G75*
G02*
X134540440Y-115883780I250000J0D01*
G01*
X135040440Y-115883780D01*
G75*
G02*
X135290440Y-116133780I0J-250000D01*
G01*
X135290440Y-119133780D01*
G75*
G02*
X135040440Y-119383780I-250000J0D01*
G01*
X134540440Y-119383780D01*
G75*
G02*
X134290440Y-119133780I0J250000D01*
G01*
G37*
G04 #@! TD.AperFunction*
G04 #@! TD*
D30*
G04 #@! TO.P,H1,1*
G04 #@! TO.N,BGND*
X125962120Y-115693200D03*
G04 #@! TD*
G04 #@! TO.P,H2,1*
G04 #@! TO.N,BGND*
X161955480Y-78422680D03*
G04 #@! TD*
G04 #@! TO.P,H3,1*
G04 #@! TO.N,BGND*
X161962120Y-115683040D03*
G04 #@! TD*
G04 #@! TO.P,H4,1*
G04 #@! TO.N,BGND*
X125958600Y-78412520D03*
G04 #@! TD*
G04 #@! TO.P,SWD1,1*
G04 #@! TO.N,VDD*
G04 #@! TA.AperFunction,ComponentPad*
G36*
G01*
X161752441Y-94138040D02*
X160502439Y-94138040D01*
G75*
G02*
X160252440Y-93888041I0J249999D01*
G01*
X160252440Y-93188039D01*
G75*
G02*
X160502439Y-92938040I249999J0D01*
G01*
X161752441Y-92938040D01*
G75*
G02*
X162002440Y-93188039I0J-249999D01*
G01*
X162002440Y-93888041D01*
G75*
G02*
X161752441Y-94138040I-249999J0D01*
G01*
G37*
G04 #@! TD.AperFunction*
D31*
G04 #@! TO.P,SWD1,2*
G04 #@! TO.N,SWO*
X161127440Y-91538040D03*
G04 #@! TO.P,SWD1,3*
G04 #@! TO.N,SWDIO*
X161127440Y-89538040D03*
G04 #@! TO.P,SWD1,4*
G04 #@! TO.N,SWCLK*
X161127440Y-87538040D03*
G04 #@! TO.P,SWD1,5*
G04 #@! TO.N,NRST*
X161127440Y-85538040D03*
G04 #@! TO.P,SWD1,6*
G04 #@! TO.N,BGND*
X161127440Y-83538040D03*
G04 #@! TD*
G04 #@! TO.P,C28,1*
G04 #@! TO.N,VIN*
G04 #@! TA.AperFunction,SMDPad,CuDef*
G36*
G01*
X151512590Y-100782180D02*
X150600090Y-100782180D01*
G75*
G02*
X150356340Y-100538430I0J243750D01*
G01*
X150356340Y-100050930D01*
G75*
G02*
X150600090Y-99807180I243750J0D01*
G01*
X151512590Y-99807180D01*
G75*
G02*
X151756340Y-100050930I0J-243750D01*
G01*
X151756340Y-100538430D01*
G75*
G02*
X151512590Y-100782180I-243750J0D01*
G01*
G37*
G04 #@! TD.AperFunction*
G04 #@! TO.P,C28,2*
G04 #@! TO.N,BGND*
G04 #@! TA.AperFunction,SMDPad,CuDef*
G36*
G01*
X151512590Y-98907180D02*
X150600090Y-98907180D01*
G75*
G02*
X150356340Y-98663430I0J243750D01*
G01*
X150356340Y-98175930D01*
G75*
G02*
X150600090Y-97932180I243750J0D01*
G01*
X151512590Y-97932180D01*
G75*
G02*
X151756340Y-98175930I0J-243750D01*
G01*
X151756340Y-98663430D01*
G75*
G02*
X151512590Y-98907180I-243750J0D01*
G01*
G37*
G04 #@! TD.AperFunction*
G04 #@! TD*
G04 #@! TO.P,C29,2*
G04 #@! TO.N,BGND*
G04 #@! TA.AperFunction,SMDPad,CuDef*
G36*
G01*
X162536190Y-98917580D02*
X161623690Y-98917580D01*
G75*
G02*
X161379940Y-98673830I0J243750D01*
G01*
X161379940Y-98186330D01*
G75*
G02*
X161623690Y-97942580I243750J0D01*
G01*
X162536190Y-97942580D01*
G75*
G02*
X162779940Y-98186330I0J-243750D01*
G01*
X162779940Y-98673830D01*
G75*
G02*
X162536190Y-98917580I-243750J0D01*
G01*
G37*
G04 #@! TD.AperFunction*
G04 #@! TO.P,C29,1*
G04 #@! TO.N,VIN*
G04 #@! TA.AperFunction,SMDPad,CuDef*
G36*
G01*
X162536190Y-100792580D02*
X161623690Y-100792580D01*
G75*
G02*
X161379940Y-100548830I0J243750D01*
G01*
X161379940Y-100061330D01*
G75*
G02*
X161623690Y-99817580I243750J0D01*
G01*
X162536190Y-99817580D01*
G75*
G02*
X162779940Y-100061330I0J-243750D01*
G01*
X162779940Y-100548830D01*
G75*
G02*
X162536190Y-100792580I-243750J0D01*
G01*
G37*
G04 #@! TD.AperFunction*
G04 #@! TD*
G04 #@! TO.P,C30,1*
G04 #@! TO.N,VIN*
G04 #@! TA.AperFunction,SMDPad,CuDef*
G36*
G01*
X124892750Y-94558820D02*
X125805250Y-94558820D01*
G75*
G02*
X126049000Y-94802570I0J-243750D01*
G01*
X126049000Y-95290070D01*
G75*
G02*
X125805250Y-95533820I-243750J0D01*
G01*
X124892750Y-95533820D01*
G75*
G02*
X124649000Y-95290070I0J243750D01*
G01*
X124649000Y-94802570D01*
G75*
G02*
X124892750Y-94558820I243750J0D01*
G01*
G37*
G04 #@! TD.AperFunction*
G04 #@! TO.P,C30,2*
G04 #@! TO.N,BGND*
G04 #@! TA.AperFunction,SMDPad,CuDef*
G36*
G01*
X124892750Y-96433820D02*
X125805250Y-96433820D01*
G75*
G02*
X126049000Y-96677570I0J-243750D01*
G01*
X126049000Y-97165070D01*
G75*
G02*
X125805250Y-97408820I-243750J0D01*
G01*
X124892750Y-97408820D01*
G75*
G02*
X124649000Y-97165070I0J243750D01*
G01*
X124649000Y-96677570D01*
G75*
G02*
X124892750Y-96433820I243750J0D01*
G01*
G37*
G04 #@! TD.AperFunction*
G04 #@! TD*
G04 #@! TO.P,C31,2*
G04 #@! TO.N,BGND*
G04 #@! TA.AperFunction,SMDPad,CuDef*
G36*
G01*
X162533650Y-109222120D02*
X161621150Y-109222120D01*
G75*
G02*
X161377400Y-108978370I0J243750D01*
G01*
X161377400Y-108490870D01*
G75*
G02*
X161621150Y-108247120I243750J0D01*
G01*
X162533650Y-108247120D01*
G75*
G02*
X162777400Y-108490870I0J-243750D01*
G01*
X162777400Y-108978370D01*
G75*
G02*
X162533650Y-109222120I-243750J0D01*
G01*
G37*
G04 #@! TD.AperFunction*
G04 #@! TO.P,C31,1*
G04 #@! TO.N,VIN*
G04 #@! TA.AperFunction,SMDPad,CuDef*
G36*
G01*
X162533650Y-111097120D02*
X161621150Y-111097120D01*
G75*
G02*
X161377400Y-110853370I0J243750D01*
G01*
X161377400Y-110365870D01*
G75*
G02*
X161621150Y-110122120I243750J0D01*
G01*
X162533650Y-110122120D01*
G75*
G02*
X162777400Y-110365870I0J-243750D01*
G01*
X162777400Y-110853370D01*
G75*
G02*
X162533650Y-111097120I-243750J0D01*
G01*
G37*
G04 #@! TD.AperFunction*
G04 #@! TD*
G04 #@! TO.P,C32,1*
G04 #@! TO.N,VIN*
G04 #@! TA.AperFunction,SMDPad,CuDef*
G36*
G01*
X160554990Y-100784480D02*
X159642490Y-100784480D01*
G75*
G02*
X159398740Y-100540730I0J243750D01*
G01*
X159398740Y-100053230D01*
G75*
G02*
X159642490Y-99809480I243750J0D01*
G01*
X160554990Y-99809480D01*
G75*
G02*
X160798740Y-100053230I0J-243750D01*
G01*
X160798740Y-100540730D01*
G75*
G02*
X160554990Y-100784480I-243750J0D01*
G01*
G37*
G04 #@! TD.AperFunction*
G04 #@! TO.P,C32,2*
G04 #@! TO.N,BGND*
G04 #@! TA.AperFunction,SMDPad,CuDef*
G36*
G01*
X160554990Y-98909480D02*
X159642490Y-98909480D01*
G75*
G02*
X159398740Y-98665730I0J243750D01*
G01*
X159398740Y-98178230D01*
G75*
G02*
X159642490Y-97934480I243750J0D01*
G01*
X160554990Y-97934480D01*
G75*
G02*
X160798740Y-98178230I0J-243750D01*
G01*
X160798740Y-98665730D01*
G75*
G02*
X160554990Y-98909480I-243750J0D01*
G01*
G37*
G04 #@! TD.AperFunction*
G04 #@! TD*
G04 #@! TO.P,C33,1*
G04 #@! TO.N,VIN*
G04 #@! TA.AperFunction,SMDPad,CuDef*
G36*
G01*
X125833190Y-107688680D02*
X124920690Y-107688680D01*
G75*
G02*
X124676940Y-107444930I0J243750D01*
G01*
X124676940Y-106957430D01*
G75*
G02*
X124920690Y-106713680I243750J0D01*
G01*
X125833190Y-106713680D01*
G75*
G02*
X126076940Y-106957430I0J-243750D01*
G01*
X126076940Y-107444930D01*
G75*
G02*
X125833190Y-107688680I-243750J0D01*
G01*
G37*
G04 #@! TD.AperFunction*
G04 #@! TO.P,C33,2*
G04 #@! TO.N,BGND*
G04 #@! TA.AperFunction,SMDPad,CuDef*
G36*
G01*
X125833190Y-105813680D02*
X124920690Y-105813680D01*
G75*
G02*
X124676940Y-105569930I0J243750D01*
G01*
X124676940Y-105082430D01*
G75*
G02*
X124920690Y-104838680I243750J0D01*
G01*
X125833190Y-104838680D01*
G75*
G02*
X126076940Y-105082430I0J-243750D01*
G01*
X126076940Y-105569930D01*
G75*
G02*
X125833190Y-105813680I-243750J0D01*
G01*
G37*
G04 #@! TD.AperFunction*
G04 #@! TD*
G04 #@! TO.P,C34,1*
G04 #@! TO.N,VIN*
G04 #@! TA.AperFunction,SMDPad,CuDef*
G36*
G01*
X153481090Y-100779880D02*
X152568590Y-100779880D01*
G75*
G02*
X152324840Y-100536130I0J243750D01*
G01*
X152324840Y-100048630D01*
G75*
G02*
X152568590Y-99804880I243750J0D01*
G01*
X153481090Y-99804880D01*
G75*
G02*
X153724840Y-100048630I0J-243750D01*
G01*
X153724840Y-100536130D01*
G75*
G02*
X153481090Y-100779880I-243750J0D01*
G01*
G37*
G04 #@! TD.AperFunction*
G04 #@! TO.P,C34,2*
G04 #@! TO.N,BGND*
G04 #@! TA.AperFunction,SMDPad,CuDef*
G36*
G01*
X153481090Y-98904880D02*
X152568590Y-98904880D01*
G75*
G02*
X152324840Y-98661130I0J243750D01*
G01*
X152324840Y-98173630D01*
G75*
G02*
X152568590Y-97929880I243750J0D01*
G01*
X153481090Y-97929880D01*
G75*
G02*
X153724840Y-98173630I0J-243750D01*
G01*
X153724840Y-98661130D01*
G75*
G02*
X153481090Y-98904880I-243750J0D01*
G01*
G37*
G04 #@! TD.AperFunction*
G04 #@! TD*
G04 #@! TO.P,C35,2*
G04 #@! TO.N,BGND*
G04 #@! TA.AperFunction,SMDPad,CuDef*
G36*
G01*
X129752410Y-98970680D02*
X128839910Y-98970680D01*
G75*
G02*
X128596160Y-98726930I0J243750D01*
G01*
X128596160Y-98239430D01*
G75*
G02*
X128839910Y-97995680I243750J0D01*
G01*
X129752410Y-97995680D01*
G75*
G02*
X129996160Y-98239430I0J-243750D01*
G01*
X129996160Y-98726930D01*
G75*
G02*
X129752410Y-98970680I-243750J0D01*
G01*
G37*
G04 #@! TD.AperFunction*
G04 #@! TO.P,C35,1*
G04 #@! TO.N,VIN*
G04 #@! TA.AperFunction,SMDPad,CuDef*
G36*
G01*
X129752410Y-100845680D02*
X128839910Y-100845680D01*
G75*
G02*
X128596160Y-100601930I0J243750D01*
G01*
X128596160Y-100114430D01*
G75*
G02*
X128839910Y-99870680I243750J0D01*
G01*
X129752410Y-99870680D01*
G75*
G02*
X129996160Y-100114430I0J-243750D01*
G01*
X129996160Y-100601930D01*
G75*
G02*
X129752410Y-100845680I-243750J0D01*
G01*
G37*
G04 #@! TD.AperFunction*
G04 #@! TD*
G04 #@! TO.P,C36,2*
G04 #@! TO.N,BGND*
G04 #@! TA.AperFunction,SMDPad,CuDef*
G36*
G01*
X124920690Y-103297380D02*
X125833190Y-103297380D01*
G75*
G02*
X126076940Y-103541130I0J-243750D01*
G01*
X126076940Y-104028630D01*
G75*
G02*
X125833190Y-104272380I-243750J0D01*
G01*
X124920690Y-104272380D01*
G75*
G02*
X124676940Y-104028630I0J243750D01*
G01*
X124676940Y-103541130D01*
G75*
G02*
X124920690Y-103297380I243750J0D01*
G01*
G37*
G04 #@! TD.AperFunction*
G04 #@! TO.P,C36,1*
G04 #@! TO.N,VIN*
G04 #@! TA.AperFunction,SMDPad,CuDef*
G36*
G01*
X124920690Y-101422380D02*
X125833190Y-101422380D01*
G75*
G02*
X126076940Y-101666130I0J-243750D01*
G01*
X126076940Y-102153630D01*
G75*
G02*
X125833190Y-102397380I-243750J0D01*
G01*
X124920690Y-102397380D01*
G75*
G02*
X124676940Y-102153630I0J243750D01*
G01*
X124676940Y-101666130D01*
G75*
G02*
X124920690Y-101422380I243750J0D01*
G01*
G37*
G04 #@! TD.AperFunction*
G04 #@! TD*
G04 #@! TO.P,C37,2*
G04 #@! TO.N,BGND*
G04 #@! TA.AperFunction,SMDPad,CuDef*
G36*
G01*
X146762790Y-98970680D02*
X145850290Y-98970680D01*
G75*
G02*
X145606540Y-98726930I0J243750D01*
G01*
X145606540Y-98239430D01*
G75*
G02*
X145850290Y-97995680I243750J0D01*
G01*
X146762790Y-97995680D01*
G75*
G02*
X147006540Y-98239430I0J-243750D01*
G01*
X147006540Y-98726930D01*
G75*
G02*
X146762790Y-98970680I-243750J0D01*
G01*
G37*
G04 #@! TD.AperFunction*
G04 #@! TO.P,C37,1*
G04 #@! TO.N,VIN*
G04 #@! TA.AperFunction,SMDPad,CuDef*
G36*
G01*
X146762790Y-100845680D02*
X145850290Y-100845680D01*
G75*
G02*
X145606540Y-100601930I0J243750D01*
G01*
X145606540Y-100114430D01*
G75*
G02*
X145850290Y-99870680I243750J0D01*
G01*
X146762790Y-99870680D01*
G75*
G02*
X147006540Y-100114430I0J-243750D01*
G01*
X147006540Y-100601930D01*
G75*
G02*
X146762790Y-100845680I-243750J0D01*
G01*
G37*
G04 #@! TD.AperFunction*
G04 #@! TD*
G04 #@! TO.P,C38,2*
G04 #@! TO.N,BGND*
G04 #@! TA.AperFunction,SMDPad,CuDef*
G36*
G01*
X162536190Y-105788280D02*
X161623690Y-105788280D01*
G75*
G02*
X161379940Y-105544530I0J243750D01*
G01*
X161379940Y-105057030D01*
G75*
G02*
X161623690Y-104813280I243750J0D01*
G01*
X162536190Y-104813280D01*
G75*
G02*
X162779940Y-105057030I0J-243750D01*
G01*
X162779940Y-105544530D01*
G75*
G02*
X162536190Y-105788280I-243750J0D01*
G01*
G37*
G04 #@! TD.AperFunction*
G04 #@! TO.P,C38,1*
G04 #@! TO.N,VIN*
G04 #@! TA.AperFunction,SMDPad,CuDef*
G36*
G01*
X162536190Y-107663280D02*
X161623690Y-107663280D01*
G75*
G02*
X161379940Y-107419530I0J243750D01*
G01*
X161379940Y-106932030D01*
G75*
G02*
X161623690Y-106688280I243750J0D01*
G01*
X162536190Y-106688280D01*
G75*
G02*
X162779940Y-106932030I0J-243750D01*
G01*
X162779940Y-107419530D01*
G75*
G02*
X162536190Y-107663280I-243750J0D01*
G01*
G37*
G04 #@! TD.AperFunction*
G04 #@! TD*
G04 #@! TO.P,C39,1*
G04 #@! TO.N,VIN*
G04 #@! TA.AperFunction,SMDPad,CuDef*
G36*
G01*
X124923230Y-108267440D02*
X125835730Y-108267440D01*
G75*
G02*
X126079480Y-108511190I0J-243750D01*
G01*
X126079480Y-108998690D01*
G75*
G02*
X125835730Y-109242440I-243750J0D01*
G01*
X124923230Y-109242440D01*
G75*
G02*
X124679480Y-108998690I0J243750D01*
G01*
X124679480Y-108511190D01*
G75*
G02*
X124923230Y-108267440I243750J0D01*
G01*
G37*
G04 #@! TD.AperFunction*
G04 #@! TO.P,C39,2*
G04 #@! TO.N,BGND*
G04 #@! TA.AperFunction,SMDPad,CuDef*
G36*
G01*
X124923230Y-110142440D02*
X125835730Y-110142440D01*
G75*
G02*
X126079480Y-110386190I0J-243750D01*
G01*
X126079480Y-110873690D01*
G75*
G02*
X125835730Y-111117440I-243750J0D01*
G01*
X124923230Y-111117440D01*
G75*
G02*
X124679480Y-110873690I0J243750D01*
G01*
X124679480Y-110386190D01*
G75*
G02*
X124923230Y-110142440I243750J0D01*
G01*
G37*
G04 #@! TD.AperFunction*
G04 #@! TD*
G04 #@! TO.P,C40,2*
G04 #@! TO.N,BGND*
G04 #@! TA.AperFunction,SMDPad,CuDef*
G36*
G01*
X127783910Y-98970680D02*
X126871410Y-98970680D01*
G75*
G02*
X126627660Y-98726930I0J243750D01*
G01*
X126627660Y-98239430D01*
G75*
G02*
X126871410Y-97995680I243750J0D01*
G01*
X127783910Y-97995680D01*
G75*
G02*
X128027660Y-98239430I0J-243750D01*
G01*
X128027660Y-98726930D01*
G75*
G02*
X127783910Y-98970680I-243750J0D01*
G01*
G37*
G04 #@! TD.AperFunction*
G04 #@! TO.P,C40,1*
G04 #@! TO.N,VIN*
G04 #@! TA.AperFunction,SMDPad,CuDef*
G36*
G01*
X127783910Y-100845680D02*
X126871410Y-100845680D01*
G75*
G02*
X126627660Y-100601930I0J243750D01*
G01*
X126627660Y-100114430D01*
G75*
G02*
X126871410Y-99870680I243750J0D01*
G01*
X127783910Y-99870680D01*
G75*
G02*
X128027660Y-100114430I0J-243750D01*
G01*
X128027660Y-100601930D01*
G75*
G02*
X127783910Y-100845680I-243750J0D01*
G01*
G37*
G04 #@! TD.AperFunction*
G04 #@! TD*
G04 #@! TO.P,C41,2*
G04 #@! TO.N,BGND*
G04 #@! TA.AperFunction,SMDPad,CuDef*
G36*
G01*
X161623690Y-103248880D02*
X162536190Y-103248880D01*
G75*
G02*
X162779940Y-103492630I0J-243750D01*
G01*
X162779940Y-103980130D01*
G75*
G02*
X162536190Y-104223880I-243750J0D01*
G01*
X161623690Y-104223880D01*
G75*
G02*
X161379940Y-103980130I0J243750D01*
G01*
X161379940Y-103492630D01*
G75*
G02*
X161623690Y-103248880I243750J0D01*
G01*
G37*
G04 #@! TD.AperFunction*
G04 #@! TO.P,C41,1*
G04 #@! TO.N,VIN*
G04 #@! TA.AperFunction,SMDPad,CuDef*
G36*
G01*
X161623690Y-101373880D02*
X162536190Y-101373880D01*
G75*
G02*
X162779940Y-101617630I0J-243750D01*
G01*
X162779940Y-102105130D01*
G75*
G02*
X162536190Y-102348880I-243750J0D01*
G01*
X161623690Y-102348880D01*
G75*
G02*
X161379940Y-102105130I0J243750D01*
G01*
X161379940Y-101617630D01*
G75*
G02*
X161623690Y-101373880I243750J0D01*
G01*
G37*
G04 #@! TD.AperFunction*
G04 #@! TD*
G04 #@! TO.P,C42,1*
G04 #@! TO.N,VIN*
G04 #@! TA.AperFunction,SMDPad,CuDef*
G36*
G01*
X125815410Y-100845680D02*
X124902910Y-100845680D01*
G75*
G02*
X124659160Y-100601930I0J243750D01*
G01*
X124659160Y-100114430D01*
G75*
G02*
X124902910Y-99870680I243750J0D01*
G01*
X125815410Y-99870680D01*
G75*
G02*
X126059160Y-100114430I0J-243750D01*
G01*
X126059160Y-100601930D01*
G75*
G02*
X125815410Y-100845680I-243750J0D01*
G01*
G37*
G04 #@! TD.AperFunction*
G04 #@! TO.P,C42,2*
G04 #@! TO.N,BGND*
G04 #@! TA.AperFunction,SMDPad,CuDef*
G36*
G01*
X125815410Y-98970680D02*
X124902910Y-98970680D01*
G75*
G02*
X124659160Y-98726930I0J243750D01*
G01*
X124659160Y-98239430D01*
G75*
G02*
X124902910Y-97995680I243750J0D01*
G01*
X125815410Y-97995680D01*
G75*
G02*
X126059160Y-98239430I0J-243750D01*
G01*
X126059160Y-98726930D01*
G75*
G02*
X125815410Y-98970680I-243750J0D01*
G01*
G37*
G04 #@! TD.AperFunction*
G04 #@! TD*
G04 #@! TO.P,C43,1*
G04 #@! TO.N,VIN*
G04 #@! TA.AperFunction,SMDPad,CuDef*
G36*
G01*
X148731290Y-100845680D02*
X147818790Y-100845680D01*
G75*
G02*
X147575040Y-100601930I0J243750D01*
G01*
X147575040Y-100114430D01*
G75*
G02*
X147818790Y-99870680I243750J0D01*
G01*
X148731290Y-99870680D01*
G75*
G02*
X148975040Y-100114430I0J-243750D01*
G01*
X148975040Y-100601930D01*
G75*
G02*
X148731290Y-100845680I-243750J0D01*
G01*
G37*
G04 #@! TD.AperFunction*
G04 #@! TO.P,C43,2*
G04 #@! TO.N,BGND*
G04 #@! TA.AperFunction,SMDPad,CuDef*
G36*
G01*
X148731290Y-98970680D02*
X147818790Y-98970680D01*
G75*
G02*
X147575040Y-98726930I0J243750D01*
G01*
X147575040Y-98239430D01*
G75*
G02*
X147818790Y-97995680I243750J0D01*
G01*
X148731290Y-97995680D01*
G75*
G02*
X148975040Y-98239430I0J-243750D01*
G01*
X148975040Y-98726930D01*
G75*
G02*
X148731290Y-98970680I-243750J0D01*
G01*
G37*
G04 #@! TD.AperFunction*
G04 #@! TD*
G04 #@! TO.P,D5,1*
G04 #@! TO.N,Net-(D5-Pad1)*
G04 #@! TA.AperFunction,SMDPad,CuDef*
G36*
G01*
X141798760Y-76111390D02*
X141798760Y-76623890D01*
G75*
G02*
X141580010Y-76842640I-218750J0D01*
G01*
X141142510Y-76842640D01*
G75*
G02*
X140923760Y-76623890I0J218750D01*
G01*
X140923760Y-76111390D01*
G75*
G02*
X141142510Y-75892640I218750J0D01*
G01*
X141580010Y-75892640D01*
G75*
G02*
X141798760Y-76111390I0J-218750D01*
G01*
G37*
G04 #@! TD.AperFunction*
G04 #@! TO.P,D5,2*
G04 #@! TO.N,+5V*
G04 #@! TA.AperFunction,SMDPad,CuDef*
G36*
G01*
X140223760Y-76111390D02*
X140223760Y-76623890D01*
G75*
G02*
X140005010Y-76842640I-218750J0D01*
G01*
X139567510Y-76842640D01*
G75*
G02*
X139348760Y-76623890I0J218750D01*
G01*
X139348760Y-76111390D01*
G75*
G02*
X139567510Y-75892640I218750J0D01*
G01*
X140005010Y-75892640D01*
G75*
G02*
X140223760Y-76111390I0J-218750D01*
G01*
G37*
G04 #@! TD.AperFunction*
G04 #@! TD*
G04 #@! TO.P,R10,1*
G04 #@! TO.N,BGND*
G04 #@! TA.AperFunction,SMDPad,CuDef*
G36*
G01*
X143944560Y-76195140D02*
X143944560Y-76540140D01*
G75*
G02*
X143797060Y-76687640I-147500J0D01*
G01*
X143502060Y-76687640D01*
G75*
G02*
X143354560Y-76540140I0J147500D01*
G01*
X143354560Y-76195140D01*
G75*
G02*
X143502060Y-76047640I147500J0D01*
G01*
X143797060Y-76047640D01*
G75*
G02*
X143944560Y-76195140I0J-147500D01*
G01*
G37*
G04 #@! TD.AperFunction*
G04 #@! TO.P,R10,2*
G04 #@! TO.N,Net-(D5-Pad1)*
G04 #@! TA.AperFunction,SMDPad,CuDef*
G36*
G01*
X142974560Y-76195140D02*
X142974560Y-76540140D01*
G75*
G02*
X142827060Y-76687640I-147500J0D01*
G01*
X142532060Y-76687640D01*
G75*
G02*
X142384560Y-76540140I0J147500D01*
G01*
X142384560Y-76195140D01*
G75*
G02*
X142532060Y-76047640I147500J0D01*
G01*
X142827060Y-76047640D01*
G75*
G02*
X142974560Y-76195140I0J-147500D01*
G01*
G37*
G04 #@! TD.AperFunction*
G04 #@! TD*
G04 #@! TO.P,C11,1*
G04 #@! TO.N,BGND*
G04 #@! TA.AperFunction,SMDPad,CuDef*
G36*
G01*
X144378900Y-98826000D02*
X144723900Y-98826000D01*
G75*
G02*
X144871400Y-98973500I0J-147500D01*
G01*
X144871400Y-99268500D01*
G75*
G02*
X144723900Y-99416000I-147500J0D01*
G01*
X144378900Y-99416000D01*
G75*
G02*
X144231400Y-99268500I0J147500D01*
G01*
X144231400Y-98973500D01*
G75*
G02*
X144378900Y-98826000I147500J0D01*
G01*
G37*
G04 #@! TD.AperFunction*
G04 #@! TO.P,C11,2*
G04 #@! TO.N,VDD*
G04 #@! TA.AperFunction,SMDPad,CuDef*
G36*
G01*
X144378900Y-99796000D02*
X144723900Y-99796000D01*
G75*
G02*
X144871400Y-99943500I0J-147500D01*
G01*
X144871400Y-100238500D01*
G75*
G02*
X144723900Y-100386000I-147500J0D01*
G01*
X144378900Y-100386000D01*
G75*
G02*
X144231400Y-100238500I0J147500D01*
G01*
X144231400Y-99943500D01*
G75*
G02*
X144378900Y-99796000I147500J0D01*
G01*
G37*
G04 #@! TD.AperFunction*
G04 #@! TD*
G04 #@! TO.P,C23,1*
G04 #@! TO.N,VDD*
G04 #@! TA.AperFunction,SMDPad,CuDef*
G36*
G01*
X153611700Y-95166400D02*
X153611700Y-95511400D01*
G75*
G02*
X153464200Y-95658900I-147500J0D01*
G01*
X153169200Y-95658900D01*
G75*
G02*
X153021700Y-95511400I0J147500D01*
G01*
X153021700Y-95166400D01*
G75*
G02*
X153169200Y-95018900I147500J0D01*
G01*
X153464200Y-95018900D01*
G75*
G02*
X153611700Y-95166400I0J-147500D01*
G01*
G37*
G04 #@! TD.AperFunction*
G04 #@! TO.P,C23,2*
G04 #@! TO.N,BGND*
G04 #@! TA.AperFunction,SMDPad,CuDef*
G36*
G01*
X152641700Y-95166400D02*
X152641700Y-95511400D01*
G75*
G02*
X152494200Y-95658900I-147500J0D01*
G01*
X152199200Y-95658900D01*
G75*
G02*
X152051700Y-95511400I0J147500D01*
G01*
X152051700Y-95166400D01*
G75*
G02*
X152199200Y-95018900I147500J0D01*
G01*
X152494200Y-95018900D01*
G75*
G02*
X152641700Y-95166400I0J-147500D01*
G01*
G37*
G04 #@! TD.AperFunction*
G04 #@! TD*
G04 #@! TO.P,C24,2*
G04 #@! TO.N,BGND*
G04 #@! TA.AperFunction,SMDPad,CuDef*
G36*
G01*
X160819700Y-97060800D02*
X160819700Y-96715800D01*
G75*
G02*
X160967200Y-96568300I147500J0D01*
G01*
X161262200Y-96568300D01*
G75*
G02*
X161409700Y-96715800I0J-147500D01*
G01*
X161409700Y-97060800D01*
G75*
G02*
X161262200Y-97208300I-147500J0D01*
G01*
X160967200Y-97208300D01*
G75*
G02*
X160819700Y-97060800I0J147500D01*
G01*
G37*
G04 #@! TD.AperFunction*
G04 #@! TO.P,C24,1*
G04 #@! TO.N,VIO*
G04 #@! TA.AperFunction,SMDPad,CuDef*
G36*
G01*
X159849700Y-97060800D02*
X159849700Y-96715800D01*
G75*
G02*
X159997200Y-96568300I147500J0D01*
G01*
X160292200Y-96568300D01*
G75*
G02*
X160439700Y-96715800I0J-147500D01*
G01*
X160439700Y-97060800D01*
G75*
G02*
X160292200Y-97208300I-147500J0D01*
G01*
X159997200Y-97208300D01*
G75*
G02*
X159849700Y-97060800I0J147500D01*
G01*
G37*
G04 #@! TD.AperFunction*
G04 #@! TD*
D32*
G04 #@! TO.P,J5,P$1*
G04 #@! TO.N,N/C*
X129910840Y-110698280D03*
G04 #@! TD*
G04 #@! TO.P,J6,P$1*
G04 #@! TO.N,N/C*
X143957040Y-110698280D03*
G04 #@! TD*
G04 #@! TO.P,J7,P$1*
G04 #@! TO.N,N/C*
X157977840Y-110698280D03*
G04 #@! TD*
D33*
G04 #@! TO.N,NRST*
X151013160Y-83124040D03*
G04 #@! TO.N,LED_STATUS*
X154873960Y-82377280D03*
X155676600Y-76535280D03*
G04 #@! TO.N,+5V*
X131648200Y-78546960D03*
X140649960Y-81381600D03*
G04 #@! TO.N,SPI1_SCK*
X135620760Y-84968080D03*
X146908520Y-84942680D03*
G04 #@! TO.N,USB_D-*
X144290600Y-80807560D03*
X152623520Y-88581680D03*
G04 #@! TO.N,USB_D+*
X143440600Y-80807560D03*
X152623520Y-89431680D03*
G04 #@! TO.N,SPI1_MISO*
X136870440Y-85293081D03*
X147435325Y-85544743D03*
G04 #@! TO.N,SPI1_MOSI*
X136352120Y-86029800D03*
X146293637Y-86180652D03*
D34*
G04 #@! TO.N,BGND*
X155051947Y-79028980D03*
D33*
X146639280Y-76728320D03*
X143007080Y-88940640D03*
X147759623Y-76039777D03*
X144800320Y-76545440D03*
X143499840Y-81772760D03*
X127045720Y-84805520D03*
X125156877Y-86429104D03*
X128305560Y-82961480D03*
X129621280Y-90048080D03*
X132222240Y-94538800D03*
X138104880Y-80182720D03*
X140528040Y-79202280D03*
X155940760Y-93441520D03*
X144607280Y-93369151D03*
X148315680Y-83677760D03*
X143637000Y-77332840D03*
X158658560Y-90708480D03*
X147158861Y-90594132D03*
X143007080Y-88940640D03*
D34*
X151434800Y-95351600D03*
X144602200Y-98196400D03*
X125958600Y-104216200D03*
X124917200Y-104876600D03*
X125882400Y-111048800D03*
X124815600Y-98044000D03*
X125831600Y-97459800D03*
X126796800Y-98044000D03*
X128676400Y-98018600D03*
X145923000Y-98160040D03*
X147777200Y-98160040D03*
X150622000Y-98292170D03*
X152512292Y-98289870D03*
X157607000Y-96850200D03*
X159689800Y-98145600D03*
X161391600Y-98120200D03*
X162419950Y-104114600D03*
X161569400Y-104952800D03*
X161620200Y-108356400D03*
X154406600Y-117576600D03*
X140258800Y-117627400D03*
X128092200Y-96443800D03*
D33*
X137464800Y-100609400D03*
X138531600Y-99441000D03*
X137668000Y-99542600D03*
X138404600Y-100609400D03*
X133964980Y-88945420D03*
X135229600Y-88945420D03*
X136499600Y-88945420D03*
X137769600Y-88945420D03*
X133964980Y-89961420D03*
X136499600Y-89961420D03*
X137769600Y-89961420D03*
X135229600Y-89961420D03*
X136499600Y-90977420D03*
X137769600Y-90977420D03*
X135229600Y-90977420D03*
X133964980Y-90977420D03*
X135229600Y-91993420D03*
X137769600Y-91993420D03*
X133964980Y-91993420D03*
X136499600Y-91993420D03*
X136499600Y-93009420D03*
X137769600Y-93009420D03*
X135229600Y-93009420D03*
X133964980Y-93009420D03*
X124942600Y-92659200D03*
D34*
G04 #@! TO.N,VDD*
X157781944Y-81399767D03*
D35*
X124907040Y-83428840D03*
D33*
X148920200Y-95050001D03*
X143621760Y-98100040D03*
X144185640Y-78861920D03*
X131003040Y-81524150D03*
X131028440Y-82184240D03*
X159298640Y-76296520D03*
X141589760Y-87543131D03*
X155209240Y-92005642D03*
X153111200Y-95549720D03*
D34*
X158470600Y-85242400D03*
X144780000Y-100685600D03*
D33*
G04 #@! TO.N,VIN*
X127609600Y-103174800D03*
D34*
X127736600Y-100634800D03*
X129794000Y-100711000D03*
X125933200Y-100812600D03*
X124891800Y-101473000D03*
X125882400Y-107543600D03*
X124891800Y-108280200D03*
X146634200Y-100863400D03*
X148539200Y-100838000D03*
X151384000Y-100863400D03*
X153492200Y-100838000D03*
X160533080Y-100533200D03*
X162419950Y-100838000D03*
X161544000Y-101549200D03*
X162419950Y-107492800D03*
X162419950Y-110779516D03*
X125857000Y-95275400D03*
D33*
X131697064Y-93257749D03*
X135864600Y-95199200D03*
X128625600Y-103174800D03*
X129641600Y-103174800D03*
X130657600Y-103174800D03*
X127609600Y-104013000D03*
X130657600Y-104013000D03*
X128625600Y-104013000D03*
X129641600Y-104013000D03*
X130657600Y-105029000D03*
X127609600Y-105029000D03*
X129641600Y-105029000D03*
X128625600Y-105029000D03*
X129641600Y-105968800D03*
X127609600Y-105968800D03*
X130657600Y-105968800D03*
X128625600Y-105968800D03*
X146253200Y-105943400D03*
X147269200Y-105003600D03*
X145237200Y-105943400D03*
X147269200Y-105943400D03*
X145237200Y-105003600D03*
X148285200Y-105943400D03*
X145237200Y-103149400D03*
X148285200Y-103987600D03*
X148285200Y-105003600D03*
X146253200Y-105003600D03*
X148285200Y-103149400D03*
X145237200Y-103987600D03*
X147269200Y-103987600D03*
X146253200Y-103149400D03*
X147269200Y-103149400D03*
X146253200Y-103987600D03*
X154025600Y-103987600D03*
X151993600Y-105943400D03*
X151993600Y-103987600D03*
X150977600Y-103149400D03*
X150977600Y-103987600D03*
X153009600Y-105943400D03*
X153009600Y-103149400D03*
X153009600Y-103987600D03*
X154025600Y-105003600D03*
X150977600Y-105943400D03*
X151993600Y-103149400D03*
X151993600Y-105003600D03*
X153009600Y-105003600D03*
X150977600Y-105003600D03*
X154025600Y-105943400D03*
X154025600Y-103149400D03*
G04 #@! TO.N,SW*
X129519680Y-95824040D03*
X130220720Y-94442280D03*
G04 #@! TO.N,Net-(C20-Pad2)*
X158897320Y-92801440D03*
X153407790Y-93913890D03*
G04 #@! TO.N,Net-(J9-Pad6)*
X133822440Y-76865480D03*
D34*
G04 #@! TO.N,SPB*
X140050440Y-98252280D03*
X142036800Y-98582480D03*
D33*
G04 #@! TO.N,SPI2_MOSI*
X145887440Y-89853538D03*
G04 #@! TO.N,SPI2_MISO*
X146801071Y-89823791D03*
G04 #@! TO.N,SPI2_SCK*
X147574000Y-93800000D03*
G04 #@! TO.N,ENABLE*
X132402377Y-85356497D03*
X145772793Y-82900499D03*
G04 #@! TO.N,PWM_C*
X129656198Y-88290400D03*
X147848320Y-82951320D03*
G04 #@! TO.N,PWM_B*
X130906199Y-87792560D03*
X147022793Y-82854800D03*
G04 #@! TO.N,PWM_A*
X132156200Y-87477600D03*
X146397793Y-83593071D03*
G04 #@! TO.N,SPI1_NSS*
X134782560Y-84785200D03*
X147157440Y-83987640D03*
G04 #@! TO.N,SOA*
X139126653Y-86623463D03*
X149098000Y-89209880D03*
G04 #@! TO.N,SOB*
X139624124Y-87249982D03*
X149989522Y-89217518D03*
G04 #@! TO.N,SOC*
X140226553Y-87776368D03*
X150750810Y-88837368D03*
G04 #@! TO.N,CAN1_RX*
X155647282Y-96742358D03*
X153857800Y-84705368D03*
G04 #@! TO.N,CAN1_TX*
X154970480Y-93720920D03*
X154482800Y-83947000D03*
G04 #@! TO.N,ENC_B*
X149909341Y-90957400D03*
G04 #@! TO.N,ENC_A*
X147950831Y-90858051D03*
G04 #@! TO.N,SPI2_NSS*
X145694400Y-92744151D03*
G04 #@! TD*
D36*
G04 #@! TO.N,HSE_OUT*
X148699062Y-79540792D02*
X148651121Y-79492851D01*
X150785183Y-79540792D02*
X148699062Y-79540792D01*
X151534341Y-80289950D02*
X150785183Y-79540792D01*
X151534341Y-81130652D02*
X151534341Y-80289950D01*
G04 #@! TO.N,+3.3VA*
X147232260Y-79062222D02*
X147232260Y-78837040D01*
X148034341Y-79864303D02*
X147232260Y-79062222D01*
X148034341Y-81130652D02*
X148034341Y-79864303D01*
X147232260Y-77684540D02*
X147579760Y-77337040D01*
X147232260Y-78837040D02*
X147232260Y-77684540D01*
X147579760Y-76743798D02*
X147579760Y-77337040D01*
X146939281Y-76103319D02*
X147579760Y-76743798D01*
X146339279Y-76103319D02*
X146939281Y-76103319D01*
X145644760Y-76797838D02*
X146339279Y-76103319D01*
X145644760Y-77337040D02*
X145644760Y-76797838D01*
G04 #@! TO.N,HSE_IN*
X151450341Y-76915791D02*
X152400341Y-76915791D01*
X151375340Y-76990792D02*
X151450341Y-76915791D01*
X152034341Y-80134793D02*
X151375340Y-79475792D01*
X151375340Y-79475792D02*
X151375340Y-76990792D01*
X152034341Y-81130652D02*
X152034341Y-80134793D01*
X153544911Y-76915791D02*
X153944320Y-77315200D01*
X152400341Y-76915791D02*
X153544911Y-76915791D01*
G04 #@! TO.N,Net-(D1-Pad1)*
X127587260Y-80899150D02*
X127041590Y-81444820D01*
X131379010Y-80899150D02*
X127587260Y-80899150D01*
X132257700Y-81777840D02*
X131379010Y-80899150D01*
X127041590Y-81444820D02*
X125255647Y-81444821D01*
X123674860Y-90253782D02*
X124407719Y-90986641D01*
X123674860Y-83025608D02*
X123674860Y-90253782D01*
X125255647Y-81444821D02*
X123674860Y-83025608D01*
X127373079Y-90986641D02*
X127650240Y-90709480D01*
X124407719Y-90986641D02*
X127373079Y-90986641D01*
G04 #@! TO.N,SWDIO*
X153293649Y-91380642D02*
X153034341Y-91639950D01*
X155683234Y-91380642D02*
X153293649Y-91380642D01*
X157723511Y-93420919D02*
X155683234Y-91380642D01*
X158591821Y-93420919D02*
X157723511Y-93420919D01*
X159633952Y-94463050D02*
X158591821Y-93420919D01*
X162777459Y-93676211D02*
X161990620Y-94463050D01*
X162777459Y-87604898D02*
X162777459Y-93676211D01*
X161785591Y-86613030D02*
X162777459Y-87604898D01*
X160469289Y-86613030D02*
X161785591Y-86613030D01*
X153034341Y-91639950D02*
X153034341Y-92480652D01*
X159927430Y-87154889D02*
X160469289Y-86613030D01*
X161990620Y-94463050D02*
X159633952Y-94463050D01*
X159927430Y-88338030D02*
X159927430Y-87154889D01*
X161127440Y-89538040D02*
X159927430Y-88338030D01*
G04 #@! TO.N,SWCLK*
X162327450Y-88738050D02*
X161127440Y-87538040D01*
X162327450Y-91921191D02*
X162327450Y-88738050D01*
X161785591Y-92463050D02*
X162327450Y-91921191D01*
X160469289Y-92463050D02*
X161785591Y-92463050D01*
X159471229Y-91464990D02*
X160469289Y-92463050D01*
X156868679Y-91464990D02*
X159471229Y-91464990D01*
X155959341Y-90555652D02*
X156868679Y-91464990D01*
G04 #@! TO.N,SWO*
X160782431Y-91538040D02*
X161127440Y-91538040D01*
X156800043Y-87555652D02*
X160782431Y-91538040D01*
X155959341Y-87555652D02*
X156800043Y-87555652D01*
G04 #@! TO.N,NRST*
X151013160Y-81151833D02*
X151034341Y-81130652D01*
X151013160Y-83124040D02*
X151013160Y-81151833D01*
G04 #@! TO.N,BOOT0*
X157508080Y-84637840D02*
X157508080Y-84317840D01*
X157090268Y-85055652D02*
X157508080Y-84637840D01*
X155959341Y-85055652D02*
X157090268Y-85055652D01*
G04 #@! TO.N,LED_STATUS*
X153232799Y-84018441D02*
X154873960Y-82377280D01*
X153232799Y-88169812D02*
X153232799Y-84018441D01*
X155118639Y-90055652D02*
X153232799Y-88169812D01*
X155959341Y-90055652D02*
X155118639Y-90055652D01*
X156448580Y-76535280D02*
X156651640Y-76332220D01*
X155676600Y-76535280D02*
X156448580Y-76535280D01*
G04 #@! TO.N,BUCK_SW*
X129763660Y-83926640D02*
X130357880Y-83332420D01*
X128303200Y-83926640D02*
X129763660Y-83926640D01*
X127180200Y-82803640D02*
X127180200Y-82539840D01*
X128303200Y-83926640D02*
X127180200Y-82803640D01*
X127180200Y-82219840D02*
X127180200Y-82539840D01*
X126855190Y-81894830D02*
X127180200Y-82219840D01*
X125442048Y-81894830D02*
X126855190Y-81894830D01*
X124124870Y-83212008D02*
X125442048Y-81894830D01*
X124124870Y-89068790D02*
X124124870Y-83212008D01*
X125267720Y-90211640D02*
X124124870Y-89068790D01*
G04 #@! TO.N,BUCK_BST*
X126103200Y-82646840D02*
X126210200Y-82539840D01*
X126103200Y-83926640D02*
X126103200Y-82646840D01*
G04 #@! TO.N,Net-(C2-Pad1)*
X129613520Y-84876640D02*
X129631440Y-84894560D01*
X128303200Y-84876640D02*
X129613520Y-84876640D01*
X130629520Y-84894560D02*
X130632200Y-84891880D01*
X129631440Y-84894560D02*
X130629520Y-84894560D01*
X130632200Y-84787500D02*
X131899420Y-83520280D01*
X130632200Y-84891880D02*
X130632200Y-84787500D01*
G04 #@! TO.N,Net-(C16-Pad2)*
X134118440Y-95454520D02*
X133979920Y-95593040D01*
X134118440Y-94458280D02*
X134118440Y-95454520D01*
G04 #@! TO.N,+5V*
X132522440Y-79421200D02*
X131648200Y-78546960D01*
X132522440Y-79540480D02*
X132522440Y-79421200D01*
X141319520Y-81381600D02*
X142147560Y-82209640D01*
X140649960Y-81381600D02*
X141319520Y-81381600D01*
X141204839Y-79562199D02*
X141569838Y-79197200D01*
X141204839Y-80826721D02*
X141204839Y-79562199D01*
X140649960Y-81381600D02*
X141204839Y-80826721D01*
X140714841Y-77296221D02*
X139786260Y-76367640D01*
X140714841Y-78342203D02*
X140714841Y-77296221D01*
X141569838Y-79197200D02*
X140714841Y-78342203D01*
X142059840Y-79197200D02*
X141569838Y-79197200D01*
G04 #@! TO.N,Net-(F1-Pad1)*
X133862420Y-81748120D02*
X133832700Y-81777840D01*
X136326880Y-81748120D02*
X133862420Y-81748120D01*
D37*
G04 #@! TO.N,USB_CONN_D+*
X137483118Y-78565479D02*
X139064839Y-80147200D01*
X134032439Y-78565479D02*
X137483118Y-78565479D01*
X133972439Y-78625479D02*
X134032439Y-78565479D01*
X133972439Y-79376878D02*
X133972439Y-78625479D01*
X133822440Y-79526877D02*
X133972439Y-79376878D01*
X139064839Y-80147200D02*
X139859840Y-80147200D01*
X133822440Y-79540480D02*
X133822440Y-79526877D01*
G04 #@! TO.N,USB_CONN_D-*
X133322439Y-78639096D02*
X133846047Y-78115488D01*
X139064839Y-78247200D02*
X139859840Y-78247200D01*
X133322439Y-79390481D02*
X133322439Y-78639096D01*
X133172440Y-79540480D02*
X133322439Y-79390481D01*
X133846047Y-78115488D02*
X138933127Y-78115488D01*
X138933127Y-78115488D02*
X139064839Y-78247200D01*
D36*
G04 #@! TO.N,SPI1_SCK*
X135601530Y-84987310D02*
X135620760Y-84968080D01*
X135601530Y-87533970D02*
X135601530Y-84987310D01*
X135617040Y-87549480D02*
X135601530Y-87533970D01*
X146795548Y-85055652D02*
X144609341Y-85055652D01*
X146908520Y-84942680D02*
X146795548Y-85055652D01*
G04 #@! TO.N,BUCK_FB*
X126720600Y-86444040D02*
X126103200Y-85826640D01*
X126720600Y-87213440D02*
X126720600Y-86444040D01*
X124822640Y-85326080D02*
X124769880Y-85326080D01*
X125323200Y-85826640D02*
X124822640Y-85326080D01*
X126103200Y-85826640D02*
X125323200Y-85826640D01*
G04 #@! TO.N,Net-(R2-Pad2)*
X129593520Y-85826640D02*
X129631440Y-85864560D01*
X128303200Y-85826640D02*
X129593520Y-85826640D01*
X128303200Y-86855480D02*
X128661160Y-87213440D01*
X128303200Y-85826640D02*
X128303200Y-86855480D01*
G04 #@! TO.N,Net-(R3-Pad2)*
X124800080Y-87213440D02*
X124769880Y-87243640D01*
X125750600Y-87213440D02*
X124800080Y-87213440D01*
D37*
G04 #@! TO.N,USB_D-*
X144090600Y-80607560D02*
X144290600Y-80807560D01*
X143424750Y-79704906D02*
X144090600Y-80370756D01*
X143424750Y-79167108D02*
X143424750Y-79704906D01*
X142829841Y-78572199D02*
X143424750Y-79167108D01*
X142384839Y-78572199D02*
X142829841Y-78572199D01*
X142059840Y-78247200D02*
X142384839Y-78572199D01*
X144090600Y-80370756D02*
X144090600Y-80607560D01*
D36*
X152034341Y-91592501D02*
X152034341Y-92480652D01*
X151984351Y-91542511D02*
X152034341Y-91592501D01*
X151984351Y-88796585D02*
X151984351Y-91542511D01*
X152199256Y-88581680D02*
X151984351Y-88796585D01*
X152623520Y-88581680D02*
X152199256Y-88581680D01*
D37*
G04 #@! TO.N,USB_D+*
X143640600Y-80607560D02*
X143440600Y-80807560D01*
X143640600Y-80557139D02*
X143640600Y-80607560D01*
X143230661Y-80147200D02*
X143640600Y-80557139D01*
X142059840Y-80147200D02*
X143230661Y-80147200D01*
D36*
X152534341Y-89520859D02*
X152623520Y-89431680D01*
X152534341Y-92480652D02*
X152534341Y-89520859D01*
G04 #@! TO.N,SPI1_MISO*
X136633040Y-86739270D02*
X136977120Y-86395190D01*
X136633040Y-87549480D02*
X136633040Y-86739270D01*
X136977120Y-85399761D02*
X136870440Y-85293081D01*
X136977120Y-86395190D02*
X136977120Y-85399761D01*
X147135326Y-85844742D02*
X147435325Y-85544743D01*
X146885580Y-85844742D02*
X147135326Y-85844742D01*
X146596490Y-85555652D02*
X146885580Y-85844742D01*
X144609341Y-85555652D02*
X146596490Y-85555652D01*
X143272212Y-85555652D02*
X143042640Y-85326080D01*
X144609341Y-85555652D02*
X143272212Y-85555652D01*
G04 #@! TO.N,SPI1_MOSI*
X136125040Y-86256880D02*
X136352120Y-86029800D01*
X136125040Y-87549480D02*
X136125040Y-86256880D01*
X146168637Y-86055652D02*
X144609341Y-86055652D01*
X146293637Y-86180652D02*
X146168637Y-86055652D01*
G04 #@! TO.N,BGND*
X157280841Y-83555652D02*
X155959342Y-83555652D01*
X157523341Y-83313152D02*
X157280841Y-83555652D01*
D38*
X155127841Y-80011152D02*
X156189841Y-80011152D01*
X155110341Y-79993652D02*
X155127841Y-80011152D01*
X156189841Y-80011152D02*
X156201419Y-79999573D01*
X155110341Y-79087375D02*
X155110341Y-79993652D01*
X155051947Y-79028980D02*
X155110341Y-79087375D01*
D36*
X144434760Y-92545733D02*
X144505841Y-92474652D01*
X144434760Y-93590400D02*
X144434760Y-92545733D01*
X139325440Y-99858280D02*
X139216940Y-99966780D01*
X139325440Y-93747080D02*
X139325440Y-99858280D01*
X127371840Y-95465760D02*
X127371840Y-96022160D01*
X125417720Y-93511640D02*
X127371840Y-95465760D01*
X125267720Y-93511640D02*
X125417720Y-93511640D01*
X135871040Y-91541280D02*
X135871040Y-91003880D01*
X133610440Y-93801880D02*
X135871040Y-91541280D01*
X133610440Y-94458280D02*
X133610440Y-93801880D01*
X135617040Y-91257880D02*
X135871040Y-91003880D01*
X132416640Y-91257880D02*
X135617040Y-91257880D01*
X133610440Y-86602800D02*
X133610440Y-87549480D01*
X133418440Y-86410800D02*
X133610440Y-86602800D01*
X133610440Y-88743280D02*
X133812580Y-88945420D01*
X133610440Y-87549480D02*
X133610440Y-88743280D01*
X127448199Y-86970479D02*
X127691160Y-87213440D01*
X127448199Y-85731637D02*
X127448199Y-86970479D01*
X126593202Y-84876640D02*
X127448199Y-85731637D01*
X126103200Y-84876640D02*
X126593202Y-84876640D01*
X135122440Y-80465480D02*
X135122440Y-79540480D01*
X135472450Y-80815490D02*
X135122440Y-80465480D01*
X139088412Y-80815490D02*
X135472450Y-80815490D01*
X139622561Y-81349639D02*
X139088412Y-80815490D01*
X139622561Y-83069641D02*
X139622561Y-81349639D01*
X138169081Y-84523121D02*
X139622561Y-83069641D01*
X136151881Y-84523121D02*
X138169081Y-84523121D01*
X135376880Y-83748120D02*
X136151881Y-84523121D01*
X137623640Y-87549480D02*
X137623640Y-89251280D01*
X136860740Y-98996492D02*
X136860740Y-99966780D01*
X138614240Y-97242992D02*
X136860740Y-98996492D01*
X138614240Y-94458280D02*
X138614240Y-97242992D01*
X137623640Y-89251280D02*
X135871040Y-91003880D01*
X139325440Y-89251280D02*
X137623640Y-89251280D01*
X131965840Y-96636840D02*
X131965840Y-97331250D01*
X130813910Y-98483180D02*
X129296160Y-98483180D01*
X131965840Y-97331250D02*
X130813910Y-98483180D01*
X153613729Y-78615791D02*
X153944320Y-78285200D01*
X152400341Y-78615791D02*
X153613729Y-78615791D01*
X149053060Y-76915791D02*
X148651121Y-76513852D01*
X150200341Y-76915791D02*
X149053060Y-76915791D01*
X146609760Y-76757840D02*
X146639280Y-76728320D01*
X146609760Y-77337040D02*
X146609760Y-76757840D01*
X138614240Y-94458280D02*
X138614240Y-93747080D01*
X138614240Y-93747080D02*
X135871040Y-91003880D01*
X139325440Y-93747080D02*
X138614240Y-93747080D01*
X128145680Y-82550000D02*
X128145680Y-81544160D01*
D38*
X160289560Y-80088600D02*
X161955480Y-78422680D01*
X158475680Y-80088600D02*
X160289560Y-80088600D01*
X157377151Y-80011151D02*
X157454600Y-80088600D01*
X156189841Y-80011151D02*
X157377151Y-80011151D01*
X158475680Y-80088600D02*
X157454600Y-80088600D01*
X157843341Y-83313151D02*
X161955480Y-79201012D01*
X161955480Y-79201012D02*
X161955480Y-78422680D01*
X157523341Y-83313151D02*
X157843341Y-83313151D01*
D36*
X142788640Y-89159080D02*
X143007080Y-88940640D01*
X142788640Y-89453820D02*
X142788640Y-89159080D01*
X148233698Y-76513852D02*
X147759623Y-76039777D01*
X148651121Y-76513852D02*
X148233698Y-76513852D01*
X144674760Y-76671000D02*
X144800320Y-76545440D01*
X144674760Y-77337040D02*
X144674760Y-76671000D01*
X143499840Y-83286853D02*
X143499840Y-81772760D01*
X143768639Y-83555652D02*
X143499840Y-83286853D01*
X144609341Y-83555652D02*
X143768639Y-83555652D01*
X126974600Y-84876640D02*
X127045720Y-84805520D01*
X126103200Y-84876640D02*
X126974600Y-84876640D01*
X125001413Y-86273640D02*
X125156877Y-86429104D01*
X124769880Y-86273640D02*
X125001413Y-86273640D01*
X128145680Y-82801600D02*
X128305560Y-82961480D01*
X128145680Y-82550000D02*
X128145680Y-82801600D01*
X130289160Y-90715960D02*
X129621280Y-90048080D01*
X130289160Y-91059000D02*
X130289160Y-90715960D01*
X131955400Y-94271960D02*
X132222240Y-94538800D01*
X131282440Y-94271960D02*
X131955400Y-94271960D01*
X140258040Y-89251280D02*
X139325440Y-89251280D01*
X140851554Y-88657766D02*
X140258040Y-89251280D01*
X140851554Y-86384074D02*
X140851554Y-88657766D01*
X139679400Y-85211920D02*
X140851554Y-86384074D01*
X137472110Y-80815490D02*
X138104880Y-80182720D01*
X135472450Y-80815490D02*
X137472110Y-80815490D01*
X139864920Y-79202280D02*
X139859840Y-79197200D01*
X140528040Y-79202280D02*
X139864920Y-79202280D01*
X155929760Y-93430520D02*
X155940760Y-93441520D01*
X155929760Y-92615400D02*
X155929760Y-93430520D01*
X157772800Y-94461900D02*
X157022800Y-95211900D01*
X158522800Y-94461900D02*
X157772800Y-94461900D01*
X144434760Y-93481960D02*
X144622520Y-93294200D01*
X148534341Y-83459099D02*
X148315680Y-83677760D01*
X148534341Y-81130652D02*
X148534341Y-83459099D01*
X153732479Y-78615791D02*
X155110340Y-79993652D01*
X152400341Y-78615791D02*
X153732479Y-78615791D01*
X143649560Y-77320280D02*
X143637000Y-77332840D01*
X143649560Y-76367640D02*
X143649560Y-77320280D01*
X158602580Y-90652500D02*
X158658560Y-90708480D01*
X157797500Y-90652500D02*
X158602580Y-90652500D01*
X156772800Y-94961900D02*
X157022800Y-95211900D01*
X155522800Y-94961900D02*
X156772800Y-94961900D01*
X144607280Y-93417880D02*
X144434760Y-93590400D01*
X144607280Y-93369151D02*
X144607280Y-93417880D01*
X146706361Y-90594132D02*
X147158861Y-90594132D01*
X144825841Y-92474652D02*
X146706361Y-90594132D01*
X144505841Y-92474652D02*
X144825841Y-92474652D01*
X162059860Y-108734620D02*
X161671000Y-109123480D01*
X162077400Y-108734620D02*
X162059860Y-108734620D01*
X162079940Y-105328430D02*
X162379950Y-105628440D01*
X162079940Y-105300780D02*
X162079940Y-105328430D01*
X160098740Y-98421980D02*
X160098740Y-98381820D01*
D38*
X153000021Y-98417380D02*
X152722735Y-98694666D01*
X153024840Y-98417380D02*
X153000021Y-98417380D01*
X150730850Y-98419680D02*
X150643340Y-98332170D01*
X151056340Y-98419680D02*
X150730850Y-98419680D01*
X139216940Y-99592820D02*
X139441950Y-99367810D01*
X139216940Y-99966780D02*
X139216940Y-99592820D01*
D36*
X135122440Y-80350482D02*
X135122440Y-79540480D01*
X133826065Y-80540481D02*
X134932441Y-80540481D01*
X133070190Y-81296356D02*
X133826065Y-80540481D01*
X133070190Y-82259324D02*
X133070190Y-81296356D01*
X132961910Y-82367604D02*
X133070190Y-82259324D01*
X132961910Y-84212120D02*
X132961910Y-82367604D01*
X134932441Y-80540481D02*
X135122440Y-80350482D01*
X132470110Y-84703920D02*
X132961910Y-84212120D01*
X130952200Y-85861880D02*
X132110160Y-84703920D01*
X132110160Y-84703920D02*
X132470110Y-84703920D01*
X130632200Y-85861880D02*
X130952200Y-85861880D01*
X152951710Y-94733890D02*
X152346700Y-95338900D01*
X153643354Y-94733890D02*
X152951710Y-94733890D01*
X153871364Y-94961900D02*
X153643354Y-94733890D01*
X155522800Y-94961900D02*
X153871364Y-94961900D01*
D38*
X151447500Y-95338900D02*
X151434800Y-95351600D01*
X152346700Y-95338900D02*
X151447500Y-95338900D01*
X161114700Y-97464840D02*
X162079940Y-98430080D01*
X161114700Y-96888300D02*
X161114700Y-97464840D01*
X145189220Y-98483180D02*
X146306540Y-98483180D01*
X144551400Y-99121000D02*
X145189220Y-98483180D01*
X144551400Y-98247200D02*
X144602200Y-98196400D01*
X144551400Y-99121000D02*
X144551400Y-98247200D01*
X125527280Y-103784880D02*
X125958600Y-104216200D01*
X125376940Y-103784880D02*
X125527280Y-103784880D01*
X125366780Y-105326180D02*
X124917200Y-104876600D01*
X125376940Y-105326180D02*
X125366780Y-105326180D01*
X125463540Y-110629940D02*
X125882400Y-111048800D01*
X125379480Y-110629940D02*
X125463540Y-110629940D01*
X125254780Y-98483180D02*
X124815600Y-98044000D01*
X125359160Y-98483180D02*
X125254780Y-98483180D01*
X125349000Y-96977200D02*
X125831600Y-97459800D01*
X125349000Y-96921320D02*
X125349000Y-96977200D01*
X127235980Y-98483180D02*
X126796800Y-98044000D01*
X127327660Y-98483180D02*
X127235980Y-98483180D01*
X129140980Y-98483180D02*
X128676400Y-98018600D01*
X129296160Y-98483180D02*
X129140980Y-98483180D01*
X146246140Y-98483180D02*
X145923000Y-98160040D01*
X146306540Y-98483180D02*
X146246140Y-98483180D01*
X148100340Y-98483180D02*
X147777200Y-98160040D01*
X148275040Y-98483180D02*
X148100340Y-98483180D01*
X150749510Y-98419680D02*
X150622000Y-98292170D01*
X151056340Y-98419680D02*
X150749510Y-98419680D01*
X152639802Y-98417380D02*
X152512292Y-98289870D01*
X153024840Y-98417380D02*
X152639802Y-98417380D01*
X157952440Y-97195640D02*
X157607000Y-96850200D01*
X157952440Y-97347580D02*
X157952440Y-97195640D01*
X159966180Y-98421980D02*
X159689800Y-98145600D01*
X160098740Y-98421980D02*
X159966180Y-98421980D01*
X161701480Y-98430080D02*
X161391600Y-98120200D01*
X162079940Y-98430080D02*
X161701480Y-98430080D01*
X162079940Y-103774590D02*
X162419950Y-104114600D01*
X162079940Y-103736380D02*
X162079940Y-103774590D01*
X161917380Y-105300780D02*
X161569400Y-104952800D01*
X162079940Y-105300780D02*
X161917380Y-105300780D01*
X161998420Y-108734620D02*
X161620200Y-108356400D01*
X162077400Y-108734620D02*
X161998420Y-108734620D01*
X154354620Y-117628580D02*
X154406600Y-117576600D01*
X153141440Y-117628580D02*
X154354620Y-117628580D01*
X140252420Y-117633780D02*
X140258800Y-117627400D01*
X138790440Y-117633780D02*
X140252420Y-117633780D01*
X127670560Y-96022160D02*
X128092200Y-96443800D01*
X127371840Y-96022160D02*
X127670560Y-96022160D01*
X136860740Y-100005340D02*
X137464800Y-100609400D01*
X136860740Y-99966780D02*
X136860740Y-100005340D01*
X139057380Y-99966780D02*
X138531600Y-99441000D01*
X139216940Y-99966780D02*
X139057380Y-99966780D01*
X137243820Y-99966780D02*
X137668000Y-99542600D01*
X136860740Y-99966780D02*
X137243820Y-99966780D01*
X139047220Y-99966780D02*
X138404600Y-100609400D01*
X139216940Y-99966780D02*
X139047220Y-99966780D01*
D36*
X133812580Y-88945420D02*
X135871040Y-91003880D01*
D38*
X125267720Y-92984320D02*
X124942600Y-92659200D01*
X125267720Y-93511640D02*
X125267720Y-92984320D01*
D36*
G04 #@! TO.N,VDD*
X156671842Y-82343152D02*
X157523342Y-82343152D01*
X155959341Y-83055653D02*
X156671842Y-82343152D01*
D38*
X155110341Y-81027110D02*
X155110341Y-80963653D01*
X157523342Y-81656530D02*
X157780103Y-81399768D01*
X157523342Y-82343152D02*
X157523342Y-81656530D01*
D36*
X154825012Y-92480652D02*
X154959760Y-92615400D01*
X154034341Y-92480652D02*
X154825012Y-92480652D01*
X144609341Y-91401152D02*
X144505841Y-91504652D01*
X144609341Y-90555652D02*
X144609341Y-91401152D01*
X124769880Y-83566000D02*
X124907040Y-83428840D01*
X124769880Y-84356080D02*
X124769880Y-83566000D01*
X129115680Y-82550000D02*
X129115680Y-81544160D01*
X129565300Y-82550000D02*
X130357880Y-81757420D01*
X129115680Y-82550000D02*
X129565300Y-82550000D01*
X138709400Y-86156832D02*
X138709400Y-85211920D01*
X138131640Y-86734592D02*
X138709400Y-86156832D01*
X138131640Y-87549480D02*
X138131640Y-86734592D01*
X138681600Y-85184120D02*
X138709400Y-85211920D01*
X137723880Y-85184120D02*
X138681600Y-85184120D01*
X143343068Y-84055652D02*
X144609341Y-84055652D01*
X143042640Y-84356080D02*
X143343068Y-84055652D01*
X139547008Y-84356080D02*
X143042640Y-84356080D01*
X139059390Y-85156930D02*
X139059390Y-84843698D01*
X139004400Y-85211920D02*
X139059390Y-85156930D01*
X139059390Y-84843698D02*
X139547008Y-84356080D01*
X138709400Y-85211920D02*
X139004400Y-85211920D01*
X148866199Y-95050001D02*
X148857918Y-95041720D01*
X148920200Y-95050001D02*
X148866199Y-95050001D01*
X146856080Y-95041720D02*
X145404760Y-93590400D01*
X148857918Y-95041720D02*
X146856080Y-95041720D01*
X154943340Y-81130652D02*
X155110340Y-80963652D01*
X154034341Y-81130652D02*
X154943340Y-81130652D01*
X157523341Y-82314651D02*
X156189841Y-80981151D01*
X157523341Y-82343151D02*
X157523341Y-82314651D01*
X153742200Y-95461900D02*
X153619200Y-95338900D01*
X155522800Y-95461900D02*
X153742200Y-95461900D01*
X144185841Y-91504652D02*
X143722540Y-91967953D01*
X144505841Y-91504652D02*
X144185841Y-91504652D01*
X145404760Y-93910400D02*
X145404760Y-93590400D01*
X145079750Y-94235410D02*
X145404760Y-93910400D01*
X144091538Y-94235410D02*
X145079750Y-94235410D01*
X143722540Y-93866412D02*
X144091538Y-94235410D01*
X143722540Y-91967953D02*
X143722540Y-93866412D01*
X144210520Y-78837040D02*
X144185640Y-78861920D01*
X145357260Y-78837040D02*
X144210520Y-78837040D01*
X130769770Y-81757420D02*
X131003040Y-81524150D01*
X130357880Y-81757420D02*
X130769770Y-81757420D01*
X130601620Y-81757420D02*
X131028440Y-82184240D01*
X130357880Y-81757420D02*
X130601620Y-81757420D01*
X159262940Y-76332220D02*
X159298640Y-76296520D01*
X158351640Y-76332220D02*
X159262940Y-76332220D01*
X141589760Y-85488960D02*
X141589760Y-87543131D01*
X142722640Y-84356080D02*
X141589760Y-85488960D01*
X143042640Y-84356080D02*
X142722640Y-84356080D01*
X154959760Y-92255122D02*
X155209240Y-92005642D01*
X154959760Y-92615400D02*
X154959760Y-92255122D01*
X153322020Y-95338900D02*
X153111200Y-95549720D01*
X153619200Y-95338900D02*
X153322020Y-95338900D01*
D38*
X156172342Y-80963652D02*
X156189841Y-80981151D01*
X155110340Y-80963652D02*
X156172342Y-80963652D01*
X158478080Y-85234920D02*
X158470600Y-85242400D01*
X158478080Y-84317840D02*
X158478080Y-85234920D01*
X144551400Y-100457000D02*
X144780000Y-100685600D01*
X144551400Y-100091000D02*
X144551400Y-100457000D01*
D36*
G04 #@! TO.N,VIN*
X136125040Y-95228320D02*
X135768080Y-95585280D01*
X136125040Y-94458280D02*
X136125040Y-95228320D01*
X131319920Y-93264480D02*
X131282440Y-93301960D01*
X132416640Y-93264480D02*
X131319920Y-93264480D01*
X135617040Y-94458280D02*
X135617040Y-95434240D01*
X135617040Y-95434240D02*
X135768080Y-95585280D01*
X151056340Y-100294680D02*
X151056340Y-99936300D01*
X153024840Y-100292380D02*
X153024840Y-100020120D01*
D38*
X153139140Y-102160680D02*
X154409140Y-102160680D01*
X129783840Y-102224180D02*
X131053840Y-102224180D01*
X128013940Y-104564180D02*
X125376940Y-107201180D01*
X129148840Y-104564180D02*
X128013940Y-104564180D01*
X147436840Y-102217080D02*
X148706840Y-102217080D01*
X160296860Y-100296980D02*
X160533080Y-100533200D01*
X153231060Y-100292380D02*
X153334720Y-100396040D01*
X153024840Y-100292380D02*
X153231060Y-100292380D01*
X148422141Y-100358180D02*
X148576841Y-100512880D01*
X148275040Y-100358180D02*
X148422141Y-100358180D01*
X146520140Y-100358180D02*
X146639280Y-100477320D01*
X146306540Y-100358180D02*
X146520140Y-100358180D01*
D39*
X123845679Y-98844699D02*
X125359160Y-100358180D01*
X123845679Y-95818601D02*
X123845679Y-98844699D01*
X124617960Y-95046320D02*
X123845679Y-95818601D01*
X125349000Y-95046320D02*
X124617960Y-95046320D01*
D38*
X127459980Y-100358180D02*
X127736600Y-100634800D01*
X127327660Y-100358180D02*
X127459980Y-100358180D01*
X129441180Y-100358180D02*
X129794000Y-100711000D01*
X129296160Y-100358180D02*
X129441180Y-100358180D01*
X125478780Y-100358180D02*
X125933200Y-100812600D01*
X125359160Y-100358180D02*
X125478780Y-100358180D01*
X125328680Y-101909880D02*
X124891800Y-101473000D01*
X125376940Y-101909880D02*
X125328680Y-101909880D01*
X125539980Y-107201180D02*
X125882400Y-107543600D01*
X125376940Y-107201180D02*
X125539980Y-107201180D01*
X125366540Y-108754940D02*
X124891800Y-108280200D01*
X125379480Y-108754940D02*
X125366540Y-108754940D01*
X146306540Y-100535740D02*
X146634200Y-100863400D01*
X146306540Y-100358180D02*
X146306540Y-100535740D01*
X148275040Y-100573840D02*
X148539200Y-100838000D01*
X148275040Y-100358180D02*
X148275040Y-100573840D01*
X151056340Y-100535740D02*
X151384000Y-100863400D01*
X151056340Y-100294680D02*
X151056340Y-100535740D01*
X153024840Y-100370640D02*
X153492200Y-100838000D01*
X153024840Y-100292380D02*
X153024840Y-100370640D01*
X160098740Y-100296980D02*
X160296860Y-100296980D01*
X162079940Y-100497990D02*
X162419950Y-100838000D01*
X162079940Y-100305080D02*
X162079940Y-100497990D01*
X161856180Y-101861380D02*
X161544000Y-101549200D01*
X162079940Y-101861380D02*
X161856180Y-101861380D01*
X162102930Y-107175780D02*
X162419950Y-107492800D01*
X162079940Y-107175780D02*
X162102930Y-107175780D01*
X162250054Y-110609620D02*
X162419950Y-110779516D01*
X162077400Y-110609620D02*
X162250054Y-110609620D01*
X125627920Y-95046320D02*
X125857000Y-95275400D01*
X125349000Y-95046320D02*
X125627920Y-95046320D01*
D36*
X135864600Y-95488760D02*
X135768080Y-95585280D01*
X135864600Y-95199200D02*
X135864600Y-95488760D01*
G04 #@! TO.N,Net-(C16-Pad1)*
X134299920Y-96563040D02*
X133979920Y-96563040D01*
X134626440Y-96236520D02*
X134299920Y-96563040D01*
X134626440Y-94458280D02*
X134626440Y-96236520D01*
G04 #@! TO.N,Net-(C17-Pad2)*
X132448440Y-86870080D02*
X133127840Y-87549480D01*
X132448440Y-86410800D02*
X132448440Y-86870080D01*
G04 #@! TO.N,SW*
X130637430Y-92958738D02*
X131254608Y-92341560D01*
X131254608Y-92341560D02*
X131282440Y-92341560D01*
X130637430Y-93598850D02*
X130637430Y-92958738D01*
X130296820Y-93939460D02*
X130637430Y-93598850D01*
X129748280Y-93939460D02*
X130296820Y-93939460D01*
X131375520Y-92248480D02*
X131282440Y-92341560D01*
X132416640Y-92248480D02*
X131375520Y-92248480D01*
X129717800Y-96022160D02*
X129519680Y-95824040D01*
X130671840Y-96022160D02*
X129717800Y-96022160D01*
X130220720Y-94411900D02*
X129748280Y-93939460D01*
X130220720Y-94442280D02*
X130220720Y-94411900D01*
G04 #@! TO.N,CB*
X131676760Y-91765880D02*
X131282440Y-91371560D01*
X132416640Y-91765880D02*
X131676760Y-91765880D01*
G04 #@! TO.N,Net-(C19-Pad2)*
X143509331Y-90314960D02*
X143768639Y-90055652D01*
X141988630Y-89897804D02*
X142405786Y-90314960D01*
X143768639Y-90055652D02*
X144609341Y-90055652D01*
X141988630Y-88678830D02*
X141988630Y-89897804D01*
X142405786Y-90314960D02*
X143509331Y-90314960D01*
X142788640Y-87878820D02*
X141988630Y-88678830D01*
G04 #@! TO.N,Net-(C20-Pad2)*
X158323380Y-92227500D02*
X158897320Y-92801440D01*
X157797500Y-92227500D02*
X158323380Y-92227500D01*
X153534341Y-93787339D02*
X153534341Y-92480652D01*
X153407790Y-93913890D02*
X153534341Y-93787339D01*
G04 #@! TO.N,Net-(C21-Pad2)*
X135448080Y-96555280D02*
X135768080Y-96555280D01*
X135109040Y-96216240D02*
X135448080Y-96555280D01*
X135109040Y-94458280D02*
X135109040Y-96216240D01*
G04 #@! TO.N,+5VD*
X128737919Y-95097159D02*
X127650240Y-94009480D01*
X131447239Y-95097159D02*
X128737919Y-95097159D01*
X131965840Y-95615760D02*
X131447239Y-95097159D01*
X128103260Y-94009480D02*
X129748280Y-92364460D01*
X127650240Y-94009480D02*
X128103260Y-94009480D01*
X129319160Y-91935340D02*
X129319160Y-91059000D01*
X129748280Y-92364460D02*
X129319160Y-91935340D01*
G04 #@! TO.N,VIO*
X159449200Y-96888300D02*
X158522800Y-95961900D01*
X160144700Y-96888300D02*
X159449200Y-96888300D01*
G04 #@! TO.N,Net-(C26-Pad2)*
X148651121Y-78522851D02*
X148651121Y-77483852D01*
X148744061Y-78615791D02*
X148651121Y-78522851D01*
X150200341Y-78615791D02*
X148744061Y-78615791D01*
G04 #@! TO.N,Net-(D2-Pad1)*
X136501879Y-82973119D02*
X137276880Y-83748120D01*
X134321581Y-82973119D02*
X136501879Y-82973119D01*
X133774420Y-83520280D02*
X134321581Y-82973119D01*
X138815360Y-82209640D02*
X137276880Y-83748120D01*
X138847560Y-82209640D02*
X138815360Y-82209640D01*
G04 #@! TO.N,Net-(D6-Pad1)*
X157454600Y-78710180D02*
X156651640Y-77907220D01*
X157454600Y-79118600D02*
X157454600Y-78710180D01*
G04 #@! TO.N,Net-(D7-Pad1)*
X158475680Y-78031260D02*
X158351640Y-77907220D01*
X158475680Y-79118600D02*
X158475680Y-78031260D01*
G04 #@! TO.N,CANL*
X163104950Y-108502330D02*
X163102410Y-108504870D01*
X163104950Y-97332056D02*
X163104950Y-108502330D01*
X161234794Y-95461900D02*
X163104950Y-97332056D01*
X158522800Y-95461900D02*
X161234794Y-95461900D01*
X157143230Y-115553570D02*
X151466450Y-115553570D01*
X160138770Y-112558030D02*
X157143230Y-115553570D01*
X161633341Y-112558029D02*
X160138770Y-112558030D01*
X163104950Y-111086420D02*
X161633341Y-112558029D01*
X151466450Y-115553570D02*
X151141440Y-115878580D01*
X163104950Y-108502330D02*
X163104950Y-111086420D01*
X136790440Y-117070590D02*
X136790440Y-117633780D01*
X138307460Y-115553570D02*
X136790440Y-117070590D01*
X150816430Y-115553570D02*
X138307460Y-115553570D01*
X151141440Y-115878580D02*
X150816430Y-115553570D01*
X151141440Y-117628580D02*
X151141440Y-115878580D01*
G04 #@! TO.N,CANH*
X149141440Y-119378580D02*
X149141440Y-117628580D01*
X153629620Y-119703590D02*
X149466450Y-119703590D01*
X149466450Y-119703590D02*
X149141440Y-119378580D01*
X161819741Y-113008039D02*
X160325171Y-113008039D01*
X163554959Y-111272821D02*
X161819741Y-113008039D01*
X163554960Y-97145656D02*
X163554959Y-111272821D01*
X160325171Y-113008039D02*
X153629620Y-119703590D01*
X161371204Y-94961900D02*
X163554960Y-97145656D01*
X158522800Y-94961900D02*
X161371204Y-94961900D01*
X134790440Y-119383780D02*
X134790440Y-117633780D01*
X135115450Y-119708790D02*
X134790440Y-119383780D01*
X147061230Y-119708790D02*
X135115450Y-119708790D01*
X149141440Y-117628580D02*
X147061230Y-119708790D01*
G04 #@! TO.N,Net-(J9-Pad6)*
X130084940Y-78352980D02*
X131597440Y-79865480D01*
X130084940Y-76865480D02*
X130084940Y-78352980D01*
X132885323Y-77802597D02*
X133822440Y-76865480D01*
X130584557Y-77802597D02*
X132885323Y-77802597D01*
X129647440Y-76865480D02*
X130584557Y-77802597D01*
G04 #@! TO.N,FAULT*
X137723880Y-86284840D02*
X137723880Y-86154120D01*
X137115640Y-86893080D02*
X137723880Y-86284840D01*
X137115640Y-87549480D02*
X137115640Y-86893080D01*
G04 #@! TO.N,FB*
X133127840Y-95423760D02*
X132935840Y-95615760D01*
X133127840Y-94458280D02*
X133127840Y-95423760D01*
X132935840Y-96636840D02*
X132935840Y-95615760D01*
G04 #@! TO.N,SPA*
X134060740Y-98793760D02*
X134060740Y-99966780D01*
X134222470Y-98632030D02*
X134060740Y-98793760D01*
X136588792Y-98632030D02*
X134222470Y-98632030D01*
X138131640Y-97089182D02*
X136588792Y-98632030D01*
X138131640Y-94458280D02*
X138131640Y-97089182D01*
G04 #@! TO.N,SPB*
X140056841Y-98245879D02*
X140050440Y-98252280D01*
X140056841Y-93334679D02*
X140056841Y-98245879D01*
X139986642Y-93264480D02*
X140056841Y-93334679D01*
X139325440Y-93264480D02*
X139986642Y-93264480D01*
X142036800Y-99946920D02*
X142016940Y-99966780D01*
X142036800Y-98582480D02*
X142036800Y-99946920D01*
D38*
X141721840Y-102122680D02*
X142991840Y-102122680D01*
D36*
G04 #@! TO.N,SPC*
X157880860Y-100076000D02*
X157952440Y-100147580D01*
X156354171Y-100076000D02*
X157880860Y-100076000D01*
X156354171Y-98333131D02*
X156354171Y-100076000D01*
X154275883Y-96254843D02*
X156354171Y-98333131D01*
X150358252Y-96254842D02*
X154275883Y-96254843D01*
X149778412Y-95675002D02*
X150358252Y-96254842D01*
X144064821Y-95675001D02*
X149778412Y-95675002D01*
X143272530Y-92095498D02*
X143272530Y-94882710D01*
X143272530Y-94882710D02*
X144064821Y-95675001D01*
X140936312Y-89759280D02*
X143272530Y-92095498D01*
X139325440Y-89759280D02*
X140936312Y-89759280D01*
G04 #@! TO.N,SPI2_MOSI*
X149034341Y-86706637D02*
X149034341Y-81130652D01*
X145887440Y-89853538D02*
X149034341Y-86706637D01*
G04 #@! TO.N,SPI2_MISO*
X149534341Y-87090521D02*
X149534341Y-81130652D01*
X146801071Y-89823791D02*
X149534341Y-87090521D01*
G04 #@! TO.N,SPI2_SCK*
X147034341Y-93684605D02*
X147034341Y-92480652D01*
X147149736Y-93800000D02*
X147034341Y-93684605D01*
X147574000Y-93800000D02*
X147149736Y-93800000D01*
G04 #@! TO.N,ENABLE*
X133352369Y-85356497D02*
X132402377Y-85356497D01*
X134626440Y-86630568D02*
X133352369Y-85356497D01*
X134626440Y-87549480D02*
X134626440Y-86630568D01*
X144764494Y-82900499D02*
X144609341Y-83055652D01*
X145772793Y-82900499D02*
X144764494Y-82900499D01*
X131531199Y-86227675D02*
X132402377Y-85356497D01*
X131531199Y-88519041D02*
X131531199Y-86227675D01*
X131755438Y-88743280D02*
X131531199Y-88519041D01*
X132416640Y-88743280D02*
X131755438Y-88743280D01*
X130281198Y-87477676D02*
X132402377Y-85356497D01*
X130281198Y-88541860D02*
X130281198Y-87477676D01*
X131498618Y-89759280D02*
X130281198Y-88541860D01*
X132416640Y-89759280D02*
X131498618Y-89759280D01*
X131276984Y-86481890D02*
X132402377Y-85356497D01*
X129031197Y-87990399D02*
X130539706Y-86481890D01*
X129031197Y-88564679D02*
X129031197Y-87990399D01*
X131216398Y-90749880D02*
X129031197Y-88564679D01*
X130539706Y-86481890D02*
X131276984Y-86481890D01*
X132416640Y-90749880D02*
X131216398Y-90749880D01*
G04 #@! TO.N,PWM_C*
X129656198Y-88553270D02*
X129656198Y-88290400D01*
X131344808Y-90241880D02*
X129656198Y-88553270D01*
X132416640Y-90241880D02*
X131344808Y-90241880D01*
X147534341Y-82002341D02*
X147534341Y-81130652D01*
X147848320Y-82316320D02*
X147534341Y-82002341D01*
X147848320Y-82951320D02*
X147848320Y-82316320D01*
G04 #@! TO.N,PWM_B*
X130906199Y-88530451D02*
X130906199Y-87792560D01*
X131627028Y-89251280D02*
X130906199Y-88530451D01*
X132416640Y-89251280D02*
X131627028Y-89251280D01*
X147022793Y-81142200D02*
X147034341Y-81130652D01*
X147022793Y-82854800D02*
X147022793Y-81142200D01*
G04 #@! TO.N,PWM_A*
X132416640Y-87738040D02*
X132156200Y-87477600D01*
X132416640Y-88260680D02*
X132416640Y-87738040D01*
X146397793Y-81267200D02*
X146534341Y-81130652D01*
X146397793Y-83593071D02*
X146397793Y-81267200D01*
G04 #@! TO.N,SPI1_NSS*
X134782560Y-85054882D02*
X134782560Y-84785200D01*
X135109040Y-85381362D02*
X134782560Y-85054882D01*
X135109040Y-87549480D02*
X135109040Y-85381362D01*
X146320556Y-84605642D02*
X145958560Y-84605642D01*
X146938558Y-83987640D02*
X146320556Y-84605642D01*
X147157440Y-83987640D02*
X146938558Y-83987640D01*
X145908570Y-84555652D02*
X144609341Y-84555652D01*
X145958560Y-84605642D02*
X145908570Y-84555652D01*
G04 #@! TO.N,SOA*
X138614240Y-87135876D02*
X139126653Y-86623463D01*
X138614240Y-87549480D02*
X138614240Y-87135876D01*
X150534341Y-90646221D02*
X150534341Y-92480652D01*
X149098000Y-89209880D02*
X150534341Y-90646221D01*
G04 #@! TO.N,SOB*
X139325440Y-87548666D02*
X139624124Y-87249982D01*
X139325440Y-88260680D02*
X139325440Y-87548666D01*
X151034341Y-90262337D02*
X151034341Y-92480652D01*
X149989522Y-89217518D02*
X151034341Y-90262337D01*
G04 #@! TO.N,SOC*
X140226553Y-88503369D02*
X140226553Y-87776368D01*
X139986642Y-88743280D02*
X140226553Y-88503369D01*
X139325440Y-88743280D02*
X139986642Y-88743280D01*
X150750810Y-88837368D02*
X150750810Y-89342396D01*
X151534341Y-90125927D02*
X151534341Y-92480652D01*
X150750810Y-89342396D02*
X151534341Y-90125927D01*
G04 #@! TO.N,GLC*
X140782502Y-90241880D02*
X142822520Y-92281898D01*
X139325440Y-90241880D02*
X140782502Y-90241880D01*
X142822520Y-92281898D02*
X142822520Y-95069110D01*
X142822520Y-95069110D02*
X143878421Y-96125011D01*
X149592011Y-96125011D02*
X150171851Y-96704851D01*
X143878421Y-96125011D02*
X149592011Y-96125011D01*
X154089482Y-96704852D02*
X155904161Y-98519531D01*
X150171851Y-96704851D02*
X154089482Y-96704852D01*
X155904161Y-101573001D02*
X156403040Y-102071880D01*
X155904161Y-98519531D02*
X155904161Y-101573001D01*
G04 #@! TO.N,PHASE_C*
X140654092Y-90749880D02*
X142372510Y-92468298D01*
X139325440Y-90749880D02*
X140654092Y-90749880D01*
X142372510Y-95255510D02*
X143692021Y-96575021D01*
X142372510Y-92468298D02*
X142372510Y-95255510D01*
X149280021Y-96575021D02*
X149862160Y-97157160D01*
X143692021Y-96575021D02*
X149280021Y-96575021D01*
X153903081Y-97154861D02*
X155454151Y-98705931D01*
X149864459Y-97154861D02*
X153903081Y-97154861D01*
X149862160Y-97157160D02*
X149864459Y-97154861D01*
X155883040Y-105211880D02*
X158308040Y-105211880D01*
X155454151Y-104782991D02*
X155883040Y-105211880D01*
X155454151Y-98705931D02*
X155454151Y-104782991D01*
G04 #@! TO.N,GHC*
X155004141Y-107045679D02*
X154409140Y-107640680D01*
X152333000Y-97604870D02*
X153716680Y-97604870D01*
X155004141Y-98892331D02*
X155004141Y-107045679D01*
X152330700Y-97607170D02*
X152333000Y-97604870D01*
X153716680Y-97604870D02*
X155004141Y-98892331D01*
X149539790Y-97607170D02*
X152330700Y-97607170D01*
X148957651Y-97025031D02*
X149539790Y-97607170D01*
X143380030Y-97025030D02*
X148957651Y-97025031D01*
X141922500Y-95567500D02*
X143380030Y-97025030D01*
X141922500Y-92654698D02*
X141922500Y-95567500D01*
X140525682Y-91257880D02*
X141922500Y-92654698D01*
X139325440Y-91257880D02*
X140525682Y-91257880D01*
G04 #@! TO.N,GHB*
X140397272Y-91765880D02*
X141406871Y-92775479D01*
X139325440Y-91765880D02*
X140397272Y-91765880D01*
X141406871Y-92775479D02*
X141406871Y-95732591D01*
X141406871Y-95732591D02*
X143149320Y-97475040D01*
X149301841Y-107102079D02*
X148706840Y-107697080D01*
X149301841Y-98005631D02*
X149301841Y-107102079D01*
X148771250Y-97475040D02*
X149301841Y-98005631D01*
X143149320Y-97475040D02*
X148771250Y-97475040D01*
G04 #@! TO.N,PHASE_B*
X140243462Y-92248480D02*
X140956861Y-92961879D01*
X139325440Y-92248480D02*
X140243462Y-92248480D01*
X140956861Y-92961879D02*
X140956861Y-96880680D01*
X143581841Y-105192679D02*
X143511840Y-105262680D01*
X143581841Y-99054519D02*
X143581841Y-105192679D01*
X143511840Y-105262680D02*
X141086840Y-105262680D01*
X141408002Y-96880680D02*
X143581841Y-99054519D01*
X140956861Y-96880680D02*
X141408002Y-96880680D01*
G04 #@! TO.N,GLB*
X139181840Y-101815070D02*
X139181840Y-102122680D01*
X140166950Y-100829960D02*
X139181840Y-101815070D01*
X140166950Y-99208772D02*
X140166950Y-100829960D01*
X140775441Y-97904279D02*
X140775441Y-98600281D01*
X140506851Y-97635689D02*
X140775441Y-97904279D01*
X140115052Y-92756480D02*
X140506851Y-93148279D01*
X140775441Y-98600281D02*
X140166950Y-99208772D01*
X140506851Y-93148279D02*
X140506851Y-97635689D01*
X139325440Y-92756480D02*
X140115052Y-92756480D01*
G04 #@! TO.N,GLA*
X133805520Y-98182020D02*
X133805370Y-98181870D01*
X137623640Y-96960772D02*
X136402392Y-98182020D01*
X136402392Y-98182020D02*
X133805520Y-98182020D01*
X137623640Y-94458280D02*
X137623640Y-96960772D01*
X133805370Y-98181870D02*
X133024450Y-98181870D01*
X133024450Y-102055690D02*
X133085840Y-102117080D01*
X133024450Y-98181870D02*
X133024450Y-102055690D01*
G04 #@! TO.N,PHASE_A*
X134244510Y-97732010D02*
X134244360Y-97731860D01*
X136215992Y-97732010D02*
X134244510Y-97732010D01*
X137115640Y-96832362D02*
X136215992Y-97732010D01*
X137115640Y-94458280D02*
X137115640Y-96832362D01*
X134244360Y-97731860D02*
X132838050Y-97731860D01*
X132565840Y-105257080D02*
X134990840Y-105257080D01*
X132495839Y-105187079D02*
X132565840Y-105257080D01*
X132495839Y-98074071D02*
X132495839Y-105187079D01*
X132838050Y-97731860D02*
X132495839Y-98074071D01*
G04 #@! TO.N,GHA*
X136602441Y-96709151D02*
X136029592Y-97282000D01*
X136602441Y-94478119D02*
X136602441Y-96709151D01*
X136622280Y-94458280D02*
X136602441Y-94478119D01*
X136633040Y-94458280D02*
X136622280Y-94458280D01*
X134932330Y-97282000D02*
X134932180Y-97281850D01*
X136029592Y-97282000D02*
X134932330Y-97282000D01*
X134932180Y-97281850D02*
X132651650Y-97281850D01*
X131648841Y-107109179D02*
X131053840Y-107704180D01*
X131648841Y-98284659D02*
X131648841Y-107109179D01*
X132651650Y-97281850D02*
X131648841Y-98284659D01*
G04 #@! TO.N,CAN1_RX*
X155522800Y-96617876D02*
X155647282Y-96742358D01*
X155522800Y-95961900D02*
X155522800Y-96617876D01*
X154799150Y-84555652D02*
X155959341Y-84555652D01*
X154649434Y-84705368D02*
X154799150Y-84555652D01*
X153857800Y-84705368D02*
X154649434Y-84705368D01*
G04 #@! TO.N,CAN1_TX*
X155522800Y-94273240D02*
X154970480Y-93720920D01*
X155522800Y-94461900D02*
X155522800Y-94273240D01*
X154591452Y-84055652D02*
X155959341Y-84055652D01*
X154482800Y-83947000D02*
X154591452Y-84055652D01*
G04 #@! TO.N,ENC_B*
X148059331Y-92455662D02*
X148034341Y-92480652D01*
X148059331Y-91614960D02*
X148059331Y-92455662D01*
X148293649Y-91380642D02*
X148059331Y-91614960D01*
X148793649Y-91380642D02*
X148293649Y-91380642D01*
X149216891Y-90957400D02*
X148793649Y-91380642D01*
X149909341Y-90957400D02*
X149216891Y-90957400D01*
G04 #@! TO.N,ENC_A*
X147534341Y-91274541D02*
X147534341Y-92480652D01*
X147950831Y-90858051D02*
X147534341Y-91274541D01*
G04 #@! TO.N,SPI2_NSS*
X146270842Y-92744151D02*
X146534341Y-92480652D01*
X145694400Y-92744151D02*
X146270842Y-92744151D01*
G04 #@! TO.N,Net-(D5-Pad1)*
X141361260Y-76367640D02*
X142679560Y-76367640D01*
G04 #@! TD*
D40*
G04 #@! TO.N,VIN*
G36*
X148541841Y-99967951D02*
G01*
X148541842Y-106380280D01*
X144622648Y-106380280D01*
X144627350Y-101710513D01*
X144678061Y-101720600D01*
X144881939Y-101720600D01*
X145081898Y-101680826D01*
X145270256Y-101602805D01*
X145289660Y-101589840D01*
X145567400Y-101589840D01*
X145592176Y-101587400D01*
X145616001Y-101580173D01*
X145637957Y-101568437D01*
X145657203Y-101552643D01*
X145672997Y-101533397D01*
X145684733Y-101511441D01*
X145691960Y-101487616D01*
X145694398Y-101462049D01*
X145692657Y-101182662D01*
X145697205Y-101175856D01*
X145775226Y-100987498D01*
X145815000Y-100787539D01*
X145815000Y-100583661D01*
X145775226Y-100383702D01*
X145697205Y-100195344D01*
X145686405Y-100179181D01*
X145685037Y-99959537D01*
X148541841Y-99967951D01*
G37*
X148541841Y-99967951D02*
X148541842Y-106380280D01*
X144622648Y-106380280D01*
X144627350Y-101710513D01*
X144678061Y-101720600D01*
X144881939Y-101720600D01*
X145081898Y-101680826D01*
X145270256Y-101602805D01*
X145289660Y-101589840D01*
X145567400Y-101589840D01*
X145592176Y-101587400D01*
X145616001Y-101580173D01*
X145637957Y-101568437D01*
X145657203Y-101552643D01*
X145672997Y-101533397D01*
X145684733Y-101511441D01*
X145691960Y-101487616D01*
X145694398Y-101462049D01*
X145692657Y-101182662D01*
X145697205Y-101175856D01*
X145775226Y-100987498D01*
X145815000Y-100787539D01*
X145815000Y-100583661D01*
X145775226Y-100383702D01*
X145697205Y-100195344D01*
X145686405Y-100179181D01*
X145685037Y-99959537D01*
X148541841Y-99967951D01*
G36*
X154244141Y-99912949D02*
G01*
X154244142Y-106315245D01*
X150348458Y-106324109D01*
X150387548Y-99908506D01*
X154244141Y-99912949D01*
G37*
X154244141Y-99912949D02*
X154244142Y-106315245D01*
X150348458Y-106324109D01*
X150387548Y-99908506D01*
X154244141Y-99912949D01*
G36*
X130888842Y-106411639D02*
G01*
X126979523Y-106376340D01*
X126977064Y-104401274D01*
X126993600Y-104318139D01*
X126993600Y-104114261D01*
X126976600Y-104028795D01*
X126974600Y-102422802D01*
X126972129Y-102398028D01*
X126964872Y-102374213D01*
X126953109Y-102352271D01*
X126937291Y-102333046D01*
X126918026Y-102317276D01*
X126896055Y-102305567D01*
X126872221Y-102298370D01*
X126847600Y-102295960D01*
X124804694Y-102295960D01*
X124790949Y-99963946D01*
X130888841Y-99949874D01*
X130888842Y-106411639D01*
G37*
X130888842Y-106411639D02*
X126979523Y-106376340D01*
X126977064Y-104401274D01*
X126993600Y-104318139D01*
X126993600Y-104114261D01*
X126976600Y-104028795D01*
X126974600Y-102422802D01*
X126972129Y-102398028D01*
X126964872Y-102374213D01*
X126953109Y-102352271D01*
X126937291Y-102333046D01*
X126918026Y-102317276D01*
X126896055Y-102305567D01*
X126872221Y-102298370D01*
X126847600Y-102295960D01*
X124804694Y-102295960D01*
X124790949Y-99963946D01*
X130888841Y-99949874D01*
X130888842Y-106411639D01*
G04 #@! TO.N,PHASE_A*
G36*
X137134479Y-103412854D02*
G01*
X137129598Y-108513670D01*
X132321671Y-110720013D01*
X132300170Y-110732565D01*
X132281531Y-110749070D01*
X132266470Y-110768894D01*
X132255566Y-110791276D01*
X132249238Y-110815354D01*
X132247660Y-110833173D01*
X132214327Y-112699800D01*
X126959660Y-112699800D01*
X126964772Y-110532322D01*
X128225840Y-110532322D01*
X128225840Y-110864238D01*
X128290594Y-111189776D01*
X128417612Y-111496427D01*
X128602015Y-111772405D01*
X128836715Y-112007105D01*
X129112693Y-112191508D01*
X129419344Y-112318526D01*
X129744882Y-112383280D01*
X130076798Y-112383280D01*
X130402336Y-112318526D01*
X130708987Y-112191508D01*
X130984965Y-112007105D01*
X131219665Y-111772405D01*
X131404068Y-111496427D01*
X131531086Y-111189776D01*
X131595840Y-110864238D01*
X131595840Y-110532322D01*
X131531086Y-110206784D01*
X131404068Y-109900133D01*
X131219665Y-109624155D01*
X130984965Y-109389455D01*
X130708987Y-109205052D01*
X130402336Y-109078034D01*
X130076798Y-109013280D01*
X129744882Y-109013280D01*
X129419344Y-109078034D01*
X129112693Y-109205052D01*
X128836715Y-109389455D01*
X128602015Y-109624155D01*
X128417612Y-109900133D01*
X128290594Y-110206784D01*
X128225840Y-110532322D01*
X126964772Y-110532322D01*
X126971764Y-107567838D01*
X130025842Y-107539690D01*
X130032762Y-108799058D01*
X130035338Y-108823820D01*
X130042696Y-108847605D01*
X130054553Y-108869497D01*
X130070452Y-108888655D01*
X130089784Y-108904343D01*
X130111805Y-108915958D01*
X130135668Y-108923054D01*
X130159258Y-108925359D01*
X132729738Y-108935519D01*
X132754524Y-108933177D01*
X132778377Y-108926044D01*
X132800379Y-108914395D01*
X132819687Y-108898677D01*
X132835557Y-108879494D01*
X132847380Y-108857584D01*
X132854701Y-108833789D01*
X132857240Y-108808171D01*
X132842338Y-103388956D01*
X137134479Y-103412854D01*
G37*
X137134479Y-103412854D02*
X137129598Y-108513670D01*
X132321671Y-110720013D01*
X132300170Y-110732565D01*
X132281531Y-110749070D01*
X132266470Y-110768894D01*
X132255566Y-110791276D01*
X132249238Y-110815354D01*
X132247660Y-110833173D01*
X132214327Y-112699800D01*
X126959660Y-112699800D01*
X126964772Y-110532322D01*
X128225840Y-110532322D01*
X128225840Y-110864238D01*
X128290594Y-111189776D01*
X128417612Y-111496427D01*
X128602015Y-111772405D01*
X128836715Y-112007105D01*
X129112693Y-112191508D01*
X129419344Y-112318526D01*
X129744882Y-112383280D01*
X130076798Y-112383280D01*
X130402336Y-112318526D01*
X130708987Y-112191508D01*
X130984965Y-112007105D01*
X131219665Y-111772405D01*
X131404068Y-111496427D01*
X131531086Y-111189776D01*
X131595840Y-110864238D01*
X131595840Y-110532322D01*
X131531086Y-110206784D01*
X131404068Y-109900133D01*
X131219665Y-109624155D01*
X130984965Y-109389455D01*
X130708987Y-109205052D01*
X130402336Y-109078034D01*
X130076798Y-109013280D01*
X129744882Y-109013280D01*
X129419344Y-109078034D01*
X129112693Y-109205052D01*
X128836715Y-109389455D01*
X128602015Y-109624155D01*
X128417612Y-109900133D01*
X128290594Y-110206784D01*
X128225840Y-110532322D01*
X126964772Y-110532322D01*
X126971764Y-107567838D01*
X130025842Y-107539690D01*
X130032762Y-108799058D01*
X130035338Y-108823820D01*
X130042696Y-108847605D01*
X130054553Y-108869497D01*
X130070452Y-108888655D01*
X130089784Y-108904343D01*
X130111805Y-108915958D01*
X130135668Y-108923054D01*
X130159258Y-108925359D01*
X132729738Y-108935519D01*
X132754524Y-108933177D01*
X132778377Y-108926044D01*
X132800379Y-108914395D01*
X132819687Y-108898677D01*
X132835557Y-108879494D01*
X132847380Y-108857584D01*
X132854701Y-108833789D01*
X132857240Y-108808171D01*
X132842338Y-103388956D01*
X137134479Y-103412854D01*
G04 #@! TO.N,PHASE_B*
G36*
X143245844Y-107082340D02*
G01*
X143248483Y-107107096D01*
X143255901Y-107130862D01*
X143267813Y-107152723D01*
X143283762Y-107171841D01*
X143303133Y-107187480D01*
X143325183Y-107199039D01*
X143349065Y-107206075D01*
X143373578Y-107208318D01*
X147621851Y-107183647D01*
X147664825Y-109738203D01*
X145898698Y-112557118D01*
X141978755Y-112532557D01*
X140481647Y-110532322D01*
X142272040Y-110532322D01*
X142272040Y-110864238D01*
X142336794Y-111189776D01*
X142463812Y-111496427D01*
X142648215Y-111772405D01*
X142882915Y-112007105D01*
X143158893Y-112191508D01*
X143465544Y-112318526D01*
X143791082Y-112383280D01*
X144122998Y-112383280D01*
X144448536Y-112318526D01*
X144755187Y-112191508D01*
X145031165Y-112007105D01*
X145265865Y-111772405D01*
X145450268Y-111496427D01*
X145577286Y-111189776D01*
X145642040Y-110864238D01*
X145642040Y-110532322D01*
X145577286Y-110206784D01*
X145450268Y-109900133D01*
X145265865Y-109624155D01*
X145031165Y-109389455D01*
X144755187Y-109205052D01*
X144448536Y-109078034D01*
X144122998Y-109013280D01*
X143791082Y-109013280D01*
X143465544Y-109078034D01*
X143158893Y-109205052D01*
X142882915Y-109389455D01*
X142648215Y-109624155D01*
X142463812Y-109900133D01*
X142336794Y-110206784D01*
X142272040Y-110532322D01*
X140481647Y-110532322D01*
X138942874Y-108476420D01*
X138918297Y-103433312D01*
X143216380Y-103414124D01*
X143245844Y-107082340D01*
G37*
X143245844Y-107082340D02*
X143248483Y-107107096D01*
X143255901Y-107130862D01*
X143267813Y-107152723D01*
X143283762Y-107171841D01*
X143303133Y-107187480D01*
X143325183Y-107199039D01*
X143349065Y-107206075D01*
X143373578Y-107208318D01*
X147621851Y-107183647D01*
X147664825Y-109738203D01*
X145898698Y-112557118D01*
X141978755Y-112532557D01*
X140481647Y-110532322D01*
X142272040Y-110532322D01*
X142272040Y-110864238D01*
X142336794Y-111189776D01*
X142463812Y-111496427D01*
X142648215Y-111772405D01*
X142882915Y-112007105D01*
X143158893Y-112191508D01*
X143465544Y-112318526D01*
X143791082Y-112383280D01*
X144122998Y-112383280D01*
X144448536Y-112318526D01*
X144755187Y-112191508D01*
X145031165Y-112007105D01*
X145265865Y-111772405D01*
X145450268Y-111496427D01*
X145577286Y-111189776D01*
X145642040Y-110864238D01*
X145642040Y-110532322D01*
X145577286Y-110206784D01*
X145450268Y-109900133D01*
X145265865Y-109624155D01*
X145031165Y-109389455D01*
X144755187Y-109205052D01*
X144448536Y-109078034D01*
X144122998Y-109013280D01*
X143791082Y-109013280D01*
X143465544Y-109078034D01*
X143158893Y-109205052D01*
X142882915Y-109389455D01*
X142648215Y-109624155D01*
X142463812Y-109900133D01*
X142336794Y-110206784D01*
X142272040Y-110532322D01*
X140481647Y-110532322D01*
X138942874Y-108476420D01*
X138918297Y-103433312D01*
X143216380Y-103414124D01*
X143245844Y-107082340D01*
G04 #@! TO.N,PHASE_C*
G36*
X160461887Y-103382515D02*
G01*
X160457017Y-111798031D01*
X160176101Y-111798031D01*
X160138769Y-111794354D01*
X159989783Y-111809028D01*
X159846523Y-111852485D01*
X159714493Y-111923057D01*
X159627767Y-111994231D01*
X159627762Y-111994236D01*
X159598769Y-112018030D01*
X159574975Y-112047023D01*
X159107401Y-112514597D01*
X158968616Y-112572683D01*
X155755772Y-112557945D01*
X155500202Y-111955323D01*
X155490740Y-111907753D01*
X155346760Y-111560156D01*
X155308033Y-111502197D01*
X154896713Y-110532322D01*
X156292840Y-110532322D01*
X156292840Y-110864238D01*
X156357594Y-111189776D01*
X156484612Y-111496427D01*
X156669015Y-111772405D01*
X156903715Y-112007105D01*
X157179693Y-112191508D01*
X157486344Y-112318526D01*
X157811882Y-112383280D01*
X158143798Y-112383280D01*
X158469336Y-112318526D01*
X158775987Y-112191508D01*
X159051965Y-112007105D01*
X159286665Y-111772405D01*
X159471068Y-111496427D01*
X159598086Y-111189776D01*
X159662840Y-110864238D01*
X159662840Y-110532322D01*
X159598086Y-110206784D01*
X159471068Y-109900133D01*
X159286665Y-109624155D01*
X159051965Y-109389455D01*
X158775987Y-109205052D01*
X158469336Y-109078034D01*
X158143798Y-109013280D01*
X157811882Y-109013280D01*
X157486344Y-109078034D01*
X157179693Y-109205052D01*
X156903715Y-109389455D01*
X156669015Y-109624155D01*
X156484612Y-109900133D01*
X156357594Y-110206784D01*
X156292840Y-110532322D01*
X154896713Y-110532322D01*
X154894360Y-110526775D01*
X154882440Y-110504917D01*
X154866485Y-110485806D01*
X154847107Y-110470174D01*
X154825053Y-110458623D01*
X154801169Y-110451596D01*
X154777299Y-110449360D01*
X150333335Y-110454298D01*
X150356949Y-107086986D01*
X153390228Y-107101051D01*
X153385521Y-108701466D01*
X153387888Y-108726250D01*
X153395045Y-108750095D01*
X153406716Y-108772087D01*
X153422454Y-108791378D01*
X153441652Y-108807229D01*
X153463574Y-108819029D01*
X153487377Y-108826326D01*
X153513803Y-108828834D01*
X153994877Y-108823975D01*
X154019658Y-108831492D01*
X154144140Y-108843752D01*
X154674140Y-108843752D01*
X154798622Y-108831492D01*
X154851942Y-108815317D01*
X156028403Y-108803434D01*
X156053153Y-108800743D01*
X156076903Y-108793276D01*
X156098740Y-108781319D01*
X156117825Y-108765331D01*
X156133424Y-108745927D01*
X156144938Y-108723853D01*
X156151924Y-108699957D01*
X156154120Y-108676440D01*
X156154120Y-103363327D01*
X160461887Y-103382515D01*
G37*
X160461887Y-103382515D02*
X160457017Y-111798031D01*
X160176101Y-111798031D01*
X160138769Y-111794354D01*
X159989783Y-111809028D01*
X159846523Y-111852485D01*
X159714493Y-111923057D01*
X159627767Y-111994231D01*
X159627762Y-111994236D01*
X159598769Y-112018030D01*
X159574975Y-112047023D01*
X159107401Y-112514597D01*
X158968616Y-112572683D01*
X155755772Y-112557945D01*
X155500202Y-111955323D01*
X155490740Y-111907753D01*
X155346760Y-111560156D01*
X155308033Y-111502197D01*
X154896713Y-110532322D01*
X156292840Y-110532322D01*
X156292840Y-110864238D01*
X156357594Y-111189776D01*
X156484612Y-111496427D01*
X156669015Y-111772405D01*
X156903715Y-112007105D01*
X157179693Y-112191508D01*
X157486344Y-112318526D01*
X157811882Y-112383280D01*
X158143798Y-112383280D01*
X158469336Y-112318526D01*
X158775987Y-112191508D01*
X159051965Y-112007105D01*
X159286665Y-111772405D01*
X159471068Y-111496427D01*
X159598086Y-111189776D01*
X159662840Y-110864238D01*
X159662840Y-110532322D01*
X159598086Y-110206784D01*
X159471068Y-109900133D01*
X159286665Y-109624155D01*
X159051965Y-109389455D01*
X158775987Y-109205052D01*
X158469336Y-109078034D01*
X158143798Y-109013280D01*
X157811882Y-109013280D01*
X157486344Y-109078034D01*
X157179693Y-109205052D01*
X156903715Y-109389455D01*
X156669015Y-109624155D01*
X156484612Y-109900133D01*
X156357594Y-110206784D01*
X156292840Y-110532322D01*
X154896713Y-110532322D01*
X154894360Y-110526775D01*
X154882440Y-110504917D01*
X154866485Y-110485806D01*
X154847107Y-110470174D01*
X154825053Y-110458623D01*
X154801169Y-110451596D01*
X154777299Y-110449360D01*
X150333335Y-110454298D01*
X150356949Y-107086986D01*
X153390228Y-107101051D01*
X153385521Y-108701466D01*
X153387888Y-108726250D01*
X153395045Y-108750095D01*
X153406716Y-108772087D01*
X153422454Y-108791378D01*
X153441652Y-108807229D01*
X153463574Y-108819029D01*
X153487377Y-108826326D01*
X153513803Y-108828834D01*
X153994877Y-108823975D01*
X154019658Y-108831492D01*
X154144140Y-108843752D01*
X154674140Y-108843752D01*
X154798622Y-108831492D01*
X154851942Y-108815317D01*
X156028403Y-108803434D01*
X156053153Y-108800743D01*
X156076903Y-108793276D01*
X156098740Y-108781319D01*
X156117825Y-108765331D01*
X156133424Y-108745927D01*
X156144938Y-108723853D01*
X156151924Y-108699957D01*
X156154120Y-108676440D01*
X156154120Y-103363327D01*
X160461887Y-103382515D01*
G04 #@! TO.N,VIN*
G36*
X160225740Y-100169980D02*
G01*
X160895590Y-100169980D01*
X160903690Y-100178080D01*
X161952940Y-100178080D01*
X161952940Y-100158080D01*
X162206940Y-100158080D01*
X162206940Y-100178080D01*
X162226940Y-100178080D01*
X162226940Y-100432080D01*
X162206940Y-100432080D01*
X162206940Y-100452080D01*
X161952940Y-100452080D01*
X161952940Y-100432080D01*
X161283090Y-100432080D01*
X161274990Y-100423980D01*
X160225740Y-100423980D01*
X160225740Y-100443980D01*
X159971740Y-100443980D01*
X159971740Y-100423980D01*
X159951740Y-100423980D01*
X159951740Y-100169980D01*
X159971740Y-100169980D01*
X159971740Y-100149980D01*
X160225740Y-100149980D01*
X160225740Y-100169980D01*
G37*
X160225740Y-100169980D02*
X160895590Y-100169980D01*
X160903690Y-100178080D01*
X161952940Y-100178080D01*
X161952940Y-100158080D01*
X162206940Y-100158080D01*
X162206940Y-100178080D01*
X162226940Y-100178080D01*
X162226940Y-100432080D01*
X162206940Y-100432080D01*
X162206940Y-100452080D01*
X161952940Y-100452080D01*
X161952940Y-100432080D01*
X161283090Y-100432080D01*
X161274990Y-100423980D01*
X160225740Y-100423980D01*
X160225740Y-100443980D01*
X159971740Y-100443980D01*
X159971740Y-100423980D01*
X159951740Y-100423980D01*
X159951740Y-100169980D01*
X159971740Y-100169980D01*
X159971740Y-100149980D01*
X160225740Y-100149980D01*
X160225740Y-100169980D01*
G36*
X125965843Y-106782867D02*
G01*
X126007145Y-109114173D01*
X124729981Y-109122631D01*
X124743725Y-106744939D01*
X125965843Y-106782867D01*
G37*
X125965843Y-106782867D02*
X126007145Y-109114173D01*
X124729981Y-109122631D01*
X124743725Y-106744939D01*
X125965843Y-106782867D01*
G04 #@! TO.N,BGND*
G36*
X126025035Y-105301506D02*
G01*
X125676777Y-105649765D01*
X124759199Y-105671175D01*
X124750063Y-103396191D01*
X126005615Y-103375054D01*
X126025035Y-105301506D01*
G37*
X126025035Y-105301506D02*
X125676777Y-105649765D01*
X124759199Y-105671175D01*
X124750063Y-103396191D01*
X126005615Y-103375054D01*
X126025035Y-105301506D01*
G36*
X126119806Y-98999040D02*
G01*
X125428375Y-98999040D01*
X124855679Y-98426344D01*
X124855679Y-96393793D01*
X126092035Y-96379247D01*
X126119806Y-98999040D01*
G37*
X126119806Y-98999040D02*
X125428375Y-98999040D01*
X124855679Y-98426344D01*
X124855679Y-96393793D01*
X126092035Y-96379247D01*
X126119806Y-98999040D01*
G36*
X148541841Y-98320433D02*
G01*
X148541841Y-98896734D01*
X145693801Y-98892546D01*
X145690685Y-98235040D01*
X148456449Y-98235040D01*
X148541841Y-98320433D01*
G37*
X148541841Y-98320433D02*
X148541841Y-98896734D01*
X145693801Y-98892546D01*
X145690685Y-98235040D01*
X148456449Y-98235040D01*
X148541841Y-98320433D01*
G36*
X153171840Y-98544380D02*
G01*
X153151840Y-98544380D01*
X153151840Y-98564380D01*
X152897840Y-98564380D01*
X152897840Y-98544380D01*
X151848590Y-98544380D01*
X151846290Y-98546680D01*
X151183340Y-98546680D01*
X151183340Y-98566680D01*
X150929340Y-98566680D01*
X150929340Y-98546680D01*
X150909340Y-98546680D01*
X150909340Y-98367170D01*
X152293378Y-98367170D01*
X152330700Y-98370846D01*
X152368022Y-98367170D01*
X152368033Y-98367170D01*
X152391385Y-98364870D01*
X153171840Y-98364870D01*
X153171840Y-98544380D01*
G37*
X153171840Y-98544380D02*
X153151840Y-98544380D01*
X153151840Y-98564380D01*
X152897840Y-98564380D01*
X152897840Y-98544380D01*
X151848590Y-98544380D01*
X151846290Y-98546680D01*
X151183340Y-98546680D01*
X151183340Y-98566680D01*
X150929340Y-98566680D01*
X150929340Y-98546680D01*
X150909340Y-98546680D01*
X150909340Y-98367170D01*
X152293378Y-98367170D01*
X152330700Y-98370846D01*
X152368022Y-98367170D01*
X152368033Y-98367170D01*
X152391385Y-98364870D01*
X153171840Y-98364870D01*
X153171840Y-98544380D01*
G36*
X158672501Y-97186404D02*
G01*
X158730107Y-97886771D01*
X158734571Y-97911264D01*
X158743726Y-97934415D01*
X158757223Y-97955336D01*
X158774541Y-97973222D01*
X158795016Y-97987385D01*
X158817861Y-97997282D01*
X158842198Y-98002532D01*
X158857801Y-98003355D01*
X162344950Y-97972573D01*
X162344950Y-98761143D01*
X157205976Y-98770215D01*
X157210467Y-96834576D01*
X158317320Y-96831222D01*
X158672501Y-97186404D01*
G37*
X158672501Y-97186404D02*
X158730107Y-97886771D01*
X158734571Y-97911264D01*
X158743726Y-97934415D01*
X158757223Y-97955336D01*
X158774541Y-97973222D01*
X158795016Y-97987385D01*
X158817861Y-97997282D01*
X158842198Y-98002532D01*
X158857801Y-98003355D01*
X162344950Y-97972573D01*
X162344950Y-98761143D01*
X157205976Y-98770215D01*
X157210467Y-96834576D01*
X158317320Y-96831222D01*
X158672501Y-97186404D01*
G04 #@! TO.N,SPA*
G36*
X134609840Y-101397074D02*
G01*
X134612334Y-101421845D01*
X134619613Y-101445654D01*
X134631396Y-101467585D01*
X134647232Y-101486796D01*
X134666511Y-101502549D01*
X134688493Y-101514237D01*
X134712333Y-101521413D01*
X134736840Y-101523800D01*
X137126191Y-101523800D01*
X137135347Y-102183007D01*
X134084449Y-102154888D01*
X134086599Y-101458152D01*
X134084236Y-101433368D01*
X134077082Y-101409522D01*
X134065414Y-101387529D01*
X134051050Y-101369636D01*
X133859107Y-101170450D01*
X133802025Y-101100895D01*
X133784450Y-101086472D01*
X133784450Y-99171760D01*
X134605034Y-99171760D01*
X134609840Y-101397074D01*
G37*
X134609840Y-101397074D02*
X134612334Y-101421845D01*
X134619613Y-101445654D01*
X134631396Y-101467585D01*
X134647232Y-101486796D01*
X134666511Y-101502549D01*
X134688493Y-101514237D01*
X134712333Y-101521413D01*
X134736840Y-101523800D01*
X137126191Y-101523800D01*
X137135347Y-102183007D01*
X134084449Y-102154888D01*
X134086599Y-101458152D01*
X134084236Y-101433368D01*
X134077082Y-101409522D01*
X134065414Y-101387529D01*
X134051050Y-101369636D01*
X133859107Y-101170450D01*
X133802025Y-101100895D01*
X133784450Y-101086472D01*
X133784450Y-99171760D01*
X134605034Y-99171760D01*
X134609840Y-101397074D01*
G04 #@! TO.N,SPB*
G36*
X142570214Y-101429183D02*
G01*
X142573026Y-101453921D01*
X142580609Y-101477634D01*
X142592673Y-101499412D01*
X142608753Y-101518418D01*
X142628233Y-101533922D01*
X142650363Y-101545328D01*
X142674293Y-101552197D01*
X142698200Y-101554276D01*
X142821841Y-101553302D01*
X142821841Y-102292259D01*
X140186568Y-102312720D01*
X140200035Y-101871676D01*
X140502192Y-101569520D01*
X141361160Y-101569520D01*
X141385936Y-101567080D01*
X141409761Y-101559853D01*
X141431717Y-101548117D01*
X141450963Y-101532323D01*
X141466757Y-101513077D01*
X141478493Y-101491121D01*
X141485720Y-101467296D01*
X141488145Y-101444444D01*
X141493225Y-101109164D01*
X141493236Y-101108192D01*
X141507546Y-99200255D01*
X142536559Y-99183921D01*
X142570214Y-101429183D01*
G37*
X142570214Y-101429183D02*
X142573026Y-101453921D01*
X142580609Y-101477634D01*
X142592673Y-101499412D01*
X142608753Y-101518418D01*
X142628233Y-101533922D01*
X142650363Y-101545328D01*
X142674293Y-101552197D01*
X142698200Y-101554276D01*
X142821841Y-101553302D01*
X142821841Y-102292259D01*
X140186568Y-102312720D01*
X140200035Y-101871676D01*
X140502192Y-101569520D01*
X141361160Y-101569520D01*
X141385936Y-101567080D01*
X141409761Y-101559853D01*
X141431717Y-101548117D01*
X141450963Y-101532323D01*
X141466757Y-101513077D01*
X141478493Y-101491121D01*
X141485720Y-101467296D01*
X141488145Y-101444444D01*
X141493225Y-101109164D01*
X141493236Y-101108192D01*
X141507546Y-99200255D01*
X142536559Y-99183921D01*
X142570214Y-101429183D01*
G04 #@! TO.N,SPC*
G36*
X158724602Y-101397470D02*
G01*
X158727173Y-101422233D01*
X158734525Y-101446019D01*
X158746377Y-101467914D01*
X158762273Y-101487075D01*
X158781601Y-101502767D01*
X158803619Y-101514388D01*
X158827481Y-101521489D01*
X158850489Y-101523795D01*
X160270333Y-101536214D01*
X160431141Y-101568200D01*
X160467040Y-101568200D01*
X160467040Y-102605840D01*
X157463268Y-102605840D01*
X157505351Y-101095537D01*
X157503602Y-101070702D01*
X157497041Y-101046686D01*
X157485921Y-101024411D01*
X157470669Y-101004734D01*
X157442586Y-100982414D01*
X157150875Y-100811555D01*
X157168297Y-99626857D01*
X158715120Y-99600639D01*
X158724602Y-101397470D01*
G37*
X158724602Y-101397470D02*
X158727173Y-101422233D01*
X158734525Y-101446019D01*
X158746377Y-101467914D01*
X158762273Y-101487075D01*
X158781601Y-101502767D01*
X158803619Y-101514388D01*
X158827481Y-101521489D01*
X158850489Y-101523795D01*
X160270333Y-101536214D01*
X160431141Y-101568200D01*
X160467040Y-101568200D01*
X160467040Y-102605840D01*
X157463268Y-102605840D01*
X157505351Y-101095537D01*
X157503602Y-101070702D01*
X157497041Y-101046686D01*
X157485921Y-101024411D01*
X157470669Y-101004734D01*
X157442586Y-100982414D01*
X157150875Y-100811555D01*
X157168297Y-99626857D01*
X158715120Y-99600639D01*
X158724602Y-101397470D01*
G04 #@! TD*
M02*
