G04 #@! TF.GenerationSoftware,KiCad,Pcbnew,5.1.6-c6e7f7d~87~ubuntu19.10.1*
G04 #@! TF.CreationDate,2021-03-05T22:23:54-05:00*
G04 #@! TF.ProjectId,daedalus,64616564-616c-4757-932e-6b696361645f,v1.0*
G04 #@! TF.SameCoordinates,Original*
G04 #@! TF.FileFunction,Legend,Bot*
G04 #@! TF.FilePolarity,Positive*
%FSLAX46Y46*%
G04 Gerber Fmt 4.6, Leading zero omitted, Abs format (unit mm)*
G04 Created by KiCad (PCBNEW 5.1.6-c6e7f7d~87~ubuntu19.10.1) date 2021-03-05 22:23:54*
%MOMM*%
%LPD*%
G01*
G04 APERTURE LIST*
%ADD10C,0.150000*%
%ADD11C,0.010000*%
%ADD12C,0.127000*%
%ADD13C,0.152400*%
%ADD14C,0.050800*%
%ADD15C,0.057912*%
G04 APERTURE END LIST*
D10*
X127322619Y-102181785D02*
X126608333Y-102181785D01*
X126465476Y-102229404D01*
X126370238Y-102324642D01*
X126322619Y-102467500D01*
X126322619Y-102562738D01*
X126370238Y-101324642D02*
X126322619Y-101419880D01*
X126322619Y-101610357D01*
X126370238Y-101705595D01*
X126465476Y-101753214D01*
X126846428Y-101753214D01*
X126941666Y-101705595D01*
X126989285Y-101610357D01*
X126989285Y-101419880D01*
X126941666Y-101324642D01*
X126846428Y-101277023D01*
X126751190Y-101277023D01*
X126655952Y-101753214D01*
X126322619Y-100848452D02*
X126989285Y-100848452D01*
X126798809Y-100848452D02*
X126894047Y-100800833D01*
X126941666Y-100753214D01*
X126989285Y-100657976D01*
X126989285Y-100562738D01*
X126370238Y-99848452D02*
X126322619Y-99943690D01*
X126322619Y-100134166D01*
X126370238Y-100229404D01*
X126465476Y-100277023D01*
X126846428Y-100277023D01*
X126941666Y-100229404D01*
X126989285Y-100134166D01*
X126989285Y-99943690D01*
X126941666Y-99848452D01*
X126846428Y-99800833D01*
X126751190Y-99800833D01*
X126655952Y-100277023D01*
X126322619Y-99372261D02*
X126989285Y-99372261D01*
X126894047Y-99372261D02*
X126941666Y-99324642D01*
X126989285Y-99229404D01*
X126989285Y-99086547D01*
X126941666Y-98991309D01*
X126846428Y-98943690D01*
X126322619Y-98943690D01*
X126846428Y-98943690D02*
X126941666Y-98896071D01*
X126989285Y-98800833D01*
X126989285Y-98657976D01*
X126941666Y-98562738D01*
X126846428Y-98515119D01*
X126322619Y-98515119D01*
X126989285Y-98134166D02*
X126322619Y-97896071D01*
X126989285Y-97657976D02*
X126322619Y-97896071D01*
X126084523Y-97991309D01*
X126036904Y-98038928D01*
X125989285Y-98134166D01*
X126322619Y-96515119D02*
X127322619Y-96515119D01*
X126322619Y-95943690D02*
X126894047Y-96372261D01*
X127322619Y-95943690D02*
X126751190Y-96515119D01*
X126322619Y-95086547D02*
X126846428Y-95086547D01*
X126941666Y-95134166D01*
X126989285Y-95229404D01*
X126989285Y-95419880D01*
X126941666Y-95515119D01*
X126370238Y-95086547D02*
X126322619Y-95181785D01*
X126322619Y-95419880D01*
X126370238Y-95515119D01*
X126465476Y-95562738D01*
X126560714Y-95562738D01*
X126655952Y-95515119D01*
X126703571Y-95419880D01*
X126703571Y-95181785D01*
X126751190Y-95086547D01*
X126989285Y-94610357D02*
X126322619Y-94610357D01*
X126894047Y-94610357D02*
X126941666Y-94562738D01*
X126989285Y-94467500D01*
X126989285Y-94324642D01*
X126941666Y-94229404D01*
X126846428Y-94181785D01*
X126322619Y-94181785D01*
X126322619Y-93562738D02*
X126370238Y-93657976D01*
X126417857Y-93705595D01*
X126513095Y-93753214D01*
X126798809Y-93753214D01*
X126894047Y-93705595D01*
X126941666Y-93657976D01*
X126989285Y-93562738D01*
X126989285Y-93419880D01*
X126941666Y-93324642D01*
X126894047Y-93277023D01*
X126798809Y-93229404D01*
X126513095Y-93229404D01*
X126417857Y-93277023D01*
X126370238Y-93324642D01*
X126322619Y-93419880D01*
X126322619Y-93562738D01*
X126989285Y-92896071D02*
X126322619Y-92657976D01*
X126989285Y-92419880D01*
X126370238Y-92086547D02*
X126322619Y-91991309D01*
X126322619Y-91800833D01*
X126370238Y-91705595D01*
X126465476Y-91657976D01*
X126513095Y-91657976D01*
X126608333Y-91705595D01*
X126655952Y-91800833D01*
X126655952Y-91943690D01*
X126703571Y-92038928D01*
X126798809Y-92086547D01*
X126846428Y-92086547D01*
X126941666Y-92038928D01*
X126989285Y-91943690D01*
X126989285Y-91800833D01*
X126941666Y-91705595D01*
X126322619Y-91229404D02*
X127322619Y-91229404D01*
X126703571Y-91134166D02*
X126322619Y-90848452D01*
X126989285Y-90848452D02*
X126608333Y-91229404D01*
X126989285Y-90515119D02*
X126322619Y-90277023D01*
X126989285Y-90038928D02*
X126322619Y-90277023D01*
X126084523Y-90372261D01*
X126036904Y-90419880D01*
X125989285Y-90515119D01*
X126322619Y-88086547D02*
X126322619Y-88134166D01*
X126370238Y-88229404D01*
X126513095Y-88372261D01*
X126798809Y-88610357D01*
X126941666Y-88705595D01*
X127084523Y-88753214D01*
X127179761Y-88753214D01*
X127275000Y-88705595D01*
X127322619Y-88610357D01*
X127322619Y-88562738D01*
X127275000Y-88467500D01*
X127179761Y-88419880D01*
X127132142Y-88419880D01*
X127036904Y-88467500D01*
X126989285Y-88515119D01*
X126798809Y-88800833D01*
X126751190Y-88848452D01*
X126655952Y-88896071D01*
X126513095Y-88896071D01*
X126417857Y-88848452D01*
X126370238Y-88800833D01*
X126322619Y-88705595D01*
X126322619Y-88562738D01*
X126370238Y-88467500D01*
X126417857Y-88419880D01*
X126608333Y-88277023D01*
X126751190Y-88229404D01*
X126846428Y-88229404D01*
X126846428Y-86896071D02*
X126846428Y-86562738D01*
X126322619Y-86419880D02*
X126322619Y-86896071D01*
X127322619Y-86896071D01*
X127322619Y-86419880D01*
X126322619Y-85991309D02*
X126989285Y-85991309D01*
X126798809Y-85991309D02*
X126894047Y-85943690D01*
X126941666Y-85896071D01*
X126989285Y-85800833D01*
X126989285Y-85705595D01*
X126322619Y-85372261D02*
X126989285Y-85372261D01*
X127322619Y-85372261D02*
X127275000Y-85419880D01*
X127227380Y-85372261D01*
X127275000Y-85324642D01*
X127322619Y-85372261D01*
X127227380Y-85372261D01*
X126370238Y-84467500D02*
X126322619Y-84562738D01*
X126322619Y-84753214D01*
X126370238Y-84848452D01*
X126417857Y-84896071D01*
X126513095Y-84943690D01*
X126798809Y-84943690D01*
X126894047Y-84896071D01*
X126941666Y-84848452D01*
X126989285Y-84753214D01*
X126989285Y-84562738D01*
X126941666Y-84467500D01*
X127322619Y-83372261D02*
X126322619Y-83134166D01*
X127036904Y-82943690D01*
X126322619Y-82753214D01*
X127322619Y-82515119D01*
X126989285Y-81705595D02*
X126322619Y-81705595D01*
X126989285Y-82134166D02*
X126465476Y-82134166D01*
X126370238Y-82086547D01*
X126322619Y-81991309D01*
X126322619Y-81848452D01*
X126370238Y-81753214D01*
X126417857Y-81705595D01*
X124672619Y-91943690D02*
X125672619Y-91943690D01*
X125672619Y-91705595D01*
X125625000Y-91562738D01*
X125529761Y-91467500D01*
X125434523Y-91419880D01*
X125244047Y-91372261D01*
X125101190Y-91372261D01*
X124910714Y-91419880D01*
X124815476Y-91467500D01*
X124720238Y-91562738D01*
X124672619Y-91705595D01*
X124672619Y-91943690D01*
X124672619Y-90515119D02*
X125196428Y-90515119D01*
X125291666Y-90562738D01*
X125339285Y-90657976D01*
X125339285Y-90848452D01*
X125291666Y-90943690D01*
X124720238Y-90515119D02*
X124672619Y-90610357D01*
X124672619Y-90848452D01*
X124720238Y-90943690D01*
X124815476Y-90991309D01*
X124910714Y-90991309D01*
X125005952Y-90943690D01*
X125053571Y-90848452D01*
X125053571Y-90610357D01*
X125101190Y-90515119D01*
X124720238Y-89657976D02*
X124672619Y-89753214D01*
X124672619Y-89943690D01*
X124720238Y-90038928D01*
X124815476Y-90086547D01*
X125196428Y-90086547D01*
X125291666Y-90038928D01*
X125339285Y-89943690D01*
X125339285Y-89753214D01*
X125291666Y-89657976D01*
X125196428Y-89610357D01*
X125101190Y-89610357D01*
X125005952Y-90086547D01*
X124672619Y-88753214D02*
X125672619Y-88753214D01*
X124720238Y-88753214D02*
X124672619Y-88848452D01*
X124672619Y-89038928D01*
X124720238Y-89134166D01*
X124767857Y-89181785D01*
X124863095Y-89229404D01*
X125148809Y-89229404D01*
X125244047Y-89181785D01*
X125291666Y-89134166D01*
X125339285Y-89038928D01*
X125339285Y-88848452D01*
X125291666Y-88753214D01*
X124672619Y-87848452D02*
X125196428Y-87848452D01*
X125291666Y-87896071D01*
X125339285Y-87991309D01*
X125339285Y-88181785D01*
X125291666Y-88277023D01*
X124720238Y-87848452D02*
X124672619Y-87943690D01*
X124672619Y-88181785D01*
X124720238Y-88277023D01*
X124815476Y-88324642D01*
X124910714Y-88324642D01*
X125005952Y-88277023D01*
X125053571Y-88181785D01*
X125053571Y-87943690D01*
X125101190Y-87848452D01*
X124672619Y-87229404D02*
X124720238Y-87324642D01*
X124815476Y-87372261D01*
X125672619Y-87372261D01*
X125339285Y-86419880D02*
X124672619Y-86419880D01*
X125339285Y-86848452D02*
X124815476Y-86848452D01*
X124720238Y-86800833D01*
X124672619Y-86705595D01*
X124672619Y-86562738D01*
X124720238Y-86467500D01*
X124767857Y-86419880D01*
X124720238Y-85991309D02*
X124672619Y-85896071D01*
X124672619Y-85705595D01*
X124720238Y-85610357D01*
X124815476Y-85562738D01*
X124863095Y-85562738D01*
X124958333Y-85610357D01*
X125005952Y-85705595D01*
X125005952Y-85848452D01*
X125053571Y-85943690D01*
X125148809Y-85991309D01*
X125196428Y-85991309D01*
X125291666Y-85943690D01*
X125339285Y-85848452D01*
X125339285Y-85705595D01*
X125291666Y-85610357D01*
X125339285Y-84467500D02*
X124672619Y-84229404D01*
X125339285Y-83991309D01*
X124672619Y-83086547D02*
X124672619Y-83657976D01*
X124672619Y-83372261D02*
X125672619Y-83372261D01*
X125529761Y-83467500D01*
X125434523Y-83562738D01*
X125386904Y-83657976D01*
X124767857Y-82657976D02*
X124720238Y-82610357D01*
X124672619Y-82657976D01*
X124720238Y-82705595D01*
X124767857Y-82657976D01*
X124672619Y-82657976D01*
X125672619Y-81991309D02*
X125672619Y-81896071D01*
X125625000Y-81800833D01*
X125577380Y-81753214D01*
X125482142Y-81705595D01*
X125291666Y-81657976D01*
X125053571Y-81657976D01*
X124863095Y-81705595D01*
X124767857Y-81753214D01*
X124720238Y-81800833D01*
X124672619Y-81896071D01*
X124672619Y-81991309D01*
X124720238Y-82086547D01*
X124767857Y-82134166D01*
X124863095Y-82181785D01*
X125053571Y-82229404D01*
X125291666Y-82229404D01*
X125482142Y-82181785D01*
X125577380Y-82134166D01*
X125625000Y-82086547D01*
X125672619Y-81991309D01*
D11*
G04 #@! TO.C,G\u002A\u002A\u002A*
G36*
X138914667Y-87147000D02*
G01*
X139295667Y-87147000D01*
X139295667Y-83887333D01*
X138914667Y-83887333D01*
X138914667Y-87147000D01*
G37*
X138914667Y-87147000D02*
X139295667Y-87147000D01*
X139295667Y-83887333D01*
X138914667Y-83887333D01*
X138914667Y-87147000D01*
G36*
X131295697Y-83966503D02*
G01*
X131010269Y-84075391D01*
X130765664Y-84257586D01*
X130755364Y-84267739D01*
X130618227Y-84404506D01*
X131092477Y-84944684D01*
X131213459Y-84858537D01*
X131318994Y-84774826D01*
X131356353Y-84707011D01*
X131330471Y-84628298D01*
X131271330Y-84544418D01*
X131158638Y-84396670D01*
X131264466Y-84356435D01*
X131535013Y-84290347D01*
X131791362Y-84298868D01*
X132021208Y-84380168D01*
X132172643Y-84491459D01*
X132301542Y-84664618D01*
X132349274Y-84853456D01*
X132315506Y-85048464D01*
X132199904Y-85240136D01*
X132198925Y-85241302D01*
X132087157Y-85374130D01*
X131953480Y-85244565D01*
X131862657Y-85165299D01*
X131792675Y-85119499D01*
X131776822Y-85115000D01*
X131722237Y-85143148D01*
X131640705Y-85212956D01*
X131619212Y-85234647D01*
X131504583Y-85354293D01*
X131591678Y-85433113D01*
X131630666Y-85472218D01*
X131638109Y-85504177D01*
X131602992Y-85539658D01*
X131514301Y-85589329D01*
X131361020Y-85663859D01*
X131346048Y-85671019D01*
X131035022Y-85851978D01*
X130803996Y-86058938D01*
X130653256Y-86291393D01*
X130583088Y-86548835D01*
X130593779Y-86830758D01*
X130621414Y-86952634D01*
X130736699Y-87222932D01*
X130913239Y-87437488D01*
X131143746Y-87590262D01*
X131420932Y-87675213D01*
X131506317Y-87686059D01*
X131760334Y-87709092D01*
X131760334Y-87316333D01*
X131601584Y-87316267D01*
X131373585Y-87278180D01*
X131185634Y-87171106D01*
X131049181Y-87005523D01*
X130975681Y-86791909D01*
X130968912Y-86737403D01*
X130974274Y-86537867D01*
X131032820Y-86369585D01*
X131151909Y-86224332D01*
X131338897Y-86093882D01*
X131601142Y-85970011D01*
X131684866Y-85936985D01*
X131986849Y-85821591D01*
X132153163Y-86018629D01*
X132319478Y-86215667D01*
X132879275Y-86215667D01*
X132666607Y-85993417D01*
X132520824Y-85839700D01*
X132427358Y-85734277D01*
X132379538Y-85664702D01*
X132370692Y-85618533D01*
X132394150Y-85583324D01*
X132431493Y-85554826D01*
X132562341Y-85415597D01*
X132653832Y-85221967D01*
X132702219Y-84996348D01*
X132703756Y-84761155D01*
X132654696Y-84538799D01*
X132616062Y-84450702D01*
X132453698Y-84227322D01*
X132234202Y-84064870D01*
X131961081Y-83965187D01*
X131637842Y-83930113D01*
X131624110Y-83930080D01*
X131295697Y-83966503D01*
G37*
X131295697Y-83966503D02*
X131010269Y-84075391D01*
X130765664Y-84257586D01*
X130755364Y-84267739D01*
X130618227Y-84404506D01*
X131092477Y-84944684D01*
X131213459Y-84858537D01*
X131318994Y-84774826D01*
X131356353Y-84707011D01*
X131330471Y-84628298D01*
X131271330Y-84544418D01*
X131158638Y-84396670D01*
X131264466Y-84356435D01*
X131535013Y-84290347D01*
X131791362Y-84298868D01*
X132021208Y-84380168D01*
X132172643Y-84491459D01*
X132301542Y-84664618D01*
X132349274Y-84853456D01*
X132315506Y-85048464D01*
X132199904Y-85240136D01*
X132198925Y-85241302D01*
X132087157Y-85374130D01*
X131953480Y-85244565D01*
X131862657Y-85165299D01*
X131792675Y-85119499D01*
X131776822Y-85115000D01*
X131722237Y-85143148D01*
X131640705Y-85212956D01*
X131619212Y-85234647D01*
X131504583Y-85354293D01*
X131591678Y-85433113D01*
X131630666Y-85472218D01*
X131638109Y-85504177D01*
X131602992Y-85539658D01*
X131514301Y-85589329D01*
X131361020Y-85663859D01*
X131346048Y-85671019D01*
X131035022Y-85851978D01*
X130803996Y-86058938D01*
X130653256Y-86291393D01*
X130583088Y-86548835D01*
X130593779Y-86830758D01*
X130621414Y-86952634D01*
X130736699Y-87222932D01*
X130913239Y-87437488D01*
X131143746Y-87590262D01*
X131420932Y-87675213D01*
X131506317Y-87686059D01*
X131760334Y-87709092D01*
X131760334Y-87316333D01*
X131601584Y-87316267D01*
X131373585Y-87278180D01*
X131185634Y-87171106D01*
X131049181Y-87005523D01*
X130975681Y-86791909D01*
X130968912Y-86737403D01*
X130974274Y-86537867D01*
X131032820Y-86369585D01*
X131151909Y-86224332D01*
X131338897Y-86093882D01*
X131601142Y-85970011D01*
X131684866Y-85936985D01*
X131986849Y-85821591D01*
X132153163Y-86018629D01*
X132319478Y-86215667D01*
X132879275Y-86215667D01*
X132666607Y-85993417D01*
X132520824Y-85839700D01*
X132427358Y-85734277D01*
X132379538Y-85664702D01*
X132370692Y-85618533D01*
X132394150Y-85583324D01*
X132431493Y-85554826D01*
X132562341Y-85415597D01*
X132653832Y-85221967D01*
X132702219Y-84996348D01*
X132703756Y-84761155D01*
X132654696Y-84538799D01*
X132616062Y-84450702D01*
X132453698Y-84227322D01*
X132234202Y-84064870D01*
X131961081Y-83965187D01*
X131637842Y-83930113D01*
X131624110Y-83930080D01*
X131295697Y-83966503D01*
G36*
X135760782Y-85062083D02*
G01*
X135626281Y-85367433D01*
X135496355Y-85662268D01*
X135376793Y-85933459D01*
X135273385Y-86167878D01*
X135191920Y-86352396D01*
X135138190Y-86473886D01*
X135134511Y-86482184D01*
X135069691Y-86615356D01*
X135014179Y-86706145D01*
X134978334Y-86738095D01*
X134974629Y-86736184D01*
X134950270Y-86690343D01*
X134896618Y-86576494D01*
X134818036Y-86404320D01*
X134718888Y-86183503D01*
X134603537Y-85923724D01*
X134476347Y-85634666D01*
X134415706Y-85496000D01*
X133889089Y-84289500D01*
X134811360Y-84278115D01*
X135733630Y-84266729D01*
X135783201Y-84116528D01*
X135810791Y-84014539D01*
X135816244Y-83952536D01*
X135813792Y-83947347D01*
X135768237Y-83942877D01*
X135648770Y-83939544D01*
X135466138Y-83937416D01*
X135231088Y-83936558D01*
X134954369Y-83937038D01*
X134646727Y-83938923D01*
X134568523Y-83939600D01*
X133342234Y-83950833D01*
X134157392Y-85807414D01*
X134320840Y-86179258D01*
X134474016Y-86526923D01*
X134613551Y-86842819D01*
X134736074Y-87119354D01*
X134838216Y-87348939D01*
X134916608Y-87523982D01*
X134967879Y-87636893D01*
X134988660Y-87680082D01*
X134988784Y-87680227D01*
X135008425Y-87645969D01*
X135058462Y-87541485D01*
X135135549Y-87374206D01*
X135236346Y-87151562D01*
X135357509Y-86880982D01*
X135495696Y-86569897D01*
X135647562Y-86225735D01*
X135809767Y-85855927D01*
X135816842Y-85839749D01*
X135979368Y-85467497D01*
X136131042Y-85119057D01*
X136268567Y-84802072D01*
X136388650Y-84524188D01*
X136487995Y-84293048D01*
X136563307Y-84116296D01*
X136611292Y-84001578D01*
X136628654Y-83956536D01*
X136628667Y-83956352D01*
X136590876Y-83940221D01*
X136495582Y-83930730D01*
X136444072Y-83929667D01*
X136259477Y-83929667D01*
X135760782Y-85062083D01*
G37*
X135760782Y-85062083D02*
X135626281Y-85367433D01*
X135496355Y-85662268D01*
X135376793Y-85933459D01*
X135273385Y-86167878D01*
X135191920Y-86352396D01*
X135138190Y-86473886D01*
X135134511Y-86482184D01*
X135069691Y-86615356D01*
X135014179Y-86706145D01*
X134978334Y-86738095D01*
X134974629Y-86736184D01*
X134950270Y-86690343D01*
X134896618Y-86576494D01*
X134818036Y-86404320D01*
X134718888Y-86183503D01*
X134603537Y-85923724D01*
X134476347Y-85634666D01*
X134415706Y-85496000D01*
X133889089Y-84289500D01*
X134811360Y-84278115D01*
X135733630Y-84266729D01*
X135783201Y-84116528D01*
X135810791Y-84014539D01*
X135816244Y-83952536D01*
X135813792Y-83947347D01*
X135768237Y-83942877D01*
X135648770Y-83939544D01*
X135466138Y-83937416D01*
X135231088Y-83936558D01*
X134954369Y-83937038D01*
X134646727Y-83938923D01*
X134568523Y-83939600D01*
X133342234Y-83950833D01*
X134157392Y-85807414D01*
X134320840Y-86179258D01*
X134474016Y-86526923D01*
X134613551Y-86842819D01*
X134736074Y-87119354D01*
X134838216Y-87348939D01*
X134916608Y-87523982D01*
X134967879Y-87636893D01*
X134988660Y-87680082D01*
X134988784Y-87680227D01*
X135008425Y-87645969D01*
X135058462Y-87541485D01*
X135135549Y-87374206D01*
X135236346Y-87151562D01*
X135357509Y-86880982D01*
X135495696Y-86569897D01*
X135647562Y-86225735D01*
X135809767Y-85855927D01*
X135816842Y-85839749D01*
X135979368Y-85467497D01*
X136131042Y-85119057D01*
X136268567Y-84802072D01*
X136388650Y-84524188D01*
X136487995Y-84293048D01*
X136563307Y-84116296D01*
X136611292Y-84001578D01*
X136628654Y-83956536D01*
X136628667Y-83956352D01*
X136590876Y-83940221D01*
X136495582Y-83930730D01*
X136444072Y-83929667D01*
X136259477Y-83929667D01*
X135760782Y-85062083D01*
G36*
X137136667Y-87697333D02*
G01*
X139295667Y-87697333D01*
X139295667Y-87316333D01*
X137136667Y-87316333D01*
X137136667Y-87697333D01*
G37*
X137136667Y-87697333D02*
X139295667Y-87697333D01*
X139295667Y-87316333D01*
X137136667Y-87316333D01*
X137136667Y-87697333D01*
G36*
X141435409Y-83968206D02*
G01*
X141386293Y-84073799D01*
X141311354Y-84238700D01*
X141214631Y-84453772D01*
X141100158Y-84709875D01*
X140971972Y-84997872D01*
X140834109Y-85308622D01*
X140690607Y-85632988D01*
X140545500Y-85961831D01*
X140402826Y-86286012D01*
X140266621Y-86596393D01*
X140140921Y-86883834D01*
X140029762Y-87139198D01*
X139937181Y-87353345D01*
X139867215Y-87517138D01*
X139823898Y-87621436D01*
X139817240Y-87638358D01*
X139823311Y-87676256D01*
X139889191Y-87693551D01*
X139979055Y-87696083D01*
X140036530Y-87693165D01*
X140093429Y-87681365D01*
X140158457Y-87654883D01*
X140240322Y-87607921D01*
X140347728Y-87534678D01*
X140489382Y-87429355D01*
X140673990Y-87286151D01*
X140910257Y-87099268D01*
X141091108Y-86955250D01*
X141332625Y-86763453D01*
X141552696Y-86590148D01*
X141742646Y-86442053D01*
X141893797Y-86325881D01*
X141997474Y-86248348D01*
X142044999Y-86216170D01*
X142046665Y-86215667D01*
X142071530Y-86252581D01*
X142123994Y-86355307D01*
X142198345Y-86511813D01*
X142288875Y-86710071D01*
X142389873Y-86938052D01*
X142393307Y-86945917D01*
X142712000Y-87676167D01*
X142913194Y-87689247D01*
X143031446Y-87689563D01*
X143094555Y-87674273D01*
X143099444Y-87661684D01*
X143069575Y-87587869D01*
X143011246Y-87450287D01*
X142928482Y-87258065D01*
X142825307Y-87020331D01*
X142705746Y-86746213D01*
X142573822Y-86444839D01*
X142433560Y-86125336D01*
X142298604Y-85818690D01*
X141871159Y-85818690D01*
X141871155Y-85829947D01*
X141836053Y-85866152D01*
X141747738Y-85943840D01*
X141618169Y-86053334D01*
X141459309Y-86184954D01*
X141283118Y-86329021D01*
X141101557Y-86475855D01*
X140926587Y-86615778D01*
X140770170Y-86739110D01*
X140644266Y-86836172D01*
X140560837Y-86897284D01*
X140532017Y-86913613D01*
X140545125Y-86873821D01*
X140588449Y-86766942D01*
X140657633Y-86603177D01*
X140748322Y-86392726D01*
X140856158Y-86145789D01*
X140972531Y-85882155D01*
X141094344Y-85609851D01*
X141205865Y-85364903D01*
X141302330Y-85157430D01*
X141378973Y-84997552D01*
X141431027Y-84895388D01*
X141453458Y-84861000D01*
X141481308Y-84897389D01*
X141531952Y-84994314D01*
X141597474Y-85133411D01*
X141669956Y-85296313D01*
X141741482Y-85464657D01*
X141804136Y-85620078D01*
X141850000Y-85744210D01*
X141871159Y-85818690D01*
X142298604Y-85818690D01*
X142288985Y-85796834D01*
X142144121Y-85468459D01*
X142002992Y-85149339D01*
X141869623Y-84848604D01*
X141748037Y-84575379D01*
X141642260Y-84338794D01*
X141556316Y-84147976D01*
X141494229Y-84012053D01*
X141460023Y-83940154D01*
X141454667Y-83931060D01*
X141435409Y-83968206D01*
G37*
X141435409Y-83968206D02*
X141386293Y-84073799D01*
X141311354Y-84238700D01*
X141214631Y-84453772D01*
X141100158Y-84709875D01*
X140971972Y-84997872D01*
X140834109Y-85308622D01*
X140690607Y-85632988D01*
X140545500Y-85961831D01*
X140402826Y-86286012D01*
X140266621Y-86596393D01*
X140140921Y-86883834D01*
X140029762Y-87139198D01*
X139937181Y-87353345D01*
X139867215Y-87517138D01*
X139823898Y-87621436D01*
X139817240Y-87638358D01*
X139823311Y-87676256D01*
X139889191Y-87693551D01*
X139979055Y-87696083D01*
X140036530Y-87693165D01*
X140093429Y-87681365D01*
X140158457Y-87654883D01*
X140240322Y-87607921D01*
X140347728Y-87534678D01*
X140489382Y-87429355D01*
X140673990Y-87286151D01*
X140910257Y-87099268D01*
X141091108Y-86955250D01*
X141332625Y-86763453D01*
X141552696Y-86590148D01*
X141742646Y-86442053D01*
X141893797Y-86325881D01*
X141997474Y-86248348D01*
X142044999Y-86216170D01*
X142046665Y-86215667D01*
X142071530Y-86252581D01*
X142123994Y-86355307D01*
X142198345Y-86511813D01*
X142288875Y-86710071D01*
X142389873Y-86938052D01*
X142393307Y-86945917D01*
X142712000Y-87676167D01*
X142913194Y-87689247D01*
X143031446Y-87689563D01*
X143094555Y-87674273D01*
X143099444Y-87661684D01*
X143069575Y-87587869D01*
X143011246Y-87450287D01*
X142928482Y-87258065D01*
X142825307Y-87020331D01*
X142705746Y-86746213D01*
X142573822Y-86444839D01*
X142433560Y-86125336D01*
X142298604Y-85818690D01*
X141871159Y-85818690D01*
X141871155Y-85829947D01*
X141836053Y-85866152D01*
X141747738Y-85943840D01*
X141618169Y-86053334D01*
X141459309Y-86184954D01*
X141283118Y-86329021D01*
X141101557Y-86475855D01*
X140926587Y-86615778D01*
X140770170Y-86739110D01*
X140644266Y-86836172D01*
X140560837Y-86897284D01*
X140532017Y-86913613D01*
X140545125Y-86873821D01*
X140588449Y-86766942D01*
X140657633Y-86603177D01*
X140748322Y-86392726D01*
X140856158Y-86145789D01*
X140972531Y-85882155D01*
X141094344Y-85609851D01*
X141205865Y-85364903D01*
X141302330Y-85157430D01*
X141378973Y-84997552D01*
X141431027Y-84895388D01*
X141453458Y-84861000D01*
X141481308Y-84897389D01*
X141531952Y-84994314D01*
X141597474Y-85133411D01*
X141669956Y-85296313D01*
X141741482Y-85464657D01*
X141804136Y-85620078D01*
X141850000Y-85744210D01*
X141871159Y-85818690D01*
X142298604Y-85818690D01*
X142288985Y-85796834D01*
X142144121Y-85468459D01*
X142002992Y-85149339D01*
X141869623Y-84848604D01*
X141748037Y-84575379D01*
X141642260Y-84338794D01*
X141556316Y-84147976D01*
X141494229Y-84012053D01*
X141460023Y-83940154D01*
X141454667Y-83931060D01*
X141435409Y-83968206D01*
G36*
X145716676Y-83896848D02*
G01*
X145309271Y-83925475D01*
X144982138Y-83973343D01*
X144734160Y-84040578D01*
X144686897Y-84059354D01*
X144352962Y-84246722D01*
X144072958Y-84496527D01*
X143851290Y-84802539D01*
X143692365Y-85158524D01*
X143600589Y-85558251D01*
X143594833Y-85604186D01*
X143590823Y-85965188D01*
X143656383Y-86324261D01*
X143784233Y-86666420D01*
X143967095Y-86976683D01*
X144197691Y-87240065D01*
X144468744Y-87441582D01*
X144494234Y-87455824D01*
X144654180Y-87535231D01*
X144814489Y-87595750D01*
X144989919Y-87639727D01*
X145195228Y-87669505D01*
X145445172Y-87687430D01*
X145754512Y-87695845D01*
X146014395Y-87697333D01*
X146831000Y-87697333D01*
X146830174Y-87185837D01*
X146450000Y-87185837D01*
X146450000Y-87316333D01*
X145840626Y-87316333D01*
X145569830Y-87313807D01*
X145363029Y-87304911D01*
X145199664Y-87287668D01*
X145059179Y-87260100D01*
X144955719Y-87231230D01*
X144657438Y-87097792D01*
X144407842Y-86903031D01*
X144211022Y-86657595D01*
X144071070Y-86372133D01*
X143992075Y-86057292D01*
X143978130Y-85723720D01*
X144033325Y-85382065D01*
X144135825Y-85097248D01*
X144209035Y-84965356D01*
X144305878Y-84827176D01*
X144410275Y-84701768D01*
X144506147Y-84608190D01*
X144577417Y-84565503D01*
X144585111Y-84564667D01*
X144617819Y-84597639D01*
X144694515Y-84691488D01*
X144809393Y-84838613D01*
X144956648Y-85031415D01*
X145130476Y-85262291D01*
X145325072Y-85523641D01*
X145534630Y-85807865D01*
X145536199Y-85810004D01*
X145786202Y-86152121D01*
X145989052Y-86433196D01*
X146148926Y-86659520D01*
X146270003Y-86837384D01*
X146356460Y-86973076D01*
X146412475Y-87072888D01*
X146442226Y-87143109D01*
X146450000Y-87185837D01*
X146830174Y-87185837D01*
X146829734Y-86914167D01*
X145898617Y-85645255D01*
X145658308Y-85317359D01*
X145464113Y-85050923D01*
X145311805Y-84839335D01*
X145197155Y-84675981D01*
X145115935Y-84554247D01*
X145063917Y-84467521D01*
X145036873Y-84409188D01*
X145030575Y-84372637D01*
X145040795Y-84351252D01*
X145063167Y-84338476D01*
X145137943Y-84323801D01*
X145279851Y-84308722D01*
X145471373Y-84294647D01*
X145694994Y-84282988D01*
X145804417Y-84278803D01*
X146450000Y-84256999D01*
X146450000Y-84734000D01*
X146831000Y-84734000D01*
X146831000Y-83887333D01*
X146205473Y-83887333D01*
X145716676Y-83896848D01*
G37*
X145716676Y-83896848D02*
X145309271Y-83925475D01*
X144982138Y-83973343D01*
X144734160Y-84040578D01*
X144686897Y-84059354D01*
X144352962Y-84246722D01*
X144072958Y-84496527D01*
X143851290Y-84802539D01*
X143692365Y-85158524D01*
X143600589Y-85558251D01*
X143594833Y-85604186D01*
X143590823Y-85965188D01*
X143656383Y-86324261D01*
X143784233Y-86666420D01*
X143967095Y-86976683D01*
X144197691Y-87240065D01*
X144468744Y-87441582D01*
X144494234Y-87455824D01*
X144654180Y-87535231D01*
X144814489Y-87595750D01*
X144989919Y-87639727D01*
X145195228Y-87669505D01*
X145445172Y-87687430D01*
X145754512Y-87695845D01*
X146014395Y-87697333D01*
X146831000Y-87697333D01*
X146830174Y-87185837D01*
X146450000Y-87185837D01*
X146450000Y-87316333D01*
X145840626Y-87316333D01*
X145569830Y-87313807D01*
X145363029Y-87304911D01*
X145199664Y-87287668D01*
X145059179Y-87260100D01*
X144955719Y-87231230D01*
X144657438Y-87097792D01*
X144407842Y-86903031D01*
X144211022Y-86657595D01*
X144071070Y-86372133D01*
X143992075Y-86057292D01*
X143978130Y-85723720D01*
X144033325Y-85382065D01*
X144135825Y-85097248D01*
X144209035Y-84965356D01*
X144305878Y-84827176D01*
X144410275Y-84701768D01*
X144506147Y-84608190D01*
X144577417Y-84565503D01*
X144585111Y-84564667D01*
X144617819Y-84597639D01*
X144694515Y-84691488D01*
X144809393Y-84838613D01*
X144956648Y-85031415D01*
X145130476Y-85262291D01*
X145325072Y-85523641D01*
X145534630Y-85807865D01*
X145536199Y-85810004D01*
X145786202Y-86152121D01*
X145989052Y-86433196D01*
X146148926Y-86659520D01*
X146270003Y-86837384D01*
X146356460Y-86973076D01*
X146412475Y-87072888D01*
X146442226Y-87143109D01*
X146450000Y-87185837D01*
X146830174Y-87185837D01*
X146829734Y-86914167D01*
X145898617Y-85645255D01*
X145658308Y-85317359D01*
X145464113Y-85050923D01*
X145311805Y-84839335D01*
X145197155Y-84675981D01*
X145115935Y-84554247D01*
X145063917Y-84467521D01*
X145036873Y-84409188D01*
X145030575Y-84372637D01*
X145040795Y-84351252D01*
X145063167Y-84338476D01*
X145137943Y-84323801D01*
X145279851Y-84308722D01*
X145471373Y-84294647D01*
X145694994Y-84282988D01*
X145804417Y-84278803D01*
X146450000Y-84256999D01*
X146450000Y-84734000D01*
X146831000Y-84734000D01*
X146831000Y-83887333D01*
X146205473Y-83887333D01*
X145716676Y-83896848D01*
G36*
X147296667Y-84268333D02*
G01*
X149328667Y-84268333D01*
X149328667Y-85538333D01*
X149327929Y-85856476D01*
X149325840Y-86145457D01*
X149322588Y-86394928D01*
X149318361Y-86594541D01*
X149313348Y-86733951D01*
X149307736Y-86802808D01*
X149305582Y-86808333D01*
X149263027Y-86790076D01*
X149155227Y-86738683D01*
X148992493Y-86659219D01*
X148785137Y-86556748D01*
X148543472Y-86436338D01*
X148314474Y-86321500D01*
X148051323Y-86189626D01*
X147813439Y-86071313D01*
X147611160Y-85971627D01*
X147454821Y-85895638D01*
X147354758Y-85848412D01*
X147321560Y-85834667D01*
X147306704Y-85872530D01*
X147297801Y-85968312D01*
X147296667Y-86024997D01*
X147296667Y-86215328D01*
X148312667Y-86723667D01*
X148581610Y-86859736D01*
X148823826Y-86985180D01*
X149029478Y-87094666D01*
X149188728Y-87182865D01*
X149291736Y-87244444D01*
X149328665Y-87274075D01*
X149328667Y-87274169D01*
X149287046Y-87288546D01*
X149164952Y-87300121D01*
X148966535Y-87308721D01*
X148695949Y-87314174D01*
X148357345Y-87316308D01*
X148312667Y-87316333D01*
X147296667Y-87316333D01*
X147296667Y-87697333D01*
X149709667Y-87697333D01*
X149709667Y-83887333D01*
X147296667Y-83887333D01*
X147296667Y-84268333D01*
G37*
X147296667Y-84268333D02*
X149328667Y-84268333D01*
X149328667Y-85538333D01*
X149327929Y-85856476D01*
X149325840Y-86145457D01*
X149322588Y-86394928D01*
X149318361Y-86594541D01*
X149313348Y-86733951D01*
X149307736Y-86802808D01*
X149305582Y-86808333D01*
X149263027Y-86790076D01*
X149155227Y-86738683D01*
X148992493Y-86659219D01*
X148785137Y-86556748D01*
X148543472Y-86436338D01*
X148314474Y-86321500D01*
X148051323Y-86189626D01*
X147813439Y-86071313D01*
X147611160Y-85971627D01*
X147454821Y-85895638D01*
X147354758Y-85848412D01*
X147321560Y-85834667D01*
X147306704Y-85872530D01*
X147297801Y-85968312D01*
X147296667Y-86024997D01*
X147296667Y-86215328D01*
X148312667Y-86723667D01*
X148581610Y-86859736D01*
X148823826Y-86985180D01*
X149029478Y-87094666D01*
X149188728Y-87182865D01*
X149291736Y-87244444D01*
X149328665Y-87274075D01*
X149328667Y-87274169D01*
X149287046Y-87288546D01*
X149164952Y-87300121D01*
X148966535Y-87308721D01*
X148695949Y-87314174D01*
X148357345Y-87316308D01*
X148312667Y-87316333D01*
X147296667Y-87316333D01*
X147296667Y-87697333D01*
X149709667Y-87697333D01*
X149709667Y-83887333D01*
X147296667Y-83887333D01*
X147296667Y-84268333D01*
G36*
X151844288Y-83972187D02*
G01*
X151821219Y-84008633D01*
X151787546Y-84071923D01*
X151740873Y-84167305D01*
X151678801Y-84300023D01*
X151598932Y-84475324D01*
X151498867Y-84698454D01*
X151376210Y-84974658D01*
X151228560Y-85309183D01*
X151053521Y-85707274D01*
X150848695Y-86174178D01*
X150691388Y-86533167D01*
X150190688Y-87676167D01*
X150371898Y-87689003D01*
X150426285Y-87691222D01*
X150477900Y-87685828D01*
X150535233Y-87667199D01*
X150606774Y-87629712D01*
X150701015Y-87567746D01*
X150826446Y-87475678D01*
X150991556Y-87347887D01*
X151204838Y-87178749D01*
X151474781Y-86962643D01*
X151502916Y-86940079D01*
X152452724Y-86178318D01*
X152785112Y-86937613D01*
X153117500Y-87696909D01*
X153514190Y-87697333D01*
X153185559Y-86945917D01*
X153075039Y-86693026D01*
X152939907Y-86383520D01*
X152789331Y-86038417D01*
X152697311Y-85827400D01*
X152256588Y-85827400D01*
X152238795Y-85863653D01*
X152237570Y-85864906D01*
X152176242Y-85920176D01*
X152066950Y-86012901D01*
X151922224Y-86132964D01*
X151754594Y-86270248D01*
X151576589Y-86414637D01*
X151400737Y-86556013D01*
X151239569Y-86684261D01*
X151105613Y-86789263D01*
X151011400Y-86860903D01*
X150969457Y-86889064D01*
X150969084Y-86889138D01*
X150937356Y-86873398D01*
X150937334Y-86872638D01*
X150953691Y-86830490D01*
X150999051Y-86723658D01*
X151067841Y-86564746D01*
X151154492Y-86366355D01*
X151253434Y-86141089D01*
X151359095Y-85901551D01*
X151465905Y-85660343D01*
X151568294Y-85430068D01*
X151660691Y-85223329D01*
X151737525Y-85052730D01*
X151793227Y-84930872D01*
X151822226Y-84870359D01*
X151822866Y-84869185D01*
X151851833Y-84881439D01*
X151907201Y-84966809D01*
X151985500Y-85119185D01*
X152073837Y-85311112D01*
X152165311Y-85521912D01*
X152223695Y-85669548D01*
X152252837Y-85767038D01*
X152256588Y-85827400D01*
X152697311Y-85827400D01*
X152632481Y-85678737D01*
X152478527Y-85325501D01*
X152377614Y-85093833D01*
X152252756Y-84808301D01*
X152137903Y-84547904D01*
X152037626Y-84322826D01*
X151956496Y-84143252D01*
X151899084Y-84019367D01*
X151869961Y-83961356D01*
X151868212Y-83958845D01*
X151859153Y-83957339D01*
X151844288Y-83972187D01*
G37*
X151844288Y-83972187D02*
X151821219Y-84008633D01*
X151787546Y-84071923D01*
X151740873Y-84167305D01*
X151678801Y-84300023D01*
X151598932Y-84475324D01*
X151498867Y-84698454D01*
X151376210Y-84974658D01*
X151228560Y-85309183D01*
X151053521Y-85707274D01*
X150848695Y-86174178D01*
X150691388Y-86533167D01*
X150190688Y-87676167D01*
X150371898Y-87689003D01*
X150426285Y-87691222D01*
X150477900Y-87685828D01*
X150535233Y-87667199D01*
X150606774Y-87629712D01*
X150701015Y-87567746D01*
X150826446Y-87475678D01*
X150991556Y-87347887D01*
X151204838Y-87178749D01*
X151474781Y-86962643D01*
X151502916Y-86940079D01*
X152452724Y-86178318D01*
X152785112Y-86937613D01*
X153117500Y-87696909D01*
X153514190Y-87697333D01*
X153185559Y-86945917D01*
X153075039Y-86693026D01*
X152939907Y-86383520D01*
X152789331Y-86038417D01*
X152697311Y-85827400D01*
X152256588Y-85827400D01*
X152238795Y-85863653D01*
X152237570Y-85864906D01*
X152176242Y-85920176D01*
X152066950Y-86012901D01*
X151922224Y-86132964D01*
X151754594Y-86270248D01*
X151576589Y-86414637D01*
X151400737Y-86556013D01*
X151239569Y-86684261D01*
X151105613Y-86789263D01*
X151011400Y-86860903D01*
X150969457Y-86889064D01*
X150969084Y-86889138D01*
X150937356Y-86873398D01*
X150937334Y-86872638D01*
X150953691Y-86830490D01*
X150999051Y-86723658D01*
X151067841Y-86564746D01*
X151154492Y-86366355D01*
X151253434Y-86141089D01*
X151359095Y-85901551D01*
X151465905Y-85660343D01*
X151568294Y-85430068D01*
X151660691Y-85223329D01*
X151737525Y-85052730D01*
X151793227Y-84930872D01*
X151822226Y-84870359D01*
X151822866Y-84869185D01*
X151851833Y-84881439D01*
X151907201Y-84966809D01*
X151985500Y-85119185D01*
X152073837Y-85311112D01*
X152165311Y-85521912D01*
X152223695Y-85669548D01*
X152252837Y-85767038D01*
X152256588Y-85827400D01*
X152697311Y-85827400D01*
X152632481Y-85678737D01*
X152478527Y-85325501D01*
X152377614Y-85093833D01*
X152252756Y-84808301D01*
X152137903Y-84547904D01*
X152037626Y-84322826D01*
X151956496Y-84143252D01*
X151899084Y-84019367D01*
X151869961Y-83961356D01*
X151868212Y-83958845D01*
X151859153Y-83957339D01*
X151844288Y-83972187D01*
G36*
X156578250Y-83888640D02*
G01*
X156180229Y-83893960D01*
X155853303Y-83909362D01*
X155584313Y-83936589D01*
X155360100Y-83977382D01*
X155167503Y-84033483D01*
X155017217Y-84095258D01*
X154693718Y-84289475D01*
X154430734Y-84542350D01*
X154227483Y-84851499D01*
X154076173Y-85222078D01*
X153999244Y-85598416D01*
X153992802Y-85971110D01*
X154052954Y-86330757D01*
X154175806Y-86667954D01*
X154357466Y-86973299D01*
X154594041Y-87237387D01*
X154881637Y-87450818D01*
X155216361Y-87604187D01*
X155387188Y-87652464D01*
X155487557Y-87665919D01*
X155655776Y-87677750D01*
X155875032Y-87687235D01*
X156128513Y-87693653D01*
X156399406Y-87696284D01*
X156408917Y-87696298D01*
X157245000Y-87697333D01*
X157245000Y-87198198D01*
X156864000Y-87198198D01*
X156864000Y-87316333D01*
X156236684Y-87316333D01*
X155903551Y-87311293D01*
X155647489Y-87295822D01*
X155461486Y-87269398D01*
X155398685Y-87253767D01*
X155096527Y-87123340D01*
X154842748Y-86932909D01*
X154640189Y-86693845D01*
X154491691Y-86417520D01*
X154400095Y-86115307D01*
X154368240Y-85798577D01*
X154398967Y-85478703D01*
X154495117Y-85167055D01*
X154659530Y-84875007D01*
X154770224Y-84737667D01*
X154866527Y-84642856D01*
X154947191Y-84583962D01*
X154983225Y-84573414D01*
X155019664Y-84609334D01*
X155099869Y-84706100D01*
X155217919Y-84856002D01*
X155367896Y-85051332D01*
X155543879Y-85284378D01*
X155739949Y-85547432D01*
X155950187Y-85832785D01*
X155950307Y-85832948D01*
X156210045Y-86189390D01*
X156421263Y-86483729D01*
X156587228Y-86720848D01*
X156711206Y-86905626D01*
X156796464Y-87042943D01*
X156846267Y-87137681D01*
X156863882Y-87194721D01*
X156864000Y-87198198D01*
X157245000Y-87198198D01*
X157245000Y-86936642D01*
X156779334Y-86305975D01*
X156631962Y-86104450D01*
X156503786Y-85925481D01*
X156402731Y-85780437D01*
X156336721Y-85680686D01*
X156313667Y-85637848D01*
X156342197Y-85596528D01*
X156420904Y-85507098D01*
X156539466Y-85380678D01*
X156687562Y-85228389D01*
X156779334Y-85136167D01*
X157245000Y-84671944D01*
X157245000Y-84390787D01*
X156857153Y-84390787D01*
X156850688Y-84446884D01*
X156811435Y-84520168D01*
X156731255Y-84621284D01*
X156602013Y-84760880D01*
X156476989Y-84888203D01*
X156328879Y-85035007D01*
X156201945Y-85157202D01*
X156108073Y-85243612D01*
X156059147Y-85283061D01*
X156055732Y-85284333D01*
X156022133Y-85252110D01*
X155949160Y-85163939D01*
X155846932Y-85032569D01*
X155725566Y-84870747D01*
X155701024Y-84837400D01*
X155580832Y-84670073D01*
X155483667Y-84528015D01*
X155418229Y-84424474D01*
X155393221Y-84372697D01*
X155393844Y-84369712D01*
X155459816Y-84343464D01*
X155591936Y-84319308D01*
X155771686Y-84298947D01*
X155980548Y-84284084D01*
X156200005Y-84276425D01*
X156398334Y-84277286D01*
X156596373Y-84283571D01*
X156725332Y-84291926D01*
X156800783Y-84306204D01*
X156838292Y-84330255D01*
X156853430Y-84367931D01*
X156857153Y-84390787D01*
X157245000Y-84390787D01*
X157245000Y-83887333D01*
X156578250Y-83888640D01*
G37*
X156578250Y-83888640D02*
X156180229Y-83893960D01*
X155853303Y-83909362D01*
X155584313Y-83936589D01*
X155360100Y-83977382D01*
X155167503Y-84033483D01*
X155017217Y-84095258D01*
X154693718Y-84289475D01*
X154430734Y-84542350D01*
X154227483Y-84851499D01*
X154076173Y-85222078D01*
X153999244Y-85598416D01*
X153992802Y-85971110D01*
X154052954Y-86330757D01*
X154175806Y-86667954D01*
X154357466Y-86973299D01*
X154594041Y-87237387D01*
X154881637Y-87450818D01*
X155216361Y-87604187D01*
X155387188Y-87652464D01*
X155487557Y-87665919D01*
X155655776Y-87677750D01*
X155875032Y-87687235D01*
X156128513Y-87693653D01*
X156399406Y-87696284D01*
X156408917Y-87696298D01*
X157245000Y-87697333D01*
X157245000Y-87198198D01*
X156864000Y-87198198D01*
X156864000Y-87316333D01*
X156236684Y-87316333D01*
X155903551Y-87311293D01*
X155647489Y-87295822D01*
X155461486Y-87269398D01*
X155398685Y-87253767D01*
X155096527Y-87123340D01*
X154842748Y-86932909D01*
X154640189Y-86693845D01*
X154491691Y-86417520D01*
X154400095Y-86115307D01*
X154368240Y-85798577D01*
X154398967Y-85478703D01*
X154495117Y-85167055D01*
X154659530Y-84875007D01*
X154770224Y-84737667D01*
X154866527Y-84642856D01*
X154947191Y-84583962D01*
X154983225Y-84573414D01*
X155019664Y-84609334D01*
X155099869Y-84706100D01*
X155217919Y-84856002D01*
X155367896Y-85051332D01*
X155543879Y-85284378D01*
X155739949Y-85547432D01*
X155950187Y-85832785D01*
X155950307Y-85832948D01*
X156210045Y-86189390D01*
X156421263Y-86483729D01*
X156587228Y-86720848D01*
X156711206Y-86905626D01*
X156796464Y-87042943D01*
X156846267Y-87137681D01*
X156863882Y-87194721D01*
X156864000Y-87198198D01*
X157245000Y-87198198D01*
X157245000Y-86936642D01*
X156779334Y-86305975D01*
X156631962Y-86104450D01*
X156503786Y-85925481D01*
X156402731Y-85780437D01*
X156336721Y-85680686D01*
X156313667Y-85637848D01*
X156342197Y-85596528D01*
X156420904Y-85507098D01*
X156539466Y-85380678D01*
X156687562Y-85228389D01*
X156779334Y-85136167D01*
X157245000Y-84671944D01*
X157245000Y-84390787D01*
X156857153Y-84390787D01*
X156850688Y-84446884D01*
X156811435Y-84520168D01*
X156731255Y-84621284D01*
X156602013Y-84760880D01*
X156476989Y-84888203D01*
X156328879Y-85035007D01*
X156201945Y-85157202D01*
X156108073Y-85243612D01*
X156059147Y-85283061D01*
X156055732Y-85284333D01*
X156022133Y-85252110D01*
X155949160Y-85163939D01*
X155846932Y-85032569D01*
X155725566Y-84870747D01*
X155701024Y-84837400D01*
X155580832Y-84670073D01*
X155483667Y-84528015D01*
X155418229Y-84424474D01*
X155393221Y-84372697D01*
X155393844Y-84369712D01*
X155459816Y-84343464D01*
X155591936Y-84319308D01*
X155771686Y-84298947D01*
X155980548Y-84284084D01*
X156200005Y-84276425D01*
X156398334Y-84277286D01*
X156596373Y-84283571D01*
X156725332Y-84291926D01*
X156800783Y-84306204D01*
X156838292Y-84330255D01*
X156853430Y-84367931D01*
X156857153Y-84390787D01*
X157245000Y-84390787D01*
X157245000Y-83887333D01*
X156578250Y-83888640D01*
G36*
X130851224Y-82030549D02*
G01*
X130794371Y-82053040D01*
X130723271Y-82099402D01*
X130629169Y-82176900D01*
X130503308Y-82292797D01*
X130336931Y-82454358D01*
X130121281Y-82668846D01*
X130098254Y-82691898D01*
X129432000Y-83359129D01*
X129432000Y-88058159D01*
X130099232Y-88724413D01*
X130320503Y-88944114D01*
X130491608Y-89110239D01*
X130621288Y-89230030D01*
X130718284Y-89310727D01*
X130791337Y-89359569D01*
X130849188Y-89383796D01*
X130900576Y-89390650D01*
X130903565Y-89390667D01*
X131040667Y-89390667D01*
X131040667Y-89094333D01*
X131037869Y-88937224D01*
X131026529Y-88847160D01*
X131002224Y-88806621D01*
X130965893Y-88798000D01*
X130911671Y-88769218D01*
X130810659Y-88689757D01*
X130674774Y-88569946D01*
X130515937Y-88420113D01*
X130415560Y-88321087D01*
X129940000Y-87844175D01*
X129940000Y-83568452D01*
X130416913Y-83092893D01*
X130584104Y-82930593D01*
X130735218Y-82792103D01*
X130858341Y-82687718D01*
X130941560Y-82627732D01*
X130967246Y-82617333D01*
X131006244Y-82605692D01*
X131028601Y-82559174D01*
X131038625Y-82460391D01*
X131040667Y-82321000D01*
X131040667Y-82024667D01*
X130902588Y-82024667D01*
X130851224Y-82030549D01*
G37*
X130851224Y-82030549D02*
X130794371Y-82053040D01*
X130723271Y-82099402D01*
X130629169Y-82176900D01*
X130503308Y-82292797D01*
X130336931Y-82454358D01*
X130121281Y-82668846D01*
X130098254Y-82691898D01*
X129432000Y-83359129D01*
X129432000Y-88058159D01*
X130099232Y-88724413D01*
X130320503Y-88944114D01*
X130491608Y-89110239D01*
X130621288Y-89230030D01*
X130718284Y-89310727D01*
X130791337Y-89359569D01*
X130849188Y-89383796D01*
X130900576Y-89390650D01*
X130903565Y-89390667D01*
X131040667Y-89390667D01*
X131040667Y-89094333D01*
X131037869Y-88937224D01*
X131026529Y-88847160D01*
X131002224Y-88806621D01*
X130965893Y-88798000D01*
X130911671Y-88769218D01*
X130810659Y-88689757D01*
X130674774Y-88569946D01*
X130515937Y-88420113D01*
X130415560Y-88321087D01*
X129940000Y-87844175D01*
X129940000Y-83568452D01*
X130416913Y-83092893D01*
X130584104Y-82930593D01*
X130735218Y-82792103D01*
X130858341Y-82687718D01*
X130941560Y-82627732D01*
X130967246Y-82617333D01*
X131006244Y-82605692D01*
X131028601Y-82559174D01*
X131038625Y-82460391D01*
X131040667Y-82321000D01*
X131040667Y-82024667D01*
X130902588Y-82024667D01*
X130851224Y-82030549D01*
G36*
X156779334Y-82405667D02*
G01*
X156782132Y-82562776D01*
X156793472Y-82652840D01*
X156817777Y-82693378D01*
X156854108Y-82702000D01*
X156908330Y-82730782D01*
X157009342Y-82810242D01*
X157145227Y-82930053D01*
X157304064Y-83079887D01*
X157404441Y-83178912D01*
X157880000Y-83655825D01*
X157880000Y-87931490D01*
X157381948Y-88428245D01*
X157212823Y-88593929D01*
X157061879Y-88736179D01*
X156940187Y-88845000D01*
X156858816Y-88910402D01*
X156831615Y-88925000D01*
X156799900Y-88959829D01*
X156782980Y-89068195D01*
X156779334Y-89200167D01*
X156779334Y-89475333D01*
X156917413Y-89475333D01*
X156968777Y-89469451D01*
X157025630Y-89446960D01*
X157096730Y-89400598D01*
X157190832Y-89323100D01*
X157316693Y-89207203D01*
X157483070Y-89045642D01*
X157698720Y-88831154D01*
X157721747Y-88808102D01*
X158388000Y-88140870D01*
X158388000Y-83441841D01*
X157720769Y-82775587D01*
X157499498Y-82555886D01*
X157328393Y-82389760D01*
X157198713Y-82269969D01*
X157101717Y-82189273D01*
X157028664Y-82140431D01*
X156970813Y-82116204D01*
X156919425Y-82109350D01*
X156916436Y-82109333D01*
X156779334Y-82109333D01*
X156779334Y-82405667D01*
G37*
X156779334Y-82405667D02*
X156782132Y-82562776D01*
X156793472Y-82652840D01*
X156817777Y-82693378D01*
X156854108Y-82702000D01*
X156908330Y-82730782D01*
X157009342Y-82810242D01*
X157145227Y-82930053D01*
X157304064Y-83079887D01*
X157404441Y-83178912D01*
X157880000Y-83655825D01*
X157880000Y-87931490D01*
X157381948Y-88428245D01*
X157212823Y-88593929D01*
X157061879Y-88736179D01*
X156940187Y-88845000D01*
X156858816Y-88910402D01*
X156831615Y-88925000D01*
X156799900Y-88959829D01*
X156782980Y-89068195D01*
X156779334Y-89200167D01*
X156779334Y-89475333D01*
X156917413Y-89475333D01*
X156968777Y-89469451D01*
X157025630Y-89446960D01*
X157096730Y-89400598D01*
X157190832Y-89323100D01*
X157316693Y-89207203D01*
X157483070Y-89045642D01*
X157698720Y-88831154D01*
X157721747Y-88808102D01*
X158388000Y-88140870D01*
X158388000Y-83441841D01*
X157720769Y-82775587D01*
X157499498Y-82555886D01*
X157328393Y-82389760D01*
X157198713Y-82269969D01*
X157101717Y-82189273D01*
X157028664Y-82140431D01*
X156970813Y-82116204D01*
X156919425Y-82109350D01*
X156916436Y-82109333D01*
X156779334Y-82109333D01*
X156779334Y-82405667D01*
D12*
G04 #@! TO.C,U2*
X156154140Y-125464880D02*
X146154140Y-125464880D01*
X146154140Y-125464880D02*
X146154140Y-123464880D01*
X146154140Y-123464880D02*
X146154140Y-121464880D01*
X146154140Y-121464880D02*
X146154140Y-116464880D01*
X146154140Y-116464880D02*
X147654140Y-116464880D01*
X147654140Y-116464880D02*
X149654140Y-116464880D01*
X149654140Y-116464880D02*
X152654140Y-116464880D01*
X152654140Y-116464880D02*
X154654140Y-116464880D01*
X154654140Y-116464880D02*
X156154140Y-116464880D01*
X156154140Y-116464880D02*
X156154140Y-121464880D01*
X156154140Y-121464880D02*
X156154140Y-123464880D01*
X156154140Y-123464880D02*
X156154140Y-125464880D01*
X147654140Y-116464880D02*
X147654140Y-114964880D01*
X147654140Y-114964880D02*
X147654140Y-113464880D01*
X149654140Y-116464880D02*
X149654140Y-114964880D01*
X149654140Y-114964880D02*
X149654140Y-113464880D01*
X152654140Y-116464880D02*
X152654140Y-114964880D01*
X152654140Y-114964880D02*
X152654140Y-113464880D01*
X154654140Y-116464880D02*
X154654140Y-114964880D01*
X154654140Y-114964880D02*
X154654140Y-113464880D01*
X152654140Y-114964880D02*
X154654140Y-114964880D01*
X147654140Y-114964880D02*
X149654140Y-114964880D01*
X146154140Y-123464880D02*
X145154140Y-123464880D01*
X146154140Y-121464880D02*
X145154140Y-121464880D01*
X156154140Y-123464880D02*
X157154140Y-123464880D01*
X156154140Y-121464880D02*
X157154140Y-121464880D01*
X148154140Y-118964880D02*
X148154140Y-116964880D01*
X147154140Y-117964880D02*
X149154140Y-117964880D01*
X153154140Y-117964880D02*
X154154140Y-117964880D01*
G04 #@! TO.C,U1*
X138803140Y-117964880D02*
X139803140Y-117964880D01*
X132803140Y-117964880D02*
X134803140Y-117964880D01*
X133803140Y-118964880D02*
X133803140Y-116964880D01*
X141803140Y-121464880D02*
X142803140Y-121464880D01*
X141803140Y-123464880D02*
X142803140Y-123464880D01*
X131803140Y-121464880D02*
X130803140Y-121464880D01*
X131803140Y-123464880D02*
X130803140Y-123464880D01*
X133303140Y-114964880D02*
X135303140Y-114964880D01*
X138303140Y-114964880D02*
X140303140Y-114964880D01*
X140303140Y-114964880D02*
X140303140Y-113464880D01*
X140303140Y-116464880D02*
X140303140Y-114964880D01*
X138303140Y-114964880D02*
X138303140Y-113464880D01*
X138303140Y-116464880D02*
X138303140Y-114964880D01*
X135303140Y-114964880D02*
X135303140Y-113464880D01*
X135303140Y-116464880D02*
X135303140Y-114964880D01*
X133303140Y-114964880D02*
X133303140Y-113464880D01*
X133303140Y-116464880D02*
X133303140Y-114964880D01*
X141803140Y-123464880D02*
X141803140Y-125464880D01*
X141803140Y-121464880D02*
X141803140Y-123464880D01*
X141803140Y-116464880D02*
X141803140Y-121464880D01*
X140303140Y-116464880D02*
X141803140Y-116464880D01*
X138303140Y-116464880D02*
X140303140Y-116464880D01*
X135303140Y-116464880D02*
X138303140Y-116464880D01*
X133303140Y-116464880D02*
X135303140Y-116464880D01*
X131803140Y-116464880D02*
X133303140Y-116464880D01*
X131803140Y-121464880D02*
X131803140Y-116464880D01*
X131803140Y-123464880D02*
X131803140Y-121464880D01*
X131803140Y-125464880D02*
X131803140Y-123464880D01*
X141803140Y-125464880D02*
X131803140Y-125464880D01*
D13*
G04 #@! TO.C,A1*
X142748000Y-92547440D02*
G75*
G03*
X142748000Y-92547440I-457200J0D01*
G01*
D14*
X141630400Y-91712440D02*
X141630400Y-95820840D01*
X146202400Y-95820840D02*
X141630400Y-95820840D01*
X146202400Y-95820840D02*
X146202400Y-91712440D01*
X141630400Y-91712440D02*
X146202400Y-91712440D01*
D13*
X141401800Y-91483840D02*
X141401800Y-96049440D01*
X146431000Y-96049440D02*
X141401800Y-96049440D01*
X146431000Y-96049440D02*
X146431000Y-91483840D01*
X141401800Y-91483840D02*
X146431000Y-91483840D01*
D15*
X141413840Y-92659105D02*
X141413840Y-92383334D01*
X141248377Y-92714259D02*
X141827497Y-92521219D01*
X141248377Y-92328179D01*
X141248377Y-91831791D02*
X141248377Y-92162717D01*
X141248377Y-91997254D02*
X141827497Y-91997254D01*
X141744765Y-92052408D01*
X141689611Y-92107562D01*
X141662034Y-92162717D01*
G04 #@! TD*
M02*
