G04 #@! TF.GenerationSoftware,KiCad,Pcbnew,5.1.6-c6e7f7d~87~ubuntu19.10.1*
G04 #@! TF.CreationDate,2021-03-05T22:23:54-05:00*
G04 #@! TF.ProjectId,daedalus,64616564-616c-4757-932e-6b696361645f,v1.0*
G04 #@! TF.SameCoordinates,Original*
G04 #@! TF.FileFunction,Copper,L2,Inr*
G04 #@! TF.FilePolarity,Positive*
%FSLAX46Y46*%
G04 Gerber Fmt 4.6, Leading zero omitted, Abs format (unit mm)*
G04 Created by KiCad (PCBNEW 5.1.6-c6e7f7d~87~ubuntu19.10.1) date 2021-03-05 22:23:54*
%MOMM*%
%LPD*%
G01*
G04 APERTURE LIST*
G04 #@! TA.AperFunction,ViaPad*
%ADD10O,1.050000X1.250000*%
G04 #@! TD*
G04 #@! TA.AperFunction,ViaPad*
%ADD11O,1.000000X1.900000*%
G04 #@! TD*
G04 #@! TA.AperFunction,ViaPad*
%ADD12C,1.500000*%
G04 #@! TD*
G04 #@! TA.AperFunction,ViaPad*
%ADD13C,2.550000*%
G04 #@! TD*
G04 #@! TA.AperFunction,ViaPad*
%ADD14C,4.700000*%
G04 #@! TD*
G04 #@! TA.AperFunction,ViaPad*
%ADD15O,1.750000X1.200000*%
G04 #@! TD*
G04 #@! TA.AperFunction,ViaPad*
%ADD16C,2.100000*%
G04 #@! TD*
G04 #@! TA.AperFunction,ViaPad*
%ADD17C,0.600000*%
G04 #@! TD*
G04 #@! TA.AperFunction,ViaPad*
%ADD18C,0.800000*%
G04 #@! TD*
G04 #@! TA.AperFunction,ViaPad*
%ADD19C,0.700000*%
G04 #@! TD*
G04 #@! TA.AperFunction,Conductor*
%ADD20C,0.254000*%
G04 #@! TD*
G04 APERTURE END LIST*
D10*
G04 #@! TO.N,Net-(J9-Pad6)*
G04 #@! TO.C,J9*
X136047440Y-79865480D03*
X131597440Y-79865480D03*
D11*
X137997440Y-76865480D03*
X129647440Y-76865480D03*
G04 #@! TD*
D12*
G04 #@! TO.N,N/C*
G04 #@! TO.C,U2*
X145654140Y-122464880D03*
X156654140Y-122464880D03*
D13*
G04 #@! TO.N,VIN*
X148654140Y-112464880D03*
G04 #@! TO.N,BGND*
X153654140Y-112464880D03*
G04 #@! TD*
G04 #@! TO.N,BGND*
G04 #@! TO.C,U1*
X139303140Y-112464880D03*
G04 #@! TO.N,VIN*
X134303140Y-112464880D03*
D12*
G04 #@! TO.N,N/C*
X142303140Y-122464880D03*
X131303140Y-122464880D03*
G04 #@! TD*
D14*
G04 #@! TO.N,BGND*
G04 #@! TO.C,H1*
X125962120Y-115693200D03*
G04 #@! TD*
G04 #@! TO.N,BGND*
G04 #@! TO.C,H2*
X161955480Y-78422680D03*
G04 #@! TD*
G04 #@! TO.N,BGND*
G04 #@! TO.C,H3*
X161962120Y-115683040D03*
G04 #@! TD*
G04 #@! TO.N,BGND*
G04 #@! TO.C,H4*
X125958600Y-78412520D03*
G04 #@! TD*
G04 #@! TO.N,VDD*
G04 #@! TO.C,SWD1*
G04 #@! TA.AperFunction,ViaPad*
G36*
G01*
X161752441Y-94138040D02*
X160502439Y-94138040D01*
G75*
G02*
X160252440Y-93888041I0J249999D01*
G01*
X160252440Y-93188039D01*
G75*
G02*
X160502439Y-92938040I249999J0D01*
G01*
X161752441Y-92938040D01*
G75*
G02*
X162002440Y-93188039I0J-249999D01*
G01*
X162002440Y-93888041D01*
G75*
G02*
X161752441Y-94138040I-249999J0D01*
G01*
G37*
G04 #@! TD.AperFunction*
D15*
G04 #@! TO.N,SWO*
X161127440Y-91538040D03*
G04 #@! TO.N,SWDIO*
X161127440Y-89538040D03*
G04 #@! TO.N,SWCLK*
X161127440Y-87538040D03*
G04 #@! TO.N,NRST*
X161127440Y-85538040D03*
G04 #@! TO.N,BGND*
X161127440Y-83538040D03*
G04 #@! TD*
D16*
G04 #@! TO.N,N/C*
G04 #@! TO.C,J5*
X129910840Y-110698280D03*
G04 #@! TD*
G04 #@! TO.N,N/C*
G04 #@! TO.C,J6*
X143957040Y-110698280D03*
G04 #@! TD*
G04 #@! TO.N,N/C*
G04 #@! TO.C,J7*
X157977840Y-110698280D03*
G04 #@! TD*
D17*
G04 #@! TO.N,NRST*
X151013160Y-83124040D03*
G04 #@! TO.N,LED_STATUS*
X154873960Y-82377280D03*
X155676600Y-76535280D03*
G04 #@! TO.N,+5V*
X131648200Y-78546960D03*
X140649960Y-81381600D03*
G04 #@! TO.N,SPI1_SCK*
X135620760Y-84968080D03*
X146908520Y-84942680D03*
G04 #@! TO.N,USB_D-*
X144290600Y-80807560D03*
X152623520Y-88581680D03*
G04 #@! TO.N,USB_D+*
X143440600Y-80807560D03*
X152623520Y-89431680D03*
G04 #@! TO.N,SPI1_MISO*
X136870440Y-85293081D03*
X147435325Y-85544743D03*
G04 #@! TO.N,SPI1_MOSI*
X136352120Y-86029800D03*
X146293637Y-86180652D03*
D18*
G04 #@! TO.N,BGND*
X155051947Y-79028980D03*
D17*
X146639280Y-76728320D03*
X143007080Y-88940640D03*
X147759623Y-76039777D03*
X144800320Y-76545440D03*
X143499840Y-81772760D03*
X127045720Y-84805520D03*
X125156877Y-86429104D03*
X128305560Y-82961480D03*
X129621280Y-90048080D03*
X132222240Y-94538800D03*
X138104880Y-80182720D03*
X140528040Y-79202280D03*
X155940760Y-93441520D03*
X144607280Y-93369151D03*
X148315680Y-83677760D03*
X143637000Y-77332840D03*
X158658560Y-90708480D03*
X147158861Y-90594132D03*
X143007080Y-88940640D03*
D18*
X151434800Y-95351600D03*
X144602200Y-98196400D03*
X125958600Y-104216200D03*
X124917200Y-104876600D03*
X125882400Y-111048800D03*
X124815600Y-98044000D03*
X125831600Y-97459800D03*
X126796800Y-98044000D03*
X128676400Y-98018600D03*
X145923000Y-98160040D03*
X147777200Y-98160040D03*
X150622000Y-98292170D03*
X152512292Y-98289870D03*
X157607000Y-96850200D03*
X159689800Y-98145600D03*
X161391600Y-98120200D03*
X162419950Y-104114600D03*
X161569400Y-104952800D03*
X161620200Y-108356400D03*
X154406600Y-117576600D03*
X140258800Y-117627400D03*
X128092200Y-96443800D03*
D17*
X137464800Y-100609400D03*
X138531600Y-99441000D03*
X137668000Y-99542600D03*
X138404600Y-100609400D03*
X133964980Y-88945420D03*
X135229600Y-88945420D03*
X136499600Y-88945420D03*
X137769600Y-88945420D03*
X133964980Y-89961420D03*
X136499600Y-89961420D03*
X137769600Y-89961420D03*
X135229600Y-89961420D03*
X136499600Y-90977420D03*
X137769600Y-90977420D03*
X135229600Y-90977420D03*
X133964980Y-90977420D03*
X135229600Y-91993420D03*
X137769600Y-91993420D03*
X133964980Y-91993420D03*
X136499600Y-91993420D03*
X136499600Y-93009420D03*
X137769600Y-93009420D03*
X135229600Y-93009420D03*
X133964980Y-93009420D03*
X124942600Y-92659200D03*
D18*
G04 #@! TO.N,VDD*
X157781944Y-81399767D03*
D19*
X124907040Y-83428840D03*
D17*
X148920200Y-95050001D03*
X143621760Y-98100040D03*
X144185640Y-78861920D03*
X131003040Y-81524150D03*
X131028440Y-82184240D03*
X159298640Y-76296520D03*
X141589760Y-87543131D03*
X155209240Y-92005642D03*
X153111200Y-95549720D03*
D18*
X158470600Y-85242400D03*
X144780000Y-100685600D03*
D17*
G04 #@! TO.N,VIN*
X127609600Y-103174800D03*
D18*
X127736600Y-100634800D03*
X129794000Y-100711000D03*
X125933200Y-100812600D03*
X124891800Y-101473000D03*
X125882400Y-107543600D03*
X124891800Y-108280200D03*
X146634200Y-100863400D03*
X148539200Y-100838000D03*
X151384000Y-100863400D03*
X153492200Y-100838000D03*
X160533080Y-100533200D03*
X162419950Y-100838000D03*
X161544000Y-101549200D03*
X162419950Y-107492800D03*
X162419950Y-110779516D03*
X125857000Y-95275400D03*
D17*
X131697064Y-93257749D03*
X135864600Y-95199200D03*
X128625600Y-103174800D03*
X129641600Y-103174800D03*
X130657600Y-103174800D03*
X127609600Y-104013000D03*
X130657600Y-104013000D03*
X128625600Y-104013000D03*
X129641600Y-104013000D03*
X130657600Y-105029000D03*
X127609600Y-105029000D03*
X129641600Y-105029000D03*
X128625600Y-105029000D03*
X129641600Y-105968800D03*
X127609600Y-105968800D03*
X130657600Y-105968800D03*
X128625600Y-105968800D03*
X146253200Y-105943400D03*
X147269200Y-105003600D03*
X145237200Y-105943400D03*
X147269200Y-105943400D03*
X145237200Y-105003600D03*
X148285200Y-105943400D03*
X145237200Y-103149400D03*
X148285200Y-103987600D03*
X148285200Y-105003600D03*
X146253200Y-105003600D03*
X148285200Y-103149400D03*
X145237200Y-103987600D03*
X147269200Y-103987600D03*
X146253200Y-103149400D03*
X147269200Y-103149400D03*
X146253200Y-103987600D03*
X154025600Y-103987600D03*
X151993600Y-105943400D03*
X151993600Y-103987600D03*
X150977600Y-103149400D03*
X150977600Y-103987600D03*
X153009600Y-105943400D03*
X153009600Y-103149400D03*
X153009600Y-103987600D03*
X154025600Y-105003600D03*
X150977600Y-105943400D03*
X151993600Y-103149400D03*
X151993600Y-105003600D03*
X153009600Y-105003600D03*
X150977600Y-105003600D03*
X154025600Y-105943400D03*
X154025600Y-103149400D03*
G04 #@! TO.N,SW*
X129519680Y-95824040D03*
X130220720Y-94442280D03*
G04 #@! TO.N,Net-(C20-Pad2)*
X158897320Y-92801440D03*
X153407790Y-93913890D03*
G04 #@! TO.N,Net-(J9-Pad6)*
X133822440Y-76865480D03*
D18*
G04 #@! TO.N,SPB*
X140050440Y-98252280D03*
X142036800Y-98582480D03*
D17*
G04 #@! TO.N,SPI2_MOSI*
X145887440Y-89853538D03*
G04 #@! TO.N,SPI2_MISO*
X146801071Y-89823791D03*
G04 #@! TO.N,SPI2_SCK*
X147574000Y-93800000D03*
G04 #@! TO.N,ENABLE*
X132402377Y-85356497D03*
X145772793Y-82900499D03*
G04 #@! TO.N,PWM_C*
X129656198Y-88290400D03*
X147848320Y-82951320D03*
G04 #@! TO.N,PWM_B*
X130906199Y-87792560D03*
X147022793Y-82854800D03*
G04 #@! TO.N,PWM_A*
X132156200Y-87477600D03*
X146397793Y-83593071D03*
G04 #@! TO.N,SPI1_NSS*
X134782560Y-84785200D03*
X147157440Y-83987640D03*
G04 #@! TO.N,SOA*
X139126653Y-86623463D03*
X149098000Y-89209880D03*
G04 #@! TO.N,SOB*
X139624124Y-87249982D03*
X149989522Y-89217518D03*
G04 #@! TO.N,SOC*
X140226553Y-87776368D03*
X150750810Y-88837368D03*
G04 #@! TO.N,CAN1_RX*
X155647282Y-96742358D03*
X153857800Y-84705368D03*
G04 #@! TO.N,CAN1_TX*
X154970480Y-93720920D03*
X154482800Y-83947000D03*
G04 #@! TO.N,ENC_B*
X149909341Y-90957400D03*
G04 #@! TO.N,ENC_A*
X147950831Y-90858051D03*
G04 #@! TO.N,SPI2_NSS*
X145694400Y-92744151D03*
G04 #@! TD*
D20*
G04 #@! TO.N,BGND*
G36*
X162400645Y-76115314D02*
G01*
X162838634Y-76247551D01*
X163242586Y-76462337D01*
X163597132Y-76751497D01*
X163888757Y-77104012D01*
X164106363Y-77506465D01*
X164241652Y-77943513D01*
X164292679Y-78429004D01*
X164292681Y-115644914D01*
X164245500Y-116134118D01*
X164113680Y-116573256D01*
X163899073Y-116978429D01*
X163609858Y-117334197D01*
X163257041Y-117627020D01*
X162854073Y-117845734D01*
X162416297Y-117982013D01*
X161929903Y-118033918D01*
X158900399Y-118034204D01*
X158872555Y-118036949D01*
X158869550Y-118036928D01*
X158860379Y-118037828D01*
X158811116Y-118043006D01*
X158803436Y-118043763D01*
X158803183Y-118043840D01*
X158762764Y-118048088D01*
X158704190Y-118060111D01*
X158645406Y-118071325D01*
X158636584Y-118073989D01*
X158542821Y-118103014D01*
X158487677Y-118126195D01*
X158432220Y-118148600D01*
X158424083Y-118152927D01*
X158337744Y-118199610D01*
X158288185Y-118233038D01*
X158238092Y-118265817D01*
X158230951Y-118271641D01*
X158155323Y-118334207D01*
X158113187Y-118376638D01*
X158070435Y-118418503D01*
X158064561Y-118425604D01*
X158064557Y-118425608D01*
X158002525Y-118501667D01*
X157969431Y-118551478D01*
X157935624Y-118600851D01*
X157931241Y-118608957D01*
X157885161Y-118695621D01*
X157862361Y-118750939D01*
X157838800Y-118805910D01*
X157836075Y-118814714D01*
X157807706Y-118908678D01*
X157796083Y-118967380D01*
X157783651Y-119025867D01*
X157782688Y-119035032D01*
X157773110Y-119132715D01*
X157769960Y-119164702D01*
X157769960Y-121641890D01*
X157729939Y-121581994D01*
X157537026Y-121389081D01*
X157310183Y-121237509D01*
X157058129Y-121133105D01*
X156790551Y-121079880D01*
X156517729Y-121079880D01*
X156250151Y-121133105D01*
X155998097Y-121237509D01*
X155771254Y-121389081D01*
X155578341Y-121581994D01*
X155426769Y-121808837D01*
X155322365Y-122060891D01*
X155269140Y-122328469D01*
X155269140Y-122601291D01*
X155322365Y-122868869D01*
X155426769Y-123120923D01*
X155578341Y-123347766D01*
X155771254Y-123540679D01*
X155998097Y-123692251D01*
X156250151Y-123796655D01*
X156517729Y-123849880D01*
X156790551Y-123849880D01*
X157058129Y-123796655D01*
X157310183Y-123692251D01*
X157537026Y-123540679D01*
X157729939Y-123347766D01*
X157769961Y-123287870D01*
X157769961Y-124907440D01*
X130133960Y-124907440D01*
X130133960Y-123208012D01*
X130227341Y-123347766D01*
X130420254Y-123540679D01*
X130647097Y-123692251D01*
X130899151Y-123796655D01*
X131166729Y-123849880D01*
X131439551Y-123849880D01*
X131707129Y-123796655D01*
X131959183Y-123692251D01*
X132186026Y-123540679D01*
X132378939Y-123347766D01*
X132530511Y-123120923D01*
X132634915Y-122868869D01*
X132688140Y-122601291D01*
X132688140Y-122328469D01*
X140918140Y-122328469D01*
X140918140Y-122601291D01*
X140971365Y-122868869D01*
X141075769Y-123120923D01*
X141227341Y-123347766D01*
X141420254Y-123540679D01*
X141647097Y-123692251D01*
X141899151Y-123796655D01*
X142166729Y-123849880D01*
X142439551Y-123849880D01*
X142707129Y-123796655D01*
X142959183Y-123692251D01*
X143186026Y-123540679D01*
X143378939Y-123347766D01*
X143530511Y-123120923D01*
X143634915Y-122868869D01*
X143688140Y-122601291D01*
X143688140Y-122328469D01*
X144269140Y-122328469D01*
X144269140Y-122601291D01*
X144322365Y-122868869D01*
X144426769Y-123120923D01*
X144578341Y-123347766D01*
X144771254Y-123540679D01*
X144998097Y-123692251D01*
X145250151Y-123796655D01*
X145517729Y-123849880D01*
X145790551Y-123849880D01*
X146058129Y-123796655D01*
X146310183Y-123692251D01*
X146537026Y-123540679D01*
X146729939Y-123347766D01*
X146881511Y-123120923D01*
X146985915Y-122868869D01*
X147039140Y-122601291D01*
X147039140Y-122328469D01*
X146985915Y-122060891D01*
X146881511Y-121808837D01*
X146729939Y-121581994D01*
X146537026Y-121389081D01*
X146310183Y-121237509D01*
X146058129Y-121133105D01*
X145790551Y-121079880D01*
X145517729Y-121079880D01*
X145250151Y-121133105D01*
X144998097Y-121237509D01*
X144771254Y-121389081D01*
X144578341Y-121581994D01*
X144426769Y-121808837D01*
X144322365Y-122060891D01*
X144269140Y-122328469D01*
X143688140Y-122328469D01*
X143634915Y-122060891D01*
X143530511Y-121808837D01*
X143378939Y-121581994D01*
X143186026Y-121389081D01*
X142959183Y-121237509D01*
X142707129Y-121133105D01*
X142439551Y-121079880D01*
X142166729Y-121079880D01*
X141899151Y-121133105D01*
X141647097Y-121237509D01*
X141420254Y-121389081D01*
X141227341Y-121581994D01*
X141075769Y-121808837D01*
X140971365Y-122060891D01*
X140918140Y-122328469D01*
X132688140Y-122328469D01*
X132634915Y-122060891D01*
X132530511Y-121808837D01*
X132378939Y-121581994D01*
X132186026Y-121389081D01*
X131959183Y-121237509D01*
X131707129Y-121133105D01*
X131439551Y-121079880D01*
X131166729Y-121079880D01*
X130899151Y-121133105D01*
X130647097Y-121237509D01*
X130420254Y-121389081D01*
X130227341Y-121581994D01*
X130133960Y-121721748D01*
X130133960Y-119179941D01*
X130131211Y-119152030D01*
X130131232Y-119149030D01*
X130130332Y-119139859D01*
X130125254Y-119091544D01*
X130124410Y-119082977D01*
X130124323Y-119082691D01*
X130120072Y-119042244D01*
X130108049Y-118983670D01*
X130096835Y-118924886D01*
X130094171Y-118916064D01*
X130065146Y-118822301D01*
X130041965Y-118767157D01*
X130019560Y-118711700D01*
X130015233Y-118703563D01*
X129968550Y-118617224D01*
X129935122Y-118567665D01*
X129902343Y-118517572D01*
X129896519Y-118510431D01*
X129833953Y-118434803D01*
X129791522Y-118392667D01*
X129749657Y-118349915D01*
X129742556Y-118344041D01*
X129666493Y-118282005D01*
X129616682Y-118248911D01*
X129567309Y-118215104D01*
X129559203Y-118210721D01*
X129472539Y-118164641D01*
X129417221Y-118141841D01*
X129362250Y-118118280D01*
X129353446Y-118115555D01*
X129259482Y-118087186D01*
X129200780Y-118075563D01*
X129142293Y-118063131D01*
X129133128Y-118062168D01*
X129035445Y-118052590D01*
X129035442Y-118052590D01*
X129003459Y-118049440D01*
X125995959Y-118049440D01*
X125506385Y-118001437D01*
X125066507Y-117868630D01*
X124660797Y-117652911D01*
X124304724Y-117362504D01*
X124011832Y-117008460D01*
X123793288Y-116604271D01*
X123657413Y-116165333D01*
X123606160Y-115677689D01*
X123606160Y-110532322D01*
X128225840Y-110532322D01*
X128225840Y-110864238D01*
X128290594Y-111189776D01*
X128417612Y-111496427D01*
X128602015Y-111772405D01*
X128836715Y-112007105D01*
X129112693Y-112191508D01*
X129419344Y-112318526D01*
X129744882Y-112383280D01*
X130076798Y-112383280D01*
X130402336Y-112318526D01*
X130503166Y-112276761D01*
X132393140Y-112276761D01*
X132393140Y-112652999D01*
X132466540Y-113022007D01*
X132610520Y-113369604D01*
X132819546Y-113682434D01*
X133085586Y-113948474D01*
X133398416Y-114157500D01*
X133746013Y-114301480D01*
X134115021Y-114374880D01*
X134491259Y-114374880D01*
X134860267Y-114301480D01*
X135207864Y-114157500D01*
X135520694Y-113948474D01*
X135786734Y-113682434D01*
X135995760Y-113369604D01*
X136139740Y-113022007D01*
X136213140Y-112652999D01*
X136213140Y-112276761D01*
X136139740Y-111907753D01*
X135995760Y-111560156D01*
X135786734Y-111247326D01*
X135520694Y-110981286D01*
X135207864Y-110772260D01*
X134860267Y-110628280D01*
X134491259Y-110554880D01*
X134115021Y-110554880D01*
X133746013Y-110628280D01*
X133398416Y-110772260D01*
X133085586Y-110981286D01*
X132819546Y-111247326D01*
X132610520Y-111560156D01*
X132466540Y-111907753D01*
X132393140Y-112276761D01*
X130503166Y-112276761D01*
X130708987Y-112191508D01*
X130984965Y-112007105D01*
X131219665Y-111772405D01*
X131404068Y-111496427D01*
X131531086Y-111189776D01*
X131595840Y-110864238D01*
X131595840Y-110532322D01*
X142272040Y-110532322D01*
X142272040Y-110864238D01*
X142336794Y-111189776D01*
X142463812Y-111496427D01*
X142648215Y-111772405D01*
X142882915Y-112007105D01*
X143158893Y-112191508D01*
X143465544Y-112318526D01*
X143791082Y-112383280D01*
X144122998Y-112383280D01*
X144448536Y-112318526D01*
X144549366Y-112276761D01*
X146744140Y-112276761D01*
X146744140Y-112652999D01*
X146817540Y-113022007D01*
X146961520Y-113369604D01*
X147170546Y-113682434D01*
X147436586Y-113948474D01*
X147749416Y-114157500D01*
X148097013Y-114301480D01*
X148466021Y-114374880D01*
X148842259Y-114374880D01*
X149211267Y-114301480D01*
X149558864Y-114157500D01*
X149871694Y-113948474D01*
X150137734Y-113682434D01*
X150346760Y-113369604D01*
X150490740Y-113022007D01*
X150564140Y-112652999D01*
X150564140Y-112276761D01*
X150490740Y-111907753D01*
X150346760Y-111560156D01*
X150137734Y-111247326D01*
X149871694Y-110981286D01*
X149558864Y-110772260D01*
X149211267Y-110628280D01*
X148842259Y-110554880D01*
X148466021Y-110554880D01*
X148097013Y-110628280D01*
X147749416Y-110772260D01*
X147436586Y-110981286D01*
X147170546Y-111247326D01*
X146961520Y-111560156D01*
X146817540Y-111907753D01*
X146744140Y-112276761D01*
X144549366Y-112276761D01*
X144755187Y-112191508D01*
X145031165Y-112007105D01*
X145265865Y-111772405D01*
X145450268Y-111496427D01*
X145577286Y-111189776D01*
X145642040Y-110864238D01*
X145642040Y-110532322D01*
X156292840Y-110532322D01*
X156292840Y-110864238D01*
X156357594Y-111189776D01*
X156484612Y-111496427D01*
X156669015Y-111772405D01*
X156903715Y-112007105D01*
X157179693Y-112191508D01*
X157486344Y-112318526D01*
X157811882Y-112383280D01*
X158143798Y-112383280D01*
X158469336Y-112318526D01*
X158775987Y-112191508D01*
X159051965Y-112007105D01*
X159286665Y-111772405D01*
X159471068Y-111496427D01*
X159598086Y-111189776D01*
X159662840Y-110864238D01*
X159662840Y-110677577D01*
X161384950Y-110677577D01*
X161384950Y-110881455D01*
X161424724Y-111081414D01*
X161502745Y-111269772D01*
X161616013Y-111439290D01*
X161760176Y-111583453D01*
X161929694Y-111696721D01*
X162118052Y-111774742D01*
X162318011Y-111814516D01*
X162521889Y-111814516D01*
X162721848Y-111774742D01*
X162910206Y-111696721D01*
X163079724Y-111583453D01*
X163223887Y-111439290D01*
X163337155Y-111269772D01*
X163415176Y-111081414D01*
X163454950Y-110881455D01*
X163454950Y-110677577D01*
X163415176Y-110477618D01*
X163337155Y-110289260D01*
X163223887Y-110119742D01*
X163079724Y-109975579D01*
X162910206Y-109862311D01*
X162721848Y-109784290D01*
X162521889Y-109744516D01*
X162318011Y-109744516D01*
X162118052Y-109784290D01*
X161929694Y-109862311D01*
X161760176Y-109975579D01*
X161616013Y-110119742D01*
X161502745Y-110289260D01*
X161424724Y-110477618D01*
X161384950Y-110677577D01*
X159662840Y-110677577D01*
X159662840Y-110532322D01*
X159598086Y-110206784D01*
X159471068Y-109900133D01*
X159286665Y-109624155D01*
X159051965Y-109389455D01*
X158775987Y-109205052D01*
X158469336Y-109078034D01*
X158143798Y-109013280D01*
X157811882Y-109013280D01*
X157486344Y-109078034D01*
X157179693Y-109205052D01*
X156903715Y-109389455D01*
X156669015Y-109624155D01*
X156484612Y-109900133D01*
X156357594Y-110206784D01*
X156292840Y-110532322D01*
X145642040Y-110532322D01*
X145577286Y-110206784D01*
X145450268Y-109900133D01*
X145265865Y-109624155D01*
X145031165Y-109389455D01*
X144755187Y-109205052D01*
X144448536Y-109078034D01*
X144122998Y-109013280D01*
X143791082Y-109013280D01*
X143465544Y-109078034D01*
X143158893Y-109205052D01*
X142882915Y-109389455D01*
X142648215Y-109624155D01*
X142463812Y-109900133D01*
X142336794Y-110206784D01*
X142272040Y-110532322D01*
X131595840Y-110532322D01*
X131531086Y-110206784D01*
X131404068Y-109900133D01*
X131219665Y-109624155D01*
X130984965Y-109389455D01*
X130708987Y-109205052D01*
X130402336Y-109078034D01*
X130076798Y-109013280D01*
X129744882Y-109013280D01*
X129419344Y-109078034D01*
X129112693Y-109205052D01*
X128836715Y-109389455D01*
X128602015Y-109624155D01*
X128417612Y-109900133D01*
X128290594Y-110206784D01*
X128225840Y-110532322D01*
X123606160Y-110532322D01*
X123606160Y-108178261D01*
X123856800Y-108178261D01*
X123856800Y-108382139D01*
X123896574Y-108582098D01*
X123974595Y-108770456D01*
X124087863Y-108939974D01*
X124232026Y-109084137D01*
X124401544Y-109197405D01*
X124589902Y-109275426D01*
X124789861Y-109315200D01*
X124993739Y-109315200D01*
X125193698Y-109275426D01*
X125382056Y-109197405D01*
X125551574Y-109084137D01*
X125695737Y-108939974D01*
X125809005Y-108770456D01*
X125887026Y-108582098D01*
X125887722Y-108578600D01*
X125984339Y-108578600D01*
X126184298Y-108538826D01*
X126372656Y-108460805D01*
X126542174Y-108347537D01*
X126686337Y-108203374D01*
X126799605Y-108033856D01*
X126877626Y-107845498D01*
X126917400Y-107645539D01*
X126917400Y-107441661D01*
X126907296Y-107390861D01*
X161384950Y-107390861D01*
X161384950Y-107594739D01*
X161424724Y-107794698D01*
X161502745Y-107983056D01*
X161616013Y-108152574D01*
X161760176Y-108296737D01*
X161929694Y-108410005D01*
X162118052Y-108488026D01*
X162318011Y-108527800D01*
X162521889Y-108527800D01*
X162721848Y-108488026D01*
X162910206Y-108410005D01*
X163079724Y-108296737D01*
X163223887Y-108152574D01*
X163337155Y-107983056D01*
X163415176Y-107794698D01*
X163454950Y-107594739D01*
X163454950Y-107390861D01*
X163415176Y-107190902D01*
X163337155Y-107002544D01*
X163223887Y-106833026D01*
X163079724Y-106688863D01*
X162910206Y-106575595D01*
X162721848Y-106497574D01*
X162521889Y-106457800D01*
X162318011Y-106457800D01*
X162118052Y-106497574D01*
X161929694Y-106575595D01*
X161760176Y-106688863D01*
X161616013Y-106833026D01*
X161502745Y-107002544D01*
X161424724Y-107190902D01*
X161384950Y-107390861D01*
X126907296Y-107390861D01*
X126877626Y-107241702D01*
X126799605Y-107053344D01*
X126686337Y-106883826D01*
X126542174Y-106739663D01*
X126372656Y-106626395D01*
X126184298Y-106548374D01*
X125984339Y-106508600D01*
X125780461Y-106508600D01*
X125580502Y-106548374D01*
X125392144Y-106626395D01*
X125222626Y-106739663D01*
X125078463Y-106883826D01*
X124965195Y-107053344D01*
X124887174Y-107241702D01*
X124886478Y-107245200D01*
X124789861Y-107245200D01*
X124589902Y-107284974D01*
X124401544Y-107362995D01*
X124232026Y-107476263D01*
X124087863Y-107620426D01*
X123974595Y-107789944D01*
X123896574Y-107978302D01*
X123856800Y-108178261D01*
X123606160Y-108178261D01*
X123606160Y-103082711D01*
X126674600Y-103082711D01*
X126674600Y-103266889D01*
X126710532Y-103447529D01*
X126771160Y-103593900D01*
X126710532Y-103740271D01*
X126674600Y-103920911D01*
X126674600Y-104105089D01*
X126710532Y-104285729D01*
X126781014Y-104455889D01*
X126824520Y-104521000D01*
X126781014Y-104586111D01*
X126710532Y-104756271D01*
X126674600Y-104936911D01*
X126674600Y-105121089D01*
X126710532Y-105301729D01*
X126781014Y-105471889D01*
X126799062Y-105498900D01*
X126781014Y-105525911D01*
X126710532Y-105696071D01*
X126674600Y-105876711D01*
X126674600Y-106060889D01*
X126710532Y-106241529D01*
X126781014Y-106411689D01*
X126883338Y-106564828D01*
X127013572Y-106695062D01*
X127166711Y-106797386D01*
X127336871Y-106867868D01*
X127517511Y-106903800D01*
X127701689Y-106903800D01*
X127882329Y-106867868D01*
X128052489Y-106797386D01*
X128117600Y-106753880D01*
X128182711Y-106797386D01*
X128352871Y-106867868D01*
X128533511Y-106903800D01*
X128717689Y-106903800D01*
X128898329Y-106867868D01*
X129068489Y-106797386D01*
X129133600Y-106753880D01*
X129198711Y-106797386D01*
X129368871Y-106867868D01*
X129549511Y-106903800D01*
X129733689Y-106903800D01*
X129914329Y-106867868D01*
X130084489Y-106797386D01*
X130149600Y-106753880D01*
X130214711Y-106797386D01*
X130384871Y-106867868D01*
X130565511Y-106903800D01*
X130749689Y-106903800D01*
X130930329Y-106867868D01*
X131100489Y-106797386D01*
X131253628Y-106695062D01*
X131383862Y-106564828D01*
X131486186Y-106411689D01*
X131556668Y-106241529D01*
X131592600Y-106060889D01*
X131592600Y-105876711D01*
X131556668Y-105696071D01*
X131486186Y-105525911D01*
X131468138Y-105498900D01*
X131486186Y-105471889D01*
X131556668Y-105301729D01*
X131592600Y-105121089D01*
X131592600Y-104936911D01*
X131556668Y-104756271D01*
X131486186Y-104586111D01*
X131442680Y-104521000D01*
X131486186Y-104455889D01*
X131556668Y-104285729D01*
X131592600Y-104105089D01*
X131592600Y-103920911D01*
X131556668Y-103740271D01*
X131496040Y-103593900D01*
X131556668Y-103447529D01*
X131592600Y-103266889D01*
X131592600Y-103082711D01*
X131587548Y-103057311D01*
X144302200Y-103057311D01*
X144302200Y-103241489D01*
X144338132Y-103422129D01*
X144398760Y-103568500D01*
X144338132Y-103714871D01*
X144302200Y-103895511D01*
X144302200Y-104079689D01*
X144338132Y-104260329D01*
X144408614Y-104430489D01*
X144452120Y-104495600D01*
X144408614Y-104560711D01*
X144338132Y-104730871D01*
X144302200Y-104911511D01*
X144302200Y-105095689D01*
X144338132Y-105276329D01*
X144408614Y-105446489D01*
X144426662Y-105473500D01*
X144408614Y-105500511D01*
X144338132Y-105670671D01*
X144302200Y-105851311D01*
X144302200Y-106035489D01*
X144338132Y-106216129D01*
X144408614Y-106386289D01*
X144510938Y-106539428D01*
X144641172Y-106669662D01*
X144794311Y-106771986D01*
X144964471Y-106842468D01*
X145145111Y-106878400D01*
X145329289Y-106878400D01*
X145509929Y-106842468D01*
X145680089Y-106771986D01*
X145745200Y-106728480D01*
X145810311Y-106771986D01*
X145980471Y-106842468D01*
X146161111Y-106878400D01*
X146345289Y-106878400D01*
X146525929Y-106842468D01*
X146696089Y-106771986D01*
X146761200Y-106728480D01*
X146826311Y-106771986D01*
X146996471Y-106842468D01*
X147177111Y-106878400D01*
X147361289Y-106878400D01*
X147541929Y-106842468D01*
X147712089Y-106771986D01*
X147777200Y-106728480D01*
X147842311Y-106771986D01*
X148012471Y-106842468D01*
X148193111Y-106878400D01*
X148377289Y-106878400D01*
X148557929Y-106842468D01*
X148728089Y-106771986D01*
X148881228Y-106669662D01*
X149011462Y-106539428D01*
X149113786Y-106386289D01*
X149184268Y-106216129D01*
X149220200Y-106035489D01*
X149220200Y-105851311D01*
X149184268Y-105670671D01*
X149113786Y-105500511D01*
X149095738Y-105473500D01*
X149113786Y-105446489D01*
X149184268Y-105276329D01*
X149220200Y-105095689D01*
X149220200Y-104911511D01*
X149184268Y-104730871D01*
X149113786Y-104560711D01*
X149070280Y-104495600D01*
X149113786Y-104430489D01*
X149184268Y-104260329D01*
X149220200Y-104079689D01*
X149220200Y-103895511D01*
X149184268Y-103714871D01*
X149123640Y-103568500D01*
X149184268Y-103422129D01*
X149220200Y-103241489D01*
X149220200Y-103057311D01*
X150042600Y-103057311D01*
X150042600Y-103241489D01*
X150078532Y-103422129D01*
X150139160Y-103568500D01*
X150078532Y-103714871D01*
X150042600Y-103895511D01*
X150042600Y-104079689D01*
X150078532Y-104260329D01*
X150149014Y-104430489D01*
X150192520Y-104495600D01*
X150149014Y-104560711D01*
X150078532Y-104730871D01*
X150042600Y-104911511D01*
X150042600Y-105095689D01*
X150078532Y-105276329D01*
X150149014Y-105446489D01*
X150167062Y-105473500D01*
X150149014Y-105500511D01*
X150078532Y-105670671D01*
X150042600Y-105851311D01*
X150042600Y-106035489D01*
X150078532Y-106216129D01*
X150149014Y-106386289D01*
X150251338Y-106539428D01*
X150381572Y-106669662D01*
X150534711Y-106771986D01*
X150704871Y-106842468D01*
X150885511Y-106878400D01*
X151069689Y-106878400D01*
X151250329Y-106842468D01*
X151420489Y-106771986D01*
X151485600Y-106728480D01*
X151550711Y-106771986D01*
X151720871Y-106842468D01*
X151901511Y-106878400D01*
X152085689Y-106878400D01*
X152266329Y-106842468D01*
X152436489Y-106771986D01*
X152501600Y-106728480D01*
X152566711Y-106771986D01*
X152736871Y-106842468D01*
X152917511Y-106878400D01*
X153101689Y-106878400D01*
X153282329Y-106842468D01*
X153452489Y-106771986D01*
X153517600Y-106728480D01*
X153582711Y-106771986D01*
X153752871Y-106842468D01*
X153933511Y-106878400D01*
X154117689Y-106878400D01*
X154298329Y-106842468D01*
X154468489Y-106771986D01*
X154621628Y-106669662D01*
X154751862Y-106539428D01*
X154854186Y-106386289D01*
X154924668Y-106216129D01*
X154960600Y-106035489D01*
X154960600Y-105851311D01*
X154924668Y-105670671D01*
X154854186Y-105500511D01*
X154836138Y-105473500D01*
X154854186Y-105446489D01*
X154924668Y-105276329D01*
X154960600Y-105095689D01*
X154960600Y-104911511D01*
X154924668Y-104730871D01*
X154854186Y-104560711D01*
X154810680Y-104495600D01*
X154854186Y-104430489D01*
X154924668Y-104260329D01*
X154960600Y-104079689D01*
X154960600Y-103895511D01*
X154924668Y-103714871D01*
X154864040Y-103568500D01*
X154924668Y-103422129D01*
X154960600Y-103241489D01*
X154960600Y-103057311D01*
X154924668Y-102876671D01*
X154854186Y-102706511D01*
X154751862Y-102553372D01*
X154621628Y-102423138D01*
X154468489Y-102320814D01*
X154298329Y-102250332D01*
X154117689Y-102214400D01*
X153933511Y-102214400D01*
X153752871Y-102250332D01*
X153582711Y-102320814D01*
X153517600Y-102364320D01*
X153452489Y-102320814D01*
X153282329Y-102250332D01*
X153101689Y-102214400D01*
X152917511Y-102214400D01*
X152736871Y-102250332D01*
X152566711Y-102320814D01*
X152501600Y-102364320D01*
X152436489Y-102320814D01*
X152266329Y-102250332D01*
X152085689Y-102214400D01*
X151901511Y-102214400D01*
X151720871Y-102250332D01*
X151550711Y-102320814D01*
X151485600Y-102364320D01*
X151420489Y-102320814D01*
X151250329Y-102250332D01*
X151069689Y-102214400D01*
X150885511Y-102214400D01*
X150704871Y-102250332D01*
X150534711Y-102320814D01*
X150381572Y-102423138D01*
X150251338Y-102553372D01*
X150149014Y-102706511D01*
X150078532Y-102876671D01*
X150042600Y-103057311D01*
X149220200Y-103057311D01*
X149184268Y-102876671D01*
X149113786Y-102706511D01*
X149011462Y-102553372D01*
X148881228Y-102423138D01*
X148728089Y-102320814D01*
X148557929Y-102250332D01*
X148377289Y-102214400D01*
X148193111Y-102214400D01*
X148012471Y-102250332D01*
X147842311Y-102320814D01*
X147777200Y-102364320D01*
X147712089Y-102320814D01*
X147541929Y-102250332D01*
X147361289Y-102214400D01*
X147177111Y-102214400D01*
X146996471Y-102250332D01*
X146826311Y-102320814D01*
X146761200Y-102364320D01*
X146696089Y-102320814D01*
X146525929Y-102250332D01*
X146345289Y-102214400D01*
X146161111Y-102214400D01*
X145980471Y-102250332D01*
X145810311Y-102320814D01*
X145745200Y-102364320D01*
X145680089Y-102320814D01*
X145509929Y-102250332D01*
X145329289Y-102214400D01*
X145145111Y-102214400D01*
X144964471Y-102250332D01*
X144794311Y-102320814D01*
X144641172Y-102423138D01*
X144510938Y-102553372D01*
X144408614Y-102706511D01*
X144338132Y-102876671D01*
X144302200Y-103057311D01*
X131587548Y-103057311D01*
X131556668Y-102902071D01*
X131486186Y-102731911D01*
X131383862Y-102578772D01*
X131253628Y-102448538D01*
X131100489Y-102346214D01*
X130930329Y-102275732D01*
X130749689Y-102239800D01*
X130565511Y-102239800D01*
X130384871Y-102275732D01*
X130214711Y-102346214D01*
X130149600Y-102389720D01*
X130084489Y-102346214D01*
X129914329Y-102275732D01*
X129733689Y-102239800D01*
X129549511Y-102239800D01*
X129368871Y-102275732D01*
X129198711Y-102346214D01*
X129133600Y-102389720D01*
X129068489Y-102346214D01*
X128898329Y-102275732D01*
X128717689Y-102239800D01*
X128533511Y-102239800D01*
X128352871Y-102275732D01*
X128182711Y-102346214D01*
X128117600Y-102389720D01*
X128052489Y-102346214D01*
X127882329Y-102275732D01*
X127701689Y-102239800D01*
X127517511Y-102239800D01*
X127336871Y-102275732D01*
X127166711Y-102346214D01*
X127013572Y-102448538D01*
X126883338Y-102578772D01*
X126781014Y-102731911D01*
X126710532Y-102902071D01*
X126674600Y-103082711D01*
X123606160Y-103082711D01*
X123606160Y-101371061D01*
X123856800Y-101371061D01*
X123856800Y-101574939D01*
X123896574Y-101774898D01*
X123974595Y-101963256D01*
X124087863Y-102132774D01*
X124232026Y-102276937D01*
X124401544Y-102390205D01*
X124589902Y-102468226D01*
X124789861Y-102508000D01*
X124993739Y-102508000D01*
X125193698Y-102468226D01*
X125382056Y-102390205D01*
X125551574Y-102276937D01*
X125695737Y-102132774D01*
X125809005Y-101963256D01*
X125856912Y-101847600D01*
X126035139Y-101847600D01*
X126235098Y-101807826D01*
X126423456Y-101729805D01*
X126592974Y-101616537D01*
X126737137Y-101472374D01*
X126850405Y-101302856D01*
X126884002Y-101221747D01*
X126932663Y-101294574D01*
X127076826Y-101438737D01*
X127246344Y-101552005D01*
X127434702Y-101630026D01*
X127634661Y-101669800D01*
X127838539Y-101669800D01*
X128038498Y-101630026D01*
X128226856Y-101552005D01*
X128396374Y-101438737D01*
X128540537Y-101294574D01*
X128653805Y-101125056D01*
X128731826Y-100936698D01*
X128759000Y-100800084D01*
X128759000Y-100812939D01*
X128798774Y-101012898D01*
X128876795Y-101201256D01*
X128990063Y-101370774D01*
X129134226Y-101514937D01*
X129303744Y-101628205D01*
X129492102Y-101706226D01*
X129692061Y-101746000D01*
X129895939Y-101746000D01*
X130095898Y-101706226D01*
X130284256Y-101628205D01*
X130453774Y-101514937D01*
X130597937Y-101370774D01*
X130711205Y-101201256D01*
X130789226Y-101012898D01*
X130829000Y-100812939D01*
X130829000Y-100609061D01*
X130823948Y-100583661D01*
X143745000Y-100583661D01*
X143745000Y-100787539D01*
X143784774Y-100987498D01*
X143862795Y-101175856D01*
X143976063Y-101345374D01*
X144120226Y-101489537D01*
X144289744Y-101602805D01*
X144478102Y-101680826D01*
X144678061Y-101720600D01*
X144881939Y-101720600D01*
X145081898Y-101680826D01*
X145270256Y-101602805D01*
X145439774Y-101489537D01*
X145583937Y-101345374D01*
X145663958Y-101225614D01*
X145716995Y-101353656D01*
X145830263Y-101523174D01*
X145974426Y-101667337D01*
X146143944Y-101780605D01*
X146332302Y-101858626D01*
X146532261Y-101898400D01*
X146736139Y-101898400D01*
X146936098Y-101858626D01*
X147124456Y-101780605D01*
X147293974Y-101667337D01*
X147438137Y-101523174D01*
X147551405Y-101353656D01*
X147591961Y-101255747D01*
X147621995Y-101328256D01*
X147735263Y-101497774D01*
X147879426Y-101641937D01*
X148048944Y-101755205D01*
X148237302Y-101833226D01*
X148437261Y-101873000D01*
X148641139Y-101873000D01*
X148841098Y-101833226D01*
X149029456Y-101755205D01*
X149198974Y-101641937D01*
X149343137Y-101497774D01*
X149456405Y-101328256D01*
X149534426Y-101139898D01*
X149574200Y-100939939D01*
X149574200Y-100761461D01*
X150349000Y-100761461D01*
X150349000Y-100965339D01*
X150388774Y-101165298D01*
X150466795Y-101353656D01*
X150580063Y-101523174D01*
X150724226Y-101667337D01*
X150893744Y-101780605D01*
X151082102Y-101858626D01*
X151282061Y-101898400D01*
X151485939Y-101898400D01*
X151685898Y-101858626D01*
X151874256Y-101780605D01*
X152043774Y-101667337D01*
X152187937Y-101523174D01*
X152301205Y-101353656D01*
X152379226Y-101165298D01*
X152419000Y-100965339D01*
X152419000Y-100761461D01*
X152413948Y-100736061D01*
X152457200Y-100736061D01*
X152457200Y-100939939D01*
X152496974Y-101139898D01*
X152574995Y-101328256D01*
X152688263Y-101497774D01*
X152832426Y-101641937D01*
X153001944Y-101755205D01*
X153190302Y-101833226D01*
X153390261Y-101873000D01*
X153594139Y-101873000D01*
X153794098Y-101833226D01*
X153982456Y-101755205D01*
X154151974Y-101641937D01*
X154296137Y-101497774D01*
X154409405Y-101328256D01*
X154487426Y-101139898D01*
X154527200Y-100939939D01*
X154527200Y-100736061D01*
X154487426Y-100536102D01*
X154444000Y-100431261D01*
X159498080Y-100431261D01*
X159498080Y-100635139D01*
X159537854Y-100835098D01*
X159615875Y-101023456D01*
X159729143Y-101192974D01*
X159873306Y-101337137D01*
X160042824Y-101450405D01*
X160231182Y-101528426D01*
X160431141Y-101568200D01*
X160509000Y-101568200D01*
X160509000Y-101651139D01*
X160548774Y-101851098D01*
X160626795Y-102039456D01*
X160740063Y-102208974D01*
X160884226Y-102353137D01*
X161053744Y-102466405D01*
X161242102Y-102544426D01*
X161442061Y-102584200D01*
X161645939Y-102584200D01*
X161845898Y-102544426D01*
X162034256Y-102466405D01*
X162203774Y-102353137D01*
X162347937Y-102208974D01*
X162461205Y-102039456D01*
X162530896Y-101871208D01*
X162721848Y-101833226D01*
X162910206Y-101755205D01*
X163079724Y-101641937D01*
X163223887Y-101497774D01*
X163337155Y-101328256D01*
X163415176Y-101139898D01*
X163454950Y-100939939D01*
X163454950Y-100736061D01*
X163415176Y-100536102D01*
X163337155Y-100347744D01*
X163223887Y-100178226D01*
X163079724Y-100034063D01*
X162910206Y-99920795D01*
X162721848Y-99842774D01*
X162521889Y-99803000D01*
X162318011Y-99803000D01*
X162118052Y-99842774D01*
X161929694Y-99920795D01*
X161760176Y-100034063D01*
X161616013Y-100178226D01*
X161540291Y-100291553D01*
X161528306Y-100231302D01*
X161450285Y-100042944D01*
X161337017Y-99873426D01*
X161192854Y-99729263D01*
X161023336Y-99615995D01*
X160834978Y-99537974D01*
X160635019Y-99498200D01*
X160431141Y-99498200D01*
X160231182Y-99537974D01*
X160042824Y-99615995D01*
X159873306Y-99729263D01*
X159729143Y-99873426D01*
X159615875Y-100042944D01*
X159537854Y-100231302D01*
X159498080Y-100431261D01*
X154444000Y-100431261D01*
X154409405Y-100347744D01*
X154296137Y-100178226D01*
X154151974Y-100034063D01*
X153982456Y-99920795D01*
X153794098Y-99842774D01*
X153594139Y-99803000D01*
X153390261Y-99803000D01*
X153190302Y-99842774D01*
X153001944Y-99920795D01*
X152832426Y-100034063D01*
X152688263Y-100178226D01*
X152574995Y-100347744D01*
X152496974Y-100536102D01*
X152457200Y-100736061D01*
X152413948Y-100736061D01*
X152379226Y-100561502D01*
X152301205Y-100373144D01*
X152187937Y-100203626D01*
X152043774Y-100059463D01*
X151874256Y-99946195D01*
X151685898Y-99868174D01*
X151485939Y-99828400D01*
X151282061Y-99828400D01*
X151082102Y-99868174D01*
X150893744Y-99946195D01*
X150724226Y-100059463D01*
X150580063Y-100203626D01*
X150466795Y-100373144D01*
X150388774Y-100561502D01*
X150349000Y-100761461D01*
X149574200Y-100761461D01*
X149574200Y-100736061D01*
X149534426Y-100536102D01*
X149456405Y-100347744D01*
X149343137Y-100178226D01*
X149198974Y-100034063D01*
X149029456Y-99920795D01*
X148841098Y-99842774D01*
X148641139Y-99803000D01*
X148437261Y-99803000D01*
X148237302Y-99842774D01*
X148048944Y-99920795D01*
X147879426Y-100034063D01*
X147735263Y-100178226D01*
X147621995Y-100347744D01*
X147581439Y-100445653D01*
X147551405Y-100373144D01*
X147438137Y-100203626D01*
X147293974Y-100059463D01*
X147124456Y-99946195D01*
X146936098Y-99868174D01*
X146736139Y-99828400D01*
X146532261Y-99828400D01*
X146332302Y-99868174D01*
X146143944Y-99946195D01*
X145974426Y-100059463D01*
X145830263Y-100203626D01*
X145750242Y-100323386D01*
X145697205Y-100195344D01*
X145583937Y-100025826D01*
X145439774Y-99881663D01*
X145270256Y-99768395D01*
X145081898Y-99690374D01*
X144881939Y-99650600D01*
X144678061Y-99650600D01*
X144478102Y-99690374D01*
X144289744Y-99768395D01*
X144120226Y-99881663D01*
X143976063Y-100025826D01*
X143862795Y-100195344D01*
X143784774Y-100383702D01*
X143745000Y-100583661D01*
X130823948Y-100583661D01*
X130789226Y-100409102D01*
X130711205Y-100220744D01*
X130597937Y-100051226D01*
X130453774Y-99907063D01*
X130284256Y-99793795D01*
X130095898Y-99715774D01*
X129895939Y-99676000D01*
X129692061Y-99676000D01*
X129492102Y-99715774D01*
X129303744Y-99793795D01*
X129134226Y-99907063D01*
X128990063Y-100051226D01*
X128876795Y-100220744D01*
X128798774Y-100409102D01*
X128771600Y-100545716D01*
X128771600Y-100532861D01*
X128731826Y-100332902D01*
X128653805Y-100144544D01*
X128540537Y-99975026D01*
X128396374Y-99830863D01*
X128226856Y-99717595D01*
X128038498Y-99639574D01*
X127838539Y-99599800D01*
X127634661Y-99599800D01*
X127434702Y-99639574D01*
X127246344Y-99717595D01*
X127076826Y-99830863D01*
X126932663Y-99975026D01*
X126819395Y-100144544D01*
X126785798Y-100225653D01*
X126737137Y-100152826D01*
X126592974Y-100008663D01*
X126423456Y-99895395D01*
X126235098Y-99817374D01*
X126035139Y-99777600D01*
X125831261Y-99777600D01*
X125631302Y-99817374D01*
X125442944Y-99895395D01*
X125273426Y-100008663D01*
X125129263Y-100152826D01*
X125015995Y-100322344D01*
X124968088Y-100438000D01*
X124789861Y-100438000D01*
X124589902Y-100477774D01*
X124401544Y-100555795D01*
X124232026Y-100669063D01*
X124087863Y-100813226D01*
X123974595Y-100982744D01*
X123896574Y-101171102D01*
X123856800Y-101371061D01*
X123606160Y-101371061D01*
X123606160Y-98150341D01*
X139015440Y-98150341D01*
X139015440Y-98354219D01*
X139055214Y-98554178D01*
X139133235Y-98742536D01*
X139246503Y-98912054D01*
X139390666Y-99056217D01*
X139560184Y-99169485D01*
X139748542Y-99247506D01*
X139948501Y-99287280D01*
X140152379Y-99287280D01*
X140352338Y-99247506D01*
X140540696Y-99169485D01*
X140710214Y-99056217D01*
X140854377Y-98912054D01*
X140967645Y-98742536D01*
X141001800Y-98660079D01*
X141001800Y-98684419D01*
X141041574Y-98884378D01*
X141119595Y-99072736D01*
X141232863Y-99242254D01*
X141377026Y-99386417D01*
X141546544Y-99499685D01*
X141734902Y-99577706D01*
X141934861Y-99617480D01*
X142138739Y-99617480D01*
X142338698Y-99577706D01*
X142527056Y-99499685D01*
X142696574Y-99386417D01*
X142840737Y-99242254D01*
X142954005Y-99072736D01*
X143032026Y-98884378D01*
X143041484Y-98836827D01*
X143178871Y-98928626D01*
X143349031Y-98999108D01*
X143529671Y-99035040D01*
X143713849Y-99035040D01*
X143894489Y-98999108D01*
X144064649Y-98928626D01*
X144217788Y-98826302D01*
X144348022Y-98696068D01*
X144450346Y-98542929D01*
X144520828Y-98372769D01*
X144556760Y-98192129D01*
X144556760Y-98007951D01*
X144520828Y-97827311D01*
X144450346Y-97657151D01*
X144348022Y-97504012D01*
X144217788Y-97373778D01*
X144064649Y-97271454D01*
X143894489Y-97200972D01*
X143713849Y-97165040D01*
X143529671Y-97165040D01*
X143349031Y-97200972D01*
X143178871Y-97271454D01*
X143025732Y-97373778D01*
X142895498Y-97504012D01*
X142793174Y-97657151D01*
X142729326Y-97811295D01*
X142696574Y-97778543D01*
X142527056Y-97665275D01*
X142338698Y-97587254D01*
X142138739Y-97547480D01*
X141934861Y-97547480D01*
X141734902Y-97587254D01*
X141546544Y-97665275D01*
X141377026Y-97778543D01*
X141232863Y-97922706D01*
X141119595Y-98092224D01*
X141085440Y-98174681D01*
X141085440Y-98150341D01*
X141045666Y-97950382D01*
X140967645Y-97762024D01*
X140854377Y-97592506D01*
X140710214Y-97448343D01*
X140540696Y-97335075D01*
X140352338Y-97257054D01*
X140152379Y-97217280D01*
X139948501Y-97217280D01*
X139748542Y-97257054D01*
X139560184Y-97335075D01*
X139390666Y-97448343D01*
X139246503Y-97592506D01*
X139133235Y-97762024D01*
X139055214Y-97950382D01*
X139015440Y-98150341D01*
X123606160Y-98150341D01*
X123606160Y-95173461D01*
X124822000Y-95173461D01*
X124822000Y-95377339D01*
X124861774Y-95577298D01*
X124939795Y-95765656D01*
X125053063Y-95935174D01*
X125197226Y-96079337D01*
X125366744Y-96192605D01*
X125555102Y-96270626D01*
X125755061Y-96310400D01*
X125958939Y-96310400D01*
X126158898Y-96270626D01*
X126347256Y-96192605D01*
X126516774Y-96079337D01*
X126660937Y-95935174D01*
X126774205Y-95765656D01*
X126788166Y-95731951D01*
X128584680Y-95731951D01*
X128584680Y-95916129D01*
X128620612Y-96096769D01*
X128691094Y-96266929D01*
X128793418Y-96420068D01*
X128923652Y-96550302D01*
X129076791Y-96652626D01*
X129246951Y-96723108D01*
X129427591Y-96759040D01*
X129611769Y-96759040D01*
X129792409Y-96723108D01*
X129962569Y-96652626D01*
X129966096Y-96650269D01*
X154712282Y-96650269D01*
X154712282Y-96834447D01*
X154748214Y-97015087D01*
X154818696Y-97185247D01*
X154921020Y-97338386D01*
X155051254Y-97468620D01*
X155204393Y-97570944D01*
X155374553Y-97641426D01*
X155555193Y-97677358D01*
X155739371Y-97677358D01*
X155920011Y-97641426D01*
X156090171Y-97570944D01*
X156243310Y-97468620D01*
X156373544Y-97338386D01*
X156475868Y-97185247D01*
X156546350Y-97015087D01*
X156582282Y-96834447D01*
X156582282Y-96650269D01*
X156546350Y-96469629D01*
X156475868Y-96299469D01*
X156373544Y-96146330D01*
X156243310Y-96016096D01*
X156090171Y-95913772D01*
X155920011Y-95843290D01*
X155739371Y-95807358D01*
X155555193Y-95807358D01*
X155374553Y-95843290D01*
X155204393Y-95913772D01*
X155051254Y-96016096D01*
X154921020Y-96146330D01*
X154818696Y-96299469D01*
X154748214Y-96469629D01*
X154712282Y-96650269D01*
X129966096Y-96650269D01*
X130115708Y-96550302D01*
X130245942Y-96420068D01*
X130348266Y-96266929D01*
X130418748Y-96096769D01*
X130454680Y-95916129D01*
X130454680Y-95731951D01*
X130418748Y-95551311D01*
X130348266Y-95381151D01*
X130341823Y-95371509D01*
X130493449Y-95341348D01*
X130663609Y-95270866D01*
X130816748Y-95168542D01*
X130878179Y-95107111D01*
X134929600Y-95107111D01*
X134929600Y-95291289D01*
X134965532Y-95471929D01*
X135036014Y-95642089D01*
X135138338Y-95795228D01*
X135268572Y-95925462D01*
X135421711Y-96027786D01*
X135591871Y-96098268D01*
X135772511Y-96134200D01*
X135956689Y-96134200D01*
X136137329Y-96098268D01*
X136307489Y-96027786D01*
X136460628Y-95925462D01*
X136590862Y-95795228D01*
X136693186Y-95642089D01*
X136763668Y-95471929D01*
X136799600Y-95291289D01*
X136799600Y-95107111D01*
X136763668Y-94926471D01*
X136693186Y-94756311D01*
X136590862Y-94603172D01*
X136460628Y-94472938D01*
X136307489Y-94370614D01*
X136137329Y-94300132D01*
X135956689Y-94264200D01*
X135772511Y-94264200D01*
X135591871Y-94300132D01*
X135421711Y-94370614D01*
X135268572Y-94472938D01*
X135138338Y-94603172D01*
X135036014Y-94756311D01*
X134965532Y-94926471D01*
X134929600Y-95107111D01*
X130878179Y-95107111D01*
X130946982Y-95038308D01*
X131049306Y-94885169D01*
X131119788Y-94715009D01*
X131155720Y-94534369D01*
X131155720Y-94350191D01*
X131119788Y-94169551D01*
X131049306Y-93999391D01*
X130946982Y-93846252D01*
X130816748Y-93716018D01*
X130663609Y-93613694D01*
X130493449Y-93543212D01*
X130312809Y-93507280D01*
X130128631Y-93507280D01*
X129947991Y-93543212D01*
X129777831Y-93613694D01*
X129624692Y-93716018D01*
X129494458Y-93846252D01*
X129392134Y-93999391D01*
X129321652Y-94169551D01*
X129285720Y-94350191D01*
X129285720Y-94534369D01*
X129321652Y-94715009D01*
X129392134Y-94885169D01*
X129398577Y-94894811D01*
X129246951Y-94924972D01*
X129076791Y-94995454D01*
X128923652Y-95097778D01*
X128793418Y-95228012D01*
X128691094Y-95381151D01*
X128620612Y-95551311D01*
X128584680Y-95731951D01*
X126788166Y-95731951D01*
X126852226Y-95577298D01*
X126892000Y-95377339D01*
X126892000Y-95173461D01*
X126852226Y-94973502D01*
X126774205Y-94785144D01*
X126660937Y-94615626D01*
X126516774Y-94471463D01*
X126347256Y-94358195D01*
X126158898Y-94280174D01*
X125958939Y-94240400D01*
X125755061Y-94240400D01*
X125555102Y-94280174D01*
X125366744Y-94358195D01*
X125197226Y-94471463D01*
X125053063Y-94615626D01*
X124939795Y-94785144D01*
X124861774Y-94973502D01*
X124822000Y-95173461D01*
X123606160Y-95173461D01*
X123606160Y-93165660D01*
X130762064Y-93165660D01*
X130762064Y-93349838D01*
X130797996Y-93530478D01*
X130868478Y-93700638D01*
X130970802Y-93853777D01*
X131101036Y-93984011D01*
X131254175Y-94086335D01*
X131424335Y-94156817D01*
X131604975Y-94192749D01*
X131789153Y-94192749D01*
X131969793Y-94156817D01*
X132139953Y-94086335D01*
X132293092Y-93984011D01*
X132423326Y-93853777D01*
X132520790Y-93707911D01*
X146639000Y-93707911D01*
X146639000Y-93892089D01*
X146674932Y-94072729D01*
X146745414Y-94242889D01*
X146847738Y-94396028D01*
X146977972Y-94526262D01*
X147131111Y-94628586D01*
X147301271Y-94699068D01*
X147481911Y-94735000D01*
X147666089Y-94735000D01*
X147846729Y-94699068D01*
X148016889Y-94628586D01*
X148125963Y-94555705D01*
X148091614Y-94607112D01*
X148021132Y-94777272D01*
X147985200Y-94957912D01*
X147985200Y-95142090D01*
X148021132Y-95322730D01*
X148091614Y-95492890D01*
X148193938Y-95646029D01*
X148324172Y-95776263D01*
X148477311Y-95878587D01*
X148647471Y-95949069D01*
X148828111Y-95985001D01*
X149012289Y-95985001D01*
X149192929Y-95949069D01*
X149363089Y-95878587D01*
X149516228Y-95776263D01*
X149646462Y-95646029D01*
X149748786Y-95492890D01*
X149763390Y-95457631D01*
X152176200Y-95457631D01*
X152176200Y-95641809D01*
X152212132Y-95822449D01*
X152282614Y-95992609D01*
X152384938Y-96145748D01*
X152515172Y-96275982D01*
X152668311Y-96378306D01*
X152838471Y-96448788D01*
X153019111Y-96484720D01*
X153203289Y-96484720D01*
X153383929Y-96448788D01*
X153554089Y-96378306D01*
X153707228Y-96275982D01*
X153837462Y-96145748D01*
X153939786Y-95992609D01*
X154010268Y-95822449D01*
X154046200Y-95641809D01*
X154046200Y-95457631D01*
X154010268Y-95276991D01*
X153939786Y-95106831D01*
X153837462Y-94953692D01*
X153707228Y-94823458D01*
X153687306Y-94810147D01*
X153850679Y-94742476D01*
X154003818Y-94640152D01*
X154134052Y-94509918D01*
X154236376Y-94356779D01*
X154250339Y-94323069D01*
X154374452Y-94447182D01*
X154527591Y-94549506D01*
X154697751Y-94619988D01*
X154878391Y-94655920D01*
X155062569Y-94655920D01*
X155243209Y-94619988D01*
X155413369Y-94549506D01*
X155566508Y-94447182D01*
X155696742Y-94316948D01*
X155799066Y-94163809D01*
X155869548Y-93993649D01*
X155905480Y-93813009D01*
X155905480Y-93628831D01*
X155869548Y-93448191D01*
X155799066Y-93278031D01*
X155696742Y-93124892D01*
X155566508Y-92994658D01*
X155443379Y-92912386D01*
X155481969Y-92904710D01*
X155652129Y-92834228D01*
X155805268Y-92731904D01*
X155827821Y-92709351D01*
X157962320Y-92709351D01*
X157962320Y-92893529D01*
X157998252Y-93074169D01*
X158068734Y-93244329D01*
X158171058Y-93397468D01*
X158301292Y-93527702D01*
X158454431Y-93630026D01*
X158624591Y-93700508D01*
X158805231Y-93736440D01*
X158989409Y-93736440D01*
X159170049Y-93700508D01*
X159340209Y-93630026D01*
X159493348Y-93527702D01*
X159614368Y-93406682D01*
X159614368Y-93888041D01*
X159631432Y-94061295D01*
X159681968Y-94227891D01*
X159764035Y-94381427D01*
X159874478Y-94516002D01*
X160009053Y-94626445D01*
X160162589Y-94708512D01*
X160329185Y-94759048D01*
X160502439Y-94776112D01*
X161752441Y-94776112D01*
X161925695Y-94759048D01*
X162092291Y-94708512D01*
X162245827Y-94626445D01*
X162380402Y-94516002D01*
X162490845Y-94381427D01*
X162572912Y-94227891D01*
X162623448Y-94061295D01*
X162640512Y-93888041D01*
X162640512Y-93188039D01*
X162623448Y-93014785D01*
X162572912Y-92848189D01*
X162490845Y-92694653D01*
X162380402Y-92560078D01*
X162245827Y-92449635D01*
X162241329Y-92447231D01*
X162279942Y-92415542D01*
X162434273Y-92227489D01*
X162548951Y-92012941D01*
X162619570Y-91780142D01*
X162643415Y-91538040D01*
X162619570Y-91295938D01*
X162548951Y-91063139D01*
X162434273Y-90848591D01*
X162279942Y-90660538D01*
X162130678Y-90538040D01*
X162279942Y-90415542D01*
X162434273Y-90227489D01*
X162548951Y-90012941D01*
X162619570Y-89780142D01*
X162643415Y-89538040D01*
X162619570Y-89295938D01*
X162548951Y-89063139D01*
X162434273Y-88848591D01*
X162279942Y-88660538D01*
X162130678Y-88538040D01*
X162279942Y-88415542D01*
X162434273Y-88227489D01*
X162548951Y-88012941D01*
X162619570Y-87780142D01*
X162643415Y-87538040D01*
X162619570Y-87295938D01*
X162548951Y-87063139D01*
X162434273Y-86848591D01*
X162279942Y-86660538D01*
X162130678Y-86538040D01*
X162279942Y-86415542D01*
X162434273Y-86227489D01*
X162548951Y-86012941D01*
X162619570Y-85780142D01*
X162643415Y-85538040D01*
X162619570Y-85295938D01*
X162548951Y-85063139D01*
X162434273Y-84848591D01*
X162279942Y-84660538D01*
X162091889Y-84506207D01*
X161877341Y-84391529D01*
X161644542Y-84320910D01*
X161463105Y-84303040D01*
X160791775Y-84303040D01*
X160610338Y-84320910D01*
X160377539Y-84391529D01*
X160162991Y-84506207D01*
X159974938Y-84660538D01*
X159820607Y-84848591D01*
X159705929Y-85063139D01*
X159635310Y-85295938D01*
X159611465Y-85538040D01*
X159635310Y-85780142D01*
X159705929Y-86012941D01*
X159820607Y-86227489D01*
X159974938Y-86415542D01*
X160124202Y-86538040D01*
X159974938Y-86660538D01*
X159820607Y-86848591D01*
X159705929Y-87063139D01*
X159635310Y-87295938D01*
X159611465Y-87538040D01*
X159635310Y-87780142D01*
X159705929Y-88012941D01*
X159820607Y-88227489D01*
X159974938Y-88415542D01*
X160124202Y-88538040D01*
X159974938Y-88660538D01*
X159820607Y-88848591D01*
X159705929Y-89063139D01*
X159635310Y-89295938D01*
X159611465Y-89538040D01*
X159635310Y-89780142D01*
X159705929Y-90012941D01*
X159820607Y-90227489D01*
X159974938Y-90415542D01*
X160124202Y-90538040D01*
X159974938Y-90660538D01*
X159820607Y-90848591D01*
X159705929Y-91063139D01*
X159635310Y-91295938D01*
X159611465Y-91538040D01*
X159635310Y-91780142D01*
X159705929Y-92012941D01*
X159820607Y-92227489D01*
X159974938Y-92415542D01*
X160013551Y-92447231D01*
X160009053Y-92449635D01*
X159874478Y-92560078D01*
X159816645Y-92630548D01*
X159796388Y-92528711D01*
X159725906Y-92358551D01*
X159623582Y-92205412D01*
X159493348Y-92075178D01*
X159340209Y-91972854D01*
X159170049Y-91902372D01*
X158989409Y-91866440D01*
X158805231Y-91866440D01*
X158624591Y-91902372D01*
X158454431Y-91972854D01*
X158301292Y-92075178D01*
X158171058Y-92205412D01*
X158068734Y-92358551D01*
X157998252Y-92528711D01*
X157962320Y-92709351D01*
X155827821Y-92709351D01*
X155935502Y-92601670D01*
X156037826Y-92448531D01*
X156108308Y-92278371D01*
X156144240Y-92097731D01*
X156144240Y-91913553D01*
X156108308Y-91732913D01*
X156037826Y-91562753D01*
X155935502Y-91409614D01*
X155805268Y-91279380D01*
X155652129Y-91177056D01*
X155481969Y-91106574D01*
X155301329Y-91070642D01*
X155117151Y-91070642D01*
X154936511Y-91106574D01*
X154766351Y-91177056D01*
X154613212Y-91279380D01*
X154482978Y-91409614D01*
X154380654Y-91562753D01*
X154310172Y-91732913D01*
X154274240Y-91913553D01*
X154274240Y-92097731D01*
X154310172Y-92278371D01*
X154380654Y-92448531D01*
X154482978Y-92601670D01*
X154613212Y-92731904D01*
X154736341Y-92814176D01*
X154697751Y-92821852D01*
X154527591Y-92892334D01*
X154374452Y-92994658D01*
X154244218Y-93124892D01*
X154141894Y-93278031D01*
X154127931Y-93311741D01*
X154003818Y-93187628D01*
X153850679Y-93085304D01*
X153680519Y-93014822D01*
X153499879Y-92978890D01*
X153315701Y-92978890D01*
X153135061Y-93014822D01*
X152964901Y-93085304D01*
X152811762Y-93187628D01*
X152681528Y-93317862D01*
X152579204Y-93471001D01*
X152508722Y-93641161D01*
X152472790Y-93821801D01*
X152472790Y-94005979D01*
X152508722Y-94186619D01*
X152579204Y-94356779D01*
X152681528Y-94509918D01*
X152811762Y-94640152D01*
X152831684Y-94653463D01*
X152668311Y-94721134D01*
X152515172Y-94823458D01*
X152384938Y-94953692D01*
X152282614Y-95106831D01*
X152212132Y-95276991D01*
X152176200Y-95457631D01*
X149763390Y-95457631D01*
X149819268Y-95322730D01*
X149855200Y-95142090D01*
X149855200Y-94957912D01*
X149819268Y-94777272D01*
X149748786Y-94607112D01*
X149646462Y-94453973D01*
X149516228Y-94323739D01*
X149363089Y-94221415D01*
X149192929Y-94150933D01*
X149012289Y-94115001D01*
X148828111Y-94115001D01*
X148647471Y-94150933D01*
X148477311Y-94221415D01*
X148368237Y-94294296D01*
X148402586Y-94242889D01*
X148473068Y-94072729D01*
X148509000Y-93892089D01*
X148509000Y-93707911D01*
X148473068Y-93527271D01*
X148402586Y-93357111D01*
X148300262Y-93203972D01*
X148170028Y-93073738D01*
X148016889Y-92971414D01*
X147846729Y-92900932D01*
X147666089Y-92865000D01*
X147481911Y-92865000D01*
X147301271Y-92900932D01*
X147131111Y-92971414D01*
X146977972Y-93073738D01*
X146847738Y-93203972D01*
X146745414Y-93357111D01*
X146674932Y-93527271D01*
X146639000Y-93707911D01*
X132520790Y-93707911D01*
X132525650Y-93700638D01*
X132596132Y-93530478D01*
X132632064Y-93349838D01*
X132632064Y-93165660D01*
X132596132Y-92985020D01*
X132525650Y-92814860D01*
X132423326Y-92661721D01*
X132413667Y-92652062D01*
X144759400Y-92652062D01*
X144759400Y-92836240D01*
X144795332Y-93016880D01*
X144865814Y-93187040D01*
X144968138Y-93340179D01*
X145098372Y-93470413D01*
X145251511Y-93572737D01*
X145421671Y-93643219D01*
X145602311Y-93679151D01*
X145786489Y-93679151D01*
X145967129Y-93643219D01*
X146137289Y-93572737D01*
X146290428Y-93470413D01*
X146420662Y-93340179D01*
X146522986Y-93187040D01*
X146593468Y-93016880D01*
X146629400Y-92836240D01*
X146629400Y-92652062D01*
X146593468Y-92471422D01*
X146522986Y-92301262D01*
X146420662Y-92148123D01*
X146290428Y-92017889D01*
X146137289Y-91915565D01*
X145967129Y-91845083D01*
X145786489Y-91809151D01*
X145602311Y-91809151D01*
X145421671Y-91845083D01*
X145251511Y-91915565D01*
X145098372Y-92017889D01*
X144968138Y-92148123D01*
X144865814Y-92301262D01*
X144795332Y-92471422D01*
X144759400Y-92652062D01*
X132413667Y-92652062D01*
X132293092Y-92531487D01*
X132139953Y-92429163D01*
X131969793Y-92358681D01*
X131789153Y-92322749D01*
X131604975Y-92322749D01*
X131424335Y-92358681D01*
X131254175Y-92429163D01*
X131101036Y-92531487D01*
X130970802Y-92661721D01*
X130868478Y-92814860D01*
X130797996Y-92985020D01*
X130762064Y-93165660D01*
X123606160Y-93165660D01*
X123606160Y-89761449D01*
X144952440Y-89761449D01*
X144952440Y-89945627D01*
X144988372Y-90126267D01*
X145058854Y-90296427D01*
X145161178Y-90449566D01*
X145291412Y-90579800D01*
X145444551Y-90682124D01*
X145614711Y-90752606D01*
X145795351Y-90788538D01*
X145979529Y-90788538D01*
X146160169Y-90752606D01*
X146330329Y-90682124D01*
X146368471Y-90656639D01*
X146528342Y-90722859D01*
X146708982Y-90758791D01*
X146893160Y-90758791D01*
X147022370Y-90733089D01*
X147015831Y-90765962D01*
X147015831Y-90950140D01*
X147051763Y-91130780D01*
X147122245Y-91300940D01*
X147224569Y-91454079D01*
X147354803Y-91584313D01*
X147507942Y-91686637D01*
X147678102Y-91757119D01*
X147858742Y-91793051D01*
X148042920Y-91793051D01*
X148223560Y-91757119D01*
X148393720Y-91686637D01*
X148546859Y-91584313D01*
X148677093Y-91454079D01*
X148779417Y-91300940D01*
X148849899Y-91130780D01*
X148885831Y-90950140D01*
X148885831Y-90765962D01*
X148849899Y-90585322D01*
X148779417Y-90415162D01*
X148677093Y-90262023D01*
X148546859Y-90131789D01*
X148393720Y-90029465D01*
X148223560Y-89958983D01*
X148042920Y-89923051D01*
X147858742Y-89923051D01*
X147729532Y-89948753D01*
X147736071Y-89915880D01*
X147736071Y-89731702D01*
X147700139Y-89551062D01*
X147629657Y-89380902D01*
X147527333Y-89227763D01*
X147417361Y-89117791D01*
X148163000Y-89117791D01*
X148163000Y-89301969D01*
X148198932Y-89482609D01*
X148269414Y-89652769D01*
X148371738Y-89805908D01*
X148501972Y-89936142D01*
X148655111Y-90038466D01*
X148825271Y-90108948D01*
X149005911Y-90144880D01*
X149190089Y-90144880D01*
X149370729Y-90108948D01*
X149537378Y-90039920D01*
X149546633Y-90046104D01*
X149606383Y-90070853D01*
X149466452Y-90128814D01*
X149313313Y-90231138D01*
X149183079Y-90361372D01*
X149080755Y-90514511D01*
X149010273Y-90684671D01*
X148974341Y-90865311D01*
X148974341Y-91049489D01*
X149010273Y-91230129D01*
X149080755Y-91400289D01*
X149183079Y-91553428D01*
X149313313Y-91683662D01*
X149466452Y-91785986D01*
X149636612Y-91856468D01*
X149817252Y-91892400D01*
X150001430Y-91892400D01*
X150182070Y-91856468D01*
X150352230Y-91785986D01*
X150505369Y-91683662D01*
X150635603Y-91553428D01*
X150737927Y-91400289D01*
X150808409Y-91230129D01*
X150844341Y-91049489D01*
X150844341Y-90865311D01*
X150808409Y-90684671D01*
X150737927Y-90514511D01*
X150635603Y-90361372D01*
X150505369Y-90231138D01*
X150352230Y-90128814D01*
X150292480Y-90104065D01*
X150432411Y-90046104D01*
X150585550Y-89943780D01*
X150715784Y-89813546D01*
X150743298Y-89772368D01*
X150842899Y-89772368D01*
X151023539Y-89736436D01*
X151193699Y-89665954D01*
X151346838Y-89563630D01*
X151477072Y-89433396D01*
X151579396Y-89280257D01*
X151649878Y-89110097D01*
X151685810Y-88929457D01*
X151685810Y-88745279D01*
X151649878Y-88564639D01*
X151618793Y-88489591D01*
X151688520Y-88489591D01*
X151688520Y-88673769D01*
X151724452Y-88854409D01*
X151787524Y-89006680D01*
X151724452Y-89158951D01*
X151688520Y-89339591D01*
X151688520Y-89523769D01*
X151724452Y-89704409D01*
X151794934Y-89874569D01*
X151897258Y-90027708D01*
X152027492Y-90157942D01*
X152180631Y-90260266D01*
X152350791Y-90330748D01*
X152531431Y-90366680D01*
X152715609Y-90366680D01*
X152896249Y-90330748D01*
X153066409Y-90260266D01*
X153219548Y-90157942D01*
X153349782Y-90027708D01*
X153452106Y-89874569D01*
X153522588Y-89704409D01*
X153558520Y-89523769D01*
X153558520Y-89339591D01*
X153522588Y-89158951D01*
X153459516Y-89006680D01*
X153522588Y-88854409D01*
X153558520Y-88673769D01*
X153558520Y-88489591D01*
X153522588Y-88308951D01*
X153452106Y-88138791D01*
X153349782Y-87985652D01*
X153219548Y-87855418D01*
X153066409Y-87753094D01*
X152896249Y-87682612D01*
X152715609Y-87646680D01*
X152531431Y-87646680D01*
X152350791Y-87682612D01*
X152180631Y-87753094D01*
X152027492Y-87855418D01*
X151897258Y-87985652D01*
X151794934Y-88138791D01*
X151724452Y-88308951D01*
X151688520Y-88489591D01*
X151618793Y-88489591D01*
X151579396Y-88394479D01*
X151477072Y-88241340D01*
X151346838Y-88111106D01*
X151193699Y-88008782D01*
X151023539Y-87938300D01*
X150842899Y-87902368D01*
X150658721Y-87902368D01*
X150478081Y-87938300D01*
X150307921Y-88008782D01*
X150154782Y-88111106D01*
X150024548Y-88241340D01*
X149997034Y-88282518D01*
X149897433Y-88282518D01*
X149716793Y-88318450D01*
X149550144Y-88387478D01*
X149540889Y-88381294D01*
X149370729Y-88310812D01*
X149190089Y-88274880D01*
X149005911Y-88274880D01*
X148825271Y-88310812D01*
X148655111Y-88381294D01*
X148501972Y-88483618D01*
X148371738Y-88613852D01*
X148269414Y-88766991D01*
X148198932Y-88937151D01*
X148163000Y-89117791D01*
X147417361Y-89117791D01*
X147397099Y-89097529D01*
X147243960Y-88995205D01*
X147073800Y-88924723D01*
X146893160Y-88888791D01*
X146708982Y-88888791D01*
X146528342Y-88924723D01*
X146358182Y-88995205D01*
X146320040Y-89020690D01*
X146160169Y-88954470D01*
X145979529Y-88918538D01*
X145795351Y-88918538D01*
X145614711Y-88954470D01*
X145444551Y-89024952D01*
X145291412Y-89127276D01*
X145161178Y-89257510D01*
X145058854Y-89410649D01*
X144988372Y-89580809D01*
X144952440Y-89761449D01*
X123606160Y-89761449D01*
X123606160Y-88198311D01*
X128721198Y-88198311D01*
X128721198Y-88382489D01*
X128757130Y-88563129D01*
X128827612Y-88733289D01*
X128929936Y-88886428D01*
X129060170Y-89016662D01*
X129213309Y-89118986D01*
X129383469Y-89189468D01*
X129564109Y-89225400D01*
X129748287Y-89225400D01*
X129928927Y-89189468D01*
X130099087Y-89118986D01*
X130252226Y-89016662D01*
X130382460Y-88886428D01*
X130484784Y-88733289D01*
X130521288Y-88645161D01*
X130633470Y-88691628D01*
X130814110Y-88727560D01*
X130998288Y-88727560D01*
X131178928Y-88691628D01*
X131349088Y-88621146D01*
X131502227Y-88518822D01*
X131632461Y-88388588D01*
X131695481Y-88294272D01*
X131713311Y-88306186D01*
X131883471Y-88376668D01*
X132064111Y-88412600D01*
X132248289Y-88412600D01*
X132428929Y-88376668D01*
X132599089Y-88306186D01*
X132752228Y-88203862D01*
X132882462Y-88073628D01*
X132984786Y-87920489D01*
X133055268Y-87750329D01*
X133091200Y-87569689D01*
X133091200Y-87385511D01*
X133055268Y-87204871D01*
X132984786Y-87034711D01*
X132882462Y-86881572D01*
X132752228Y-86751338D01*
X132599089Y-86649014D01*
X132428929Y-86578532D01*
X132248289Y-86542600D01*
X132064111Y-86542600D01*
X131883471Y-86578532D01*
X131713311Y-86649014D01*
X131560172Y-86751338D01*
X131429938Y-86881572D01*
X131366918Y-86975888D01*
X131349088Y-86963974D01*
X131178928Y-86893492D01*
X130998288Y-86857560D01*
X130814110Y-86857560D01*
X130633470Y-86893492D01*
X130463310Y-86963974D01*
X130310171Y-87066298D01*
X130179937Y-87196532D01*
X130077613Y-87349671D01*
X130041109Y-87437799D01*
X129928927Y-87391332D01*
X129748287Y-87355400D01*
X129564109Y-87355400D01*
X129383469Y-87391332D01*
X129213309Y-87461814D01*
X129060170Y-87564138D01*
X128929936Y-87694372D01*
X128827612Y-87847511D01*
X128757130Y-88017671D01*
X128721198Y-88198311D01*
X123606160Y-88198311D01*
X123606160Y-85264408D01*
X131467377Y-85264408D01*
X131467377Y-85448586D01*
X131503309Y-85629226D01*
X131573791Y-85799386D01*
X131676115Y-85952525D01*
X131806349Y-86082759D01*
X131959488Y-86185083D01*
X132129648Y-86255565D01*
X132310288Y-86291497D01*
X132494466Y-86291497D01*
X132675106Y-86255565D01*
X132845266Y-86185083D01*
X132998405Y-86082759D01*
X133128639Y-85952525D01*
X133230963Y-85799386D01*
X133301445Y-85629226D01*
X133337377Y-85448586D01*
X133337377Y-85264408D01*
X133301445Y-85083768D01*
X133230963Y-84913608D01*
X133128639Y-84760469D01*
X133061281Y-84693111D01*
X133847560Y-84693111D01*
X133847560Y-84877289D01*
X133883492Y-85057929D01*
X133953974Y-85228089D01*
X134056298Y-85381228D01*
X134186532Y-85511462D01*
X134339671Y-85613786D01*
X134509831Y-85684268D01*
X134690471Y-85720200D01*
X134874649Y-85720200D01*
X135021399Y-85691009D01*
X135024732Y-85694342D01*
X135177871Y-85796666D01*
X135348031Y-85867148D01*
X135427992Y-85883053D01*
X135417120Y-85937711D01*
X135417120Y-86121889D01*
X135453052Y-86302529D01*
X135523534Y-86472689D01*
X135625858Y-86625828D01*
X135756092Y-86756062D01*
X135909231Y-86858386D01*
X136079391Y-86928868D01*
X136260031Y-86964800D01*
X136444209Y-86964800D01*
X136624849Y-86928868D01*
X136795009Y-86858386D01*
X136948148Y-86756062D01*
X137078382Y-86625828D01*
X137141494Y-86531374D01*
X138191653Y-86531374D01*
X138191653Y-86715552D01*
X138227585Y-86896192D01*
X138298067Y-87066352D01*
X138400391Y-87219491D01*
X138530625Y-87349725D01*
X138683764Y-87452049D01*
X138713446Y-87464344D01*
X138725056Y-87522711D01*
X138795538Y-87692871D01*
X138897862Y-87846010D01*
X139028096Y-87976244D01*
X139181235Y-88078568D01*
X139351395Y-88149050D01*
X139370457Y-88152842D01*
X139397967Y-88219257D01*
X139500291Y-88372396D01*
X139630525Y-88502630D01*
X139783664Y-88604954D01*
X139953824Y-88675436D01*
X140134464Y-88711368D01*
X140318642Y-88711368D01*
X140499282Y-88675436D01*
X140669442Y-88604954D01*
X140822581Y-88502630D01*
X140952815Y-88372396D01*
X141013025Y-88282284D01*
X141146871Y-88371717D01*
X141317031Y-88442199D01*
X141497671Y-88478131D01*
X141681849Y-88478131D01*
X141862489Y-88442199D01*
X142032649Y-88371717D01*
X142185788Y-88269393D01*
X142316022Y-88139159D01*
X142418346Y-87986020D01*
X142488828Y-87815860D01*
X142524760Y-87635220D01*
X142524760Y-87451042D01*
X142488828Y-87270402D01*
X142418346Y-87100242D01*
X142316022Y-86947103D01*
X142185788Y-86816869D01*
X142032649Y-86714545D01*
X141862489Y-86644063D01*
X141681849Y-86608131D01*
X141497671Y-86608131D01*
X141317031Y-86644063D01*
X141146871Y-86714545D01*
X140993732Y-86816869D01*
X140863498Y-86947103D01*
X140803288Y-87037215D01*
X140669442Y-86947782D01*
X140499282Y-86877300D01*
X140480220Y-86873508D01*
X140452710Y-86807093D01*
X140350386Y-86653954D01*
X140220152Y-86523720D01*
X140067013Y-86421396D01*
X140037331Y-86409101D01*
X140025721Y-86350734D01*
X139955239Y-86180574D01*
X139852915Y-86027435D01*
X139722681Y-85897201D01*
X139569542Y-85794877D01*
X139399382Y-85724395D01*
X139218742Y-85688463D01*
X139034564Y-85688463D01*
X138853924Y-85724395D01*
X138683764Y-85794877D01*
X138530625Y-85897201D01*
X138400391Y-86027435D01*
X138298067Y-86180574D01*
X138227585Y-86350734D01*
X138191653Y-86531374D01*
X137141494Y-86531374D01*
X137180706Y-86472689D01*
X137251188Y-86302529D01*
X137284815Y-86133478D01*
X137313329Y-86121667D01*
X137466468Y-86019343D01*
X137596702Y-85889109D01*
X137699026Y-85735970D01*
X137769508Y-85565810D01*
X137805440Y-85385170D01*
X137805440Y-85200992D01*
X137769508Y-85020352D01*
X137699026Y-84850192D01*
X137596702Y-84697053D01*
X137466468Y-84566819D01*
X137313329Y-84464495D01*
X137143169Y-84394013D01*
X136962529Y-84358081D01*
X136778351Y-84358081D01*
X136597711Y-84394013D01*
X136427551Y-84464495D01*
X136414581Y-84473161D01*
X136347022Y-84372052D01*
X136216788Y-84241818D01*
X136063649Y-84139494D01*
X135893489Y-84069012D01*
X135712849Y-84033080D01*
X135528671Y-84033080D01*
X135381921Y-84062271D01*
X135378588Y-84058938D01*
X135225449Y-83956614D01*
X135055289Y-83886132D01*
X134874649Y-83850200D01*
X134690471Y-83850200D01*
X134509831Y-83886132D01*
X134339671Y-83956614D01*
X134186532Y-84058938D01*
X134056298Y-84189172D01*
X133953974Y-84342311D01*
X133883492Y-84512471D01*
X133847560Y-84693111D01*
X133061281Y-84693111D01*
X132998405Y-84630235D01*
X132845266Y-84527911D01*
X132675106Y-84457429D01*
X132494466Y-84421497D01*
X132310288Y-84421497D01*
X132129648Y-84457429D01*
X131959488Y-84527911D01*
X131806349Y-84630235D01*
X131676115Y-84760469D01*
X131573791Y-84913608D01*
X131503309Y-85083768D01*
X131467377Y-85264408D01*
X123606160Y-85264408D01*
X123606160Y-83331826D01*
X123922040Y-83331826D01*
X123922040Y-83525854D01*
X123959893Y-83716154D01*
X124034144Y-83895412D01*
X124141941Y-84056741D01*
X124279139Y-84193939D01*
X124440468Y-84301736D01*
X124619726Y-84375987D01*
X124810026Y-84413840D01*
X125004054Y-84413840D01*
X125194354Y-84375987D01*
X125373612Y-84301736D01*
X125534941Y-84193939D01*
X125672139Y-84056741D01*
X125779936Y-83895412D01*
X125854187Y-83716154D01*
X125892040Y-83525854D01*
X125892040Y-83331826D01*
X125854187Y-83141526D01*
X125779936Y-82962268D01*
X125672139Y-82800939D01*
X125534941Y-82663741D01*
X125373612Y-82555944D01*
X125194354Y-82481693D01*
X125004054Y-82443840D01*
X124810026Y-82443840D01*
X124619726Y-82481693D01*
X124440468Y-82555944D01*
X124279139Y-82663741D01*
X124141941Y-82800939D01*
X124034144Y-82962268D01*
X123959893Y-83141526D01*
X123922040Y-83331826D01*
X123606160Y-83331826D01*
X123606160Y-81432061D01*
X130068040Y-81432061D01*
X130068040Y-81616239D01*
X130103972Y-81796879D01*
X130140413Y-81884856D01*
X130129372Y-81911511D01*
X130093440Y-82092151D01*
X130093440Y-82276329D01*
X130129372Y-82456969D01*
X130199854Y-82627129D01*
X130302178Y-82780268D01*
X130432412Y-82910502D01*
X130585551Y-83012826D01*
X130755711Y-83083308D01*
X130936351Y-83119240D01*
X131120529Y-83119240D01*
X131301169Y-83083308D01*
X131471329Y-83012826D01*
X131624468Y-82910502D01*
X131726560Y-82808410D01*
X144837793Y-82808410D01*
X144837793Y-82992588D01*
X144873725Y-83173228D01*
X144944207Y-83343388D01*
X145046531Y-83496527D01*
X145176765Y-83626761D01*
X145329904Y-83729085D01*
X145484247Y-83793015D01*
X145498725Y-83865800D01*
X145569207Y-84035960D01*
X145671531Y-84189099D01*
X145801765Y-84319333D01*
X145954904Y-84421657D01*
X146093721Y-84479157D01*
X146079934Y-84499791D01*
X146009452Y-84669951D01*
X145973520Y-84850591D01*
X145973520Y-85034769D01*
X146009452Y-85215409D01*
X146035648Y-85278652D01*
X146020908Y-85281584D01*
X145850748Y-85352066D01*
X145697609Y-85454390D01*
X145567375Y-85584624D01*
X145465051Y-85737763D01*
X145394569Y-85907923D01*
X145358637Y-86088563D01*
X145358637Y-86272741D01*
X145394569Y-86453381D01*
X145465051Y-86623541D01*
X145567375Y-86776680D01*
X145697609Y-86906914D01*
X145850748Y-87009238D01*
X146020908Y-87079720D01*
X146201548Y-87115652D01*
X146385726Y-87115652D01*
X146566366Y-87079720D01*
X146736526Y-87009238D01*
X146889665Y-86906914D01*
X147019899Y-86776680D01*
X147122223Y-86623541D01*
X147192705Y-86453381D01*
X147193390Y-86449936D01*
X147343236Y-86479743D01*
X147527414Y-86479743D01*
X147708054Y-86443811D01*
X147878214Y-86373329D01*
X148031353Y-86271005D01*
X148161587Y-86140771D01*
X148263911Y-85987632D01*
X148334393Y-85817472D01*
X148370325Y-85636832D01*
X148370325Y-85452654D01*
X148334393Y-85272014D01*
X148263911Y-85101854D01*
X148161587Y-84948715D01*
X148031353Y-84818481D01*
X147878214Y-84716157D01*
X147811263Y-84688425D01*
X147807588Y-84669951D01*
X147804610Y-84662760D01*
X147854091Y-84613279D01*
X152922800Y-84613279D01*
X152922800Y-84797457D01*
X152958732Y-84978097D01*
X153029214Y-85148257D01*
X153131538Y-85301396D01*
X153261772Y-85431630D01*
X153414911Y-85533954D01*
X153585071Y-85604436D01*
X153765711Y-85640368D01*
X153949889Y-85640368D01*
X154130529Y-85604436D01*
X154300689Y-85533954D01*
X154453828Y-85431630D01*
X154584062Y-85301396D01*
X154686386Y-85148257D01*
X154689615Y-85140461D01*
X157435600Y-85140461D01*
X157435600Y-85344339D01*
X157475374Y-85544298D01*
X157553395Y-85732656D01*
X157666663Y-85902174D01*
X157810826Y-86046337D01*
X157980344Y-86159605D01*
X158168702Y-86237626D01*
X158368661Y-86277400D01*
X158572539Y-86277400D01*
X158772498Y-86237626D01*
X158960856Y-86159605D01*
X159130374Y-86046337D01*
X159274537Y-85902174D01*
X159387805Y-85732656D01*
X159465826Y-85544298D01*
X159505600Y-85344339D01*
X159505600Y-85140461D01*
X159465826Y-84940502D01*
X159387805Y-84752144D01*
X159274537Y-84582626D01*
X159130374Y-84438463D01*
X158960856Y-84325195D01*
X158772498Y-84247174D01*
X158572539Y-84207400D01*
X158368661Y-84207400D01*
X158168702Y-84247174D01*
X157980344Y-84325195D01*
X157810826Y-84438463D01*
X157666663Y-84582626D01*
X157553395Y-84752144D01*
X157475374Y-84940502D01*
X157435600Y-85140461D01*
X154689615Y-85140461D01*
X154756868Y-84978097D01*
X154785609Y-84833609D01*
X154925689Y-84775586D01*
X155078828Y-84673262D01*
X155209062Y-84543028D01*
X155311386Y-84389889D01*
X155381868Y-84219729D01*
X155417800Y-84039089D01*
X155417800Y-83854911D01*
X155381868Y-83674271D01*
X155311386Y-83504111D01*
X155209062Y-83350972D01*
X155136471Y-83278381D01*
X155146689Y-83276348D01*
X155316849Y-83205866D01*
X155469988Y-83103542D01*
X155600222Y-82973308D01*
X155702546Y-82820169D01*
X155773028Y-82650009D01*
X155808960Y-82469369D01*
X155808960Y-82285191D01*
X155773028Y-82104551D01*
X155702546Y-81934391D01*
X155600222Y-81781252D01*
X155469988Y-81651018D01*
X155316849Y-81548694D01*
X155146689Y-81478212D01*
X154966049Y-81442280D01*
X154781871Y-81442280D01*
X154601231Y-81478212D01*
X154431071Y-81548694D01*
X154277932Y-81651018D01*
X154147698Y-81781252D01*
X154045374Y-81934391D01*
X153974892Y-82104551D01*
X153938960Y-82285191D01*
X153938960Y-82469369D01*
X153974892Y-82650009D01*
X154045374Y-82820169D01*
X154147698Y-82973308D01*
X154220289Y-83045899D01*
X154210071Y-83047932D01*
X154039911Y-83118414D01*
X153886772Y-83220738D01*
X153756538Y-83350972D01*
X153654214Y-83504111D01*
X153583732Y-83674271D01*
X153554991Y-83818759D01*
X153414911Y-83876782D01*
X153261772Y-83979106D01*
X153131538Y-84109340D01*
X153029214Y-84262479D01*
X152958732Y-84432639D01*
X152922800Y-84613279D01*
X147854091Y-84613279D01*
X147883702Y-84583668D01*
X147986026Y-84430529D01*
X148056508Y-84260369D01*
X148092440Y-84079729D01*
X148092440Y-83895551D01*
X148084887Y-83857581D01*
X148121049Y-83850388D01*
X148291209Y-83779906D01*
X148444348Y-83677582D01*
X148574582Y-83547348D01*
X148676906Y-83394209D01*
X148747388Y-83224049D01*
X148783320Y-83043409D01*
X148783320Y-83031951D01*
X150078160Y-83031951D01*
X150078160Y-83216129D01*
X150114092Y-83396769D01*
X150184574Y-83566929D01*
X150286898Y-83720068D01*
X150417132Y-83850302D01*
X150570271Y-83952626D01*
X150740431Y-84023108D01*
X150921071Y-84059040D01*
X151105249Y-84059040D01*
X151285889Y-84023108D01*
X151456049Y-83952626D01*
X151609188Y-83850302D01*
X151739422Y-83720068D01*
X151841746Y-83566929D01*
X151912228Y-83396769D01*
X151948160Y-83216129D01*
X151948160Y-83031951D01*
X151912228Y-82851311D01*
X151841746Y-82681151D01*
X151739422Y-82528012D01*
X151609188Y-82397778D01*
X151456049Y-82295454D01*
X151285889Y-82224972D01*
X151105249Y-82189040D01*
X150921071Y-82189040D01*
X150740431Y-82224972D01*
X150570271Y-82295454D01*
X150417132Y-82397778D01*
X150286898Y-82528012D01*
X150184574Y-82681151D01*
X150114092Y-82851311D01*
X150078160Y-83031951D01*
X148783320Y-83031951D01*
X148783320Y-82859231D01*
X148747388Y-82678591D01*
X148676906Y-82508431D01*
X148574582Y-82355292D01*
X148444348Y-82225058D01*
X148291209Y-82122734D01*
X148121049Y-82052252D01*
X147940409Y-82016320D01*
X147756231Y-82016320D01*
X147575591Y-82052252D01*
X147531798Y-82070391D01*
X147465682Y-82026214D01*
X147295522Y-81955732D01*
X147114882Y-81919800D01*
X146930704Y-81919800D01*
X146750064Y-81955732D01*
X146579904Y-82026214D01*
X146426765Y-82128538D01*
X146374944Y-82180360D01*
X146368821Y-82174237D01*
X146215682Y-82071913D01*
X146045522Y-82001431D01*
X145864882Y-81965499D01*
X145680704Y-81965499D01*
X145500064Y-82001431D01*
X145329904Y-82071913D01*
X145176765Y-82174237D01*
X145046531Y-82304471D01*
X144944207Y-82457610D01*
X144873725Y-82627770D01*
X144837793Y-82808410D01*
X131726560Y-82808410D01*
X131754702Y-82780268D01*
X131857026Y-82627129D01*
X131927508Y-82456969D01*
X131963440Y-82276329D01*
X131963440Y-82092151D01*
X131927508Y-81911511D01*
X131891067Y-81823534D01*
X131902108Y-81796879D01*
X131938040Y-81616239D01*
X131938040Y-81432061D01*
X131909685Y-81289511D01*
X139714960Y-81289511D01*
X139714960Y-81473689D01*
X139750892Y-81654329D01*
X139821374Y-81824489D01*
X139923698Y-81977628D01*
X140053932Y-82107862D01*
X140207071Y-82210186D01*
X140377231Y-82280668D01*
X140557871Y-82316600D01*
X140742049Y-82316600D01*
X140922689Y-82280668D01*
X141092849Y-82210186D01*
X141245988Y-82107862D01*
X141376222Y-81977628D01*
X141478546Y-81824489D01*
X141549028Y-81654329D01*
X141584960Y-81473689D01*
X141584960Y-81289511D01*
X141549028Y-81108871D01*
X141478546Y-80938711D01*
X141376222Y-80785572D01*
X141306121Y-80715471D01*
X142505600Y-80715471D01*
X142505600Y-80899649D01*
X142541532Y-81080289D01*
X142612014Y-81250449D01*
X142714338Y-81403588D01*
X142844572Y-81533822D01*
X142997711Y-81636146D01*
X143167871Y-81706628D01*
X143348511Y-81742560D01*
X143532689Y-81742560D01*
X143713329Y-81706628D01*
X143865600Y-81643556D01*
X144017871Y-81706628D01*
X144198511Y-81742560D01*
X144382689Y-81742560D01*
X144563329Y-81706628D01*
X144733489Y-81636146D01*
X144886628Y-81533822D01*
X145016862Y-81403588D01*
X145087528Y-81297828D01*
X156746944Y-81297828D01*
X156746944Y-81501706D01*
X156786718Y-81701665D01*
X156864739Y-81890023D01*
X156978007Y-82059541D01*
X157122170Y-82203704D01*
X157291688Y-82316972D01*
X157480046Y-82394993D01*
X157680005Y-82434767D01*
X157883883Y-82434767D01*
X158083842Y-82394993D01*
X158272200Y-82316972D01*
X158441718Y-82203704D01*
X158585881Y-82059541D01*
X158699149Y-81890023D01*
X158777170Y-81701665D01*
X158816944Y-81501706D01*
X158816944Y-81297828D01*
X158777170Y-81097869D01*
X158699149Y-80909511D01*
X158585881Y-80739993D01*
X158441718Y-80595830D01*
X158272200Y-80482562D01*
X158083842Y-80404541D01*
X157883883Y-80364767D01*
X157680005Y-80364767D01*
X157480046Y-80404541D01*
X157291688Y-80482562D01*
X157122170Y-80595830D01*
X156978007Y-80739993D01*
X156864739Y-80909511D01*
X156786718Y-81097869D01*
X156746944Y-81297828D01*
X145087528Y-81297828D01*
X145119186Y-81250449D01*
X145189668Y-81080289D01*
X145225600Y-80899649D01*
X145225600Y-80715471D01*
X145189668Y-80534831D01*
X145119186Y-80364671D01*
X145016862Y-80211532D01*
X144886628Y-80081298D01*
X144733489Y-79978974D01*
X144563329Y-79908492D01*
X144382689Y-79872560D01*
X144198511Y-79872560D01*
X144017871Y-79908492D01*
X143865600Y-79971564D01*
X143713329Y-79908492D01*
X143532689Y-79872560D01*
X143348511Y-79872560D01*
X143167871Y-79908492D01*
X142997711Y-79978974D01*
X142844572Y-80081298D01*
X142714338Y-80211532D01*
X142612014Y-80364671D01*
X142541532Y-80534831D01*
X142505600Y-80715471D01*
X141306121Y-80715471D01*
X141245988Y-80655338D01*
X141092849Y-80553014D01*
X140922689Y-80482532D01*
X140742049Y-80446600D01*
X140557871Y-80446600D01*
X140377231Y-80482532D01*
X140207071Y-80553014D01*
X140053932Y-80655338D01*
X139923698Y-80785572D01*
X139821374Y-80938711D01*
X139750892Y-81108871D01*
X139714960Y-81289511D01*
X131909685Y-81289511D01*
X131902108Y-81251421D01*
X131840963Y-81103804D01*
X132043499Y-81042365D01*
X132245018Y-80934651D01*
X132421652Y-80789692D01*
X132566611Y-80613059D01*
X132674325Y-80411540D01*
X132740655Y-80192880D01*
X132757440Y-80022459D01*
X132757440Y-79708502D01*
X132757440Y-79708501D01*
X134887440Y-79708501D01*
X134887440Y-80022458D01*
X134904225Y-80192879D01*
X134970555Y-80411539D01*
X135078269Y-80613058D01*
X135223228Y-80789692D01*
X135399861Y-80934651D01*
X135601380Y-81042365D01*
X135820040Y-81108695D01*
X136047440Y-81131092D01*
X136274839Y-81108695D01*
X136493499Y-81042365D01*
X136695018Y-80934651D01*
X136871652Y-80789692D01*
X137016611Y-80613059D01*
X137124325Y-80411540D01*
X137190655Y-80192880D01*
X137207440Y-80022459D01*
X137207440Y-79708502D01*
X137190655Y-79538081D01*
X137124325Y-79319421D01*
X137016611Y-79117902D01*
X136871652Y-78941268D01*
X136695019Y-78796309D01*
X136645483Y-78769831D01*
X143250640Y-78769831D01*
X143250640Y-78954009D01*
X143286572Y-79134649D01*
X143357054Y-79304809D01*
X143459378Y-79457948D01*
X143589612Y-79588182D01*
X143742751Y-79690506D01*
X143912911Y-79760988D01*
X144093551Y-79796920D01*
X144277729Y-79796920D01*
X144458369Y-79760988D01*
X144628529Y-79690506D01*
X144781668Y-79588182D01*
X144911902Y-79457948D01*
X145014226Y-79304809D01*
X145084708Y-79134649D01*
X145120640Y-78954009D01*
X145120640Y-78769831D01*
X145084708Y-78589191D01*
X145014226Y-78419031D01*
X144911902Y-78265892D01*
X144781668Y-78135658D01*
X144628529Y-78033334D01*
X144458369Y-77962852D01*
X144277729Y-77926920D01*
X144093551Y-77926920D01*
X143912911Y-77962852D01*
X143742751Y-78033334D01*
X143589612Y-78135658D01*
X143459378Y-78265892D01*
X143357054Y-78419031D01*
X143286572Y-78589191D01*
X143250640Y-78769831D01*
X136645483Y-78769831D01*
X136493500Y-78688595D01*
X136274840Y-78622265D01*
X136047440Y-78599868D01*
X135820041Y-78622265D01*
X135601381Y-78688595D01*
X135399862Y-78796309D01*
X135223229Y-78941268D01*
X135078269Y-79117901D01*
X134970555Y-79319420D01*
X134904225Y-79538080D01*
X134887440Y-79708501D01*
X132757440Y-79708501D01*
X132740655Y-79538081D01*
X132674325Y-79319421D01*
X132566611Y-79117902D01*
X132469935Y-79000102D01*
X132476786Y-78989849D01*
X132547268Y-78819689D01*
X132583200Y-78639049D01*
X132583200Y-78454871D01*
X132547268Y-78274231D01*
X132476786Y-78104071D01*
X132374462Y-77950932D01*
X132244228Y-77820698D01*
X132091089Y-77718374D01*
X131920929Y-77647892D01*
X131740289Y-77611960D01*
X131556111Y-77611960D01*
X131375471Y-77647892D01*
X131205311Y-77718374D01*
X131052172Y-77820698D01*
X130921938Y-77950932D01*
X130819614Y-78104071D01*
X130749132Y-78274231D01*
X130713200Y-78454871D01*
X130713200Y-78639049D01*
X130749132Y-78819689D01*
X130792829Y-78925183D01*
X130773229Y-78941268D01*
X130628269Y-79117901D01*
X130520555Y-79319420D01*
X130454225Y-79538080D01*
X130437440Y-79708501D01*
X130437440Y-80022458D01*
X130454225Y-80192879D01*
X130520555Y-80411539D01*
X130628269Y-80613058D01*
X130661521Y-80653576D01*
X130560151Y-80695564D01*
X130407012Y-80797888D01*
X130276778Y-80928122D01*
X130174454Y-81081261D01*
X130103972Y-81251421D01*
X130068040Y-81432061D01*
X123606160Y-81432061D01*
X123606160Y-78447159D01*
X123653970Y-77959556D01*
X123786205Y-77521574D01*
X124000988Y-77117625D01*
X124290149Y-76763078D01*
X124642661Y-76471456D01*
X125045107Y-76253854D01*
X125482158Y-76118564D01*
X125967805Y-76067520D01*
X128566922Y-76067519D01*
X128528863Y-76192981D01*
X128512440Y-76359728D01*
X128512440Y-77371231D01*
X128528863Y-77537978D01*
X128593764Y-77751926D01*
X128699156Y-77949103D01*
X128840991Y-78121929D01*
X129013817Y-78263764D01*
X129210993Y-78369156D01*
X129424941Y-78434057D01*
X129647440Y-78455971D01*
X129869938Y-78434057D01*
X130083886Y-78369156D01*
X130281063Y-78263764D01*
X130453889Y-78121929D01*
X130595724Y-77949103D01*
X130701116Y-77751927D01*
X130766017Y-77537979D01*
X130782440Y-77371232D01*
X130782440Y-76359729D01*
X130766017Y-76192981D01*
X130727958Y-76067518D01*
X133333721Y-76067517D01*
X133226412Y-76139218D01*
X133096178Y-76269452D01*
X132993854Y-76422591D01*
X132923372Y-76592751D01*
X132887440Y-76773391D01*
X132887440Y-76957569D01*
X132923372Y-77138209D01*
X132993854Y-77308369D01*
X133096178Y-77461508D01*
X133226412Y-77591742D01*
X133379551Y-77694066D01*
X133549711Y-77764548D01*
X133730351Y-77800480D01*
X133914529Y-77800480D01*
X134095169Y-77764548D01*
X134265329Y-77694066D01*
X134418468Y-77591742D01*
X134548702Y-77461508D01*
X134651026Y-77308369D01*
X134721508Y-77138209D01*
X134757440Y-76957569D01*
X134757440Y-76773391D01*
X134721508Y-76592751D01*
X134651026Y-76422591D01*
X134548702Y-76269452D01*
X134418468Y-76139218D01*
X134311158Y-76067516D01*
X136916923Y-76067515D01*
X136878863Y-76192981D01*
X136862440Y-76359728D01*
X136862440Y-77371231D01*
X136878863Y-77537978D01*
X136943764Y-77751926D01*
X137049156Y-77949103D01*
X137190991Y-78121929D01*
X137363817Y-78263764D01*
X137560993Y-78369156D01*
X137774941Y-78434057D01*
X137997440Y-78455971D01*
X138219938Y-78434057D01*
X138433886Y-78369156D01*
X138631063Y-78263764D01*
X138803889Y-78121929D01*
X138945724Y-77949103D01*
X139051116Y-77751927D01*
X139116017Y-77537979D01*
X139132440Y-77371232D01*
X139132440Y-76359729D01*
X139116017Y-76192981D01*
X139077957Y-76067514D01*
X154864641Y-76067506D01*
X154848014Y-76092391D01*
X154777532Y-76262551D01*
X154741600Y-76443191D01*
X154741600Y-76627369D01*
X154777532Y-76808009D01*
X154848014Y-76978169D01*
X154950338Y-77131308D01*
X155080572Y-77261542D01*
X155233711Y-77363866D01*
X155403871Y-77434348D01*
X155584511Y-77470280D01*
X155768689Y-77470280D01*
X155949329Y-77434348D01*
X156119489Y-77363866D01*
X156272628Y-77261542D01*
X156402862Y-77131308D01*
X156505186Y-76978169D01*
X156575668Y-76808009D01*
X156611600Y-76627369D01*
X156611600Y-76443191D01*
X156575668Y-76262551D01*
X156505186Y-76092391D01*
X156488558Y-76067506D01*
X158390877Y-76067505D01*
X158363640Y-76204431D01*
X158363640Y-76388609D01*
X158399572Y-76569249D01*
X158470054Y-76739409D01*
X158572378Y-76892548D01*
X158702612Y-77022782D01*
X158855751Y-77125106D01*
X159025911Y-77195588D01*
X159206551Y-77231520D01*
X159390729Y-77231520D01*
X159571369Y-77195588D01*
X159741529Y-77125106D01*
X159894668Y-77022782D01*
X160024902Y-76892548D01*
X160127226Y-76739409D01*
X160197708Y-76569249D01*
X160233640Y-76388609D01*
X160233640Y-76204431D01*
X160206403Y-76067504D01*
X161913032Y-76067503D01*
X162400645Y-76115314D01*
G37*
X162400645Y-76115314D02*
X162838634Y-76247551D01*
X163242586Y-76462337D01*
X163597132Y-76751497D01*
X163888757Y-77104012D01*
X164106363Y-77506465D01*
X164241652Y-77943513D01*
X164292679Y-78429004D01*
X164292681Y-115644914D01*
X164245500Y-116134118D01*
X164113680Y-116573256D01*
X163899073Y-116978429D01*
X163609858Y-117334197D01*
X163257041Y-117627020D01*
X162854073Y-117845734D01*
X162416297Y-117982013D01*
X161929903Y-118033918D01*
X158900399Y-118034204D01*
X158872555Y-118036949D01*
X158869550Y-118036928D01*
X158860379Y-118037828D01*
X158811116Y-118043006D01*
X158803436Y-118043763D01*
X158803183Y-118043840D01*
X158762764Y-118048088D01*
X158704190Y-118060111D01*
X158645406Y-118071325D01*
X158636584Y-118073989D01*
X158542821Y-118103014D01*
X158487677Y-118126195D01*
X158432220Y-118148600D01*
X158424083Y-118152927D01*
X158337744Y-118199610D01*
X158288185Y-118233038D01*
X158238092Y-118265817D01*
X158230951Y-118271641D01*
X158155323Y-118334207D01*
X158113187Y-118376638D01*
X158070435Y-118418503D01*
X158064561Y-118425604D01*
X158064557Y-118425608D01*
X158002525Y-118501667D01*
X157969431Y-118551478D01*
X157935624Y-118600851D01*
X157931241Y-118608957D01*
X157885161Y-118695621D01*
X157862361Y-118750939D01*
X157838800Y-118805910D01*
X157836075Y-118814714D01*
X157807706Y-118908678D01*
X157796083Y-118967380D01*
X157783651Y-119025867D01*
X157782688Y-119035032D01*
X157773110Y-119132715D01*
X157769960Y-119164702D01*
X157769960Y-121641890D01*
X157729939Y-121581994D01*
X157537026Y-121389081D01*
X157310183Y-121237509D01*
X157058129Y-121133105D01*
X156790551Y-121079880D01*
X156517729Y-121079880D01*
X156250151Y-121133105D01*
X155998097Y-121237509D01*
X155771254Y-121389081D01*
X155578341Y-121581994D01*
X155426769Y-121808837D01*
X155322365Y-122060891D01*
X155269140Y-122328469D01*
X155269140Y-122601291D01*
X155322365Y-122868869D01*
X155426769Y-123120923D01*
X155578341Y-123347766D01*
X155771254Y-123540679D01*
X155998097Y-123692251D01*
X156250151Y-123796655D01*
X156517729Y-123849880D01*
X156790551Y-123849880D01*
X157058129Y-123796655D01*
X157310183Y-123692251D01*
X157537026Y-123540679D01*
X157729939Y-123347766D01*
X157769961Y-123287870D01*
X157769961Y-124907440D01*
X130133960Y-124907440D01*
X130133960Y-123208012D01*
X130227341Y-123347766D01*
X130420254Y-123540679D01*
X130647097Y-123692251D01*
X130899151Y-123796655D01*
X131166729Y-123849880D01*
X131439551Y-123849880D01*
X131707129Y-123796655D01*
X131959183Y-123692251D01*
X132186026Y-123540679D01*
X132378939Y-123347766D01*
X132530511Y-123120923D01*
X132634915Y-122868869D01*
X132688140Y-122601291D01*
X132688140Y-122328469D01*
X140918140Y-122328469D01*
X140918140Y-122601291D01*
X140971365Y-122868869D01*
X141075769Y-123120923D01*
X141227341Y-123347766D01*
X141420254Y-123540679D01*
X141647097Y-123692251D01*
X141899151Y-123796655D01*
X142166729Y-123849880D01*
X142439551Y-123849880D01*
X142707129Y-123796655D01*
X142959183Y-123692251D01*
X143186026Y-123540679D01*
X143378939Y-123347766D01*
X143530511Y-123120923D01*
X143634915Y-122868869D01*
X143688140Y-122601291D01*
X143688140Y-122328469D01*
X144269140Y-122328469D01*
X144269140Y-122601291D01*
X144322365Y-122868869D01*
X144426769Y-123120923D01*
X144578341Y-123347766D01*
X144771254Y-123540679D01*
X144998097Y-123692251D01*
X145250151Y-123796655D01*
X145517729Y-123849880D01*
X145790551Y-123849880D01*
X146058129Y-123796655D01*
X146310183Y-123692251D01*
X146537026Y-123540679D01*
X146729939Y-123347766D01*
X146881511Y-123120923D01*
X146985915Y-122868869D01*
X147039140Y-122601291D01*
X147039140Y-122328469D01*
X146985915Y-122060891D01*
X146881511Y-121808837D01*
X146729939Y-121581994D01*
X146537026Y-121389081D01*
X146310183Y-121237509D01*
X146058129Y-121133105D01*
X145790551Y-121079880D01*
X145517729Y-121079880D01*
X145250151Y-121133105D01*
X144998097Y-121237509D01*
X144771254Y-121389081D01*
X144578341Y-121581994D01*
X144426769Y-121808837D01*
X144322365Y-122060891D01*
X144269140Y-122328469D01*
X143688140Y-122328469D01*
X143634915Y-122060891D01*
X143530511Y-121808837D01*
X143378939Y-121581994D01*
X143186026Y-121389081D01*
X142959183Y-121237509D01*
X142707129Y-121133105D01*
X142439551Y-121079880D01*
X142166729Y-121079880D01*
X141899151Y-121133105D01*
X141647097Y-121237509D01*
X141420254Y-121389081D01*
X141227341Y-121581994D01*
X141075769Y-121808837D01*
X140971365Y-122060891D01*
X140918140Y-122328469D01*
X132688140Y-122328469D01*
X132634915Y-122060891D01*
X132530511Y-121808837D01*
X132378939Y-121581994D01*
X132186026Y-121389081D01*
X131959183Y-121237509D01*
X131707129Y-121133105D01*
X131439551Y-121079880D01*
X131166729Y-121079880D01*
X130899151Y-121133105D01*
X130647097Y-121237509D01*
X130420254Y-121389081D01*
X130227341Y-121581994D01*
X130133960Y-121721748D01*
X130133960Y-119179941D01*
X130131211Y-119152030D01*
X130131232Y-119149030D01*
X130130332Y-119139859D01*
X130125254Y-119091544D01*
X130124410Y-119082977D01*
X130124323Y-119082691D01*
X130120072Y-119042244D01*
X130108049Y-118983670D01*
X130096835Y-118924886D01*
X130094171Y-118916064D01*
X130065146Y-118822301D01*
X130041965Y-118767157D01*
X130019560Y-118711700D01*
X130015233Y-118703563D01*
X129968550Y-118617224D01*
X129935122Y-118567665D01*
X129902343Y-118517572D01*
X129896519Y-118510431D01*
X129833953Y-118434803D01*
X129791522Y-118392667D01*
X129749657Y-118349915D01*
X129742556Y-118344041D01*
X129666493Y-118282005D01*
X129616682Y-118248911D01*
X129567309Y-118215104D01*
X129559203Y-118210721D01*
X129472539Y-118164641D01*
X129417221Y-118141841D01*
X129362250Y-118118280D01*
X129353446Y-118115555D01*
X129259482Y-118087186D01*
X129200780Y-118075563D01*
X129142293Y-118063131D01*
X129133128Y-118062168D01*
X129035445Y-118052590D01*
X129035442Y-118052590D01*
X129003459Y-118049440D01*
X125995959Y-118049440D01*
X125506385Y-118001437D01*
X125066507Y-117868630D01*
X124660797Y-117652911D01*
X124304724Y-117362504D01*
X124011832Y-117008460D01*
X123793288Y-116604271D01*
X123657413Y-116165333D01*
X123606160Y-115677689D01*
X123606160Y-110532322D01*
X128225840Y-110532322D01*
X128225840Y-110864238D01*
X128290594Y-111189776D01*
X128417612Y-111496427D01*
X128602015Y-111772405D01*
X128836715Y-112007105D01*
X129112693Y-112191508D01*
X129419344Y-112318526D01*
X129744882Y-112383280D01*
X130076798Y-112383280D01*
X130402336Y-112318526D01*
X130503166Y-112276761D01*
X132393140Y-112276761D01*
X132393140Y-112652999D01*
X132466540Y-113022007D01*
X132610520Y-113369604D01*
X132819546Y-113682434D01*
X133085586Y-113948474D01*
X133398416Y-114157500D01*
X133746013Y-114301480D01*
X134115021Y-114374880D01*
X134491259Y-114374880D01*
X134860267Y-114301480D01*
X135207864Y-114157500D01*
X135520694Y-113948474D01*
X135786734Y-113682434D01*
X135995760Y-113369604D01*
X136139740Y-113022007D01*
X136213140Y-112652999D01*
X136213140Y-112276761D01*
X136139740Y-111907753D01*
X135995760Y-111560156D01*
X135786734Y-111247326D01*
X135520694Y-110981286D01*
X135207864Y-110772260D01*
X134860267Y-110628280D01*
X134491259Y-110554880D01*
X134115021Y-110554880D01*
X133746013Y-110628280D01*
X133398416Y-110772260D01*
X133085586Y-110981286D01*
X132819546Y-111247326D01*
X132610520Y-111560156D01*
X132466540Y-111907753D01*
X132393140Y-112276761D01*
X130503166Y-112276761D01*
X130708987Y-112191508D01*
X130984965Y-112007105D01*
X131219665Y-111772405D01*
X131404068Y-111496427D01*
X131531086Y-111189776D01*
X131595840Y-110864238D01*
X131595840Y-110532322D01*
X142272040Y-110532322D01*
X142272040Y-110864238D01*
X142336794Y-111189776D01*
X142463812Y-111496427D01*
X142648215Y-111772405D01*
X142882915Y-112007105D01*
X143158893Y-112191508D01*
X143465544Y-112318526D01*
X143791082Y-112383280D01*
X144122998Y-112383280D01*
X144448536Y-112318526D01*
X144549366Y-112276761D01*
X146744140Y-112276761D01*
X146744140Y-112652999D01*
X146817540Y-113022007D01*
X146961520Y-113369604D01*
X147170546Y-113682434D01*
X147436586Y-113948474D01*
X147749416Y-114157500D01*
X148097013Y-114301480D01*
X148466021Y-114374880D01*
X148842259Y-114374880D01*
X149211267Y-114301480D01*
X149558864Y-114157500D01*
X149871694Y-113948474D01*
X150137734Y-113682434D01*
X150346760Y-113369604D01*
X150490740Y-113022007D01*
X150564140Y-112652999D01*
X150564140Y-112276761D01*
X150490740Y-111907753D01*
X150346760Y-111560156D01*
X150137734Y-111247326D01*
X149871694Y-110981286D01*
X149558864Y-110772260D01*
X149211267Y-110628280D01*
X148842259Y-110554880D01*
X148466021Y-110554880D01*
X148097013Y-110628280D01*
X147749416Y-110772260D01*
X147436586Y-110981286D01*
X147170546Y-111247326D01*
X146961520Y-111560156D01*
X146817540Y-111907753D01*
X146744140Y-112276761D01*
X144549366Y-112276761D01*
X144755187Y-112191508D01*
X145031165Y-112007105D01*
X145265865Y-111772405D01*
X145450268Y-111496427D01*
X145577286Y-111189776D01*
X145642040Y-110864238D01*
X145642040Y-110532322D01*
X156292840Y-110532322D01*
X156292840Y-110864238D01*
X156357594Y-111189776D01*
X156484612Y-111496427D01*
X156669015Y-111772405D01*
X156903715Y-112007105D01*
X157179693Y-112191508D01*
X157486344Y-112318526D01*
X157811882Y-112383280D01*
X158143798Y-112383280D01*
X158469336Y-112318526D01*
X158775987Y-112191508D01*
X159051965Y-112007105D01*
X159286665Y-111772405D01*
X159471068Y-111496427D01*
X159598086Y-111189776D01*
X159662840Y-110864238D01*
X159662840Y-110677577D01*
X161384950Y-110677577D01*
X161384950Y-110881455D01*
X161424724Y-111081414D01*
X161502745Y-111269772D01*
X161616013Y-111439290D01*
X161760176Y-111583453D01*
X161929694Y-111696721D01*
X162118052Y-111774742D01*
X162318011Y-111814516D01*
X162521889Y-111814516D01*
X162721848Y-111774742D01*
X162910206Y-111696721D01*
X163079724Y-111583453D01*
X163223887Y-111439290D01*
X163337155Y-111269772D01*
X163415176Y-111081414D01*
X163454950Y-110881455D01*
X163454950Y-110677577D01*
X163415176Y-110477618D01*
X163337155Y-110289260D01*
X163223887Y-110119742D01*
X163079724Y-109975579D01*
X162910206Y-109862311D01*
X162721848Y-109784290D01*
X162521889Y-109744516D01*
X162318011Y-109744516D01*
X162118052Y-109784290D01*
X161929694Y-109862311D01*
X161760176Y-109975579D01*
X161616013Y-110119742D01*
X161502745Y-110289260D01*
X161424724Y-110477618D01*
X161384950Y-110677577D01*
X159662840Y-110677577D01*
X159662840Y-110532322D01*
X159598086Y-110206784D01*
X159471068Y-109900133D01*
X159286665Y-109624155D01*
X159051965Y-109389455D01*
X158775987Y-109205052D01*
X158469336Y-109078034D01*
X158143798Y-109013280D01*
X157811882Y-109013280D01*
X157486344Y-109078034D01*
X157179693Y-109205052D01*
X156903715Y-109389455D01*
X156669015Y-109624155D01*
X156484612Y-109900133D01*
X156357594Y-110206784D01*
X156292840Y-110532322D01*
X145642040Y-110532322D01*
X145577286Y-110206784D01*
X145450268Y-109900133D01*
X145265865Y-109624155D01*
X145031165Y-109389455D01*
X144755187Y-109205052D01*
X144448536Y-109078034D01*
X144122998Y-109013280D01*
X143791082Y-109013280D01*
X143465544Y-109078034D01*
X143158893Y-109205052D01*
X142882915Y-109389455D01*
X142648215Y-109624155D01*
X142463812Y-109900133D01*
X142336794Y-110206784D01*
X142272040Y-110532322D01*
X131595840Y-110532322D01*
X131531086Y-110206784D01*
X131404068Y-109900133D01*
X131219665Y-109624155D01*
X130984965Y-109389455D01*
X130708987Y-109205052D01*
X130402336Y-109078034D01*
X130076798Y-109013280D01*
X129744882Y-109013280D01*
X129419344Y-109078034D01*
X129112693Y-109205052D01*
X128836715Y-109389455D01*
X128602015Y-109624155D01*
X128417612Y-109900133D01*
X128290594Y-110206784D01*
X128225840Y-110532322D01*
X123606160Y-110532322D01*
X123606160Y-108178261D01*
X123856800Y-108178261D01*
X123856800Y-108382139D01*
X123896574Y-108582098D01*
X123974595Y-108770456D01*
X124087863Y-108939974D01*
X124232026Y-109084137D01*
X124401544Y-109197405D01*
X124589902Y-109275426D01*
X124789861Y-109315200D01*
X124993739Y-109315200D01*
X125193698Y-109275426D01*
X125382056Y-109197405D01*
X125551574Y-109084137D01*
X125695737Y-108939974D01*
X125809005Y-108770456D01*
X125887026Y-108582098D01*
X125887722Y-108578600D01*
X125984339Y-108578600D01*
X126184298Y-108538826D01*
X126372656Y-108460805D01*
X126542174Y-108347537D01*
X126686337Y-108203374D01*
X126799605Y-108033856D01*
X126877626Y-107845498D01*
X126917400Y-107645539D01*
X126917400Y-107441661D01*
X126907296Y-107390861D01*
X161384950Y-107390861D01*
X161384950Y-107594739D01*
X161424724Y-107794698D01*
X161502745Y-107983056D01*
X161616013Y-108152574D01*
X161760176Y-108296737D01*
X161929694Y-108410005D01*
X162118052Y-108488026D01*
X162318011Y-108527800D01*
X162521889Y-108527800D01*
X162721848Y-108488026D01*
X162910206Y-108410005D01*
X163079724Y-108296737D01*
X163223887Y-108152574D01*
X163337155Y-107983056D01*
X163415176Y-107794698D01*
X163454950Y-107594739D01*
X163454950Y-107390861D01*
X163415176Y-107190902D01*
X163337155Y-107002544D01*
X163223887Y-106833026D01*
X163079724Y-106688863D01*
X162910206Y-106575595D01*
X162721848Y-106497574D01*
X162521889Y-106457800D01*
X162318011Y-106457800D01*
X162118052Y-106497574D01*
X161929694Y-106575595D01*
X161760176Y-106688863D01*
X161616013Y-106833026D01*
X161502745Y-107002544D01*
X161424724Y-107190902D01*
X161384950Y-107390861D01*
X126907296Y-107390861D01*
X126877626Y-107241702D01*
X126799605Y-107053344D01*
X126686337Y-106883826D01*
X126542174Y-106739663D01*
X126372656Y-106626395D01*
X126184298Y-106548374D01*
X125984339Y-106508600D01*
X125780461Y-106508600D01*
X125580502Y-106548374D01*
X125392144Y-106626395D01*
X125222626Y-106739663D01*
X125078463Y-106883826D01*
X124965195Y-107053344D01*
X124887174Y-107241702D01*
X124886478Y-107245200D01*
X124789861Y-107245200D01*
X124589902Y-107284974D01*
X124401544Y-107362995D01*
X124232026Y-107476263D01*
X124087863Y-107620426D01*
X123974595Y-107789944D01*
X123896574Y-107978302D01*
X123856800Y-108178261D01*
X123606160Y-108178261D01*
X123606160Y-103082711D01*
X126674600Y-103082711D01*
X126674600Y-103266889D01*
X126710532Y-103447529D01*
X126771160Y-103593900D01*
X126710532Y-103740271D01*
X126674600Y-103920911D01*
X126674600Y-104105089D01*
X126710532Y-104285729D01*
X126781014Y-104455889D01*
X126824520Y-104521000D01*
X126781014Y-104586111D01*
X126710532Y-104756271D01*
X126674600Y-104936911D01*
X126674600Y-105121089D01*
X126710532Y-105301729D01*
X126781014Y-105471889D01*
X126799062Y-105498900D01*
X126781014Y-105525911D01*
X126710532Y-105696071D01*
X126674600Y-105876711D01*
X126674600Y-106060889D01*
X126710532Y-106241529D01*
X126781014Y-106411689D01*
X126883338Y-106564828D01*
X127013572Y-106695062D01*
X127166711Y-106797386D01*
X127336871Y-106867868D01*
X127517511Y-106903800D01*
X127701689Y-106903800D01*
X127882329Y-106867868D01*
X128052489Y-106797386D01*
X128117600Y-106753880D01*
X128182711Y-106797386D01*
X128352871Y-106867868D01*
X128533511Y-106903800D01*
X128717689Y-106903800D01*
X128898329Y-106867868D01*
X129068489Y-106797386D01*
X129133600Y-106753880D01*
X129198711Y-106797386D01*
X129368871Y-106867868D01*
X129549511Y-106903800D01*
X129733689Y-106903800D01*
X129914329Y-106867868D01*
X130084489Y-106797386D01*
X130149600Y-106753880D01*
X130214711Y-106797386D01*
X130384871Y-106867868D01*
X130565511Y-106903800D01*
X130749689Y-106903800D01*
X130930329Y-106867868D01*
X131100489Y-106797386D01*
X131253628Y-106695062D01*
X131383862Y-106564828D01*
X131486186Y-106411689D01*
X131556668Y-106241529D01*
X131592600Y-106060889D01*
X131592600Y-105876711D01*
X131556668Y-105696071D01*
X131486186Y-105525911D01*
X131468138Y-105498900D01*
X131486186Y-105471889D01*
X131556668Y-105301729D01*
X131592600Y-105121089D01*
X131592600Y-104936911D01*
X131556668Y-104756271D01*
X131486186Y-104586111D01*
X131442680Y-104521000D01*
X131486186Y-104455889D01*
X131556668Y-104285729D01*
X131592600Y-104105089D01*
X131592600Y-103920911D01*
X131556668Y-103740271D01*
X131496040Y-103593900D01*
X131556668Y-103447529D01*
X131592600Y-103266889D01*
X131592600Y-103082711D01*
X131587548Y-103057311D01*
X144302200Y-103057311D01*
X144302200Y-103241489D01*
X144338132Y-103422129D01*
X144398760Y-103568500D01*
X144338132Y-103714871D01*
X144302200Y-103895511D01*
X144302200Y-104079689D01*
X144338132Y-104260329D01*
X144408614Y-104430489D01*
X144452120Y-104495600D01*
X144408614Y-104560711D01*
X144338132Y-104730871D01*
X144302200Y-104911511D01*
X144302200Y-105095689D01*
X144338132Y-105276329D01*
X144408614Y-105446489D01*
X144426662Y-105473500D01*
X144408614Y-105500511D01*
X144338132Y-105670671D01*
X144302200Y-105851311D01*
X144302200Y-106035489D01*
X144338132Y-106216129D01*
X144408614Y-106386289D01*
X144510938Y-106539428D01*
X144641172Y-106669662D01*
X144794311Y-106771986D01*
X144964471Y-106842468D01*
X145145111Y-106878400D01*
X145329289Y-106878400D01*
X145509929Y-106842468D01*
X145680089Y-106771986D01*
X145745200Y-106728480D01*
X145810311Y-106771986D01*
X145980471Y-106842468D01*
X146161111Y-106878400D01*
X146345289Y-106878400D01*
X146525929Y-106842468D01*
X146696089Y-106771986D01*
X146761200Y-106728480D01*
X146826311Y-106771986D01*
X146996471Y-106842468D01*
X147177111Y-106878400D01*
X147361289Y-106878400D01*
X147541929Y-106842468D01*
X147712089Y-106771986D01*
X147777200Y-106728480D01*
X147842311Y-106771986D01*
X148012471Y-106842468D01*
X148193111Y-106878400D01*
X148377289Y-106878400D01*
X148557929Y-106842468D01*
X148728089Y-106771986D01*
X148881228Y-106669662D01*
X149011462Y-106539428D01*
X149113786Y-106386289D01*
X149184268Y-106216129D01*
X149220200Y-106035489D01*
X149220200Y-105851311D01*
X149184268Y-105670671D01*
X149113786Y-105500511D01*
X149095738Y-105473500D01*
X149113786Y-105446489D01*
X149184268Y-105276329D01*
X149220200Y-105095689D01*
X149220200Y-104911511D01*
X149184268Y-104730871D01*
X149113786Y-104560711D01*
X149070280Y-104495600D01*
X149113786Y-104430489D01*
X149184268Y-104260329D01*
X149220200Y-104079689D01*
X149220200Y-103895511D01*
X149184268Y-103714871D01*
X149123640Y-103568500D01*
X149184268Y-103422129D01*
X149220200Y-103241489D01*
X149220200Y-103057311D01*
X150042600Y-103057311D01*
X150042600Y-103241489D01*
X150078532Y-103422129D01*
X150139160Y-103568500D01*
X150078532Y-103714871D01*
X150042600Y-103895511D01*
X150042600Y-104079689D01*
X150078532Y-104260329D01*
X150149014Y-104430489D01*
X150192520Y-104495600D01*
X150149014Y-104560711D01*
X150078532Y-104730871D01*
X150042600Y-104911511D01*
X150042600Y-105095689D01*
X150078532Y-105276329D01*
X150149014Y-105446489D01*
X150167062Y-105473500D01*
X150149014Y-105500511D01*
X150078532Y-105670671D01*
X150042600Y-105851311D01*
X150042600Y-106035489D01*
X150078532Y-106216129D01*
X150149014Y-106386289D01*
X150251338Y-106539428D01*
X150381572Y-106669662D01*
X150534711Y-106771986D01*
X150704871Y-106842468D01*
X150885511Y-106878400D01*
X151069689Y-106878400D01*
X151250329Y-106842468D01*
X151420489Y-106771986D01*
X151485600Y-106728480D01*
X151550711Y-106771986D01*
X151720871Y-106842468D01*
X151901511Y-106878400D01*
X152085689Y-106878400D01*
X152266329Y-106842468D01*
X152436489Y-106771986D01*
X152501600Y-106728480D01*
X152566711Y-106771986D01*
X152736871Y-106842468D01*
X152917511Y-106878400D01*
X153101689Y-106878400D01*
X153282329Y-106842468D01*
X153452489Y-106771986D01*
X153517600Y-106728480D01*
X153582711Y-106771986D01*
X153752871Y-106842468D01*
X153933511Y-106878400D01*
X154117689Y-106878400D01*
X154298329Y-106842468D01*
X154468489Y-106771986D01*
X154621628Y-106669662D01*
X154751862Y-106539428D01*
X154854186Y-106386289D01*
X154924668Y-106216129D01*
X154960600Y-106035489D01*
X154960600Y-105851311D01*
X154924668Y-105670671D01*
X154854186Y-105500511D01*
X154836138Y-105473500D01*
X154854186Y-105446489D01*
X154924668Y-105276329D01*
X154960600Y-105095689D01*
X154960600Y-104911511D01*
X154924668Y-104730871D01*
X154854186Y-104560711D01*
X154810680Y-104495600D01*
X154854186Y-104430489D01*
X154924668Y-104260329D01*
X154960600Y-104079689D01*
X154960600Y-103895511D01*
X154924668Y-103714871D01*
X154864040Y-103568500D01*
X154924668Y-103422129D01*
X154960600Y-103241489D01*
X154960600Y-103057311D01*
X154924668Y-102876671D01*
X154854186Y-102706511D01*
X154751862Y-102553372D01*
X154621628Y-102423138D01*
X154468489Y-102320814D01*
X154298329Y-102250332D01*
X154117689Y-102214400D01*
X153933511Y-102214400D01*
X153752871Y-102250332D01*
X153582711Y-102320814D01*
X153517600Y-102364320D01*
X153452489Y-102320814D01*
X153282329Y-102250332D01*
X153101689Y-102214400D01*
X152917511Y-102214400D01*
X152736871Y-102250332D01*
X152566711Y-102320814D01*
X152501600Y-102364320D01*
X152436489Y-102320814D01*
X152266329Y-102250332D01*
X152085689Y-102214400D01*
X151901511Y-102214400D01*
X151720871Y-102250332D01*
X151550711Y-102320814D01*
X151485600Y-102364320D01*
X151420489Y-102320814D01*
X151250329Y-102250332D01*
X151069689Y-102214400D01*
X150885511Y-102214400D01*
X150704871Y-102250332D01*
X150534711Y-102320814D01*
X150381572Y-102423138D01*
X150251338Y-102553372D01*
X150149014Y-102706511D01*
X150078532Y-102876671D01*
X150042600Y-103057311D01*
X149220200Y-103057311D01*
X149184268Y-102876671D01*
X149113786Y-102706511D01*
X149011462Y-102553372D01*
X148881228Y-102423138D01*
X148728089Y-102320814D01*
X148557929Y-102250332D01*
X148377289Y-102214400D01*
X148193111Y-102214400D01*
X148012471Y-102250332D01*
X147842311Y-102320814D01*
X147777200Y-102364320D01*
X147712089Y-102320814D01*
X147541929Y-102250332D01*
X147361289Y-102214400D01*
X147177111Y-102214400D01*
X146996471Y-102250332D01*
X146826311Y-102320814D01*
X146761200Y-102364320D01*
X146696089Y-102320814D01*
X146525929Y-102250332D01*
X146345289Y-102214400D01*
X146161111Y-102214400D01*
X145980471Y-102250332D01*
X145810311Y-102320814D01*
X145745200Y-102364320D01*
X145680089Y-102320814D01*
X145509929Y-102250332D01*
X145329289Y-102214400D01*
X145145111Y-102214400D01*
X144964471Y-102250332D01*
X144794311Y-102320814D01*
X144641172Y-102423138D01*
X144510938Y-102553372D01*
X144408614Y-102706511D01*
X144338132Y-102876671D01*
X144302200Y-103057311D01*
X131587548Y-103057311D01*
X131556668Y-102902071D01*
X131486186Y-102731911D01*
X131383862Y-102578772D01*
X131253628Y-102448538D01*
X131100489Y-102346214D01*
X130930329Y-102275732D01*
X130749689Y-102239800D01*
X130565511Y-102239800D01*
X130384871Y-102275732D01*
X130214711Y-102346214D01*
X130149600Y-102389720D01*
X130084489Y-102346214D01*
X129914329Y-102275732D01*
X129733689Y-102239800D01*
X129549511Y-102239800D01*
X129368871Y-102275732D01*
X129198711Y-102346214D01*
X129133600Y-102389720D01*
X129068489Y-102346214D01*
X128898329Y-102275732D01*
X128717689Y-102239800D01*
X128533511Y-102239800D01*
X128352871Y-102275732D01*
X128182711Y-102346214D01*
X128117600Y-102389720D01*
X128052489Y-102346214D01*
X127882329Y-102275732D01*
X127701689Y-102239800D01*
X127517511Y-102239800D01*
X127336871Y-102275732D01*
X127166711Y-102346214D01*
X127013572Y-102448538D01*
X126883338Y-102578772D01*
X126781014Y-102731911D01*
X126710532Y-102902071D01*
X126674600Y-103082711D01*
X123606160Y-103082711D01*
X123606160Y-101371061D01*
X123856800Y-101371061D01*
X123856800Y-101574939D01*
X123896574Y-101774898D01*
X123974595Y-101963256D01*
X124087863Y-102132774D01*
X124232026Y-102276937D01*
X124401544Y-102390205D01*
X124589902Y-102468226D01*
X124789861Y-102508000D01*
X124993739Y-102508000D01*
X125193698Y-102468226D01*
X125382056Y-102390205D01*
X125551574Y-102276937D01*
X125695737Y-102132774D01*
X125809005Y-101963256D01*
X125856912Y-101847600D01*
X126035139Y-101847600D01*
X126235098Y-101807826D01*
X126423456Y-101729805D01*
X126592974Y-101616537D01*
X126737137Y-101472374D01*
X126850405Y-101302856D01*
X126884002Y-101221747D01*
X126932663Y-101294574D01*
X127076826Y-101438737D01*
X127246344Y-101552005D01*
X127434702Y-101630026D01*
X127634661Y-101669800D01*
X127838539Y-101669800D01*
X128038498Y-101630026D01*
X128226856Y-101552005D01*
X128396374Y-101438737D01*
X128540537Y-101294574D01*
X128653805Y-101125056D01*
X128731826Y-100936698D01*
X128759000Y-100800084D01*
X128759000Y-100812939D01*
X128798774Y-101012898D01*
X128876795Y-101201256D01*
X128990063Y-101370774D01*
X129134226Y-101514937D01*
X129303744Y-101628205D01*
X129492102Y-101706226D01*
X129692061Y-101746000D01*
X129895939Y-101746000D01*
X130095898Y-101706226D01*
X130284256Y-101628205D01*
X130453774Y-101514937D01*
X130597937Y-101370774D01*
X130711205Y-101201256D01*
X130789226Y-101012898D01*
X130829000Y-100812939D01*
X130829000Y-100609061D01*
X130823948Y-100583661D01*
X143745000Y-100583661D01*
X143745000Y-100787539D01*
X143784774Y-100987498D01*
X143862795Y-101175856D01*
X143976063Y-101345374D01*
X144120226Y-101489537D01*
X144289744Y-101602805D01*
X144478102Y-101680826D01*
X144678061Y-101720600D01*
X144881939Y-101720600D01*
X145081898Y-101680826D01*
X145270256Y-101602805D01*
X145439774Y-101489537D01*
X145583937Y-101345374D01*
X145663958Y-101225614D01*
X145716995Y-101353656D01*
X145830263Y-101523174D01*
X145974426Y-101667337D01*
X146143944Y-101780605D01*
X146332302Y-101858626D01*
X146532261Y-101898400D01*
X146736139Y-101898400D01*
X146936098Y-101858626D01*
X147124456Y-101780605D01*
X147293974Y-101667337D01*
X147438137Y-101523174D01*
X147551405Y-101353656D01*
X147591961Y-101255747D01*
X147621995Y-101328256D01*
X147735263Y-101497774D01*
X147879426Y-101641937D01*
X148048944Y-101755205D01*
X148237302Y-101833226D01*
X148437261Y-101873000D01*
X148641139Y-101873000D01*
X148841098Y-101833226D01*
X149029456Y-101755205D01*
X149198974Y-101641937D01*
X149343137Y-101497774D01*
X149456405Y-101328256D01*
X149534426Y-101139898D01*
X149574200Y-100939939D01*
X149574200Y-100761461D01*
X150349000Y-100761461D01*
X150349000Y-100965339D01*
X150388774Y-101165298D01*
X150466795Y-101353656D01*
X150580063Y-101523174D01*
X150724226Y-101667337D01*
X150893744Y-101780605D01*
X151082102Y-101858626D01*
X151282061Y-101898400D01*
X151485939Y-101898400D01*
X151685898Y-101858626D01*
X151874256Y-101780605D01*
X152043774Y-101667337D01*
X152187937Y-101523174D01*
X152301205Y-101353656D01*
X152379226Y-101165298D01*
X152419000Y-100965339D01*
X152419000Y-100761461D01*
X152413948Y-100736061D01*
X152457200Y-100736061D01*
X152457200Y-100939939D01*
X152496974Y-101139898D01*
X152574995Y-101328256D01*
X152688263Y-101497774D01*
X152832426Y-101641937D01*
X153001944Y-101755205D01*
X153190302Y-101833226D01*
X153390261Y-101873000D01*
X153594139Y-101873000D01*
X153794098Y-101833226D01*
X153982456Y-101755205D01*
X154151974Y-101641937D01*
X154296137Y-101497774D01*
X154409405Y-101328256D01*
X154487426Y-101139898D01*
X154527200Y-100939939D01*
X154527200Y-100736061D01*
X154487426Y-100536102D01*
X154444000Y-100431261D01*
X159498080Y-100431261D01*
X159498080Y-100635139D01*
X159537854Y-100835098D01*
X159615875Y-101023456D01*
X159729143Y-101192974D01*
X159873306Y-101337137D01*
X160042824Y-101450405D01*
X160231182Y-101528426D01*
X160431141Y-101568200D01*
X160509000Y-101568200D01*
X160509000Y-101651139D01*
X160548774Y-101851098D01*
X160626795Y-102039456D01*
X160740063Y-102208974D01*
X160884226Y-102353137D01*
X161053744Y-102466405D01*
X161242102Y-102544426D01*
X161442061Y-102584200D01*
X161645939Y-102584200D01*
X161845898Y-102544426D01*
X162034256Y-102466405D01*
X162203774Y-102353137D01*
X162347937Y-102208974D01*
X162461205Y-102039456D01*
X162530896Y-101871208D01*
X162721848Y-101833226D01*
X162910206Y-101755205D01*
X163079724Y-101641937D01*
X163223887Y-101497774D01*
X163337155Y-101328256D01*
X163415176Y-101139898D01*
X163454950Y-100939939D01*
X163454950Y-100736061D01*
X163415176Y-100536102D01*
X163337155Y-100347744D01*
X163223887Y-100178226D01*
X163079724Y-100034063D01*
X162910206Y-99920795D01*
X162721848Y-99842774D01*
X162521889Y-99803000D01*
X162318011Y-99803000D01*
X162118052Y-99842774D01*
X161929694Y-99920795D01*
X161760176Y-100034063D01*
X161616013Y-100178226D01*
X161540291Y-100291553D01*
X161528306Y-100231302D01*
X161450285Y-100042944D01*
X161337017Y-99873426D01*
X161192854Y-99729263D01*
X161023336Y-99615995D01*
X160834978Y-99537974D01*
X160635019Y-99498200D01*
X160431141Y-99498200D01*
X160231182Y-99537974D01*
X160042824Y-99615995D01*
X159873306Y-99729263D01*
X159729143Y-99873426D01*
X159615875Y-100042944D01*
X159537854Y-100231302D01*
X159498080Y-100431261D01*
X154444000Y-100431261D01*
X154409405Y-100347744D01*
X154296137Y-100178226D01*
X154151974Y-100034063D01*
X153982456Y-99920795D01*
X153794098Y-99842774D01*
X153594139Y-99803000D01*
X153390261Y-99803000D01*
X153190302Y-99842774D01*
X153001944Y-99920795D01*
X152832426Y-100034063D01*
X152688263Y-100178226D01*
X152574995Y-100347744D01*
X152496974Y-100536102D01*
X152457200Y-100736061D01*
X152413948Y-100736061D01*
X152379226Y-100561502D01*
X152301205Y-100373144D01*
X152187937Y-100203626D01*
X152043774Y-100059463D01*
X151874256Y-99946195D01*
X151685898Y-99868174D01*
X151485939Y-99828400D01*
X151282061Y-99828400D01*
X151082102Y-99868174D01*
X150893744Y-99946195D01*
X150724226Y-100059463D01*
X150580063Y-100203626D01*
X150466795Y-100373144D01*
X150388774Y-100561502D01*
X150349000Y-100761461D01*
X149574200Y-100761461D01*
X149574200Y-100736061D01*
X149534426Y-100536102D01*
X149456405Y-100347744D01*
X149343137Y-100178226D01*
X149198974Y-100034063D01*
X149029456Y-99920795D01*
X148841098Y-99842774D01*
X148641139Y-99803000D01*
X148437261Y-99803000D01*
X148237302Y-99842774D01*
X148048944Y-99920795D01*
X147879426Y-100034063D01*
X147735263Y-100178226D01*
X147621995Y-100347744D01*
X147581439Y-100445653D01*
X147551405Y-100373144D01*
X147438137Y-100203626D01*
X147293974Y-100059463D01*
X147124456Y-99946195D01*
X146936098Y-99868174D01*
X146736139Y-99828400D01*
X146532261Y-99828400D01*
X146332302Y-99868174D01*
X146143944Y-99946195D01*
X145974426Y-100059463D01*
X145830263Y-100203626D01*
X145750242Y-100323386D01*
X145697205Y-100195344D01*
X145583937Y-100025826D01*
X145439774Y-99881663D01*
X145270256Y-99768395D01*
X145081898Y-99690374D01*
X144881939Y-99650600D01*
X144678061Y-99650600D01*
X144478102Y-99690374D01*
X144289744Y-99768395D01*
X144120226Y-99881663D01*
X143976063Y-100025826D01*
X143862795Y-100195344D01*
X143784774Y-100383702D01*
X143745000Y-100583661D01*
X130823948Y-100583661D01*
X130789226Y-100409102D01*
X130711205Y-100220744D01*
X130597937Y-100051226D01*
X130453774Y-99907063D01*
X130284256Y-99793795D01*
X130095898Y-99715774D01*
X129895939Y-99676000D01*
X129692061Y-99676000D01*
X129492102Y-99715774D01*
X129303744Y-99793795D01*
X129134226Y-99907063D01*
X128990063Y-100051226D01*
X128876795Y-100220744D01*
X128798774Y-100409102D01*
X128771600Y-100545716D01*
X128771600Y-100532861D01*
X128731826Y-100332902D01*
X128653805Y-100144544D01*
X128540537Y-99975026D01*
X128396374Y-99830863D01*
X128226856Y-99717595D01*
X128038498Y-99639574D01*
X127838539Y-99599800D01*
X127634661Y-99599800D01*
X127434702Y-99639574D01*
X127246344Y-99717595D01*
X127076826Y-99830863D01*
X126932663Y-99975026D01*
X126819395Y-100144544D01*
X126785798Y-100225653D01*
X126737137Y-100152826D01*
X126592974Y-100008663D01*
X126423456Y-99895395D01*
X126235098Y-99817374D01*
X126035139Y-99777600D01*
X125831261Y-99777600D01*
X125631302Y-99817374D01*
X125442944Y-99895395D01*
X125273426Y-100008663D01*
X125129263Y-100152826D01*
X125015995Y-100322344D01*
X124968088Y-100438000D01*
X124789861Y-100438000D01*
X124589902Y-100477774D01*
X124401544Y-100555795D01*
X124232026Y-100669063D01*
X124087863Y-100813226D01*
X123974595Y-100982744D01*
X123896574Y-101171102D01*
X123856800Y-101371061D01*
X123606160Y-101371061D01*
X123606160Y-98150341D01*
X139015440Y-98150341D01*
X139015440Y-98354219D01*
X139055214Y-98554178D01*
X139133235Y-98742536D01*
X139246503Y-98912054D01*
X139390666Y-99056217D01*
X139560184Y-99169485D01*
X139748542Y-99247506D01*
X139948501Y-99287280D01*
X140152379Y-99287280D01*
X140352338Y-99247506D01*
X140540696Y-99169485D01*
X140710214Y-99056217D01*
X140854377Y-98912054D01*
X140967645Y-98742536D01*
X141001800Y-98660079D01*
X141001800Y-98684419D01*
X141041574Y-98884378D01*
X141119595Y-99072736D01*
X141232863Y-99242254D01*
X141377026Y-99386417D01*
X141546544Y-99499685D01*
X141734902Y-99577706D01*
X141934861Y-99617480D01*
X142138739Y-99617480D01*
X142338698Y-99577706D01*
X142527056Y-99499685D01*
X142696574Y-99386417D01*
X142840737Y-99242254D01*
X142954005Y-99072736D01*
X143032026Y-98884378D01*
X143041484Y-98836827D01*
X143178871Y-98928626D01*
X143349031Y-98999108D01*
X143529671Y-99035040D01*
X143713849Y-99035040D01*
X143894489Y-98999108D01*
X144064649Y-98928626D01*
X144217788Y-98826302D01*
X144348022Y-98696068D01*
X144450346Y-98542929D01*
X144520828Y-98372769D01*
X144556760Y-98192129D01*
X144556760Y-98007951D01*
X144520828Y-97827311D01*
X144450346Y-97657151D01*
X144348022Y-97504012D01*
X144217788Y-97373778D01*
X144064649Y-97271454D01*
X143894489Y-97200972D01*
X143713849Y-97165040D01*
X143529671Y-97165040D01*
X143349031Y-97200972D01*
X143178871Y-97271454D01*
X143025732Y-97373778D01*
X142895498Y-97504012D01*
X142793174Y-97657151D01*
X142729326Y-97811295D01*
X142696574Y-97778543D01*
X142527056Y-97665275D01*
X142338698Y-97587254D01*
X142138739Y-97547480D01*
X141934861Y-97547480D01*
X141734902Y-97587254D01*
X141546544Y-97665275D01*
X141377026Y-97778543D01*
X141232863Y-97922706D01*
X141119595Y-98092224D01*
X141085440Y-98174681D01*
X141085440Y-98150341D01*
X141045666Y-97950382D01*
X140967645Y-97762024D01*
X140854377Y-97592506D01*
X140710214Y-97448343D01*
X140540696Y-97335075D01*
X140352338Y-97257054D01*
X140152379Y-97217280D01*
X139948501Y-97217280D01*
X139748542Y-97257054D01*
X139560184Y-97335075D01*
X139390666Y-97448343D01*
X139246503Y-97592506D01*
X139133235Y-97762024D01*
X139055214Y-97950382D01*
X139015440Y-98150341D01*
X123606160Y-98150341D01*
X123606160Y-95173461D01*
X124822000Y-95173461D01*
X124822000Y-95377339D01*
X124861774Y-95577298D01*
X124939795Y-95765656D01*
X125053063Y-95935174D01*
X125197226Y-96079337D01*
X125366744Y-96192605D01*
X125555102Y-96270626D01*
X125755061Y-96310400D01*
X125958939Y-96310400D01*
X126158898Y-96270626D01*
X126347256Y-96192605D01*
X126516774Y-96079337D01*
X126660937Y-95935174D01*
X126774205Y-95765656D01*
X126788166Y-95731951D01*
X128584680Y-95731951D01*
X128584680Y-95916129D01*
X128620612Y-96096769D01*
X128691094Y-96266929D01*
X128793418Y-96420068D01*
X128923652Y-96550302D01*
X129076791Y-96652626D01*
X129246951Y-96723108D01*
X129427591Y-96759040D01*
X129611769Y-96759040D01*
X129792409Y-96723108D01*
X129962569Y-96652626D01*
X129966096Y-96650269D01*
X154712282Y-96650269D01*
X154712282Y-96834447D01*
X154748214Y-97015087D01*
X154818696Y-97185247D01*
X154921020Y-97338386D01*
X155051254Y-97468620D01*
X155204393Y-97570944D01*
X155374553Y-97641426D01*
X155555193Y-97677358D01*
X155739371Y-97677358D01*
X155920011Y-97641426D01*
X156090171Y-97570944D01*
X156243310Y-97468620D01*
X156373544Y-97338386D01*
X156475868Y-97185247D01*
X156546350Y-97015087D01*
X156582282Y-96834447D01*
X156582282Y-96650269D01*
X156546350Y-96469629D01*
X156475868Y-96299469D01*
X156373544Y-96146330D01*
X156243310Y-96016096D01*
X156090171Y-95913772D01*
X155920011Y-95843290D01*
X155739371Y-95807358D01*
X155555193Y-95807358D01*
X155374553Y-95843290D01*
X155204393Y-95913772D01*
X155051254Y-96016096D01*
X154921020Y-96146330D01*
X154818696Y-96299469D01*
X154748214Y-96469629D01*
X154712282Y-96650269D01*
X129966096Y-96650269D01*
X130115708Y-96550302D01*
X130245942Y-96420068D01*
X130348266Y-96266929D01*
X130418748Y-96096769D01*
X130454680Y-95916129D01*
X130454680Y-95731951D01*
X130418748Y-95551311D01*
X130348266Y-95381151D01*
X130341823Y-95371509D01*
X130493449Y-95341348D01*
X130663609Y-95270866D01*
X130816748Y-95168542D01*
X130878179Y-95107111D01*
X134929600Y-95107111D01*
X134929600Y-95291289D01*
X134965532Y-95471929D01*
X135036014Y-95642089D01*
X135138338Y-95795228D01*
X135268572Y-95925462D01*
X135421711Y-96027786D01*
X135591871Y-96098268D01*
X135772511Y-96134200D01*
X135956689Y-96134200D01*
X136137329Y-96098268D01*
X136307489Y-96027786D01*
X136460628Y-95925462D01*
X136590862Y-95795228D01*
X136693186Y-95642089D01*
X136763668Y-95471929D01*
X136799600Y-95291289D01*
X136799600Y-95107111D01*
X136763668Y-94926471D01*
X136693186Y-94756311D01*
X136590862Y-94603172D01*
X136460628Y-94472938D01*
X136307489Y-94370614D01*
X136137329Y-94300132D01*
X135956689Y-94264200D01*
X135772511Y-94264200D01*
X135591871Y-94300132D01*
X135421711Y-94370614D01*
X135268572Y-94472938D01*
X135138338Y-94603172D01*
X135036014Y-94756311D01*
X134965532Y-94926471D01*
X134929600Y-95107111D01*
X130878179Y-95107111D01*
X130946982Y-95038308D01*
X131049306Y-94885169D01*
X131119788Y-94715009D01*
X131155720Y-94534369D01*
X131155720Y-94350191D01*
X131119788Y-94169551D01*
X131049306Y-93999391D01*
X130946982Y-93846252D01*
X130816748Y-93716018D01*
X130663609Y-93613694D01*
X130493449Y-93543212D01*
X130312809Y-93507280D01*
X130128631Y-93507280D01*
X129947991Y-93543212D01*
X129777831Y-93613694D01*
X129624692Y-93716018D01*
X129494458Y-93846252D01*
X129392134Y-93999391D01*
X129321652Y-94169551D01*
X129285720Y-94350191D01*
X129285720Y-94534369D01*
X129321652Y-94715009D01*
X129392134Y-94885169D01*
X129398577Y-94894811D01*
X129246951Y-94924972D01*
X129076791Y-94995454D01*
X128923652Y-95097778D01*
X128793418Y-95228012D01*
X128691094Y-95381151D01*
X128620612Y-95551311D01*
X128584680Y-95731951D01*
X126788166Y-95731951D01*
X126852226Y-95577298D01*
X126892000Y-95377339D01*
X126892000Y-95173461D01*
X126852226Y-94973502D01*
X126774205Y-94785144D01*
X126660937Y-94615626D01*
X126516774Y-94471463D01*
X126347256Y-94358195D01*
X126158898Y-94280174D01*
X125958939Y-94240400D01*
X125755061Y-94240400D01*
X125555102Y-94280174D01*
X125366744Y-94358195D01*
X125197226Y-94471463D01*
X125053063Y-94615626D01*
X124939795Y-94785144D01*
X124861774Y-94973502D01*
X124822000Y-95173461D01*
X123606160Y-95173461D01*
X123606160Y-93165660D01*
X130762064Y-93165660D01*
X130762064Y-93349838D01*
X130797996Y-93530478D01*
X130868478Y-93700638D01*
X130970802Y-93853777D01*
X131101036Y-93984011D01*
X131254175Y-94086335D01*
X131424335Y-94156817D01*
X131604975Y-94192749D01*
X131789153Y-94192749D01*
X131969793Y-94156817D01*
X132139953Y-94086335D01*
X132293092Y-93984011D01*
X132423326Y-93853777D01*
X132520790Y-93707911D01*
X146639000Y-93707911D01*
X146639000Y-93892089D01*
X146674932Y-94072729D01*
X146745414Y-94242889D01*
X146847738Y-94396028D01*
X146977972Y-94526262D01*
X147131111Y-94628586D01*
X147301271Y-94699068D01*
X147481911Y-94735000D01*
X147666089Y-94735000D01*
X147846729Y-94699068D01*
X148016889Y-94628586D01*
X148125963Y-94555705D01*
X148091614Y-94607112D01*
X148021132Y-94777272D01*
X147985200Y-94957912D01*
X147985200Y-95142090D01*
X148021132Y-95322730D01*
X148091614Y-95492890D01*
X148193938Y-95646029D01*
X148324172Y-95776263D01*
X148477311Y-95878587D01*
X148647471Y-95949069D01*
X148828111Y-95985001D01*
X149012289Y-95985001D01*
X149192929Y-95949069D01*
X149363089Y-95878587D01*
X149516228Y-95776263D01*
X149646462Y-95646029D01*
X149748786Y-95492890D01*
X149763390Y-95457631D01*
X152176200Y-95457631D01*
X152176200Y-95641809D01*
X152212132Y-95822449D01*
X152282614Y-95992609D01*
X152384938Y-96145748D01*
X152515172Y-96275982D01*
X152668311Y-96378306D01*
X152838471Y-96448788D01*
X153019111Y-96484720D01*
X153203289Y-96484720D01*
X153383929Y-96448788D01*
X153554089Y-96378306D01*
X153707228Y-96275982D01*
X153837462Y-96145748D01*
X153939786Y-95992609D01*
X154010268Y-95822449D01*
X154046200Y-95641809D01*
X154046200Y-95457631D01*
X154010268Y-95276991D01*
X153939786Y-95106831D01*
X153837462Y-94953692D01*
X153707228Y-94823458D01*
X153687306Y-94810147D01*
X153850679Y-94742476D01*
X154003818Y-94640152D01*
X154134052Y-94509918D01*
X154236376Y-94356779D01*
X154250339Y-94323069D01*
X154374452Y-94447182D01*
X154527591Y-94549506D01*
X154697751Y-94619988D01*
X154878391Y-94655920D01*
X155062569Y-94655920D01*
X155243209Y-94619988D01*
X155413369Y-94549506D01*
X155566508Y-94447182D01*
X155696742Y-94316948D01*
X155799066Y-94163809D01*
X155869548Y-93993649D01*
X155905480Y-93813009D01*
X155905480Y-93628831D01*
X155869548Y-93448191D01*
X155799066Y-93278031D01*
X155696742Y-93124892D01*
X155566508Y-92994658D01*
X155443379Y-92912386D01*
X155481969Y-92904710D01*
X155652129Y-92834228D01*
X155805268Y-92731904D01*
X155827821Y-92709351D01*
X157962320Y-92709351D01*
X157962320Y-92893529D01*
X157998252Y-93074169D01*
X158068734Y-93244329D01*
X158171058Y-93397468D01*
X158301292Y-93527702D01*
X158454431Y-93630026D01*
X158624591Y-93700508D01*
X158805231Y-93736440D01*
X158989409Y-93736440D01*
X159170049Y-93700508D01*
X159340209Y-93630026D01*
X159493348Y-93527702D01*
X159614368Y-93406682D01*
X159614368Y-93888041D01*
X159631432Y-94061295D01*
X159681968Y-94227891D01*
X159764035Y-94381427D01*
X159874478Y-94516002D01*
X160009053Y-94626445D01*
X160162589Y-94708512D01*
X160329185Y-94759048D01*
X160502439Y-94776112D01*
X161752441Y-94776112D01*
X161925695Y-94759048D01*
X162092291Y-94708512D01*
X162245827Y-94626445D01*
X162380402Y-94516002D01*
X162490845Y-94381427D01*
X162572912Y-94227891D01*
X162623448Y-94061295D01*
X162640512Y-93888041D01*
X162640512Y-93188039D01*
X162623448Y-93014785D01*
X162572912Y-92848189D01*
X162490845Y-92694653D01*
X162380402Y-92560078D01*
X162245827Y-92449635D01*
X162241329Y-92447231D01*
X162279942Y-92415542D01*
X162434273Y-92227489D01*
X162548951Y-92012941D01*
X162619570Y-91780142D01*
X162643415Y-91538040D01*
X162619570Y-91295938D01*
X162548951Y-91063139D01*
X162434273Y-90848591D01*
X162279942Y-90660538D01*
X162130678Y-90538040D01*
X162279942Y-90415542D01*
X162434273Y-90227489D01*
X162548951Y-90012941D01*
X162619570Y-89780142D01*
X162643415Y-89538040D01*
X162619570Y-89295938D01*
X162548951Y-89063139D01*
X162434273Y-88848591D01*
X162279942Y-88660538D01*
X162130678Y-88538040D01*
X162279942Y-88415542D01*
X162434273Y-88227489D01*
X162548951Y-88012941D01*
X162619570Y-87780142D01*
X162643415Y-87538040D01*
X162619570Y-87295938D01*
X162548951Y-87063139D01*
X162434273Y-86848591D01*
X162279942Y-86660538D01*
X162130678Y-86538040D01*
X162279942Y-86415542D01*
X162434273Y-86227489D01*
X162548951Y-86012941D01*
X162619570Y-85780142D01*
X162643415Y-85538040D01*
X162619570Y-85295938D01*
X162548951Y-85063139D01*
X162434273Y-84848591D01*
X162279942Y-84660538D01*
X162091889Y-84506207D01*
X161877341Y-84391529D01*
X161644542Y-84320910D01*
X161463105Y-84303040D01*
X160791775Y-84303040D01*
X160610338Y-84320910D01*
X160377539Y-84391529D01*
X160162991Y-84506207D01*
X159974938Y-84660538D01*
X159820607Y-84848591D01*
X159705929Y-85063139D01*
X159635310Y-85295938D01*
X159611465Y-85538040D01*
X159635310Y-85780142D01*
X159705929Y-86012941D01*
X159820607Y-86227489D01*
X159974938Y-86415542D01*
X160124202Y-86538040D01*
X159974938Y-86660538D01*
X159820607Y-86848591D01*
X159705929Y-87063139D01*
X159635310Y-87295938D01*
X159611465Y-87538040D01*
X159635310Y-87780142D01*
X159705929Y-88012941D01*
X159820607Y-88227489D01*
X159974938Y-88415542D01*
X160124202Y-88538040D01*
X159974938Y-88660538D01*
X159820607Y-88848591D01*
X159705929Y-89063139D01*
X159635310Y-89295938D01*
X159611465Y-89538040D01*
X159635310Y-89780142D01*
X159705929Y-90012941D01*
X159820607Y-90227489D01*
X159974938Y-90415542D01*
X160124202Y-90538040D01*
X159974938Y-90660538D01*
X159820607Y-90848591D01*
X159705929Y-91063139D01*
X159635310Y-91295938D01*
X159611465Y-91538040D01*
X159635310Y-91780142D01*
X159705929Y-92012941D01*
X159820607Y-92227489D01*
X159974938Y-92415542D01*
X160013551Y-92447231D01*
X160009053Y-92449635D01*
X159874478Y-92560078D01*
X159816645Y-92630548D01*
X159796388Y-92528711D01*
X159725906Y-92358551D01*
X159623582Y-92205412D01*
X159493348Y-92075178D01*
X159340209Y-91972854D01*
X159170049Y-91902372D01*
X158989409Y-91866440D01*
X158805231Y-91866440D01*
X158624591Y-91902372D01*
X158454431Y-91972854D01*
X158301292Y-92075178D01*
X158171058Y-92205412D01*
X158068734Y-92358551D01*
X157998252Y-92528711D01*
X157962320Y-92709351D01*
X155827821Y-92709351D01*
X155935502Y-92601670D01*
X156037826Y-92448531D01*
X156108308Y-92278371D01*
X156144240Y-92097731D01*
X156144240Y-91913553D01*
X156108308Y-91732913D01*
X156037826Y-91562753D01*
X155935502Y-91409614D01*
X155805268Y-91279380D01*
X155652129Y-91177056D01*
X155481969Y-91106574D01*
X155301329Y-91070642D01*
X155117151Y-91070642D01*
X154936511Y-91106574D01*
X154766351Y-91177056D01*
X154613212Y-91279380D01*
X154482978Y-91409614D01*
X154380654Y-91562753D01*
X154310172Y-91732913D01*
X154274240Y-91913553D01*
X154274240Y-92097731D01*
X154310172Y-92278371D01*
X154380654Y-92448531D01*
X154482978Y-92601670D01*
X154613212Y-92731904D01*
X154736341Y-92814176D01*
X154697751Y-92821852D01*
X154527591Y-92892334D01*
X154374452Y-92994658D01*
X154244218Y-93124892D01*
X154141894Y-93278031D01*
X154127931Y-93311741D01*
X154003818Y-93187628D01*
X153850679Y-93085304D01*
X153680519Y-93014822D01*
X153499879Y-92978890D01*
X153315701Y-92978890D01*
X153135061Y-93014822D01*
X152964901Y-93085304D01*
X152811762Y-93187628D01*
X152681528Y-93317862D01*
X152579204Y-93471001D01*
X152508722Y-93641161D01*
X152472790Y-93821801D01*
X152472790Y-94005979D01*
X152508722Y-94186619D01*
X152579204Y-94356779D01*
X152681528Y-94509918D01*
X152811762Y-94640152D01*
X152831684Y-94653463D01*
X152668311Y-94721134D01*
X152515172Y-94823458D01*
X152384938Y-94953692D01*
X152282614Y-95106831D01*
X152212132Y-95276991D01*
X152176200Y-95457631D01*
X149763390Y-95457631D01*
X149819268Y-95322730D01*
X149855200Y-95142090D01*
X149855200Y-94957912D01*
X149819268Y-94777272D01*
X149748786Y-94607112D01*
X149646462Y-94453973D01*
X149516228Y-94323739D01*
X149363089Y-94221415D01*
X149192929Y-94150933D01*
X149012289Y-94115001D01*
X148828111Y-94115001D01*
X148647471Y-94150933D01*
X148477311Y-94221415D01*
X148368237Y-94294296D01*
X148402586Y-94242889D01*
X148473068Y-94072729D01*
X148509000Y-93892089D01*
X148509000Y-93707911D01*
X148473068Y-93527271D01*
X148402586Y-93357111D01*
X148300262Y-93203972D01*
X148170028Y-93073738D01*
X148016889Y-92971414D01*
X147846729Y-92900932D01*
X147666089Y-92865000D01*
X147481911Y-92865000D01*
X147301271Y-92900932D01*
X147131111Y-92971414D01*
X146977972Y-93073738D01*
X146847738Y-93203972D01*
X146745414Y-93357111D01*
X146674932Y-93527271D01*
X146639000Y-93707911D01*
X132520790Y-93707911D01*
X132525650Y-93700638D01*
X132596132Y-93530478D01*
X132632064Y-93349838D01*
X132632064Y-93165660D01*
X132596132Y-92985020D01*
X132525650Y-92814860D01*
X132423326Y-92661721D01*
X132413667Y-92652062D01*
X144759400Y-92652062D01*
X144759400Y-92836240D01*
X144795332Y-93016880D01*
X144865814Y-93187040D01*
X144968138Y-93340179D01*
X145098372Y-93470413D01*
X145251511Y-93572737D01*
X145421671Y-93643219D01*
X145602311Y-93679151D01*
X145786489Y-93679151D01*
X145967129Y-93643219D01*
X146137289Y-93572737D01*
X146290428Y-93470413D01*
X146420662Y-93340179D01*
X146522986Y-93187040D01*
X146593468Y-93016880D01*
X146629400Y-92836240D01*
X146629400Y-92652062D01*
X146593468Y-92471422D01*
X146522986Y-92301262D01*
X146420662Y-92148123D01*
X146290428Y-92017889D01*
X146137289Y-91915565D01*
X145967129Y-91845083D01*
X145786489Y-91809151D01*
X145602311Y-91809151D01*
X145421671Y-91845083D01*
X145251511Y-91915565D01*
X145098372Y-92017889D01*
X144968138Y-92148123D01*
X144865814Y-92301262D01*
X144795332Y-92471422D01*
X144759400Y-92652062D01*
X132413667Y-92652062D01*
X132293092Y-92531487D01*
X132139953Y-92429163D01*
X131969793Y-92358681D01*
X131789153Y-92322749D01*
X131604975Y-92322749D01*
X131424335Y-92358681D01*
X131254175Y-92429163D01*
X131101036Y-92531487D01*
X130970802Y-92661721D01*
X130868478Y-92814860D01*
X130797996Y-92985020D01*
X130762064Y-93165660D01*
X123606160Y-93165660D01*
X123606160Y-89761449D01*
X144952440Y-89761449D01*
X144952440Y-89945627D01*
X144988372Y-90126267D01*
X145058854Y-90296427D01*
X145161178Y-90449566D01*
X145291412Y-90579800D01*
X145444551Y-90682124D01*
X145614711Y-90752606D01*
X145795351Y-90788538D01*
X145979529Y-90788538D01*
X146160169Y-90752606D01*
X146330329Y-90682124D01*
X146368471Y-90656639D01*
X146528342Y-90722859D01*
X146708982Y-90758791D01*
X146893160Y-90758791D01*
X147022370Y-90733089D01*
X147015831Y-90765962D01*
X147015831Y-90950140D01*
X147051763Y-91130780D01*
X147122245Y-91300940D01*
X147224569Y-91454079D01*
X147354803Y-91584313D01*
X147507942Y-91686637D01*
X147678102Y-91757119D01*
X147858742Y-91793051D01*
X148042920Y-91793051D01*
X148223560Y-91757119D01*
X148393720Y-91686637D01*
X148546859Y-91584313D01*
X148677093Y-91454079D01*
X148779417Y-91300940D01*
X148849899Y-91130780D01*
X148885831Y-90950140D01*
X148885831Y-90765962D01*
X148849899Y-90585322D01*
X148779417Y-90415162D01*
X148677093Y-90262023D01*
X148546859Y-90131789D01*
X148393720Y-90029465D01*
X148223560Y-89958983D01*
X148042920Y-89923051D01*
X147858742Y-89923051D01*
X147729532Y-89948753D01*
X147736071Y-89915880D01*
X147736071Y-89731702D01*
X147700139Y-89551062D01*
X147629657Y-89380902D01*
X147527333Y-89227763D01*
X147417361Y-89117791D01*
X148163000Y-89117791D01*
X148163000Y-89301969D01*
X148198932Y-89482609D01*
X148269414Y-89652769D01*
X148371738Y-89805908D01*
X148501972Y-89936142D01*
X148655111Y-90038466D01*
X148825271Y-90108948D01*
X149005911Y-90144880D01*
X149190089Y-90144880D01*
X149370729Y-90108948D01*
X149537378Y-90039920D01*
X149546633Y-90046104D01*
X149606383Y-90070853D01*
X149466452Y-90128814D01*
X149313313Y-90231138D01*
X149183079Y-90361372D01*
X149080755Y-90514511D01*
X149010273Y-90684671D01*
X148974341Y-90865311D01*
X148974341Y-91049489D01*
X149010273Y-91230129D01*
X149080755Y-91400289D01*
X149183079Y-91553428D01*
X149313313Y-91683662D01*
X149466452Y-91785986D01*
X149636612Y-91856468D01*
X149817252Y-91892400D01*
X150001430Y-91892400D01*
X150182070Y-91856468D01*
X150352230Y-91785986D01*
X150505369Y-91683662D01*
X150635603Y-91553428D01*
X150737927Y-91400289D01*
X150808409Y-91230129D01*
X150844341Y-91049489D01*
X150844341Y-90865311D01*
X150808409Y-90684671D01*
X150737927Y-90514511D01*
X150635603Y-90361372D01*
X150505369Y-90231138D01*
X150352230Y-90128814D01*
X150292480Y-90104065D01*
X150432411Y-90046104D01*
X150585550Y-89943780D01*
X150715784Y-89813546D01*
X150743298Y-89772368D01*
X150842899Y-89772368D01*
X151023539Y-89736436D01*
X151193699Y-89665954D01*
X151346838Y-89563630D01*
X151477072Y-89433396D01*
X151579396Y-89280257D01*
X151649878Y-89110097D01*
X151685810Y-88929457D01*
X151685810Y-88745279D01*
X151649878Y-88564639D01*
X151618793Y-88489591D01*
X151688520Y-88489591D01*
X151688520Y-88673769D01*
X151724452Y-88854409D01*
X151787524Y-89006680D01*
X151724452Y-89158951D01*
X151688520Y-89339591D01*
X151688520Y-89523769D01*
X151724452Y-89704409D01*
X151794934Y-89874569D01*
X151897258Y-90027708D01*
X152027492Y-90157942D01*
X152180631Y-90260266D01*
X152350791Y-90330748D01*
X152531431Y-90366680D01*
X152715609Y-90366680D01*
X152896249Y-90330748D01*
X153066409Y-90260266D01*
X153219548Y-90157942D01*
X153349782Y-90027708D01*
X153452106Y-89874569D01*
X153522588Y-89704409D01*
X153558520Y-89523769D01*
X153558520Y-89339591D01*
X153522588Y-89158951D01*
X153459516Y-89006680D01*
X153522588Y-88854409D01*
X153558520Y-88673769D01*
X153558520Y-88489591D01*
X153522588Y-88308951D01*
X153452106Y-88138791D01*
X153349782Y-87985652D01*
X153219548Y-87855418D01*
X153066409Y-87753094D01*
X152896249Y-87682612D01*
X152715609Y-87646680D01*
X152531431Y-87646680D01*
X152350791Y-87682612D01*
X152180631Y-87753094D01*
X152027492Y-87855418D01*
X151897258Y-87985652D01*
X151794934Y-88138791D01*
X151724452Y-88308951D01*
X151688520Y-88489591D01*
X151618793Y-88489591D01*
X151579396Y-88394479D01*
X151477072Y-88241340D01*
X151346838Y-88111106D01*
X151193699Y-88008782D01*
X151023539Y-87938300D01*
X150842899Y-87902368D01*
X150658721Y-87902368D01*
X150478081Y-87938300D01*
X150307921Y-88008782D01*
X150154782Y-88111106D01*
X150024548Y-88241340D01*
X149997034Y-88282518D01*
X149897433Y-88282518D01*
X149716793Y-88318450D01*
X149550144Y-88387478D01*
X149540889Y-88381294D01*
X149370729Y-88310812D01*
X149190089Y-88274880D01*
X149005911Y-88274880D01*
X148825271Y-88310812D01*
X148655111Y-88381294D01*
X148501972Y-88483618D01*
X148371738Y-88613852D01*
X148269414Y-88766991D01*
X148198932Y-88937151D01*
X148163000Y-89117791D01*
X147417361Y-89117791D01*
X147397099Y-89097529D01*
X147243960Y-88995205D01*
X147073800Y-88924723D01*
X146893160Y-88888791D01*
X146708982Y-88888791D01*
X146528342Y-88924723D01*
X146358182Y-88995205D01*
X146320040Y-89020690D01*
X146160169Y-88954470D01*
X145979529Y-88918538D01*
X145795351Y-88918538D01*
X145614711Y-88954470D01*
X145444551Y-89024952D01*
X145291412Y-89127276D01*
X145161178Y-89257510D01*
X145058854Y-89410649D01*
X144988372Y-89580809D01*
X144952440Y-89761449D01*
X123606160Y-89761449D01*
X123606160Y-88198311D01*
X128721198Y-88198311D01*
X128721198Y-88382489D01*
X128757130Y-88563129D01*
X128827612Y-88733289D01*
X128929936Y-88886428D01*
X129060170Y-89016662D01*
X129213309Y-89118986D01*
X129383469Y-89189468D01*
X129564109Y-89225400D01*
X129748287Y-89225400D01*
X129928927Y-89189468D01*
X130099087Y-89118986D01*
X130252226Y-89016662D01*
X130382460Y-88886428D01*
X130484784Y-88733289D01*
X130521288Y-88645161D01*
X130633470Y-88691628D01*
X130814110Y-88727560D01*
X130998288Y-88727560D01*
X131178928Y-88691628D01*
X131349088Y-88621146D01*
X131502227Y-88518822D01*
X131632461Y-88388588D01*
X131695481Y-88294272D01*
X131713311Y-88306186D01*
X131883471Y-88376668D01*
X132064111Y-88412600D01*
X132248289Y-88412600D01*
X132428929Y-88376668D01*
X132599089Y-88306186D01*
X132752228Y-88203862D01*
X132882462Y-88073628D01*
X132984786Y-87920489D01*
X133055268Y-87750329D01*
X133091200Y-87569689D01*
X133091200Y-87385511D01*
X133055268Y-87204871D01*
X132984786Y-87034711D01*
X132882462Y-86881572D01*
X132752228Y-86751338D01*
X132599089Y-86649014D01*
X132428929Y-86578532D01*
X132248289Y-86542600D01*
X132064111Y-86542600D01*
X131883471Y-86578532D01*
X131713311Y-86649014D01*
X131560172Y-86751338D01*
X131429938Y-86881572D01*
X131366918Y-86975888D01*
X131349088Y-86963974D01*
X131178928Y-86893492D01*
X130998288Y-86857560D01*
X130814110Y-86857560D01*
X130633470Y-86893492D01*
X130463310Y-86963974D01*
X130310171Y-87066298D01*
X130179937Y-87196532D01*
X130077613Y-87349671D01*
X130041109Y-87437799D01*
X129928927Y-87391332D01*
X129748287Y-87355400D01*
X129564109Y-87355400D01*
X129383469Y-87391332D01*
X129213309Y-87461814D01*
X129060170Y-87564138D01*
X128929936Y-87694372D01*
X128827612Y-87847511D01*
X128757130Y-88017671D01*
X128721198Y-88198311D01*
X123606160Y-88198311D01*
X123606160Y-85264408D01*
X131467377Y-85264408D01*
X131467377Y-85448586D01*
X131503309Y-85629226D01*
X131573791Y-85799386D01*
X131676115Y-85952525D01*
X131806349Y-86082759D01*
X131959488Y-86185083D01*
X132129648Y-86255565D01*
X132310288Y-86291497D01*
X132494466Y-86291497D01*
X132675106Y-86255565D01*
X132845266Y-86185083D01*
X132998405Y-86082759D01*
X133128639Y-85952525D01*
X133230963Y-85799386D01*
X133301445Y-85629226D01*
X133337377Y-85448586D01*
X133337377Y-85264408D01*
X133301445Y-85083768D01*
X133230963Y-84913608D01*
X133128639Y-84760469D01*
X133061281Y-84693111D01*
X133847560Y-84693111D01*
X133847560Y-84877289D01*
X133883492Y-85057929D01*
X133953974Y-85228089D01*
X134056298Y-85381228D01*
X134186532Y-85511462D01*
X134339671Y-85613786D01*
X134509831Y-85684268D01*
X134690471Y-85720200D01*
X134874649Y-85720200D01*
X135021399Y-85691009D01*
X135024732Y-85694342D01*
X135177871Y-85796666D01*
X135348031Y-85867148D01*
X135427992Y-85883053D01*
X135417120Y-85937711D01*
X135417120Y-86121889D01*
X135453052Y-86302529D01*
X135523534Y-86472689D01*
X135625858Y-86625828D01*
X135756092Y-86756062D01*
X135909231Y-86858386D01*
X136079391Y-86928868D01*
X136260031Y-86964800D01*
X136444209Y-86964800D01*
X136624849Y-86928868D01*
X136795009Y-86858386D01*
X136948148Y-86756062D01*
X137078382Y-86625828D01*
X137141494Y-86531374D01*
X138191653Y-86531374D01*
X138191653Y-86715552D01*
X138227585Y-86896192D01*
X138298067Y-87066352D01*
X138400391Y-87219491D01*
X138530625Y-87349725D01*
X138683764Y-87452049D01*
X138713446Y-87464344D01*
X138725056Y-87522711D01*
X138795538Y-87692871D01*
X138897862Y-87846010D01*
X139028096Y-87976244D01*
X139181235Y-88078568D01*
X139351395Y-88149050D01*
X139370457Y-88152842D01*
X139397967Y-88219257D01*
X139500291Y-88372396D01*
X139630525Y-88502630D01*
X139783664Y-88604954D01*
X139953824Y-88675436D01*
X140134464Y-88711368D01*
X140318642Y-88711368D01*
X140499282Y-88675436D01*
X140669442Y-88604954D01*
X140822581Y-88502630D01*
X140952815Y-88372396D01*
X141013025Y-88282284D01*
X141146871Y-88371717D01*
X141317031Y-88442199D01*
X141497671Y-88478131D01*
X141681849Y-88478131D01*
X141862489Y-88442199D01*
X142032649Y-88371717D01*
X142185788Y-88269393D01*
X142316022Y-88139159D01*
X142418346Y-87986020D01*
X142488828Y-87815860D01*
X142524760Y-87635220D01*
X142524760Y-87451042D01*
X142488828Y-87270402D01*
X142418346Y-87100242D01*
X142316022Y-86947103D01*
X142185788Y-86816869D01*
X142032649Y-86714545D01*
X141862489Y-86644063D01*
X141681849Y-86608131D01*
X141497671Y-86608131D01*
X141317031Y-86644063D01*
X141146871Y-86714545D01*
X140993732Y-86816869D01*
X140863498Y-86947103D01*
X140803288Y-87037215D01*
X140669442Y-86947782D01*
X140499282Y-86877300D01*
X140480220Y-86873508D01*
X140452710Y-86807093D01*
X140350386Y-86653954D01*
X140220152Y-86523720D01*
X140067013Y-86421396D01*
X140037331Y-86409101D01*
X140025721Y-86350734D01*
X139955239Y-86180574D01*
X139852915Y-86027435D01*
X139722681Y-85897201D01*
X139569542Y-85794877D01*
X139399382Y-85724395D01*
X139218742Y-85688463D01*
X139034564Y-85688463D01*
X138853924Y-85724395D01*
X138683764Y-85794877D01*
X138530625Y-85897201D01*
X138400391Y-86027435D01*
X138298067Y-86180574D01*
X138227585Y-86350734D01*
X138191653Y-86531374D01*
X137141494Y-86531374D01*
X137180706Y-86472689D01*
X137251188Y-86302529D01*
X137284815Y-86133478D01*
X137313329Y-86121667D01*
X137466468Y-86019343D01*
X137596702Y-85889109D01*
X137699026Y-85735970D01*
X137769508Y-85565810D01*
X137805440Y-85385170D01*
X137805440Y-85200992D01*
X137769508Y-85020352D01*
X137699026Y-84850192D01*
X137596702Y-84697053D01*
X137466468Y-84566819D01*
X137313329Y-84464495D01*
X137143169Y-84394013D01*
X136962529Y-84358081D01*
X136778351Y-84358081D01*
X136597711Y-84394013D01*
X136427551Y-84464495D01*
X136414581Y-84473161D01*
X136347022Y-84372052D01*
X136216788Y-84241818D01*
X136063649Y-84139494D01*
X135893489Y-84069012D01*
X135712849Y-84033080D01*
X135528671Y-84033080D01*
X135381921Y-84062271D01*
X135378588Y-84058938D01*
X135225449Y-83956614D01*
X135055289Y-83886132D01*
X134874649Y-83850200D01*
X134690471Y-83850200D01*
X134509831Y-83886132D01*
X134339671Y-83956614D01*
X134186532Y-84058938D01*
X134056298Y-84189172D01*
X133953974Y-84342311D01*
X133883492Y-84512471D01*
X133847560Y-84693111D01*
X133061281Y-84693111D01*
X132998405Y-84630235D01*
X132845266Y-84527911D01*
X132675106Y-84457429D01*
X132494466Y-84421497D01*
X132310288Y-84421497D01*
X132129648Y-84457429D01*
X131959488Y-84527911D01*
X131806349Y-84630235D01*
X131676115Y-84760469D01*
X131573791Y-84913608D01*
X131503309Y-85083768D01*
X131467377Y-85264408D01*
X123606160Y-85264408D01*
X123606160Y-83331826D01*
X123922040Y-83331826D01*
X123922040Y-83525854D01*
X123959893Y-83716154D01*
X124034144Y-83895412D01*
X124141941Y-84056741D01*
X124279139Y-84193939D01*
X124440468Y-84301736D01*
X124619726Y-84375987D01*
X124810026Y-84413840D01*
X125004054Y-84413840D01*
X125194354Y-84375987D01*
X125373612Y-84301736D01*
X125534941Y-84193939D01*
X125672139Y-84056741D01*
X125779936Y-83895412D01*
X125854187Y-83716154D01*
X125892040Y-83525854D01*
X125892040Y-83331826D01*
X125854187Y-83141526D01*
X125779936Y-82962268D01*
X125672139Y-82800939D01*
X125534941Y-82663741D01*
X125373612Y-82555944D01*
X125194354Y-82481693D01*
X125004054Y-82443840D01*
X124810026Y-82443840D01*
X124619726Y-82481693D01*
X124440468Y-82555944D01*
X124279139Y-82663741D01*
X124141941Y-82800939D01*
X124034144Y-82962268D01*
X123959893Y-83141526D01*
X123922040Y-83331826D01*
X123606160Y-83331826D01*
X123606160Y-81432061D01*
X130068040Y-81432061D01*
X130068040Y-81616239D01*
X130103972Y-81796879D01*
X130140413Y-81884856D01*
X130129372Y-81911511D01*
X130093440Y-82092151D01*
X130093440Y-82276329D01*
X130129372Y-82456969D01*
X130199854Y-82627129D01*
X130302178Y-82780268D01*
X130432412Y-82910502D01*
X130585551Y-83012826D01*
X130755711Y-83083308D01*
X130936351Y-83119240D01*
X131120529Y-83119240D01*
X131301169Y-83083308D01*
X131471329Y-83012826D01*
X131624468Y-82910502D01*
X131726560Y-82808410D01*
X144837793Y-82808410D01*
X144837793Y-82992588D01*
X144873725Y-83173228D01*
X144944207Y-83343388D01*
X145046531Y-83496527D01*
X145176765Y-83626761D01*
X145329904Y-83729085D01*
X145484247Y-83793015D01*
X145498725Y-83865800D01*
X145569207Y-84035960D01*
X145671531Y-84189099D01*
X145801765Y-84319333D01*
X145954904Y-84421657D01*
X146093721Y-84479157D01*
X146079934Y-84499791D01*
X146009452Y-84669951D01*
X145973520Y-84850591D01*
X145973520Y-85034769D01*
X146009452Y-85215409D01*
X146035648Y-85278652D01*
X146020908Y-85281584D01*
X145850748Y-85352066D01*
X145697609Y-85454390D01*
X145567375Y-85584624D01*
X145465051Y-85737763D01*
X145394569Y-85907923D01*
X145358637Y-86088563D01*
X145358637Y-86272741D01*
X145394569Y-86453381D01*
X145465051Y-86623541D01*
X145567375Y-86776680D01*
X145697609Y-86906914D01*
X145850748Y-87009238D01*
X146020908Y-87079720D01*
X146201548Y-87115652D01*
X146385726Y-87115652D01*
X146566366Y-87079720D01*
X146736526Y-87009238D01*
X146889665Y-86906914D01*
X147019899Y-86776680D01*
X147122223Y-86623541D01*
X147192705Y-86453381D01*
X147193390Y-86449936D01*
X147343236Y-86479743D01*
X147527414Y-86479743D01*
X147708054Y-86443811D01*
X147878214Y-86373329D01*
X148031353Y-86271005D01*
X148161587Y-86140771D01*
X148263911Y-85987632D01*
X148334393Y-85817472D01*
X148370325Y-85636832D01*
X148370325Y-85452654D01*
X148334393Y-85272014D01*
X148263911Y-85101854D01*
X148161587Y-84948715D01*
X148031353Y-84818481D01*
X147878214Y-84716157D01*
X147811263Y-84688425D01*
X147807588Y-84669951D01*
X147804610Y-84662760D01*
X147854091Y-84613279D01*
X152922800Y-84613279D01*
X152922800Y-84797457D01*
X152958732Y-84978097D01*
X153029214Y-85148257D01*
X153131538Y-85301396D01*
X153261772Y-85431630D01*
X153414911Y-85533954D01*
X153585071Y-85604436D01*
X153765711Y-85640368D01*
X153949889Y-85640368D01*
X154130529Y-85604436D01*
X154300689Y-85533954D01*
X154453828Y-85431630D01*
X154584062Y-85301396D01*
X154686386Y-85148257D01*
X154689615Y-85140461D01*
X157435600Y-85140461D01*
X157435600Y-85344339D01*
X157475374Y-85544298D01*
X157553395Y-85732656D01*
X157666663Y-85902174D01*
X157810826Y-86046337D01*
X157980344Y-86159605D01*
X158168702Y-86237626D01*
X158368661Y-86277400D01*
X158572539Y-86277400D01*
X158772498Y-86237626D01*
X158960856Y-86159605D01*
X159130374Y-86046337D01*
X159274537Y-85902174D01*
X159387805Y-85732656D01*
X159465826Y-85544298D01*
X159505600Y-85344339D01*
X159505600Y-85140461D01*
X159465826Y-84940502D01*
X159387805Y-84752144D01*
X159274537Y-84582626D01*
X159130374Y-84438463D01*
X158960856Y-84325195D01*
X158772498Y-84247174D01*
X158572539Y-84207400D01*
X158368661Y-84207400D01*
X158168702Y-84247174D01*
X157980344Y-84325195D01*
X157810826Y-84438463D01*
X157666663Y-84582626D01*
X157553395Y-84752144D01*
X157475374Y-84940502D01*
X157435600Y-85140461D01*
X154689615Y-85140461D01*
X154756868Y-84978097D01*
X154785609Y-84833609D01*
X154925689Y-84775586D01*
X155078828Y-84673262D01*
X155209062Y-84543028D01*
X155311386Y-84389889D01*
X155381868Y-84219729D01*
X155417800Y-84039089D01*
X155417800Y-83854911D01*
X155381868Y-83674271D01*
X155311386Y-83504111D01*
X155209062Y-83350972D01*
X155136471Y-83278381D01*
X155146689Y-83276348D01*
X155316849Y-83205866D01*
X155469988Y-83103542D01*
X155600222Y-82973308D01*
X155702546Y-82820169D01*
X155773028Y-82650009D01*
X155808960Y-82469369D01*
X155808960Y-82285191D01*
X155773028Y-82104551D01*
X155702546Y-81934391D01*
X155600222Y-81781252D01*
X155469988Y-81651018D01*
X155316849Y-81548694D01*
X155146689Y-81478212D01*
X154966049Y-81442280D01*
X154781871Y-81442280D01*
X154601231Y-81478212D01*
X154431071Y-81548694D01*
X154277932Y-81651018D01*
X154147698Y-81781252D01*
X154045374Y-81934391D01*
X153974892Y-82104551D01*
X153938960Y-82285191D01*
X153938960Y-82469369D01*
X153974892Y-82650009D01*
X154045374Y-82820169D01*
X154147698Y-82973308D01*
X154220289Y-83045899D01*
X154210071Y-83047932D01*
X154039911Y-83118414D01*
X153886772Y-83220738D01*
X153756538Y-83350972D01*
X153654214Y-83504111D01*
X153583732Y-83674271D01*
X153554991Y-83818759D01*
X153414911Y-83876782D01*
X153261772Y-83979106D01*
X153131538Y-84109340D01*
X153029214Y-84262479D01*
X152958732Y-84432639D01*
X152922800Y-84613279D01*
X147854091Y-84613279D01*
X147883702Y-84583668D01*
X147986026Y-84430529D01*
X148056508Y-84260369D01*
X148092440Y-84079729D01*
X148092440Y-83895551D01*
X148084887Y-83857581D01*
X148121049Y-83850388D01*
X148291209Y-83779906D01*
X148444348Y-83677582D01*
X148574582Y-83547348D01*
X148676906Y-83394209D01*
X148747388Y-83224049D01*
X148783320Y-83043409D01*
X148783320Y-83031951D01*
X150078160Y-83031951D01*
X150078160Y-83216129D01*
X150114092Y-83396769D01*
X150184574Y-83566929D01*
X150286898Y-83720068D01*
X150417132Y-83850302D01*
X150570271Y-83952626D01*
X150740431Y-84023108D01*
X150921071Y-84059040D01*
X151105249Y-84059040D01*
X151285889Y-84023108D01*
X151456049Y-83952626D01*
X151609188Y-83850302D01*
X151739422Y-83720068D01*
X151841746Y-83566929D01*
X151912228Y-83396769D01*
X151948160Y-83216129D01*
X151948160Y-83031951D01*
X151912228Y-82851311D01*
X151841746Y-82681151D01*
X151739422Y-82528012D01*
X151609188Y-82397778D01*
X151456049Y-82295454D01*
X151285889Y-82224972D01*
X151105249Y-82189040D01*
X150921071Y-82189040D01*
X150740431Y-82224972D01*
X150570271Y-82295454D01*
X150417132Y-82397778D01*
X150286898Y-82528012D01*
X150184574Y-82681151D01*
X150114092Y-82851311D01*
X150078160Y-83031951D01*
X148783320Y-83031951D01*
X148783320Y-82859231D01*
X148747388Y-82678591D01*
X148676906Y-82508431D01*
X148574582Y-82355292D01*
X148444348Y-82225058D01*
X148291209Y-82122734D01*
X148121049Y-82052252D01*
X147940409Y-82016320D01*
X147756231Y-82016320D01*
X147575591Y-82052252D01*
X147531798Y-82070391D01*
X147465682Y-82026214D01*
X147295522Y-81955732D01*
X147114882Y-81919800D01*
X146930704Y-81919800D01*
X146750064Y-81955732D01*
X146579904Y-82026214D01*
X146426765Y-82128538D01*
X146374944Y-82180360D01*
X146368821Y-82174237D01*
X146215682Y-82071913D01*
X146045522Y-82001431D01*
X145864882Y-81965499D01*
X145680704Y-81965499D01*
X145500064Y-82001431D01*
X145329904Y-82071913D01*
X145176765Y-82174237D01*
X145046531Y-82304471D01*
X144944207Y-82457610D01*
X144873725Y-82627770D01*
X144837793Y-82808410D01*
X131726560Y-82808410D01*
X131754702Y-82780268D01*
X131857026Y-82627129D01*
X131927508Y-82456969D01*
X131963440Y-82276329D01*
X131963440Y-82092151D01*
X131927508Y-81911511D01*
X131891067Y-81823534D01*
X131902108Y-81796879D01*
X131938040Y-81616239D01*
X131938040Y-81432061D01*
X131909685Y-81289511D01*
X139714960Y-81289511D01*
X139714960Y-81473689D01*
X139750892Y-81654329D01*
X139821374Y-81824489D01*
X139923698Y-81977628D01*
X140053932Y-82107862D01*
X140207071Y-82210186D01*
X140377231Y-82280668D01*
X140557871Y-82316600D01*
X140742049Y-82316600D01*
X140922689Y-82280668D01*
X141092849Y-82210186D01*
X141245988Y-82107862D01*
X141376222Y-81977628D01*
X141478546Y-81824489D01*
X141549028Y-81654329D01*
X141584960Y-81473689D01*
X141584960Y-81289511D01*
X141549028Y-81108871D01*
X141478546Y-80938711D01*
X141376222Y-80785572D01*
X141306121Y-80715471D01*
X142505600Y-80715471D01*
X142505600Y-80899649D01*
X142541532Y-81080289D01*
X142612014Y-81250449D01*
X142714338Y-81403588D01*
X142844572Y-81533822D01*
X142997711Y-81636146D01*
X143167871Y-81706628D01*
X143348511Y-81742560D01*
X143532689Y-81742560D01*
X143713329Y-81706628D01*
X143865600Y-81643556D01*
X144017871Y-81706628D01*
X144198511Y-81742560D01*
X144382689Y-81742560D01*
X144563329Y-81706628D01*
X144733489Y-81636146D01*
X144886628Y-81533822D01*
X145016862Y-81403588D01*
X145087528Y-81297828D01*
X156746944Y-81297828D01*
X156746944Y-81501706D01*
X156786718Y-81701665D01*
X156864739Y-81890023D01*
X156978007Y-82059541D01*
X157122170Y-82203704D01*
X157291688Y-82316972D01*
X157480046Y-82394993D01*
X157680005Y-82434767D01*
X157883883Y-82434767D01*
X158083842Y-82394993D01*
X158272200Y-82316972D01*
X158441718Y-82203704D01*
X158585881Y-82059541D01*
X158699149Y-81890023D01*
X158777170Y-81701665D01*
X158816944Y-81501706D01*
X158816944Y-81297828D01*
X158777170Y-81097869D01*
X158699149Y-80909511D01*
X158585881Y-80739993D01*
X158441718Y-80595830D01*
X158272200Y-80482562D01*
X158083842Y-80404541D01*
X157883883Y-80364767D01*
X157680005Y-80364767D01*
X157480046Y-80404541D01*
X157291688Y-80482562D01*
X157122170Y-80595830D01*
X156978007Y-80739993D01*
X156864739Y-80909511D01*
X156786718Y-81097869D01*
X156746944Y-81297828D01*
X145087528Y-81297828D01*
X145119186Y-81250449D01*
X145189668Y-81080289D01*
X145225600Y-80899649D01*
X145225600Y-80715471D01*
X145189668Y-80534831D01*
X145119186Y-80364671D01*
X145016862Y-80211532D01*
X144886628Y-80081298D01*
X144733489Y-79978974D01*
X144563329Y-79908492D01*
X144382689Y-79872560D01*
X144198511Y-79872560D01*
X144017871Y-79908492D01*
X143865600Y-79971564D01*
X143713329Y-79908492D01*
X143532689Y-79872560D01*
X143348511Y-79872560D01*
X143167871Y-79908492D01*
X142997711Y-79978974D01*
X142844572Y-80081298D01*
X142714338Y-80211532D01*
X142612014Y-80364671D01*
X142541532Y-80534831D01*
X142505600Y-80715471D01*
X141306121Y-80715471D01*
X141245988Y-80655338D01*
X141092849Y-80553014D01*
X140922689Y-80482532D01*
X140742049Y-80446600D01*
X140557871Y-80446600D01*
X140377231Y-80482532D01*
X140207071Y-80553014D01*
X140053932Y-80655338D01*
X139923698Y-80785572D01*
X139821374Y-80938711D01*
X139750892Y-81108871D01*
X139714960Y-81289511D01*
X131909685Y-81289511D01*
X131902108Y-81251421D01*
X131840963Y-81103804D01*
X132043499Y-81042365D01*
X132245018Y-80934651D01*
X132421652Y-80789692D01*
X132566611Y-80613059D01*
X132674325Y-80411540D01*
X132740655Y-80192880D01*
X132757440Y-80022459D01*
X132757440Y-79708502D01*
X132757440Y-79708501D01*
X134887440Y-79708501D01*
X134887440Y-80022458D01*
X134904225Y-80192879D01*
X134970555Y-80411539D01*
X135078269Y-80613058D01*
X135223228Y-80789692D01*
X135399861Y-80934651D01*
X135601380Y-81042365D01*
X135820040Y-81108695D01*
X136047440Y-81131092D01*
X136274839Y-81108695D01*
X136493499Y-81042365D01*
X136695018Y-80934651D01*
X136871652Y-80789692D01*
X137016611Y-80613059D01*
X137124325Y-80411540D01*
X137190655Y-80192880D01*
X137207440Y-80022459D01*
X137207440Y-79708502D01*
X137190655Y-79538081D01*
X137124325Y-79319421D01*
X137016611Y-79117902D01*
X136871652Y-78941268D01*
X136695019Y-78796309D01*
X136645483Y-78769831D01*
X143250640Y-78769831D01*
X143250640Y-78954009D01*
X143286572Y-79134649D01*
X143357054Y-79304809D01*
X143459378Y-79457948D01*
X143589612Y-79588182D01*
X143742751Y-79690506D01*
X143912911Y-79760988D01*
X144093551Y-79796920D01*
X144277729Y-79796920D01*
X144458369Y-79760988D01*
X144628529Y-79690506D01*
X144781668Y-79588182D01*
X144911902Y-79457948D01*
X145014226Y-79304809D01*
X145084708Y-79134649D01*
X145120640Y-78954009D01*
X145120640Y-78769831D01*
X145084708Y-78589191D01*
X145014226Y-78419031D01*
X144911902Y-78265892D01*
X144781668Y-78135658D01*
X144628529Y-78033334D01*
X144458369Y-77962852D01*
X144277729Y-77926920D01*
X144093551Y-77926920D01*
X143912911Y-77962852D01*
X143742751Y-78033334D01*
X143589612Y-78135658D01*
X143459378Y-78265892D01*
X143357054Y-78419031D01*
X143286572Y-78589191D01*
X143250640Y-78769831D01*
X136645483Y-78769831D01*
X136493500Y-78688595D01*
X136274840Y-78622265D01*
X136047440Y-78599868D01*
X135820041Y-78622265D01*
X135601381Y-78688595D01*
X135399862Y-78796309D01*
X135223229Y-78941268D01*
X135078269Y-79117901D01*
X134970555Y-79319420D01*
X134904225Y-79538080D01*
X134887440Y-79708501D01*
X132757440Y-79708501D01*
X132740655Y-79538081D01*
X132674325Y-79319421D01*
X132566611Y-79117902D01*
X132469935Y-79000102D01*
X132476786Y-78989849D01*
X132547268Y-78819689D01*
X132583200Y-78639049D01*
X132583200Y-78454871D01*
X132547268Y-78274231D01*
X132476786Y-78104071D01*
X132374462Y-77950932D01*
X132244228Y-77820698D01*
X132091089Y-77718374D01*
X131920929Y-77647892D01*
X131740289Y-77611960D01*
X131556111Y-77611960D01*
X131375471Y-77647892D01*
X131205311Y-77718374D01*
X131052172Y-77820698D01*
X130921938Y-77950932D01*
X130819614Y-78104071D01*
X130749132Y-78274231D01*
X130713200Y-78454871D01*
X130713200Y-78639049D01*
X130749132Y-78819689D01*
X130792829Y-78925183D01*
X130773229Y-78941268D01*
X130628269Y-79117901D01*
X130520555Y-79319420D01*
X130454225Y-79538080D01*
X130437440Y-79708501D01*
X130437440Y-80022458D01*
X130454225Y-80192879D01*
X130520555Y-80411539D01*
X130628269Y-80613058D01*
X130661521Y-80653576D01*
X130560151Y-80695564D01*
X130407012Y-80797888D01*
X130276778Y-80928122D01*
X130174454Y-81081261D01*
X130103972Y-81251421D01*
X130068040Y-81432061D01*
X123606160Y-81432061D01*
X123606160Y-78447159D01*
X123653970Y-77959556D01*
X123786205Y-77521574D01*
X124000988Y-77117625D01*
X124290149Y-76763078D01*
X124642661Y-76471456D01*
X125045107Y-76253854D01*
X125482158Y-76118564D01*
X125967805Y-76067520D01*
X128566922Y-76067519D01*
X128528863Y-76192981D01*
X128512440Y-76359728D01*
X128512440Y-77371231D01*
X128528863Y-77537978D01*
X128593764Y-77751926D01*
X128699156Y-77949103D01*
X128840991Y-78121929D01*
X129013817Y-78263764D01*
X129210993Y-78369156D01*
X129424941Y-78434057D01*
X129647440Y-78455971D01*
X129869938Y-78434057D01*
X130083886Y-78369156D01*
X130281063Y-78263764D01*
X130453889Y-78121929D01*
X130595724Y-77949103D01*
X130701116Y-77751927D01*
X130766017Y-77537979D01*
X130782440Y-77371232D01*
X130782440Y-76359729D01*
X130766017Y-76192981D01*
X130727958Y-76067518D01*
X133333721Y-76067517D01*
X133226412Y-76139218D01*
X133096178Y-76269452D01*
X132993854Y-76422591D01*
X132923372Y-76592751D01*
X132887440Y-76773391D01*
X132887440Y-76957569D01*
X132923372Y-77138209D01*
X132993854Y-77308369D01*
X133096178Y-77461508D01*
X133226412Y-77591742D01*
X133379551Y-77694066D01*
X133549711Y-77764548D01*
X133730351Y-77800480D01*
X133914529Y-77800480D01*
X134095169Y-77764548D01*
X134265329Y-77694066D01*
X134418468Y-77591742D01*
X134548702Y-77461508D01*
X134651026Y-77308369D01*
X134721508Y-77138209D01*
X134757440Y-76957569D01*
X134757440Y-76773391D01*
X134721508Y-76592751D01*
X134651026Y-76422591D01*
X134548702Y-76269452D01*
X134418468Y-76139218D01*
X134311158Y-76067516D01*
X136916923Y-76067515D01*
X136878863Y-76192981D01*
X136862440Y-76359728D01*
X136862440Y-77371231D01*
X136878863Y-77537978D01*
X136943764Y-77751926D01*
X137049156Y-77949103D01*
X137190991Y-78121929D01*
X137363817Y-78263764D01*
X137560993Y-78369156D01*
X137774941Y-78434057D01*
X137997440Y-78455971D01*
X138219938Y-78434057D01*
X138433886Y-78369156D01*
X138631063Y-78263764D01*
X138803889Y-78121929D01*
X138945724Y-77949103D01*
X139051116Y-77751927D01*
X139116017Y-77537979D01*
X139132440Y-77371232D01*
X139132440Y-76359729D01*
X139116017Y-76192981D01*
X139077957Y-76067514D01*
X154864641Y-76067506D01*
X154848014Y-76092391D01*
X154777532Y-76262551D01*
X154741600Y-76443191D01*
X154741600Y-76627369D01*
X154777532Y-76808009D01*
X154848014Y-76978169D01*
X154950338Y-77131308D01*
X155080572Y-77261542D01*
X155233711Y-77363866D01*
X155403871Y-77434348D01*
X155584511Y-77470280D01*
X155768689Y-77470280D01*
X155949329Y-77434348D01*
X156119489Y-77363866D01*
X156272628Y-77261542D01*
X156402862Y-77131308D01*
X156505186Y-76978169D01*
X156575668Y-76808009D01*
X156611600Y-76627369D01*
X156611600Y-76443191D01*
X156575668Y-76262551D01*
X156505186Y-76092391D01*
X156488558Y-76067506D01*
X158390877Y-76067505D01*
X158363640Y-76204431D01*
X158363640Y-76388609D01*
X158399572Y-76569249D01*
X158470054Y-76739409D01*
X158572378Y-76892548D01*
X158702612Y-77022782D01*
X158855751Y-77125106D01*
X159025911Y-77195588D01*
X159206551Y-77231520D01*
X159390729Y-77231520D01*
X159571369Y-77195588D01*
X159741529Y-77125106D01*
X159894668Y-77022782D01*
X160024902Y-76892548D01*
X160127226Y-76739409D01*
X160197708Y-76569249D01*
X160233640Y-76388609D01*
X160233640Y-76204431D01*
X160206403Y-76067504D01*
X161913032Y-76067503D01*
X162400645Y-76115314D01*
G04 #@! TD*
M02*
