G04 #@! TF.GenerationSoftware,KiCad,Pcbnew,5.1.6-c6e7f7d~87~ubuntu19.10.1*
G04 #@! TF.CreationDate,2021-03-05T22:23:54-05:00*
G04 #@! TF.ProjectId,daedalus,64616564-616c-4757-932e-6b696361645f,v1.0*
G04 #@! TF.SameCoordinates,Original*
G04 #@! TF.FileFunction,Paste,Top*
G04 #@! TF.FilePolarity,Positive*
%FSLAX46Y46*%
G04 Gerber Fmt 4.6, Leading zero omitted, Abs format (unit mm)*
G04 Created by KiCad (PCBNEW 5.1.6-c6e7f7d~87~ubuntu19.10.1) date 2021-03-05 22:23:54*
%MOMM*%
%LPD*%
G01*
G04 APERTURE LIST*
%ADD10C,0.100000*%
%ADD11R,0.400000X1.350000*%
%ADD12R,2.900000X1.900000*%
%ADD13R,0.300000X0.850000*%
%ADD14R,5.105400X5.105400*%
%ADD15R,0.812800X0.304800*%
%ADD16R,0.304800X0.812800*%
%ADD17R,0.900000X1.200000*%
%ADD18R,1.200000X0.900000*%
%ADD19R,0.800000X0.900000*%
%ADD20R,1.060000X0.650000*%
%ADD21R,0.750000X0.300000*%
%ADD22R,1.360000X1.460000*%
%ADD23R,0.530000X1.130000*%
%ADD24R,0.530000X1.330000*%
%ADD25R,1.400000X1.200000*%
G04 APERTURE END LIST*
D10*
G04 #@! TO.C,U8*
G36*
X127668906Y-105752505D02*
G01*
X130631365Y-105752505D01*
X130631365Y-103378315D01*
X127668906Y-103378315D01*
X127668906Y-105752505D01*
G37*
G04 #@! TO.C,U9*
G36*
X145321906Y-105745405D02*
G01*
X148284365Y-105745405D01*
X148284365Y-103371215D01*
X145321906Y-103371215D01*
X145321906Y-105745405D01*
G37*
G04 #@! TO.C,U10*
G36*
X151024206Y-105689005D02*
G01*
X153986665Y-105689005D01*
X153986665Y-103314815D01*
X151024206Y-103314815D01*
X151024206Y-105689005D01*
G37*
G04 #@! TO.C,U11*
G36*
X136470774Y-104068755D02*
G01*
X133508315Y-104068755D01*
X133508315Y-106442945D01*
X136470774Y-106442945D01*
X136470774Y-104068755D01*
G37*
G04 #@! TO.C,U12*
G36*
X142566774Y-104074355D02*
G01*
X139604315Y-104074355D01*
X139604315Y-106448545D01*
X142566774Y-106448545D01*
X142566774Y-104074355D01*
G37*
G04 #@! TO.C,U13*
G36*
X159787974Y-104023555D02*
G01*
X156825515Y-104023555D01*
X156825515Y-106397745D01*
X159787974Y-106397745D01*
X159787974Y-104023555D01*
G37*
G04 #@! TD*
D11*
G04 #@! TO.C,J9*
X135122440Y-79540480D03*
X134472440Y-79540480D03*
X133822440Y-79540480D03*
X132522440Y-79540480D03*
X133172440Y-79540480D03*
D12*
X133822440Y-76865480D03*
D13*
X130322440Y-76865480D03*
X137322440Y-76865480D03*
G04 #@! TD*
G04 #@! TO.C,U7*
G36*
G01*
X153959341Y-80355652D02*
X154109341Y-80355652D01*
G75*
G02*
X154184341Y-80430652I0J-75000D01*
G01*
X154184341Y-81830652D01*
G75*
G02*
X154109341Y-81905652I-75000J0D01*
G01*
X153959341Y-81905652D01*
G75*
G02*
X153884341Y-81830652I0J75000D01*
G01*
X153884341Y-80430652D01*
G75*
G02*
X153959341Y-80355652I75000J0D01*
G01*
G37*
G36*
G01*
X153459341Y-80355652D02*
X153609341Y-80355652D01*
G75*
G02*
X153684341Y-80430652I0J-75000D01*
G01*
X153684341Y-81830652D01*
G75*
G02*
X153609341Y-81905652I-75000J0D01*
G01*
X153459341Y-81905652D01*
G75*
G02*
X153384341Y-81830652I0J75000D01*
G01*
X153384341Y-80430652D01*
G75*
G02*
X153459341Y-80355652I75000J0D01*
G01*
G37*
G36*
G01*
X152959341Y-80355652D02*
X153109341Y-80355652D01*
G75*
G02*
X153184341Y-80430652I0J-75000D01*
G01*
X153184341Y-81830652D01*
G75*
G02*
X153109341Y-81905652I-75000J0D01*
G01*
X152959341Y-81905652D01*
G75*
G02*
X152884341Y-81830652I0J75000D01*
G01*
X152884341Y-80430652D01*
G75*
G02*
X152959341Y-80355652I75000J0D01*
G01*
G37*
G36*
G01*
X152459341Y-80355652D02*
X152609341Y-80355652D01*
G75*
G02*
X152684341Y-80430652I0J-75000D01*
G01*
X152684341Y-81830652D01*
G75*
G02*
X152609341Y-81905652I-75000J0D01*
G01*
X152459341Y-81905652D01*
G75*
G02*
X152384341Y-81830652I0J75000D01*
G01*
X152384341Y-80430652D01*
G75*
G02*
X152459341Y-80355652I75000J0D01*
G01*
G37*
G36*
G01*
X151959341Y-80355652D02*
X152109341Y-80355652D01*
G75*
G02*
X152184341Y-80430652I0J-75000D01*
G01*
X152184341Y-81830652D01*
G75*
G02*
X152109341Y-81905652I-75000J0D01*
G01*
X151959341Y-81905652D01*
G75*
G02*
X151884341Y-81830652I0J75000D01*
G01*
X151884341Y-80430652D01*
G75*
G02*
X151959341Y-80355652I75000J0D01*
G01*
G37*
G36*
G01*
X151459341Y-80355652D02*
X151609341Y-80355652D01*
G75*
G02*
X151684341Y-80430652I0J-75000D01*
G01*
X151684341Y-81830652D01*
G75*
G02*
X151609341Y-81905652I-75000J0D01*
G01*
X151459341Y-81905652D01*
G75*
G02*
X151384341Y-81830652I0J75000D01*
G01*
X151384341Y-80430652D01*
G75*
G02*
X151459341Y-80355652I75000J0D01*
G01*
G37*
G36*
G01*
X150959341Y-80355652D02*
X151109341Y-80355652D01*
G75*
G02*
X151184341Y-80430652I0J-75000D01*
G01*
X151184341Y-81830652D01*
G75*
G02*
X151109341Y-81905652I-75000J0D01*
G01*
X150959341Y-81905652D01*
G75*
G02*
X150884341Y-81830652I0J75000D01*
G01*
X150884341Y-80430652D01*
G75*
G02*
X150959341Y-80355652I75000J0D01*
G01*
G37*
G36*
G01*
X150459341Y-80355652D02*
X150609341Y-80355652D01*
G75*
G02*
X150684341Y-80430652I0J-75000D01*
G01*
X150684341Y-81830652D01*
G75*
G02*
X150609341Y-81905652I-75000J0D01*
G01*
X150459341Y-81905652D01*
G75*
G02*
X150384341Y-81830652I0J75000D01*
G01*
X150384341Y-80430652D01*
G75*
G02*
X150459341Y-80355652I75000J0D01*
G01*
G37*
G36*
G01*
X149959341Y-80355652D02*
X150109341Y-80355652D01*
G75*
G02*
X150184341Y-80430652I0J-75000D01*
G01*
X150184341Y-81830652D01*
G75*
G02*
X150109341Y-81905652I-75000J0D01*
G01*
X149959341Y-81905652D01*
G75*
G02*
X149884341Y-81830652I0J75000D01*
G01*
X149884341Y-80430652D01*
G75*
G02*
X149959341Y-80355652I75000J0D01*
G01*
G37*
G36*
G01*
X149459341Y-80355652D02*
X149609341Y-80355652D01*
G75*
G02*
X149684341Y-80430652I0J-75000D01*
G01*
X149684341Y-81830652D01*
G75*
G02*
X149609341Y-81905652I-75000J0D01*
G01*
X149459341Y-81905652D01*
G75*
G02*
X149384341Y-81830652I0J75000D01*
G01*
X149384341Y-80430652D01*
G75*
G02*
X149459341Y-80355652I75000J0D01*
G01*
G37*
G36*
G01*
X148959341Y-80355652D02*
X149109341Y-80355652D01*
G75*
G02*
X149184341Y-80430652I0J-75000D01*
G01*
X149184341Y-81830652D01*
G75*
G02*
X149109341Y-81905652I-75000J0D01*
G01*
X148959341Y-81905652D01*
G75*
G02*
X148884341Y-81830652I0J75000D01*
G01*
X148884341Y-80430652D01*
G75*
G02*
X148959341Y-80355652I75000J0D01*
G01*
G37*
G36*
G01*
X148459341Y-80355652D02*
X148609341Y-80355652D01*
G75*
G02*
X148684341Y-80430652I0J-75000D01*
G01*
X148684341Y-81830652D01*
G75*
G02*
X148609341Y-81905652I-75000J0D01*
G01*
X148459341Y-81905652D01*
G75*
G02*
X148384341Y-81830652I0J75000D01*
G01*
X148384341Y-80430652D01*
G75*
G02*
X148459341Y-80355652I75000J0D01*
G01*
G37*
G36*
G01*
X147959341Y-80355652D02*
X148109341Y-80355652D01*
G75*
G02*
X148184341Y-80430652I0J-75000D01*
G01*
X148184341Y-81830652D01*
G75*
G02*
X148109341Y-81905652I-75000J0D01*
G01*
X147959341Y-81905652D01*
G75*
G02*
X147884341Y-81830652I0J75000D01*
G01*
X147884341Y-80430652D01*
G75*
G02*
X147959341Y-80355652I75000J0D01*
G01*
G37*
G36*
G01*
X147459341Y-80355652D02*
X147609341Y-80355652D01*
G75*
G02*
X147684341Y-80430652I0J-75000D01*
G01*
X147684341Y-81830652D01*
G75*
G02*
X147609341Y-81905652I-75000J0D01*
G01*
X147459341Y-81905652D01*
G75*
G02*
X147384341Y-81830652I0J75000D01*
G01*
X147384341Y-80430652D01*
G75*
G02*
X147459341Y-80355652I75000J0D01*
G01*
G37*
G36*
G01*
X146959341Y-80355652D02*
X147109341Y-80355652D01*
G75*
G02*
X147184341Y-80430652I0J-75000D01*
G01*
X147184341Y-81830652D01*
G75*
G02*
X147109341Y-81905652I-75000J0D01*
G01*
X146959341Y-81905652D01*
G75*
G02*
X146884341Y-81830652I0J75000D01*
G01*
X146884341Y-80430652D01*
G75*
G02*
X146959341Y-80355652I75000J0D01*
G01*
G37*
G36*
G01*
X146459341Y-80355652D02*
X146609341Y-80355652D01*
G75*
G02*
X146684341Y-80430652I0J-75000D01*
G01*
X146684341Y-81830652D01*
G75*
G02*
X146609341Y-81905652I-75000J0D01*
G01*
X146459341Y-81905652D01*
G75*
G02*
X146384341Y-81830652I0J75000D01*
G01*
X146384341Y-80430652D01*
G75*
G02*
X146459341Y-80355652I75000J0D01*
G01*
G37*
G36*
G01*
X143909341Y-82905652D02*
X145309341Y-82905652D01*
G75*
G02*
X145384341Y-82980652I0J-75000D01*
G01*
X145384341Y-83130652D01*
G75*
G02*
X145309341Y-83205652I-75000J0D01*
G01*
X143909341Y-83205652D01*
G75*
G02*
X143834341Y-83130652I0J75000D01*
G01*
X143834341Y-82980652D01*
G75*
G02*
X143909341Y-82905652I75000J0D01*
G01*
G37*
G36*
G01*
X143909341Y-83405652D02*
X145309341Y-83405652D01*
G75*
G02*
X145384341Y-83480652I0J-75000D01*
G01*
X145384341Y-83630652D01*
G75*
G02*
X145309341Y-83705652I-75000J0D01*
G01*
X143909341Y-83705652D01*
G75*
G02*
X143834341Y-83630652I0J75000D01*
G01*
X143834341Y-83480652D01*
G75*
G02*
X143909341Y-83405652I75000J0D01*
G01*
G37*
G36*
G01*
X143909341Y-83905652D02*
X145309341Y-83905652D01*
G75*
G02*
X145384341Y-83980652I0J-75000D01*
G01*
X145384341Y-84130652D01*
G75*
G02*
X145309341Y-84205652I-75000J0D01*
G01*
X143909341Y-84205652D01*
G75*
G02*
X143834341Y-84130652I0J75000D01*
G01*
X143834341Y-83980652D01*
G75*
G02*
X143909341Y-83905652I75000J0D01*
G01*
G37*
G36*
G01*
X143909341Y-84405652D02*
X145309341Y-84405652D01*
G75*
G02*
X145384341Y-84480652I0J-75000D01*
G01*
X145384341Y-84630652D01*
G75*
G02*
X145309341Y-84705652I-75000J0D01*
G01*
X143909341Y-84705652D01*
G75*
G02*
X143834341Y-84630652I0J75000D01*
G01*
X143834341Y-84480652D01*
G75*
G02*
X143909341Y-84405652I75000J0D01*
G01*
G37*
G36*
G01*
X143909341Y-84905652D02*
X145309341Y-84905652D01*
G75*
G02*
X145384341Y-84980652I0J-75000D01*
G01*
X145384341Y-85130652D01*
G75*
G02*
X145309341Y-85205652I-75000J0D01*
G01*
X143909341Y-85205652D01*
G75*
G02*
X143834341Y-85130652I0J75000D01*
G01*
X143834341Y-84980652D01*
G75*
G02*
X143909341Y-84905652I75000J0D01*
G01*
G37*
G36*
G01*
X143909341Y-85405652D02*
X145309341Y-85405652D01*
G75*
G02*
X145384341Y-85480652I0J-75000D01*
G01*
X145384341Y-85630652D01*
G75*
G02*
X145309341Y-85705652I-75000J0D01*
G01*
X143909341Y-85705652D01*
G75*
G02*
X143834341Y-85630652I0J75000D01*
G01*
X143834341Y-85480652D01*
G75*
G02*
X143909341Y-85405652I75000J0D01*
G01*
G37*
G36*
G01*
X143909341Y-85905652D02*
X145309341Y-85905652D01*
G75*
G02*
X145384341Y-85980652I0J-75000D01*
G01*
X145384341Y-86130652D01*
G75*
G02*
X145309341Y-86205652I-75000J0D01*
G01*
X143909341Y-86205652D01*
G75*
G02*
X143834341Y-86130652I0J75000D01*
G01*
X143834341Y-85980652D01*
G75*
G02*
X143909341Y-85905652I75000J0D01*
G01*
G37*
G36*
G01*
X143909341Y-86405652D02*
X145309341Y-86405652D01*
G75*
G02*
X145384341Y-86480652I0J-75000D01*
G01*
X145384341Y-86630652D01*
G75*
G02*
X145309341Y-86705652I-75000J0D01*
G01*
X143909341Y-86705652D01*
G75*
G02*
X143834341Y-86630652I0J75000D01*
G01*
X143834341Y-86480652D01*
G75*
G02*
X143909341Y-86405652I75000J0D01*
G01*
G37*
G36*
G01*
X143909341Y-86905652D02*
X145309341Y-86905652D01*
G75*
G02*
X145384341Y-86980652I0J-75000D01*
G01*
X145384341Y-87130652D01*
G75*
G02*
X145309341Y-87205652I-75000J0D01*
G01*
X143909341Y-87205652D01*
G75*
G02*
X143834341Y-87130652I0J75000D01*
G01*
X143834341Y-86980652D01*
G75*
G02*
X143909341Y-86905652I75000J0D01*
G01*
G37*
G36*
G01*
X143909341Y-87405652D02*
X145309341Y-87405652D01*
G75*
G02*
X145384341Y-87480652I0J-75000D01*
G01*
X145384341Y-87630652D01*
G75*
G02*
X145309341Y-87705652I-75000J0D01*
G01*
X143909341Y-87705652D01*
G75*
G02*
X143834341Y-87630652I0J75000D01*
G01*
X143834341Y-87480652D01*
G75*
G02*
X143909341Y-87405652I75000J0D01*
G01*
G37*
G36*
G01*
X143909341Y-87905652D02*
X145309341Y-87905652D01*
G75*
G02*
X145384341Y-87980652I0J-75000D01*
G01*
X145384341Y-88130652D01*
G75*
G02*
X145309341Y-88205652I-75000J0D01*
G01*
X143909341Y-88205652D01*
G75*
G02*
X143834341Y-88130652I0J75000D01*
G01*
X143834341Y-87980652D01*
G75*
G02*
X143909341Y-87905652I75000J0D01*
G01*
G37*
G36*
G01*
X143909341Y-88405652D02*
X145309341Y-88405652D01*
G75*
G02*
X145384341Y-88480652I0J-75000D01*
G01*
X145384341Y-88630652D01*
G75*
G02*
X145309341Y-88705652I-75000J0D01*
G01*
X143909341Y-88705652D01*
G75*
G02*
X143834341Y-88630652I0J75000D01*
G01*
X143834341Y-88480652D01*
G75*
G02*
X143909341Y-88405652I75000J0D01*
G01*
G37*
G36*
G01*
X143909341Y-88905652D02*
X145309341Y-88905652D01*
G75*
G02*
X145384341Y-88980652I0J-75000D01*
G01*
X145384341Y-89130652D01*
G75*
G02*
X145309341Y-89205652I-75000J0D01*
G01*
X143909341Y-89205652D01*
G75*
G02*
X143834341Y-89130652I0J75000D01*
G01*
X143834341Y-88980652D01*
G75*
G02*
X143909341Y-88905652I75000J0D01*
G01*
G37*
G36*
G01*
X143909341Y-89405652D02*
X145309341Y-89405652D01*
G75*
G02*
X145384341Y-89480652I0J-75000D01*
G01*
X145384341Y-89630652D01*
G75*
G02*
X145309341Y-89705652I-75000J0D01*
G01*
X143909341Y-89705652D01*
G75*
G02*
X143834341Y-89630652I0J75000D01*
G01*
X143834341Y-89480652D01*
G75*
G02*
X143909341Y-89405652I75000J0D01*
G01*
G37*
G36*
G01*
X143909341Y-89905652D02*
X145309341Y-89905652D01*
G75*
G02*
X145384341Y-89980652I0J-75000D01*
G01*
X145384341Y-90130652D01*
G75*
G02*
X145309341Y-90205652I-75000J0D01*
G01*
X143909341Y-90205652D01*
G75*
G02*
X143834341Y-90130652I0J75000D01*
G01*
X143834341Y-89980652D01*
G75*
G02*
X143909341Y-89905652I75000J0D01*
G01*
G37*
G36*
G01*
X143909341Y-90405652D02*
X145309341Y-90405652D01*
G75*
G02*
X145384341Y-90480652I0J-75000D01*
G01*
X145384341Y-90630652D01*
G75*
G02*
X145309341Y-90705652I-75000J0D01*
G01*
X143909341Y-90705652D01*
G75*
G02*
X143834341Y-90630652I0J75000D01*
G01*
X143834341Y-90480652D01*
G75*
G02*
X143909341Y-90405652I75000J0D01*
G01*
G37*
G36*
G01*
X146459341Y-91705652D02*
X146609341Y-91705652D01*
G75*
G02*
X146684341Y-91780652I0J-75000D01*
G01*
X146684341Y-93180652D01*
G75*
G02*
X146609341Y-93255652I-75000J0D01*
G01*
X146459341Y-93255652D01*
G75*
G02*
X146384341Y-93180652I0J75000D01*
G01*
X146384341Y-91780652D01*
G75*
G02*
X146459341Y-91705652I75000J0D01*
G01*
G37*
G36*
G01*
X146959341Y-91705652D02*
X147109341Y-91705652D01*
G75*
G02*
X147184341Y-91780652I0J-75000D01*
G01*
X147184341Y-93180652D01*
G75*
G02*
X147109341Y-93255652I-75000J0D01*
G01*
X146959341Y-93255652D01*
G75*
G02*
X146884341Y-93180652I0J75000D01*
G01*
X146884341Y-91780652D01*
G75*
G02*
X146959341Y-91705652I75000J0D01*
G01*
G37*
G36*
G01*
X147459341Y-91705652D02*
X147609341Y-91705652D01*
G75*
G02*
X147684341Y-91780652I0J-75000D01*
G01*
X147684341Y-93180652D01*
G75*
G02*
X147609341Y-93255652I-75000J0D01*
G01*
X147459341Y-93255652D01*
G75*
G02*
X147384341Y-93180652I0J75000D01*
G01*
X147384341Y-91780652D01*
G75*
G02*
X147459341Y-91705652I75000J0D01*
G01*
G37*
G36*
G01*
X147959341Y-91705652D02*
X148109341Y-91705652D01*
G75*
G02*
X148184341Y-91780652I0J-75000D01*
G01*
X148184341Y-93180652D01*
G75*
G02*
X148109341Y-93255652I-75000J0D01*
G01*
X147959341Y-93255652D01*
G75*
G02*
X147884341Y-93180652I0J75000D01*
G01*
X147884341Y-91780652D01*
G75*
G02*
X147959341Y-91705652I75000J0D01*
G01*
G37*
G36*
G01*
X148459341Y-91705652D02*
X148609341Y-91705652D01*
G75*
G02*
X148684341Y-91780652I0J-75000D01*
G01*
X148684341Y-93180652D01*
G75*
G02*
X148609341Y-93255652I-75000J0D01*
G01*
X148459341Y-93255652D01*
G75*
G02*
X148384341Y-93180652I0J75000D01*
G01*
X148384341Y-91780652D01*
G75*
G02*
X148459341Y-91705652I75000J0D01*
G01*
G37*
G36*
G01*
X148959341Y-91705652D02*
X149109341Y-91705652D01*
G75*
G02*
X149184341Y-91780652I0J-75000D01*
G01*
X149184341Y-93180652D01*
G75*
G02*
X149109341Y-93255652I-75000J0D01*
G01*
X148959341Y-93255652D01*
G75*
G02*
X148884341Y-93180652I0J75000D01*
G01*
X148884341Y-91780652D01*
G75*
G02*
X148959341Y-91705652I75000J0D01*
G01*
G37*
G36*
G01*
X149459341Y-91705652D02*
X149609341Y-91705652D01*
G75*
G02*
X149684341Y-91780652I0J-75000D01*
G01*
X149684341Y-93180652D01*
G75*
G02*
X149609341Y-93255652I-75000J0D01*
G01*
X149459341Y-93255652D01*
G75*
G02*
X149384341Y-93180652I0J75000D01*
G01*
X149384341Y-91780652D01*
G75*
G02*
X149459341Y-91705652I75000J0D01*
G01*
G37*
G36*
G01*
X149959341Y-91705652D02*
X150109341Y-91705652D01*
G75*
G02*
X150184341Y-91780652I0J-75000D01*
G01*
X150184341Y-93180652D01*
G75*
G02*
X150109341Y-93255652I-75000J0D01*
G01*
X149959341Y-93255652D01*
G75*
G02*
X149884341Y-93180652I0J75000D01*
G01*
X149884341Y-91780652D01*
G75*
G02*
X149959341Y-91705652I75000J0D01*
G01*
G37*
G36*
G01*
X150459341Y-91705652D02*
X150609341Y-91705652D01*
G75*
G02*
X150684341Y-91780652I0J-75000D01*
G01*
X150684341Y-93180652D01*
G75*
G02*
X150609341Y-93255652I-75000J0D01*
G01*
X150459341Y-93255652D01*
G75*
G02*
X150384341Y-93180652I0J75000D01*
G01*
X150384341Y-91780652D01*
G75*
G02*
X150459341Y-91705652I75000J0D01*
G01*
G37*
G36*
G01*
X150959341Y-91705652D02*
X151109341Y-91705652D01*
G75*
G02*
X151184341Y-91780652I0J-75000D01*
G01*
X151184341Y-93180652D01*
G75*
G02*
X151109341Y-93255652I-75000J0D01*
G01*
X150959341Y-93255652D01*
G75*
G02*
X150884341Y-93180652I0J75000D01*
G01*
X150884341Y-91780652D01*
G75*
G02*
X150959341Y-91705652I75000J0D01*
G01*
G37*
G36*
G01*
X151459341Y-91705652D02*
X151609341Y-91705652D01*
G75*
G02*
X151684341Y-91780652I0J-75000D01*
G01*
X151684341Y-93180652D01*
G75*
G02*
X151609341Y-93255652I-75000J0D01*
G01*
X151459341Y-93255652D01*
G75*
G02*
X151384341Y-93180652I0J75000D01*
G01*
X151384341Y-91780652D01*
G75*
G02*
X151459341Y-91705652I75000J0D01*
G01*
G37*
G36*
G01*
X151959341Y-91705652D02*
X152109341Y-91705652D01*
G75*
G02*
X152184341Y-91780652I0J-75000D01*
G01*
X152184341Y-93180652D01*
G75*
G02*
X152109341Y-93255652I-75000J0D01*
G01*
X151959341Y-93255652D01*
G75*
G02*
X151884341Y-93180652I0J75000D01*
G01*
X151884341Y-91780652D01*
G75*
G02*
X151959341Y-91705652I75000J0D01*
G01*
G37*
G36*
G01*
X152459341Y-91705652D02*
X152609341Y-91705652D01*
G75*
G02*
X152684341Y-91780652I0J-75000D01*
G01*
X152684341Y-93180652D01*
G75*
G02*
X152609341Y-93255652I-75000J0D01*
G01*
X152459341Y-93255652D01*
G75*
G02*
X152384341Y-93180652I0J75000D01*
G01*
X152384341Y-91780652D01*
G75*
G02*
X152459341Y-91705652I75000J0D01*
G01*
G37*
G36*
G01*
X152959341Y-91705652D02*
X153109341Y-91705652D01*
G75*
G02*
X153184341Y-91780652I0J-75000D01*
G01*
X153184341Y-93180652D01*
G75*
G02*
X153109341Y-93255652I-75000J0D01*
G01*
X152959341Y-93255652D01*
G75*
G02*
X152884341Y-93180652I0J75000D01*
G01*
X152884341Y-91780652D01*
G75*
G02*
X152959341Y-91705652I75000J0D01*
G01*
G37*
G36*
G01*
X153459341Y-91705652D02*
X153609341Y-91705652D01*
G75*
G02*
X153684341Y-91780652I0J-75000D01*
G01*
X153684341Y-93180652D01*
G75*
G02*
X153609341Y-93255652I-75000J0D01*
G01*
X153459341Y-93255652D01*
G75*
G02*
X153384341Y-93180652I0J75000D01*
G01*
X153384341Y-91780652D01*
G75*
G02*
X153459341Y-91705652I75000J0D01*
G01*
G37*
G36*
G01*
X153959341Y-91705652D02*
X154109341Y-91705652D01*
G75*
G02*
X154184341Y-91780652I0J-75000D01*
G01*
X154184341Y-93180652D01*
G75*
G02*
X154109341Y-93255652I-75000J0D01*
G01*
X153959341Y-93255652D01*
G75*
G02*
X153884341Y-93180652I0J75000D01*
G01*
X153884341Y-91780652D01*
G75*
G02*
X153959341Y-91705652I75000J0D01*
G01*
G37*
G36*
G01*
X155259341Y-90405652D02*
X156659341Y-90405652D01*
G75*
G02*
X156734341Y-90480652I0J-75000D01*
G01*
X156734341Y-90630652D01*
G75*
G02*
X156659341Y-90705652I-75000J0D01*
G01*
X155259341Y-90705652D01*
G75*
G02*
X155184341Y-90630652I0J75000D01*
G01*
X155184341Y-90480652D01*
G75*
G02*
X155259341Y-90405652I75000J0D01*
G01*
G37*
G36*
G01*
X155259341Y-89905652D02*
X156659341Y-89905652D01*
G75*
G02*
X156734341Y-89980652I0J-75000D01*
G01*
X156734341Y-90130652D01*
G75*
G02*
X156659341Y-90205652I-75000J0D01*
G01*
X155259341Y-90205652D01*
G75*
G02*
X155184341Y-90130652I0J75000D01*
G01*
X155184341Y-89980652D01*
G75*
G02*
X155259341Y-89905652I75000J0D01*
G01*
G37*
G36*
G01*
X155259341Y-89405652D02*
X156659341Y-89405652D01*
G75*
G02*
X156734341Y-89480652I0J-75000D01*
G01*
X156734341Y-89630652D01*
G75*
G02*
X156659341Y-89705652I-75000J0D01*
G01*
X155259341Y-89705652D01*
G75*
G02*
X155184341Y-89630652I0J75000D01*
G01*
X155184341Y-89480652D01*
G75*
G02*
X155259341Y-89405652I75000J0D01*
G01*
G37*
G36*
G01*
X155259341Y-88905652D02*
X156659341Y-88905652D01*
G75*
G02*
X156734341Y-88980652I0J-75000D01*
G01*
X156734341Y-89130652D01*
G75*
G02*
X156659341Y-89205652I-75000J0D01*
G01*
X155259341Y-89205652D01*
G75*
G02*
X155184341Y-89130652I0J75000D01*
G01*
X155184341Y-88980652D01*
G75*
G02*
X155259341Y-88905652I75000J0D01*
G01*
G37*
G36*
G01*
X155259341Y-88405652D02*
X156659341Y-88405652D01*
G75*
G02*
X156734341Y-88480652I0J-75000D01*
G01*
X156734341Y-88630652D01*
G75*
G02*
X156659341Y-88705652I-75000J0D01*
G01*
X155259341Y-88705652D01*
G75*
G02*
X155184341Y-88630652I0J75000D01*
G01*
X155184341Y-88480652D01*
G75*
G02*
X155259341Y-88405652I75000J0D01*
G01*
G37*
G36*
G01*
X155259341Y-87905652D02*
X156659341Y-87905652D01*
G75*
G02*
X156734341Y-87980652I0J-75000D01*
G01*
X156734341Y-88130652D01*
G75*
G02*
X156659341Y-88205652I-75000J0D01*
G01*
X155259341Y-88205652D01*
G75*
G02*
X155184341Y-88130652I0J75000D01*
G01*
X155184341Y-87980652D01*
G75*
G02*
X155259341Y-87905652I75000J0D01*
G01*
G37*
G36*
G01*
X155259341Y-87405652D02*
X156659341Y-87405652D01*
G75*
G02*
X156734341Y-87480652I0J-75000D01*
G01*
X156734341Y-87630652D01*
G75*
G02*
X156659341Y-87705652I-75000J0D01*
G01*
X155259341Y-87705652D01*
G75*
G02*
X155184341Y-87630652I0J75000D01*
G01*
X155184341Y-87480652D01*
G75*
G02*
X155259341Y-87405652I75000J0D01*
G01*
G37*
G36*
G01*
X155259341Y-86905652D02*
X156659341Y-86905652D01*
G75*
G02*
X156734341Y-86980652I0J-75000D01*
G01*
X156734341Y-87130652D01*
G75*
G02*
X156659341Y-87205652I-75000J0D01*
G01*
X155259341Y-87205652D01*
G75*
G02*
X155184341Y-87130652I0J75000D01*
G01*
X155184341Y-86980652D01*
G75*
G02*
X155259341Y-86905652I75000J0D01*
G01*
G37*
G36*
G01*
X155259341Y-86405652D02*
X156659341Y-86405652D01*
G75*
G02*
X156734341Y-86480652I0J-75000D01*
G01*
X156734341Y-86630652D01*
G75*
G02*
X156659341Y-86705652I-75000J0D01*
G01*
X155259341Y-86705652D01*
G75*
G02*
X155184341Y-86630652I0J75000D01*
G01*
X155184341Y-86480652D01*
G75*
G02*
X155259341Y-86405652I75000J0D01*
G01*
G37*
G36*
G01*
X155259341Y-85905652D02*
X156659341Y-85905652D01*
G75*
G02*
X156734341Y-85980652I0J-75000D01*
G01*
X156734341Y-86130652D01*
G75*
G02*
X156659341Y-86205652I-75000J0D01*
G01*
X155259341Y-86205652D01*
G75*
G02*
X155184341Y-86130652I0J75000D01*
G01*
X155184341Y-85980652D01*
G75*
G02*
X155259341Y-85905652I75000J0D01*
G01*
G37*
G36*
G01*
X155259341Y-85405652D02*
X156659341Y-85405652D01*
G75*
G02*
X156734341Y-85480652I0J-75000D01*
G01*
X156734341Y-85630652D01*
G75*
G02*
X156659341Y-85705652I-75000J0D01*
G01*
X155259341Y-85705652D01*
G75*
G02*
X155184341Y-85630652I0J75000D01*
G01*
X155184341Y-85480652D01*
G75*
G02*
X155259341Y-85405652I75000J0D01*
G01*
G37*
G36*
G01*
X155259341Y-84905652D02*
X156659341Y-84905652D01*
G75*
G02*
X156734341Y-84980652I0J-75000D01*
G01*
X156734341Y-85130652D01*
G75*
G02*
X156659341Y-85205652I-75000J0D01*
G01*
X155259341Y-85205652D01*
G75*
G02*
X155184341Y-85130652I0J75000D01*
G01*
X155184341Y-84980652D01*
G75*
G02*
X155259341Y-84905652I75000J0D01*
G01*
G37*
G36*
G01*
X155259341Y-84405652D02*
X156659341Y-84405652D01*
G75*
G02*
X156734341Y-84480652I0J-75000D01*
G01*
X156734341Y-84630652D01*
G75*
G02*
X156659341Y-84705652I-75000J0D01*
G01*
X155259341Y-84705652D01*
G75*
G02*
X155184341Y-84630652I0J75000D01*
G01*
X155184341Y-84480652D01*
G75*
G02*
X155259341Y-84405652I75000J0D01*
G01*
G37*
G36*
G01*
X155259341Y-83905652D02*
X156659341Y-83905652D01*
G75*
G02*
X156734341Y-83980652I0J-75000D01*
G01*
X156734341Y-84130652D01*
G75*
G02*
X156659341Y-84205652I-75000J0D01*
G01*
X155259341Y-84205652D01*
G75*
G02*
X155184341Y-84130652I0J75000D01*
G01*
X155184341Y-83980652D01*
G75*
G02*
X155259341Y-83905652I75000J0D01*
G01*
G37*
G36*
G01*
X155259341Y-83405652D02*
X156659341Y-83405652D01*
G75*
G02*
X156734341Y-83480652I0J-75000D01*
G01*
X156734341Y-83630652D01*
G75*
G02*
X156659341Y-83705652I-75000J0D01*
G01*
X155259341Y-83705652D01*
G75*
G02*
X155184341Y-83630652I0J75000D01*
G01*
X155184341Y-83480652D01*
G75*
G02*
X155259341Y-83405652I75000J0D01*
G01*
G37*
G36*
G01*
X155259341Y-82905652D02*
X156659341Y-82905652D01*
G75*
G02*
X156734341Y-82980652I0J-75000D01*
G01*
X156734341Y-83130652D01*
G75*
G02*
X156659341Y-83205652I-75000J0D01*
G01*
X155259341Y-83205652D01*
G75*
G02*
X155184341Y-83130652I0J75000D01*
G01*
X155184341Y-82980652D01*
G75*
G02*
X155259341Y-82905652I75000J0D01*
G01*
G37*
G04 #@! TD*
D14*
G04 #@! TO.C,U5*
X135871040Y-91003880D03*
D15*
X132416640Y-93747080D03*
X132416640Y-93264480D03*
X132416640Y-92756480D03*
X132416640Y-92248480D03*
X132416640Y-91765880D03*
X132416640Y-91257880D03*
X132416640Y-90749880D03*
X132416640Y-90241880D03*
X132416640Y-89759280D03*
X132416640Y-89251280D03*
X132416640Y-88743280D03*
X132416640Y-88260680D03*
D16*
X133127840Y-87549480D03*
X133610440Y-87549480D03*
X134118440Y-87549480D03*
X134626440Y-87549480D03*
X135109040Y-87549480D03*
X135617040Y-87549480D03*
X136125040Y-87549480D03*
X136633040Y-87549480D03*
X137115640Y-87549480D03*
X137623640Y-87549480D03*
X138131640Y-87549480D03*
X138614240Y-87549480D03*
D15*
X139325440Y-88260680D03*
X139325440Y-88743280D03*
X139325440Y-89251280D03*
X139325440Y-89759280D03*
X139325440Y-90241880D03*
X139325440Y-90749880D03*
X139325440Y-91257880D03*
X139325440Y-91765880D03*
X139325440Y-92248480D03*
X139325440Y-92756480D03*
X139325440Y-93264480D03*
X139325440Y-93747080D03*
D16*
X138614240Y-94458280D03*
X138131640Y-94458280D03*
X137623640Y-94458280D03*
X137115640Y-94458280D03*
X136633040Y-94458280D03*
X136125040Y-94458280D03*
X135617040Y-94458280D03*
X135109040Y-94458280D03*
X134626440Y-94458280D03*
X134118440Y-94458280D03*
X133610440Y-94458280D03*
X133127840Y-94458280D03*
G04 #@! TD*
D17*
G04 #@! TO.C,D2*
X138847560Y-82209640D03*
X142147560Y-82209640D03*
G04 #@! TD*
G04 #@! TO.C,D6*
G36*
G01*
X156907890Y-78344720D02*
X156395390Y-78344720D01*
G75*
G02*
X156176640Y-78125970I0J218750D01*
G01*
X156176640Y-77688470D01*
G75*
G02*
X156395390Y-77469720I218750J0D01*
G01*
X156907890Y-77469720D01*
G75*
G02*
X157126640Y-77688470I0J-218750D01*
G01*
X157126640Y-78125970D01*
G75*
G02*
X156907890Y-78344720I-218750J0D01*
G01*
G37*
G36*
G01*
X156907890Y-76769720D02*
X156395390Y-76769720D01*
G75*
G02*
X156176640Y-76550970I0J218750D01*
G01*
X156176640Y-76113470D01*
G75*
G02*
X156395390Y-75894720I218750J0D01*
G01*
X156907890Y-75894720D01*
G75*
G02*
X157126640Y-76113470I0J-218750D01*
G01*
X157126640Y-76550970D01*
G75*
G02*
X156907890Y-76769720I-218750J0D01*
G01*
G37*
G04 #@! TD*
G04 #@! TO.C,C20*
G36*
G01*
X157541250Y-90215000D02*
X158053750Y-90215000D01*
G75*
G02*
X158272500Y-90433750I0J-218750D01*
G01*
X158272500Y-90871250D01*
G75*
G02*
X158053750Y-91090000I-218750J0D01*
G01*
X157541250Y-91090000D01*
G75*
G02*
X157322500Y-90871250I0J218750D01*
G01*
X157322500Y-90433750D01*
G75*
G02*
X157541250Y-90215000I218750J0D01*
G01*
G37*
G36*
G01*
X157541250Y-91790000D02*
X158053750Y-91790000D01*
G75*
G02*
X158272500Y-92008750I0J-218750D01*
G01*
X158272500Y-92446250D01*
G75*
G02*
X158053750Y-92665000I-218750J0D01*
G01*
X157541250Y-92665000D01*
G75*
G02*
X157322500Y-92446250I0J218750D01*
G01*
X157322500Y-92008750D01*
G75*
G02*
X157541250Y-91790000I218750J0D01*
G01*
G37*
G04 #@! TD*
G04 #@! TO.C,C2*
G36*
G01*
X130459700Y-84596880D02*
X130804700Y-84596880D01*
G75*
G02*
X130952200Y-84744380I0J-147500D01*
G01*
X130952200Y-85039380D01*
G75*
G02*
X130804700Y-85186880I-147500J0D01*
G01*
X130459700Y-85186880D01*
G75*
G02*
X130312200Y-85039380I0J147500D01*
G01*
X130312200Y-84744380D01*
G75*
G02*
X130459700Y-84596880I147500J0D01*
G01*
G37*
G36*
G01*
X130459700Y-85566880D02*
X130804700Y-85566880D01*
G75*
G02*
X130952200Y-85714380I0J-147500D01*
G01*
X130952200Y-86009380D01*
G75*
G02*
X130804700Y-86156880I-147500J0D01*
G01*
X130459700Y-86156880D01*
G75*
G02*
X130312200Y-86009380I0J147500D01*
G01*
X130312200Y-85714380D01*
G75*
G02*
X130459700Y-85566880I147500J0D01*
G01*
G37*
G04 #@! TD*
G04 #@! TO.C,C1*
G36*
G01*
X126505200Y-82367340D02*
X126505200Y-82712340D01*
G75*
G02*
X126357700Y-82859840I-147500J0D01*
G01*
X126062700Y-82859840D01*
G75*
G02*
X125915200Y-82712340I0J147500D01*
G01*
X125915200Y-82367340D01*
G75*
G02*
X126062700Y-82219840I147500J0D01*
G01*
X126357700Y-82219840D01*
G75*
G02*
X126505200Y-82367340I0J-147500D01*
G01*
G37*
G36*
G01*
X127475200Y-82367340D02*
X127475200Y-82712340D01*
G75*
G02*
X127327700Y-82859840I-147500J0D01*
G01*
X127032700Y-82859840D01*
G75*
G02*
X126885200Y-82712340I0J147500D01*
G01*
X126885200Y-82367340D01*
G75*
G02*
X127032700Y-82219840I147500J0D01*
G01*
X127327700Y-82219840D01*
G75*
G02*
X127475200Y-82367340I0J-147500D01*
G01*
G37*
G04 #@! TD*
G04 #@! TO.C,R6*
G36*
G01*
X142870140Y-84061080D02*
X143215140Y-84061080D01*
G75*
G02*
X143362640Y-84208580I0J-147500D01*
G01*
X143362640Y-84503580D01*
G75*
G02*
X143215140Y-84651080I-147500J0D01*
G01*
X142870140Y-84651080D01*
G75*
G02*
X142722640Y-84503580I0J147500D01*
G01*
X142722640Y-84208580D01*
G75*
G02*
X142870140Y-84061080I147500J0D01*
G01*
G37*
G36*
G01*
X142870140Y-85031080D02*
X143215140Y-85031080D01*
G75*
G02*
X143362640Y-85178580I0J-147500D01*
G01*
X143362640Y-85473580D01*
G75*
G02*
X143215140Y-85621080I-147500J0D01*
G01*
X142870140Y-85621080D01*
G75*
G02*
X142722640Y-85473580I0J147500D01*
G01*
X142722640Y-85178580D01*
G75*
G02*
X142870140Y-85031080I147500J0D01*
G01*
G37*
G04 #@! TD*
G04 #@! TO.C,C12*
G36*
G01*
X146314760Y-77509540D02*
X146314760Y-77164540D01*
G75*
G02*
X146462260Y-77017040I147500J0D01*
G01*
X146757260Y-77017040D01*
G75*
G02*
X146904760Y-77164540I0J-147500D01*
G01*
X146904760Y-77509540D01*
G75*
G02*
X146757260Y-77657040I-147500J0D01*
G01*
X146462260Y-77657040D01*
G75*
G02*
X146314760Y-77509540I0J147500D01*
G01*
G37*
G36*
G01*
X147284760Y-77509540D02*
X147284760Y-77164540D01*
G75*
G02*
X147432260Y-77017040I147500J0D01*
G01*
X147727260Y-77017040D01*
G75*
G02*
X147874760Y-77164540I0J-147500D01*
G01*
X147874760Y-77509540D01*
G75*
G02*
X147727260Y-77657040I-147500J0D01*
G01*
X147432260Y-77657040D01*
G75*
G02*
X147284760Y-77509540I0J147500D01*
G01*
G37*
G04 #@! TD*
G04 #@! TO.C,R14*
G36*
G01*
X132260840Y-96464340D02*
X132260840Y-96809340D01*
G75*
G02*
X132113340Y-96956840I-147500J0D01*
G01*
X131818340Y-96956840D01*
G75*
G02*
X131670840Y-96809340I0J147500D01*
G01*
X131670840Y-96464340D01*
G75*
G02*
X131818340Y-96316840I147500J0D01*
G01*
X132113340Y-96316840D01*
G75*
G02*
X132260840Y-96464340I0J-147500D01*
G01*
G37*
G36*
G01*
X133230840Y-96464340D02*
X133230840Y-96809340D01*
G75*
G02*
X133083340Y-96956840I-147500J0D01*
G01*
X132788340Y-96956840D01*
G75*
G02*
X132640840Y-96809340I0J147500D01*
G01*
X132640840Y-96464340D01*
G75*
G02*
X132788340Y-96316840I147500J0D01*
G01*
X133083340Y-96316840D01*
G75*
G02*
X133230840Y-96464340I0J-147500D01*
G01*
G37*
G04 #@! TD*
G04 #@! TO.C,C3*
G36*
G01*
X127850680Y-82722500D02*
X127850680Y-82377500D01*
G75*
G02*
X127998180Y-82230000I147500J0D01*
G01*
X128293180Y-82230000D01*
G75*
G02*
X128440680Y-82377500I0J-147500D01*
G01*
X128440680Y-82722500D01*
G75*
G02*
X128293180Y-82870000I-147500J0D01*
G01*
X127998180Y-82870000D01*
G75*
G02*
X127850680Y-82722500I0J147500D01*
G01*
G37*
G36*
G01*
X128820680Y-82722500D02*
X128820680Y-82377500D01*
G75*
G02*
X128968180Y-82230000I147500J0D01*
G01*
X129263180Y-82230000D01*
G75*
G02*
X129410680Y-82377500I0J-147500D01*
G01*
X129410680Y-82722500D01*
G75*
G02*
X129263180Y-82870000I-147500J0D01*
G01*
X128968180Y-82870000D01*
G75*
G02*
X128820680Y-82722500I0J147500D01*
G01*
G37*
G04 #@! TD*
G04 #@! TO.C,C4*
G36*
G01*
X128820680Y-81716660D02*
X128820680Y-81371660D01*
G75*
G02*
X128968180Y-81224160I147500J0D01*
G01*
X129263180Y-81224160D01*
G75*
G02*
X129410680Y-81371660I0J-147500D01*
G01*
X129410680Y-81716660D01*
G75*
G02*
X129263180Y-81864160I-147500J0D01*
G01*
X128968180Y-81864160D01*
G75*
G02*
X128820680Y-81716660I0J147500D01*
G01*
G37*
G36*
G01*
X127850680Y-81716660D02*
X127850680Y-81371660D01*
G75*
G02*
X127998180Y-81224160I147500J0D01*
G01*
X128293180Y-81224160D01*
G75*
G02*
X128440680Y-81371660I0J-147500D01*
G01*
X128440680Y-81716660D01*
G75*
G02*
X128293180Y-81864160I-147500J0D01*
G01*
X127998180Y-81864160D01*
G75*
G02*
X127850680Y-81716660I0J147500D01*
G01*
G37*
G04 #@! TD*
G04 #@! TO.C,C5*
G36*
G01*
X156017341Y-80686151D02*
X156362341Y-80686151D01*
G75*
G02*
X156509841Y-80833651I0J-147500D01*
G01*
X156509841Y-81128651D01*
G75*
G02*
X156362341Y-81276151I-147500J0D01*
G01*
X156017341Y-81276151D01*
G75*
G02*
X155869841Y-81128651I0J147500D01*
G01*
X155869841Y-80833651D01*
G75*
G02*
X156017341Y-80686151I147500J0D01*
G01*
G37*
G36*
G01*
X156017341Y-79716151D02*
X156362341Y-79716151D01*
G75*
G02*
X156509841Y-79863651I0J-147500D01*
G01*
X156509841Y-80158651D01*
G75*
G02*
X156362341Y-80306151I-147500J0D01*
G01*
X156017341Y-80306151D01*
G75*
G02*
X155869841Y-80158651I0J147500D01*
G01*
X155869841Y-79863651D01*
G75*
G02*
X156017341Y-79716151I147500J0D01*
G01*
G37*
G04 #@! TD*
G04 #@! TO.C,C6*
G36*
G01*
X157695841Y-83608151D02*
X157350841Y-83608151D01*
G75*
G02*
X157203341Y-83460651I0J147500D01*
G01*
X157203341Y-83165651D01*
G75*
G02*
X157350841Y-83018151I147500J0D01*
G01*
X157695841Y-83018151D01*
G75*
G02*
X157843341Y-83165651I0J-147500D01*
G01*
X157843341Y-83460651D01*
G75*
G02*
X157695841Y-83608151I-147500J0D01*
G01*
G37*
G36*
G01*
X157695841Y-82638151D02*
X157350841Y-82638151D01*
G75*
G02*
X157203341Y-82490651I0J147500D01*
G01*
X157203341Y-82195651D01*
G75*
G02*
X157350841Y-82048151I147500J0D01*
G01*
X157695841Y-82048151D01*
G75*
G02*
X157843341Y-82195651I0J-147500D01*
G01*
X157843341Y-82490651D01*
G75*
G02*
X157695841Y-82638151I-147500J0D01*
G01*
G37*
G04 #@! TD*
G04 #@! TO.C,C7*
G36*
G01*
X145109760Y-93762900D02*
X145109760Y-93417900D01*
G75*
G02*
X145257260Y-93270400I147500J0D01*
G01*
X145552260Y-93270400D01*
G75*
G02*
X145699760Y-93417900I0J-147500D01*
G01*
X145699760Y-93762900D01*
G75*
G02*
X145552260Y-93910400I-147500J0D01*
G01*
X145257260Y-93910400D01*
G75*
G02*
X145109760Y-93762900I0J147500D01*
G01*
G37*
G36*
G01*
X144139760Y-93762900D02*
X144139760Y-93417900D01*
G75*
G02*
X144287260Y-93270400I147500J0D01*
G01*
X144582260Y-93270400D01*
G75*
G02*
X144729760Y-93417900I0J-147500D01*
G01*
X144729760Y-93762900D01*
G75*
G02*
X144582260Y-93910400I-147500J0D01*
G01*
X144287260Y-93910400D01*
G75*
G02*
X144139760Y-93762900I0J147500D01*
G01*
G37*
G04 #@! TD*
G04 #@! TO.C,C8*
G36*
G01*
X144678341Y-92769652D02*
X144333341Y-92769652D01*
G75*
G02*
X144185841Y-92622152I0J147500D01*
G01*
X144185841Y-92327152D01*
G75*
G02*
X144333341Y-92179652I147500J0D01*
G01*
X144678341Y-92179652D01*
G75*
G02*
X144825841Y-92327152I0J-147500D01*
G01*
X144825841Y-92622152D01*
G75*
G02*
X144678341Y-92769652I-147500J0D01*
G01*
G37*
G36*
G01*
X144678341Y-91799652D02*
X144333341Y-91799652D01*
G75*
G02*
X144185841Y-91652152I0J147500D01*
G01*
X144185841Y-91357152D01*
G75*
G02*
X144333341Y-91209652I147500J0D01*
G01*
X144678341Y-91209652D01*
G75*
G02*
X144825841Y-91357152I0J-147500D01*
G01*
X144825841Y-91652152D01*
G75*
G02*
X144678341Y-91799652I-147500J0D01*
G01*
G37*
G04 #@! TD*
G04 #@! TO.C,C9*
G36*
G01*
X154937840Y-80668652D02*
X155282840Y-80668652D01*
G75*
G02*
X155430340Y-80816152I0J-147500D01*
G01*
X155430340Y-81111152D01*
G75*
G02*
X155282840Y-81258652I-147500J0D01*
G01*
X154937840Y-81258652D01*
G75*
G02*
X154790340Y-81111152I0J147500D01*
G01*
X154790340Y-80816152D01*
G75*
G02*
X154937840Y-80668652I147500J0D01*
G01*
G37*
G36*
G01*
X154937840Y-79698652D02*
X155282840Y-79698652D01*
G75*
G02*
X155430340Y-79846152I0J-147500D01*
G01*
X155430340Y-80141152D01*
G75*
G02*
X155282840Y-80288652I-147500J0D01*
G01*
X154937840Y-80288652D01*
G75*
G02*
X154790340Y-80141152I0J147500D01*
G01*
X154790340Y-79846152D01*
G75*
G02*
X154937840Y-79698652I147500J0D01*
G01*
G37*
G04 #@! TD*
G04 #@! TO.C,C10*
G36*
G01*
X156224760Y-92442900D02*
X156224760Y-92787900D01*
G75*
G02*
X156077260Y-92935400I-147500J0D01*
G01*
X155782260Y-92935400D01*
G75*
G02*
X155634760Y-92787900I0J147500D01*
G01*
X155634760Y-92442900D01*
G75*
G02*
X155782260Y-92295400I147500J0D01*
G01*
X156077260Y-92295400D01*
G75*
G02*
X156224760Y-92442900I0J-147500D01*
G01*
G37*
G36*
G01*
X155254760Y-92442900D02*
X155254760Y-92787900D01*
G75*
G02*
X155107260Y-92935400I-147500J0D01*
G01*
X154812260Y-92935400D01*
G75*
G02*
X154664760Y-92787900I0J147500D01*
G01*
X154664760Y-92442900D01*
G75*
G02*
X154812260Y-92295400I147500J0D01*
G01*
X155107260Y-92295400D01*
G75*
G02*
X155254760Y-92442900I0J-147500D01*
G01*
G37*
G04 #@! TD*
G04 #@! TO.C,C13*
G36*
G01*
X145349760Y-77509540D02*
X145349760Y-77164540D01*
G75*
G02*
X145497260Y-77017040I147500J0D01*
G01*
X145792260Y-77017040D01*
G75*
G02*
X145939760Y-77164540I0J-147500D01*
G01*
X145939760Y-77509540D01*
G75*
G02*
X145792260Y-77657040I-147500J0D01*
G01*
X145497260Y-77657040D01*
G75*
G02*
X145349760Y-77509540I0J147500D01*
G01*
G37*
G36*
G01*
X144379760Y-77509540D02*
X144379760Y-77164540D01*
G75*
G02*
X144527260Y-77017040I147500J0D01*
G01*
X144822260Y-77017040D01*
G75*
G02*
X144969760Y-77164540I0J-147500D01*
G01*
X144969760Y-77509540D01*
G75*
G02*
X144822260Y-77657040I-147500J0D01*
G01*
X144527260Y-77657040D01*
G75*
G02*
X144379760Y-77509540I0J147500D01*
G01*
G37*
G04 #@! TD*
G04 #@! TO.C,C15*
G36*
G01*
X131454940Y-94566960D02*
X131109940Y-94566960D01*
G75*
G02*
X130962440Y-94419460I0J147500D01*
G01*
X130962440Y-94124460D01*
G75*
G02*
X131109940Y-93976960I147500J0D01*
G01*
X131454940Y-93976960D01*
G75*
G02*
X131602440Y-94124460I0J-147500D01*
G01*
X131602440Y-94419460D01*
G75*
G02*
X131454940Y-94566960I-147500J0D01*
G01*
G37*
G36*
G01*
X131454940Y-93596960D02*
X131109940Y-93596960D01*
G75*
G02*
X130962440Y-93449460I0J147500D01*
G01*
X130962440Y-93154460D01*
G75*
G02*
X131109940Y-93006960I147500J0D01*
G01*
X131454940Y-93006960D01*
G75*
G02*
X131602440Y-93154460I0J-147500D01*
G01*
X131602440Y-93449460D01*
G75*
G02*
X131454940Y-93596960I-147500J0D01*
G01*
G37*
G04 #@! TD*
G04 #@! TO.C,C16*
G36*
G01*
X134152420Y-96858040D02*
X133807420Y-96858040D01*
G75*
G02*
X133659920Y-96710540I0J147500D01*
G01*
X133659920Y-96415540D01*
G75*
G02*
X133807420Y-96268040I147500J0D01*
G01*
X134152420Y-96268040D01*
G75*
G02*
X134299920Y-96415540I0J-147500D01*
G01*
X134299920Y-96710540D01*
G75*
G02*
X134152420Y-96858040I-147500J0D01*
G01*
G37*
G36*
G01*
X134152420Y-95888040D02*
X133807420Y-95888040D01*
G75*
G02*
X133659920Y-95740540I0J147500D01*
G01*
X133659920Y-95445540D01*
G75*
G02*
X133807420Y-95298040I147500J0D01*
G01*
X134152420Y-95298040D01*
G75*
G02*
X134299920Y-95445540I0J-147500D01*
G01*
X134299920Y-95740540D01*
G75*
G02*
X134152420Y-95888040I-147500J0D01*
G01*
G37*
G04 #@! TD*
G04 #@! TO.C,C17*
G36*
G01*
X133713440Y-86238300D02*
X133713440Y-86583300D01*
G75*
G02*
X133565940Y-86730800I-147500J0D01*
G01*
X133270940Y-86730800D01*
G75*
G02*
X133123440Y-86583300I0J147500D01*
G01*
X133123440Y-86238300D01*
G75*
G02*
X133270940Y-86090800I147500J0D01*
G01*
X133565940Y-86090800D01*
G75*
G02*
X133713440Y-86238300I0J-147500D01*
G01*
G37*
G36*
G01*
X132743440Y-86238300D02*
X132743440Y-86583300D01*
G75*
G02*
X132595940Y-86730800I-147500J0D01*
G01*
X132300940Y-86730800D01*
G75*
G02*
X132153440Y-86583300I0J147500D01*
G01*
X132153440Y-86238300D01*
G75*
G02*
X132300940Y-86090800I147500J0D01*
G01*
X132595940Y-86090800D01*
G75*
G02*
X132743440Y-86238300I0J-147500D01*
G01*
G37*
G04 #@! TD*
G04 #@! TO.C,C18*
G36*
G01*
X131109940Y-92046560D02*
X131454940Y-92046560D01*
G75*
G02*
X131602440Y-92194060I0J-147500D01*
G01*
X131602440Y-92489060D01*
G75*
G02*
X131454940Y-92636560I-147500J0D01*
G01*
X131109940Y-92636560D01*
G75*
G02*
X130962440Y-92489060I0J147500D01*
G01*
X130962440Y-92194060D01*
G75*
G02*
X131109940Y-92046560I147500J0D01*
G01*
G37*
G36*
G01*
X131109940Y-91076560D02*
X131454940Y-91076560D01*
G75*
G02*
X131602440Y-91224060I0J-147500D01*
G01*
X131602440Y-91519060D01*
G75*
G02*
X131454940Y-91666560I-147500J0D01*
G01*
X131109940Y-91666560D01*
G75*
G02*
X130962440Y-91519060I0J147500D01*
G01*
X130962440Y-91224060D01*
G75*
G02*
X131109940Y-91076560I147500J0D01*
G01*
G37*
G04 #@! TD*
G04 #@! TO.C,C19*
G36*
G01*
X143044890Y-88316320D02*
X142532390Y-88316320D01*
G75*
G02*
X142313640Y-88097570I0J218750D01*
G01*
X142313640Y-87660070D01*
G75*
G02*
X142532390Y-87441320I218750J0D01*
G01*
X143044890Y-87441320D01*
G75*
G02*
X143263640Y-87660070I0J-218750D01*
G01*
X143263640Y-88097570D01*
G75*
G02*
X143044890Y-88316320I-218750J0D01*
G01*
G37*
G36*
G01*
X143044890Y-89891320D02*
X142532390Y-89891320D01*
G75*
G02*
X142313640Y-89672570I0J218750D01*
G01*
X142313640Y-89235070D01*
G75*
G02*
X142532390Y-89016320I218750J0D01*
G01*
X143044890Y-89016320D01*
G75*
G02*
X143263640Y-89235070I0J-218750D01*
G01*
X143263640Y-89672570D01*
G75*
G02*
X143044890Y-89891320I-218750J0D01*
G01*
G37*
G04 #@! TD*
G04 #@! TO.C,C21*
G36*
G01*
X135595580Y-96260280D02*
X135940580Y-96260280D01*
G75*
G02*
X136088080Y-96407780I0J-147500D01*
G01*
X136088080Y-96702780D01*
G75*
G02*
X135940580Y-96850280I-147500J0D01*
G01*
X135595580Y-96850280D01*
G75*
G02*
X135448080Y-96702780I0J147500D01*
G01*
X135448080Y-96407780D01*
G75*
G02*
X135595580Y-96260280I147500J0D01*
G01*
G37*
G36*
G01*
X135595580Y-95290280D02*
X135940580Y-95290280D01*
G75*
G02*
X136088080Y-95437780I0J-147500D01*
G01*
X136088080Y-95732780D01*
G75*
G02*
X135940580Y-95880280I-147500J0D01*
G01*
X135595580Y-95880280D01*
G75*
G02*
X135448080Y-95732780I0J147500D01*
G01*
X135448080Y-95437780D01*
G75*
G02*
X135595580Y-95290280I147500J0D01*
G01*
G37*
G04 #@! TD*
G04 #@! TO.C,C22*
G36*
G01*
X129024160Y-91231500D02*
X129024160Y-90886500D01*
G75*
G02*
X129171660Y-90739000I147500J0D01*
G01*
X129466660Y-90739000D01*
G75*
G02*
X129614160Y-90886500I0J-147500D01*
G01*
X129614160Y-91231500D01*
G75*
G02*
X129466660Y-91379000I-147500J0D01*
G01*
X129171660Y-91379000D01*
G75*
G02*
X129024160Y-91231500I0J147500D01*
G01*
G37*
G36*
G01*
X129994160Y-91231500D02*
X129994160Y-90886500D01*
G75*
G02*
X130141660Y-90739000I147500J0D01*
G01*
X130436660Y-90739000D01*
G75*
G02*
X130584160Y-90886500I0J-147500D01*
G01*
X130584160Y-91231500D01*
G75*
G02*
X130436660Y-91379000I-147500J0D01*
G01*
X130141660Y-91379000D01*
G75*
G02*
X129994160Y-91231500I0J147500D01*
G01*
G37*
G04 #@! TD*
G04 #@! TO.C,C25*
G36*
G01*
X154116820Y-78580200D02*
X153771820Y-78580200D01*
G75*
G02*
X153624320Y-78432700I0J147500D01*
G01*
X153624320Y-78137700D01*
G75*
G02*
X153771820Y-77990200I147500J0D01*
G01*
X154116820Y-77990200D01*
G75*
G02*
X154264320Y-78137700I0J-147500D01*
G01*
X154264320Y-78432700D01*
G75*
G02*
X154116820Y-78580200I-147500J0D01*
G01*
G37*
G36*
G01*
X154116820Y-77610200D02*
X153771820Y-77610200D01*
G75*
G02*
X153624320Y-77462700I0J147500D01*
G01*
X153624320Y-77167700D01*
G75*
G02*
X153771820Y-77020200I147500J0D01*
G01*
X154116820Y-77020200D01*
G75*
G02*
X154264320Y-77167700I0J-147500D01*
G01*
X154264320Y-77462700D01*
G75*
G02*
X154116820Y-77610200I-147500J0D01*
G01*
G37*
G04 #@! TD*
G04 #@! TO.C,C26*
G36*
G01*
X148478621Y-77188852D02*
X148823621Y-77188852D01*
G75*
G02*
X148971121Y-77336352I0J-147500D01*
G01*
X148971121Y-77631352D01*
G75*
G02*
X148823621Y-77778852I-147500J0D01*
G01*
X148478621Y-77778852D01*
G75*
G02*
X148331121Y-77631352I0J147500D01*
G01*
X148331121Y-77336352D01*
G75*
G02*
X148478621Y-77188852I147500J0D01*
G01*
G37*
G36*
G01*
X148478621Y-76218852D02*
X148823621Y-76218852D01*
G75*
G02*
X148971121Y-76366352I0J-147500D01*
G01*
X148971121Y-76661352D01*
G75*
G02*
X148823621Y-76808852I-147500J0D01*
G01*
X148478621Y-76808852D01*
G75*
G02*
X148331121Y-76661352I0J147500D01*
G01*
X148331121Y-76366352D01*
G75*
G02*
X148478621Y-76218852I147500J0D01*
G01*
G37*
G04 #@! TD*
G04 #@! TO.C,C27*
G36*
G01*
X138414400Y-85384420D02*
X138414400Y-85039420D01*
G75*
G02*
X138561900Y-84891920I147500J0D01*
G01*
X138856900Y-84891920D01*
G75*
G02*
X139004400Y-85039420I0J-147500D01*
G01*
X139004400Y-85384420D01*
G75*
G02*
X138856900Y-85531920I-147500J0D01*
G01*
X138561900Y-85531920D01*
G75*
G02*
X138414400Y-85384420I0J147500D01*
G01*
G37*
G36*
G01*
X139384400Y-85384420D02*
X139384400Y-85039420D01*
G75*
G02*
X139531900Y-84891920I147500J0D01*
G01*
X139826900Y-84891920D01*
G75*
G02*
X139974400Y-85039420I0J-147500D01*
G01*
X139974400Y-85384420D01*
G75*
G02*
X139826900Y-85531920I-147500J0D01*
G01*
X139531900Y-85531920D01*
G75*
G02*
X139384400Y-85384420I0J147500D01*
G01*
G37*
G04 #@! TD*
D18*
G04 #@! TO.C,D1*
X127650240Y-94009480D03*
X127650240Y-90709480D03*
G04 #@! TD*
G04 #@! TO.C,D3*
X125267720Y-90211640D03*
X125267720Y-93511640D03*
G04 #@! TD*
D17*
G04 #@! TO.C,D4*
X130671840Y-96022160D03*
X127371840Y-96022160D03*
G04 #@! TD*
G04 #@! TO.C,D7*
G36*
G01*
X158607890Y-76769720D02*
X158095390Y-76769720D01*
G75*
G02*
X157876640Y-76550970I0J218750D01*
G01*
X157876640Y-76113470D01*
G75*
G02*
X158095390Y-75894720I218750J0D01*
G01*
X158607890Y-75894720D01*
G75*
G02*
X158826640Y-76113470I0J-218750D01*
G01*
X158826640Y-76550970D01*
G75*
G02*
X158607890Y-76769720I-218750J0D01*
G01*
G37*
G36*
G01*
X158607890Y-78344720D02*
X158095390Y-78344720D01*
G75*
G02*
X157876640Y-78125970I0J218750D01*
G01*
X157876640Y-77688470D01*
G75*
G02*
X158095390Y-77469720I218750J0D01*
G01*
X158607890Y-77469720D01*
G75*
G02*
X158826640Y-77688470I0J-218750D01*
G01*
X158826640Y-78125970D01*
G75*
G02*
X158607890Y-78344720I-218750J0D01*
G01*
G37*
G04 #@! TD*
G04 #@! TO.C,F1*
G36*
G01*
X134270200Y-81521590D02*
X134270200Y-82034090D01*
G75*
G02*
X134051450Y-82252840I-218750J0D01*
G01*
X133613950Y-82252840D01*
G75*
G02*
X133395200Y-82034090I0J218750D01*
G01*
X133395200Y-81521590D01*
G75*
G02*
X133613950Y-81302840I218750J0D01*
G01*
X134051450Y-81302840D01*
G75*
G02*
X134270200Y-81521590I0J-218750D01*
G01*
G37*
G36*
G01*
X132695200Y-81521590D02*
X132695200Y-82034090D01*
G75*
G02*
X132476450Y-82252840I-218750J0D01*
G01*
X132038950Y-82252840D01*
G75*
G02*
X131820200Y-82034090I0J218750D01*
G01*
X131820200Y-81521590D01*
G75*
G02*
X132038950Y-81302840I218750J0D01*
G01*
X132476450Y-81302840D01*
G75*
G02*
X132695200Y-81521590I0J-218750D01*
G01*
G37*
G04 #@! TD*
G04 #@! TO.C,FB1*
G36*
G01*
X133286920Y-83976530D02*
X133286920Y-83064030D01*
G75*
G02*
X133530670Y-82820280I243750J0D01*
G01*
X134018170Y-82820280D01*
G75*
G02*
X134261920Y-83064030I0J-243750D01*
G01*
X134261920Y-83976530D01*
G75*
G02*
X134018170Y-84220280I-243750J0D01*
G01*
X133530670Y-84220280D01*
G75*
G02*
X133286920Y-83976530I0J243750D01*
G01*
G37*
G36*
G01*
X131411920Y-83976530D02*
X131411920Y-83064030D01*
G75*
G02*
X131655670Y-82820280I243750J0D01*
G01*
X132143170Y-82820280D01*
G75*
G02*
X132386920Y-83064030I0J-243750D01*
G01*
X132386920Y-83976530D01*
G75*
G02*
X132143170Y-84220280I-243750J0D01*
G01*
X131655670Y-84220280D01*
G75*
G02*
X131411920Y-83976530I0J243750D01*
G01*
G37*
G04 #@! TD*
G04 #@! TO.C,FB2*
G36*
G01*
X147719760Y-78380790D02*
X147719760Y-79293290D01*
G75*
G02*
X147476010Y-79537040I-243750J0D01*
G01*
X146988510Y-79537040D01*
G75*
G02*
X146744760Y-79293290I0J243750D01*
G01*
X146744760Y-78380790D01*
G75*
G02*
X146988510Y-78137040I243750J0D01*
G01*
X147476010Y-78137040D01*
G75*
G02*
X147719760Y-78380790I0J-243750D01*
G01*
G37*
G36*
G01*
X145844760Y-78380790D02*
X145844760Y-79293290D01*
G75*
G02*
X145601010Y-79537040I-243750J0D01*
G01*
X145113510Y-79537040D01*
G75*
G02*
X144869760Y-79293290I0J243750D01*
G01*
X144869760Y-78380790D01*
G75*
G02*
X145113510Y-78137040I243750J0D01*
G01*
X145601010Y-78137040D01*
G75*
G02*
X145844760Y-78380790I0J-243750D01*
G01*
G37*
G04 #@! TD*
G04 #@! TO.C,L1*
G36*
G01*
X130614130Y-82194920D02*
X130101630Y-82194920D01*
G75*
G02*
X129882880Y-81976170I0J218750D01*
G01*
X129882880Y-81538670D01*
G75*
G02*
X130101630Y-81319920I218750J0D01*
G01*
X130614130Y-81319920D01*
G75*
G02*
X130832880Y-81538670I0J-218750D01*
G01*
X130832880Y-81976170D01*
G75*
G02*
X130614130Y-82194920I-218750J0D01*
G01*
G37*
G36*
G01*
X130614130Y-83769920D02*
X130101630Y-83769920D01*
G75*
G02*
X129882880Y-83551170I0J218750D01*
G01*
X129882880Y-83113670D01*
G75*
G02*
X130101630Y-82894920I218750J0D01*
G01*
X130614130Y-82894920D01*
G75*
G02*
X130832880Y-83113670I0J-218750D01*
G01*
X130832880Y-83551170D01*
G75*
G02*
X130614130Y-83769920I-218750J0D01*
G01*
G37*
G04 #@! TD*
G04 #@! TO.C,L2*
G36*
G01*
X130004530Y-94376960D02*
X129492030Y-94376960D01*
G75*
G02*
X129273280Y-94158210I0J218750D01*
G01*
X129273280Y-93720710D01*
G75*
G02*
X129492030Y-93501960I218750J0D01*
G01*
X130004530Y-93501960D01*
G75*
G02*
X130223280Y-93720710I0J-218750D01*
G01*
X130223280Y-94158210D01*
G75*
G02*
X130004530Y-94376960I-218750J0D01*
G01*
G37*
G36*
G01*
X130004530Y-92801960D02*
X129492030Y-92801960D01*
G75*
G02*
X129273280Y-92583210I0J218750D01*
G01*
X129273280Y-92145710D01*
G75*
G02*
X129492030Y-91926960I218750J0D01*
G01*
X130004530Y-91926960D01*
G75*
G02*
X130223280Y-92145710I0J-218750D01*
G01*
X130223280Y-92583210D01*
G75*
G02*
X130004530Y-92801960I-218750J0D01*
G01*
G37*
G04 #@! TD*
D19*
G04 #@! TO.C,Q1*
X135376880Y-83748120D03*
X137276880Y-83748120D03*
X136326880Y-81748120D03*
G04 #@! TD*
G04 #@! TO.C,R1*
G36*
G01*
X124597380Y-84061080D02*
X124942380Y-84061080D01*
G75*
G02*
X125089880Y-84208580I0J-147500D01*
G01*
X125089880Y-84503580D01*
G75*
G02*
X124942380Y-84651080I-147500J0D01*
G01*
X124597380Y-84651080D01*
G75*
G02*
X124449880Y-84503580I0J147500D01*
G01*
X124449880Y-84208580D01*
G75*
G02*
X124597380Y-84061080I147500J0D01*
G01*
G37*
G36*
G01*
X124597380Y-85031080D02*
X124942380Y-85031080D01*
G75*
G02*
X125089880Y-85178580I0J-147500D01*
G01*
X125089880Y-85473580D01*
G75*
G02*
X124942380Y-85621080I-147500J0D01*
G01*
X124597380Y-85621080D01*
G75*
G02*
X124449880Y-85473580I0J147500D01*
G01*
X124449880Y-85178580D01*
G75*
G02*
X124597380Y-85031080I147500J0D01*
G01*
G37*
G04 #@! TD*
G04 #@! TO.C,R2*
G36*
G01*
X129458940Y-84599560D02*
X129803940Y-84599560D01*
G75*
G02*
X129951440Y-84747060I0J-147500D01*
G01*
X129951440Y-85042060D01*
G75*
G02*
X129803940Y-85189560I-147500J0D01*
G01*
X129458940Y-85189560D01*
G75*
G02*
X129311440Y-85042060I0J147500D01*
G01*
X129311440Y-84747060D01*
G75*
G02*
X129458940Y-84599560I147500J0D01*
G01*
G37*
G36*
G01*
X129458940Y-85569560D02*
X129803940Y-85569560D01*
G75*
G02*
X129951440Y-85717060I0J-147500D01*
G01*
X129951440Y-86012060D01*
G75*
G02*
X129803940Y-86159560I-147500J0D01*
G01*
X129458940Y-86159560D01*
G75*
G02*
X129311440Y-86012060I0J147500D01*
G01*
X129311440Y-85717060D01*
G75*
G02*
X129458940Y-85569560I147500J0D01*
G01*
G37*
G04 #@! TD*
G04 #@! TO.C,R3*
G36*
G01*
X127015600Y-87040940D02*
X127015600Y-87385940D01*
G75*
G02*
X126868100Y-87533440I-147500J0D01*
G01*
X126573100Y-87533440D01*
G75*
G02*
X126425600Y-87385940I0J147500D01*
G01*
X126425600Y-87040940D01*
G75*
G02*
X126573100Y-86893440I147500J0D01*
G01*
X126868100Y-86893440D01*
G75*
G02*
X127015600Y-87040940I0J-147500D01*
G01*
G37*
G36*
G01*
X126045600Y-87040940D02*
X126045600Y-87385940D01*
G75*
G02*
X125898100Y-87533440I-147500J0D01*
G01*
X125603100Y-87533440D01*
G75*
G02*
X125455600Y-87385940I0J147500D01*
G01*
X125455600Y-87040940D01*
G75*
G02*
X125603100Y-86893440I147500J0D01*
G01*
X125898100Y-86893440D01*
G75*
G02*
X126045600Y-87040940I0J-147500D01*
G01*
G37*
G04 #@! TD*
G04 #@! TO.C,R4*
G36*
G01*
X127986160Y-87040940D02*
X127986160Y-87385940D01*
G75*
G02*
X127838660Y-87533440I-147500J0D01*
G01*
X127543660Y-87533440D01*
G75*
G02*
X127396160Y-87385940I0J147500D01*
G01*
X127396160Y-87040940D01*
G75*
G02*
X127543660Y-86893440I147500J0D01*
G01*
X127838660Y-86893440D01*
G75*
G02*
X127986160Y-87040940I0J-147500D01*
G01*
G37*
G36*
G01*
X128956160Y-87040940D02*
X128956160Y-87385940D01*
G75*
G02*
X128808660Y-87533440I-147500J0D01*
G01*
X128513660Y-87533440D01*
G75*
G02*
X128366160Y-87385940I0J147500D01*
G01*
X128366160Y-87040940D01*
G75*
G02*
X128513660Y-86893440I147500J0D01*
G01*
X128808660Y-86893440D01*
G75*
G02*
X128956160Y-87040940I0J-147500D01*
G01*
G37*
G04 #@! TD*
G04 #@! TO.C,R5*
G36*
G01*
X124942380Y-87538640D02*
X124597380Y-87538640D01*
G75*
G02*
X124449880Y-87391140I0J147500D01*
G01*
X124449880Y-87096140D01*
G75*
G02*
X124597380Y-86948640I147500J0D01*
G01*
X124942380Y-86948640D01*
G75*
G02*
X125089880Y-87096140I0J-147500D01*
G01*
X125089880Y-87391140D01*
G75*
G02*
X124942380Y-87538640I-147500J0D01*
G01*
G37*
G36*
G01*
X124942380Y-86568640D02*
X124597380Y-86568640D01*
G75*
G02*
X124449880Y-86421140I0J147500D01*
G01*
X124449880Y-86126140D01*
G75*
G02*
X124597380Y-85978640I147500J0D01*
G01*
X124942380Y-85978640D01*
G75*
G02*
X125089880Y-86126140I0J-147500D01*
G01*
X125089880Y-86421140D01*
G75*
G02*
X124942380Y-86568640I-147500J0D01*
G01*
G37*
G04 #@! TD*
G04 #@! TO.C,R7*
G36*
G01*
X137551380Y-85859120D02*
X137896380Y-85859120D01*
G75*
G02*
X138043880Y-86006620I0J-147500D01*
G01*
X138043880Y-86301620D01*
G75*
G02*
X137896380Y-86449120I-147500J0D01*
G01*
X137551380Y-86449120D01*
G75*
G02*
X137403880Y-86301620I0J147500D01*
G01*
X137403880Y-86006620D01*
G75*
G02*
X137551380Y-85859120I147500J0D01*
G01*
G37*
G36*
G01*
X137551380Y-84889120D02*
X137896380Y-84889120D01*
G75*
G02*
X138043880Y-85036620I0J-147500D01*
G01*
X138043880Y-85331620D01*
G75*
G02*
X137896380Y-85479120I-147500J0D01*
G01*
X137551380Y-85479120D01*
G75*
G02*
X137403880Y-85331620I0J147500D01*
G01*
X137403880Y-85036620D01*
G75*
G02*
X137551380Y-84889120I147500J0D01*
G01*
G37*
G04 #@! TD*
G04 #@! TO.C,R12*
G36*
G01*
X148823621Y-79787851D02*
X148478621Y-79787851D01*
G75*
G02*
X148331121Y-79640351I0J147500D01*
G01*
X148331121Y-79345351D01*
G75*
G02*
X148478621Y-79197851I147500J0D01*
G01*
X148823621Y-79197851D01*
G75*
G02*
X148971121Y-79345351I0J-147500D01*
G01*
X148971121Y-79640351D01*
G75*
G02*
X148823621Y-79787851I-147500J0D01*
G01*
G37*
G36*
G01*
X148823621Y-78817851D02*
X148478621Y-78817851D01*
G75*
G02*
X148331121Y-78670351I0J147500D01*
G01*
X148331121Y-78375351D01*
G75*
G02*
X148478621Y-78227851I147500J0D01*
G01*
X148823621Y-78227851D01*
G75*
G02*
X148971121Y-78375351I0J-147500D01*
G01*
X148971121Y-78670351D01*
G75*
G02*
X148823621Y-78817851I-147500J0D01*
G01*
G37*
G04 #@! TD*
G04 #@! TO.C,R13*
G36*
G01*
X132640840Y-95788260D02*
X132640840Y-95443260D01*
G75*
G02*
X132788340Y-95295760I147500J0D01*
G01*
X133083340Y-95295760D01*
G75*
G02*
X133230840Y-95443260I0J-147500D01*
G01*
X133230840Y-95788260D01*
G75*
G02*
X133083340Y-95935760I-147500J0D01*
G01*
X132788340Y-95935760D01*
G75*
G02*
X132640840Y-95788260I0J147500D01*
G01*
G37*
G36*
G01*
X131670840Y-95788260D02*
X131670840Y-95443260D01*
G75*
G02*
X131818340Y-95295760I147500J0D01*
G01*
X132113340Y-95295760D01*
G75*
G02*
X132260840Y-95443260I0J-147500D01*
G01*
X132260840Y-95788260D01*
G75*
G02*
X132113340Y-95935760I-147500J0D01*
G01*
X131818340Y-95935760D01*
G75*
G02*
X131670840Y-95788260I0J147500D01*
G01*
G37*
G04 #@! TD*
G04 #@! TO.C,R15*
G36*
G01*
X158773080Y-84145340D02*
X158773080Y-84490340D01*
G75*
G02*
X158625580Y-84637840I-147500J0D01*
G01*
X158330580Y-84637840D01*
G75*
G02*
X158183080Y-84490340I0J147500D01*
G01*
X158183080Y-84145340D01*
G75*
G02*
X158330580Y-83997840I147500J0D01*
G01*
X158625580Y-83997840D01*
G75*
G02*
X158773080Y-84145340I0J-147500D01*
G01*
G37*
G36*
G01*
X157803080Y-84145340D02*
X157803080Y-84490340D01*
G75*
G02*
X157655580Y-84637840I-147500J0D01*
G01*
X157360580Y-84637840D01*
G75*
G02*
X157213080Y-84490340I0J147500D01*
G01*
X157213080Y-84145340D01*
G75*
G02*
X157360580Y-83997840I147500J0D01*
G01*
X157655580Y-83997840D01*
G75*
G02*
X157803080Y-84145340I0J-147500D01*
G01*
G37*
G04 #@! TD*
G04 #@! TO.C,R17*
G36*
G01*
X157627100Y-80383600D02*
X157282100Y-80383600D01*
G75*
G02*
X157134600Y-80236100I0J147500D01*
G01*
X157134600Y-79941100D01*
G75*
G02*
X157282100Y-79793600I147500J0D01*
G01*
X157627100Y-79793600D01*
G75*
G02*
X157774600Y-79941100I0J-147500D01*
G01*
X157774600Y-80236100D01*
G75*
G02*
X157627100Y-80383600I-147500J0D01*
G01*
G37*
G36*
G01*
X157627100Y-79413600D02*
X157282100Y-79413600D01*
G75*
G02*
X157134600Y-79266100I0J147500D01*
G01*
X157134600Y-78971100D01*
G75*
G02*
X157282100Y-78823600I147500J0D01*
G01*
X157627100Y-78823600D01*
G75*
G02*
X157774600Y-78971100I0J-147500D01*
G01*
X157774600Y-79266100D01*
G75*
G02*
X157627100Y-79413600I-147500J0D01*
G01*
G37*
G04 #@! TD*
G04 #@! TO.C,R18*
G36*
G01*
X158648180Y-79413600D02*
X158303180Y-79413600D01*
G75*
G02*
X158155680Y-79266100I0J147500D01*
G01*
X158155680Y-78971100D01*
G75*
G02*
X158303180Y-78823600I147500J0D01*
G01*
X158648180Y-78823600D01*
G75*
G02*
X158795680Y-78971100I0J-147500D01*
G01*
X158795680Y-79266100D01*
G75*
G02*
X158648180Y-79413600I-147500J0D01*
G01*
G37*
G36*
G01*
X158648180Y-80383600D02*
X158303180Y-80383600D01*
G75*
G02*
X158155680Y-80236100I0J147500D01*
G01*
X158155680Y-79941100D01*
G75*
G02*
X158303180Y-79793600I147500J0D01*
G01*
X158648180Y-79793600D01*
G75*
G02*
X158795680Y-79941100I0J-147500D01*
G01*
X158795680Y-80236100D01*
G75*
G02*
X158648180Y-80383600I-147500J0D01*
G01*
G37*
G04 #@! TD*
D20*
G04 #@! TO.C,U3*
X128303200Y-84876640D03*
X128303200Y-83926640D03*
X128303200Y-85826640D03*
X126103200Y-85826640D03*
X126103200Y-84876640D03*
X126103200Y-83926640D03*
G04 #@! TD*
D21*
G04 #@! TO.C,U6*
X158522800Y-94461900D03*
X158522800Y-94961900D03*
X158522800Y-95461900D03*
X158522800Y-95961900D03*
X155522800Y-95961900D03*
X155522800Y-95461900D03*
X155522800Y-94961900D03*
X155522800Y-94461900D03*
D22*
X157022800Y-95211900D03*
G04 #@! TD*
D23*
G04 #@! TO.C,U8*
X127243840Y-107704180D03*
X128513840Y-107704180D03*
X129783840Y-107704180D03*
X131053840Y-107704180D03*
D24*
X131053840Y-102224180D03*
X129783840Y-102224180D03*
X128513840Y-102224180D03*
X127243840Y-102224180D03*
G04 #@! TD*
D23*
G04 #@! TO.C,U9*
X144896840Y-107697080D03*
X146166840Y-107697080D03*
X147436840Y-107697080D03*
X148706840Y-107697080D03*
D24*
X148706840Y-102217080D03*
X147436840Y-102217080D03*
X146166840Y-102217080D03*
X144896840Y-102217080D03*
G04 #@! TD*
G04 #@! TO.C,U10*
X150599140Y-102160680D03*
X151869140Y-102160680D03*
X153139140Y-102160680D03*
X154409140Y-102160680D03*
D23*
X154409140Y-107640680D03*
X153139140Y-107640680D03*
X151869140Y-107640680D03*
X150599140Y-107640680D03*
G04 #@! TD*
D24*
G04 #@! TO.C,U11*
X136895840Y-107597080D03*
X135625840Y-107597080D03*
X134355840Y-107597080D03*
X133085840Y-107597080D03*
D23*
X133085840Y-102117080D03*
X134355840Y-102117080D03*
X135625840Y-102117080D03*
X136895840Y-102117080D03*
G04 #@! TD*
D24*
G04 #@! TO.C,U12*
X142991840Y-107602680D03*
X141721840Y-107602680D03*
X140451840Y-107602680D03*
X139181840Y-107602680D03*
D23*
X139181840Y-102122680D03*
X140451840Y-102122680D03*
X141721840Y-102122680D03*
X142991840Y-102122680D03*
G04 #@! TD*
G04 #@! TO.C,U13*
X160213040Y-102071880D03*
X158943040Y-102071880D03*
X157673040Y-102071880D03*
X156403040Y-102071880D03*
D24*
X156403040Y-107551880D03*
X157673040Y-107551880D03*
X158943040Y-107551880D03*
X160213040Y-107551880D03*
G04 #@! TD*
D20*
G04 #@! TO.C,U14*
X139859840Y-78247200D03*
X139859840Y-79197200D03*
X139859840Y-80147200D03*
X142059840Y-80147200D03*
X142059840Y-78247200D03*
X142059840Y-79197200D03*
G04 #@! TD*
D25*
G04 #@! TO.C,Y1*
X152400341Y-76915791D03*
X150200341Y-76915791D03*
X150200341Y-78615791D03*
X152400341Y-78615791D03*
G04 #@! TD*
G04 #@! TO.C,R19*
G36*
G01*
X136235740Y-100591780D02*
X136235740Y-99341780D01*
G75*
G02*
X136485740Y-99091780I250000J0D01*
G01*
X137235740Y-99091780D01*
G75*
G02*
X137485740Y-99341780I0J-250000D01*
G01*
X137485740Y-100591780D01*
G75*
G02*
X137235740Y-100841780I-250000J0D01*
G01*
X136485740Y-100841780D01*
G75*
G02*
X136235740Y-100591780I0J250000D01*
G01*
G37*
G36*
G01*
X133435740Y-100591780D02*
X133435740Y-99341780D01*
G75*
G02*
X133685740Y-99091780I250000J0D01*
G01*
X134435740Y-99091780D01*
G75*
G02*
X134685740Y-99341780I0J-250000D01*
G01*
X134685740Y-100591780D01*
G75*
G02*
X134435740Y-100841780I-250000J0D01*
G01*
X133685740Y-100841780D01*
G75*
G02*
X133435740Y-100591780I0J250000D01*
G01*
G37*
G04 #@! TD*
G04 #@! TO.C,R20*
G36*
G01*
X142641940Y-99341780D02*
X142641940Y-100591780D01*
G75*
G02*
X142391940Y-100841780I-250000J0D01*
G01*
X141641940Y-100841780D01*
G75*
G02*
X141391940Y-100591780I0J250000D01*
G01*
X141391940Y-99341780D01*
G75*
G02*
X141641940Y-99091780I250000J0D01*
G01*
X142391940Y-99091780D01*
G75*
G02*
X142641940Y-99341780I0J-250000D01*
G01*
G37*
G36*
G01*
X139841940Y-99341780D02*
X139841940Y-100591780D01*
G75*
G02*
X139591940Y-100841780I-250000J0D01*
G01*
X138841940Y-100841780D01*
G75*
G02*
X138591940Y-100591780I0J250000D01*
G01*
X138591940Y-99341780D01*
G75*
G02*
X138841940Y-99091780I250000J0D01*
G01*
X139591940Y-99091780D01*
G75*
G02*
X139841940Y-99341780I0J-250000D01*
G01*
G37*
G04 #@! TD*
G04 #@! TO.C,R21*
G36*
G01*
X158577440Y-100772580D02*
X157327440Y-100772580D01*
G75*
G02*
X157077440Y-100522580I0J250000D01*
G01*
X157077440Y-99772580D01*
G75*
G02*
X157327440Y-99522580I250000J0D01*
G01*
X158577440Y-99522580D01*
G75*
G02*
X158827440Y-99772580I0J-250000D01*
G01*
X158827440Y-100522580D01*
G75*
G02*
X158577440Y-100772580I-250000J0D01*
G01*
G37*
G36*
G01*
X158577440Y-97972580D02*
X157327440Y-97972580D01*
G75*
G02*
X157077440Y-97722580I0J250000D01*
G01*
X157077440Y-96972580D01*
G75*
G02*
X157327440Y-96722580I250000J0D01*
G01*
X158577440Y-96722580D01*
G75*
G02*
X158827440Y-96972580I0J-250000D01*
G01*
X158827440Y-97722580D01*
G75*
G02*
X158577440Y-97972580I-250000J0D01*
G01*
G37*
G04 #@! TD*
G04 #@! TO.C,J1*
G36*
G01*
X148641440Y-119128580D02*
X148641440Y-116128580D01*
G75*
G02*
X148891440Y-115878580I250000J0D01*
G01*
X149391440Y-115878580D01*
G75*
G02*
X149641440Y-116128580I0J-250000D01*
G01*
X149641440Y-119128580D01*
G75*
G02*
X149391440Y-119378580I-250000J0D01*
G01*
X148891440Y-119378580D01*
G75*
G02*
X148641440Y-119128580I0J250000D01*
G01*
G37*
G36*
G01*
X150641440Y-119128580D02*
X150641440Y-116128580D01*
G75*
G02*
X150891440Y-115878580I250000J0D01*
G01*
X151391440Y-115878580D01*
G75*
G02*
X151641440Y-116128580I0J-250000D01*
G01*
X151641440Y-119128580D01*
G75*
G02*
X151391440Y-119378580I-250000J0D01*
G01*
X150891440Y-119378580D01*
G75*
G02*
X150641440Y-119128580I0J250000D01*
G01*
G37*
G36*
G01*
X152641440Y-119128580D02*
X152641440Y-116128580D01*
G75*
G02*
X152891440Y-115878580I250000J0D01*
G01*
X153391440Y-115878580D01*
G75*
G02*
X153641440Y-116128580I0J-250000D01*
G01*
X153641440Y-119128580D01*
G75*
G02*
X153391440Y-119378580I-250000J0D01*
G01*
X152891440Y-119378580D01*
G75*
G02*
X152641440Y-119128580I0J250000D01*
G01*
G37*
G36*
G01*
X146041440Y-124828580D02*
X146041440Y-121928580D01*
G75*
G02*
X146291440Y-121678580I250000J0D01*
G01*
X147291440Y-121678580D01*
G75*
G02*
X147541440Y-121928580I0J-250000D01*
G01*
X147541440Y-124828580D01*
G75*
G02*
X147291440Y-125078580I-250000J0D01*
G01*
X146291440Y-125078580D01*
G75*
G02*
X146041440Y-124828580I0J250000D01*
G01*
G37*
G36*
G01*
X154741440Y-124828580D02*
X154741440Y-121928580D01*
G75*
G02*
X154991440Y-121678580I250000J0D01*
G01*
X155991440Y-121678580D01*
G75*
G02*
X156241440Y-121928580I0J-250000D01*
G01*
X156241440Y-124828580D01*
G75*
G02*
X155991440Y-125078580I-250000J0D01*
G01*
X154991440Y-125078580D01*
G75*
G02*
X154741440Y-124828580I0J250000D01*
G01*
G37*
G04 #@! TD*
G04 #@! TO.C,J2*
G36*
G01*
X140390440Y-124833780D02*
X140390440Y-121933780D01*
G75*
G02*
X140640440Y-121683780I250000J0D01*
G01*
X141640440Y-121683780D01*
G75*
G02*
X141890440Y-121933780I0J-250000D01*
G01*
X141890440Y-124833780D01*
G75*
G02*
X141640440Y-125083780I-250000J0D01*
G01*
X140640440Y-125083780D01*
G75*
G02*
X140390440Y-124833780I0J250000D01*
G01*
G37*
G36*
G01*
X131690440Y-124833780D02*
X131690440Y-121933780D01*
G75*
G02*
X131940440Y-121683780I250000J0D01*
G01*
X132940440Y-121683780D01*
G75*
G02*
X133190440Y-121933780I0J-250000D01*
G01*
X133190440Y-124833780D01*
G75*
G02*
X132940440Y-125083780I-250000J0D01*
G01*
X131940440Y-125083780D01*
G75*
G02*
X131690440Y-124833780I0J250000D01*
G01*
G37*
G36*
G01*
X138290440Y-119133780D02*
X138290440Y-116133780D01*
G75*
G02*
X138540440Y-115883780I250000J0D01*
G01*
X139040440Y-115883780D01*
G75*
G02*
X139290440Y-116133780I0J-250000D01*
G01*
X139290440Y-119133780D01*
G75*
G02*
X139040440Y-119383780I-250000J0D01*
G01*
X138540440Y-119383780D01*
G75*
G02*
X138290440Y-119133780I0J250000D01*
G01*
G37*
G36*
G01*
X136290440Y-119133780D02*
X136290440Y-116133780D01*
G75*
G02*
X136540440Y-115883780I250000J0D01*
G01*
X137040440Y-115883780D01*
G75*
G02*
X137290440Y-116133780I0J-250000D01*
G01*
X137290440Y-119133780D01*
G75*
G02*
X137040440Y-119383780I-250000J0D01*
G01*
X136540440Y-119383780D01*
G75*
G02*
X136290440Y-119133780I0J250000D01*
G01*
G37*
G36*
G01*
X134290440Y-119133780D02*
X134290440Y-116133780D01*
G75*
G02*
X134540440Y-115883780I250000J0D01*
G01*
X135040440Y-115883780D01*
G75*
G02*
X135290440Y-116133780I0J-250000D01*
G01*
X135290440Y-119133780D01*
G75*
G02*
X135040440Y-119383780I-250000J0D01*
G01*
X134540440Y-119383780D01*
G75*
G02*
X134290440Y-119133780I0J250000D01*
G01*
G37*
G04 #@! TD*
G04 #@! TO.C,C28*
G36*
G01*
X151512590Y-100782180D02*
X150600090Y-100782180D01*
G75*
G02*
X150356340Y-100538430I0J243750D01*
G01*
X150356340Y-100050930D01*
G75*
G02*
X150600090Y-99807180I243750J0D01*
G01*
X151512590Y-99807180D01*
G75*
G02*
X151756340Y-100050930I0J-243750D01*
G01*
X151756340Y-100538430D01*
G75*
G02*
X151512590Y-100782180I-243750J0D01*
G01*
G37*
G36*
G01*
X151512590Y-98907180D02*
X150600090Y-98907180D01*
G75*
G02*
X150356340Y-98663430I0J243750D01*
G01*
X150356340Y-98175930D01*
G75*
G02*
X150600090Y-97932180I243750J0D01*
G01*
X151512590Y-97932180D01*
G75*
G02*
X151756340Y-98175930I0J-243750D01*
G01*
X151756340Y-98663430D01*
G75*
G02*
X151512590Y-98907180I-243750J0D01*
G01*
G37*
G04 #@! TD*
G04 #@! TO.C,C29*
G36*
G01*
X162536190Y-98917580D02*
X161623690Y-98917580D01*
G75*
G02*
X161379940Y-98673830I0J243750D01*
G01*
X161379940Y-98186330D01*
G75*
G02*
X161623690Y-97942580I243750J0D01*
G01*
X162536190Y-97942580D01*
G75*
G02*
X162779940Y-98186330I0J-243750D01*
G01*
X162779940Y-98673830D01*
G75*
G02*
X162536190Y-98917580I-243750J0D01*
G01*
G37*
G36*
G01*
X162536190Y-100792580D02*
X161623690Y-100792580D01*
G75*
G02*
X161379940Y-100548830I0J243750D01*
G01*
X161379940Y-100061330D01*
G75*
G02*
X161623690Y-99817580I243750J0D01*
G01*
X162536190Y-99817580D01*
G75*
G02*
X162779940Y-100061330I0J-243750D01*
G01*
X162779940Y-100548830D01*
G75*
G02*
X162536190Y-100792580I-243750J0D01*
G01*
G37*
G04 #@! TD*
G04 #@! TO.C,C30*
G36*
G01*
X124892750Y-94558820D02*
X125805250Y-94558820D01*
G75*
G02*
X126049000Y-94802570I0J-243750D01*
G01*
X126049000Y-95290070D01*
G75*
G02*
X125805250Y-95533820I-243750J0D01*
G01*
X124892750Y-95533820D01*
G75*
G02*
X124649000Y-95290070I0J243750D01*
G01*
X124649000Y-94802570D01*
G75*
G02*
X124892750Y-94558820I243750J0D01*
G01*
G37*
G36*
G01*
X124892750Y-96433820D02*
X125805250Y-96433820D01*
G75*
G02*
X126049000Y-96677570I0J-243750D01*
G01*
X126049000Y-97165070D01*
G75*
G02*
X125805250Y-97408820I-243750J0D01*
G01*
X124892750Y-97408820D01*
G75*
G02*
X124649000Y-97165070I0J243750D01*
G01*
X124649000Y-96677570D01*
G75*
G02*
X124892750Y-96433820I243750J0D01*
G01*
G37*
G04 #@! TD*
G04 #@! TO.C,C31*
G36*
G01*
X162533650Y-109222120D02*
X161621150Y-109222120D01*
G75*
G02*
X161377400Y-108978370I0J243750D01*
G01*
X161377400Y-108490870D01*
G75*
G02*
X161621150Y-108247120I243750J0D01*
G01*
X162533650Y-108247120D01*
G75*
G02*
X162777400Y-108490870I0J-243750D01*
G01*
X162777400Y-108978370D01*
G75*
G02*
X162533650Y-109222120I-243750J0D01*
G01*
G37*
G36*
G01*
X162533650Y-111097120D02*
X161621150Y-111097120D01*
G75*
G02*
X161377400Y-110853370I0J243750D01*
G01*
X161377400Y-110365870D01*
G75*
G02*
X161621150Y-110122120I243750J0D01*
G01*
X162533650Y-110122120D01*
G75*
G02*
X162777400Y-110365870I0J-243750D01*
G01*
X162777400Y-110853370D01*
G75*
G02*
X162533650Y-111097120I-243750J0D01*
G01*
G37*
G04 #@! TD*
G04 #@! TO.C,C32*
G36*
G01*
X160554990Y-100784480D02*
X159642490Y-100784480D01*
G75*
G02*
X159398740Y-100540730I0J243750D01*
G01*
X159398740Y-100053230D01*
G75*
G02*
X159642490Y-99809480I243750J0D01*
G01*
X160554990Y-99809480D01*
G75*
G02*
X160798740Y-100053230I0J-243750D01*
G01*
X160798740Y-100540730D01*
G75*
G02*
X160554990Y-100784480I-243750J0D01*
G01*
G37*
G36*
G01*
X160554990Y-98909480D02*
X159642490Y-98909480D01*
G75*
G02*
X159398740Y-98665730I0J243750D01*
G01*
X159398740Y-98178230D01*
G75*
G02*
X159642490Y-97934480I243750J0D01*
G01*
X160554990Y-97934480D01*
G75*
G02*
X160798740Y-98178230I0J-243750D01*
G01*
X160798740Y-98665730D01*
G75*
G02*
X160554990Y-98909480I-243750J0D01*
G01*
G37*
G04 #@! TD*
G04 #@! TO.C,C33*
G36*
G01*
X125833190Y-107688680D02*
X124920690Y-107688680D01*
G75*
G02*
X124676940Y-107444930I0J243750D01*
G01*
X124676940Y-106957430D01*
G75*
G02*
X124920690Y-106713680I243750J0D01*
G01*
X125833190Y-106713680D01*
G75*
G02*
X126076940Y-106957430I0J-243750D01*
G01*
X126076940Y-107444930D01*
G75*
G02*
X125833190Y-107688680I-243750J0D01*
G01*
G37*
G36*
G01*
X125833190Y-105813680D02*
X124920690Y-105813680D01*
G75*
G02*
X124676940Y-105569930I0J243750D01*
G01*
X124676940Y-105082430D01*
G75*
G02*
X124920690Y-104838680I243750J0D01*
G01*
X125833190Y-104838680D01*
G75*
G02*
X126076940Y-105082430I0J-243750D01*
G01*
X126076940Y-105569930D01*
G75*
G02*
X125833190Y-105813680I-243750J0D01*
G01*
G37*
G04 #@! TD*
G04 #@! TO.C,C34*
G36*
G01*
X153481090Y-100779880D02*
X152568590Y-100779880D01*
G75*
G02*
X152324840Y-100536130I0J243750D01*
G01*
X152324840Y-100048630D01*
G75*
G02*
X152568590Y-99804880I243750J0D01*
G01*
X153481090Y-99804880D01*
G75*
G02*
X153724840Y-100048630I0J-243750D01*
G01*
X153724840Y-100536130D01*
G75*
G02*
X153481090Y-100779880I-243750J0D01*
G01*
G37*
G36*
G01*
X153481090Y-98904880D02*
X152568590Y-98904880D01*
G75*
G02*
X152324840Y-98661130I0J243750D01*
G01*
X152324840Y-98173630D01*
G75*
G02*
X152568590Y-97929880I243750J0D01*
G01*
X153481090Y-97929880D01*
G75*
G02*
X153724840Y-98173630I0J-243750D01*
G01*
X153724840Y-98661130D01*
G75*
G02*
X153481090Y-98904880I-243750J0D01*
G01*
G37*
G04 #@! TD*
G04 #@! TO.C,C35*
G36*
G01*
X129752410Y-98970680D02*
X128839910Y-98970680D01*
G75*
G02*
X128596160Y-98726930I0J243750D01*
G01*
X128596160Y-98239430D01*
G75*
G02*
X128839910Y-97995680I243750J0D01*
G01*
X129752410Y-97995680D01*
G75*
G02*
X129996160Y-98239430I0J-243750D01*
G01*
X129996160Y-98726930D01*
G75*
G02*
X129752410Y-98970680I-243750J0D01*
G01*
G37*
G36*
G01*
X129752410Y-100845680D02*
X128839910Y-100845680D01*
G75*
G02*
X128596160Y-100601930I0J243750D01*
G01*
X128596160Y-100114430D01*
G75*
G02*
X128839910Y-99870680I243750J0D01*
G01*
X129752410Y-99870680D01*
G75*
G02*
X129996160Y-100114430I0J-243750D01*
G01*
X129996160Y-100601930D01*
G75*
G02*
X129752410Y-100845680I-243750J0D01*
G01*
G37*
G04 #@! TD*
G04 #@! TO.C,C36*
G36*
G01*
X124920690Y-103297380D02*
X125833190Y-103297380D01*
G75*
G02*
X126076940Y-103541130I0J-243750D01*
G01*
X126076940Y-104028630D01*
G75*
G02*
X125833190Y-104272380I-243750J0D01*
G01*
X124920690Y-104272380D01*
G75*
G02*
X124676940Y-104028630I0J243750D01*
G01*
X124676940Y-103541130D01*
G75*
G02*
X124920690Y-103297380I243750J0D01*
G01*
G37*
G36*
G01*
X124920690Y-101422380D02*
X125833190Y-101422380D01*
G75*
G02*
X126076940Y-101666130I0J-243750D01*
G01*
X126076940Y-102153630D01*
G75*
G02*
X125833190Y-102397380I-243750J0D01*
G01*
X124920690Y-102397380D01*
G75*
G02*
X124676940Y-102153630I0J243750D01*
G01*
X124676940Y-101666130D01*
G75*
G02*
X124920690Y-101422380I243750J0D01*
G01*
G37*
G04 #@! TD*
G04 #@! TO.C,C37*
G36*
G01*
X146762790Y-98970680D02*
X145850290Y-98970680D01*
G75*
G02*
X145606540Y-98726930I0J243750D01*
G01*
X145606540Y-98239430D01*
G75*
G02*
X145850290Y-97995680I243750J0D01*
G01*
X146762790Y-97995680D01*
G75*
G02*
X147006540Y-98239430I0J-243750D01*
G01*
X147006540Y-98726930D01*
G75*
G02*
X146762790Y-98970680I-243750J0D01*
G01*
G37*
G36*
G01*
X146762790Y-100845680D02*
X145850290Y-100845680D01*
G75*
G02*
X145606540Y-100601930I0J243750D01*
G01*
X145606540Y-100114430D01*
G75*
G02*
X145850290Y-99870680I243750J0D01*
G01*
X146762790Y-99870680D01*
G75*
G02*
X147006540Y-100114430I0J-243750D01*
G01*
X147006540Y-100601930D01*
G75*
G02*
X146762790Y-100845680I-243750J0D01*
G01*
G37*
G04 #@! TD*
G04 #@! TO.C,C38*
G36*
G01*
X162536190Y-105788280D02*
X161623690Y-105788280D01*
G75*
G02*
X161379940Y-105544530I0J243750D01*
G01*
X161379940Y-105057030D01*
G75*
G02*
X161623690Y-104813280I243750J0D01*
G01*
X162536190Y-104813280D01*
G75*
G02*
X162779940Y-105057030I0J-243750D01*
G01*
X162779940Y-105544530D01*
G75*
G02*
X162536190Y-105788280I-243750J0D01*
G01*
G37*
G36*
G01*
X162536190Y-107663280D02*
X161623690Y-107663280D01*
G75*
G02*
X161379940Y-107419530I0J243750D01*
G01*
X161379940Y-106932030D01*
G75*
G02*
X161623690Y-106688280I243750J0D01*
G01*
X162536190Y-106688280D01*
G75*
G02*
X162779940Y-106932030I0J-243750D01*
G01*
X162779940Y-107419530D01*
G75*
G02*
X162536190Y-107663280I-243750J0D01*
G01*
G37*
G04 #@! TD*
G04 #@! TO.C,C39*
G36*
G01*
X124923230Y-108267440D02*
X125835730Y-108267440D01*
G75*
G02*
X126079480Y-108511190I0J-243750D01*
G01*
X126079480Y-108998690D01*
G75*
G02*
X125835730Y-109242440I-243750J0D01*
G01*
X124923230Y-109242440D01*
G75*
G02*
X124679480Y-108998690I0J243750D01*
G01*
X124679480Y-108511190D01*
G75*
G02*
X124923230Y-108267440I243750J0D01*
G01*
G37*
G36*
G01*
X124923230Y-110142440D02*
X125835730Y-110142440D01*
G75*
G02*
X126079480Y-110386190I0J-243750D01*
G01*
X126079480Y-110873690D01*
G75*
G02*
X125835730Y-111117440I-243750J0D01*
G01*
X124923230Y-111117440D01*
G75*
G02*
X124679480Y-110873690I0J243750D01*
G01*
X124679480Y-110386190D01*
G75*
G02*
X124923230Y-110142440I243750J0D01*
G01*
G37*
G04 #@! TD*
G04 #@! TO.C,C40*
G36*
G01*
X127783910Y-98970680D02*
X126871410Y-98970680D01*
G75*
G02*
X126627660Y-98726930I0J243750D01*
G01*
X126627660Y-98239430D01*
G75*
G02*
X126871410Y-97995680I243750J0D01*
G01*
X127783910Y-97995680D01*
G75*
G02*
X128027660Y-98239430I0J-243750D01*
G01*
X128027660Y-98726930D01*
G75*
G02*
X127783910Y-98970680I-243750J0D01*
G01*
G37*
G36*
G01*
X127783910Y-100845680D02*
X126871410Y-100845680D01*
G75*
G02*
X126627660Y-100601930I0J243750D01*
G01*
X126627660Y-100114430D01*
G75*
G02*
X126871410Y-99870680I243750J0D01*
G01*
X127783910Y-99870680D01*
G75*
G02*
X128027660Y-100114430I0J-243750D01*
G01*
X128027660Y-100601930D01*
G75*
G02*
X127783910Y-100845680I-243750J0D01*
G01*
G37*
G04 #@! TD*
G04 #@! TO.C,C41*
G36*
G01*
X161623690Y-103248880D02*
X162536190Y-103248880D01*
G75*
G02*
X162779940Y-103492630I0J-243750D01*
G01*
X162779940Y-103980130D01*
G75*
G02*
X162536190Y-104223880I-243750J0D01*
G01*
X161623690Y-104223880D01*
G75*
G02*
X161379940Y-103980130I0J243750D01*
G01*
X161379940Y-103492630D01*
G75*
G02*
X161623690Y-103248880I243750J0D01*
G01*
G37*
G36*
G01*
X161623690Y-101373880D02*
X162536190Y-101373880D01*
G75*
G02*
X162779940Y-101617630I0J-243750D01*
G01*
X162779940Y-102105130D01*
G75*
G02*
X162536190Y-102348880I-243750J0D01*
G01*
X161623690Y-102348880D01*
G75*
G02*
X161379940Y-102105130I0J243750D01*
G01*
X161379940Y-101617630D01*
G75*
G02*
X161623690Y-101373880I243750J0D01*
G01*
G37*
G04 #@! TD*
G04 #@! TO.C,C42*
G36*
G01*
X125815410Y-100845680D02*
X124902910Y-100845680D01*
G75*
G02*
X124659160Y-100601930I0J243750D01*
G01*
X124659160Y-100114430D01*
G75*
G02*
X124902910Y-99870680I243750J0D01*
G01*
X125815410Y-99870680D01*
G75*
G02*
X126059160Y-100114430I0J-243750D01*
G01*
X126059160Y-100601930D01*
G75*
G02*
X125815410Y-100845680I-243750J0D01*
G01*
G37*
G36*
G01*
X125815410Y-98970680D02*
X124902910Y-98970680D01*
G75*
G02*
X124659160Y-98726930I0J243750D01*
G01*
X124659160Y-98239430D01*
G75*
G02*
X124902910Y-97995680I243750J0D01*
G01*
X125815410Y-97995680D01*
G75*
G02*
X126059160Y-98239430I0J-243750D01*
G01*
X126059160Y-98726930D01*
G75*
G02*
X125815410Y-98970680I-243750J0D01*
G01*
G37*
G04 #@! TD*
G04 #@! TO.C,C43*
G36*
G01*
X148731290Y-100845680D02*
X147818790Y-100845680D01*
G75*
G02*
X147575040Y-100601930I0J243750D01*
G01*
X147575040Y-100114430D01*
G75*
G02*
X147818790Y-99870680I243750J0D01*
G01*
X148731290Y-99870680D01*
G75*
G02*
X148975040Y-100114430I0J-243750D01*
G01*
X148975040Y-100601930D01*
G75*
G02*
X148731290Y-100845680I-243750J0D01*
G01*
G37*
G36*
G01*
X148731290Y-98970680D02*
X147818790Y-98970680D01*
G75*
G02*
X147575040Y-98726930I0J243750D01*
G01*
X147575040Y-98239430D01*
G75*
G02*
X147818790Y-97995680I243750J0D01*
G01*
X148731290Y-97995680D01*
G75*
G02*
X148975040Y-98239430I0J-243750D01*
G01*
X148975040Y-98726930D01*
G75*
G02*
X148731290Y-98970680I-243750J0D01*
G01*
G37*
G04 #@! TD*
G04 #@! TO.C,D5*
G36*
G01*
X141798760Y-76111390D02*
X141798760Y-76623890D01*
G75*
G02*
X141580010Y-76842640I-218750J0D01*
G01*
X141142510Y-76842640D01*
G75*
G02*
X140923760Y-76623890I0J218750D01*
G01*
X140923760Y-76111390D01*
G75*
G02*
X141142510Y-75892640I218750J0D01*
G01*
X141580010Y-75892640D01*
G75*
G02*
X141798760Y-76111390I0J-218750D01*
G01*
G37*
G36*
G01*
X140223760Y-76111390D02*
X140223760Y-76623890D01*
G75*
G02*
X140005010Y-76842640I-218750J0D01*
G01*
X139567510Y-76842640D01*
G75*
G02*
X139348760Y-76623890I0J218750D01*
G01*
X139348760Y-76111390D01*
G75*
G02*
X139567510Y-75892640I218750J0D01*
G01*
X140005010Y-75892640D01*
G75*
G02*
X140223760Y-76111390I0J-218750D01*
G01*
G37*
G04 #@! TD*
G04 #@! TO.C,R10*
G36*
G01*
X143944560Y-76195140D02*
X143944560Y-76540140D01*
G75*
G02*
X143797060Y-76687640I-147500J0D01*
G01*
X143502060Y-76687640D01*
G75*
G02*
X143354560Y-76540140I0J147500D01*
G01*
X143354560Y-76195140D01*
G75*
G02*
X143502060Y-76047640I147500J0D01*
G01*
X143797060Y-76047640D01*
G75*
G02*
X143944560Y-76195140I0J-147500D01*
G01*
G37*
G36*
G01*
X142974560Y-76195140D02*
X142974560Y-76540140D01*
G75*
G02*
X142827060Y-76687640I-147500J0D01*
G01*
X142532060Y-76687640D01*
G75*
G02*
X142384560Y-76540140I0J147500D01*
G01*
X142384560Y-76195140D01*
G75*
G02*
X142532060Y-76047640I147500J0D01*
G01*
X142827060Y-76047640D01*
G75*
G02*
X142974560Y-76195140I0J-147500D01*
G01*
G37*
G04 #@! TD*
G04 #@! TO.C,C11*
G36*
G01*
X144378900Y-98826000D02*
X144723900Y-98826000D01*
G75*
G02*
X144871400Y-98973500I0J-147500D01*
G01*
X144871400Y-99268500D01*
G75*
G02*
X144723900Y-99416000I-147500J0D01*
G01*
X144378900Y-99416000D01*
G75*
G02*
X144231400Y-99268500I0J147500D01*
G01*
X144231400Y-98973500D01*
G75*
G02*
X144378900Y-98826000I147500J0D01*
G01*
G37*
G36*
G01*
X144378900Y-99796000D02*
X144723900Y-99796000D01*
G75*
G02*
X144871400Y-99943500I0J-147500D01*
G01*
X144871400Y-100238500D01*
G75*
G02*
X144723900Y-100386000I-147500J0D01*
G01*
X144378900Y-100386000D01*
G75*
G02*
X144231400Y-100238500I0J147500D01*
G01*
X144231400Y-99943500D01*
G75*
G02*
X144378900Y-99796000I147500J0D01*
G01*
G37*
G04 #@! TD*
G04 #@! TO.C,C23*
G36*
G01*
X153611700Y-95166400D02*
X153611700Y-95511400D01*
G75*
G02*
X153464200Y-95658900I-147500J0D01*
G01*
X153169200Y-95658900D01*
G75*
G02*
X153021700Y-95511400I0J147500D01*
G01*
X153021700Y-95166400D01*
G75*
G02*
X153169200Y-95018900I147500J0D01*
G01*
X153464200Y-95018900D01*
G75*
G02*
X153611700Y-95166400I0J-147500D01*
G01*
G37*
G36*
G01*
X152641700Y-95166400D02*
X152641700Y-95511400D01*
G75*
G02*
X152494200Y-95658900I-147500J0D01*
G01*
X152199200Y-95658900D01*
G75*
G02*
X152051700Y-95511400I0J147500D01*
G01*
X152051700Y-95166400D01*
G75*
G02*
X152199200Y-95018900I147500J0D01*
G01*
X152494200Y-95018900D01*
G75*
G02*
X152641700Y-95166400I0J-147500D01*
G01*
G37*
G04 #@! TD*
G04 #@! TO.C,C24*
G36*
G01*
X160819700Y-97060800D02*
X160819700Y-96715800D01*
G75*
G02*
X160967200Y-96568300I147500J0D01*
G01*
X161262200Y-96568300D01*
G75*
G02*
X161409700Y-96715800I0J-147500D01*
G01*
X161409700Y-97060800D01*
G75*
G02*
X161262200Y-97208300I-147500J0D01*
G01*
X160967200Y-97208300D01*
G75*
G02*
X160819700Y-97060800I0J147500D01*
G01*
G37*
G36*
G01*
X159849700Y-97060800D02*
X159849700Y-96715800D01*
G75*
G02*
X159997200Y-96568300I147500J0D01*
G01*
X160292200Y-96568300D01*
G75*
G02*
X160439700Y-96715800I0J-147500D01*
G01*
X160439700Y-97060800D01*
G75*
G02*
X160292200Y-97208300I-147500J0D01*
G01*
X159997200Y-97208300D01*
G75*
G02*
X159849700Y-97060800I0J147500D01*
G01*
G37*
G04 #@! TD*
M02*
